<?xml version="1.0" encoding="utf-8"?>
<!-- Generator: Adobe Illustrator 16.0.0, SVG Export Plug-In . SVG Version: 6.00 Build 0)  -->
<!DOCTYPE svg PUBLIC "-//W3C//DTD SVG 1.0//EN" "http://www.w3.org/TR/2001/REC-SVG-20010904/DTD/svg10.dtd">
<svg version="1.0" id="Layer_1" xmlns="http://www.w3.org/2000/svg" xmlns:xlink="http://www.w3.org/1999/xlink" x="0px" y="0px"
	 width="110.611px" height="110.453px" viewBox="0 0 110.611 110.453" enable-background="new 0 0 110.611 110.453"
	 xml:space="preserve">
<g>
	<path fill="#101111" d="M110.088,55.543c0,30.12-24.42,54.543-54.539,54.543C25.422,110.086,1,85.663,1,55.543
		C1,25.42,25.422,1,55.549,1C85.668,1,110.088,25.42,110.088,55.543z"/>
</g>
<g opacity="0.7">
	<path fill="#FFFFFF" d="M55.549,99.424c-24.199,0-43.887-19.686-43.887-43.881c0-24.199,19.688-43.886,43.887-43.886
		c24.196,0,43.881,19.688,43.881,43.886C99.43,79.738,79.745,99.424,55.549,99.424z M55.549,12.157
		c-23.923,0-43.387,19.463-43.387,43.386c0,23.92,19.463,43.381,43.387,43.381c23.92,0,43.381-19.461,43.381-43.381
		C98.93,31.62,79.469,12.157,55.549,12.157z"/>
</g>
<text transform="matrix(1 0 0 1 22.8049 59.5977)" fill="#FFFFFF" font-family="'GothicA1-Bold'" font-size="17.2296">perfume</text>
</svg>
