<?xml version="1.0" encoding="utf-8"?>
<!-- Generator: Adobe Illustrator 16.0.0, SVG Export Plug-In . SVG Version: 6.00 Build 0)  -->
<!DOCTYPE svg PUBLIC "-//W3C//DTD SVG 1.0//EN" "http://www.w3.org/TR/2001/REC-SVG-20010904/DTD/svg10.dtd">
<svg version="1.0" id="Layer_1" xmlns="http://www.w3.org/2000/svg" xmlns:xlink="http://www.w3.org/1999/xlink" x="0px" y="0px"
	 width="192.607px" height="33px" viewBox="0 0 192.607 33" enable-background="new 0 0 192.607 33" xml:space="preserve">
<g>
	<path d="M2.99,32.021c-0.114,0-0.226-0.022-0.333-0.067c-0.355-0.147-0.795-0.45-1.344-0.927l-0.06-0.21
		c0.161-0.526,0.418-1.396,0.773-2.61c0.35-1.197,0.818-2.947,1.391-5.201c0.573-2.258,1.277-5.127,2.114-8.61
		c0.834-3.477,1.823-7.801,2.938-12.854c0.186-0.331,0.42-0.517,0.718-0.612c0.195-0.062,0.394-0.094,0.59-0.094
		c0.085,0,0.17,0.006,0.255,0.018c0.284,0.039,0.529,0.132,0.727,0.277c0.259,0.19,0.315,0.4,0.309,0.56l6.685,16.255l3.333-1.014
		c0.017,0,0.033,0,0.049,0c0.375,0,0.657,0.095,0.888,0.276c0.25,0.193,0.391,0.437,0.42,0.722c0.027,0.276-0.065,0.57-0.276,0.873
		c-0.207,0.298-0.563,0.536-1.061,0.71c-0.184,0.069-0.431,0.146-0.736,0.229c-0.3,0.08-0.6,0.155-0.9,0.225
		c-0.292,0.067-0.537,0.135-0.738,0.201c-0.068,0.022-0.114,0.042-0.144,0.057l3.774,10.065l-0.001,0.145
		c-0.043,0.108-0.087,0.244-0.13,0.406c-0.057,0.216-0.174,0.392-0.349,0.522c-0.138,0.104-0.322,0.156-0.546,0.156
		c-0.068,0-0.14-0.005-0.218-0.015c-0.306-0.039-0.713-0.211-1.246-0.525l-0.084-0.099L15.9,20.939
		c-0.453,0.121-1.001,0.239-1.632,0.352c-0.711,0.126-1.458,0.252-2.238,0.378c-0.775,0.126-1.557,0.274-2.344,0.445
		c-0.778,0.169-1.503,0.38-2.155,0.627c-0.643,0.244-1.192,0.541-1.633,0.883c-0.422,0.327-0.667,0.709-0.75,1.167
		c-0.045,0.314-0.131,0.844-0.257,1.58c-0.126,0.732-0.247,1.465-0.361,2.197c-0.138,0.872-0.298,1.813-0.482,2.823l-0.055,0.105
		C3.646,31.844,3.309,32.021,2.99,32.021z M6.707,20.362C7.053,20.256,7.48,20.144,8,20.022l2.235-0.517l2.424-0.55
		c0.727-0.164,1.398-0.338,2-0.519l-4.545-12.38L6.707,20.362z"/>
	<path d="M1.444,30.875c0.161-0.527,0.418-1.398,0.773-2.613c0.355-1.215,0.819-2.951,1.393-5.208
		c0.573-2.258,1.277-5.128,2.114-8.612c0.836-3.484,1.816-7.77,2.939-12.857C8.801,1.355,8.996,1.201,9.248,1.12
		C9.5,1.04,9.752,1.017,10.004,1.052c0.252,0.034,0.464,0.114,0.636,0.24s0.246,0.27,0.224,0.43l6.772,16.468l3.506-1.066
		c0.298,0,0.55,0.08,0.756,0.241c0.206,0.16,0.321,0.354,0.344,0.584s-0.058,0.476-0.241,0.739s-0.504,0.476-0.962,0.636
		c-0.184,0.069-0.424,0.144-0.722,0.224s-0.596,0.154-0.894,0.224c-0.298,0.068-0.55,0.138-0.756,0.206
		c-0.207,0.068-0.31,0.138-0.31,0.206l3.816,10.176c-0.046,0.115-0.092,0.258-0.137,0.43c-0.046,0.173-0.138,0.31-0.275,0.413
		s-0.344,0.138-0.619,0.104c-0.275-0.035-0.665-0.201-1.169-0.499l-3.954-10.107c-0.481,0.138-1.077,0.27-1.788,0.396
		s-1.455,0.252-2.234,0.378s-1.564,0.275-2.355,0.447s-1.519,0.384-2.183,0.636s-1.226,0.556-1.685,0.911s-0.733,0.785-0.825,1.289
		c-0.046,0.321-0.132,0.849-0.258,1.582c-0.126,0.733-0.247,1.467-0.361,2.2c-0.138,0.871-0.298,1.811-0.481,2.818
		c-0.412,0.413-0.785,0.551-1.117,0.413C2.401,31.631,1.972,31.333,1.444,30.875z M10.073,5.366L6.429,20.664
		c0.39-0.138,0.928-0.286,1.616-0.447c0.688-0.16,1.433-0.332,2.234-0.516c0.802-0.183,1.61-0.366,2.424-0.55
		s1.553-0.378,2.217-0.584L10.073,5.366z"/>
	<path d="M46.082,31.796c-0.252-0.026-0.523-0.107-0.806-0.242c-0.273-0.131-0.535-0.295-0.777-0.488l-0.075-0.139l-2.18-24.822
		c-0.028,0.08-0.06,0.174-0.094,0.284c-0.195,0.618-0.441,1.419-0.739,2.404c-0.297,0.985-0.624,2.095-0.979,3.332
		c-0.357,1.242-0.739,2.481-1.137,3.686c-0.401,1.215-0.813,2.363-1.224,3.414c-0.415,1.061-0.832,1.917-1.239,2.545
		c-0.437,0.675-0.853,1.036-1.27,1.104l-0.104,0.009c-0.423,0-0.781-0.398-1.095-1.218c-0.35-0.517-0.771-1.288-1.231-2.255
		c-0.459-0.963-0.946-2.007-1.462-3.13c-0.516-1.123-1.054-2.286-1.615-3.489c-0.559-1.197-1.129-2.32-1.695-3.339
		c-0.566-1.02-1.129-1.921-1.672-2.679c-0.42-0.587-0.828-1.034-1.217-1.335c0.014,1.673,0.117,3.514,0.307,5.479
		c0.207,2.13,0.429,4.29,0.67,6.478c0.241,2.19,0.465,4.351,0.671,6.482c0.206,2.127,0.311,4.123,0.311,5.933
		c0.121,0.195,0.128,0.484-0.001,0.77c-0.12,0.269-0.305,0.474-0.549,0.608c-0.158,0.088-0.334,0.133-0.524,0.133
		c-0.109,0-0.225-0.015-0.343-0.044c-0.324-0.082-0.618-0.318-0.875-0.702c-0.351-2.368-0.583-4.732-0.721-7.112l-0.413-7.186
		c-0.136-2.38-0.303-4.795-0.498-7.18c-0.194-2.368-0.488-4.733-0.875-7.03c-0.03-0.565,0.08-0.905,0.332-1.062
		C23.176,0.868,23.443,0.8,23.756,0.8c1.113,0.313,2.078,0.879,2.923,1.688c0.835,0.801,1.603,1.75,2.282,2.822
		c0.678,1.068,1.307,2.25,1.87,3.515c0.562,1.261,1.118,2.516,1.668,3.766c0.55,1.248,1.104,2.449,1.647,3.568
		c0.519,1.072,1.097,2.013,1.717,2.8c0.012-0.009,0.026-0.02,0.041-0.035c0.021-0.021,0.104-0.126,0.282-0.584
		c0.137-0.353,0.331-0.896,0.582-1.625c0.251-0.732,0.589-1.751,1.013-3.056l3.936-12.17c0.063-0.188,0.209-0.346,0.436-0.474
		c0.213-0.12,0.449-0.181,0.7-0.181c0.264,0,0.509,0.09,0.728,0.269c0.224,0.181,0.371,0.473,0.449,0.892
		c0.229,2.109,0.444,4.36,0.639,6.707c0.194,2.349,0.406,4.749,0.636,7.2c0.227,2.434,0.493,4.937,0.79,7.438
		c0.297,2.502,0.667,4.99,1.098,7.396c-0.052,0.436-0.181,0.704-0.382,0.862c-0.172,0.135-0.376,0.203-0.606,0.203
		C46.164,31.802,46.124,31.8,46.082,31.796z"/>
	<path d="M42.389,5.469c-0.092-0.046-0.235,0.241-0.43,0.859S41.518,7.75,41.22,8.735c-0.298,0.986-0.625,2.097-0.979,3.335
		c-0.355,1.237-0.733,2.463-1.135,3.678c-0.401,1.215-0.808,2.35-1.22,3.403c-0.413,1.055-0.819,1.891-1.221,2.51
		c-0.401,0.619-0.779,0.957-1.134,1.015c-0.355,0.057-0.682-0.304-0.98-1.083c-0.367-0.551-0.779-1.307-1.237-2.27
		c-0.458-0.962-0.946-2.005-1.461-3.128s-1.054-2.286-1.616-3.49c-0.562-1.203-1.128-2.32-1.702-3.352
		C27.961,8.322,27.4,7.423,26.85,6.655c-0.55-0.768-1.077-1.301-1.581-1.599c0,1.788,0.103,3.747,0.309,5.878
		c0.207,2.131,0.43,4.292,0.67,6.48c0.241,2.189,0.464,4.35,0.67,6.48c0.207,2.132,0.31,4.103,0.31,5.913
		c0.115,0.229,0.12,0.459,0.017,0.688c-0.103,0.229-0.258,0.401-0.464,0.516c-0.207,0.115-0.447,0.138-0.722,0.069
		c-0.275-0.069-0.527-0.275-0.756-0.619c-0.321-2.292-0.55-4.63-0.688-7.013c-0.138-2.384-0.275-4.779-0.413-7.186
		c-0.137-2.406-0.304-4.801-0.499-7.185c-0.195-2.383-0.487-4.732-0.876-7.047c-0.023-0.458,0.057-0.745,0.241-0.859
		C23.251,1.057,23.48,1,23.756,1c1.031,0.298,1.959,0.842,2.785,1.633c0.825,0.791,1.576,1.719,2.251,2.785
		c0.676,1.066,1.295,2.229,1.856,3.489c0.562,1.261,1.117,2.516,1.667,3.765s1.1,2.441,1.65,3.575
		c0.55,1.135,1.158,2.115,1.822,2.939c0.092,0,0.178-0.04,0.258-0.12s0.189-0.298,0.327-0.653c0.137-0.354,0.333-0.899,0.584-1.633
		s0.59-1.753,1.014-3.06c0.424-1.306,0.957-2.951,1.598-4.933c0.642-1.982,1.421-4.395,2.338-7.237
		c0.046-0.137,0.161-0.258,0.344-0.361c0.184-0.103,0.384-0.155,0.602-0.155s0.418,0.075,0.602,0.224
		c0.184,0.149,0.31,0.407,0.378,0.773c0.229,2.108,0.441,4.337,0.636,6.687c0.194,2.349,0.406,4.75,0.636,7.202
		c0.229,2.452,0.493,4.934,0.791,7.443c0.298,2.509,0.665,4.979,1.1,7.408c-0.046,0.32-0.149,0.544-0.309,0.67
		c-0.161,0.126-0.355,0.178-0.584,0.155c-0.229-0.023-0.476-0.098-0.739-0.224s-0.51-0.281-0.739-0.464L42.389,5.469z"/>
	<path d="M50.714,31.107c-0.34-0.049-0.622-0.131-0.838-0.245c-0.22-0.116-0.456-0.315-0.725-0.609l-0.053-0.135
		c0-2.192,0.041-4.462,0.121-6.745c0.08-2.287,0.114-4.614,0.103-6.919c-0.011-2.307-0.109-4.632-0.291-6.912
		c-0.182-2.273-0.528-4.53-1.027-6.709c-0.005-0.194,0.047-0.366,0.156-0.569c0.101-0.189,0.229-0.361,0.378-0.512
		c0.154-0.153,0.33-0.276,0.521-0.366c0.118-0.056,0.242-0.084,0.367-0.084c0.105,0,0.213,0.021,0.32,0.06
		c0.342,0.132,0.625,0.386,0.842,0.757c0.203,0.347,0.361,0.728,0.468,1.133c0.105,0.398,0.177,0.785,0.212,1.149
		c0.021,0.215,0.035,0.395,0.043,0.54L64.308,1.7c0.35,0.056,0.559,0.207,0.714,0.447c0.149,0.23,0.217,0.49,0.204,0.771
		c-0.013,0.275-0.104,0.546-0.272,0.804c-0.175,0.269-0.438,0.458-0.78,0.563L51.287,7.788c0.002,1.429,0.043,2.865,0.12,4.271
		c0.075,1.381,0.167,2.783,0.272,4.206l9.311-3.25c0.22-0.248,0.469-0.44,0.686-0.542c0.182-0.085,0.375-0.129,0.576-0.129
		c0.049,0,0.099,0.002,0.148,0.008c0.284,0.03,0.541,0.228,0.784,0.606l0.032,0.108c0,0.526-0.307,1.004-0.912,1.42
		c-0.559,0.385-1.261,0.745-2.085,1.07c-0.81,0.319-1.706,0.627-2.663,0.917c-0.945,0.284-1.832,0.578-2.636,0.872
		c-0.794,0.291-1.473,0.593-2.017,0.898c-0.479,0.27-0.723,0.541-0.723,0.806l-0.238,8.922c0.204,0.095,0.466,0.143,0.781,0.143
		c0.151,0,0.313-0.011,0.487-0.032c0.638-0.078,1.362-0.232,2.152-0.459c0.785-0.224,1.636-0.505,2.529-0.837
		c0.895-0.332,1.755-0.647,2.58-0.946c0.827-0.298,1.591-0.563,2.292-0.793c0.727-0.237,1.3-0.364,1.754-0.388
		c0.274,0.027,0.494,0.117,0.684,0.267c0.186,0.146,0.322,0.317,0.404,0.508c0.088,0.205,0.096,0.421,0.023,0.641
		c-0.075,0.226-0.268,0.41-0.571,0.549c-0.896,0.391-1.987,0.831-3.243,1.311c-1.248,0.477-2.563,0.946-3.909,1.396
		c-1.339,0.446-2.656,0.841-3.915,1.173c-1.264,0.333-2.352,0.537-3.232,0.607L50.714,31.107z"/>
	<path d="M49.299,30.118c0-2.2,0.04-4.446,0.12-6.738s0.115-4.601,0.103-6.927c-0.011-2.327-0.109-4.636-0.292-6.927
		c-0.184-2.292-0.527-4.538-1.032-6.738c0-0.115,0.046-0.258,0.138-0.43s0.206-0.327,0.344-0.464
		c0.138-0.137,0.292-0.246,0.464-0.326c0.172-0.081,0.349-0.086,0.533-0.018c0.298,0.115,0.544,0.338,0.739,0.67
		c0.195,0.333,0.344,0.693,0.447,1.083s0.172,0.762,0.207,1.117c0.034,0.355,0.051,0.613,0.051,0.774l13.236-3.301
		c0.206,0.046,0.372,0.167,0.498,0.361s0.184,0.413,0.172,0.653c-0.011,0.24-0.091,0.476-0.24,0.705
		c-0.149,0.229-0.373,0.39-0.671,0.481L51.086,7.635c0,1.49,0.04,2.968,0.12,4.435s0.178,2.957,0.292,4.469l9.557-3.335
		c0.275-0.275,0.51-0.458,0.705-0.55c0.195-0.092,0.401-0.126,0.619-0.104c0.218,0.023,0.43,0.195,0.636,0.516
		c0,0.458-0.275,0.877-0.825,1.255c-0.55,0.378-1.232,0.728-2.045,1.049c-0.814,0.321-1.696,0.624-2.647,0.911
		c-0.951,0.286-1.834,0.578-2.647,0.876s-1.495,0.603-2.045,0.911c-0.55,0.31-0.825,0.637-0.825,0.98l-0.241,9.041
		c0.344,0.206,0.842,0.27,1.496,0.189s1.381-0.235,2.183-0.465c0.802-0.229,1.65-0.51,2.544-0.842
		c0.894-0.332,1.753-0.647,2.578-0.945c0.825-0.298,1.587-0.562,2.286-0.791c0.699-0.229,1.267-0.355,1.702-0.378
		c0.206,0.022,0.39,0.098,0.55,0.224s0.275,0.27,0.344,0.43s0.074,0.326,0.017,0.498s-0.212,0.315-0.464,0.43
		c-0.894,0.39-1.971,0.825-3.232,1.307c-1.26,0.481-2.561,0.945-3.901,1.393c-1.341,0.446-2.642,0.836-3.902,1.169
		c-1.26,0.332-2.326,0.532-3.197,0.602c-0.32-0.046-0.578-0.121-0.773-0.224C49.774,30.582,49.551,30.394,49.299,30.118z"/>
	<path d="M69.169,31.075c-0.53,0-1.163-0.291-1.163-1.679c-0.068-4.89-0.149-9.012-0.24-12.25c-0.092-3.266-0.172-5.913-0.241-7.94
		c-0.069-2.027-0.126-3.527-0.172-4.501c-0.046-0.979-0.069-1.618-0.069-1.917c0-0.395,0.117-0.718,0.347-0.962
		c0.223-0.236,0.474-0.356,0.745-0.356c0.332,0.016,0.599,0.166,0.841,0.449c0.238,0.277,0.367,0.694,0.392,1.273l1.09,24.964
		l14.689-3.114c0.01,0,0.02,0,0.029,0c0.871,0,1.375,0.191,1.584,0.58c0.214,0.4,0.081,0.952-0.408,1.687l-0.125,0.084L69.21,31.07
		L69.169,31.075z"/>
	<path d="M68.207,29.396c-0.069-4.905-0.149-8.99-0.241-12.256c-0.092-3.266-0.172-5.913-0.241-7.941s-0.126-3.529-0.172-4.503
		s-0.069-1.61-0.069-1.908c0-0.344,0.098-0.619,0.292-0.825c0.195-0.206,0.407-0.304,0.636-0.292
		c0.229,0.011,0.447,0.137,0.653,0.378c0.207,0.241,0.321,0.625,0.344,1.152l1.1,25.199l14.92-3.163c1.536,0,1.868,0.653,0.997,1.96
		l-17.258,3.679C68.527,30.875,68.207,30.382,68.207,29.396z"/>
	<path d="M90.179,31.369c-0.19,0-0.387-0.033-0.584-0.099c-0.236-0.079-0.436-0.199-0.594-0.357l-0.058-0.137L88.221,2.07
		l0.034-0.116c0.118-0.177,0.3-0.302,0.54-0.373c0.157-0.046,0.32-0.069,0.484-0.069c0.064,0,0.13,0.003,0.195,0.011
		c0.227,0.025,0.45,0.089,0.665,0.189c0.233,0.11,0.391,0.237,0.482,0.388l0.029,0.1l0.516,28.19c0,0.34-0.094,0.588-0.278,0.741
		c-0.171,0.143-0.378,0.222-0.615,0.235L90.179,31.369z"/>
	<path d="M88.421,2.065c0.092-0.137,0.235-0.235,0.43-0.292s0.396-0.074,0.602-0.052c0.206,0.023,0.407,0.081,0.602,0.172
		c0.195,0.092,0.327,0.195,0.396,0.31l0.516,28.19c0,0.274-0.069,0.47-0.206,0.584c-0.138,0.114-0.304,0.178-0.499,0.189
		c-0.194,0.011-0.395-0.018-0.602-0.086c-0.206-0.069-0.378-0.172-0.516-0.31L88.421,2.065z"/>
	<path d="M95.371,31.107c-0.34-0.049-0.623-0.131-0.838-0.245c-0.218-0.116-0.455-0.314-0.725-0.609l-0.053-0.135
		c0-2.197,0.041-4.467,0.121-6.745c0.079-2.274,0.114-4.603,0.103-6.919c-0.011-2.309-0.109-4.634-0.292-6.912
		c-0.182-2.272-0.527-4.529-1.027-6.709c-0.005-0.194,0.047-0.366,0.156-0.569c0.101-0.189,0.229-0.361,0.378-0.512
		c0.155-0.154,0.33-0.277,0.521-0.366c0.118-0.056,0.242-0.084,0.367-0.084c0.105,0,0.213,0.021,0.32,0.06
		c0.341,0.131,0.624,0.386,0.842,0.756c0.204,0.349,0.361,0.73,0.468,1.133c0.105,0.399,0.177,0.786,0.212,1.149
		c0.021,0.214,0.035,0.394,0.044,0.539L108.965,1.7c0.351,0.056,0.56,0.207,0.715,0.447c0.148,0.23,0.218,0.49,0.204,0.771
		c-0.014,0.275-0.105,0.546-0.272,0.804c-0.176,0.269-0.438,0.458-0.78,0.563L95.943,7.788c0.002,1.432,0.043,2.868,0.12,4.271
		c0.075,1.381,0.166,2.783,0.272,4.206l9.312-3.25c0.22-0.248,0.469-0.441,0.686-0.542c0.182-0.085,0.375-0.129,0.575-0.129
		c0.049,0,0.099,0.002,0.148,0.008c0.284,0.03,0.54,0.228,0.784,0.606l0.032,0.108c0,0.526-0.307,1.004-0.912,1.42
		c-0.559,0.384-1.261,0.744-2.086,1.07c-0.809,0.319-1.705,0.627-2.663,0.917c-0.943,0.284-1.83,0.577-2.636,0.872
		c-0.796,0.292-1.474,0.594-2.017,0.898c-0.479,0.27-0.723,0.541-0.723,0.806L96.6,27.971c0.204,0.095,0.466,0.143,0.781,0.143
		c0.151,0,0.313-0.011,0.487-0.032c0.638-0.078,1.362-0.232,2.152-0.459c0.787-0.224,1.638-0.506,2.529-0.837
		c0.895-0.332,1.754-0.647,2.58-0.946c0.828-0.298,1.591-0.563,2.292-0.793c0.727-0.237,1.301-0.364,1.754-0.388
		c0.274,0.027,0.494,0.117,0.685,0.267c0.187,0.147,0.322,0.318,0.403,0.509c0.088,0.205,0.096,0.42,0.024,0.639
		c-0.076,0.228-0.269,0.411-0.572,0.55c-0.896,0.39-1.985,0.831-3.243,1.311c-1.253,0.479-2.568,0.948-3.91,1.396
		c-1.34,0.446-2.657,0.841-3.914,1.173c-1.265,0.333-2.353,0.537-3.232,0.607L95.371,31.107z"/>
	<path d="M93.956,30.118c0-2.2,0.04-4.446,0.121-6.738c0.08-2.292,0.114-4.601,0.103-6.927c-0.011-2.327-0.109-4.636-0.292-6.927
		c-0.183-2.292-0.527-4.538-1.031-6.738c0-0.115,0.046-0.258,0.138-0.43s0.206-0.327,0.344-0.464
		c0.138-0.137,0.292-0.246,0.464-0.326c0.172-0.081,0.35-0.086,0.533-0.018c0.298,0.115,0.544,0.338,0.739,0.67
		c0.194,0.333,0.344,0.693,0.447,1.083s0.172,0.762,0.206,1.117c0.035,0.355,0.052,0.613,0.052,0.774l13.236-3.301
		c0.206,0.046,0.372,0.167,0.498,0.361s0.184,0.413,0.172,0.653c-0.012,0.24-0.092,0.476-0.24,0.705
		c-0.149,0.229-0.373,0.39-0.671,0.481L95.743,7.635c0,1.49,0.04,2.968,0.121,4.435c0.08,1.467,0.177,2.957,0.292,4.469l9.557-3.335
		c0.275-0.275,0.51-0.458,0.705-0.55c0.194-0.092,0.4-0.126,0.618-0.104c0.218,0.023,0.43,0.195,0.637,0.516
		c0,0.458-0.275,0.877-0.825,1.255c-0.55,0.378-1.232,0.728-2.046,1.049s-1.696,0.624-2.647,0.911
		c-0.951,0.286-1.833,0.578-2.647,0.876s-1.496,0.603-2.045,0.911c-0.55,0.31-0.825,0.637-0.825,0.98l-0.241,9.041
		c0.344,0.206,0.842,0.27,1.496,0.189c0.653-0.08,1.381-0.235,2.183-0.465c0.802-0.229,1.65-0.51,2.544-0.842
		c0.894-0.332,1.753-0.647,2.578-0.945s1.587-0.562,2.286-0.791c0.699-0.229,1.267-0.355,1.702-0.378
		c0.206,0.022,0.39,0.098,0.55,0.224s0.275,0.27,0.344,0.43s0.074,0.326,0.018,0.498c-0.058,0.172-0.213,0.315-0.465,0.43
		c-0.894,0.39-1.971,0.825-3.231,1.307s-2.561,0.945-3.902,1.393c-1.341,0.446-2.641,0.836-3.902,1.169
		c-1.261,0.332-2.326,0.532-3.197,0.602c-0.321-0.046-0.579-0.121-0.773-0.224C94.431,30.582,94.208,30.394,93.956,30.118z"/>
	<path d="M152.551,31.796c-0.253-0.026-0.523-0.107-0.806-0.242c-0.273-0.131-0.535-0.295-0.778-0.488l-0.074-0.139l-2.18-24.822
		c-0.028,0.08-0.06,0.174-0.095,0.284c-0.193,0.618-0.44,1.419-0.738,2.404s-0.624,2.095-0.979,3.332
		c-0.356,1.242-0.739,2.481-1.138,3.686c-0.404,1.226-0.816,2.374-1.224,3.414c-0.414,1.058-0.83,1.914-1.238,2.545
		c-0.438,0.675-0.854,1.036-1.271,1.104l-0.104,0.009c-0.423,0-0.781-0.398-1.094-1.218c-0.35-0.515-0.771-1.287-1.232-2.255
		c-0.458-0.963-0.946-2.007-1.462-3.13c-0.516-1.123-1.054-2.286-1.615-3.489c-0.557-1.193-1.127-2.316-1.695-3.339
		c-0.566-1.02-1.129-1.921-1.672-2.679c-0.421-0.587-0.828-1.034-1.218-1.335c0.014,1.679,0.117,3.52,0.308,5.479
		c0.206,2.131,0.43,4.29,0.67,6.478c0.241,2.189,0.464,4.351,0.671,6.482c0.205,2.125,0.31,4.121,0.31,5.933
		c0.122,0.195,0.129,0.484,0,0.77c-0.121,0.269-0.307,0.474-0.55,0.608c-0.157,0.088-0.334,0.133-0.523,0.133
		c-0.109,0-0.225-0.015-0.344-0.044c-0.323-0.082-0.618-0.318-0.874-0.702c-0.352-2.362-0.583-4.727-0.721-7.112l-0.413-7.186
		c-0.137-2.393-0.304-4.809-0.498-7.18c-0.192-2.359-0.486-4.724-0.875-7.03c-0.029-0.565,0.08-0.905,0.332-1.062
		c0.215-0.134,0.482-0.203,0.794-0.203c1.114,0.314,2.079,0.879,2.923,1.688c0.834,0.8,1.603,1.75,2.282,2.822
		c0.679,1.071,1.308,2.253,1.87,3.515c0.562,1.261,1.117,2.516,1.667,3.766c0.553,1.251,1.106,2.452,1.647,3.568
		c0.521,1.074,1.099,2.015,1.718,2.8c0.013-0.009,0.026-0.02,0.041-0.035c0.021-0.021,0.105-0.127,0.281-0.584
		c0.137-0.353,0.331-0.896,0.582-1.625c0.252-0.732,0.59-1.751,1.013-3.056l1.57-4.844l2.366-7.326
		c0.063-0.188,0.209-0.346,0.437-0.474c0.213-0.12,0.448-0.181,0.699-0.181c0.264,0,0.508,0.09,0.728,0.269
		c0.224,0.181,0.37,0.473,0.449,0.892c0.23,2.116,0.444,4.367,0.639,6.707c0.194,2.349,0.406,4.749,0.636,7.2
		c0.229,2.44,0.494,4.943,0.79,7.438c0.297,2.499,0.666,4.988,1.099,7.396c-0.054,0.441-0.179,0.703-0.384,0.862
		c-0.171,0.135-0.375,0.203-0.605,0.203C152.633,31.802,152.592,31.8,152.551,31.796z"/>
	<path d="M148.857,5.469c-0.092-0.046-0.235,0.241-0.43,0.859s-0.441,1.421-0.739,2.406c-0.298,0.986-0.625,2.097-0.979,3.335
		c-0.355,1.237-0.733,2.463-1.135,3.678s-0.808,2.35-1.221,3.403c-0.412,1.055-0.819,1.891-1.22,2.51
		c-0.401,0.619-0.779,0.957-1.135,1.015c-0.355,0.057-0.682-0.304-0.979-1.083c-0.367-0.551-0.779-1.307-1.238-2.27
		c-0.458-0.962-0.945-2.005-1.461-3.128s-1.054-2.286-1.615-3.49c-0.562-1.203-1.129-2.32-1.702-3.352
		c-0.573-1.032-1.135-1.931-1.685-2.699c-0.55-0.768-1.077-1.301-1.581-1.599c0,1.788,0.103,3.747,0.31,5.878
		c0.206,2.131,0.43,4.292,0.67,6.48c0.241,2.189,0.464,4.35,0.671,6.48c0.206,2.132,0.309,4.103,0.309,5.913
		c0.115,0.229,0.121,0.459,0.018,0.688c-0.104,0.229-0.258,0.401-0.464,0.516c-0.206,0.115-0.447,0.138-0.722,0.069
		c-0.275-0.069-0.527-0.275-0.757-0.619c-0.321-2.292-0.55-4.63-0.688-7.013c-0.138-2.384-0.275-4.779-0.413-7.186
		c-0.137-2.406-0.303-4.801-0.498-7.185c-0.194-2.383-0.487-4.732-0.877-7.047c-0.022-0.458,0.058-0.745,0.241-0.859
		S129.949,1,130.225,1c1.031,0.298,1.96,0.842,2.784,1.633c0.825,0.791,1.576,1.719,2.252,2.785s1.295,2.229,1.856,3.489
		c0.562,1.261,1.117,2.516,1.667,3.765c0.551,1.249,1.101,2.441,1.65,3.575c0.551,1.135,1.157,2.115,1.822,2.939
		c0.092,0,0.178-0.04,0.258-0.12s0.189-0.298,0.326-0.653c0.138-0.354,0.333-0.899,0.585-1.633s0.59-1.753,1.014-3.06
		c0.425-1.306,0.957-2.951,1.599-4.933s1.421-4.395,2.338-7.237c0.046-0.137,0.16-0.258,0.344-0.361s0.384-0.155,0.602-0.155
		s0.418,0.075,0.602,0.224s0.31,0.407,0.379,0.773c0.229,2.108,0.44,4.337,0.636,6.687c0.194,2.349,0.406,4.75,0.636,7.202
		s0.493,4.934,0.791,7.443c0.298,2.509,0.664,4.979,1.1,7.408c-0.046,0.32-0.148,0.544-0.31,0.67
		c-0.16,0.126-0.354,0.178-0.584,0.155c-0.229-0.023-0.476-0.098-0.739-0.224s-0.51-0.281-0.739-0.464L148.857,5.469z"/>
	<path d="M155.629,32.021c-0.114,0-0.227-0.022-0.333-0.067c-0.355-0.147-0.795-0.45-1.344-0.927l-0.061-0.21
		c0.16-0.526,0.418-1.396,0.772-2.611c0.351-1.196,0.818-2.946,1.392-5.2c0.571-2.258,1.276-5.127,2.113-8.61
		c0.832-3.468,1.82-7.792,2.938-12.854c0.187-0.331,0.421-0.516,0.72-0.612c0.195-0.062,0.394-0.094,0.589-0.094
		c0.085,0,0.17,0.006,0.255,0.018c0.284,0.039,0.529,0.132,0.728,0.277c0.259,0.19,0.315,0.4,0.309,0.56l6.685,16.255l3.332-1.014
		c0.017,0,0.033,0,0.05,0c0.376,0,0.657,0.095,0.889,0.275c0.249,0.194,0.391,0.438,0.42,0.722c0.027,0.278-0.066,0.572-0.276,0.874
		c-0.206,0.297-0.563,0.536-1.06,0.71c-0.185,0.069-0.432,0.146-0.737,0.229c-0.3,0.08-0.6,0.155-0.9,0.225
		c-0.291,0.067-0.537,0.135-0.738,0.201c-0.067,0.022-0.113,0.042-0.144,0.057L175,30.288l-0.002,0.145
		c-0.043,0.109-0.087,0.244-0.13,0.407c-0.056,0.214-0.173,0.39-0.348,0.521c-0.138,0.104-0.321,0.156-0.546,0.156
		c-0.068,0-0.141-0.005-0.218-0.015c-0.306-0.039-0.714-0.211-1.246-0.525l-0.085-0.099l-3.887-9.939
		c-0.455,0.121-1.003,0.239-1.633,0.352c-0.711,0.126-1.457,0.252-2.237,0.378c-0.776,0.126-1.557,0.274-2.345,0.445
		c-0.776,0.169-1.502,0.38-2.154,0.628c-0.643,0.243-1.192,0.54-1.634,0.882c-0.422,0.327-0.667,0.709-0.751,1.167
		c-0.043,0.314-0.13,0.844-0.257,1.58c-0.125,0.731-0.246,1.464-0.36,2.197c-0.138,0.872-0.298,1.813-0.482,2.823l-0.055,0.105
		C156.284,31.844,155.947,32.021,155.629,32.021z M159.345,20.362c0.347-0.106,0.773-0.219,1.293-0.34l2.235-0.517l2.425-0.55
		c0.727-0.164,1.398-0.338,2.001-0.519l-4.546-12.38L159.345,20.362z"/>
	<path d="M154.083,30.875c0.16-0.527,0.418-1.398,0.773-2.613s0.819-2.951,1.393-5.208c0.572-2.258,1.277-5.128,2.114-8.612
		c0.836-3.484,1.815-7.77,2.938-12.857c0.138-0.229,0.333-0.384,0.585-0.464c0.252-0.08,0.504-0.103,0.756-0.068
		c0.253,0.034,0.465,0.114,0.637,0.24s0.246,0.27,0.224,0.43l6.771,16.468l3.507-1.066c0.298,0,0.55,0.08,0.757,0.241
		c0.206,0.16,0.32,0.354,0.344,0.584c0.022,0.229-0.058,0.476-0.241,0.739c-0.183,0.264-0.504,0.476-0.962,0.636
		c-0.184,0.069-0.425,0.144-0.723,0.224s-0.596,0.154-0.894,0.224c-0.298,0.068-0.55,0.138-0.756,0.206
		c-0.207,0.068-0.31,0.138-0.31,0.206l3.815,10.176c-0.046,0.115-0.092,0.258-0.138,0.43c-0.045,0.173-0.137,0.31-0.274,0.413
		s-0.344,0.138-0.619,0.104c-0.274-0.035-0.664-0.201-1.169-0.499l-3.953-10.107c-0.481,0.138-1.077,0.27-1.788,0.396
		c-0.71,0.126-1.455,0.252-2.234,0.378s-1.563,0.275-2.354,0.447s-1.519,0.384-2.184,0.636c-0.664,0.252-1.226,0.556-1.685,0.911
		c-0.458,0.355-0.733,0.785-0.825,1.289c-0.045,0.321-0.131,0.849-0.258,1.582c-0.125,0.733-0.246,1.467-0.36,2.2
		c-0.138,0.871-0.298,1.811-0.481,2.818c-0.412,0.413-0.785,0.551-1.117,0.413S154.61,31.333,154.083,30.875z M162.712,5.366
		l-3.645,15.298c0.39-0.138,0.929-0.286,1.616-0.447c0.688-0.16,1.433-0.332,2.234-0.516c0.802-0.183,1.61-0.366,2.424-0.55
		s1.553-0.378,2.218-0.584L162.712,5.366z"/>
	<path d="M177.844,31.107c-0.34-0.049-0.622-0.131-0.838-0.245c-0.22-0.116-0.456-0.315-0.725-0.609l-0.053-0.135
		c0-2.192,0.041-4.462,0.12-6.745c0.08-2.271,0.114-4.599,0.104-6.919c-0.012-2.307-0.109-4.632-0.291-6.912
		c-0.183-2.274-0.528-4.531-1.028-6.709c-0.005-0.194,0.048-0.366,0.156-0.569c0.102-0.189,0.229-0.361,0.379-0.512
		c0.155-0.154,0.33-0.277,0.522-0.366c0.118-0.055,0.241-0.083,0.366-0.083c0.105,0,0.213,0.021,0.319,0.06
		c0.342,0.131,0.624,0.386,0.843,0.756c0.202,0.345,0.359,0.726,0.468,1.133c0.105,0.402,0.177,0.789,0.212,1.149
		c0.021,0.214,0.035,0.394,0.044,0.539L191.438,1.7c0.351,0.056,0.56,0.207,0.715,0.447c0.148,0.23,0.218,0.49,0.204,0.771
		c-0.013,0.273-0.104,0.544-0.272,0.804c-0.176,0.27-0.438,0.459-0.78,0.563l-12.888,3.502c0.003,1.418,0.043,2.854,0.12,4.271
		c0.076,1.381,0.167,2.783,0.272,4.206l9.312-3.25c0.219-0.247,0.468-0.44,0.686-0.542c0.182-0.085,0.375-0.129,0.576-0.129
		c0.049,0,0.099,0.002,0.148,0.008c0.284,0.03,0.541,0.228,0.783,0.606l0.032,0.108c0,0.526-0.307,1.004-0.912,1.42
		c-0.56,0.385-1.262,0.745-2.086,1.07c-0.811,0.32-1.706,0.628-2.662,0.917c-0.945,0.284-1.832,0.578-2.637,0.872
		c-0.794,0.291-1.473,0.594-2.016,0.898c-0.479,0.27-0.723,0.54-0.723,0.806l-0.238,8.922c0.204,0.095,0.467,0.143,0.782,0.143
		c0.15,0,0.313-0.011,0.486-0.032c0.638-0.078,1.362-0.232,2.152-0.459c0.788-0.225,1.639-0.506,2.529-0.837
		c0.894-0.332,1.754-0.647,2.579-0.946c0.828-0.298,1.591-0.563,2.292-0.793c0.727-0.237,1.301-0.364,1.754-0.388
		c0.274,0.027,0.494,0.117,0.685,0.267c0.187,0.147,0.322,0.318,0.403,0.509c0.088,0.205,0.096,0.42,0.024,0.639
		c-0.077,0.228-0.27,0.412-0.573,0.55c-0.895,0.39-1.984,0.831-3.242,1.311c-1.247,0.478-2.563,0.946-3.909,1.396
		c-1.339,0.446-2.656,0.841-3.915,1.173c-1.263,0.333-2.351,0.537-3.232,0.607L177.844,31.107z"/>
	<path d="M176.429,30.118c0-2.2,0.04-4.446,0.12-6.738s0.114-4.601,0.104-6.927c-0.012-2.327-0.109-4.636-0.292-6.927
		c-0.184-2.292-0.527-4.538-1.032-6.738c0-0.115,0.046-0.258,0.138-0.43s0.206-0.327,0.344-0.464
		c0.138-0.137,0.292-0.246,0.465-0.326c0.172-0.081,0.349-0.086,0.532-0.018c0.298,0.115,0.544,0.338,0.739,0.67
		c0.195,0.333,0.344,0.693,0.447,1.083c0.103,0.39,0.172,0.762,0.206,1.117c0.034,0.355,0.052,0.613,0.052,0.774l13.235-3.301
		c0.206,0.046,0.372,0.167,0.498,0.361s0.184,0.413,0.172,0.653c-0.011,0.24-0.092,0.476-0.24,0.705
		c-0.149,0.229-0.372,0.39-0.671,0.481l-13.029,3.541c0,1.49,0.041,2.968,0.121,4.435s0.178,2.957,0.292,4.469l9.557-3.335
		c0.275-0.275,0.511-0.458,0.705-0.55c0.194-0.092,0.401-0.126,0.619-0.104c0.218,0.023,0.43,0.195,0.636,0.516
		c0,0.458-0.275,0.877-0.825,1.255c-0.55,0.378-1.231,0.728-2.046,1.049c-0.813,0.321-1.695,0.624-2.646,0.911
		c-0.951,0.286-1.834,0.578-2.647,0.876s-1.495,0.603-2.045,0.911c-0.551,0.31-0.825,0.637-0.825,0.98l-0.241,9.041
		c0.344,0.206,0.843,0.27,1.496,0.189s1.381-0.235,2.183-0.465c0.802-0.229,1.65-0.51,2.544-0.842s1.753-0.647,2.578-0.945
		s1.587-0.562,2.286-0.791c0.699-0.229,1.267-0.355,1.702-0.378c0.206,0.022,0.39,0.098,0.55,0.224s0.275,0.27,0.344,0.43
		s0.074,0.326,0.018,0.498c-0.058,0.172-0.212,0.315-0.465,0.43c-0.894,0.39-1.971,0.825-3.231,1.307
		c-1.26,0.481-2.561,0.945-3.901,1.393c-1.341,0.446-2.642,0.836-3.902,1.169c-1.26,0.332-2.326,0.532-3.197,0.602
		c-0.32-0.046-0.578-0.121-0.773-0.224C176.904,30.582,176.681,30.394,176.429,30.118z"/>
</g>
</svg>
