<?xml version="1.0" encoding="utf-8"?>
<!-- Generator: Adobe Illustrator 16.0.0, SVG Export Plug-In . SVG Version: 6.00 Build 0)  -->
<!DOCTYPE svg PUBLIC "-//W3C//DTD SVG 1.0//EN" "http://www.w3.org/TR/2001/REC-SVG-20010904/DTD/svg10.dtd">
<svg version="1.0" id="Layer_1" xmlns="http://www.w3.org/2000/svg" xmlns:xlink="http://www.w3.org/1999/xlink" x="0px" y="0px"
	 width="86.75px" height="33px" viewBox="0 0 86.75 33" enable-background="new 0 0 86.75 33" xml:space="preserve">
<g>
	<path d="M2.768,30.83c-0.522,0-1.146-0.287-1.146-1.651c-0.066-4.767-0.146-8.814-0.236-12.029
		c-0.09-3.208-0.168-5.806-0.236-7.798c-0.068-1.991-0.124-3.463-0.169-4.42c-0.046-0.96-0.068-1.588-0.068-1.883
		c0-0.389,0.115-0.708,0.341-0.947c0.219-0.233,0.467-0.351,0.736-0.351c0.326,0.016,0.589,0.164,0.828,0.442
		C3.053,2.467,3.18,2.876,3.204,3.445l1.07,24.51l14.42-3.057c0.01,0,0.02,0,0.029,0c0.856,0,1.354,0.188,1.559,0.571
		c0.211,0.395,0.08,0.937-0.401,1.659l-0.125,0.084L2.81,30.825L2.768,30.83z"/>
	<path d="M1.823,29.179c-0.067-4.816-0.146-8.828-0.236-12.035c-0.09-3.208-0.168-5.807-0.236-7.799
		C1.283,7.353,1.227,5.879,1.182,4.922C1.136,3.966,1.114,3.342,1.114,3.049c0-0.337,0.095-0.607,0.287-0.81
		C1.592,2.036,1.8,1.941,2.025,1.952C2.25,1.963,2.464,2.087,2.667,2.323s0.315,0.613,0.337,1.131l1.081,24.745l14.651-3.105
		c1.507,0,1.834,0.641,0.979,1.924L2.768,30.63C2.138,30.63,1.823,30.146,1.823,29.179z"/>
	<path d="M36.619,31.185c-0.233-0.013-0.43-0.03-0.592-0.053l-0.171-0.179l-0.908-9.23c-0.187,0.649-0.396,1.346-0.626,2.08
		c-0.363,1.154-0.833,2.258-1.4,3.278c-0.571,1.028-1.273,1.91-2.086,2.619c-0.833,0.727-1.848,1.096-3.018,1.096
		c-1.25-0.306-2.298-0.903-3.164-1.781c-0.856-0.867-1.59-1.93-2.181-3.159c-0.589-1.222-1.071-2.593-1.432-4.073
		c-0.361-1.476-0.641-3.006-0.831-4.547c-0.192-1.543-0.317-3.082-0.373-4.575c-0.057-1.489-0.08-2.883-0.068-4.145
		c0.011-1.261,0.046-2.36,0.102-3.268c0.056-0.917,0.107-1.567,0.153-1.953c-0.1-0.483,0.113-0.785,0.31-0.942
		c0.256-0.205,0.554-0.322,0.886-0.347C21.273,2.001,21.326,2,21.379,2c0.266,0,0.522,0.053,0.762,0.157
		c0.328,0.144,0.509,0.345,0.541,0.598c-0.447,3.335-0.679,6.268-0.69,8.77c-0.012,2.496,0.118,4.707,0.386,6.57
		c0.267,1.855,0.655,3.437,1.153,4.698c0.498,1.261,1.035,2.309,1.599,3.115c0.556,0.797,1.135,1.404,1.722,1.807
		c0.586,0.401,1.111,0.671,1.562,0.8c0.644-0.071,1.267-0.439,1.832-1.133c0.58-0.71,1.097-1.646,1.539-2.781
		c0.445-1.148,0.834-2.462,1.156-3.905c0.324-1.453,0.602-2.97,0.825-4.508c0.225-1.553,0.406-3.1,0.539-4.597
		c0.134-1.5,0.236-2.89,0.304-4.129c0.067-1.234,0.106-2.284,0.118-3.148c0.011-0.854,0.005-1.409-0.016-1.65l0.026-0.118
		c0.178-0.307,0.398-0.517,0.652-0.624c0.195-0.082,0.387-0.124,0.57-0.124c0.046,0,0.092,0.002,0.138,0.008
		c0.227,0.027,0.437,0.114,0.624,0.26c0.184,0.145,0.318,0.313,0.398,0.501c0.039,0.668-0.011,1.741-0.136,3.352
		c-0.123,1.573-0.202,3.579-0.235,5.963c-0.034,2.388,0.04,5.166,0.219,8.256c0.178,3.098,0.598,6.479,1.246,10.053
		c0.003,0.326-0.097,0.55-0.295,0.702c-0.173,0.132-0.378,0.219-0.612,0.257c-0.162,0.027-0.333,0.041-0.509,0.041L36.619,31.185z"
		/>
	<path d="M34.13,23.743c-0.36,1.147-0.822,2.228-1.384,3.241c-0.563,1.013-1.244,1.868-2.042,2.565s-1.761,1.046-2.886,1.046
		c-1.17-0.292-2.177-0.865-3.021-1.722c-0.844-0.854-1.559-1.89-2.144-3.105c-0.585-1.215-1.058-2.56-1.418-4.034
		c-0.36-1.474-0.636-2.981-0.827-4.523c-0.191-1.541-0.315-3.061-0.371-4.558c-0.057-1.497-0.079-2.875-0.068-4.135
		s0.045-2.346,0.102-3.258c0.056-0.912,0.106-1.558,0.152-1.941c-0.067-0.359,0.011-0.629,0.236-0.81
		c0.225-0.18,0.484-0.281,0.776-0.304s0.568,0.022,0.827,0.135c0.258,0.113,0.399,0.259,0.422,0.439
		c-0.45,3.309-0.681,6.223-0.692,8.744c-0.012,2.521,0.118,4.721,0.388,6.6c0.27,1.88,0.658,3.461,1.165,4.743
		c0.506,1.283,1.047,2.335,1.621,3.156c0.574,0.822,1.165,1.44,1.772,1.857c0.607,0.416,1.147,0.691,1.62,0.827
		c0.765-0.068,1.446-0.467,2.042-1.199c0.596-0.73,1.119-1.676,1.57-2.835c0.45-1.159,0.838-2.47,1.165-3.934
		c0.326-1.463,0.602-2.971,0.827-4.523c0.225-1.553,0.405-3.089,0.54-4.608c0.135-1.519,0.236-2.897,0.304-4.136
		c0.067-1.237,0.106-2.29,0.118-3.156c0.011-0.866,0.005-1.423-0.017-1.671c0.157-0.271,0.343-0.45,0.557-0.541
		c0.213-0.089,0.416-0.123,0.607-0.101c0.191,0.022,0.366,0.096,0.523,0.219c0.157,0.124,0.27,0.265,0.337,0.422
		c0.022,0.585-0.028,1.671-0.152,3.257c-0.124,1.587-0.203,3.579-0.236,5.976s0.039,5.154,0.22,8.271
		c0.18,3.118,0.596,6.477,1.249,10.077c0,0.226-0.073,0.395-0.22,0.507s-0.321,0.186-0.523,0.219
		c-0.203,0.034-0.417,0.045-0.642,0.034c-0.225-0.012-0.417-0.028-0.574-0.051l-1.013-10.296
		C34.794,21.561,34.49,22.596,34.13,23.743z"/>
	<path d="M42.8,30.83c-0.274,0-0.515-0.1-0.71-0.296c-0.209-0.208-0.261-0.533-0.153-0.966c0.029-0.177,0.228-0.364,1.094-0.648
		c0.62-0.202,1.392-0.443,2.316-0.727c0.921-0.28,1.944-0.606,3.068-0.978c1.116-0.368,2.206-0.792,3.238-1.259
		c1.033-0.466,1.971-0.988,2.788-1.552c0.802-0.553,1.395-1.172,1.761-1.839c-0.025-0.004-0.025-0.309-0.644-0.563
		c-0.48-0.195-1.125-0.361-1.915-0.493c-0.798-0.133-1.724-0.246-2.753-0.336c-1.045-0.091-2.123-0.216-3.201-0.372
		c-1.096-0.158-2.175-0.363-3.208-0.611c-1.05-0.251-1.998-0.604-2.817-1.049c-0.833-0.451-1.514-1.026-2.023-1.71
		c-0.519-0.695-0.782-1.57-0.782-2.601c0-0.991,0.228-2.012,0.675-3.034c0.444-1.013,1.037-2.01,1.763-2.961
		c0.725-0.951,1.568-1.858,2.507-2.695c0.938-0.836,1.93-1.582,2.948-2.215c1.021-0.635,2.045-1.141,3.042-1.504
		c1.009-0.366,1.964-0.552,2.836-0.552c0.222,0,0.455-0.005,0.7-0.016l0.154-0.003c0.203,0,0.391,0.02,0.559,0.059
		c0.233,0.056,0.428,0.174,0.58,0.353c0.155,0.184,0.234,0.449,0.234,0.788c0,0.788-0.269,1.367-0.798,1.72
		c-0.503,0.336-1.12,0.506-1.833,0.506l-1.514-0.483c-0.469,0.01-1.083,0.168-1.762,0.481c-0.691,0.318-1.399,0.754-2.105,1.293
		c-0.71,0.544-1.413,1.173-2.088,1.871c-0.676,0.698-1.282,1.428-1.803,2.17c-0.519,0.74-0.944,1.489-1.263,2.227
		c-0.314,0.726-0.473,1.386-0.473,1.963c0,0.716,0.223,1.282,0.682,1.731c0.471,0.461,1.105,0.837,1.886,1.119
		c0.795,0.288,1.718,0.506,2.745,0.648c1.044,0.147,2.105,0.276,3.183,0.388c1.083,0.113,2.147,0.237,3.195,0.372
		c1.054,0.137,2.001,0.326,2.816,0.563c0.833,0.243,1.516,0.586,2.03,1.018c0.541,0.456,0.814,1.069,0.814,1.824
		c0,0.719-0.288,1.442-0.854,2.15c-0.55,0.688-1.279,1.354-2.167,1.979c-0.885,0.624-1.912,1.21-3.052,1.74
		c-1.139,0.53-2.3,0.987-3.45,1.359c-1.152,0.372-2.291,0.664-3.384,0.866c-0.989,0.185-1.869,0.277-2.615,0.277L42.8,30.83z"/>
	<path d="M42.131,29.617c0.022-0.135,0.343-0.304,0.962-0.507c0.619-0.202,1.389-0.443,2.313-0.726
		c0.922-0.281,1.946-0.607,3.072-0.979c1.125-0.372,2.211-0.794,3.258-1.267s1.986-0.995,2.819-1.569
		c0.833-0.574,1.44-1.21,1.823-1.907c0-0.36-0.248-0.642-0.743-0.845c-0.496-0.202-1.148-0.371-1.958-0.506
		c-0.811-0.135-1.733-0.247-2.769-0.338c-1.035-0.09-2.099-0.213-3.19-0.371c-1.092-0.157-2.155-0.359-3.19-0.607
		s-1.958-0.591-2.768-1.03c-0.81-0.438-1.463-0.989-1.958-1.653c-0.496-0.664-0.743-1.491-0.743-2.482
		c0-0.967,0.219-1.952,0.658-2.954s1.018-1.975,1.739-2.92c0.72-0.945,1.547-1.834,2.481-2.667c0.934-0.833,1.908-1.564,2.92-2.194
		s2.014-1.125,3.004-1.486c0.99-0.359,1.913-0.54,2.768-0.54c0.225,0,0.461-0.005,0.709-0.017c0.248-0.011,0.467,0.006,0.658,0.05
		c0.191,0.045,0.349,0.141,0.473,0.287c0.124,0.146,0.186,0.366,0.186,0.658c0,0.721-0.236,1.238-0.709,1.553
		c-0.473,0.315-1.047,0.473-1.722,0.473l-1.452-0.473c-0.563,0-1.199,0.163-1.908,0.489c-0.709,0.327-1.423,0.766-2.144,1.316
		c-0.721,0.552-1.424,1.182-2.11,1.891c-0.687,0.709-1.294,1.44-1.823,2.194c-0.529,0.754-0.957,1.508-1.283,2.262
		c-0.326,0.754-0.489,1.435-0.489,2.042c0,0.766,0.247,1.39,0.743,1.874c0.495,0.484,1.148,0.872,1.958,1.164
		c0.81,0.293,1.738,0.513,2.785,0.658c1.046,0.147,2.11,0.276,3.19,0.389c1.081,0.113,2.144,0.236,3.19,0.371
		c1.046,0.136,1.975,0.321,2.785,0.558c0.81,0.236,1.462,0.563,1.958,0.979c0.495,0.417,0.743,0.974,0.743,1.671
		c0,0.676-0.27,1.351-0.811,2.025c-0.54,0.676-1.249,1.323-2.126,1.941c-0.878,0.619-1.885,1.193-3.021,1.722
		c-1.137,0.529-2.279,0.979-3.427,1.351c-1.147,0.371-2.268,0.658-3.359,0.86c-1.092,0.203-2.031,0.293-2.819,0.271
		c-0.225,0-0.417-0.078-0.574-0.236C42.075,30.236,42.041,29.978,42.131,29.617z"/>
	<path d="M71.062,30.615c-0.26,0-0.588-0.031-0.976-0.092l-0.166-0.159c-0.181-0.924-0.318-2.063-0.409-3.384
		c-0.09-1.31-0.158-2.754-0.203-4.295c-0.045-1.52-0.068-3.134-0.068-4.8c0-1.653-0.012-3.278-0.034-4.875
		c-0.023-1.597-0.051-3.11-0.084-4.539c-0.032-1.349-0.1-2.567-0.203-3.624c-0.455-0.052-0.914-0.079-1.367-0.079
		c-0.355,0-0.71,0.016-1.064,0.048c-0.875,0.079-1.746,0.174-2.608,0.286c-0.868,0.113-1.741,0.22-2.62,0.321
		c-0.532,0.061-1.071,0.092-1.602,0.092c-0.357,0-0.713-0.014-1.07-0.042c-0.264-0.023-0.535-0.083-0.81-0.179
		c-0.246-0.085-0.525-0.315-0.454-0.921c0.026-0.286,0.168-0.575,0.422-0.854c0.245-0.269,0.512-0.406,0.796-0.406l10.061-0.596
		c0.025-0.099,0.061-0.218,0.105-0.359c0.071-0.226,0.167-0.449,0.286-0.661c0.122-0.219,0.271-0.412,0.443-0.572
		c0.174-0.162,0.375-0.244,0.598-0.244l0.1,0.005c0.334,0.026,0.609,0.142,0.812,0.344c0.178,0.179,0.331,0.374,0.453,0.58
		l0.305,0.526c0.088,0.154,0.169,0.167,0.196,0.172c3.576-0.003,7.333-0.071,11.135-0.205c0,0,0.261,0.006,0.555,0.017
		c0.307,0.012,0.52,0.031,0.638,0.054l0.15,0.13c0.168,0.476-0.016,0.881-0.519,1.139c-0.434,0.223-1.057,0.395-1.852,0.509
		c-0.778,0.113-1.677,0.193-2.67,0.238c-0.992,0.045-1.978,0.079-2.958,0.102c-0.977,0.022-1.898,0.056-2.763,0.101
		c-0.775,0.041-1.405,0.1-1.876,0.176c-0.165,1.115-0.259,2.329-0.28,3.611c-0.022,1.337-0.017,2.743,0.017,4.178
		c0.034,1.439,0.096,2.914,0.186,4.381c0.09,1.486,0.174,2.95,0.253,4.39c0.078,1.428,0.129,2.839,0.152,4.194
		c0.022,1.352-0.013,2.63-0.103,3.799c0.055,0.255,0.23,1.189-0.312,1.403C71.511,30.587,71.316,30.615,71.062,30.615z"/>
	<path d="M69.104,4.669c-0.877-0.112-1.755-0.129-2.633-0.051c-0.878,0.079-1.75,0.175-2.616,0.287
		c-0.867,0.113-1.739,0.219-2.617,0.321c-0.877,0.101-1.755,0.118-2.633,0.05c-0.248-0.022-0.501-0.079-0.76-0.168
		c-0.259-0.09-0.366-0.326-0.321-0.709c0.022-0.248,0.146-0.495,0.372-0.743c0.225-0.248,0.461-0.36,0.709-0.338l10.161-0.607
		c0.022-0.112,0.067-0.275,0.135-0.49c0.067-0.213,0.157-0.422,0.27-0.625c0.112-0.203,0.247-0.376,0.405-0.523
		c0.157-0.146,0.338-0.208,0.541-0.186c0.292,0.023,0.523,0.118,0.692,0.287s0.309,0.349,0.422,0.54
		c0.112,0.191,0.214,0.366,0.304,0.523c0.09,0.158,0.203,0.248,0.338,0.27c3.623,0,7.348-0.067,11.174-0.203
		c0.068,0,0.248,0.006,0.541,0.017c0.292,0.012,0.495,0.028,0.607,0.05c0.135,0.383-0.006,0.681-0.422,0.895
		c-0.417,0.214-1.013,0.377-1.789,0.489c-0.777,0.113-1.66,0.191-2.65,0.236c-0.99,0.045-1.975,0.079-2.954,0.102
		s-1.902,0.056-2.769,0.101c-0.867,0.045-1.547,0.113-2.042,0.203c-0.181,1.17-0.282,2.431-0.304,3.781
		c-0.022,1.351-0.017,2.746,0.017,4.186c0.034,1.441,0.095,2.903,0.186,4.389c0.09,1.485,0.174,2.949,0.253,4.389
		c0.079,1.44,0.129,2.836,0.152,4.187c0.022,1.35-0.012,2.61-0.102,3.78c0.135,0.721,0.073,1.131-0.186,1.232
		c-0.259,0.102-0.749,0.096-1.468-0.017c-0.181-0.923-0.315-2.043-0.405-3.359c-0.09-1.316-0.158-2.745-0.203-4.287
		c-0.045-1.541-0.067-3.14-0.067-4.794s-0.012-3.28-0.034-4.878c-0.023-1.598-0.051-3.111-0.084-4.541S69.217,5.772,69.104,4.669z"
		/>
</g>
</svg>
