<?xml version="1.0" encoding="utf-8"?>
<!-- Generator: Adobe Illustrator 16.0.0, SVG Export Plug-In . SVG Version: 6.00 Build 0)  -->
<!DOCTYPE svg PUBLIC "-//W3C//DTD SVG 1.0//EN" "http://www.w3.org/TR/2001/REC-SVG-20010904/DTD/svg10.dtd">
<svg version="1.0" id="Layer_1" xmlns="http://www.w3.org/2000/svg" xmlns:xlink="http://www.w3.org/1999/xlink" x="0px" y="0px"
	 width="102.75px" height="33px" viewBox="0 0 102.75 33" enable-background="new 0 0 102.75 33" xml:space="preserve">
<g>
	<path d="M1.825,31.136c-0.292,0-0.579-0.122-0.853-0.362l-0.068-0.146L0.436,3.6C0.46,3.288,0.535,3.016,0.658,2.771
		c0.125-0.25,0.286-0.449,0.478-0.59c0.188-0.138,0.388-0.207,0.593-0.207C1.996,1.989,2.209,2.101,2.41,2.308
		C2.517,2.341,2.635,2.439,2.715,2.68c0.062,0.187,0.104,0.5,0.127,0.957c0.022,0.437,0.039,1.036,0.051,1.797
		C2.904,6.192,2.91,7.164,2.91,8.346c0,1.182,0.005,2.603,0.017,4.263c0.01,1.483,0.024,3.193,0.043,5.127
		c0.1-0.164,0.219-0.357,0.356-0.58c0.39-0.637,0.888-1.419,1.491-2.346c0.603-0.927,1.278-1.932,2.027-3.016
		c0.748-1.083,1.519-2.161,2.312-3.233c0.79-1.068,1.592-2.084,2.383-3.021c0.793-0.939,1.538-1.717,2.211-2.312
		c0.687-0.607,1.313-1.003,1.861-1.178c0.157-0.05,0.307-0.076,0.446-0.076c0.282,0,0.675,0.108,0.946,0.625l-0.02,0.215
		c-1.928,2.482-3.662,4.678-5.153,6.526c-1.491,1.847-2.789,3.527-3.857,4.993c-1.074,1.472-1.981,2.845-2.698,4.08
		c-0.684,1.179-1.239,2.393-1.65,3.609l13.857,6.681l0.112,0.203c-0.048,0.408-0.188,0.797-0.415,1.154
		c-0.225,0.355-0.579,0.535-1.052,0.535c-0.061,0-0.124-0.003-0.189-0.009L3.194,24.672c0.03,0.284,0.041,0.604,0.034,0.955
		c-0.012,0.504-0.034,1.025-0.067,1.563c-0.034,0.54-0.085,1.059-0.152,1.554c-0.066,0.484-0.111,0.882-0.132,1.19
		c0.066,0.669-0.293,0.974-0.606,1.107C2.122,31.104,1.973,31.136,1.825,31.136z"/>
	<path d="M0.636,4.596C0.658,4.329,0.725,4.083,0.836,3.86c0.111-0.223,0.25-0.396,0.418-0.519c0.167-0.122,0.34-0.178,0.519-0.167
		c0.178,0.011,0.356,0.117,0.535,0.317c0.089,0,0.162,0.084,0.217,0.251C2.581,3.911,2.62,4.211,2.643,4.646
		c0.022,0.435,0.039,1.032,0.05,1.79c0.011,0.758,0.017,1.729,0.017,2.91c0,1.182,0.005,2.604,0.017,4.265
		c0.011,1.662,0.028,3.608,0.05,5.836c0.089-0.155,0.329-0.552,0.719-1.187c0.39-0.636,0.886-1.417,1.488-2.342
		s1.276-1.929,2.024-3.011c0.747-1.081,1.516-2.157,2.308-3.228s1.583-2.074,2.375-3.011s1.522-1.7,2.191-2.291
		s1.266-0.97,1.79-1.137c0.524-0.167,0.909-0.017,1.154,0.451c-1.94,2.498-3.658,4.672-5.151,6.523
		c-1.494,1.851-2.782,3.518-3.863,5c-1.082,1.483-1.985,2.849-2.709,4.097c-0.725,1.25-1.299,2.521-1.723,3.813l14.015,6.757
		c-0.045,0.38-0.173,0.736-0.385,1.07c-0.212,0.335-0.563,0.48-1.053,0.435L2.943,25.335c0.067,0.356,0.095,0.786,0.084,1.288
		c-0.012,0.501-0.034,1.02-0.067,1.555c-0.034,0.535-0.084,1.049-0.151,1.539s-0.112,0.892-0.134,1.204
		c0.044,0.468-0.117,0.78-0.485,0.937s-0.73,0.078-1.087-0.234L0.636,4.596z"/>
	<path d="M18.965,31.71c-0.112,0-0.222-0.021-0.327-0.065c-0.346-0.144-0.774-0.438-1.309-0.903l-0.06-0.21
		c0.156-0.512,0.406-1.358,0.752-2.54c0.343-1.176,0.798-2.878,1.353-5.06c0.557-2.196,1.243-4.988,2.057-8.377
		c0.807-3.36,1.769-7.568,2.859-12.506c0.183-0.325,0.412-0.506,0.704-0.599c0.19-0.061,0.384-0.092,0.575-0.092
		c0.083,0,0.166,0.006,0.249,0.017c0.276,0.038,0.515,0.128,0.709,0.271c0.253,0.187,0.309,0.392,0.303,0.548l6.501,15.81
		l3.238-0.984c0.017,0,0.033-0.001,0.05-0.001c0.367,0,0.642,0.093,0.868,0.269c0.244,0.19,0.382,0.429,0.411,0.706
		c0.026,0.271-0.064,0.559-0.269,0.854c-0.204,0.292-0.552,0.524-1.035,0.692c-0.179,0.067-0.419,0.143-0.716,0.223
		C35.584,19.84,35.292,19.913,35,19.98c-0.284,0.065-0.523,0.131-0.718,0.195c-0.063,0.021-0.105,0.039-0.134,0.054l3.671,9.788
		l-0.002,0.145c-0.042,0.106-0.084,0.237-0.126,0.396c-0.057,0.212-0.172,0.384-0.341,0.51c-0.135,0.102-0.314,0.153-0.534,0.153
		c-0.066,0-0.137-0.005-0.212-0.015c-0.298-0.037-0.695-0.204-1.215-0.512l-0.084-0.099l-3.781-9.666
		c-0.445,0.119-0.977,0.233-1.584,0.341c-0.692,0.123-1.418,0.246-2.177,0.368c-0.754,0.123-1.515,0.267-2.28,0.433
		c-0.758,0.166-1.463,0.371-2.096,0.61c-0.627,0.239-1.161,0.527-1.587,0.858c-0.41,0.317-0.648,0.688-0.729,1.132
		c-0.044,0.306-0.127,0.82-0.25,1.537c-0.123,0.713-0.24,1.425-0.351,2.138c-0.134,0.849-0.291,1.765-0.469,2.748L19.944,31.2
		C19.605,31.538,19.276,31.71,18.965,31.71z M22.588,20.354c0.337-0.104,0.749-0.212,1.249-0.328l2.175-0.503l2.359-0.535
		c0.692-0.155,1.344-0.324,1.94-0.503L25.897,6.462L22.588,20.354z"/>
	<path d="M17.46,31.59c0.156-0.513,0.407-1.36,0.753-2.542c0.345-1.182,0.797-2.871,1.354-5.067
		c0.557-2.196,1.243-4.989,2.057-8.379c0.814-3.389,1.767-7.56,2.86-12.51c0.134-0.223,0.323-0.373,0.569-0.451
		c0.245-0.078,0.49-0.101,0.736-0.067c0.245,0.033,0.452,0.112,0.619,0.234c0.167,0.123,0.24,0.262,0.218,0.418l6.589,16.022
		l3.412-1.037c0.29,0,0.536,0.078,0.736,0.234s0.312,0.346,0.334,0.568c0.022,0.224-0.056,0.463-0.234,0.72
		c-0.179,0.256-0.491,0.463-0.937,0.618c-0.179,0.067-0.413,0.14-0.703,0.218c-0.29,0.078-0.58,0.15-0.87,0.218
		c-0.29,0.066-0.535,0.134-0.736,0.2c-0.201,0.067-0.301,0.134-0.301,0.201l3.713,9.9c-0.045,0.112-0.089,0.251-0.134,0.418
		c-0.045,0.168-0.134,0.302-0.268,0.401c-0.134,0.101-0.335,0.134-0.603,0.101s-0.647-0.195-1.137-0.485l-3.847-9.834
		c-0.468,0.134-1.048,0.263-1.739,0.385c-0.691,0.123-1.417,0.246-2.174,0.368c-0.758,0.123-1.522,0.268-2.291,0.435
		c-0.77,0.168-1.478,0.374-2.124,0.619c-0.647,0.246-1.193,0.541-1.639,0.887c-0.446,0.346-0.714,0.764-0.803,1.254
		c-0.045,0.313-0.128,0.825-0.251,1.539s-0.24,1.427-0.351,2.141c-0.134,0.848-0.29,1.762-0.468,2.743
		c-0.401,0.401-0.764,0.535-1.087,0.401S17.974,32.036,17.46,31.59z M25.856,6.771l-3.545,14.885
		c0.379-0.134,0.903-0.278,1.572-0.435s1.394-0.323,2.174-0.502c0.78-0.178,1.566-0.356,2.358-0.535
		c0.791-0.178,1.51-0.368,2.157-0.568L25.856,6.771z"/>
	<path d="M39.298,31.288c-0.156-0.031-0.294-0.115-0.413-0.248c-0.097-0.108-0.183-0.226-0.256-0.348l-0.029-0.101L38.333,2.595
		c0.104-0.286,0.281-0.445,0.541-0.554c0.237-0.1,0.488-0.15,0.747-0.15c0.272,0,0.519,0.074,0.731,0.219
		c0.224,0.155,0.365,0.396,0.419,0.717l0.178,1.625c0.36-0.098,0.777-0.26,1.244-0.485c0.585-0.281,1.273-0.56,2.044-0.828
		c0.774-0.269,1.656-0.497,2.622-0.677c0.558-0.104,1.16-0.156,1.79-0.156c0.471,0,0.969,0.029,1.48,0.087
		c1.857,0.362,3.218,0.798,4.06,1.298c0.879,0.523,1.356,1.12,1.418,1.775c0.06,0.643-0.203,1.333-0.78,2.051
		c-0.554,0.69-1.303,1.394-2.226,2.091c-0.918,0.694-1.958,1.406-3.091,2.117c-1.138,0.714-2.249,1.401-3.331,2.059
		c-1.081,0.657-2.083,1.281-3.007,1.871c-0.795,0.508-1.425,0.983-1.875,1.415l15.468,9.3l0.097,0.172
		c0,0.406-0.164,0.794-0.486,1.154c-0.293,0.326-0.635,0.492-1.016,0.492c-0.052,0-0.105-0.003-0.16-0.01L40.674,19.83v10.76
		l-0.072,0.153c-0.29,0.242-0.535,0.396-0.748,0.47C39.69,31.271,39.55,31.3,39.426,31.3L39.298,31.288z M40.968,7.286
		c-0.042,0.432-0.073,0.943-0.094,1.536c-0.022,0.623-0.033,1.283-0.033,1.983v3.513c0.164-0.098,0.404-0.231,0.763-0.414
		c0.59-0.3,1.308-0.673,2.155-1.119c0.846-0.445,1.753-0.94,2.721-1.486c0.963-0.542,1.887-1.108,2.747-1.682
		c0.858-0.572,1.622-1.146,2.271-1.708c0.629-0.544,1.038-1.052,1.215-1.51c0.162-0.419,0.08-0.771-0.256-1.108
		c-0.359-0.358-1.128-0.649-2.287-0.864c-0.195-0.012-0.426-0.019-0.669-0.019c-0.489,0-1.039,0.03-1.632,0.088
		c-0.892,0.088-1.793,0.25-2.679,0.479c-0.884,0.229-1.72,0.544-2.484,0.938C41.976,6.29,41.392,6.751,40.968,7.286z"/>
	<path d="M38.534,3.593c0.067-0.156,0.206-0.279,0.418-0.368c0.212-0.089,0.435-0.134,0.669-0.134c0.234,0,0.44,0.062,0.619,0.184
		c0.178,0.123,0.29,0.318,0.334,0.585l0.201,1.84c0.423-0.089,0.925-0.273,1.505-0.552c0.58-0.278,1.254-0.552,2.023-0.819
		c0.77-0.268,1.633-0.49,2.592-0.669c0.958-0.178,2.029-0.201,3.211-0.067c1.828,0.357,3.155,0.781,3.98,1.271
		c0.825,0.491,1.265,1.032,1.321,1.623c0.055,0.591-0.19,1.227-0.736,1.906c-0.546,0.681-1.276,1.366-2.191,2.057
		c-0.915,0.691-1.94,1.394-3.077,2.107c-1.137,0.714-2.247,1.4-3.328,2.057c-1.082,0.658-2.085,1.283-3.011,1.873
		c-0.925,0.591-1.622,1.132-2.09,1.622l15.688,9.433c0,0.357-0.145,0.697-0.435,1.021c-0.29,0.323-0.625,0.463-1.003,0.418
		l-14.751-8.496V31.59c-0.268,0.223-0.496,0.368-0.686,0.435c-0.19,0.067-0.34,0.089-0.452,0.067
		c-0.112-0.022-0.212-0.084-0.301-0.185c-0.089-0.1-0.167-0.206-0.234-0.317L38.534,3.593z M40.775,8.208
		c-0.045,0.447-0.079,0.982-0.101,1.606c-0.022,0.625-0.033,1.288-0.033,1.99c0,0.702,0,1.394,0,2.074c0,0.681,0,1.288,0,1.823
		c0.111-0.111,0.462-0.317,1.054-0.619c0.59-0.301,1.31-0.674,2.157-1.121c0.847-0.446,1.756-0.942,2.726-1.488
		c0.97-0.546,1.89-1.109,2.76-1.689c0.87-0.58,1.633-1.154,2.292-1.723c0.657-0.568,1.081-1.098,1.271-1.589
		c0.189-0.49,0.089-0.931-0.301-1.321c-0.39-0.39-1.188-0.696-2.392-0.919c-0.669-0.044-1.455-0.022-2.358,0.067
		c-0.903,0.089-1.807,0.25-2.709,0.485c-0.903,0.234-1.745,0.552-2.525,0.953C41.833,7.138,41.221,7.629,40.775,8.208z"/>
	<path d="M80.058,31.491c-0.246-0.024-0.51-0.104-0.785-0.235c-0.271-0.13-0.526-0.29-0.758-0.477l-0.074-0.139L76.321,6.515
		c-0.025,0.073-0.053,0.156-0.083,0.252c-0.19,0.602-0.429,1.381-0.719,2.339c-0.29,0.958-0.607,2.039-0.952,3.242
		c-0.345,1.2-0.717,2.406-1.106,3.586c-0.391,1.184-0.792,2.302-1.191,3.322c-0.404,1.032-0.81,1.866-1.206,2.477
		c-0.427,0.659-0.833,1.011-1.24,1.076l-0.102,0.009c-0.415,0-0.764-0.389-1.07-1.188c-0.339-0.5-0.75-1.251-1.198-2.193
		c-0.447-0.938-0.92-1.953-1.423-3.047c-0.501-1.091-1.026-2.223-1.571-3.394c-0.544-1.165-1.099-2.257-1.649-3.249
		c-0.551-0.991-1.098-1.868-1.627-2.606c-0.405-0.566-0.799-0.999-1.174-1.292c0.014,1.626,0.114,3.414,0.298,5.32
		c0.201,2.073,0.418,4.174,0.652,6.302c0.234,2.131,0.452,4.232,0.653,6.308c0.2,2.072,0.302,4.014,0.302,5.772
		c0.118,0.189,0.124,0.472-0.001,0.751c-0.118,0.261-0.298,0.461-0.537,0.595c-0.156,0.086-0.329,0.13-0.514,0.13
		c-0.106,0-0.219-0.015-0.334-0.043c-0.317-0.08-0.604-0.311-0.854-0.686c-0.343-2.304-0.568-4.605-0.702-6.923l-0.401-6.991
		c-0.132-2.307-0.295-4.658-0.484-6.987c-0.189-2.304-0.475-4.605-0.851-6.84c-0.029-0.552,0.078-0.884,0.326-1.039
		c0.209-0.131,0.47-0.198,0.775-0.198c1.085,0.306,2.025,0.856,2.848,1.645c0.81,0.776,1.557,1.7,2.222,2.747
		c0.658,1.038,1.271,2.189,1.82,3.42c0.546,1.227,1.087,2.448,1.623,3.664c0.529,1.203,1.068,2.371,1.603,3.473
		c0.504,1.04,1.065,1.953,1.667,2.719c0.011-0.008,0.022-0.018,0.035-0.03c0.016-0.016,0.097-0.111,0.273-0.566
		c0.133-0.344,0.321-0.871,0.566-1.582c0.245-0.713,0.573-1.704,0.985-2.974l3.83-11.841c0.061-0.184,0.205-0.339,0.427-0.464
		c0.207-0.117,0.437-0.177,0.683-0.177c0.257,0,0.497,0.088,0.711,0.263c0.215,0.175,0.363,0.468,0.438,0.871
		c0.225,2.066,0.433,4.257,0.622,6.526c0.189,2.286,0.396,4.62,0.619,7.005c0.221,2.369,0.479,4.805,0.769,7.237
		c0.287,2.42,0.646,4.841,1.069,7.196c-0.051,0.426-0.177,0.688-0.374,0.845c-0.169,0.132-0.368,0.198-0.592,0.198
		C80.139,31.497,80.099,31.495,80.058,31.491z"/>
	<path d="M76.465,6.871c-0.089-0.044-0.229,0.234-0.418,0.836c-0.19,0.602-0.43,1.383-0.719,2.341
		c-0.29,0.959-0.608,2.041-0.953,3.245c-0.346,1.204-0.714,2.397-1.104,3.579c-0.391,1.183-0.786,2.286-1.188,3.312
		c-0.401,1.026-0.797,1.84-1.188,2.441c-0.391,0.603-0.758,0.932-1.104,0.987s-0.664-0.296-0.953-1.054
		c-0.357-0.535-0.758-1.271-1.204-2.208c-0.446-0.937-0.92-1.951-1.422-3.044c-0.501-1.092-1.026-2.224-1.572-3.395
		c-0.547-1.17-1.099-2.258-1.656-3.261c-0.558-1.003-1.104-1.878-1.639-2.625s-1.048-1.266-1.539-1.556
		c0,1.739,0.1,3.646,0.301,5.72c0.201,2.074,0.418,4.176,0.652,6.305c0.234,2.13,0.452,4.231,0.652,6.306
		c0.201,2.073,0.301,3.992,0.301,5.753c0.111,0.224,0.117,0.446,0.017,0.669c-0.101,0.224-0.251,0.39-0.452,0.502
		c-0.201,0.111-0.435,0.134-0.703,0.067c-0.268-0.067-0.513-0.269-0.736-0.603c-0.313-2.229-0.535-4.504-0.669-6.823
		s-0.268-4.65-0.401-6.991c-0.134-2.342-0.296-4.671-0.485-6.991c-0.19-2.319-0.474-4.604-0.853-6.857
		c-0.022-0.446,0.056-0.725,0.234-0.836c0.178-0.111,0.401-0.167,0.669-0.167c1.003,0.29,1.906,0.819,2.709,1.589
		c0.803,0.769,1.533,1.672,2.191,2.709c0.657,1.037,1.259,2.169,1.806,3.395c0.546,1.227,1.087,2.447,1.622,3.663
		c0.535,1.216,1.07,2.375,1.605,3.479c0.536,1.104,1.126,2.057,1.773,2.859c0.089,0,0.172-0.038,0.251-0.117
		c0.078-0.077,0.184-0.289,0.318-0.635s0.323-0.875,0.568-1.589c0.245-0.714,0.574-1.706,0.987-2.978
		c0.413-1.271,0.931-2.871,1.556-4.8c0.624-1.929,1.382-4.276,2.274-7.041c0.044-0.134,0.156-0.251,0.334-0.351
		c0.178-0.101,0.373-0.151,0.585-0.151c0.211,0,0.407,0.073,0.585,0.218c0.178,0.145,0.301,0.396,0.368,0.752
		c0.223,2.052,0.429,4.22,0.619,6.506c0.189,2.286,0.396,4.622,0.619,7.007c0.223,2.387,0.479,4.8,0.769,7.242
		c0.29,2.441,0.647,4.845,1.071,7.208c-0.045,0.313-0.146,0.529-0.301,0.652c-0.156,0.122-0.346,0.173-0.568,0.15
		c-0.224-0.022-0.463-0.095-0.719-0.217c-0.257-0.123-0.497-0.273-0.719-0.452L76.465,6.871z"/>
	<path d="M83.054,31.71c-0.112,0-0.222-0.021-0.327-0.065c-0.346-0.144-0.774-0.438-1.309-0.903l-0.06-0.21
		c0.156-0.512,0.406-1.358,0.752-2.54c0.343-1.176,0.798-2.878,1.353-5.06c0.557-2.196,1.243-4.988,2.057-8.377
		c0.807-3.36,1.769-7.568,2.859-12.506c0.183-0.325,0.412-0.506,0.704-0.599c0.19-0.061,0.384-0.092,0.575-0.092
		c0.083,0,0.166,0.006,0.249,0.017c0.276,0.038,0.515,0.128,0.709,0.271c0.253,0.187,0.309,0.392,0.303,0.548l6.501,15.81
		l3.238-0.984c0.017,0,0.033-0.001,0.05-0.001c0.367,0,0.642,0.093,0.868,0.269c0.244,0.19,0.382,0.429,0.411,0.706
		c0.026,0.271-0.064,0.559-0.269,0.854c-0.204,0.292-0.552,0.524-1.035,0.692c-0.179,0.067-0.419,0.143-0.716,0.223
		c-0.292,0.078-0.585,0.151-0.876,0.219c-0.284,0.065-0.523,0.131-0.718,0.195c-0.063,0.021-0.105,0.039-0.134,0.054l3.671,9.788
		l-0.002,0.145c-0.042,0.106-0.084,0.237-0.126,0.396c-0.057,0.212-0.172,0.384-0.341,0.51c-0.135,0.102-0.314,0.153-0.534,0.153
		c-0.066,0-0.137-0.005-0.212-0.015c-0.298-0.037-0.695-0.204-1.215-0.512l-0.084-0.099l-3.781-9.666
		c-0.445,0.119-0.977,0.233-1.584,0.341c-0.692,0.123-1.418,0.246-2.177,0.368c-0.754,0.123-1.515,0.267-2.28,0.433
		c-0.758,0.166-1.463,0.371-2.096,0.61c-0.627,0.239-1.161,0.527-1.587,0.858c-0.41,0.317-0.648,0.688-0.729,1.132
		c-0.044,0.306-0.127,0.82-0.25,1.537c-0.123,0.713-0.24,1.425-0.351,2.138c-0.134,0.849-0.291,1.765-0.469,2.748L84.033,31.2
		C83.694,31.538,83.365,31.71,83.054,31.71z M86.677,20.354c0.337-0.104,0.749-0.212,1.249-0.328l2.175-0.503l2.359-0.535
		c0.692-0.155,1.344-0.324,1.94-0.503L89.986,6.462L86.677,20.354z"/>
	<path d="M81.549,31.59c0.156-0.513,0.407-1.36,0.753-2.542c0.345-1.182,0.797-2.871,1.354-5.067
		c0.557-2.196,1.243-4.989,2.057-8.379c0.814-3.389,1.767-7.56,2.86-12.51c0.134-0.223,0.323-0.373,0.569-0.451
		c0.245-0.078,0.49-0.101,0.736-0.067c0.245,0.033,0.452,0.112,0.619,0.234c0.167,0.123,0.24,0.262,0.218,0.418l6.589,16.022
		l3.412-1.037c0.29,0,0.536,0.078,0.736,0.234s0.312,0.346,0.334,0.568c0.022,0.224-0.056,0.463-0.234,0.72
		c-0.179,0.256-0.491,0.463-0.937,0.618c-0.179,0.067-0.413,0.14-0.703,0.218c-0.29,0.078-0.58,0.15-0.87,0.218
		c-0.29,0.066-0.535,0.134-0.736,0.2c-0.201,0.067-0.301,0.134-0.301,0.201l3.713,9.9c-0.045,0.112-0.089,0.251-0.134,0.418
		c-0.045,0.168-0.134,0.302-0.268,0.401c-0.134,0.101-0.335,0.134-0.603,0.101s-0.647-0.195-1.137-0.485l-3.847-9.834
		c-0.468,0.134-1.048,0.263-1.739,0.385c-0.691,0.123-1.417,0.246-2.174,0.368c-0.758,0.123-1.522,0.268-2.291,0.435
		c-0.77,0.168-1.478,0.374-2.124,0.619c-0.647,0.246-1.193,0.541-1.639,0.887c-0.446,0.346-0.714,0.764-0.803,1.254
		c-0.045,0.313-0.128,0.825-0.251,1.539s-0.24,1.427-0.351,2.141c-0.134,0.848-0.29,1.762-0.468,2.743
		c-0.401,0.401-0.764,0.535-1.087,0.401S82.063,32.036,81.549,31.59z M89.945,6.771L86.4,21.655
		c0.379-0.134,0.903-0.278,1.572-0.435s1.394-0.323,2.174-0.502c0.78-0.178,1.566-0.356,2.358-0.535
		c0.791-0.178,1.51-0.368,2.157-0.568L89.945,6.771z"/>
</g>
</svg>
