<?xml version="1.0" encoding="utf-8"?>
<!-- Generator: Adobe Illustrator 16.0.0, SVG Export Plug-In . SVG Version: 6.00 Build 0)  -->
<!DOCTYPE svg PUBLIC "-//W3C//DTD SVG 1.0//EN" "http://www.w3.org/TR/2001/REC-SVG-20010904/DTD/svg10.dtd">
<svg version="1.0" id="Layer_1" xmlns="http://www.w3.org/2000/svg" xmlns:xlink="http://www.w3.org/1999/xlink" x="0px" y="0px"
	 width="147px" height="33px" viewBox="0 0 147 33" enable-background="new 0 0 147 33" xml:space="preserve">
<g>
	<path d="M12.591,28.811c-0.243,0-0.548-0.029-0.907-0.086l-0.165-0.159c-0.168-0.86-0.296-1.917-0.379-3.141
		c-0.083-1.215-0.147-2.556-0.188-3.985c-0.042-1.433-0.063-2.917-0.063-4.454c0-1.534-0.011-3.041-0.031-4.523
		c-0.021-1.482-0.047-2.886-0.078-4.211c-0.03-1.246-0.092-2.372-0.187-3.349c-0.417-0.047-0.838-0.071-1.253-0.071
		c-0.33,0-0.659,0.015-0.989,0.044C7.539,4.949,6.731,5.037,5.931,5.141C5.126,5.246,4.316,5.345,3.5,5.439
		C3.007,5.496,2.507,5.525,2.013,5.525c-0.331,0-0.663-0.013-0.994-0.039c-0.247-0.022-0.5-0.078-0.755-0.167
		C0.031,5.239-0.233,5.022-0.167,4.45c0.024-0.267,0.157-0.538,0.396-0.8C0.458,3.396,0.71,3.268,0.978,3.268l9.324-0.552
		c0.024-0.089,0.055-0.197,0.095-0.323c0.068-0.214,0.158-0.421,0.267-0.617c0.113-0.203,0.252-0.383,0.414-0.534
		c0.165-0.153,0.354-0.23,0.565-0.23c0.407,0.029,0.666,0.139,0.856,0.329c0.167,0.167,0.309,0.349,0.422,0.541l0.283,0.487
		c0.078,0.138,0.149,0.149,0.172,0.153c3.311-0.003,6.797-0.066,10.329-0.19c0,0,0.243,0.005,0.515,0.016
		c0.286,0.011,0.484,0.029,0.595,0.05l0.15,0.129c0.159,0.45-0.015,0.832-0.488,1.075c-0.409,0.21-0.973,0.365-1.723,0.474
		c-0.725,0.105-1.559,0.18-2.479,0.221c-0.92,0.042-1.835,0.073-2.745,0.094c-0.906,0.021-1.761,0.053-2.563,0.094
		c-0.713,0.037-1.294,0.091-1.729,0.161C13.086,5.678,13,6.8,12.98,7.984c-0.021,1.241-0.016,2.544,0.015,3.875
		c0.031,1.333,0.089,2.7,0.172,4.064c0.083,1.378,0.162,2.736,0.235,4.073c0.073,1.333,0.12,2.643,0.141,3.893
		c0.021,1.253-0.011,2.438-0.095,3.526c0.091,0.447,0.162,1.133-0.299,1.313C13.012,28.784,12.829,28.811,12.591,28.811z"/>
	<path d="M10.775,4.724c-0.814-0.104-1.628-0.12-2.443-0.047S6.708,4.838,5.905,4.943C5.101,5.047,4.292,5.146,3.478,5.24
		C2.663,5.334,1.849,5.35,1.035,5.287C0.805,5.267,0.57,5.214,0.33,5.131C0.089,5.047-0.009,4.828,0.032,4.473
		c0.021-0.229,0.136-0.459,0.345-0.689C0.585,3.554,0.805,3.45,1.035,3.471l9.428-0.564c0.021-0.104,0.063-0.255,0.125-0.454
		c0.063-0.198,0.146-0.392,0.251-0.58c0.104-0.188,0.229-0.349,0.375-0.485c0.146-0.135,0.313-0.193,0.501-0.172
		c0.271,0.021,0.485,0.11,0.642,0.267c0.156,0.156,0.287,0.324,0.391,0.501c0.104,0.178,0.198,0.34,0.282,0.485
		c0.083,0.146,0.188,0.23,0.313,0.25c3.362,0,6.817-0.063,10.368-0.188c0.063,0,0.229,0.005,0.501,0.016
		c0.271,0.011,0.459,0.026,0.563,0.047c0.125,0.355-0.005,0.632-0.391,0.83c-0.387,0.199-0.94,0.35-1.66,0.454
		s-1.54,0.178-2.459,0.219c-0.919,0.042-1.832,0.073-2.74,0.094c-0.909,0.021-1.765,0.053-2.568,0.094
		c-0.804,0.042-1.436,0.104-1.895,0.188c-0.167,1.086-0.261,2.255-0.282,3.508c-0.021,1.253-0.016,2.548,0.016,3.884
		c0.031,1.336,0.088,2.694,0.172,4.072s0.162,2.735,0.235,4.071c0.073,1.337,0.12,2.632,0.141,3.885
		c0.021,1.252-0.011,2.422-0.094,3.508c0.125,0.668,0.067,1.049-0.172,1.143c-0.24,0.095-0.694,0.09-1.362-0.016
		c-0.167-0.855-0.293-1.895-0.376-3.116c-0.084-1.222-0.146-2.547-0.188-3.978c-0.042-1.431-0.063-2.913-0.063-4.448
		s-0.011-3.043-0.031-4.526c-0.021-1.482-0.047-2.887-0.079-4.213C10.948,6.921,10.88,5.747,10.775,4.724z"/>
	<path d="M34.531,29.061c-0.168,0-0.336-0.019-0.498-0.056c-0.289-0.066-0.548-0.163-0.772-0.287
		c-0.271-0.148-0.398-0.258-0.438-0.378L26.962,3.109c-0.005-0.411,0.067-0.673,0.214-0.848c0.145-0.171,0.332-0.278,0.557-0.318
		c0.087-0.016,0.176-0.023,0.268-0.023c0.119,0,0.244,0.014,0.371,0.04c0.209,0.044,0.401,0.099,0.577,0.165l0.125,0.143
		l5.357,23.573c0.066-0.16,0.15-0.377,0.258-0.67c0.26-0.707,0.562-1.598,0.905-2.67l1.143-3.586c0.417-1.314,0.83-2.634,1.236-3.96
		c0.407-1.325,0.788-2.583,1.144-3.773l0.908-3.039c0.169-0.37,0.375-0.633,0.623-0.81c0.252-0.18,0.529-0.272,0.821-0.272
		c0.283,0,0.557,0.071,0.816,0.212c0.261,0.143,0.477,0.358,0.641,0.639l5.978,17.439l4.552-22.765
		c0.142-0.274,0.306-0.451,0.51-0.583c0.21-0.136,0.42-0.205,0.626-0.205c0.221,0,0.432,0.099,0.627,0.293
		c0.186,0.186,0.321,0.49,0.415,0.93l-5.293,25.139c-0.072,0.158-0.181,0.282-0.362,0.439c-0.184,0.158-0.404,0.263-0.658,0.312
		c-0.067,0.013-0.135,0.02-0.205,0.02c-0.201,0-0.412-0.055-0.627-0.163c-0.296-0.148-0.542-0.457-0.751-0.944l-6.256-17.248
		l-5.648,17.855c-0.249,0.351-0.533,0.529-0.876,0.591C34.814,29.048,34.672,29.061,34.531,29.061z"/>
	<path d="M27.157,3.063c0-0.313,0.057-0.537,0.172-0.673c0.114-0.136,0.261-0.219,0.438-0.25c0.177-0.031,0.365-0.026,0.563,0.016
		c0.198,0.042,0.381,0.094,0.548,0.156l5.481,24.117c0.083-0.083,0.256-0.479,0.517-1.189c0.261-0.71,0.564-1.603,0.908-2.679
		c0.345-1.075,0.725-2.271,1.143-3.586c0.417-1.315,0.83-2.636,1.237-3.962c0.407-1.326,0.788-2.584,1.144-3.774
		c0.354-1.19,0.658-2.203,0.908-3.038c0.146-0.313,0.329-0.548,0.548-0.705c0.219-0.157,0.454-0.235,0.705-0.235
		c0.25,0,0.49,0.063,0.72,0.188c0.229,0.125,0.417,0.313,0.564,0.564l6.202,18.104l4.698-23.491
		c0.104-0.188,0.246-0.339,0.423-0.454s0.35-0.172,0.517-0.172c0.167,0,0.329,0.078,0.485,0.235s0.276,0.434,0.36,0.83L50.146,28.12
		c-0.042,0.084-0.141,0.193-0.297,0.329c-0.157,0.136-0.345,0.225-0.564,0.267s-0.454,0-0.705-0.126
		c-0.25-0.125-0.47-0.406-0.658-0.845L41.471,9.954l-5.826,18.417c-0.188,0.251-0.428,0.402-0.72,0.454
		c-0.292,0.052-0.575,0.047-0.846-0.016c-0.271-0.063-0.512-0.151-0.72-0.267c-0.209-0.114-0.324-0.203-0.345-0.266L27.157,3.063z"
		/>
	<path d="M58.419,29.278c-0.177,0-0.358-0.031-0.538-0.092c-0.216-0.072-0.401-0.183-0.547-0.329l-0.058-0.137L56.618,2.567
		l0.033-0.115c0.109-0.165,0.277-0.281,0.501-0.348c0.146-0.042,0.295-0.063,0.447-0.063c0.06,0,0.12,0.003,0.18,0.01
		c0.208,0.023,0.414,0.082,0.611,0.174c0.216,0.102,0.363,0.22,0.447,0.36l0.029,0.099l0.47,25.684c0,0.315-0.088,0.546-0.26,0.689
		c-0.158,0.132-0.35,0.206-0.57,0.219L58.419,29.278z"/>
	<path d="M56.818,2.563c0.083-0.125,0.214-0.214,0.391-0.267c0.177-0.052,0.36-0.067,0.548-0.047
		c0.188,0.021,0.371,0.074,0.548,0.157c0.177,0.083,0.298,0.178,0.36,0.282l0.47,25.684c0,0.251-0.063,0.428-0.188,0.532
		c-0.125,0.104-0.277,0.162-0.454,0.173c-0.177,0.01-0.36-0.016-0.548-0.079c-0.188-0.063-0.345-0.156-0.47-0.281L56.818,2.563z"/>
	<path d="M62.925,29.01c-0.491,0-1.077-0.269-1.077-1.547c-0.062-4.396-0.135-8.152-0.219-11.161
		c-0.084-2.975-0.157-5.386-0.219-7.234c-0.063-1.847-0.115-3.213-0.157-4.101C61.211,4.076,61.19,3.493,61.19,3.22
		c0-0.365,0.108-0.664,0.321-0.889c0.206-0.219,0.439-0.33,0.693-0.33c0.308,0.015,0.555,0.154,0.779,0.415
		c0.22,0.257,0.338,0.64,0.361,1.17l0.992,22.724l13.362-2.833c0.01,0,0.02,0,0.029,0c0.802,0,1.267,0.177,1.459,0.537
		c0.199,0.371,0.077,0.88-0.373,1.555l-0.125,0.084l-15.723,3.352L62.925,29.01z"/>
	<path d="M62.048,27.463c-0.063-4.469-0.136-8.19-0.219-11.166c-0.084-2.976-0.157-5.387-0.219-7.235s-0.115-3.215-0.157-4.103
		c-0.042-0.887-0.063-1.467-0.063-1.738c0-0.313,0.088-0.564,0.266-0.752c0.177-0.188,0.371-0.276,0.58-0.266
		c0.208,0.011,0.407,0.125,0.595,0.345c0.188,0.219,0.292,0.569,0.313,1.049l1.002,22.959l13.593-2.882
		c1.399,0,1.702,0.595,0.908,1.785L62.925,28.81C62.34,28.81,62.048,28.36,62.048,27.463z"/>
	<path d="M82.067,29.278c-0.177,0-0.358-0.031-0.538-0.092c-0.216-0.072-0.401-0.183-0.547-0.329l-0.058-0.137L80.266,2.567
		l0.033-0.115c0.109-0.165,0.277-0.281,0.501-0.348c0.146-0.042,0.295-0.063,0.447-0.063c0.06,0,0.12,0.003,0.18,0.01
		c0.208,0.023,0.414,0.082,0.611,0.174c0.216,0.102,0.363,0.22,0.447,0.36l0.029,0.099l0.47,25.684c0,0.315-0.088,0.546-0.26,0.689
		c-0.158,0.132-0.35,0.206-0.57,0.219L82.067,29.278z"/>
	<path d="M80.465,2.563c0.083-0.125,0.214-0.214,0.391-0.267c0.177-0.052,0.36-0.067,0.548-0.047
		c0.188,0.021,0.371,0.074,0.548,0.157c0.177,0.083,0.298,0.178,0.36,0.282l0.47,25.684c0,0.251-0.063,0.428-0.188,0.532
		c-0.125,0.104-0.277,0.162-0.454,0.173c-0.177,0.01-0.36-0.016-0.548-0.079c-0.188-0.063-0.345-0.156-0.47-0.281L80.465,2.563z"/>
	<path d="M100.783,32.429c-0.228-0.342-0.407-0.963-0.548-1.897c-0.137-0.902-0.248-1.908-0.331-2.99
		c-0.084-1.094-0.137-2.167-0.158-3.19c-0.015-0.742-0.019-1.381-0.012-1.906c-0.533,0.605-1.151,1.234-1.844,1.876
		c-0.862,0.8-1.798,1.533-2.782,2.182c-0.989,0.653-2.014,1.187-3.044,1.586c-0.967,0.375-1.903,0.564-2.783,0.564l-0.209-0.003
		c-0.956-0.033-1.842-0.341-2.632-0.915c-0.792-0.574-1.422-1.54-1.873-2.869c-0.279-0.944-0.382-2.053-0.308-3.303
		c0.073-1.237,0.286-2.562,0.632-3.937c0.346-1.373,0.824-2.785,1.419-4.194c0.595-1.411,1.306-2.774,2.113-4.054
		c0.806-1.277,1.72-2.472,2.716-3.552c1-1.084,2.079-1.981,3.207-2.667c1.134-0.688,2.342-1.15,3.592-1.373
		c0.42-0.075,0.851-0.113,1.278-0.113c0.853,0,1.731,0.151,2.611,0.449c0.012,0,0.023-0.001,0.035-0.001
		c0.164,0,0.312,0.07,0.387,0.2c0.065,0.115,0.083,0.259,0.055,0.43c-0.022,0.132-0.06,0.295-0.114,0.491
		c-0.047,0.169-0.071,0.372-0.071,0.604l-0.227,0.198c-0.444-0.061-0.888-0.092-1.319-0.092c-1.011,0-2,0.17-2.941,0.505
		c-1.35,0.481-2.621,1.212-3.776,2.173c-1.16,0.965-2.217,2.132-3.142,3.468c-0.928,1.341-1.717,2.783-2.345,4.286
		c-0.629,1.506-1.094,3.058-1.381,4.61c-0.289,1.555-0.382,3.05-0.279,4.444c0.078,1.142,0.407,1.918,0.978,2.308
		c0.439,0.301,0.963,0.453,1.556,0.453c0.193,0,0.395-0.016,0.604-0.048c0.88-0.131,1.853-0.492,2.892-1.072
		c1.048-0.586,2.075-1.315,3.052-2.168c0.977-0.854,1.863-1.798,2.635-2.806c0.695-0.907,1.215-1.81,1.55-2.686h-5.354l-0.163-0.084
		c-0.473-0.663-0.297-1.054-0.066-1.266c0.284-0.26,0.743-0.435,1.405-0.536c0.625-0.095,1.378-0.144,2.238-0.144
		c0.859,0,1.739,0.021,2.641,0.063c0.208-0.056,0.577-0.185,1.042-0.376c0.487-0.201,0.958-0.367,1.4-0.493
		c0.309-0.088,0.583-0.133,0.813-0.133c0.122,0,0.235,0.013,0.337,0.037c0.191,0.045,0.283,0.159,0.327,0.245
		c0.092,0.184,0.066,0.439-0.08,0.78c-0.036,0.073-0.095,0.144-0.282,0.285c-0.131,0.098-0.278,0.195-0.44,0.293
		c0,0-0.606,0.368-0.658,0.397c-0.476,0.949-0.818,2.069-1.017,3.331c-0.207,1.303-0.322,2.673-0.342,4.075
		c-0.021,1.408,0.026,2.824,0.14,4.208c0.113,1.387,0.255,2.658,0.421,3.777l-0.133,0.219l-1.19,0.407L100.783,32.429z"/>
	<path d="M99.947,21.888c-0.606,0.731-1.336,1.493-2.192,2.286c-0.856,0.794-1.775,1.515-2.756,2.161
		c-0.981,0.647-1.984,1.17-3.007,1.566c-1.023,0.396-1.994,0.579-2.913,0.548c-0.919-0.031-1.76-0.323-2.521-0.877
		c-0.763-0.553-1.362-1.477-1.801-2.771c-0.272-0.919-0.371-1.994-0.298-3.227c0.073-1.231,0.282-2.531,0.626-3.899
		c0.345-1.367,0.814-2.756,1.41-4.166c0.595-1.41,1.294-2.751,2.098-4.025c0.804-1.273,1.702-2.448,2.694-3.523
		c0.992-1.076,2.046-1.953,3.164-2.631c1.117-0.678,2.291-1.127,3.523-1.347c1.232-0.219,2.495-0.11,3.79,0.329
		c0.167,0,0.271,0.037,0.313,0.11c0.042,0.073,0.052,0.172,0.031,0.297c-0.021,0.125-0.058,0.282-0.109,0.47
		c-0.052,0.188-0.078,0.407-0.078,0.658c-1.525-0.208-2.976-0.068-4.354,0.423c-1.378,0.491-2.657,1.227-3.837,2.208
		s-2.239,2.151-3.179,3.508c-0.94,1.358-1.729,2.798-2.365,4.322c-0.637,1.525-1.102,3.075-1.394,4.651
		c-0.292,1.577-0.387,3.075-0.282,4.495c0.083,1.211,0.438,2.03,1.065,2.458c0.626,0.429,1.394,0.575,2.302,0.438
		c0.909-0.136,1.895-0.501,2.96-1.096c1.065-0.596,2.093-1.326,3.085-2.192c0.991-0.866,1.879-1.812,2.662-2.835
		c0.783-1.022,1.341-2.025,1.676-3.007h-5.638c-0.313-0.438-0.344-0.772-0.094-1.002c0.25-0.229,0.684-0.392,1.3-0.485
		c0.616-0.094,1.352-0.141,2.208-0.141c0.856,0,1.733,0.021,2.631,0.063c0.271-0.063,0.647-0.193,1.127-0.392
		c0.48-0.198,0.939-0.36,1.378-0.485c0.438-0.125,0.788-0.157,1.049-0.094c0.261,0.063,0.297,0.313,0.11,0.752
		c-0.021,0.042-0.094,0.109-0.219,0.204c-0.125,0.094-0.267,0.188-0.423,0.282c-0.157,0.094-0.303,0.183-0.438,0.266
		c-0.136,0.084-0.225,0.136-0.267,0.157c-0.501,0.981-0.856,2.13-1.064,3.445c-0.209,1.315-0.324,2.684-0.345,4.104
		c-0.021,1.42,0.026,2.829,0.141,4.228c0.114,1.399,0.255,2.663,0.423,3.79l-1.19,0.407c-0.209-0.313-0.381-0.919-0.517-1.816
		c-0.136-0.898-0.246-1.89-0.329-2.976c-0.083-1.086-0.136-2.146-0.157-3.179C99.926,23.313,99.926,22.493,99.947,21.888z"/>
	<path d="M106.367,29.354c-0.148,0-0.32-0.036-0.509-0.106c-0.254-0.097-0.38-0.3-0.347-0.558l-0.096-25.563
		c0-0.343,0.081-0.604,0.24-0.778c0.161-0.175,0.365-0.27,0.605-0.284c0.006,0,0.013,0,0.019,0c0.259,0,0.459,0.042,0.663,0.124
		c0.225,0.09,0.43,0.204,0.609,0.338l0.08,0.156c0.021,0.921,0.031,1.976,0.031,3.168c0,1.19,0.005,2.39,0.016,3.6
		c0.011,1.208,0.042,2.375,0.094,3.5c0.045,0.998,0.13,1.874,0.251,2.609c0.951-0.396,1.934-0.74,2.924-1.022
		c1.045-0.296,2.01-0.651,2.867-1.054c0.839-0.394,1.538-0.904,2.081-1.517c0.53-0.6,0.83-1.429,0.89-2.463
		c0.041-0.562,0.062-1.058,0.062-1.492c0-0.434-0.016-0.868-0.046-1.301c-0.031-0.428-0.093-0.889-0.185-1.371
		c-0.094-0.489-0.215-1.067-0.359-1.733c-0.005-0.537,0.112-0.853,0.354-1.009c0.209-0.136,0.472-0.205,0.781-0.205
		c0.343,0,0.615,0.092,0.81,0.273c0.181,0.169,0.314,0.381,0.397,0.631c0.078,0.232,0.129,0.496,0.151,0.784
		c0.021,0.277,0.032,0.533,0.032,0.767c0.021,0.345,0.041,0.9,0.063,1.654c0.021,0.752,0.042,1.593,0.063,2.523
		c0.021,0.929,0.047,1.915,0.078,2.958c0.031,1.044,0.058,2.032,0.079,2.961c0.021,0.929,0.041,1.769,0.063,2.52
		c0.021,0.755,0.031,1.311,0.031,1.666c0.021,0.432,0.031,1.02,0.031,1.755v2.286c0,0.796-0.011,1.565-0.031,2.308
		c-0.021,0.742-0.042,1.334-0.063,1.773c-0.022,0.197-0.038,0.381-0.047,0.565c-0.014,0.206-0.048,0.4-0.104,0.581
		c-0.063,0.199-0.175,0.376-0.337,0.525c-0.164,0.15-0.394,0.259-0.701,0.33l-0.155-0.026c-0.47-0.306-0.727-0.684-0.763-1.123
		c-0.031-0.378-0.058-0.787-0.08-1.229c0-0.261,0.005-0.716,0.017-1.376c0.01-0.655,0.016-1.411,0.016-2.267
		c0-0.856,0.005-1.761,0.016-2.711c0.01-0.949,0.016-1.848,0.016-2.692v-2.255c0-0.437-0.005-0.783-0.014-1.038
		c-0.17,0.082-0.386,0.176-0.651,0.284c-0.44,0.178-0.948,0.373-1.525,0.582l-1.817,0.658c-0.636,0.229-1.24,0.454-1.813,0.672
		s-1.084,0.417-1.532,0.594c-0.432,0.172-0.728,0.315-0.877,0.428c-0.346,0.25-0.606,0.604-0.779,1.056
		c-0.182,0.474-0.314,1.017-0.396,1.614c-0.082,0.605-0.124,1.26-0.124,1.947c0,0.696,0.021,1.375,0.063,2.039
		c0.041,0.667,0.088,1.302,0.141,1.905c0.052,0.609,0.089,1.123,0.11,1.543c-0.023,0.398-0.16,0.738-0.407,1.031
		C107.093,29.198,106.762,29.354,106.367,29.354z"/>
	<path d="M117.143,14.214c-0.168,0.104-0.471,0.246-0.909,0.423c-0.438,0.178-0.944,0.371-1.519,0.58
		c-0.574,0.209-1.18,0.428-1.816,0.658c-0.638,0.23-1.243,0.454-1.817,0.673s-1.086,0.418-1.534,0.595
		c-0.449,0.178-0.757,0.328-0.924,0.454c-0.376,0.271-0.658,0.652-0.846,1.144c-0.188,0.49-0.324,1.044-0.407,1.659
		c-0.084,0.616-0.126,1.274-0.126,1.974c0,0.7,0.021,1.384,0.063,2.052c0.041,0.668,0.088,1.305,0.141,1.91
		c0.052,0.606,0.089,1.117,0.109,1.535c-0.021,0.334-0.141,0.632-0.36,0.893c-0.219,0.261-0.496,0.392-0.83,0.392
		c-0.125,0-0.271-0.031-0.438-0.094c-0.167-0.063-0.24-0.178-0.219-0.345l-0.094-25.59c0-0.292,0.063-0.506,0.188-0.642
		c0.125-0.135,0.282-0.208,0.47-0.219c0.188-0.01,0.387,0.026,0.596,0.11c0.208,0.083,0.396,0.188,0.563,0.313
		c0.021,0.919,0.031,1.973,0.031,3.164s0.005,2.391,0.016,3.602s0.042,2.38,0.094,3.508s0.151,2.088,0.298,2.882
		c1.022-0.438,2.067-0.809,3.132-1.112c1.065-0.302,2.03-0.658,2.897-1.065c0.866-0.407,1.582-0.929,2.146-1.566
		c0.563-0.637,0.877-1.498,0.939-2.584c0.042-0.564,0.063-1.065,0.063-1.503s-0.016-0.877-0.047-1.315s-0.094-0.903-0.188-1.394
		c-0.094-0.49-0.215-1.07-0.36-1.738c0-0.417,0.089-0.684,0.267-0.798c0.177-0.115,0.401-0.172,0.673-0.172
		c0.292,0,0.517,0.073,0.674,0.219c0.156,0.146,0.271,0.329,0.344,0.548s0.12,0.465,0.142,0.736
		c0.021,0.271,0.031,0.522,0.031,0.751c0.021,0.355,0.041,0.909,0.063,1.66c0.021,0.752,0.042,1.592,0.063,2.521
		s0.047,1.916,0.078,2.96s0.058,2.031,0.079,2.959c0.021,0.93,0.041,1.77,0.063,2.521c0.021,0.752,0.031,1.306,0.031,1.66
		c0.021,0.438,0.031,1.023,0.031,1.755c0,0.73,0,1.493,0,2.286c0,0.794-0.011,1.562-0.031,2.302
		c-0.021,0.741-0.042,1.331-0.063,1.77c-0.021,0.188-0.037,0.376-0.047,0.564c-0.012,0.188-0.043,0.365-0.095,0.532
		s-0.146,0.313-0.281,0.438c-0.137,0.125-0.34,0.219-0.611,0.282c-0.418-0.271-0.642-0.596-0.673-0.972s-0.058-0.783-0.079-1.222
		c0-0.25,0.005-0.704,0.017-1.362c0.01-0.657,0.016-1.414,0.016-2.271c0-0.855,0.005-1.759,0.016-2.709
		c0.01-0.95,0.016-1.849,0.016-2.694c0-0.845,0-1.597,0-2.255S117.163,14.464,117.143,14.214z"/>
	<path d="M132.081,28.811c-0.242,0-0.548-0.029-0.907-0.086l-0.165-0.159c-0.167-0.856-0.295-1.913-0.379-3.141
		c-0.083-1.219-0.146-2.56-0.188-3.985c-0.042-1.433-0.063-2.917-0.063-4.454c0-1.534-0.011-3.041-0.031-4.523
		c-0.021-1.482-0.047-2.886-0.078-4.211c-0.029-1.243-0.092-2.368-0.188-3.349c-0.416-0.047-0.837-0.071-1.253-0.071
		c-0.33,0-0.659,0.015-0.989,0.044c-0.811,0.073-1.617,0.161-2.419,0.265c-0.806,0.104-1.615,0.204-2.431,0.298
		c-0.493,0.057-0.993,0.086-1.487,0.086c-0.331,0-0.662-0.013-0.994-0.039c-0.247-0.022-0.5-0.078-0.754-0.167
		c-0.191-0.066-0.502-0.268-0.431-0.87c0.023-0.267,0.156-0.538,0.395-0.8c0.229-0.253,0.481-0.381,0.749-0.381l9.324-0.552
		c0.023-0.089,0.056-0.197,0.096-0.323c0.066-0.212,0.156-0.419,0.266-0.617c0.114-0.206,0.254-0.385,0.415-0.535
		c0.164-0.152,0.354-0.23,0.563-0.23c0.407,0.029,0.666,0.139,0.857,0.329c0.165,0.165,0.307,0.347,0.422,0.541l0.283,0.488
		c0.078,0.137,0.148,0.148,0.172,0.152c3.312-0.003,6.797-0.066,10.328-0.19c0.001,0,0.243,0.005,0.516,0.016
		c0.286,0.011,0.483,0.029,0.595,0.05l0.15,0.13c0.158,0.45-0.016,0.831-0.488,1.074c-0.409,0.21-0.974,0.366-1.724,0.474
		c-0.726,0.105-1.56,0.18-2.479,0.221c-0.92,0.042-1.835,0.073-2.744,0.094c-0.906,0.021-1.761,0.053-2.563,0.094
		c-0.713,0.037-1.294,0.091-1.729,0.161c-0.152,1.033-0.238,2.155-0.258,3.338c-0.021,1.229-0.016,2.533,0.016,3.875
		c0.03,1.319,0.088,2.687,0.171,4.064c0.083,1.378,0.162,2.736,0.235,4.073c0.074,1.358,0.121,2.668,0.142,3.893
		c0.021,1.253-0.012,2.438-0.095,3.526c0.091,0.447,0.162,1.133-0.3,1.313C132.502,28.784,132.318,28.811,132.081,28.811z"/>
	<path d="M130.266,4.724c-0.814-0.104-1.629-0.12-2.443-0.047c-0.813,0.073-1.623,0.162-2.427,0.266
		c-0.805,0.104-1.613,0.204-2.428,0.297c-0.814,0.094-1.629,0.11-2.443,0.047c-0.229-0.021-0.465-0.073-0.704-0.156
		c-0.24-0.083-0.34-0.303-0.298-0.658c0.021-0.229,0.136-0.459,0.345-0.689c0.208-0.229,0.428-0.333,0.657-0.313l9.428-0.564
		c0.021-0.104,0.063-0.255,0.126-0.454c0.063-0.198,0.146-0.392,0.25-0.58c0.104-0.188,0.229-0.349,0.376-0.485
		c0.146-0.135,0.313-0.193,0.501-0.172c0.271,0.021,0.485,0.11,0.643,0.267c0.156,0.156,0.286,0.324,0.392,0.501
		c0.104,0.178,0.198,0.34,0.281,0.485c0.084,0.146,0.188,0.23,0.313,0.25c3.361,0,6.817-0.063,10.367-0.188
		c0.063,0,0.229,0.005,0.501,0.016c0.271,0.011,0.459,0.026,0.564,0.047c0.125,0.355-0.006,0.632-0.392,0.83
		c-0.387,0.199-0.939,0.35-1.66,0.454s-1.54,0.178-2.459,0.219c-0.919,0.042-1.832,0.073-2.74,0.094
		c-0.908,0.021-1.765,0.053-2.568,0.094c-0.805,0.042-1.436,0.104-1.896,0.188c-0.167,1.086-0.261,2.255-0.281,3.508
		c-0.021,1.253-0.016,2.548,0.016,3.884c0.031,1.336,0.089,2.694,0.172,4.072s0.162,2.735,0.235,4.071
		c0.072,1.337,0.12,2.632,0.141,3.885c0.021,1.252-0.011,2.422-0.094,3.508c0.125,0.668,0.067,1.049-0.173,1.143
		c-0.24,0.095-0.694,0.09-1.362-0.016c-0.167-0.855-0.292-1.895-0.376-3.116c-0.083-1.222-0.146-2.547-0.188-3.978
		s-0.063-2.913-0.063-4.448s-0.011-3.043-0.031-4.526c-0.021-1.482-0.047-2.887-0.078-4.213
		C130.438,6.921,130.37,5.747,130.266,4.724z"/>
</g>
</svg>
