<?xml version="1.0" encoding="utf-8"?>
<!-- Generator: Adobe Illustrator 16.0.0, SVG Export Plug-In . SVG Version: 6.00 Build 0)  -->
<!DOCTYPE svg PUBLIC "-//W3C//DTD SVG 1.0//EN" "http://www.w3.org/TR/2001/REC-SVG-20010904/DTD/svg10.dtd">
<svg version="1.0" id="Layer_1" xmlns="http://www.w3.org/2000/svg" xmlns:xlink="http://www.w3.org/1999/xlink" x="0px" y="0px"
	 width="168.106px" height="41.603px" viewBox="0 0 168.106 41.603" enable-background="new 0 0 168.106 41.603"
	 xml:space="preserve">
<g>
	<path fill="#FFFFFF" d="M9.883,35.564c-0.517,0-1.384-0.248-1.384-1.912c-0.069-4.95-0.152-9.165-0.246-12.522
		c-0.094-3.339-0.176-6.045-0.246-8.119c-0.07-2.072-0.128-3.605-0.175-4.601C7.783,7.406,7.76,6.75,7.76,6.442
		c0-0.456,0.137-0.832,0.408-1.118c0.266-0.282,0.57-0.425,0.904-0.425c0.405,0.02,0.725,0.196,1.009,0.527
		c0.273,0.319,0.42,0.784,0.447,1.42l1.104,25.294L26.429,29c0.019,0,0.038,0,0.056,0c0.993,0,1.558,0.233,1.806,0.696
		c0.256,0.479,0.117,1.111-0.427,1.926l-0.25,0.17L9.966,35.555L9.883,35.564z"/>
	<path fill="#FFFFFF" d="M8.898,33.653c-0.07-5.015-0.153-9.193-0.246-12.533c-0.094-3.34-0.176-6.047-0.246-8.121
		S8.277,9.39,8.23,8.393C8.183,7.397,8.16,6.747,8.16,6.442c0-0.352,0.1-0.633,0.299-0.844c0.199-0.211,0.416-0.311,0.65-0.299
		C9.343,5.312,9.566,5.44,9.777,5.686s0.328,0.639,0.352,1.178l1.125,25.77l15.258-3.234c1.57,0,1.91,0.668,1.02,2.004L9.883,35.165
		C9.227,35.165,8.898,34.661,8.898,33.653z"/>
	<path fill="#FFFFFF" d="M45.125,35.933c-0.249-0.013-0.46-0.032-0.633-0.056l-0.342-0.357L43.3,26.889
		c-0.118,0.394-0.243,0.802-0.375,1.223c-0.381,1.213-0.876,2.374-1.474,3.45c-0.606,1.09-1.351,2.025-2.213,2.779
		c-0.903,0.789-2.003,1.188-3.269,1.188c-1.382-0.333-2.504-0.972-3.431-1.912c-0.906-0.918-1.683-2.042-2.308-3.342
		c-0.619-1.285-1.125-2.725-1.505-4.28c-0.378-1.546-0.67-3.146-0.87-4.756c-0.2-1.614-0.332-3.223-0.39-4.78
		c-0.059-1.568-0.083-3.023-0.07-4.326c0.012-1.313,0.047-2.461,0.106-3.413c0.056-0.916,0.107-1.577,0.154-1.986
		c-0.096-0.62,0.162-0.976,0.399-1.167c0.297-0.238,0.643-0.374,1.028-0.403c0.061-0.004,0.121-0.007,0.18-0.007
		c0.304,0,0.692,0.061,0.966,0.18C30.736,5.559,31,5.88,31,6.111v0.104c-1,3.408-0.8,6.454-0.812,9.053
		c-0.012,2.59,0.075,4.883,0.353,6.814c0.275,1.917,0.651,3.549,1.165,4.85s1.055,2.379,1.632,3.205
		c0.566,0.812,1.147,1.428,1.738,1.833c0.562,0.386,1.063,0.649,1.497,0.785c0.661-0.079,1.242-0.438,1.777-1.095
		c0.591-0.725,1.12-1.682,1.571-2.845c0.46-1.183,0.861-2.542,1.195-4.038c0.337-1.513,0.625-3.088,0.855-4.681
		c0.233-1.611,0.421-3.219,0.56-4.777c0.14-1.57,0.246-3.014,0.315-4.293c0.069-1.265,0.11-2.365,0.123-3.271
		c0.014-1.095-0.001-1.529-0.016-1.699l0.053-0.237c0.208-0.357,0.467-0.603,0.771-0.73c0.228-0.095,0.452-0.144,0.668-0.144
		c0.056,0,0.111,0.003,0.166,0.009c0.272,0.032,0.523,0.137,0.746,0.311c0.217,0.171,0.376,0.372,0.473,0.596l0.032,0.143
		c0.023,0.631-0.028,1.755-0.159,3.438c-0.128,1.637-0.21,3.722-0.245,6.198c-0.035,2.481,0.042,5.37,0.228,8.584
		c0.186,3.219,0.622,6.733,1.295,10.446c0.006,0.524-0.203,0.781-0.378,0.916c-0.205,0.158-0.448,0.26-0.723,0.306
		c-0.179,0.03-0.366,0.045-0.561,0.045L45.125,35.933z"/>
	<path fill="#FFFFFF" d="M42.543,27.993c-0.375,1.195-0.856,2.32-1.441,3.375c-0.586,1.055-1.295,1.946-2.127,2.672
		c-0.832,0.727-1.834,1.09-3.006,1.09c-1.219-0.304-2.268-0.902-3.146-1.793c-0.879-0.891-1.623-1.969-2.232-3.234
		c-0.61-1.266-1.102-2.666-1.477-4.201c-0.375-1.535-0.663-3.105-0.861-4.711c-0.199-1.605-0.329-3.187-0.387-4.746
		c-0.059-1.559-0.083-2.994-0.07-4.307c0.012-1.313,0.047-2.443,0.105-3.393c0.058-0.949,0.111-1.623,0.158-2.021
		c-0.07-0.375,0.012-0.656,0.246-0.844c0.234-0.188,0.504-0.293,0.809-0.316c0.304-0.023,0.592,0.023,0.861,0.141
		c0.269,0.118,0.416,0.27,0.439,0.457c-0.469,3.445-0.709,6.481-0.721,9.105c-0.012,2.625,0.123,4.917,0.404,6.873
		c0.281,1.957,0.686,3.604,1.213,4.939s1.09,2.432,1.688,3.287c0.598,0.856,1.213,1.5,1.846,1.934
		c0.633,0.434,1.195,0.721,1.688,0.861c0.796-0.07,1.506-0.486,2.127-1.248c0.621-0.761,1.166-1.746,1.635-2.953
		c0.469-1.207,0.873-2.572,1.213-4.096c0.339-1.523,0.627-3.094,0.861-4.711c0.234-1.617,0.422-3.217,0.563-4.799
		s0.246-3.018,0.316-4.307c0.07-1.289,0.111-2.385,0.123-3.287c0.012-0.902,0.005-1.482-0.018-1.74
		c0.164-0.281,0.357-0.469,0.58-0.563c0.223-0.093,0.434-0.128,0.633-0.105c0.199,0.023,0.381,0.1,0.545,0.229
		c0.164,0.129,0.281,0.276,0.352,0.439c0.023,0.61-0.03,1.74-0.158,3.393c-0.129,1.652-0.211,3.727-0.246,6.223
		s0.041,5.367,0.229,8.613c0.188,3.247,0.621,6.745,1.301,10.494c0,0.234-0.076,0.41-0.229,0.527
		c-0.153,0.117-0.334,0.193-0.545,0.229s-0.434,0.047-0.668,0.035c-0.234-0.012-0.434-0.03-0.598-0.053l-1.055-10.723
		C43.234,25.72,42.917,26.797,42.543,27.993z"/>
	<path fill="#FFFFFF" d="M51.566,35.564c-0.328,0-0.632-0.126-0.869-0.364c-0.269-0.268-0.34-0.668-0.21-1.188
		c0.048-0.3,0.381-0.521,1.266-0.811c0.646-0.211,1.452-0.464,2.416-0.758c0.958-0.292,2.021-0.631,3.19-1.017
		c1.153-0.38,2.281-0.819,3.354-1.303c1.063-0.48,2.03-1.018,2.873-1.6c0.769-0.53,1.345-1.116,1.715-1.745
		c-0.028-0.103-0.131-0.264-0.515-0.421c-0.486-0.199-1.143-0.368-1.954-0.503c-0.829-0.138-1.788-0.255-2.852-0.348
		c-1.072-0.093-2.197-0.224-3.345-0.389c-1.144-0.165-2.274-0.38-3.358-0.64c-1.107-0.265-2.109-0.638-2.98-1.11
		c-0.892-0.483-1.622-1.101-2.169-1.835c-0.566-0.758-0.853-1.708-0.853-2.823c0-1.059,0.242-2.147,0.719-3.237
		c0.469-1.069,1.094-2.12,1.859-3.123c0.762-1,1.648-1.953,2.636-2.833c0.985-0.879,2.027-1.661,3.096-2.327
		c1.076-0.669,2.154-1.201,3.204-1.583c1.072-0.389,2.088-0.586,3.02-0.586c0.228,0,0.468-0.005,0.719-0.017l0.17-0.004
		c0.227,0,0.437,0.022,0.626,0.067c0.285,0.068,0.522,0.212,0.706,0.43c0.191,0.228,0.288,0.545,0.288,0.944
		c0,0.889-0.308,1.544-0.917,1.95c-0.556,0.371-1.233,0.559-2.015,0.559l-0.124-0.02L59.814,8.46
		c-0.511,0.012-1.102,0.17-1.758,0.472c-0.708,0.326-1.433,0.772-2.156,1.325c-0.731,0.56-1.456,1.209-2.153,1.93
		c-0.698,0.72-1.323,1.472-1.858,2.236c-0.535,0.763-0.971,1.531-1.296,2.285c-0.316,0.731-0.477,1.394-0.477,1.968
		c0,0.691,0.214,1.236,0.653,1.665c0.471,0.461,1.109,0.839,1.895,1.123c0.814,0.294,1.763,0.518,2.82,0.666
		c1.085,0.152,2.188,0.286,3.309,0.402c1.128,0.118,2.239,0.247,3.332,0.388c1.105,0.143,2.102,0.342,2.961,0.593
		c0.894,0.26,1.629,0.629,2.185,1.097c0.608,0.512,0.916,1.201,0.916,2.046c0,0.793-0.313,1.587-0.931,2.359
		c-0.583,0.729-1.356,1.435-2.297,2.098c-0.928,0.655-2.008,1.271-3.208,1.829c-1.192,0.555-2.408,1.034-3.614,1.424
		c-1.206,0.391-2.4,0.696-3.548,0.909c-1.042,0.193-1.971,0.292-2.761,0.292L51.566,35.564z"/>
	<path fill="#FFFFFF" d="M50.875,34.11c0.023-0.141,0.357-0.316,1.002-0.527c0.645-0.211,1.447-0.462,2.408-0.756
		c0.961-0.293,2.027-0.633,3.199-1.02c1.172-0.387,2.303-0.826,3.393-1.318s2.068-1.037,2.936-1.635
		c0.867-0.598,1.5-1.26,1.898-1.986c0-0.375-0.258-0.668-0.773-0.879c-0.516-0.211-1.195-0.387-2.039-0.527
		s-1.805-0.258-2.883-0.352c-1.078-0.093-2.186-0.223-3.322-0.387c-1.137-0.164-2.245-0.375-3.322-0.633
		c-1.078-0.258-2.039-0.615-2.883-1.072s-1.524-1.031-2.039-1.723c-0.516-0.691-0.773-1.552-0.773-2.584
		c0-1.007,0.229-2.033,0.686-3.076c0.457-1.042,1.06-2.057,1.811-3.041c0.75-0.984,1.611-1.91,2.584-2.777
		c0.972-0.867,1.986-1.629,3.041-2.285c1.055-0.656,2.097-1.172,3.129-1.547c1.031-0.375,1.992-0.563,2.883-0.563
		c0.234,0,0.48-0.005,0.738-0.018c0.258-0.012,0.486,0.006,0.686,0.053c0.199,0.047,0.363,0.146,0.492,0.299
		c0.128,0.153,0.193,0.381,0.193,0.686c0,0.75-0.246,1.289-0.738,1.617c-0.492,0.329-1.09,0.492-1.793,0.492l-1.512-0.492
		c-0.586,0-1.248,0.17-1.986,0.51c-0.738,0.34-1.482,0.797-2.232,1.371c-0.75,0.575-1.482,1.23-2.197,1.969
		c-0.715,0.738-1.348,1.5-1.898,2.285c-0.551,0.786-0.997,1.57-1.336,2.355c-0.34,0.786-0.51,1.494-0.51,2.127
		c0,0.797,0.258,1.447,0.773,1.951c0.515,0.504,1.195,0.909,2.039,1.213c0.844,0.305,1.811,0.533,2.9,0.686
		c1.09,0.153,2.197,0.287,3.322,0.404c1.125,0.118,2.232,0.246,3.322,0.387s2.057,0.334,2.9,0.58s1.523,0.586,2.039,1.02
		c0.515,0.434,0.773,1.014,0.773,1.74c0,0.703-0.281,1.406-0.844,2.109s-1.301,1.377-2.215,2.021
		c-0.914,0.645-1.963,1.243-3.146,1.793c-1.184,0.551-2.373,1.02-3.568,1.406s-2.361,0.686-3.498,0.896
		c-1.137,0.211-2.115,0.304-2.936,0.281c-0.234,0-0.434-0.082-0.598-0.246C50.816,34.755,50.781,34.485,50.875,34.11z"/>
	<path fill="#FFFFFF" d="M70.211,35.951c-0.191,0-0.397-0.043-0.633-0.131c-0.361-0.135-0.549-0.438-0.502-0.811L68.967,6.338
		c0-0.431,0.106-0.75,0.316-0.979C69.493,5.133,69.77,5,70.083,5c0.008,0,0.016,0,0.024,0c0.32,0,0.565,0.036,0.815,0.136
		c0.266,0.106,0.509,0.235,0.725,0.396l0.16,0.308c0.023,1.034,0.035,2.218,0.035,3.558c0,1.335,0.005,2.681,0.018,4.039
		c0.012,1.348,0.047,2.667,0.105,3.922c0.047,1.015,0.129,1.916,0.246,2.688c1.011-0.413,2.05-0.771,3.095-1.069
		c1.167-0.331,2.24-0.726,3.191-1.172c0.919-0.433,1.686-0.991,2.278-1.661c0.569-0.643,0.891-1.537,0.955-2.658
		c0.046-0.628,0.07-1.181,0.07-1.665c0-0.483-0.018-0.965-0.052-1.448c-0.034-0.474-0.103-0.985-0.205-1.518
		c-0.104-0.547-0.239-1.194-0.402-1.941c-0.009-0.705,0.148-1.107,0.472-1.317c0.265-0.171,0.592-0.257,0.973-0.257
		c0.431,0,0.776,0.119,1.028,0.353c0.224,0.209,0.39,0.472,0.494,0.781C84.2,6.75,84.26,7.06,84.286,7.396
		c0.024,0.316,0.036,0.607,0.036,0.875c0.022,0.378,0.047,1.003,0.07,1.852c0.023,0.845,0.047,1.789,0.07,2.833
		c0.023,1.042,0.053,2.148,0.088,3.319c0.035,1.174,0.064,2.282,0.088,3.326c0.023,1.042,0.047,1.985,0.07,2.828
		c0.023,0.849,0.146,1.474,0.146,1.875C84.877,24.779,85,25.442,85,26.27v2.566c0,0.895-0.123,1.76-0.146,2.595
		c-0.023,0.835-0.104,1.5-0.126,1.994c-0.024,0.229-0.069,0.433-0.08,0.636c-0.014,0.243-0.069,0.477-0.137,0.694
		c-0.08,0.255-0.23,0.479-0.434,0.668c-0.207,0.19-0.494,0.325-0.871,0.412l-0.309-0.054c-0.576-0.373-0.892-0.841-0.938-1.392
		c-0.036-0.426-0.066-0.888-0.089-1.386c0-0.301,0.004-0.813,0.017-1.555c0.012-0.736,0.018-1.583,0.018-2.542
		c0-0.962,0.036-1.977,0.048-3.045C81.964,24.796,82,23.79,82,22.842v-2.531c0-0.351-0.033-0.648-0.038-0.894
		c-0.146,0.065-0.325,0.134-0.512,0.21c-0.496,0.201-1.077,0.419-1.727,0.655l-2.043,0.739c-0.713,0.257-1.392,0.508-2.034,0.753
		c-0.644,0.246-1.217,0.468-1.719,0.667c-0.583,0.23-0.835,0.376-0.945,0.458c-0.366,0.265-0.631,0.625-0.816,1.106
		c-0.2,0.521-0.346,1.118-0.434,1.774c-0.091,0.67-0.137,1.397-0.137,2.161c0,0.781,0.023,1.547,0.07,2.277
		c0.046,0.748,0.099,1.459,0.157,2.136c0.059,0.686,0.101,1.264,0.124,1.737c-0.029,0.505-0.196,0.921-0.498,1.279
		C71.129,35.75,70.701,35.951,70.211,35.951z"/>
	<path fill="#FFFFFF" d="M82.305,18.782c-0.188,0.118-0.527,0.276-1.02,0.475c-0.492,0.199-1.061,0.417-1.705,0.65
		c-0.645,0.234-1.324,0.48-2.039,0.738c-0.715,0.258-1.395,0.51-2.039,0.756c-0.645,0.246-1.219,0.469-1.723,0.668
		c-0.504,0.199-0.85,0.369-1.037,0.51c-0.422,0.305-0.738,0.733-0.949,1.283c-0.211,0.551-0.364,1.172-0.457,1.863
		c-0.094,0.691-0.141,1.43-0.141,2.215c0,0.786,0.023,1.553,0.07,2.303c0.047,0.75,0.1,1.465,0.158,2.145
		c0.058,0.68,0.1,1.254,0.123,1.723c-0.023,0.375-0.158,0.709-0.404,1.002s-0.557,0.439-0.932,0.439
		c-0.141,0-0.305-0.035-0.492-0.105c-0.188-0.07-0.27-0.199-0.246-0.387L69.367,6.336c0-0.328,0.07-0.568,0.211-0.721
		c0.141-0.152,0.316-0.234,0.527-0.246c0.211-0.012,0.434,0.03,0.668,0.123c0.234,0.094,0.445,0.211,0.633,0.352
		c0.023,1.032,0.035,2.215,0.035,3.551s0.005,2.684,0.018,4.043c0.012,1.359,0.047,2.672,0.105,3.938
		c0.058,1.266,0.17,2.344,0.334,3.234c1.148-0.492,2.32-0.908,3.516-1.248c1.195-0.339,2.279-0.738,3.252-1.195
		c0.972-0.457,1.775-1.042,2.408-1.758c0.633-0.715,0.984-1.682,1.055-2.9c0.047-0.633,0.07-1.195,0.07-1.688
		s-0.018-0.984-0.053-1.477s-0.105-1.014-0.211-1.564c-0.105-0.55-0.241-1.201-0.404-1.951c0-0.469,0.1-0.768,0.299-0.896
		c0.199-0.128,0.451-0.193,0.756-0.193c0.328,0,0.58,0.083,0.756,0.246c0.176,0.164,0.304,0.369,0.387,0.615
		c0.082,0.246,0.135,0.522,0.158,0.826c0.023,0.305,0.035,0.586,0.035,0.844c0.023,0.399,0.047,1.02,0.07,1.863
		c0.023,0.844,0.047,1.788,0.07,2.83c0.023,1.043,0.053,2.15,0.088,3.322c0.035,1.172,0.064,2.28,0.088,3.322
		c0.023,1.043,0.047,1.986,0.07,2.83c0.023,0.844,0.035,1.465,0.035,1.863c0.023,0.492,0.035,1.148,0.035,1.969
		c0,0.821,0,1.676,0,2.566c0,0.891-0.012,1.752-0.035,2.584c-0.023,0.832-0.047,1.494-0.07,1.986
		c-0.023,0.211-0.041,0.422-0.053,0.633c-0.012,0.211-0.047,0.41-0.105,0.598c-0.059,0.188-0.164,0.352-0.316,0.492
		c-0.153,0.141-0.381,0.246-0.686,0.316c-0.469-0.304-0.721-0.668-0.756-1.09s-0.065-0.879-0.088-1.371
		c0-0.281,0.005-0.791,0.018-1.529c0.012-0.738,0.018-1.587,0.018-2.549c0-0.961,0.005-1.974,0.018-3.041
		c0.012-1.066,0.018-2.074,0.018-3.023s0-1.793,0-2.531S82.328,19.063,82.305,18.782z"/>
	<path fill="#FFFFFF" d="M107.289,35.564c-0.328,0-0.632-0.126-0.869-0.364c-0.269-0.268-0.34-0.668-0.21-1.188
		c0.048-0.3,0.381-0.521,1.266-0.811c0.646-0.211,1.452-0.464,2.416-0.758c0.958-0.292,2.021-0.631,3.19-1.017
		c1.153-0.38,2.281-0.819,3.354-1.303c1.063-0.48,2.03-1.018,2.873-1.6c0.769-0.53,1.345-1.116,1.715-1.745
		c-0.028-0.103-0.131-0.264-0.515-0.421c-0.486-0.199-1.143-0.368-1.954-0.503c-0.829-0.138-1.788-0.255-2.852-0.348
		c-1.072-0.093-2.197-0.224-3.345-0.389c-1.144-0.165-2.274-0.38-3.358-0.64c-1.107-0.265-2.109-0.638-2.98-1.11
		c-0.892-0.483-1.622-1.101-2.169-1.835c-0.566-0.758-0.853-1.708-0.853-2.823c0-1.059,0.242-2.147,0.719-3.237
		c0.469-1.069,1.094-2.12,1.859-3.123c0.762-1,1.648-1.953,2.636-2.833c0.985-0.879,2.027-1.661,3.096-2.327
		c1.076-0.669,2.154-1.201,3.204-1.583c1.072-0.389,2.088-0.586,3.02-0.586c0.228,0,0.468-0.005,0.719-0.017l0.17-0.004
		c0.227,0,0.437,0.022,0.626,0.067c0.285,0.068,0.522,0.212,0.706,0.43c0.191,0.228,0.288,0.545,0.288,0.944
		c0,0.889-0.308,1.544-0.917,1.95c-0.556,0.371-1.233,0.559-2.015,0.559l-0.124-0.02l-1.449-0.472
		c-0.511,0.012-1.102,0.17-1.758,0.472c-0.708,0.326-1.433,0.772-2.156,1.325c-0.731,0.56-1.456,1.209-2.153,1.93
		c-0.698,0.72-1.323,1.472-1.858,2.236c-0.535,0.763-0.971,1.531-1.296,2.285c-0.316,0.731-0.477,1.394-0.477,1.968
		c0,0.691,0.214,1.236,0.653,1.665c0.471,0.461,1.109,0.839,1.895,1.123c0.814,0.294,1.763,0.518,2.82,0.666
		c1.085,0.152,2.188,0.286,3.309,0.402c1.128,0.118,2.239,0.247,3.332,0.388c1.105,0.143,2.102,0.342,2.961,0.593
		c0.894,0.26,1.629,0.629,2.185,1.097c0.608,0.512,0.916,1.201,0.916,2.046c0,0.793-0.313,1.587-0.931,2.359
		c-0.583,0.729-1.356,1.435-2.297,2.098c-0.928,0.655-2.008,1.271-3.208,1.829c-1.192,0.555-2.408,1.034-3.614,1.424
		c-1.206,0.391-2.4,0.696-3.548,0.909c-1.042,0.193-1.971,0.292-2.761,0.292L107.289,35.564z"/>
	<path fill="#FFFFFF" d="M106.598,34.11c0.023-0.141,0.357-0.316,1.002-0.527c0.645-0.211,1.447-0.462,2.408-0.756
		c0.961-0.293,2.027-0.633,3.199-1.02c1.172-0.387,2.303-0.826,3.393-1.318s2.068-1.037,2.936-1.635
		c0.867-0.598,1.5-1.26,1.898-1.986c0-0.375-0.258-0.668-0.773-0.879c-0.516-0.211-1.195-0.387-2.039-0.527
		s-1.805-0.258-2.883-0.352c-1.078-0.093-2.186-0.223-3.322-0.387c-1.137-0.164-2.245-0.375-3.322-0.633
		c-1.078-0.258-2.039-0.615-2.883-1.072s-1.524-1.031-2.039-1.723c-0.516-0.691-0.773-1.552-0.773-2.584
		c0-1.007,0.229-2.033,0.686-3.076c0.457-1.042,1.06-2.057,1.811-3.041c0.75-0.984,1.611-1.91,2.584-2.777
		c0.972-0.867,1.986-1.629,3.041-2.285c1.055-0.656,2.097-1.172,3.129-1.547c1.031-0.375,1.992-0.563,2.883-0.563
		c0.234,0,0.48-0.005,0.738-0.018c0.258-0.012,0.486,0.006,0.686,0.053c0.199,0.047,0.363,0.146,0.492,0.299
		c0.128,0.153,0.193,0.381,0.193,0.686c0,0.75-0.246,1.289-0.738,1.617c-0.492,0.329-1.09,0.492-1.793,0.492l-1.512-0.492
		c-0.586,0-1.248,0.17-1.986,0.51c-0.738,0.34-1.482,0.797-2.232,1.371c-0.75,0.575-1.482,1.23-2.197,1.969
		c-0.715,0.738-1.348,1.5-1.898,2.285c-0.551,0.786-0.997,1.57-1.336,2.355c-0.34,0.786-0.51,1.494-0.51,2.127
		c0,0.797,0.258,1.447,0.773,1.951c0.515,0.504,1.195,0.909,2.039,1.213c0.844,0.305,1.811,0.533,2.9,0.686
		c1.09,0.153,2.197,0.287,3.322,0.404c1.125,0.118,2.232,0.246,3.322,0.387s2.057,0.334,2.9,0.58s1.523,0.586,2.039,1.02
		c0.515,0.434,0.773,1.014,0.773,1.74c0,0.703-0.281,1.406-0.844,2.109s-1.301,1.377-2.215,2.021
		c-0.914,0.645-1.963,1.243-3.146,1.793c-1.184,0.551-2.373,1.02-3.568,1.406s-2.361,0.686-3.498,0.896
		c-1.137,0.211-2.115,0.304-2.936,0.281c-0.234,0-0.434-0.082-0.598-0.246C106.539,34.755,106.504,34.485,106.598,34.11z"/>
	<path fill="#FFFFFF" d="M128.125,35.546c-0.253-0.014-0.507-0.07-0.755-0.167c-0.282-0.109-0.486-0.248-0.625-0.423l-0.086-0.249
		c0-2.421,0.042-4.744,0.123-6.906c0.082-2.179,0.158-4.265,0.229-6.257c0.07-1.989,0.117-3.901,0.141-5.739
		c0.019-1.529-0.019-3.035-0.114-4.489l-0.231,0.249c-0.167,0.18-0.341,0.341-0.52,0.481c-0.239,0.188-0.458,0.279-0.669,0.279
		c-0.293,0-0.807-0.12-1.032-0.346c-0.226-0.225-0.585-0.523-0.585-0.862v-0.105c0-0.088,0.263-0.176,0.316-0.283
		c0.24-0.31,0.599-0.701,0.879-1.238c0.296-0.569,0.677-1.14,1.021-1.709c0.339-0.563,0.708-1.075,1.034-1.523
		c0.406-0.556,0.786-0.814,1.164-0.814c0.342,0,0.623,0.098,0.817,0.292c0.146,0.147,0.275,0.323,0.377,0.525
		c0.085,0.171,0.172,0.353,0.257,0.546c0.021,0.048,0.048,0.092,0.081,0.132c0.747-0.42,1.562-0.791,2.424-1.103
		c0.961-0.348,1.941-0.592,2.913-0.724c0.597-0.081,1.19-0.122,1.763-0.122c0.367,0,0.729,0.017,1.087,0.049
		c0.935,0.087,1.803,0.318,2.579,0.688c0.791,0.376,1.471,0.923,2.023,1.626c0.555,0.708,0.925,1.596,1.1,2.642
		c-0.02,1.431-0.419,2.72-1.184,3.904c-0.743,1.151-1.667,2.214-2.744,3.16c-1.066,0.936-2.234,1.779-3.471,2.505
		c-1.213,0.712-2.356,1.343-3.396,1.874c-1.038,0.53-1.886,0.949-2.545,1.255c-0.397,0.185-0.593,0.293-0.688,0.352l-0.452,11.606
		c0,0.325-0.166,0.595-0.467,0.746c-0.198,0.1-0.421,0.15-0.661,0.15L128.125,35.546z M130,19.854c1-0.391,1.981-0.838,3.068-1.332
		c1.262-0.573,2.413-1.242,3.516-1.988c1.089-0.737,2.041-1.59,2.872-2.535c0.791-0.899,1.329-1.946,1.622-3.113
		c-0.181-1.193-0.641-2.028-1.392-2.553c-0.784-0.547-1.625-0.831-2.721-0.842l0.036-0.4v0.4c-1,0-2.319,0.24-3.562,0.713
		C132.218,8.67,131,9.313,130,10.118V19.854z"/>
	<path fill="#FFFFFF" d="M127.059,34.708c0-2.414,0.041-4.711,0.123-6.891c0.082-2.18,0.158-4.266,0.229-6.258
		c0.07-1.992,0.117-3.908,0.141-5.748c0.023-1.84-0.035-3.626-0.176-5.361c-0.118,0.07-0.252,0.188-0.404,0.352
		c-0.153,0.164-0.305,0.329-0.457,0.492c-0.153,0.164-0.311,0.311-0.475,0.439c-0.164,0.129-0.305,0.193-0.422,0.193
		c-0.188,0-0.357-0.076-0.51-0.229c-0.153-0.152-0.229-0.346-0.229-0.58v-0.105c0-0.023,0.012-0.058,0.035-0.105
		c0.211-0.258,0.462-0.668,0.756-1.23c0.293-0.563,0.609-1.125,0.949-1.688c0.339-0.563,0.668-1.06,0.984-1.494
		c0.316-0.434,0.592-0.65,0.826-0.65c0.234,0,0.41,0.059,0.527,0.176c0.117,0.118,0.216,0.258,0.299,0.422
		c0.082,0.164,0.164,0.34,0.246,0.527c0.082,0.188,0.216,0.34,0.404,0.457c0.796-0.469,1.664-0.873,2.602-1.213
		c0.937-0.339,1.881-0.574,2.83-0.703c0.949-0.128,1.869-0.152,2.76-0.07c0.891,0.083,1.705,0.299,2.443,0.65
		s1.365,0.856,1.881,1.512c0.515,0.656,0.855,1.477,1.02,2.461c-0.023,1.289-0.399,2.496-1.125,3.621
		c-0.727,1.125-1.617,2.15-2.672,3.076c-1.055,0.926-2.192,1.746-3.41,2.461c-1.219,0.715-2.344,1.336-3.375,1.863
		c-1.032,0.527-1.875,0.944-2.531,1.248c-0.656,0.305-0.961,0.492-0.914,0.563l-0.457,11.742c0,0.188-0.083,0.322-0.246,0.404
		c-0.164,0.083-0.352,0.118-0.563,0.105c-0.211-0.012-0.422-0.058-0.633-0.141C127.305,34.924,127.152,34.825,127.059,34.708z
		 M129.414,20.434c1.195-0.445,2.438-0.961,3.727-1.547c1.289-0.585,2.496-1.26,3.621-2.021c1.125-0.761,2.115-1.629,2.971-2.602
		c0.855-0.972,1.436-2.092,1.74-3.357c-0.188-1.336-0.709-2.303-1.564-2.9c-0.856-0.598-1.875-0.902-3.059-0.914
		c-1.184-0.012-2.438,0.234-3.762,0.738c-1.324,0.504-2.549,1.201-3.674,2.092V20.434z"/>
	<path fill="#FFFFFF" d="M141.506,36.531c-0.142,0-0.282-0.028-0.416-0.083c-0.383-0.159-0.85-0.48-1.428-0.982l-0.12-0.418
		c0.164-0.538,0.427-1.427,0.79-2.668c0.36-1.232,0.838-3.019,1.42-5.313c0.585-2.307,1.305-5.24,2.161-8.801
		c0.851-3.543,1.862-7.965,3.004-13.142l0.048-0.12c0.191-0.319,0.467-0.537,0.819-0.649c0.219-0.07,0.442-0.105,0.663-0.105
		c0.096,0,0.191,0.007,0.286,0.02c0.323,0.044,0.603,0.151,0.833,0.319c0.318,0.233,0.392,0.502,0.396,0.692l6.753,16.422
		l3.238-0.984l0.116-0.017c0.394,0,0.736,0.111,1.019,0.33c0.296,0.23,0.47,0.532,0.504,0.874c0.033,0.333-0.074,0.677-0.316,1.024
		c-0.237,0.34-0.634,0.609-1.181,0.799c-0.189,0.071-0.447,0.151-0.766,0.237c-0.309,0.083-0.619,0.161-0.928,0.232
		c-0.27,0.063-0.501,0.125-0.694,0.187l3.792,10.111l-0.003,0.29c-0.042,0.105-0.083,0.236-0.125,0.393
		c-0.072,0.265-0.215,0.479-0.428,0.639c-0.176,0.132-0.403,0.199-0.675,0.199c-0.077,0-0.159-0.005-0.248-0.016
		c-0.339-0.042-0.78-0.227-1.349-0.563l-0.169-0.199l-3.913-10.002c-0.437,0.111-0.944,0.218-1.516,0.319
		c-0.729,0.129-1.493,0.259-2.292,0.388c-0.79,0.127-1.585,0.279-2.387,0.453c-0.786,0.171-1.518,0.384-2.175,0.634
		c-0.64,0.243-1.185,0.537-1.62,0.874c-0.392,0.304-0.62,0.655-0.695,1.073c-0.045,0.316-0.134,0.858-0.263,1.613
		c-0.128,0.749-0.251,1.497-0.368,2.244c-0.141,0.895-0.306,1.858-0.494,2.893l-0.111,0.211
		C142.277,36.332,141.886,36.531,141.506,36.531z M145.575,24.133c0.295-0.083,0.632-0.168,1.01-0.256l2.287-0.528l2.479-0.563
		c0.657-0.148,1.272-0.305,1.834-0.469l-4.354-11.855L145.575,24.133z"/>
	<path fill="#FFFFFF" d="M139.926,35.165c0.164-0.539,0.427-1.429,0.791-2.672c0.363-1.242,0.838-3.018,1.424-5.326
		c0.585-2.308,1.306-5.244,2.162-8.807c0.855-3.563,1.857-7.945,3.006-13.148c0.141-0.234,0.339-0.392,0.598-0.475
		c0.258-0.082,0.515-0.105,0.773-0.07c0.258,0.035,0.475,0.118,0.65,0.246c0.176,0.129,0.251,0.276,0.229,0.439l6.926,16.84
		l3.586-1.09c0.304,0,0.563,0.083,0.773,0.246c0.211,0.164,0.328,0.364,0.352,0.598c0.023,0.234-0.059,0.487-0.246,0.756
		c-0.188,0.27-0.516,0.487-0.984,0.65c-0.188,0.07-0.434,0.146-0.738,0.229c-0.305,0.083-0.61,0.158-0.914,0.229
		c-0.305,0.07-0.563,0.141-0.773,0.211s-0.316,0.141-0.316,0.211l3.902,10.406c-0.047,0.118-0.094,0.264-0.141,0.439
		c-0.047,0.176-0.141,0.316-0.281,0.422s-0.352,0.141-0.633,0.105s-0.68-0.206-1.195-0.51l-4.043-10.336
		c-0.492,0.141-1.102,0.276-1.828,0.404c-0.727,0.129-1.489,0.258-2.285,0.387c-0.797,0.129-1.6,0.281-2.408,0.457
		s-1.553,0.393-2.232,0.65c-0.68,0.258-1.254,0.568-1.723,0.932c-0.469,0.364-0.75,0.803-0.844,1.318
		c-0.047,0.329-0.135,0.867-0.264,1.617c-0.129,0.75-0.252,1.5-0.369,2.25c-0.141,0.891-0.305,1.852-0.492,2.883
		c-0.422,0.422-0.803,0.563-1.143,0.422C140.904,35.938,140.465,35.633,139.926,35.165z M148.75,9.079l-3.727,15.645
		c0.398-0.141,0.949-0.293,1.652-0.457c0.703-0.164,1.464-0.339,2.285-0.527c0.82-0.188,1.646-0.375,2.479-0.563
		c0.832-0.188,1.587-0.387,2.268-0.598L148.75,9.079z"/>
</g>
</svg>
