<?xml version="1.0" encoding="utf-8"?>
<!-- Generator: Adobe Illustrator 16.0.0, SVG Export Plug-In . SVG Version: 6.00 Build 0)  -->
<!DOCTYPE svg PUBLIC "-//W3C//DTD SVG 1.0//EN" "http://www.w3.org/TR/2001/REC-SVG-20010904/DTD/svg10.dtd">
<svg version="1.0" id="Layer_1" xmlns="http://www.w3.org/2000/svg" xmlns:xlink="http://www.w3.org/1999/xlink" x="0px" y="0px"
	 width="110.611px" height="110.453px" viewBox="0 0 110.611 110.453" enable-background="new 0 0 110.611 110.453"
	 xml:space="preserve">
<g>
	<g>
		<path fill="#101111" d="M110.088,55.543c0,30.12-24.42,54.543-54.539,54.543C25.422,110.086,1,85.663,1,55.543
			C1,25.42,25.422,1,55.549,1C85.668,1,110.088,25.42,110.088,55.543z"/>
	</g>
	<g opacity="0.7">
		<path fill="#FFFFFF" d="M55.549,99.424c-24.198,0-43.887-19.686-43.887-43.881c0-24.199,19.688-43.886,43.887-43.886
			c24.196,0,43.882,19.688,43.882,43.886C99.43,79.738,79.745,99.424,55.549,99.424z M55.549,12.157
			c-23.923,0-43.387,19.463-43.387,43.386c0,23.92,19.463,43.381,43.387,43.381c23.92,0,43.382-19.461,43.382-43.381
			C98.93,31.62,79.469,12.157,55.549,12.157z"/>
	</g>
	<g>
		<path fill="#FFFFFF" d="M31.356,60.311V46.406h5.273c1.477,0,2.584,0.328,3.322,0.984s1.107,1.553,1.107,2.689
			c0,0.68-0.158,1.263-0.475,1.749s-0.732,0.864-1.248,1.134c0.586,0.211,1.102,0.606,1.547,1.187s0.668,1.286,0.668,2.118
			c0,1.16-0.372,2.124-1.116,2.892s-1.784,1.151-3.12,1.151H31.356z M33.677,52.189h2.725c0.668,0,1.213-0.161,1.635-0.483
			s0.633-0.806,0.633-1.45c0-0.574-0.179-1.028-0.536-1.362s-0.911-0.501-1.661-0.501h-2.795V52.189z M33.677,58.342h3.234
			c0.621,0,1.151-0.182,1.591-0.545s0.659-0.873,0.659-1.529c0-0.621-0.202-1.131-0.606-1.529s-0.97-0.598-1.696-0.598h-3.182
			V58.342z"/>
		<path fill="#FFFFFF" d="M43.538,60.311V50.168h2.145v1.09c0.223-0.375,0.542-0.703,0.958-0.984s0.911-0.422,1.485-0.422
			c0.539,0,0.979,0.076,1.318,0.229v2.021c-0.445-0.141-0.885-0.211-1.318-0.211c-0.762,0-1.345,0.296-1.749,0.888
			s-0.606,1.38-0.606,2.364v5.168H43.538z"/>
		<path fill="#FFFFFF" d="M49.919,57.656c0-1.91,1.418-3.076,4.254-3.498c1.031-0.152,1.758-0.293,2.18-0.422v-0.545
			c0-0.492-0.176-0.879-0.527-1.16s-0.82-0.422-1.406-0.422c-1.113,0-2.074,0.457-2.883,1.371l-1.354-1.16
			c0.527-0.621,1.157-1.104,1.89-1.45s1.503-0.519,2.312-0.519c1.512,0,2.59,0.366,3.234,1.099s0.967,1.755,0.967,3.067v6.293
			h-2.162v-1.266c-0.211,0.434-0.577,0.806-1.099,1.116s-1.134,0.466-1.837,0.466c-1.113,0-1.986-0.275-2.619-0.826
			S49.919,58.535,49.919,57.656z M52.169,57.463c0,0.375,0.149,0.688,0.448,0.94s0.694,0.378,1.187,0.378
			c0.703,0,1.304-0.234,1.802-0.703s0.747-1.084,0.747-1.846v-0.932c-0.539,0.129-1.189,0.252-1.951,0.369
			C52.913,55.904,52.169,56.502,52.169,57.463z"/>
		<path fill="#FFFFFF" d="M60.87,60.311V50.168h2.162v1.283h0.018c0.176-0.375,0.501-0.735,0.976-1.081s1.087-0.519,1.837-0.519
			c1.008,0,1.811,0.311,2.408,0.932s0.896,1.623,0.896,3.006v6.521h-2.232v-6.223c0-1.559-0.527-2.338-1.582-2.338
			c-0.645,0-1.181,0.258-1.608,0.773s-0.642,1.154-0.642,1.916v5.871H60.87z"/>
		<path fill="#FFFFFF" d="M70.872,55.23c0-1.664,0.407-2.977,1.222-3.938s1.849-1.441,3.103-1.441c0.598,0,1.116,0.144,1.556,0.431
			s0.776,0.624,1.011,1.011v-5.344h2.215v14.361h-2.145v-1.318c-0.211,0.445-0.56,0.829-1.046,1.151s-1.022,0.483-1.608,0.483
			c-0.527,0-1.037-0.1-1.529-0.299s-0.952-0.504-1.38-0.914s-0.768-0.976-1.02-1.696S70.872,56.168,70.872,55.23z M73.157,55.23
			c0,1.102,0.214,1.96,0.642,2.575s0.993,0.923,1.696,0.923c0.68,0,1.233-0.313,1.661-0.94s0.642-1.479,0.642-2.558
			c0-1.043-0.208-1.884-0.624-2.522s-0.976-0.958-1.679-0.958c-0.738,0-1.313,0.316-1.723,0.949S73.157,54.176,73.157,55.23z"/>
	</g>
</g>
</svg>
