<?xml version="1.0" encoding="utf-8"?>
<!-- Generator: Adobe Illustrator 16.0.0, SVG Export Plug-In . SVG Version: 6.00 Build 0)  -->
<!DOCTYPE svg PUBLIC "-//W3C//DTD SVG 1.0//EN" "http://www.w3.org/TR/2001/REC-SVG-20010904/DTD/svg10.dtd">
<svg version="1.0" id="Layer_1" xmlns="http://www.w3.org/2000/svg" xmlns:xlink="http://www.w3.org/1999/xlink" x="0px" y="0px"
	 width="153.879px" height="162px" viewBox="0 35.293 153.879 162" enable-background="new 0 35.293 153.879 162"
	 xml:space="preserve">
<g>
	<g>
		<g>
			<g>
				<g>
					<g>
						<path fill="#121212" d="M127.345,189.973c0.317,0.135,0.272-0.104,0.334-0.121
							C127.122,189.695,127.34,190.027,127.345,189.973z"/>
						<polygon fill="#121212" points="121.842,188.439 121.967,188.396 121.107,188.294 						"/>
						<path fill="#121212" d="M116.874,186.525c0.338,0.518,1.818,0.646,2.658,1.104l0.117,0.133l0.502-0.115
							C119.06,187.275,117.592,186.917,116.874,186.525z"/>
						<path fill="#121212" d="M114.52,184.766c0.109,0.192-0.613-0.117,0.598,0.284c-0.05-0.04-0.066-0.054-0.098-0.077
							C114.913,184.932,114.766,184.873,114.52,184.766z"/>
						<path fill="#121212" d="M115.02,184.973C115.543,185.17,114.722,184.729,115.02,184.973L115.02,184.973z"/>
						<path fill="#121212" d="M112.59,184.083l0.729,0.162c-0.11-0.136-0.713-0.397-0.465-0.361
							C112.129,183.663,112.243,183.797,112.59,184.083z"/>
						<path fill="#121212" d="M111.845,184.063l0.374,0.094C112.17,184.1,112.081,184.051,111.845,184.063z"/>
						<path fill="#121212" d="M113.012,184.357l-0.793-0.201c0.076,0.094,0.044,0.205,0.359,0.103
							C112.478,184.332,112.665,184.298,113.012,184.357z"/>
						<path fill="#121212" d="M113.417,184.581c0.354,0.228,0.834,0.47,0.1,0.312C114.847,185.368,114.745,185.061,113.417,184.581z
							"/>
						<path fill="#121212" d="M116.485,186.77l0.479,0.301l0.49,0.063C117.209,187.102,116.495,186.652,116.485,186.77z"/>
						<path fill="#121212" d="M108.417,182.162c-0.071,0.052,0.15,0.281,0.164,0.395l0.535,0.131
							C108.877,182.529,108.407,182.279,108.417,182.162z"/>
						<path fill="#121212" d="M108.581,182.557l-0.803-0.195C108.443,182.656,108.59,182.65,108.581,182.557z"/>
						<polygon fill="#121212" points="111.573,184.379 112.918,184.629 111.333,184.285 						"/>
						<polygon fill="#121212" points="105.559,180.939 106.051,180.959 105.191,180.88 						"/>
						<path fill="#121212" d="M103.654,180.146c0.371,0.004-0.331-0.412,0.036-0.351c-0.523-0.198-1.011-0.278-1.449-0.351
							C102.685,179.574,103.122,179.788,103.654,180.146z"/>
						<path fill="#121212" d="M101.514,179.305c0.223,0.061,0.465,0.1,0.729,0.143C102.004,179.379,101.767,179.326,101.514,179.305
							z"/>
						<path fill="#121212" d="M106.515,181.784c-0.04-0.065-0.104-0.226-0.505-0.451l0.211,0.321
							C106.311,181.695,106.411,181.738,106.515,181.784z"/>
						<path fill="#121212" d="M106.229,181.666l-0.008-0.012c-0.317-0.141-0.538-0.239-0.633-0.281
							C105.668,181.41,105.862,181.498,106.229,181.666z"/>
						<path fill="#121212" d="M106.588,181.816c-0.026-0.012-0.047-0.021-0.073-0.032
							C106.536,181.816,106.549,181.83,106.588,181.816z"/>
						<path fill="#121212" d="M109.668,183.387c-0.488-0.07-1.461-0.341-0.637,0.202
							C109.405,183.585,108.933,183.277,109.668,183.387z"/>
						<path fill="#121212" d="M106.851,182.221l0.778,0.381c0.006-0.06-0.105-0.195,0.137-0.158L106.851,182.221z"/>
						<polygon fill="#121212" points="106.434,182.115 106.851,182.221 106.562,182.077 						"/>
						<path fill="#121212" d="M102.788,180.087c-0.379-0.065-0.758-0.226-1.186-0.397c0.436,0.238,0.895,0.467,1.339,0.662
							C103.032,180.316,103.275,180.294,102.788,180.087z"/>
						<path fill="#121212" d="M104.45,180.876c-0.025-0.007-0.057-0.017-0.082-0.022
							C104.409,180.891,104.443,180.912,104.45,180.876z"/>
						<polygon fill="#121212" points="97.459,177.813 97.51,177.878 97.542,177.852 						"/>
						<path fill="#121212" d="M103.002,180.421c0.324,0.187,0.549,0.228,0.771,0.252c-0.265-0.092-0.54-0.196-0.831-0.321
							C102.901,180.367,102.888,180.383,103.002,180.421z"/>
						<path fill="#121212" d="M100.315,178.877c0.158,0.12,0.344,0.245,0.539,0.372C100.709,179.109,100.4,178.854,100.315,178.877z
							"/>
						<path fill="#121212" d="M104.277,180.75l0.056,0.014C104.238,180.672,104.243,180.699,104.277,180.75z"/>
						<path fill="#121212" d="M104.277,180.75c-0.188-0.049-0.348-0.061-0.505-0.077c0.215,0.074,0.417,0.138,0.596,0.181
							C104.333,180.82,104.299,180.781,104.277,180.75z"/>
						<path fill="#121212" d="M95.631,178.475c0.144-0.149,1.107,0.101,1.791,0.645c0.82,0.214,0.595-0.605,0.088-1.24
							c-0.059,0.066-0.094,0.143-0.92-0.111c0.226,0.227,1.621,1.022,0.89,0.885c-1.075-0.381-0.815-0.452-1.271-0.78
							c0.32,0.423-1.461-0.286-1.393,0.146l0.958,0.308C95.768,178.383,95.401,178.313,95.631,178.475z"/>
						<path fill="#121212" d="M98.982,178.576l0.331,0.121c-0.352-0.194-0.579-0.387-0.995-0.748
							c-0.571-0.156-0.713-0.141-0.776-0.098l1.563,0.746L98.982,178.576z"/>
						<path fill="#121212" d="M100.754,179.348c-0.338,0.084-1.146-0.181-0.771,0.244c0.948,0.412,0.733,0.135,1.337,0.299
							c-1.547-0.627,0.485,0.088-0.564-0.516c0.313,0.102,0.589,0.209,0.847,0.313c-0.265-0.146-0.517-0.291-0.748-0.438
							l0.028,0.026l0.009,0.004l-0.003,0.002c0.055,0.055,0.068,0.078,0.002,0.031c-0.006,0-0.025-0.008-0.033-0.01
							C100.834,179.325,100.795,179.337,100.754,179.348c-0.422-0.24-0.045-0.084,0.104-0.045c0.01-0.007,0.023-0.012,0.031-0.021
							l-0.006-0.004l-1.569-0.578C99.624,178.871,100.029,179.047,100.754,179.348z"/>
						<path fill="#121212" d="M108.028,183.671c-0.04-0.038-0.031-0.051-0.029-0.067
							C107.889,183.586,107.844,183.587,108.028,183.671z"/>
						<path fill="#121212" d="M107.444,183.284c0.123,0.021,0.25-0.021,0.605,0.151c0.293,0.193-0.041,0.096-0.051,0.168
							c0.242,0.039,0.828,0.181,0.18-0.205l-0.12-0.02c-0.593-0.329-1.286-0.912-1.166-0.895
							C106.999,182.741,107.104,182.936,107.444,183.284z"/>
						<path fill="#121212" d="M104.02,181.363l-1.318-0.459l0.575,0.455l0.013-0.117C103.997,181.6,103.896,181.402,104.02,181.363z
							"/>
						<polygon fill="#121212" points="97.36,177.648 97.624,177.52 96.76,177.475 						"/>
						<polygon fill="#121212" points="95.713,176.911 95.857,176.76 95.375,176.666 						"/>
						<path fill="#121212" d="M32.38,105.547l0.033-0.424C32.389,105.322,32.38,105.452,32.38,105.547z"/>
						<path fill="#121212" d="M31.863,108.556l0.086,0.087C31.916,108.496,31.884,108.433,31.863,108.556z"/>
						<path fill="#121212" d="M57.854,154.243c-0.343-0.519-0.67-1.153-0.756-0.938l0.002,0.282
							C57.445,153.818,57.675,154.037,57.854,154.243z"/>
						<path fill="#121212" d="M37.265,132.3c0.006,0.062,0.013,0.124,0.02,0.187c0.133,0.095,0.258,0.183,0.371,0.263
							C37.537,132.611,37.404,132.46,37.265,132.3z"/>
						<path fill="#121212" d="M36.271,132.32l-0.225-0.781C36.08,131.723,36.147,131.977,36.271,132.32z"/>
						<path fill="#121212" d="M38.154,90.036l0.052-0.535C37.823,90.167,38.091,89.93,38.154,90.036z"/>
						<path fill="#121212" d="M79.234,168.555c-0.404-0.326-0.741-0.559-1.047-0.744C78.662,168.223,79.004,168.632,79.234,168.555z
							"/>
						<path fill="#121212" d="M34.425,107.126c0.003-0.247-0.022-0.358-0.07-0.36C34.347,107.021,34.363,107.168,34.425,107.126z"/>
						<path fill="#121212" d="M76.906,167.072c0.072,0.063,0.137,0.117,0.208,0.18c0.344,0.154,0.682,0.322,1.073,0.559
							C77.836,167.507,77.416,167.191,76.906,167.072z"/>
						<path fill="#121212" d="M80.521,49.095c0.041-0.018,0.086-0.036,0.125-0.053C80.64,49.01,80.59,49.042,80.521,49.095z"/>
						<path fill="#121212" d="M96.116,41.474c-0.139,0.125-0.373,0.299-0.592,0.457C95.64,41.865,95.817,41.742,96.116,41.474z"/>
						<path fill="#121212" d="M89.221,173.656C89.568,173.816,89.285,173.663,89.221,173.656L89.221,173.656z"/>
						<path fill="#121212" d="M90.508,175.255c-0.084-0.014-0.153-0.014-0.185,0.026C90.375,175.249,90.438,175.243,90.508,175.255z
							"/>
						<path fill="#121212" d="M72.935,166.283l-0.028-0.02C72.981,166.359,72.969,166.344,72.935,166.283z"/>
						<path fill="#121212" d="M89.69,174.004c-0.117-0.087-0.254-0.184-0.408-0.275C89.346,173.777,89.469,173.863,89.69,174.004z"
							/>
						<path fill="#121212" d="M89.667,173.878c0.115,0.065,0.205,0.118,0.291,0.167C90.017,174.034,89.989,173.995,89.667,173.878z"
							/>
						<path fill="#121212" d="M88.739,173.43c0.197,0.094,0.375,0.195,0.543,0.299c-0.061-0.049-0.083-0.072-0.062-0.07
							C89.119,173.609,88.977,173.541,88.739,173.43z"/>
						<path fill="#121212" d="M56.062,69.138c0.023-0.013,0.048-0.027,0.074-0.042C56.356,68.762,56.242,68.89,56.062,69.138z"/>
						<path fill="#121212" d="M48.89,149.277c0.015,0.01,0.025,0.016,0.039,0.023c-0.012-0.015-0.025-0.031-0.036-0.046
							L48.89,149.277z"/>
						<path fill="#121212" d="M47.788,148.4c0.61,0.236,0.822,0.5,1.104,0.854l0.113-0.767L47.788,148.4z"/>
						<path fill="#121212" d="M34.343,98.528l-0.521,0.871c0.098-1.245,0.532-2.026-0.066-1.241
							c0.552,0.351-1.207,3.722-0.553,4.061l-0.313,0.595c0.056-0.18,0.025-0.22,0.081-0.398c-0.646,1.156,0.217,1.041-0.243,2.61
							c-0.172,0.546-0.345,0.921-0.348,0.521l-0.071,1.286c-0.077,0.363-0.177,0.254-0.101-0.108c0,0-0.066,0.483-0.131,0.966
							c-0.055,0.484-0.109,0.968-0.109,0.968l-0.018-0.017c0.067,0.29,0.162,0.932,0.202,1.242c-0.143,0.48-0.049-0.253-0.145-0.136
							l0.07,1.083c-0.208,0.424-0.317-0.479-0.213-1.22c-0.76,0.946,0.051,0.901-0.43,3.058l-0.043-1.029
							c-0.424,0.644-0.312,1.457-0.542,2.63c0.104-0.29,0.634-2.328,0.776-1.146c-0.054,0.329-0.086,0.768,0.062,1.397
							c-0.242,0.011-0.174,0.629-0.118,1.402l-0.322-0.035c0.136,0.838,0.306,0.76,0.483,1.238c0.052,0.932-0.167,1.15-0.348,1.396
							c0.133,1.502,0.265-1.076,0.548,0.677c0.055,1.247,0.333,2.097,0.847,3.495c0.09,0.867-0.225-0.104-0.243,0.221l0.431,0.688
							c0.041,0.184-0.05,0.145-0.096,0.123c0.259,0.602,0.315-0.024,0.671,0.924c0.401,0.156,0.098,2.146,0.927,3.19
							c0.023,0.321-0.236-0.069-0.319,0.062c0.86,1.517,0.71,1.313,1.591,2.461c0,0,0.074,0.295,0.148,0.589
							c0.08,0.293,0.16,0.586,0.16,0.586c-0.154-0.897,0.569,0.006,1.218,0.761c-0.034-0.326-0.06-0.605-0.095-0.783
							c0,0,0.21,0.324,0.42,0.648c0.216,0.32,0.431,0.643,0.431,0.643c0.039,0.188-0.129,0.104-0.365-0.06
							c0.073,0.079,0.143,0.153,0.199,0.215c0.151,0.543-0.143,0.379-0.486,0.108l-0.084-0.586c-0.345-0.252-0.698-0.48-0.83-0.326
							c0.078,0.074,0.194,0.236,0.307,0.421c-0.093-0.065-0.163-0.104-0.171-0.047c-0.006,0.063,0.128,0.179,0.32,0.366l-0.15,0.481
							l0.166,0.011c0,0,0.196,0.479,0.392,0.959c0.206,0.477,0.412,0.951,0.412,0.951c1.06,1.094,2.161,1.896,3.602,3.688
							c-0.543-0.314-0.42,0.146-0.69,0.3c-0.099-0.702-1.14-1.401-1.729-2.466c0.307,0.553,0.108,0.516-0.021,0.406
							c0,0,0.356,0.412,0.714,0.824c0.363,0.403,0.728,0.809,0.728,0.809c-0.238,0.104,0.105,0.482,0.346,1.004
							c0.155-0.633,1.21,1.105,1.871,1.695c-0.1,0.146-0.364,0.086-0.978-0.789c0.414,1.17,1.385,0.852,1.855,1.942
							c-0.167-0.198-0.236-0.321-0.366-0.351c0.492,0.383,1.35,1.595,1.017,1.42l-0.17-0.196c1.043,1.384,3.494,3.933,3.989,3.806
							c-0.027,0.051-0.524,0.191-0.659,0.176c0,0,0.791,0.301,1.583,0.601c0.792,0.281,1.584,0.563,1.584,0.563
							c-0.447,0.07-0.312,1.426-1.476,0.568c0.255,0.327,0.577,0.729,1.294,1.23c-0.167-0.231-0.138-0.863,0.16-0.625
							c0.477,1.021,0.377,0.658,1.089,1.794c-0.258-0.341,0.476-0.448,0.951,0.007c-0.135-0.006-0.338,0.457-0.558,0.338
							l1.604,0.676c-0.375-0.195-0.37,0.311-0.196,0.676c-0.058-0.195,1.073,0.941,1.449,1.179l-0.449-0.552
							c1.37,1.267,1.909,0.576,3.318,1.746c-0.245-0.047-0.878,0.215-0.187,0.855c0.516,0.047,2.347,0.082,3.765,0.868l0.15,0.315
							l1.106,0.584c-0.873-0.102-3.168-0.666-4.327-1.134c0.472,0.529,0.033,0.274,0.87,0.897c0.2,0.348-0.595-0.158-0.843-0.342
							l1.88,1.554c0.114-0.333,1.697,0.833,1.789,0.547l-2.328-1.288c0.12-0.331,1.784,0.159,3.14,1.199
							c0.275,0.363-0.613,0.296-0.651,0.406c0.247,0.041,1.456,0.769,1.539,0.924l-0.7-0.272c0.71,0.658,1.532,0.533,2.297,1.447
							c0.315,0.239,0.741,1.021,0.909,0.896c-0.325-0.682,0.238-1.731,0.753-1.732c0.096,0.102,1.513,1.447,1.788,1.854
							c0.382,0.606-1.208,0.065-0.886,0.584c0.07-0.063,0.433,0.041,0.579,0.09c0.307,0.291-0.3,0.146,0.482,0.601
							c0.31-0.202,1.532,1.015,0.515-0.011c0.796,0.394,0.755,0.561,1.64,1.103c-0.163-0.358,1.188-0.147,1.986,0.229
							c-0.089,0.048,0.021,0.246,0.077,0.34c1.526,0.96,2.281,1.587,3.738,2.433c0.092,0.15,0.748,0.642,0.375,0.597
							c0.241,0.066,0.491,0.076,0.947,0.326c0.73,0.754-1.03-0.533-0.538,0.153c0.155-0.14,1.304,0.429,2.013,0.677
							c-0.052-0.375-1.463-0.885-2.168-1.146c0.208-0.368,1.542-0.108,3.17,0.566c1.271,0.58,0.398,0.529,0.64,0.594
							c2.268,1.316,2.308,0.416,4.086,1.695c0.639,0.639-0.213,0.492-0.134,0.754c-1.056-0.437-1.467-0.963-2.15-1.318l0.777,0.561
							c-0.36-0.092-1.063-0.39-1.391-0.652c0.521,0.562,3.892,2.119,5.604,3.224c0.362,0.081,0.959,0.276,0.744,0.049l-0.588-0.255
							c-0.428-0.458,1.21,0.273,0.532-0.182c0.834,0.252,1.802,0.461,2.83,1.104l0.069,0.374c0.016-0.091-0.629-0.509-0.974-0.577
							c0.508,0.104,1.482,1.187,2.152,1.065l-0.668-0.561c0.84,0.239,1.939,0.402,2.862,0.948c-0.309-0.481-0.237-0.075-0.771-0.721
							c0.402,0.685-2.452-1.199-1.701-0.325c-0.521-0.709-1.137-0.744-1.893-1.512c-0.017,0.105,0.237,0.334-0.543-0.108
							c-0.05,0.009-0.152,0-0.216-0.007c-0.023-0.016-0.031-0.021-0.052-0.034l0.039,0.033c-0.041-0.004-0.046-0.003,0.016,0.012
							c0.171,0.134,0.303,0.259,0.34,0.341c-0.503,0.014-1.772-0.639-2.258-0.748c-0.454-0.281,0.251-0.002,0.04-0.229l-0.723-0.168
							c0.038-0.232-1.087-0.979,0.087-0.521l-0.997-0.523c-0.53-0.418-1.313-0.887-1.855-1.064c-0.445-0.293-1.3-0.412-0.81-0.35
							l-1.62-0.717l0.013-0.057c-1.517-0.854-3.325-1.41-4.848-2.76c-0.536-0.242-1.095-0.488-1.905-1.045l-0.065-0.266
							c-0.682-0.325-1.833-1.328-2.211-1.328c-0.421-0.861-3.029-2.027-4.08-2.836l-0.182,0.187
							c-0.753-0.511-1.516-0.937-2.507-1.487l-0.069,0.226c-0.908-0.401-1.975-1.552-3.229-2.44
							c0.136-0.008,0.438,0.238,0.633,0.442c-1.195-1.478-3.35-2-4.438-3.325c-0.376-0.193-0.594-0.402-0.787-0.628
							c0.031,0.022,0.061,0.042,0.088,0.056c-0.033-0.027-0.081-0.067-0.132-0.108c-0.119-0.146-0.244-0.296-0.374-0.453
							c0.1,0.151,0.202,0.291,0.302,0.396c-0.255-0.192-0.646-0.48-1.051-0.736l-0.005-0.314c-0.031-0.021-0.056-0.039-0.089-0.064
							c-0.303-0.364-0.361-0.15-0.286,0.147c-0.209-0.122-0.408-0.228-0.576-0.292c-0.043-0.537-1.041-0.705-1.163-1.359
							c-0.38-0.051-1.893-1.467-2.364-1.328c0.024-0.051-0.062-0.166,0.132,0.006c-0.364-0.391-0.715-0.793-1.147-1.029l0.045-0.377
							l-1.123-0.505c-0.375-0.629-0.504-0.909,0.158-0.588c-1.456-0.927-1.067-0.863-2.326-1.646l0.191-0.086
							c-0.363-0.361-1.116-0.783-1.207-1.123c-0.521-1.07-3.737-4.291-5.113-6.918c-0.153,0.801-0.566-1.263-0.996-1.107
							c0.017-0.217-0.14-0.602,0.22-0.272c-0.938-1.168-1.017-1.991-1.867-2.679c0.035-0.217,0.333,0.173,0.328,0.001
							c-0.085-0.088-0.339-0.349-0.344-0.522c-0.004-0.172,0.208,0.131,0.377,0.303c-0.772-1.293-1.201-1.235-1.612-1.143
							c-0.196-0.775-0.393-1.104-0.876-1.49c-0.002-0.302-0.077-0.762,0.385,0.066c-0.248-0.479-1.188-3.025-1.485-2.963
							c0.014-0.188-0.256-0.7-0.34-0.818c-0.389-1.133-0.423-1.23-0.806-2.344l0.053,0.326c-0.512-0.324-0.388-0.907-0.685-1.809
							l0.046,0.016c-0.271-2.174-0.39-0.881-0.523-3.042l-0.214,0.159c-0.552-0.104-0.051-1.928-0.373-3.129l-0.082,0.463
							c-0.268-0.664,0.5-1.959,0.537-2.623c0.037-0.147,0.085,0.228,0.129,0.429c0.211-1.767-0.331-0.208-0.455-1.522
							c0.164-0.244,0.434,0.301,0.454-0.578c0.12-0.425-0.526-2.574-0.069-3.76c-0.154,0.252-0.309,0.508-0.35-0.114
							c0.034-0.955,0.787-2.456,0.542-3.357c0.055-0.112,0.096-0.15,0.13-0.149c0.017-0.727,0.304-2.326,0.207-2.804
							c0.478-0.225,0.67-1.326,0.879-2.352c0.207-1.023,0.423-1.967,0.78-1.829c0,0,0.185-0.524,0.369-1.047
							c0.196-0.521,0.392-1.041,0.392-1.041l0.051,0.083c0.588-1.292,0.643-1.817,0.683-2.353c0.186-0.278,0.149-0.029,0.174,0.013
							c1.037-1.815,1.106-1.999,1.604-3.726l0.305-0.04c0.101-0.495,1.822-2.423,2.712-4.278c0.013,0.032,0.029,0.093-0.03,0.249
							c1.011-2.112,3.716-4.1,3.523-5.306l0.771-1.338c-1.286,1.509-0.124-0.476-0.748,0.07c0.444-0.649,1.482-1.401,0.911-0.628
							l-0.129,0.088c0.137,0.563,1.692-1.797,1.912-1.542c2.504-2.98,5.322-5.539,7.956-8.049l-0.557,0.029l0.934-0.867
							c0.301-0.169,0.521-0.102-0.146,0.513c0.486-0.18,0.984-1.172,0.95-1.249c1.401-1.104-0.217,0.785,0.188,0.42l0.521-0.524
							l-0.15,0.082c0.337-0.517,0.268-0.671,1.087-1.394c0.562-0.41,0.414-0.071,0.625-0.242c0.017,0.02,0.093-0.032,0.317-0.271
							l1.22-1.039l-0.672,0.207c0.439-0.578,1.145-0.985,0.372-0.743c1.134-0.355,4.685-3.743,5.319-4.027
							c0.644-0.79,1.418-1.401,2.396-2.132c-0.275,0.14-0.62-0.005,0.237-0.621c0.104,0.764,1.705-0.949,2.677-1.072
							c-0.803,0.196,2.35-1.851,1.123-1.503c0.74-0.478,0.192,0.17,0.822-0.099c1.532-1.448,3.829-2.562,5.904-4.097
							c-0.017-0.095-0.449,0.04-0.067-0.383l1.375-0.408c0.397-0.322,0.104-0.685,1.048-0.953c-0.15,0.012-0.376,0.03-0.107-0.185
							c4.438-2.501,8.481-5.888,13.287-8.113c-0.688,0.264-0.303-0.015,0.146-0.337c-0.317,0.173-0.118-0.183-0.245-0.239
							c0,0,0.491-0.231,1.016-0.563c0.136-0.09,0.27-0.177,0.434-0.345c0.072-0.094,0.197-0.167,0.295-0.558
							c0.016-0.13,0.034-0.208-0.014-0.405c-0.045-0.179-0.133-0.327-0.227-0.423c-0.246-0.243-0.336-0.238-0.482-0.302
							c-0.366-0.095-0.438-0.065-0.553-0.079c-0.084-0.001-0.133-0.001-0.133-0.001c-0.507,0.359-2.394,0.611-2.535,0.989
							l0.647-0.254c-0.774,0.61,1.469,0.441,1.437,0.967c0.201-0.156,0.508-0.239,0.729-0.22c0.028-0.009,0.034,0.031,0.043-0.009
							c0.017-0.193,0.075-0.363,0.11-0.402c0.063-0.049,0.004,0.014-0.143-0.051c-0.064-0.025-0.13-0.07-0.238-0.13L95.6,39.862
							l-0.001-0.003c0.002-0.004-0.007,0.001-0.009,0.002c-0.117,0.065-0.24,0.133-0.365,0.203c-0.618,0.324-1.37,0.688-1.893,1.398
							c-0.357,0.12,0.176-0.301-0.049-0.286c-0.236,0.402-0.64,0.717-1.485,1.15l0.063-0.1c-2.21,1.478-3.289,1.913-5.88,3.429
							l0.314,0.078c-0.558,0.323-0.712,0.335-0.997,0.45c-0.425,0.703,1.529-0.968,1.18-0.269c-0.983,0.055-3.807,2.478-4.587,2.349
							c-0.827,0.55,0.394,0.065-0.433,0.615l-0.301,0.023L81.056,49.2c-0.557,0.337-0.932,0.369-1.022,0.279
							c0.139-0.076,0.352-0.282,0.486-0.385c-0.799,0.328-1.935,1.391-2.205,1.51l0.839-0.466c-2.158,1.643-4.973,3.403-6.898,5.207
							l0.227-0.028c-1.48,1.357-1.361,0.853-3.05,2.26l0.047-0.069c-0.281,0.355-0.711,0.758-1.192,1.117
							c0.356-0.444-0.979,0.441-0.495-0.12c-1.568,1.517-0.737,0.8-1.597,2.018l-0.373,0.063c-0.274,0.438-0.252,0.53-1.067,1.261
							c0.594-0.693-0.721,0.226-0.075-0.576c-2.041,1.151-2.36,2.503-3.547,2.742c-0.467,1.077,1.697-1.082,1.321-0.611
							c0.485-0.192-0.416,0.854-0.993,1.289c-0.561,0.472-1.376,0.321-2.751,1.567c0.139-0.122,0.122-0.159,0.261-0.28
							c-0.605,0.366-0.889,1.042-1.659,1.462c-0.139,0.551-0.821,0.74-0.649,1.123l1.181-1.223
							c-0.639,0.729-0.981,1.677-2.275,2.612c0.033-0.143,0.3-0.546,0.494-0.811c-0.417,0.234-0.59,0.673-1.02,0.921
							c-0.179-0.382,1.426-1.496,1.979-2.415c-0.482,0.215-1.227,1.548-1.145,0.879c-0.166,0.908-1.372,1.215-1.973,2.398
							l-0.108-0.227c-0.116,0.166-0.328,0.537-0.59,0.792l0.25-0.688c-0.534,0.905-1.547,1.236-2.123,2.044
							c1.418-1.481,0.524-0.134,1.251-0.634c-1.517,2.035-1.466,0.603-3.306,2.767c0.232-0.309,1.08-0.964,0.754-0.449
							c-0.401,0.362-0.947,0.829-1.26,0.993c-1.212,1.438,0.372-0.054-0.05,0.641c-0.64,0.287-0.521,0.768-0.985,1.449l-0.187-0.153
							c-1.498,1.532,0.013,0.751-1.354,2.11l0.258-0.84l-0.569,0.831l-0.082-0.334c-0.529,0.979-0.783,1.209-1.499,2.01
							c0.287-0.093,0.258,0.376-0.305,1.134c-0.499,0.432,0.031-0.429-0.739,0.67c0.057-0.333,0.104-0.715,0.633-1.049
							c-0.026-0.095,0.061-0.33,0.037-0.426c-0.559,0.453-1.082,1.384-1.365,1.78c0.117-0.147,0.26-0.321,0.355-0.394l-0.859,1.782
							c-0.25,0.2-0.171-0.041-0.092-0.28c-0.205,0.339-0.269,0.627-0.577,1.119c-0.077-0.233-0.269-0.318,0.125-1.052l-0.864,1.668
							c-0.141,0.056-0.718,0.677-0.647,0.434c-0.663,0.814-1.032,2.354-1.837,3.474c-0.002,0.081-0.04,0.224-0.159,0.492
							c-0.665,1.104-1.414,2.018-1.835,3.521l-0.688,0.643c-0.426,1.13,0.888-0.89,0.188,0.987
							c-0.457,1.341-0.484,0.367-0.771,0.787c-0.11,0.726-0.227,1.984-0.92,3.119C34.062,99.216,34.228,98.916,34.343,98.528z
							 M31.629,113.098c-0.043-0.289-0.185-0.873-0.03-1.078C31.859,112.36,31.722,112.606,31.629,113.098z M37.866,134.411
							c-0.171-0.146-0.294-0.452-0.391-0.817C37.621,133.818,37.759,134.087,37.866,134.411z M85.398,171.921l-0.032-0.004
							C84.857,171.545,85.036,171.682,85.398,171.921z M86.499,172.609c0.132,0.031,0.139-0.004,0.105-0.059
							c-0.108,0.014-0.369-0.115-0.655-0.283C86.001,172.367,86.13,172.48,86.499,172.609z M60.177,67.544l-0.229,0.121
							C60.323,67.234,60.247,67.387,60.177,67.544z"/>
						<path fill="#121212" d="M36.391,132.327c0.001-0.091,0.031-0.132,0.063-0.168C36.367,132.077,36.324,132.096,36.391,132.327z"
							/>
						<path fill="#121212" d="M38.145,90.135l0.024-0.038c0-0.028-0.006-0.047-0.015-0.061L38.145,90.135z"/>
						<path fill="#121212" d="M68.021,164.32c-0.208-0.174-0.308-0.297-0.366-0.389C67.61,163.973,67.685,164.084,68.021,164.32z"/>
						<path fill="#121212" d="M92.821,175.309l-0.773-0.306c0.367,0.165,0.473,0.274,0.639,0.397
							C92.693,175.342,92.586,175.199,92.821,175.309z"/>
						<path fill="#121212" d="M98.723,179.721c0.123,0.022,0.236,0.104,0.357,0.125l0.018-0.115
							C98.622,179.523,98.254,179.457,98.723,179.721z"/>
						<path fill="#121212" d="M93.165,176.365c-0.027,0.211,0.474,0.373,1.017,0.59l-0.095-0.044
							C94.364,176.729,93.764,176.547,93.165,176.365z"/>
						<path fill="#121212" d="M94.305,177.007c0.167,0.069,0.335,0.144,0.488,0.228C94.903,177.16,94.606,177.119,94.305,177.007z"
							/>
						<path fill="#121212" d="M88.022,173.24c0.223,0.171,0.271-0.153,0.374-0.01C88.786,173.143,86.617,172.678,88.022,173.24z"/>
						<polygon fill="#121212" points="93.303,177.171 93.222,176.855 92.84,176.896 						"/>
						<path fill="#121212" d="M89.242,174.984l0.805,0.477c0.006-0.044,0.123-0.014,0.262,0.034
							C89.798,175.232,89.256,174.909,89.242,174.984z"/>
						<path fill="#121212" d="M90.309,175.495c0.267,0.137,0.523,0.259,0.69,0.295C90.854,175.723,90.537,175.574,90.309,175.495z"
							/>
						<polygon fill="#121212" points="92.122,176.688 91.896,176.52 91.311,176.215 						"/>
						<path fill="#121212" d="M80.392,170.293l-0.924-0.432c-0.133,0.023,0.084,0.205,0.433,0.359
							C80.142,170.286,80.487,170.441,80.392,170.293z"/>
						<path fill="#121212" d="M82.771,172.363c-0.218-0.176-0.208-0.233-0.307-0.379l-0.174,0.259L82.771,172.363z"/>
						<path fill="#121212" d="M80.121,171.012c-0.13,0.024-1.415-0.506-0.273,0.106C79.979,171.096,80.91,171.521,80.121,171.012z"
							/>
						<polygon fill="#121212" points="67.169,162.742 67.388,162.881 67.638,162.436 						"/>
						<path fill="#121212" d="M55.497,155.671c0.87,0.864,0.421-0.06,1.183,0.751c0.297,0.086-0.623-0.66-0.329-0.559
							C55.702,155.498,55.447,155.197,55.497,155.671z"/>
						<path fill="#121212" d="M56.351,155.863c0.104,0.059,0.216,0.119,0.34,0.177C56.505,155.932,56.412,155.887,56.351,155.863z"
							/>
						<polygon fill="#121212" points="93.985,39.112 93.187,39.233 93.729,39.252 						"/>
						<path fill="#121212" d="M92.633,39.909l-0.272-0.254l-0.358,0.422C92.165,40.01,92.483,39.879,92.633,39.909z"/>
						<path fill="#121212" d="M30.998,115.339l0.08,0.06c0.081-0.129,0.08-0.317,0.082-0.696L30.998,115.339z"/>
						<polygon fill="#121212" points="32.284,104.495 32.235,104.676 32.601,104.402 						"/>
						<path fill="#121212" d="M34.797,95.713c-0.156,0.339-0.271,0.766-0.421,1.11C34.636,96.049,35.173,95.766,34.797,95.713z"/>
					</g>
				</g>
			</g>
		</g>
	</g>
	<g>
		<g>
			<g>
				<g>
					<g>
						<path fill="#121212" d="M147.678,190.409c0.146,0.024,0.103-0.187,0.126-0.224
							C147.556,190.223,147.681,190.464,147.678,190.409z"/>
						<polygon fill="#121212" points="145.228,190.775 145.274,190.691 144.907,190.887 						"/>
						<path fill="#121212" d="M142.958,190.67c0.199,0.366,0.824-0.021,1.225,0.124l0.063,0.085l0.195-0.277
							C143.946,190.623,143.299,190.785,142.958,190.67z"/>
						<path fill="#121212" d="M141.782,189.846c0.067,0.143-0.269,0.106,0.279,0.057c-0.027-0.018-0.034-0.026-0.05-0.039
							C141.963,189.863,141.896,189.859,141.782,189.846z"/>
						<path fill="#121212" d="M142.012,189.863C142.25,189.863,141.86,189.74,142.012,189.863L142.012,189.863z"/>
						<path fill="#121212" d="M140.903,189.895l0.321-0.109c-0.063-0.086-0.343-0.116-0.235-0.172
							C140.663,189.666,140.727,189.751,140.903,189.895z"/>
						<path fill="#121212" d="M140.594,190.141l0.164-0.045C140.732,190.061,140.689,190.046,140.594,190.141z"/>
						<path fill="#121212" d="M141.11,190l-0.352,0.096c0.043,0.061,0.043,0.176,0.16-0.033
							C140.887,190.167,140.959,190.068,141.11,190z"/>
						<path fill="#121212" d="M141.304,190.063c0.173,0.086,0.399,0.146,0.077,0.254
							C141.986,190.295,141.909,190.04,141.304,190.063z"/>
						<path fill="#121212" d="M142.825,191.034l0.231,0.114l0.209-0.11C143.161,191.094,142.815,190.921,142.825,191.034z"/>
						<path fill="#121212" d="M138.95,189.621c-0.023,0.074,0.098,0.207,0.115,0.305l0.236-0.076
							C139.186,189.792,138.961,189.732,138.95,189.621z"/>
						<path fill="#121212" d="M139.065,189.926l-0.354,0.114C139.022,190.068,139.083,190.012,139.065,189.926z"/>
						<polygon fill="#121212" points="140.52,190.533 141.104,190.286 140.409,190.531 						"/>
						<polygon fill="#121212" points="137.62,189.553 137.827,189.385 137.461,189.635 						"/>
						<path fill="#121212" d="M136.737,189.543c0.152-0.139-0.189-0.255-0.031-0.338c-0.24,0.016-0.449,0.132-0.64,0.234
							C136.265,189.387,136.473,189.412,136.737,189.543z"/>
						<path fill="#121212" d="M135.75,189.59c0.099-0.029,0.203-0.088,0.315-0.148C135.961,189.471,135.856,189.514,135.75,189.59z"
							/>
						<path fill="#121212" d="M138.12,189.977c-0.023-0.047-0.07-0.17-0.264-0.229l0.127,0.221
							C138.025,189.971,138.072,189.973,138.12,189.977z"/>
						<path fill="#121212" d="M137.988,189.975l-0.005-0.008c-0.148-0.013-0.251-0.021-0.295-0.023
							C137.726,189.945,137.816,189.956,137.988,189.975z"/>
						<path fill="#121212" d="M138.155,189.979l-0.035-0.002C138.133,189.998,138.141,190.006,138.155,189.979z"/>
						<path fill="#121212" d="M139.616,190.3c-0.211,0.109-0.643,0.22-0.238,0.419C139.532,190.579,139.299,190.465,139.616,190.3z"
							/>
						<path fill="#121212" d="M138.313,190.253l0.367,0.065c-0.006-0.057-0.067-0.143,0.035-0.196L138.313,190.253z"/>
						<polygon fill="#121212" points="138.129,190.313 138.313,190.253 138.176,190.229 						"/>
						<path fill="#121212" d="M136.374,189.818c-0.164,0.086-0.338,0.086-0.537,0.092c0.211,0.052,0.429,0.084,0.637,0.093
							C136.504,189.938,136.602,189.82,136.374,189.818z"/>
						<path fill="#121212" d="M137.157,189.913l-0.035,0.01C137.143,189.941,137.161,189.949,137.157,189.913z"/>
						<polygon fill="#121212" points="133.895,189.82 133.924,189.861 133.933,189.825 						"/>
						<path fill="#121212" d="M136.506,190.044c0.156,0.05,0.255,0.001,0.349-0.062c-0.12,0.017-0.247,0.023-0.382,0.021
							C136.458,190.031,136.454,190.053,136.506,190.044z"/>
						<path fill="#121212" d="M135.204,189.666c0.08,0.048,0.172,0.09,0.271,0.129C135.396,189.725,135.235,189.611,135.204,189.666
							z"/>
						<path fill="#121212" d="M137.07,189.861l0.024-0.008C137.045,189.807,137.049,189.828,137.07,189.861z"/>
						<path fill="#121212" d="M137.07,189.861c-0.083,0.027-0.149,0.076-0.216,0.121c0.098-0.014,0.188-0.031,0.268-0.061
							C137.103,189.906,137.084,189.884,137.07,189.861z"/>
						<path fill="#121212" d="M133.245,191.165c0.037-0.196,0.463-0.36,0.813-0.132c0.362-0.133,0.159-0.795-0.136-1.172
							c-0.014,0.086-0.019,0.166-0.389,0.267c0.123,0.113,0.799,0.289,0.482,0.454c-0.488,0.08-0.395-0.088-0.624-0.203
							c0.188,0.256-0.632,0.331-0.543,0.698l0.431-0.108C133.286,191.025,133.129,191.107,133.245,191.165z"/>
						<path fill="#121212" d="M134.62,189.913l0.15-0.019c-0.17-0.043-0.289-0.127-0.508-0.291c-0.256,0.086-0.311,0.155-0.33,0.222
							l0.738,0.062L134.62,189.913z"/>
						<path fill="#121212" d="M135.445,189.925c-0.127,0.21-0.491,0.285-0.28,0.528c0.441,0.005,0.316-0.166,0.584-0.248
							c-0.713,0.021,0.211-0.109-0.299-0.256c0.143-0.03,0.268-0.035,0.387-0.039c-0.127-0.032-0.248-0.07-0.362-0.115l0.017,0.016
							l0.002-0.002v0.004c0.029,0.028,0.039,0.045,0.006,0.027c-0.004,0.003-0.013,0.004-0.017,0.004
							C135.476,189.873,135.461,189.898,135.445,189.925c-0.204-0.055-0.028-0.059,0.036-0.081c0.003-0.011,0.01-0.021,0.01-0.031
							l-0.002-0.002l-0.719,0.086C134.92,189.932,135.109,189.936,135.445,189.925z"/>
						<path fill="#121212" d="M138.977,191.165c-0.021-0.021-0.02-0.035-0.021-0.052
							C138.909,191.139,138.891,191.154,138.977,191.165z"/>
						<path fill="#121212" d="M138.689,191.021c0.054-0.027,0.101-0.111,0.269-0.082c0.144,0.07-0.006,0.104-0.002,0.174
							c0.104-0.053,0.362-0.139,0.049-0.258l-0.051,0.027c-0.285-0.087-0.642-0.371-0.59-0.398
							C138.438,190.682,138.506,190.822,138.689,191.021z"/>
						<path fill="#121212" d="M137.045,190.527l-0.601,0.078l0.296,0.199l-0.012-0.111
							C137.065,190.753,136.999,190.611,137.045,190.527z"/>
						<polygon fill="#121212" points="133.831,189.712 133.92,189.486 133.563,189.793 						"/>
						<polygon fill="#121212" points="133.058,189.704 133.096,189.508 132.887,189.618 						"/>
						<path fill="#121212" d="M89.39,190.205l-0.178,0.048C89.296,190.238,89.35,190.225,89.39,190.205z"/>
						<path fill="#121212" d="M90.652,190.273l0.035-0.096C90.627,190.229,90.601,190.27,90.652,190.273z"/>
						<path fill="#121212" d="M114.1,188.877c-0.246-0.195-0.518-0.495-0.497-0.271l0.067,0.221
							C113.851,188.795,113.985,188.825,114.1,188.877z"/>
						<path fill="#121212" d="M101.058,189.589l0.071,0.069c0.064-0.071,0.125-0.139,0.182-0.199
							C101.233,189.499,101.147,189.543,101.058,189.589z"/>
						<path fill="#121212" d="M100.838,190.479l-0.328-0.154C100.583,190.375,100.688,190.428,100.838,190.479z"/>
						<path fill="#121212" d="M82.478,190.125l-0.213,0.212C82.583,190.35,82.448,190.232,82.478,190.125z"/>
						<path fill="#121212" d="M125.148,189.43c-0.216-0.095-0.39-0.138-0.541-0.154C124.866,189.411,125.071,189.605,125.148,189.43
							z"/>
						<path fill="#121212" d="M89.989,187.928c-0.108,0.034-0.156,0.076-0.154,0.125C89.946,188.021,90.01,187.98,89.989,187.928z"
							/>
						<path fill="#121212" d="M123.974,189.247c0.037,0.022,0.075,0.034,0.112,0.056c0.162-0.029,0.326-0.051,0.521-0.027
							C124.417,189.173,124.195,189.105,123.974,189.247z"/>
						<path fill="#121212" d="M57.458,188.824c-0.019-0.012-0.04-0.018-0.056-0.028C57.396,188.825,57.421,188.827,57.458,188.824z"
							/>
						<path fill="#121212" d="M50.265,186.311c0.072-0.01,0.189-0.004,0.3-0.002C50.511,186.29,50.421,186.288,50.265,186.311z"/>
						<path fill="#121212" d="M129.956,189.471C130.122,189.464,129.983,189.447,129.956,189.471L129.956,189.471z"/>
						<path fill="#121212" d="M130.713,190.363c-0.034,0.021-0.063,0.052-0.068,0.103
							C130.661,190.414,130.685,190.382,130.713,190.363z"/>
						<path fill="#121212" d="M122.282,190.521l-0.014-0.002C122.315,190.564,122.307,190.559,122.282,190.521z"/>
						<path fill="#121212" d="M130.198,189.58c-0.061-0.029-0.13-0.055-0.205-0.074C130.025,189.523,130.088,189.548,130.198,189.58
							z"/>
						<path fill="#121212" d="M130.17,189.477c0.057,0.012,0.101,0.02,0.142,0.026C130.334,189.469,130.317,189.443,130.17,189.477z
							"/>
						<path fill="#121212" d="M129.728,189.473c0.094,0,0.181,0.014,0.265,0.033c-0.031-0.016-0.045-0.027-0.035-0.035
							C129.909,189.471,129.84,189.473,129.728,189.473z"/>
						<path fill="#121212" d="M70.894,188.846c-0.011-0.008-0.02-0.014-0.033-0.021C70.69,188.904,70.764,188.895,70.894,188.846z"
							/>
						<polygon fill="#121212" points="109.737,190.938 109.756,190.928 109.733,190.918 						"/>
						<path fill="#121212" d="M109.143,191.07c0.264-0.258,0.402-0.219,0.591-0.152l-0.167-0.634L109.143,191.07z"/>
						<path fill="#121212" d="M86.361,190.132l0.404,0.214c-0.513,0.297-0.869,0.172-0.493,0.463
							c0.089-0.677,1.607,0.002,1.695-0.674l0.267,0.155c-0.078-0.011-0.093,0.028-0.169,0.019c0.515,0.35,0.415-0.473,1.093-0.346
							c0.235,0.063,0.396,0.169,0.231,0.242l0.537-0.145c0.153,0.021,0.11,0.137-0.043,0.115l0.811-0.018l-0.007,0.02
							c0.12-0.102,0.389-0.254,0.52-0.318c0.201,0.106-0.106,0.068-0.058,0.154l0.455-0.145c0.174,0.186-0.204,0.338-0.512,0.299
							c0.387,0.695,0.378-0.152,1.262,0.282l-0.426,0.067c0.255,0.396,0.591,0.271,1.058,0.532c-0.106-0.13-0.929-0.646-0.437-0.794
							c0.136,0.059,0.313,0.09,0.582-0.035c-0.008,0.241,0.25,0.193,0.57,0.194l-0.035,0.317c0.35-0.076,0.33-0.239,0.539-0.375
							c0.385,0.049,0.453,0.301,0.535,0.513c0.614,0.079-0.408-0.416,0.324-0.442c0.508,0.145,0.874,0.03,1.497-0.134
							c0.354,0.126-0.071,0.192,0.054,0.29l0.33-0.24c0.077,0.01,0.049,0.086,0.034,0.125c0.272-0.087,0.036-0.318,0.463-0.386
							c0.129-0.347,0.843,0.554,1.384,0.177c0.125,0.098-0.07,0.193-0.037,0.318c0.729-0.229,0.623-0.163,1.228-0.489l0.491,0.231
							c-0.356-0.256,0.127-0.52,0.549-0.733c-0.125-0.122-0.232-0.229-0.305-0.278l0.664-0.144c0.078,0.058,0.008,0.163-0.106,0.292
							c0.044-0.025,0.087-0.051,0.124-0.07c0.229,0.127,0.1,0.307-0.077,0.479c-0.073-0.068-0.151-0.139-0.228-0.209
							c-0.172,0.188-0.334,0.396-0.309,0.584c0.045-0.034,0.129-0.063,0.221-0.076c-0.045,0.051-0.074,0.098-0.058,0.129
							c0.021,0.035,0.093-0.031,0.204-0.109l0.134,0.363l0.044-0.141l0.85,0.262c0.633-0.331,1.191-0.834,2.176-0.938
							c-0.254,0.25-0.071,0.424-0.098,0.731c-0.252-0.339-0.765,0.104-1.269,0.017c0.263,0.047,0.198,0.191,0.129,0.239l0.917-0.257
							c-0.031,0.252,0.184,0.197,0.414,0.313c-0.154-0.508,0.688-0.303,1.063-0.439c0.016,0.169-0.08,0.337-0.526,0.275
							c0.478,0.398,0.666-0.559,1.138-0.217c-0.109-0.002-0.168-0.029-0.216,0.055c0.263-0.139,0.884,0.009,0.729,0.148
							l-0.109-0.003c0.725,0.093,2.213,0.103,2.34-0.317c0.006,0.057-0.117,0.508-0.166,0.593l1.361-1.371
							c-0.131,0.358,0.27,1.248-0.344,1.428c0.172,0.06,0.384,0.13,0.754,0.019c-0.116-0.059-0.271-0.541-0.107-0.567
							c0.426,0.427,0.299,0.231,0.828,0.603c-0.174-0.086,0.049-0.648,0.327-0.619c-0.048,0.084-0.002,0.566-0.106,0.621
							l0.723-0.529c-0.18,0.093-0.053,0.475,0.096,0.64c-0.066-0.112,0.602,0.038,0.79-0.01l-0.289-0.144
							c0.782,0.119,0.812-0.756,1.59-0.69c-0.101,0.11-0.265,0.702,0.129,0.792c0.194-0.279,0.866-1.348,1.566-1.538l0.125,0.17
							l0.538-0.163c-0.35,0.418-1.315,1.287-1.836,1.619c0.287,0.145,0.072,0.197,0.514,0.202c0.148,0.161-0.25,0.224-0.38,0.228
							l1.021,0.146c-0.029-0.339,0.801-0.302,0.773-0.583l-1.13,0.298c-0.03-0.337,0.687-0.924,1.411-0.832
							c0.179,0.142-0.166,0.591-0.155,0.704c0.101-0.111,0.7-0.189,0.763-0.105l-0.316,0.166c0.4,0.146,0.682-0.414,1.152-0.072
							c0.168,0.029,0.481,0.455,0.521,0.258c-0.257-0.396-0.257-1.583-0.062-1.863c0.057,0.027,0.864,0.406,1.047,0.604
							c0.264,0.313-0.447,0.699-0.223,0.968c0.014-0.093,0.172-0.198,0.236-0.231c0.173,0.086-0.086,0.281,0.3,0.258
							c0.079-0.338,0.776,0.063,0.192-0.281c0.379-0.079,0.396,0.089,0.836,0.094c-0.129-0.227,0.43-0.73,0.809-0.813
							c-0.025,0.086,0.055,0.203,0.092,0.256c0.768,0.065,1.172,0.238,1.889,0.273c0.063,0.085,0.402,0.2,0.25,0.34
							c0.104-0.055,0.205-0.166,0.427-0.164c0.414,0.313-0.495,0.023-0.185,0.393c0.035-0.196,0.582-0.247,0.902-0.357
							c-0.083-0.31-0.725-0.091-1.045,0.02c0.018-0.422,0.586-0.838,1.343-1c0.601-0.078,0.246,0.283,0.353,0.229
							c1.113,0.124,0.984-0.693,1.897-0.348c0.356,0.285-0.007,0.535,0.065,0.732c-0.488,0.08-0.735-0.203-1.064-0.207l0.398,0.145
							c-0.158,0.082-0.484,0.136-0.657,0.05c0.298,0.255,1.886,0.132,2.737,0.394c0.156-0.084,0.426-0.164,0.306-0.278l-0.274,0.024
							c-0.24-0.228,0.526-0.275,0.187-0.393c0.373-0.137,0.794-0.357,1.303-0.212l0.084,0.312c-0.008-0.09-0.329-0.197-0.478-0.111
							c0.221-0.125,0.771,0.451,1.023,0.061l-0.352-0.229c0.374-0.139,0.843-0.442,1.295-0.325c-0.193-0.312-0.107,0.03-0.416-0.338
							c0.262,0.452-1.166-0.071-0.734,0.411c-0.314-0.426-0.568-0.199-0.988-0.569c0.01,0.103,0.146,0.2-0.235,0.133
							c-0.019,0.029-0.062,0.063-0.088,0.087c-0.011-0.005-0.017-0.007-0.024-0.01l0.021,0.014
							c-0.017,0.014-0.019,0.018,0.008,0.004c0.09,0.049,0.161,0.104,0.188,0.162c-0.201,0.225-0.811,0.188-1.021,0.301
							c-0.225-0.06,0.102-0.112-0.02-0.227L129.06,190c-0.021-0.227-0.588-0.398-0.046-0.507l-0.482-0.032
							c-0.277-0.139-0.666-0.206-0.91-0.122c-0.226-0.06-0.586,0.224-0.379,0.056l-0.764,0.105l-0.004-0.057
							c-0.745-0.063-1.553,0.303-2.389-0.141c-0.252,0.045-0.516,0.104-0.934,0.02l-0.072-0.196
							c-0.326,0.054-0.959-0.237-1.106-0.042c-0.325-0.538-1.562-0.184-2.123-0.303l-0.033,0.253
							c-0.39-0.031-0.767,0.022-1.256,0.104l0.021,0.225c-0.426,0.166-1.066-0.207-1.729-0.215c0.049-0.082,0.216-0.053,0.332,0.004
							c-0.767-0.541-1.683,0.293-2.382-0.106c-0.182,0.073-0.311,0.04-0.434-0.022c0.018,0.002,0.032-0.002,0.045-0.01
							c-0.019,0-0.045-0.002-0.072-0.006c-0.077-0.042-0.156-0.09-0.242-0.13c0.072,0.058,0.143,0.104,0.203,0.129
							c-0.139-0.001-0.348,0.017-0.555,0.063l-0.078-0.244c-0.017,0.002-0.027,0.003-0.047,0.005
							c-0.196-0.099-0.166,0.106-0.066,0.293c-0.105,0.034-0.201,0.078-0.277,0.133c-0.146-0.396-0.543,0.106-0.746-0.317
							c-0.146,0.195-1.035,0.105-1.164,0.525c-0.004-0.055-0.063-0.084,0.049-0.083c-0.228-0.06-0.453-0.116-0.662-0.007
							l-0.084-0.311l-0.516,0.39c-0.295-0.2-0.414-0.313-0.105-0.536c-0.74,0.33-0.594,0.109-1.227,0.441l0.038-0.196
							c-0.221-0.003-0.585,0.247-0.711,0.077c-0.476-0.398-2.438-0.161-3.688-0.567c0.221,0.595-0.575-0.286-0.646,0.162
							c-0.067-0.142-0.241-0.228-0.03-0.338c-0.651,0.106-0.961-0.263-1.424,0.101c-0.068-0.143,0.147-0.197,0.086-0.281
							c-0.054,0.026-0.212,0.11-0.275,0.024c-0.062-0.085,0.101-0.11,0.205-0.167c-0.66-0.006-0.746,0.415-0.813,0.813
							c-0.326-0.203-0.494-0.186-0.748,0.065c-0.109-0.136-0.298-0.28,0.114-0.31c-0.229-0.029-1.401-0.254-1.438,0.064
							c-0.068-0.084-0.322-0.039-0.384-0.005c-0.519-0.042-0.562-0.073-1.071-0.065l0.14,0.059
							c-0.218,0.377-0.427,0.066-0.839,0.096l0.014-0.039c-0.928-0.32-0.411,0.115-1.324-0.244l0.04,0.242
							c-0.108,0.512-0.808-0.341-1.354-0.168l0.188,0.146c-0.302,0.162-0.79-0.737-1.082-0.814
							c-0.063-0.048,0.104-0.066,0.196-0.097c-0.76-0.339-0.114,0.31-0.693,0.356c-0.099-0.174,0.156-0.426-0.229-0.475
							c-0.188-0.146-1.148,0.499-1.663,0.15c0.11,0.137,0.221,0.271-0.052,0.357c-0.411,0.027-1.086-0.543-1.475-0.148
							c-0.05-0.037-0.068-0.072-0.068-0.104c-0.318,0.092-1.026,0.129-1.226,0.344c-0.252-0.84-1.966,0.315-1.925-0.446
							l-0.965-0.003l0.028-0.076c-0.614-0.078-0.84,0.095-1.064,0.27c-0.14-0.06-0.033-0.125-0.02-0.166
							c-0.894-0.193-0.984-0.164-1.756,0.182l-0.067-0.252c-0.211,0.136-1.284-0.445-2.18-0.196c0.01-0.026,0.03-0.075,0.102-0.106
							c-1.006,0.246-2.347-0.793-2.751,0.092l-0.665,0.193c0.845,0.107-0.145,0.385,0.198,0.551
							c-0.336,0.039-0.851-0.311-0.438-0.338l0.063,0.047c0.171-0.463-1.047-0.213-1.01-0.533c-1.669-0.051-3.284-0.383-4.846-0.475
							l0.163,0.375l-0.544-0.047c-0.14-0.092-0.18-0.294,0.209-0.262c-0.195-0.217-0.66,0.145-0.675,0.225
							c-0.755-0.184,0.316-0.414,0.083-0.434l-0.318,0.014l0.07,0.047c-0.265,0.137-0.294,0.295-0.761,0.256
							c-0.293-0.088-0.142-0.232-0.258-0.252c0.002-0.025-0.036-0.039-0.178-0.02l-0.686-0.063l0.262,0.301
							c-0.311,0.129-0.646-0.043-0.343,0.298c-0.443-0.524-2.555-0.296-2.833-0.466c-0.436,0.191-0.856,0.17-1.377,0.121
							c0.127,0.064,0.19,0.394-0.258,0.332c0.194-0.66-0.811-0.326-1.152-0.824c0.311,0.334-1.282,0.021-0.793,0.498
							c-0.373-0.07-0.012-0.252-0.289-0.422c-0.904,0.22-1.961-0.256-3.068-0.219c-0.021,0.088,0.157,0.229-0.085,0.35l-0.563-0.465
							c-0.22,0.033-0.224,0.498-0.608,0.176c0.053,0.076,0.132,0.191-0.016,0.213c-2.144-0.525-4.435,0.152-6.595-0.75
							c0.29,0.184,0.091,0.191-0.137,0.188c0.146,0.047-0.014,0.217,0.011,0.338l-0.905-0.373c-0.183,0.324-0.986-0.021-1.097,0.291
							l0.294-0.045c-0.404,0.355,0.505,0.854,0.427,1.33c0.452-0.404,1.115,0.68,1.854,0.104c0.152,0.104-0.141,0.148-0.062,0.263
							c0.189-0.196,0.409-0.229,0.809-0.12l-0.048,0.049c1.136,0.002,1.612,0.226,2.88,0.418l-0.083-0.242
							c0.271,0.045,0.326,0.121,0.452,0.187c0.33-0.345-0.769-0.055-0.464-0.438c0.341,0.498,1.93,0.095,2.15,0.652
							c0.421,0.021-0.111-0.279,0.31-0.258l0.104,0.152l0.115-0.186c0.274,0.043,0.405,0.234,0.41,0.36
							c-0.066-0.019-0.191,0.026-0.264,0.034c0.35,0.189,1.012-0.016,1.132,0.048l-0.4-0.108c1.155-0.088,2.55,0.17,3.674-0.082
							l-0.079-0.115c0.856-0.168,0.673,0.153,1.608,0.101l-0.035,0.024c0.191-0.104,0.442-0.147,0.696-0.123
							c-0.24,0.119,0.431,0.272,0.116,0.404c0.93-0.182,0.463-0.154,1.089-0.541l0.131,0.19c0.215-0.158,0.236-0.246,0.703-0.272
							c-0.389,0.143,0.284,0.295-0.152,0.485c0.957,0.448,1.467-0.345,1.888,0.269c0.471-0.492-0.831-0.322-0.575-0.42
							c-0.203-0.178,0.387-0.367,0.69-0.302c0.311,0.024,0.5,0.679,1.284,0.704c-0.077-0.006-0.084,0.033-0.162,0.027
							c0.287,0.144,0.583-0.151,0.933,0.076c0.216-0.301,0.467,0.039,0.543-0.354l-0.724,0.059c0.412-0.084,0.815-0.529,1.477-0.275
							c-0.056,0.076-0.26,0.174-0.4,0.226c0.191,0.126,0.382-0.06,0.58,0.069c-0.076,0.393-0.878,0.047-1.328,0.328
							c0.203,0.177,0.839-0.25,0.601,0.17c0.34-0.531,0.77,0.104,1.318-0.289l-0.045,0.234c0.085-0.033,0.265-0.138,0.419-0.125
							l-0.294,0.295c0.441-0.241,0.818,0.268,1.237,0.144c-0.863-0.03-0.182-0.294-0.538-0.483c1.078-0.27,0.584,0.647,1.781,0.588
							c-0.163,0.025-0.6-0.17-0.343-0.269c0.226,0.06,0.521,0.163,0.654,0.294c0.792-0.015-0.11-0.25,0.232-0.38
							c0.256,0.302,0.393-0.101,0.743-0.179l-0.008,0.242c0.893,0.195,0.261-0.492,1.063-0.27l-0.357,0.318l0.426-0.066l-0.099,0.27
							c0.469-0.182,0.609-0.123,1.056-0.025c-0.097-0.175,0.078-0.436,0.478-0.425c0.266,0.155-0.163,0.223,0.404,0.214
							c-0.135,0.145-0.283,0.328-0.519,0.095c-0.029,0.077-0.133,0.146-0.162,0.222c0.285,0.179,0.733,0.072,0.938,0.078
							c-0.078-0.013-0.172-0.029-0.219-0.065l0.834-0.298c0.125,0.097,0.02,0.164-0.085,0.23c0.167-0.019,0.287-0.123,0.531-0.134
							c-0.071,0.192-0.065,0.396-0.415,0.474l0.79-0.184c0.048,0.088,0.39,0.252,0.285,0.318c0.428,0.136,1.078-0.332,1.646-0.153
							c0.031-0.037,0.093-0.069,0.216-0.093c0.537,0.068,1.004,0.33,1.655,0.09l0.347,0.367c0.504-0.057-0.472-0.465,0.368-0.561
							c0.595-0.085,0.206,0.311,0.409,0.418c0.301-0.164,0.827-0.502,1.356-0.191C86.668,190.171,86.529,190.113,86.361,190.132z
							 M92.54,190.253c-0.123,0.045-0.367,0.19-0.449,0.044C92.239,190.027,92.338,190.164,92.54,190.253z M101.946,190.094
							c-0.093,0.075-0.229,0.029-0.38-0.068C101.68,190.01,101.808,190.023,101.946,190.094z M128.153,189.586l-0.014,0.012
							C127.877,189.491,127.971,189.531,128.153,189.586z M128.702,189.716c0.059-0.03,0.055-0.065,0.033-0.1
							c-0.041,0.059-0.166,0.058-0.307,0.034C128.465,189.716,128.534,189.762,128.702,189.716z M69.218,187.146l0.105,0.066
							C69.076,187.271,69.147,187.212,69.218,187.146z"/>
						<path fill="#121212" d="M100.868,190.375c-0.033-0.042-0.039-0.088-0.046-0.134
							C100.773,190.279,100.771,190.327,100.868,190.375z"/>
						<path fill="#121212" d="M82.518,190.086l-0.019-0.003c-0.011,0.015-0.018,0.028-0.021,0.042L82.518,190.086z"/>
						<path fill="#121212" d="M120.032,191.374c-0.113-0.04-0.175-0.087-0.215-0.134
							C119.808,191.299,119.857,191.352,120.032,191.374z"/>
						<path fill="#121212" d="M131.657,189.438l-0.359,0.047c0.174-0.004,0.231,0.052,0.316,0.094
							C131.608,189.521,131.545,189.438,131.657,189.438z"/>
						<path fill="#121212" d="M134.668,191.066c0.054-0.027,0.109,0.002,0.162-0.025l-0.009-0.113
							C134.601,190.926,134.442,191.009,134.668,191.066z"/>
						<path fill="#121212" d="M131.948,190.253c0.02,0.204,0.245,0.146,0.495,0.119c-0.015,0-0.028,0.001-0.044-0.002
							C132.485,190.089,132.215,190.171,131.948,190.253z"/>
						<path fill="#121212" d="M132.5,190.367c0.078-0.006,0.156-0.008,0.23,0.005C132.766,190.26,132.639,190.346,132.5,190.367z"/>
						<path fill="#121212" d="M129.411,189.611c0.115,0.059,0.086-0.256,0.148-0.17C129.704,189.189,128.76,189.721,129.411,189.611
							z"/>
						<polygon fill="#121212" points="132.12,190.93 132.042,190.676 131.894,190.871 						"/>
						<path fill="#121212" d="M130.167,190.658l0.394,0.087c-0.004-0.042,0.048-0.063,0.11-0.081
							C130.426,190.646,130.159,190.584,130.167,190.658z"/>
						<path fill="#121212" d="M130.67,190.664c0.127,0.011,0.248,0.011,0.32-0.025C130.922,190.637,130.773,190.639,130.67,190.664z
							"/>
						<polygon fill="#121212" points="131.573,190.98 131.458,190.923 131.179,190.893 						"/>
						<path fill="#121212" d="M125.899,190.419l-0.438,0.052c-0.049,0.084,0.067,0.143,0.23,0.114
							C125.799,190.529,125.961,190.505,125.899,190.419z"/>
						<path fill="#121212" d="M127.179,191.162c-0.114-0.057-0.12-0.113-0.183-0.198l-0.026,0.31L127.179,191.162z"/>
						<path fill="#121212" d="M125.913,191.18c-0.047,0.084-0.642,0.219-0.091,0.223C125.87,191.318,126.307,191.268,125.913,191.18
							z"/>
						<polygon fill="#121212" points="119.399,190.493 119.51,190.494 119.517,189.984 						"/>
						<path fill="#121212" d="M113.588,191.452c0.509,0.146,0.137-0.31,0.595-0.136c0.126-0.114-0.374-0.142-0.246-0.239
							C113.622,191.189,113.461,191.111,113.588,191.452z"/>
						<path fill="#121212" d="M113.937,191.077c0.051-0.019,0.104-0.039,0.162-0.07
							C114.006,191.035,113.963,191.059,113.937,191.077z"/>
						<polygon fill="#121212" points="49.066,185.982 48.741,185.861 48.946,186.043 						"/>
						<path fill="#121212" d="M48.416,186.332l-0.063-0.327l-0.212,0.284C48.216,186.277,48.362,186.257,48.416,186.332z"/>
						<path fill="#121212" d="M93.426,190.945l0.029-0.075c-0.047-0.087-0.125-0.097-0.279-0.117L93.426,190.945z"/>
						<polygon fill="#121212" points="88.959,190.504 89.036,190.514 88.905,190.214 						"/>
						<path fill="#121212" d="M85.184,190.709c0.152,0.02,0.336-0.038,0.489-0.02C85.336,190.729,85.158,190.342,85.184,190.709z"/>
					</g>
				</g>
			</g>
		</g>
	</g>
	<g>
		<g>
			<g>
				<g>
					<g>
						<path fill="#121212" d="M136.879,193.027c-0.002,0.078,0.197,0.012,0.236,0.016
							C137.045,192.925,136.827,193.041,136.879,193.027z"/>
						<polygon fill="#121212" points="136.165,191.865 136.254,191.871 136.012,191.727 						"/>
						<path fill="#121212" d="M135.938,190.691c-0.328,0.181,0.141,0.414,0.059,0.647l-0.074,0.05l0.301,0.039
							C136.127,191.184,135.875,190.891,135.938,190.691z"/>
						<path fill="#121212" d="M136.571,189.918c-0.129,0.064-0.145-0.111-0.014,0.152c0.013-0.014,0.02-0.021,0.029-0.032
							C136.579,190.014,136.573,189.979,136.571,189.918z"/>
						<path fill="#121212" d="M136.586,190.038C136.622,190.16,136.686,189.936,136.586,190.038L136.586,190.038z"/>
						<path fill="#121212" d="M136.396,189.482l0.153,0.14c0.074-0.05,0.063-0.198,0.134-0.156
							C136.583,189.313,136.51,189.361,136.396,189.482z"/>
						<path fill="#121212" d="M136.11,189.38l0.066,0.074C136.209,189.434,136.215,189.408,136.11,189.38z"/>
						<path fill="#121212" d="M136.322,189.611l-0.146-0.157c-0.051,0.034-0.164,0.06,0.057,0.073
							C136.127,189.534,136.233,189.55,136.322,189.611z"/>
						<path fill="#121212" d="M136.29,189.725c-0.06,0.104-0.084,0.232-0.236,0.094C136.163,190.119,136.399,190.023,136.29,189.725
							z"/>
						<path fill="#121212" d="M135.563,190.704l-0.078,0.144l0.139,0.082C135.555,190.889,135.672,190.675,135.563,190.704z"/>
						<path fill="#121212" d="M136.377,188.436c-0.076,0.004-0.188,0.094-0.28,0.125l0.108,0.104
							C136.245,188.591,136.269,188.465,136.377,188.436z"/>
						<path fill="#121212" d="M136.097,188.561l-0.164-0.154C135.95,188.568,136.017,188.586,136.097,188.561z"/>
						<polygon fill="#121212" points="135.715,189.428 136.042,189.67 135.7,189.372 						"/>
						<polygon fill="#121212" points="136.25,187.746 136.443,187.814 136.146,187.686 						"/>
						<path fill="#121212" d="M136.131,187.297c0.156,0.049,0.221-0.15,0.324-0.089c-0.051-0.118-0.193-0.199-0.322-0.272
							C136.213,187.023,136.22,187.135,136.131,187.297z"/>
						<path fill="#121212" d="M135.94,186.807c0.044,0.045,0.116,0.084,0.191,0.129C136.088,186.889,136.032,186.846,135.94,186.807
							z"/>
						<path fill="#121212" d="M135.909,188.092c0.043-0.021,0.155-0.072,0.186-0.184l-0.195,0.111
							C135.901,188.042,135.905,188.066,135.909,188.092z"/>
						<path fill="#121212" d="M135.893,188.023l0.006-0.004c-0.009-0.078-0.016-0.131-0.02-0.154
							C135.881,187.885,135.885,187.934,135.893,188.023z"/>
						<path fill="#121212" d="M135.913,188.109l-0.004-0.019C135.89,188.104,135.883,188.107,135.913,188.109z"/>
						<path fill="#121212" d="M135.812,188.919c-0.138-0.082-0.308-0.276-0.442-0.028
							C135.526,188.938,135.604,188.795,135.812,188.919z"/>
						<path fill="#121212" d="M135.667,188.249l-0.01,0.201c0.055-0.017,0.129-0.065,0.197-0.024L135.667,188.249z"/>
						<polygon fill="#121212" points="135.583,188.169 135.667,188.249 135.67,188.175 						"/>
						<path fill="#121212" d="M135.809,187.173c-0.107-0.063-0.133-0.153-0.167-0.252c-0.021,0.117-0.021,0.233,0.002,0.343
							C135.711,187.266,135.84,187.288,135.809,187.173z"/>
						<path fill="#121212" d="M135.831,187.59l-0.016-0.016C135.799,187.589,135.795,187.6,135.831,187.59z"/>
						<polygon fill="#121212" points="135.444,185.917 135.409,185.939 135.446,185.938 						"/>
						<path fill="#121212" d="M135.608,187.288c-0.023,0.091,0.036,0.13,0.109,0.163c-0.032-0.057-0.059-0.119-0.074-0.188
							C135.612,187.262,135.592,187.266,135.608,187.288z"/>
						<path fill="#121212" d="M135.788,186.547c-0.035,0.051-0.063,0.105-0.088,0.165
							C135.758,186.656,135.845,186.551,135.788,186.547z"/>
						<path fill="#121212" d="M135.868,187.535l0.012,0.011C135.92,187.51,135.898,187.518,135.868,187.535z"/>
						<path fill="#121212" d="M135.868,187.535c-0.039-0.036-0.097-0.061-0.148-0.084c0.025,0.047,0.058,0.089,0.097,0.123
							C135.829,187.563,135.849,187.547,135.868,187.535z"/>
						<path fill="#121212" d="M134.04,185.879c0.196-0.023,0.418,0.156,0.248,0.385c0.182,0.154,0.797-0.092,1.121-0.322
							c-0.086,0.012-0.164,0.026-0.314-0.139c-0.094,0.086-0.166,0.467-0.373,0.342c-0.149-0.229,0.027-0.219,0.107-0.359
							c-0.223,0.15-0.416-0.248-0.762-0.123l0.169,0.193C134.182,185.87,134.077,185.809,134.04,185.879z"/>
						<path fill="#121212" d="M135.461,186.305l0.039,0.072c0.017-0.096,0.082-0.174,0.211-0.32
							c-0.121-0.109-0.198-0.123-0.266-0.119l0.049,0.389L135.461,186.305z"/>
						<path fill="#121212" d="M135.569,186.727c-0.223-0.02-0.35-0.188-0.556-0.029c0.06,0.227,0.208,0.125,0.325,0.244
							c-0.125-0.357,0.14,0.082,0.207-0.207c0.051,0.063,0.074,0.127,0.096,0.188c0.012-0.07,0.031-0.143,0.059-0.209l-0.012,0.012
							h0.001l-0.003,0.002c-0.023,0.021-0.038,0.028-0.025,0.008l-0.007-0.008c-0.03,0.004-0.058,0.002-0.083,0
							c0.021-0.115,0.051-0.027,0.083,0h0.032l0.002-0.002l-0.188-0.347C135.486,186.461,135.512,186.559,135.569,186.727z"/>
						<path fill="#121212" d="M134.875,188.783c0.017-0.016,0.031-0.018,0.047-0.021
							C134.891,188.743,134.872,188.736,134.875,188.783z"/>
						<path fill="#121212" d="M134.973,188.605c0.033,0.021,0.124,0.026,0.119,0.119c-0.049,0.088-0.102,0.02-0.17,0.037
							c0.065,0.041,0.188,0.152,0.258-0.031l-0.034-0.021c0.044-0.162,0.271-0.404,0.304-0.385
							C135.268,188.406,135.14,188.471,134.973,188.605z"/>
						<path fill="#121212" d="M135.215,187.666l-0.164-0.286l-0.152,0.192l0.107-0.029
							C134.999,187.727,135.125,187.661,135.215,187.666z"/>
						<polygon fill="#121212" points="135.543,185.861 135.774,185.857 135.424,185.743 						"/>
						<polygon fill="#121212" points="135.438,185.469 135.633,185.443 135.497,185.361 						"/>
						<path fill="#121212" d="M128.584,163.454l-0.072-0.079C128.538,163.414,128.561,163.438,128.584,163.454z"/>
						<path fill="#121212" d="M128.7,164.109l0.1-0.004C128.741,164.086,128.7,164.082,128.7,164.109z"/>
						<path fill="#121212" d="M133.481,175.686c0.155-0.168,0.407-0.369,0.191-0.312l-0.205,0.082
							C133.524,175.54,133.515,175.615,133.481,175.686z"/>
						<path fill="#121212" d="M130.886,169.23l-0.058,0.053c0.08,0.018,0.152,0.033,0.221,0.048
							C130.999,169.301,130.943,169.268,130.886,169.23z"/>
						<path fill="#121212" d="M129.987,169.313l0.104-0.199C130.049,169.161,130.015,169.227,129.987,169.313z"/>
						<path fill="#121212" d="M127.654,159.936l-0.237-0.063C127.452,160.037,127.545,159.943,127.654,159.936z"/>
						<path fill="#121212" d="M134.551,181.4c0.063-0.129,0.078-0.227,0.074-0.307C134.529,181.255,134.368,181.4,134.551,181.4z"/>
						<path fill="#121212" d="M130.894,163.266c-0.05-0.049-0.099-0.063-0.146-0.053
							C130.795,163.264,130.844,163.286,130.894,163.266z"/>
						<path fill="#121212" d="M134.56,180.768c-0.019,0.023-0.024,0.045-0.038,0.069c0.053,0.075,0.098,0.153,0.104,0.257
							C134.695,180.975,134.729,180.85,134.56,180.768z"/>
						<path fill="#121212" d="M125.277,146.979c0.009-0.012,0.011-0.022,0.021-0.033
							C125.268,146.945,125.269,146.96,125.277,146.979z"/>
						<path fill="#121212" d="M126.681,142.789c0.021,0.033,0.032,0.095,0.047,0.15C126.736,142.91,126.726,142.863,126.681,142.789
							z"/>
						<path fill="#121212" d="M135.213,183.848C135.245,183.928,135.239,183.854,135.213,183.848L135.213,183.848z"/>
						<path fill="#121212" d="M134.454,184.424c-0.029-0.014-0.062-0.021-0.111-0.014
							C134.396,184.406,134.431,184.412,134.454,184.424z"/>
						<path fill="#121212" d="M133.068,180.188l-0.001-0.008C133.032,180.212,133.038,180.206,133.068,180.188z"/>
						<path fill="#121212" d="M135.142,183.992c0.021-0.036,0.034-0.077,0.042-0.12C135.17,183.893,135.157,183.93,135.142,183.992z
							"/>
						<path fill="#121212" d="M135.238,183.955c-0.002,0.031-0.004,0.057-0.006,0.078
							C135.271,184.037,135.292,184.023,135.238,183.955z"/>
						<path fill="#121212" d="M135.179,183.73c0.013,0.047,0.012,0.095,0.005,0.142c0.011-0.021,0.021-0.029,0.029-0.024
							C135.206,183.82,135.195,183.787,135.179,183.73z"/>
						<path fill="#121212" d="M127.215,153.79c0.006-0.009,0.01-0.013,0.017-0.022C127.125,153.7,127.147,153.734,127.215,153.79z"
							/>
						<polygon fill="#121212" points="130.836,173.921 130.849,173.93 130.854,173.915 						"/>
						<path fill="#121212" d="M130.618,173.648c0.291,0.076,0.272,0.156,0.235,0.267l0.594-0.222L130.618,173.648z"/>
						<path fill="#121212" d="M128.213,161.904l-0.147,0.25c-0.364-0.194-0.294-0.402-0.522-0.148
							c0.672-0.102,0.231,0.814,0.902,0.713l-0.111,0.168c-0.002-0.041-0.043-0.039-0.043-0.08
							c-0.267,0.336,0.521,0.106,0.496,0.479c-0.026,0.133-0.106,0.238-0.203,0.17l0.22,0.24c0.003,0.082-0.116,0.086-0.119,0.005
							l0.136,0.405l-0.021,0.002c0.117,0.039,0.306,0.142,0.387,0.192c-0.074,0.125-0.08-0.038-0.158,0.005l0.207,0.199
							c-0.154,0.128-0.359-0.029-0.365-0.193c-0.623,0.347,0.205,0.158-0.092,0.699l-0.128-0.201
							c-0.351,0.215-0.18,0.358-0.366,0.651c0.111-0.083,0.496-0.61,0.713-0.394c-0.037,0.08-0.043,0.179,0.117,0.287
							c-0.236,0.049-0.152,0.168-0.105,0.332l-0.315,0.051c0.126,0.16,0.282,0.113,0.444,0.191c0.009,0.205-0.227,0.295-0.422,0.381
							c0.014,0.33,0.347-0.297,0.479,0.069c-0.067,0.288,0.097,0.449,0.349,0.729c-0.071,0.207-0.198,0.006-0.275,0.09l0.283,0.115
							c0.002,0.041-0.077,0.043-0.118,0.045c0.125,0.119,0.315-0.051,0.444,0.149c0.356-0.01-0.416,0.548,0.029,0.739
							c-0.076,0.084-0.199,0.006-0.316,0.05c0.33,0.319,0.25,0.28,0.656,0.517l-0.154,0.299c0.197-0.236,0.523-0.049,0.796,0.119
							c0.101-0.09,0.188-0.168,0.229-0.215l0.234,0.307c-0.043,0.051-0.156,0.037-0.3,0.008c0.03,0.018,0.062,0.033,0.088,0.048
							c-0.093,0.146-0.286,0.117-0.479,0.063c0.055-0.051,0.112-0.105,0.17-0.159c-0.207-0.046-0.435-0.083-0.613-0.029
							c0.039,0.015,0.08,0.052,0.105,0.095c-0.056-0.012-0.104-0.017-0.134,0c-0.03,0.019,0.045,0.039,0.136,0.08l-0.334,0.145
							l0.144-0.008l-0.132,0.486c0.416,0.249,0.988,0.424,1.231,0.899c-0.28-0.075-0.424,0.056-0.729,0.108
							c0.296-0.201-0.213-0.363-0.199-0.639c-0.008,0.143-0.157,0.143-0.215,0.117l0.385,0.408
							c-0.251,0.037-0.167,0.136-0.245,0.277c0.474-0.188,0.396,0.282,0.584,0.442c-0.163,0.045-0.34,0.032-0.346-0.207
							c-0.319,0.328,0.642,0.216,0.377,0.528c-0.015-0.055,0.004-0.092-0.084-0.098c0.173,0.104,0.12,0.449-0.038,0.401
							l-0.016-0.056c0.017,0.387,0.223,1.144,0.65,1.117c-0.053,0.015-0.513,0.051-0.602,0.043l1.535,0.394
							c-0.369,0.012-1.178,0.407-1.441,0.136c-0.033,0.1-0.07,0.223,0.093,0.385c0.039-0.07,0.488-0.254,0.537-0.177
							c-0.354,0.308-0.183,0.2-0.467,0.55c0.06-0.105,0.642-0.115,0.651,0.032c-0.088-0.007-0.553,0.121-0.621,0.08l0.623,0.251
							c-0.117-0.07-0.471,0.076-0.611,0.188c0.102-0.059,0.052,0.313,0.125,0.397l0.1-0.178c-0.005,0.423,0.854,0.248,0.904,0.655
							c-0.124-0.025-0.727,0.02-0.754,0.236c0.301,0.038,1.439,0.147,1.729,0.461l-0.146,0.1l0.236,0.238
							c-0.459-0.086-1.446-0.388-1.847-0.58c-0.099,0.178-0.183,0.08-0.122,0.306c-0.136,0.11-0.255-0.079-0.277-0.144l0.008,0.549
							c0.326-0.09,0.41,0.338,0.682,0.265l-0.455-0.509c0.324-0.088,1.002,0.148,1.018,0.535c-0.111,0.121-0.602,0.045-0.709,0.074
							c0.123,0.025,0.287,0.313,0.214,0.363l-0.208-0.125c-0.082,0.232,0.505,0.255,0.238,0.568
							c-0.004,0.091-0.373,0.343-0.174,0.318c0.348-0.216,1.506-0.474,1.807-0.436c-0.018,0.035-0.27,0.525-0.436,0.662
							c-0.267,0.199-0.746-0.076-0.976,0.096c0.092-0.013,0.218,0.045,0.261,0.07c-0.061,0.105-0.287,0.018-0.207,0.207
							c0.342-0.033,0.053,0.408,0.301,0.037c0.135,0.175-0.027,0.22,0.031,0.443c0.202-0.115,0.775,0.059,0.91,0.233
							c-0.088,0.005-0.189,0.069-0.236,0.103c0.049,0.401-0.062,0.646,0.01,1.016c-0.074,0.05-0.137,0.248-0.297,0.199
							c0.069,0.041,0.192,0.067,0.225,0.182c-0.246,0.277-0.096-0.246-0.41-0.01c0.197-0.023,0.327,0.242,0.48,0.381
							c0.289-0.109-0.018-0.387-0.17-0.525c0.412-0.082,0.901,0.115,1.17,0.465c0.164,0.286-0.24,0.187-0.172,0.228
							c0.041,0.592,0.819,0.349,0.616,0.887c-0.228,0.242-0.522,0.112-0.705,0.192c-0.149-0.23,0.091-0.418,0.048-0.586
							l-0.084,0.233c-0.104-0.063-0.203-0.216-0.145-0.321c-0.206,0.205,0.146,0.982,0.016,1.472
							c0.104,0.062,0.223,0.18,0.316,0.095l-0.064-0.134c0.188-0.171,0.346,0.207,0.41,0.01c0.188,0.159,0.465,0.324,0.396,0.613
							l-0.291,0.108c0.087-0.021,0.146-0.209,0.039-0.266c0.154,0.085-0.326,0.488,0.091,0.532l0.172-0.228
							c0.188,0.158,0.555,0.33,0.506,0.584c0.274-0.164-0.045-0.047,0.271-0.283c-0.403,0.23-0.102-0.605-0.51-0.283
							c0.369-0.252,0.112-0.331,0.412-0.623c-0.099,0.025-0.175,0.117-0.164-0.092c-0.031-0.002-0.072-0.016-0.097-0.025
							l0.005-0.016l-0.01,0.015c-0.018-0.006-0.02-0.006-0.003,0.005c-0.034,0.057-0.079,0.104-0.132,0.131
							c-0.246-0.054-0.303-0.369-0.44-0.453c0.024-0.125,0.124,0.027,0.218-0.058l-0.209-0.124c0.219-0.061,0.305-0.385,0.488-0.134
							l-0.039-0.251c0.096-0.172,0.104-0.383-0.014-0.488c0.023-0.127-0.303-0.248-0.109-0.18l-0.214-0.363l0.054-0.016
							c-0.048-0.391-0.521-0.721-0.21-1.238c-0.081-0.119-0.176-0.239-0.155-0.469l0.182-0.08c-0.1-0.153,0.093-0.538-0.12-0.57
							c0.478-0.279-0.048-0.83-0.015-1.141l-0.252,0.037c-0.025-0.203-0.135-0.383-0.283-0.613l-0.217,0.061
							c-0.225-0.182,0.047-0.586-0.043-0.924c0.088,0.008,0.084,0.098,0.045,0.169c0.416-0.506-0.531-0.788-0.242-1.229
							c-0.1-0.075-0.084-0.147-0.042-0.223c0.002,0.008,0.008,0.014,0.016,0.021c0.001-0.011-0.001-0.024-0.004-0.039
							c0.029-0.048,0.065-0.099,0.093-0.149c-0.047,0.049-0.084,0.094-0.098,0.131c-0.02-0.07-0.066-0.174-0.145-0.269l0.229-0.092
							c-0.005-0.009-0.007-0.013-0.012-0.022c0.066-0.121-0.129-0.062-0.295,0.028c-0.051-0.045-0.105-0.084-0.17-0.11
							c0.363-0.16-0.185-0.252,0.199-0.447c-0.212-0.031-0.254-0.502-0.682-0.476c0.053-0.015,0.072-0.051,0.088,0.007
							c0.023-0.127,0.048-0.255-0.09-0.338l0.29-0.109l-0.454-0.176c0.15-0.193,0.245-0.279,0.507-0.17
							c-0.43-0.304-0.194-0.277-0.608-0.525l0.197-0.022c-0.029-0.112-0.326-0.243-0.18-0.344c0.318-0.327-0.198-1.271,0.016-1.991
							c-0.547,0.24,0.196-0.354-0.252-0.293c0.129-0.064,0.188-0.171,0.324-0.088c-0.197-0.309,0.115-0.544-0.304-0.7
							c0.129-0.065,0.213,0.032,0.286-0.019c-0.034-0.021-0.139-0.082-0.064-0.133c0.073-0.051,0.123,0.025,0.191,0.066
							c-0.09-0.336-0.514-0.288-0.908-0.234c0.15-0.209,0.107-0.291-0.174-0.365c0.115-0.086,0.23-0.211,0.318-0.01
							c-0.006-0.123,0.043-0.765-0.272-0.715c0.071-0.053-0.011-0.17-0.052-0.195c-0.034-0.271-0.012-0.299-0.094-0.557
							l-0.035,0.084c-0.399-0.029-0.129-0.201-0.215-0.404l0.039-0.002c0.178-0.539-0.173-0.185,0.045-0.725l-0.229,0.073
							c-0.515,0.055,0.214-0.483-0.034-0.724l-0.113,0.127c-0.203-0.117,0.604-0.561,0.637-0.726
							c0.037-0.042,0.082,0.039,0.123,0.079c0.22-0.458-0.318,0.01-0.448-0.273c0.155-0.088,0.437-0.014,0.428-0.22
							c0.115-0.127-0.653-0.474-0.39-0.81c-0.116,0.085-0.232,0.17-0.355,0.051c-0.088-0.202,0.371-0.668-0.07-0.779
							c0.029-0.033,0.062-0.05,0.094-0.058c-0.137-0.142-0.277-0.491-0.516-0.546c0.782-0.311-0.595-0.928,0.155-1.072l-0.14-0.488
							l0.08-0.002c-0.014-0.328-0.215-0.406-0.418-0.482c0.037-0.082,0.117-0.043,0.158-0.045c0.06-0.494,0.019-0.534-0.433-0.85
							l0.235-0.09c-0.162-0.076,0.248-0.747-0.125-1.146c0.027,0,0.076,0,0.117,0.029c-0.387-0.457,0.434-1.361-0.49-1.375
							l-0.284-0.295c0.019,0.451-0.397,0.012-0.509,0.221c-0.086-0.162,0.18-0.498,0.267-0.297l-0.038,0.043
							c0.479-0.014,0.057-0.576,0.373-0.627c-0.193-0.856-0.104-1.748-0.242-2.559l-0.342,0.164l-0.033-0.286
							c0.067-0.09,0.26-0.153,0.284,0.05c0.183-0.146-0.235-0.304-0.315-0.294c0.067-0.422,0.449,0.071,0.435-0.052l-0.06-0.158
							l-0.035,0.047c-0.172-0.105-0.33-0.086-0.36-0.33c0.042-0.168,0.206-0.123,0.208-0.186c0.025-0.006,0.033-0.027-0.008-0.096
							l-0.039-0.359l-0.256,0.197c-0.172-0.129-0.051-0.336-0.34-0.109c0.447-0.338-0.084-1.357,0.041-1.535
							c-0.25-0.18-0.289-0.396-0.317-0.672c-0.046,0.078-0.356,0.182-0.362-0.059c0.674-0.045,0.2-0.481,0.637-0.764
							c-0.28,0.229-0.209-0.645-0.602-0.293c0.016-0.205,0.243-0.061,0.369-0.238c-0.346-0.41-0.035-1.049-0.234-1.603
							c-0.088,0.009-0.201,0.13-0.354,0.033l0.372-0.388c-0.063-0.104-0.519-0.004-0.261-0.27c-0.065,0.043-0.168,0.108-0.209,0.038
							c0.199-1.198-0.797-2.214-0.229-3.504c-0.137,0.187-0.174,0.088-0.203-0.028c-0.024,0.084-0.214,0.041-0.327,0.078l0.23-0.539
							c-0.342-0.021-0.122-0.504-0.441-0.492l0.086,0.14c-0.406-0.128-0.76,0.44-1.234,0.505c0.46,0.143-0.5,0.712,0.168,0.962
							c-0.079,0.101-0.165-0.04-0.266,0.024c0.221,0.054,0.283,0.158,0.234,0.385l-0.055-0.014c0.164,0.574,0.017,0.865,0.014,1.549
							l0.223-0.094c-0.002,0.146-0.07,0.19-0.115,0.269c0.386,0.093-0.059-0.399,0.359-0.329c-0.436,0.279,0.189,0.997-0.322,1.23
							c0.041,0.217,0.256-0.117,0.297,0.101l-0.135,0.087l0.198,0.018c-0.003,0.148-0.171,0.258-0.293,0.287
							c0.009-0.037-0.054-0.093-0.071-0.127c-0.135,0.219,0.162,0.51,0.119,0.584l0.047-0.227c0.254,0.566,0.207,1.328,0.615,1.843
							l0.102-0.063c0.289,0.396-0.051,0.373,0.138,0.836l-0.029-0.012c0.128,0.073,0.208,0.19,0.222,0.325
							c-0.151-0.097-0.203,0.277-0.377,0.146c0.312,0.433,0.217,0.201,0.687,0.435l-0.167,0.108
							c0.186,0.074,0.273,0.064,0.367,0.297c-0.193-0.166-0.245,0.207-0.495,0.027c-0.3,0.582,0.549,0.668,0.013,1.015
							c0.551,0.132,0.193-0.49,0.327-0.384c0.144-0.141,0.414,0.117,0.396,0.285c0.021,0.164-0.59,0.4-0.5,0.805
							c-0.006-0.041-0.045-0.036-0.051-0.077c-0.099,0.178,0.232,0.263,0.061,0.489c0.324,0.045,0.031,0.244,0.425,0.197
							l-0.163-0.354c0.145,0.189,0.637,0.299,0.484,0.688c-0.084-0.012-0.207-0.095-0.278-0.152
							c-0.095,0.123,0.114,0.18,0.019,0.309c-0.396,0.047-0.175-0.436-0.516-0.602c-0.143,0.141,0.366,0.369-0.077,0.341
							c0.567,0.058,0.013,0.412,0.474,0.604l-0.235,0.027c0.046,0.036,0.173,0.104,0.183,0.186l-0.33-0.084
							c0.303,0.17-0.141,0.473,0.043,0.656c-0.097-0.443,0.26-0.154,0.393-0.377c0.421,0.487-0.547,0.438-0.313,1.029
							c-0.051-0.077,0.077-0.342,0.211-0.23c-0.025,0.127-0.084,0.299-0.191,0.396c0.129,0.397,0.228-0.11,0.404,0.034
							c-0.256,0.195,0.154,0.178,0.28,0.339l-0.235,0.048c-0.061,0.495,0.518,0.025,0.416,0.48l-0.362-0.111l0.128,0.201
							l-0.278,0.008c0.247,0.197,0.21,0.281,0.181,0.529c0.156-0.088,0.437-0.055,0.483,0.148c-0.112,0.169-0.239-0.033-0.149,0.251
							c-0.16-0.036-0.36-0.071-0.168-0.241c-0.08,0.002-0.16-0.035-0.239-0.033c-0.132,0.183,0.038,0.387,0.062,0.492
							c0.002-0.043,0.004-0.095,0.032-0.125l0.412,0.356c-0.076,0.084-0.158,0.046-0.238,0.007c0.044,0.081,0.163,0.119,0.208,0.241
							c-0.197,0.005-0.396,0.052-0.521-0.108l0.293,0.36c-0.077,0.044-0.188,0.252-0.27,0.214c-0.068,0.246,0.481,0.475,0.391,0.801
							c0.041,0.008,0.082,0.031,0.123,0.09c0.012,0.287-0.176,0.58,0.152,0.856l-0.308,0.256c0.129,0.242,0.384-0.34,0.599,0.063
							c0.172,0.283-0.271,0.173-0.346,0.299c0.203,0.117,0.609,0.311,0.384,0.646C128.221,162.068,128.256,161.984,128.213,161.904z
							 M128.997,165.061c-0.063-0.053-0.238-0.146-0.108-0.217C129.172,164.859,129.054,164.939,128.997,165.061z M130.523,169.791
							c-0.087-0.029-0.063-0.109,0.013-0.207C130.565,169.639,130.57,169.706,130.523,169.791z M134.838,182.958l-0.014-0.005
							C134.89,182.798,134.863,182.854,134.838,182.958z M134.792,183.264c0.039,0.022,0.07,0.014,0.103-0.005
							c-0.063-0.008-0.081-0.071-0.079-0.147C134.756,183.145,134.722,183.189,134.792,183.264z M128.629,152.572l-0.051,0.066
							C128.485,152.527,128.554,152.551,128.629,152.572z"/>
						<path fill="#121212" d="M130.09,169.307c0.037-0.025,0.08-0.039,0.125-0.053C130.17,169.236,130.124,169.246,130.09,169.307z"
							/>
						<path fill="#121212" d="M127.698,159.947l0.002-0.012c-0.016-0.002-0.031-0.002-0.046,0L127.698,159.947z"/>
						<path fill="#121212" d="M131.909,179.23c0.022-0.065,0.061-0.106,0.1-0.139C131.952,179.102,131.907,179.139,131.909,179.23z"
							/>
						<path fill="#121212" d="M135.493,184.7l-0.098-0.171c0.029,0.086-0.018,0.127-0.045,0.18
							C135.404,184.693,135.478,184.645,135.493,184.7z"/>
						<path fill="#121212" d="M134.342,186.579c0.035,0.021,0.016,0.058,0.05,0.077l0.108-0.029
							C134.471,186.516,134.366,186.452,134.342,186.579z"/>
						<path fill="#121212" d="M134.741,185.023c-0.197,0.056-0.107,0.156-0.045,0.277c-0.002-0.008-0.005-0.015-0.004-0.023
							C134.978,185.262,134.858,185.143,134.741,185.023z"/>
						<path fill="#121212" d="M134.709,185.33c0.018,0.037,0.029,0.076,0.027,0.117C134.853,185.439,134.75,185.395,134.709,185.33z
							"/>
						<path fill="#121212" d="M134.995,183.602c-0.039,0.07,0.262-0.013,0.188,0.037
							C135.45,183.656,134.795,183.294,134.995,183.602z"/>
						<polygon fill="#121212" points="134.104,185.259 134.342,185.164 134.129,185.131 						"/>
						<path fill="#121212" d="M134.084,184.21l-0.026,0.218c0.04-0.011,0.069,0.012,0.095,0.039
							C134.136,184.339,134.157,184.189,134.084,184.21z"/>
						<path fill="#121212" d="M134.152,184.467c0.009,0.066,0.024,0.129,0.073,0.156
							C134.215,184.589,134.192,184.514,134.152,184.467z"/>
						<polygon fill="#121212" points="133.976,184.993 134.015,184.922 134.004,184.773 						"/>
						<path fill="#121212" d="M133.697,181.996l-0.114-0.21c-0.09-0.007-0.129,0.065-0.078,0.142
							C133.573,181.971,133.622,182.047,133.697,181.996z"/>
						<path fill="#121212" d="M133.157,182.807c0.039-0.07,0.094-0.086,0.168-0.137l-0.307,0.055L133.157,182.807z"/>
						<path fill="#121212" d="M132.958,182.167c-0.09-0.005-0.308-0.276-0.231,0.004
							C132.814,182.178,132.929,182.387,132.958,182.167z"/>
						<polygon fill="#121212" points="132.676,178.721 132.691,178.775 133.189,178.669 						"/>
						<path fill="#121212" d="M130.895,175.984c-0.066,0.287,0.32,0.002,0.218,0.271c0.132,0.039,0.084-0.22,0.198-0.176
							C131.154,175.943,131.208,175.846,130.895,175.984z"/>
						<path fill="#121212" d="M131.311,176.079c0.023,0.021,0.055,0.044,0.092,0.065
							C131.362,176.105,131.334,176.089,131.311,176.079z"/>
						<polygon fill="#121212" points="126.825,142.111 126.896,141.92 126.75,142.063 						"/>
						<path fill="#121212" d="M126.391,141.857l0.311-0.104l-0.309-0.045C126.415,141.744,126.456,141.813,126.391,141.857z"/>
						<path fill="#121212" d="M128.45,165.66l0.078-0.002c0.077-0.043,0.076-0.084,0.073-0.166L128.45,165.66z"/>
						<polygon fill="#121212" points="128.23,163.301 128.231,163.342 128.504,163.211 						"/>
						<path fill="#121212" d="M127.479,161.434c0.004,0.08,0.086,0.162,0.09,0.244C127.483,161.514,127.834,161.34,127.479,161.434z
							"/>
					</g>
				</g>
			</g>
		</g>
	</g>
</g>
</svg>
