<?xml version="1.0" encoding="utf-8"?>
<!-- Generator: Adobe Illustrator 16.0.0, SVG Export Plug-In . SVG Version: 6.00 Build 0)  -->
<!DOCTYPE svg PUBLIC "-//W3C//DTD SVG 1.0//EN" "http://www.w3.org/TR/2001/REC-SVG-20010904/DTD/svg10.dtd">
<svg version="1.0" id="Layer_1" xmlns="http://www.w3.org/2000/svg" xmlns:xlink="http://www.w3.org/1999/xlink" x="0px" y="0px"
	 width="229.069px" height="220.689px" viewBox="0 0 229.069 220.689" enable-background="new 0 0 229.069 220.689"
	 xml:space="preserve">
<g>
	<g>
		<g>
			<g>
				<g>
					<g>
						<path fill="#FFFFFF" d="M178.614,197.448c0.034,0.337,0.223,0.188,0.269,0.233
							C178.748,197.128,178.563,197.471,178.614,197.448z"/>
						<polygon fill="#FFFFFF" points="177.27,192.013 177.369,192.097 177.034,191.32 						"/>
						<path fill="#FFFFFF" d="M176.367,186.884c-0.262,0.55,0.439,1.838,0.463,2.776l-0.056,0.166l0.348,0.363
							C176.924,189.078,176.412,187.683,176.367,186.884z"/>
						<path fill="#FFFFFF" d="M176.584,184.006c-0.103,0.196-0.233-0.567,0.084,0.646c0.006-0.062,0.008-0.084,0.012-0.122
							C176.656,184.419,176.626,184.267,176.584,184.006z"/>
						<path fill="#FFFFFF" d="M176.68,184.529C176.797,185.067,176.725,184.153,176.68,184.529L176.68,184.529z"/>
						<path fill="#FFFFFF" d="M176.107,182.052l0.263,0.687c0.051-0.166-0.057-0.804,0.049-0.58
							C176.207,181.442,176.157,181.609,176.107,182.052z"/>
						<path fill="#FFFFFF" d="M175.72,181.433l0.124,0.357C175.865,181.718,175.857,181.618,175.72,181.433z"/>
						<path fill="#FFFFFF" d="M176.107,182.548l-0.264-0.758c-0.036,0.115-0.146,0.149,0.11,0.35
							C175.838,182.098,175.968,182.231,176.107,182.548z"/>
						<path fill="#FFFFFF" d="M176.142,183.001c0.003,0.414,0.057,0.938-0.205,0.251C176.253,184.6,176.46,184.351,176.142,183.001z
							"/>
						<path fill="#FFFFFF" d="M175.953,186.691l0.002,0.551l0.209,0.437C176.061,187.461,176.057,186.638,175.953,186.691z"/>
						<path fill="#FFFFFF" d="M175.293,177.606c-0.084-0.027-0.141,0.282-0.223,0.357l0.209,0.501
							C175.267,178.186,175.192,177.667,175.293,177.606z"/>
						<path fill="#FFFFFF" d="M175.07,177.964l-0.313-0.75C174.908,177.913,174.999,178.026,175.07,177.964z"/>
						<polygon fill="#FFFFFF" points="175.308,181.39 175.83,182.62 175.255,181.143 						"/>
						<polygon fill="#FFFFFF" points="174.593,174.624 174.869,175.024 174.424,174.301 						"/>
						<path fill="#FFFFFF" d="M174.093,172.656c0.219,0.291,0.131-0.511,0.301-0.187c-0.166-0.528-0.42-0.95-0.641-1.33
							C173.932,171.559,174.057,172.023,174.093,172.656z"/>
						<path fill="#FFFFFF" d="M173.403,170.496c0.094,0.207,0.217,0.416,0.35,0.644
							C173.656,170.917,173.546,170.703,173.403,170.496z"/>
						<path fill="#FFFFFF" d="M174.479,175.879c0.03-0.07,0.119-0.215,0.065-0.664l-0.135,0.357
							C174.431,175.666,174.454,175.771,174.479,175.879z"/>
						<path fill="#FFFFFF" d="M174.404,175.584l0.005-0.012c-0.073-0.334-0.125-0.565-0.146-0.665
							C174.28,174.993,174.323,175.196,174.404,175.584z"/>
						<path fill="#FFFFFF" d="M174.496,175.957c-0.006-0.028-0.011-0.05-0.018-0.078
							C174.466,175.914,174.463,175.934,174.496,175.957z"/>
						<path fill="#FFFFFF" d="M175.031,179.306c-0.226-0.432-0.576-1.354-0.535-0.393
							C174.717,179.208,174.692,178.657,175.031,179.306z"/>
						<path fill="#FFFFFF" d="M174.327,176.399l0.149,0.837c0.051-0.028,0.096-0.197,0.207,0.016L174.327,176.399z"/>
						<polygon fill="#FFFFFF" points="174.165,176.011 174.327,176.399 174.271,176.089 						"/>
						<path fill="#FFFFFF" d="M173.602,171.951c-0.188-0.33-0.304-0.716-0.44-1.148c0.09,0.479,0.203,0.969,0.332,1.429
							C173.576,172.279,173.749,172.451,173.602,171.951z"/>
						<path fill="#FFFFFF" d="M173.985,173.719c-0.01-0.024-0.021-0.054-0.031-0.076
							C173.948,173.695,173.952,173.736,173.985,173.719z"/>
						<polygon fill="#FFFFFF" points="171.961,166.499 171.943,166.579 171.983,166.585 						"/>
						<path fill="#FFFFFF" d="M173.477,172.32c0.063,0.36,0.152,0.563,0.268,0.748c-0.079-0.264-0.162-0.54-0.251-0.837
							C173.456,172.21,173.435,172.21,173.477,172.32z"/>
						<path fill="#FFFFFF" d="M172.972,169.32c0.008,0.195,0.029,0.413,0.057,0.641C173.044,169.765,173.043,169.37,172.972,169.32z
							"/>
						<path fill="#FFFFFF" d="M173.983,173.508l0.021,0.051C174.021,173.431,174.004,173.451,173.983,173.508z"/>
						<path fill="#FFFFFF" d="M173.983,173.508c-0.073-0.176-0.159-0.307-0.239-0.439c0.068,0.212,0.139,0.407,0.21,0.574
							C173.959,173.595,173.971,173.545,173.983,173.508z"/>
						<path fill="#FFFFFF" d="M170.282,165.586c0.207,0.005,0.64,0.875,0.658,1.729c0.36,0.74,0.845,0.052,1.003-0.736
							c-0.09,0-0.167,0.021-0.505-0.754c-0.024,0.314,0.258,1.862-0.104,1.231c-0.396-1.04-0.178-0.895-0.222-1.444
							c-0.113,0.511-0.723-1.257-1.015-0.916l0.392,0.896C170.44,165.625,170.259,165.312,170.282,165.586z"/>
						<path fill="#FFFFFF" d="M172.354,168.126l0.116,0.326c-0.072-0.389-0.072-0.682-0.063-1.225
							c-0.247-0.528-0.351-0.623-0.424-0.643l0.431,1.647L172.354,168.126z"/>
						<path fill="#FFFFFF" d="M172.889,169.947c-0.28-0.204-0.592-0.978-0.68-0.427c0.286,0.971,0.364,0.636,0.617,1.194
							c-0.491-1.562,0.242,0.421,0.042-0.749c0.122,0.301,0.211,0.576,0.293,0.837c-0.054-0.291-0.1-0.573-0.133-0.842
							c-0.001,0.016-0.002,0.026-0.003,0.04l0.003,0.007h-0.004c-0.007,0.075-0.017,0.102-0.022,0.021
							c-0.004-0.004-0.011-0.023-0.014-0.031C172.956,169.994,172.923,169.972,172.889,169.947c-0.083-0.469,0.035-0.087,0.1,0.05
							c0.012,0.002,0.024,0.012,0.036,0.011l0.001-0.007l-0.555-1.549C172.535,168.795,172.658,169.212,172.889,169.947z"/>
						<path fill="#FFFFFF" d="M173.843,178.169c0.007-0.053,0.022-0.055,0.037-0.062
							C173.829,178.011,173.803,177.976,173.843,178.169z"/>
						<path fill="#FFFFFF" d="M173.814,177.487c0.057,0.108,0.163,0.185,0.231,0.565c0.014,0.34-0.102,0.021-0.166,0.055
							c0.109,0.213,0.339,0.757,0.272,0.023l-0.056-0.105c-0.08-0.656-0.015-1.542,0.04-1.437
							C173.993,176.82,173.898,177.018,173.814,177.487z"/>
						<path fill="#FFFFFF" d="M173.34,173.68c0,0-0.104-0.325-0.209-0.649c-0.1-0.326-0.222-0.646-0.222-0.646
							s0.001,0.179,0.003,0.357c-0.005,0.18-0.01,0.36-0.01,0.36l0.1-0.063C173.139,173.804,173.234,173.607,173.34,173.68z"/>
						<polygon fill="#FFFFFF" points="172.022,166.319 172.289,166.431 171.769,165.76 						"/>
						<polygon fill="#FFFFFF" points="171.519,164.616 171.726,164.623 171.474,164.209 						"/>
						<path fill="#FFFFFF" d="M117.634,82.449l-0.34-0.211C117.449,82.345,117.554,82.408,117.634,82.449z"/>
						<path fill="#FFFFFF" d="M119.792,84.331l0.116-0.025C119.775,84.255,119.709,84.248,119.792,84.331z"/>
						<path fill="#FFFFFF" d="M154.591,124.51c-0.125-0.601-0.197-1.313-0.355-1.142l-0.101,0.264
							C154.368,123.969,154.501,124.255,154.591,124.51z"/>
						<path fill="#FFFFFF" d="M136.853,100.597c0.019,0.056,0.038,0.115,0.057,0.174c0.146,0.062,0.284,0.12,0.409,0.173
							C137.178,100.839,137.019,100.721,136.853,100.597z"/>
						<path fill="#FFFFFF" d="M135.899,100.848l-0.374-0.679C135.597,100.333,135.715,100.553,135.899,100.848z"/>
						<path fill="#FFFFFF" d="M105.036,73.231l-0.503-0.072C105.131,73.56,104.93,73.29,105.036,73.231z"/>
						<path fill="#FFFFFF" d="M165.451,147.481c-0.113-0.498-0.233-0.884-0.357-1.214
							C165.21,146.877,165.222,147.399,165.451,147.481z"/>
						<path fill="#FFFFFF" d="M120.008,81.433c-0.214-0.128-0.324-0.162-0.35-0.121C119.877,81.446,120.014,81.507,120.008,81.433z"
							/>
						<path fill="#FFFFFF" d="M164.539,144.919c0.019,0.092,0.035,0.175,0.054,0.266c0.175,0.328,0.343,0.66,0.501,1.083
							C165.009,145.817,164.866,145.318,164.539,144.919z"/>
						<path fill="#FFFFFF" d="M52.202,55.371c-0.042-0.011-0.086-0.021-0.127-0.032C52.062,55.368,52.118,55.372,52.202,55.371z"/>
						<path fill="#FFFFFF" d="M35.49,54.063c0.162-0.039,0.429-0.082,0.681-0.125C36.046,53.942,35.84,53.977,35.49,54.063z"/>
						<path fill="#FFFFFF" d="M169.426,157.784C169.555,158.138,169.467,157.833,169.426,157.784L169.426,157.784z"/>
						<path fill="#FFFFFF" d="M169.171,159.795c-0.048-0.068-0.096-0.116-0.146-0.109
							C169.084,159.698,169.132,159.737,169.171,159.795z"/>
						<path fill="#FFFFFF" d="M161.866,141.99c-0.005-0.01-0.009-0.018-0.014-0.029C161.86,142.079,161.859,142.059,161.866,141.99z
							"/>
						<path fill="#FFFFFF" d="M169.506,158.354c-0.019-0.143-0.047-0.305-0.087-0.479
							C169.427,157.955,169.452,158.102,169.506,158.354z"/>
						<path fill="#FFFFFF" d="M169.579,158.25c0.032,0.126,0.058,0.226,0.081,0.319C169.709,158.604,169.718,158.557,169.579,158.25
							z"/>
						<path fill="#FFFFFF" d="M169.254,157.288c0.069,0.204,0.121,0.398,0.165,0.588c-0.009-0.075-0.007-0.109,0.007-0.092
							C169.389,157.68,169.338,157.532,169.254,157.288z"/>
						<path fill="#FFFFFF" d="M81.973,60.66c-0.021-0.015-0.043-0.03-0.067-0.047C81.524,60.563,81.683,60.608,81.973,60.66z"/>
						<path fill="#FFFFFF" d="M147.678,117.283l0.031,0.031c-0.007-0.016-0.016-0.036-0.022-0.051L147.678,117.283z"/>
						<path fill="#FFFFFF" d="M146.84,116.233c0.525,0.338,0.669,0.632,0.847,1.029l0.295-0.712L146.84,116.233z"/>
						<path fill="#FFFFFF" d="M112.27,78.185l0.627,0.715c-1.097-0.423-1.678-0.998-1.146-0.255c0.259-0.23,0.993,0.301,1.729,0.832
							c0.725,0.544,1.418,1.129,1.686,0.902l0.384,0.506c-0.132-0.118-0.179-0.105-0.309-0.223c0.713,1.019,0.995,0.192,2.123,1.26
							c0.381,0.386,0.605,0.701,0.271,0.527l1.032,0.643c0.26,0.234,0.116,0.268-0.143,0.035c0,0,0.358,0.286,0.717,0.572
							c0.346,0.3,0.691,0.601,0.691,0.601l-0.023,0.006c0.264,0.098,0.809,0.378,1.069,0.523c0.277,0.389-0.221-0.106-0.189,0.038
							l0.857,0.568c0.186,0.41-0.549-0.035-1.046-0.529c0.238,1.144,0.734,0.445,1.967,2.123l-0.762-0.586
							c0.19,0.7,0.833,1.103,1.459,2.008c-0.099-0.262-1.172-1.905-0.247-1.282c0.192,0.248,0.476,0.542,1.008,0.847
							c-0.158,0.171,0.295,0.536,0.811,1.047l-0.259,0.193c0.613,0.493,0.685,0.333,1.11,0.56c0.591,0.646,0.542,0.95,0.537,1.242
							c0.943,1.032-0.395-0.967,0.811,0.172c0.72,0.924,1.415,1.387,2.493,2.291c0.464,0.683-0.238,0.027-0.11,0.307l0.67,0.366
							c0.113,0.136,0.018,0.147-0.03,0.152c0.479,0.387,0.269-0.179,0.973,0.478c0.437-0.041,0.931,1.812,2.022,2.431
							c0.126,0.278-0.242,0.023-0.276,0.171c1.289,1.037,1.072,0.916,2.189,1.726l0.561,1.019c-0.345-0.803,0.55-0.155,1.327,0.428
							c-0.099-0.304-0.182-0.567-0.253-0.73l1.086,1.06c0.074,0.174-0.107,0.125-0.367,0.018c0.086,0.061,0.168,0.118,0.234,0.166
							c0.248,0.491-0.072,0.39-0.455,0.204l-0.188-0.543c-0.386-0.166-0.771-0.297-0.867-0.119c0.091,0.052,0.233,0.177,0.378,0.326
							c-0.103-0.042-0.178-0.06-0.174-0.005c0.006,0.061,0.159,0.137,0.377,0.275l-0.062,0.488l0.162-0.025l1.063,1.654
							c1.167,0.861,2.279,1.548,3.743,3.245c-0.541-0.289-0.414,0.159-0.681,0.319c-0.1-0.684-1.141-1.299-1.774-2.263
							c0.331,0.503,0.135,0.487,0.003,0.396l1.464,1.468c-0.23,0.114,0.108,0.463,0.345,0.956c0.16-0.623,1.184,1.032,1.808,1.614
							c-0.105,0.14-0.364,0.078-0.94-0.763c0.362,1.124,1.36,0.815,1.712,1.923c-0.144-0.204-0.197-0.331-0.322-0.363
							c0.449,0.396,1.152,1.644,0.843,1.449l-0.143-0.204c0.881,1.403,2.824,4.167,3.32,4.143c-0.036,0.043-0.552,0.099-0.68,0.064
							c0,0,0.179,0.104,0.446,0.26c0.259,0.163,0.604,0.38,0.949,0.598c0.691,0.439,1.384,0.879,1.384,0.879
							c-0.445-0.027-0.658,1.284-1.554,0.228c0.163,0.363,0.367,0.809,0.913,1.446c-0.097-0.255,0.096-0.849,0.317-0.554
							c0.186,1.073,0.185,0.712,0.541,1.949c-0.145-0.383,0.58-0.3,0.9,0.253c-0.126-0.041-0.457,0.336-0.63,0.169l1.316,1.061
							c-0.297-0.285-0.443,0.181-0.401,0.567c0.015-0.199,0.661,1.199,0.916,1.539l-0.216-0.651
							c0.801,1.601,1.552,1.149,2.399,2.719c-0.208-0.132-0.885-0.116-0.505,0.705c0.438,0.228,2.148,0.916,3.051,2.234
							l-0.008,0.347l0.717,0.996c-0.729-0.479-2.48-1.942-3.38-2.757c0.213,0.646-0.079,0.255,0.424,1.121
							c0.037,0.381-0.473-0.364-0.625-0.616c0,0,0.263,0.519,0.526,1.038c0.241,0.53,0.483,1.06,0.483,1.06
							c0.25-0.25,1.105,1.431,1.314,1.224l-1.456-2.096c0.249-0.251,1.508,0.861,2.208,2.369c0.071,0.437-0.676-0.009-0.76,0.074
							c0.2,0.138,0.908,1.299,0.904,1.471l-0.479-0.544c0.303,0.875,1.079,1.14,1.293,2.269c0.156,0.349,0.127,1.204,0.325,1.182
							c0.086-0.731,1.081-1.353,1.535-1.107c0.035,0.134,0.512,1.995,0.522,2.472c-0.01,0.701-1.044-0.557-1.054,0.042
							c0.093-0.019,0.34,0.25,0.434,0.366c0.097,0.398-0.327-0.031,0.074,0.744c0.37-0.011,0.713,1.625,0.433,0.254
							c0.445,0.736,0.314,0.854,0.746,1.759c0.067-0.381,1.06,0.513,1.508,1.256c-0.101-0.011-0.124,0.21-0.132,0.314
							c0.657,1.629,0.858,2.565,1.481,4.077c-0.02,0.171,0.188,0.938-0.075,0.683c0.145,0.194,0.334,0.351,0.533,0.813
							c0.097,1.012-0.47-1.021-0.516-0.201c0.208-0.016,0.748,1.102,1.137,1.721c0.2-0.315-0.576-1.557-0.964-2.175
							c0.39-0.162,1.275,0.832,2.109,2.351c0.571,1.241-0.05,0.652,0.089,0.853c0.809,2.429,1.439,1.793,1.884,3.898
							c0.037,0.884-0.49,0.217-0.608,0.458c-0.476-1.006-0.424-1.657-0.691-2.36l0.198,0.913c-0.205-0.3-0.522-0.971-0.588-1.377
							c0.008,0.75,1.455,4.064,1.885,6c0.191,0.304,0.465,0.85,0.48,0.543l-0.227-0.582c0.029-0.616,0.644,1.022,0.497,0.237
							c0.401,0.749,0.917,1.57,1.162,2.733l-0.224,0.306c0.077-0.052-0.063-0.791-0.253-1.078c0.28,0.428,0.158,1.849,0.706,2.241
							l-0.051-0.854c0.404,0.756,1.034,1.652,1.263,2.68c0.144-0.543-0.106-0.219,0.004-1.034c-0.224,0.746-0.805-2.563-0.929-1.435
							c0.158-0.853-0.238-1.313-0.212-2.375c-0.087,0.062-0.075,0.398-0.298-0.457c-0.04-0.028-0.104-0.105-0.144-0.155
							c-0.005-0.026-0.007-0.036-0.011-0.06l0.003,0.05c-0.025-0.031-0.03-0.033,0.002,0.019c0.022,0.214,0.023,0.393-0.009,0.477
							c-0.355-0.343-0.773-1.678-1.036-2.088c-0.134-0.506,0.185,0.168,0.189-0.135l-0.412-0.605
							c0.188-0.139-0.125-1.428,0.422-0.313l-0.371-1.046c-0.104-0.655-0.366-1.518-0.646-2.006
							c-0.134-0.508-0.687-1.154-0.365-0.788l-0.728-1.584l0.048-0.035c-0.533-1.636-1.661-3.139-2.011-5.114
							c-0.271-0.513-0.563-1.037-0.871-1.956l0.107-0.251c-0.172-0.33-0.339-0.864-0.502-1.344
							c-0.181-0.472-0.355-0.888-0.515-0.992c0.145-0.941-1.398-3.326-1.858-4.552l-0.25,0.063c-0.365-0.821-0.77-1.584-1.381-2.525
							l-0.17,0.159c-0.6-0.773-0.976-2.271-1.686-3.616c0.123,0.053,0.278,0.407,0.355,0.673c-0.375-1.854-2.044-3.252-2.553-4.845
							c-0.272-0.319-0.394-0.591-0.485-0.869c0.02,0.033,0.04,0.061,0.061,0.083c-0.021-0.037-0.05-0.092-0.08-0.148
							c-0.056-0.177-0.114-0.363-0.175-0.556c0.036,0.177,0.078,0.342,0.13,0.477c-0.159-0.273-0.418-0.679-0.697-1.061l0.111-0.293
							c-0.021-0.032-0.038-0.058-0.06-0.092c-0.149-0.447-0.281-0.267-0.317,0.037c-0.15-0.187-0.298-0.353-0.431-0.47
							c0.153-0.521-0.717-1.009-0.609-1.664c-0.306-0.188-1.364-1.941-1.852-1.938c0.039-0.042-0.011-0.174,0.125,0.04
							c-0.233-0.47-0.468-0.94-0.816-1.277l0.144-0.35l-0.95-0.755c-0.206-0.689-0.267-0.993,0.296-0.531
							c-1.189-1.219-0.812-1.088-1.889-2.077l0.205-0.051c-0.291-0.415-0.966-0.938-1.001-1.281
							c-0.34-1.136-3.046-4.702-4.563-7.199c-0.131,0.8-0.599-1.242-1.029-1.064c0.009-0.219-0.172-0.591,0.206-0.285
							c-1.005-1.103-1.142-1.943-2.097-2.5c0.001-0.217,0.36,0.122,0.329-0.046c-0.099-0.074-0.394-0.292-0.427-0.463
							c-0.031-0.168,0.229,0.097,0.425,0.243c-0.98-1.166-1.409-1.019-1.789-0.854c-0.339-0.713-0.603-0.995-1.155-1.258
							c-0.067-0.29-0.245-0.723,0.387-0.022c-0.319-0.422-1.901-2.633-2.179-2.467c-0.045-0.18-0.475-0.568-0.595-0.649
							c-0.778-0.898-0.827-0.995-1.628-1.845l0.177,0.275c-0.595-0.086-0.711-0.665-1.372-1.334l0.047-0.006
							c-1.246-1.784-0.69-0.627-1.933-2.38l-0.094,0.248c-0.512,0.215-1.101-1.554-2.109-2.299l0.215,0.414
							c-0.597-0.355-0.825-1.839-1.259-2.372c-0.072-0.138,0.215,0.116,0.384,0.24c-1.037-1.487-0.382,0.058-1.364-0.833
							c-0.062-0.288,0.532-0.095-0.103-0.725c-0.235-0.403-2.282-1.358-2.955-2.422c0.109,0.279,0.216,0.555-0.302,0.21
							c-0.727-0.597-1.53-2.118-2.476-2.332c-0.068-0.104-0.081-0.159-0.063-0.186c-0.624-0.383-1.914-1.369-2.389-1.475
							c0.009-0.532-0.917-1.174-1.778-1.752c-0.868-0.571-1.717-1.023-1.471-1.329l-1.799-1.301l0.093-0.028
							c-1.104-0.894-1.613-1.047-2.118-1.197c-0.231-0.239,0.001-0.153,0.046-0.17c-1.596-1.328-1.814-1.387-3.459-2.049
							l-0.012-0.307c-0.476-0.127-2.246-2.046-4.179-2.798c0.032-0.014,0.093-0.033,0.25,0.02c-2.108-0.919-4.367-3.428-5.576-2.975
							l-1.441-0.502c1.693,0.964-0.44,0.212,0.199,0.715c-0.699-0.306-1.624-1.156-0.77-0.762l0.109,0.108
							c0.523-0.258-2.068-1.27-1.879-1.532c-3.475-1.629-6.788-3.422-10.186-4.659l0.26,0.49l-1.166-0.467
							c-0.278-0.198-0.317-0.427,0.517-0.093c-0.371-0.363-1.466-0.373-1.515-0.307c-1.601-0.741,0.788-0.173,0.283-0.358
							c0,0-0.174-0.059-0.347-0.118c-0.172-0.063-0.35-0.11-0.35-0.11l0.143,0.092c-0.615-0.04-0.716,0.097-1.739-0.243
							c-0.628-0.273-0.264-0.319-0.516-0.413c0.009-0.024-0.074-0.063-0.391-0.133l-1.506-0.504l0.521,0.466
							c-0.711-0.073-1.415-0.458-0.813,0.073c-0.852-0.898-5.65-1.688-6.248-2.004c-1-0.038-1.938-0.271-3.12-0.482
							c0.283,0.111,0.394,0.461-0.614,0.241c0.497-0.592-1.809-0.618-2.558-1.24c0.344,0.224-0.386,0.114-1.065,0.03
							c-0.677-0.102-1.315-0.079-0.762,0.199c-0.851-0.149-0.017-0.254-0.648-0.483c-1.042,0.014-2.163-0.153-3.347-0.349
							c-0.593-0.097-1.201-0.195-1.817-0.295c-0.619-0.081-1.254-0.098-1.892-0.111c-0.045,0.085,0.373,0.239-0.18,0.345
							l-1.322-0.499c-0.507,0.021-0.483,0.487-1.391,0.141c0.127,0.08,0.317,0.2-0.021,0.213c-0.621-0.078-1.246-0.15-1.875-0.186
							c-0.629-0.007-1.261-0.001-1.896,0.014c-1.268,0.046-2.543,0.093-3.822,0.14c-1.277,0.06-2.547,0.238-3.826,0.29
							c-1.274,0.088-2.563,0.039-3.844,0.041c0.702,0.061,0.25,0.15-0.267,0.238c0.342-0.013,0.021,0.217,0.104,0.324l-2.142,0.006
							c-0.33,0.387-2.244,0.38-2.406,0.726l0.652-0.162c-0.811,0.507,1.37,0.622,1.315,1.116c0.916-0.558,2.646,0.176,4.168-0.604
							c0.366,0.064-0.285,0.18-0.082,0.273c0.382-0.241,0.872-0.328,1.792-0.318l-0.098,0.06c2.557-0.255,3.667-0.266,6.551-0.143
							l-0.221-0.232c0.621,0.018,0.753,0.089,1.044,0.142c0.703-0.375-1.741,0.019-1.105-0.392c0.835,0.487,4.383-0.144,4.93,0.495
							c0.95,0.045-0.273-0.287,0.678-0.241l0.248,0.159l0.247-0.18c0.624,0.059,0.931,0.258,0.949,0.385
							c-0.15-0.021-0.431,0.016-0.593,0.02c0.799,0.21,2.278,0.042,2.553,0.11l-0.907-0.131c0.65-0.006,1.335,0.011,2.037,0.036
							c0.7,0.041,1.412,0.145,2.125,0.214c1.423,0.152,2.836,0.283,4.107,0.272l-0.174-0.132c1.932,0.083,1.5,0.378,3.593,0.642
							l-0.081,0.013c0.436-0.036,1.002,0.008,1.569,0.123c-0.549,0.035,0.937,0.425,0.221,0.444
							c2.093,0.146,1.043,0.025,2.477-0.076l0.268,0.256c0.494-0.051,0.552-0.128,1.592,0.077c-0.879-0.052,0.587,0.435-0.404,0.408
							c2.039,0.934,3.309,0.347,4.108,1.254c1.117-0.204-1.755-0.828-1.184-0.754c-0.418-0.286,0.919-0.17,1.565,0.113
							c0.676,0.223,0.965,0.989,2.659,1.509c-0.168-0.055-0.191-0.022-0.358-0.077c0.593,0.323,1.298,0.221,2.008,0.665
							c0.542-0.171,0.99,0.374,1.247,0.042c0,0-0.39-0.122-0.78-0.244c-0.396-0.1-0.793-0.201-0.793-0.201
							c0.922,0.153,1.88,0.063,3.237,0.812c-0.14,0.032-0.601-0.031-0.912-0.087c0.376,0.269,0.83,0.234,1.22,0.511
							c-0.263,0.327-1.882-0.632-2.911-0.688c0.394,0.316,1.845,0.394,1.237,0.618c0.854-0.258,1.606,0.687,2.878,0.726
							l-0.161,0.193c0.191,0.033,0.601,0.069,0.926,0.2l-0.706,0.06c1.004,0.106,1.67,0.858,2.563,1.131
							c-1.783-0.787-0.284-0.454-0.981-0.927c2.339,0.668,1.026,1.133,3.524,2.127c-0.345-0.119-1.188-0.692-0.624-0.559
							c0.448,0.256,1.028,0.617,1.261,0.859c1.646,0.688-0.146-0.334,0.608-0.153c0.428,0.519,0.858,0.238,1.6,0.51l-0.102,0.219
							c1.737,1.083,0.704-0.199,2.25,0.82l-0.841-0.062l0.888,0.367l-0.301,0.152c1.015,0.3,1.279,0.498,2.145,1.037
							c-0.129-0.259,0.327-0.323,1.133,0.09c0.47,0.423-0.402,0.012,0.718,0.634c-0.324-0.016-0.682-0.021-1.071-0.466
							c-0.089,0.042-0.326,0-0.415,0.042c0.517,0.433,1.435,0.838,1.833,1.076c-0.148-0.099-0.325-0.219-0.401-0.305l1.76,0.661
							c0.205,0.228-0.031,0.171-0.265,0.116c0.336,0.169,0.616,0.208,1.102,0.473c-0.224,0.095-0.299,0.286-1.015-0.034l1.626,0.716
							c0.057,0.133,0.654,0.663,0.42,0.607c0.79,0.571,2.231,0.953,3.224,1.809c0.077,0.006,0.21,0.051,0.454,0.182
							c0.987,0.72,1.748,1.513,3.097,2.107l0.45,0.778c0.951,0.616-0.629-1.027,0.957,0c1.136,0.714,0.222,0.542,0.537,0.901
							c0.635,0.255,1.779,0.665,2.586,1.629C112.812,78.625,112.589,78.393,112.27,78.185z M123,87.147
							c-0.234-0.147-0.738-0.4-0.787-0.639C122.629,86.517,122.715,86.776,123,87.147z M137.803,102.494
							c-0.19-0.107-0.357-0.375-0.51-0.706C137.471,101.975,137.647,102.206,137.803,102.494z M167.867,153.956l-0.021-0.023
							C167.725,153.324,167.764,153.541,167.867,153.956z M168.205,155.187c0.076,0.109,0.104,0.09,0.117,0.028
							c-0.088-0.063-0.189-0.331-0.285-0.643C168.009,154.679,168.023,154.848,168.205,155.187z M78.708,57.838l0.218,0.134
							C78.369,57.87,78.538,57.857,78.708,57.838z"/>
						<path fill="#FFFFFF" d="M136.015,100.825c-0.018-0.085,0.004-0.131,0.027-0.173
							C135.943,100.595,135.906,100.623,136.015,100.825z"/>
						<path fill="#FFFFFF" d="M105.13,73.245l-0.034-0.026c-0.027-0.001-0.045,0.004-0.06,0.012L105.13,73.245z"/>
						<path fill="#FFFFFF" d="M158.899,137.804c-0.076-0.251-0.097-0.401-0.096-0.508
							C158.744,137.308,158.749,137.437,158.899,137.804z"/>
						<path fill="#FFFFFF" d="M170.723,161.464l-0.31-0.759c0.132,0.372,0.125,0.522,0.149,0.724
							C170.611,161.395,170.641,161.222,170.723,161.464z"/>
						<path fill="#FFFFFF" d="M171.309,168.66c0.061,0.106,0.071,0.241,0.132,0.346l0.099-0.062
							C171.396,168.46,171.215,168.145,171.309,168.66z"/>
						<path fill="#FFFFFF" d="M170.189,162.423c-0.174,0.122,0.048,0.587,0.258,1.118l-0.03-0.096
							C170.739,163.521,170.464,162.971,170.189,162.423z"/>
						<path fill="#FFFFFF" d="M170.494,163.665c0.063,0.164,0.123,0.333,0.166,0.5C170.79,164.195,170.618,163.954,170.494,163.665z
							"/>
						<path fill="#FFFFFF" d="M168.887,156.66c0.038,0.273,0.299,0.077,0.269,0.25C169.512,157.107,168.251,155.31,168.887,156.66z"
							/>
						<polygon fill="#FFFFFF" points="169.692,163.06 169.869,162.792 169.578,162.549 						"/>
						<path fill="#FFFFFF" d="M168.493,158.73l0.212,0.887c0.036-0.026,0.095,0.076,0.156,0.205
							C168.697,159.286,168.557,158.687,168.493,158.73z"/>
						<path fill="#FFFFFF" d="M168.861,159.822c0.085,0.279,0.175,0.542,0.264,0.684
							C169.074,160.356,168.962,160.036,168.861,159.822z"/>
						<polygon fill="#FFFFFF" points="169.24,161.901 169.208,161.63 169.029,161.014 						"/>
						<path fill="#FFFFFF" d="M165.252,149.514l-0.441-0.892c-0.119-0.063-0.065,0.207,0.107,0.536
							C165.066,149.354,165.229,149.686,165.252,149.514z"/>
						<path fill="#FFFFFF" d="M165.639,152.57c-0.043-0.269,0.003-0.306,0.028-0.476l-0.302,0.08L165.639,152.57z"/>
						<path fill="#FFFFFF" d="M164.581,149.889c-0.106-0.065-0.771-1.237-0.275-0.088
							C164.422,149.862,164.826,150.768,164.581,149.889z"/>
						<polygon fill="#FFFFFF" points="159.033,136.051 159.142,136.278 159.587,136.027 						"/>
						<path fill="#FFFFFF" d="M151.888,124.998c0.464,1.076,0.409,0.087,0.792,1.081c0.239,0.181-0.313-0.812-0.085-0.618
							C152.139,124.908,152.021,124.55,151.888,124.998z"/>
						<path fill="#FFFFFF" d="M152.595,125.46c0.073,0.089,0.152,0.181,0.244,0.276C152.711,125.574,152.643,125.502,152.595,125.46
							z"/>
						<polygon fill="#FFFFFF" points="32.685,54.232 31.911,54.248 32.429,54.339 						"/>
						<path fill="#FFFFFF" d="M31.305,54.835l-0.237-0.291l-0.397,0.36C30.837,54.864,31.162,54.783,31.305,54.835z"/>
						<path fill="#FFFFFF" d="M124.057,89.044l0.094-0.016c-0.023-0.141-0.137-0.275-0.38-0.528L124.057,89.044z"/>
						<polygon fill="#FFFFFF" points="116.706,82.088 116.835,82.204 116.774,81.771 						"/>
						<path fill="#FFFFFF" d="M109.815,77.128c0.27,0.217,0.633,0.409,0.903,0.628C110.085,77.346,109.958,76.776,109.815,77.128z"
							/>
					</g>
				</g>
			</g>
		</g>
	</g>
	<g>
		<g>
			<g>
				<g>
					<g>
						<path fill="#FFFFFF" d="M168.622,197.093c-0.076,0.075,0.117,0.166,0.138,0.201
							C168.825,197.123,168.575,197.064,168.622,197.093z"/>
						<polygon fill="#FFFFFF" points="169.244,195.398 169.296,195.473 169.274,195.142 						"/>
						<path fill="#FFFFFF" d="M170.191,194.073c-0.38-0.081-0.295,0.515-0.566,0.677l-0.094-0.008l0.158,0.273
							C169.856,194.702,169.967,194.218,170.191,194.073z"/>
						<path fill="#FFFFFF" d="M171.324,193.813c-0.145-0.037,0.012-0.223-0.153,0.14c0.024-0.007,0.034-0.007,0.051-0.01
							C171.24,193.914,171.269,193.875,171.324,193.813z"/>
						<path fill="#FFFFFF" d="M171.222,193.943C171.13,194.089,171.382,193.92,171.222,193.943L171.222,193.943z"/>
						<path fill="#FFFFFF" d="M171.615,193.252l-0.029,0.256c0.094,0.01,0.226-0.144,0.23-0.048
							C171.896,193.231,171.802,193.223,171.615,193.252z"/>
						<path fill="#FFFFFF" d="M171.527,192.927l-0.025,0.126C171.542,193.056,171.57,193.037,171.527,192.927z"/>
						<path fill="#FFFFFF" d="M171.449,193.319l0.053-0.267c-0.065-0.007-0.162-0.071-0.033,0.116
							C171.395,193.091,171.449,193.189,171.449,193.319z"/>
						<path fill="#FFFFFF" d="M171.323,193.401c-0.137,0.059-0.271,0.164-0.241-0.093
							C170.872,193.689,171.113,193.783,171.323,193.401z"/>
						<path fill="#FFFFFF" d="M169.939,193.792l-0.184,0.077l0.013,0.188C169.763,193.964,170.036,193.848,169.939,193.792z"/>
						<path fill="#FFFFFF" d="M172.582,192.213c-0.054-0.056-0.209-0.056-0.298-0.099l-0.025,0.187
							C172.351,192.261,172.483,192.156,172.582,192.213z"/>
						<path fill="#FFFFFF" d="M172.284,192.114l0.038-0.278C172.181,192.009,172.208,192.077,172.284,192.114z"/>
						<polygon fill="#FFFFFF" points="171.229,192.664 171.214,193.157 171.271,192.598 						"/>
						<polygon fill="#FFFFFF" points="173.143,191.441 173.204,191.658 173.134,191.299 						"/>
						<path fill="#FFFFFF" d="M173.484,190.908c0.058,0.169,0.284,0.025,0.293,0.168c0.078-0.155,0.062-0.348,0.046-0.521
							C173.793,190.707,173.693,190.819,173.484,190.908z"/>
						<path fill="#FFFFFF" d="M173.818,190.28c-0.012,0.077-0.003,0.173,0.005,0.275C173.84,190.476,173.843,190.388,173.818,190.28
							z"/>
						<path fill="#FFFFFF" d="M172.6,191.511c0.049,0.011,0.168,0.051,0.291-0.034l-0.231-0.044
							C172.642,191.456,172.621,191.483,172.6,191.511z"/>
						<path fill="#FFFFFF" d="M172.652,191.432l0.007,0.001c0.066-0.083,0.113-0.142,0.133-0.166
							C172.774,191.287,172.732,191.337,172.652,191.432z"/>
						<path fill="#FFFFFF" d="M172.585,191.53l0.015-0.02C172.577,191.507,172.568,191.507,172.585,191.53z"/>
						<path fill="#FFFFFF" d="M171.765,192.243c-0.012-0.189,0.062-0.513-0.259-0.377
							C171.563,192.037,171.746,191.959,171.765,192.243z"/>
						<path fill="#FFFFFF" d="M172.297,191.475l-0.194,0.188c0.049,0.028,0.145,0.037,0.15,0.131L172.297,191.475z"/>
						<polygon fill="#FFFFFF" points="172.316,191.33 172.297,191.475 172.368,191.405 						"/>
						<path fill="#FFFFFF" d="M173.393,190.534c-0.01-0.146,0.057-0.254,0.127-0.377c-0.122,0.099-0.231,0.213-0.318,0.335
							C173.244,190.548,173.305,190.672,173.393,190.534z"/>
						<path fill="#FFFFFF" d="M173.018,190.96l0.005-0.028C172.998,190.934,172.986,190.94,173.018,190.96z"/>
						<polygon fill="#FFFFFF" points="174.328,189.022 174.283,189.018 174.311,189.044 						"/>
						<path fill="#FFFFFF" d="M173.154,190.49c-0.1,0.068-0.097,0.154-0.08,0.245c0.031-0.081,0.072-0.163,0.127-0.243
							C173.183,190.467,173.167,190.454,173.154,190.49z"/>
						<path fill="#FFFFFF" d="M173.963,189.905c-0.071,0.023-0.141,0.056-0.21,0.094
							C173.841,189.99,173.996,189.955,173.963,189.905z"/>
						<path fill="#FFFFFF" d="M173.093,190.935l-0.003,0.02C173.149,190.95,173.129,190.94,173.093,190.935z"/>
						<path fill="#FFFFFF" d="M173.093,190.935c0.009-0.065-0.008-0.134-0.019-0.199c-0.026,0.066-0.045,0.133-0.052,0.196
							C173.043,190.929,173.069,190.931,173.093,190.935z"/>
						<path fill="#FFFFFF" d="M173.455,187.883c0.15,0.132,0.125,0.481-0.197,0.569c-0.027,0.294,0.601,0.535,1.025,0.565
							c-0.065-0.057-0.131-0.103-0.074-0.384c-0.141,0.012-0.543,0.327-0.561,0.043c0.118-0.342,0.222-0.191,0.405-0.268
							c-0.284-0.026-0.037-0.568-0.376-0.717l-0.072,0.322C173.556,187.986,173.547,187.844,173.455,187.883z"/>
						<path fill="#FFFFFF" d="M173.978,189.413l-0.042,0.102c0.1-0.08,0.215-0.105,0.435-0.147c0.025-0.202-0.013-0.275-0.06-0.323
							l-0.33,0.416L173.978,189.413z"/>
						<path fill="#FFFFFF" d="M173.655,189.91c-0.127-0.193-0.052-0.458-0.333-0.464c-0.172,0.267,0.018,0.285-0.016,0.493
							c0.253-0.446,0.013,0.189,0.326-0.04c-0.028,0.103-0.071,0.183-0.113,0.258c0.074-0.061,0.152-0.113,0.233-0.158L173.734,190
							v0.003L173.731,190c-0.034,0.003-0.052-0.001-0.024-0.012c-0.002-0.003,0.001-0.009,0.002-0.012
							C173.687,189.956,173.671,189.934,173.655,189.91c0.123-0.095,0.06,0.014,0.054,0.066l0.022,0.023h0.003l0.201-0.485
							C173.848,189.586,173.774,189.7,173.655,189.91z"/>
						<path fill="#FFFFFF" d="M171.286,191.375c0.024-0.002,0.037,0.008,0.051,0.016
							C171.334,191.349,171.327,191.328,171.286,191.375z"/>
						<path fill="#FFFFFF" d="M171.515,191.279c0.003,0.048,0.055,0.123-0.033,0.208c-0.113,0.049-0.084-0.06-0.145-0.097
							c0.004,0.093-0.022,0.298,0.195,0.172l-0.003-0.046c0.18-0.125,0.553-0.185,0.556-0.139
							C171.893,191.314,171.749,191.278,171.515,191.279z"/>
						<path fill="#FFFFFF" d="M172.549,190.551l0.16-0.408l-0.277,0.068l0.098,0.056
							C172.354,190.438,172.496,190.477,172.549,190.551z"/>
						<polygon fill="#FFFFFF" points="174.443,189.045 174.597,189.223 174.478,188.836 						"/>
						<polygon fill="#FFFFFF" points="174.742,188.577 174.892,188.709 174.88,188.521 						"/>
						<path fill="#FFFFFF" d="M190.853,161.7l0.027-0.135C190.859,161.624,190.853,161.666,190.853,161.7z"/>
						<path fill="#FFFFFF" d="M190.316,162.431l0.066,0.074C190.363,162.44,190.341,162.403,190.316,162.431z"/>
						<path fill="#FFFFFF" d="M182.606,177.486c0.257-0.041,0.607-0.041,0.414-0.152l-0.209-0.08
							C182.769,177.381,182.692,177.446,182.606,177.486z"/>
						<path fill="#FFFFFF" d="M186.949,169.148l-0.085,0.006c0.035,0.079,0.067,0.152,0.098,0.221
							C186.958,169.305,186.954,169.229,186.949,169.148z"/>
						<path fill="#FFFFFF" d="M186.292,168.523l0.254-0.114C186.475,168.425,186.392,168.46,186.292,168.523z"/>
						<path fill="#FFFFFF" d="M193.534,157.534l-0.095-0.247C193.308,157.474,193.457,157.456,193.534,157.534z"/>
						<path fill="#FFFFFF" d="M177.965,183.911c0.16-0.079,0.262-0.16,0.334-0.244C178.087,183.75,177.847,183.766,177.965,183.911z
							"/>
						<path fill="#FFFFFF" d="M192.521,163.325c0.013-0.085-0.005-0.138-0.045-0.164
							C192.461,163.247,192.469,163.308,192.521,163.325z"/>
						<path fill="#FFFFFF" d="M178.562,183.297c-0.034,0.01-0.059,0.025-0.09,0.038c-0.037,0.115-0.08,0.227-0.173,0.332
							C178.455,183.607,178.595,183.51,178.562,183.297z"/>
						<path fill="#FFFFFF" d="M204.087,143.013c0.016-0.005,0.028-0.016,0.045-0.019
							C204.11,142.975,204.099,142.988,204.087,143.013z"/>
						<path fill="#FFFFFF" d="M208.902,140.021c-0.019,0.049-0.067,0.118-0.111,0.185
							C208.826,140.183,208.862,140.129,208.902,140.021z"/>
						<path fill="#FFFFFF" d="M176.111,186.817C176.055,186.922,176.12,186.847,176.111,186.817L176.111,186.817z"/>
						<path fill="#FFFFFF" d="M175.081,186.785c-0.006-0.034-0.02-0.067-0.059-0.099
							C175.06,186.725,175.077,186.757,175.081,186.785z"/>
						<path fill="#FFFFFF" d="M178.14,181.562l0.006-0.008C178.091,181.558,178.102,181.557,178.14,181.562z"/>
						<path fill="#FFFFFF" d="M175.928,186.904c0.048-0.021,0.096-0.049,0.14-0.085C176.04,186.829,175.996,186.854,175.928,186.904
							z"/>
						<path fill="#FFFFFF" d="M176.025,186.944c-0.031,0.029-0.054,0.051-0.076,0.071
							C175.97,187.049,175.996,187.052,176.025,186.944z"/>
						<path fill="#FFFFFF" d="M176.196,186.678c-0.036,0.057-0.081,0.102-0.129,0.142c0.025-0.01,0.041-0.011,0.044-0.002
							C176.129,186.788,176.154,186.746,176.196,186.678z"/>
						<path fill="#FFFFFF" d="M198.984,151.186c0.011-0.003,0.019-0.005,0.031-0.009
							C199.011,151.028,198.992,151.079,198.984,151.186z"/>
						<path fill="#FFFFFF" d="M182.543,173.69c-0.002,0.006,0.001,0.012,0,0.018l0.017-0.01L182.543,173.69z"/>
						<path fill="#FFFFFF" d="M182.655,173.253c0.116,0.304,0.029,0.367-0.096,0.445l0.591,0.249L182.655,173.253z"/>
						<path fill="#FFFFFF" d="M192.06,159.896l-0.33,0.129c-0.055-0.478,0.186-0.624-0.199-0.557
							c0.529,0.428-0.61,0.979-0.081,1.405l-0.229,0.076c0.037-0.042,0.01-0.072,0.048-0.113c-0.485,0.121,0.236,0.515-0.126,0.857
							c-0.142,0.108-0.291,0.148-0.289,0.007l-0.083,0.407c-0.075,0.082-0.155-0.008-0.081-0.091l-0.292,0.504l-0.014-0.016
							c0.039,0.13,0.064,0.378,0.068,0.493c-0.164,0.063-0.016-0.103-0.106-0.12l-0.052,0.356c-0.22,0.004-0.204-0.312-0.056-0.478
							c-0.726-0.148-0.015,0.316-0.712,0.613l0.105-0.297c-0.428-0.063-0.451,0.21-0.845,0.35c0.149,0.006,0.891-0.208,0.826,0.174
							c-0.099,0.051-0.193,0.142-0.19,0.374c-0.198-0.139-0.256,0.045-0.378,0.24l-0.252-0.198
							c-0.068,0.256,0.075,0.334,0.108,0.536c-0.187,0.207-0.421,0.11-0.629,0.042c-0.298,0.332,0.501-0.019,0.246,0.443
							c-0.313,0.229-0.356,0.516-0.456,0.985c-0.239,0.146-0.133-0.149-0.262-0.128l0.075,0.335
							c-0.037,0.042-0.09-0.019-0.117-0.049c-0.031,0.214,0.251,0.198,0.146,0.495c0.24,0.271-0.779,0.208-0.671,0.745
							c-0.128,0.022-0.134-0.149-0.251-0.198c-0.084,0.57-0.101,0.469-0.057,1.018l-0.38,0.172c0.349-0.076,0.385,0.363,0.403,0.739
							c0.149-0.009,0.278-0.015,0.349-0.031l-0.134,0.484c-0.076,0.016-0.138-0.087-0.202-0.227c0.005,0.04,0.009,0.079,0.013,0.114
							c-0.194,0.069-0.294-0.109-0.369-0.312c0.084-0.007,0.172-0.016,0.259-0.023c-0.09-0.208-0.202-0.421-0.369-0.511
							c0.013,0.047,0.004,0.113-0.02,0.177c-0.024-0.056-0.052-0.099-0.086-0.105c-0.037-0.007-0.008,0.074,0.014,0.185
							l-0.353-0.119l0.101,0.104l-0.54,0.373c0.036,0.568,0.244,1.188-0.042,1.844c-0.112-0.293-0.326-0.277-0.573-0.465
							c0.378,0.034,0.201-0.523,0.466-0.781c-0.138,0.135-0.234,0.016-0.248-0.054l-0.133,0.701
							c-0.198-0.159-0.234,0.002-0.418,0.079c0.482,0.186-0.008,0.587-0.036,0.891c-0.146-0.084-0.249-0.235-0.03-0.474
							c-0.513,0.07,0.214,0.714-0.249,0.813c0.042-0.066,0.088-0.086,0.036-0.161c0.016,0.236-0.341,0.533-0.399,0.362l0.043-0.065
							c-0.351,0.39-0.924,1.291-0.622,1.601c-0.048-0.027-0.378-0.353-0.43-0.429l0.626,1.588c-0.25-0.278-1.141-0.526-1.059-0.998
							c-0.114,0.07-0.253,0.16-0.299,0.449c0.091-0.039,0.553,0.134,0.513,0.247c-0.516,0.023-0.306,0.054-0.814,0.172
							c0.137-0.058,0.521,0.389,0.391,0.542c-0.052-0.075-0.471-0.314-0.477-0.408l0.169,0.732c-0.01-0.16-0.376-0.294-0.569-0.295
							c0.119,0.021-0.259,0.346-0.291,0.486l0.229-0.097c-0.396,0.409,0.321,0.912-0.027,1.351c-0.056-0.123-0.485-0.551-0.708-0.36
							c0.159,0.273,0.794,1.273,0.688,1.806l-0.188-0.019l-0.067,0.418c-0.217-0.443-0.575-1.513-0.653-2.014
							c-0.229,0.097-0.192-0.064-0.363,0.201c-0.19,0.002-0.091-0.276-0.045-0.356l-0.508,0.541
							c0.293,0.168-0.051,0.654,0.193,0.793l0.18-0.853c0.292,0.168,0.509,0.93,0.158,1.319c-0.186,0.031-0.43-0.427-0.527-0.483
							c0.056,0.122-0.106,0.531-0.201,0.522l-0.019-0.284c-0.271,0.163,0.089,0.645-0.375,0.742
							c-0.087,0.086-0.561,0.042-0.411,0.175c0.427,0.063,1.416,0.719,1.574,0.992c-0.045,0.02-0.665,0.303-0.898,0.305
							c-0.36-0.013-0.412-0.658-0.72-0.67c0.07,0.059,0.099,0.214,0.103,0.271c-0.138,0.058-0.202-0.207-0.327,0.041
							c0.251,0.234-0.347,0.438,0.159,0.272c-0.076,0.275-0.223,0.192-0.393,0.458c0.237,0.045,0.446,0.665,0.369,0.94
							c-0.062-0.063-0.188-0.079-0.247-0.085c-0.345,0.431-0.642,0.582-0.942,0.998c-0.095-0.009-0.319,0.135-0.378-0.036
							c0.007,0.095,0.062,0.218-0.023,0.352c-0.418,0.079,0.167-0.314-0.257-0.329c0.149,0.131-0.015,0.492-0.045,0.748
							c0.289,0.12,0.35-0.392,0.38-0.646c0.345,0.243,0.477,0.82,0.324,1.37c-0.161,0.408-0.329-0.007-0.323,0.088
							c-0.524,0.61,0.205,0.983-0.429,1.349c-0.372,0.06-0.443-0.3-0.635-0.365c0.118-0.342,0.448-0.335,0.576-0.533l-0.271,0.162
							c-0.009-0.142,0.07-0.37,0.207-0.428c-0.325,0.04-0.823,1.076-1.362,1.45c0.01,0.142-0.024,0.351,0.115,0.34l0.083-0.181
							c0.281-0.021,0.031,0.474,0.257,0.33c-0.028,0.303-0.003,0.681-0.317,0.911l-0.29-0.121c0.078,0.045,0.289-0.091,0.273-0.23
							c0.021,0.204-0.667,0.222-0.438,0.592l0.323-0.088c-0.027,0.304,0.049,0.758-0.22,0.969c0.333,0.054,0.016-0.082,0.439-0.066
							c-0.477-0.091,0.5-0.671-0.064-0.676c0.473,0.044,0.381-0.235,0.848-0.286c-0.088-0.051-0.222-0.022-0.021-0.218
							c-0.018-0.027-0.031-0.072-0.038-0.101l0.017-0.011l-0.018,0.006c-0.006-0.019-0.008-0.021-0.007,0.002
							c-0.074,0.027-0.148,0.04-0.207,0.024c-0.109-0.245,0.149-0.598,0.138-0.787c0.133-0.105,0.055,0.123,0.194,0.112
							l-0.019-0.283c0.195,0.112,0.555-0.137,0.439,0.252l0.209-0.275c0.221-0.093,0.424-0.292,0.446-0.487
							c0.135-0.105,0.036-0.48,0.098-0.263l0.2-0.522l0.049,0.028c0.334-0.419,0.336-1.112,1.021-1.376
							c0.059-0.18,0.109-0.371,0.336-0.58l0.192,0.064c0.079-0.228,0.562-0.453,0.454-0.651c0.57,0.101,0.743-0.848,1.055-1.126
							l-0.197-0.159c0.174-0.22,0.271-0.48,0.39-0.822l-0.195-0.112c0.023-0.352,0.576-0.535,0.832-0.935
							c0.052,0.075-0.036,0.16-0.128,0.2c0.741-0.168,0.392-1.188,0.99-1.392c0.008-0.151,0.084-0.211,0.183-0.251
							c-0.007,0.01-0.01,0.021-0.01,0.032c0.011-0.009,0.021-0.024,0.033-0.041c0.064-0.024,0.135-0.045,0.2-0.076
							c-0.075,0.013-0.142,0.028-0.185,0.053c0.054-0.083,0.117-0.222,0.157-0.374l0.232,0.089c0.005-0.012,0.008-0.019,0.014-0.031
							c0.156-0.065-0.025-0.16-0.218-0.203c0.011-0.083,0.011-0.166-0.006-0.242c0.385,0.13,0.116-0.39,0.547-0.279
							c-0.107-0.197,0.304-0.688,0.002-0.999c0.048,0.027,0.095,0.008,0.052,0.074c0.135-0.104,0.269-0.21,0.256-0.398l0.29,0.12
							l-0.129-0.529c0.278-0.068,0.418-0.079,0.485,0.233c0.007-0.635,0.134-0.424,0.098-0.992l0.148,0.133
							c0.086-0.134,0.017-0.493,0.205-0.476c0.512-0.07,1.057-1.396,1.868-1.934c-0.577-0.194,0.457-0.192,0.11-0.483
							c0.143,0.037,0.279-0.021,0.292,0.168c0.158-0.456,0.581-0.44,0.457-0.922c0.143,0.037,0.106,0.198,0.201,0.207
							c-0.003-0.048-0.013-0.189,0.082-0.181s0.055,0.122,0.062,0.217c0.256-0.399-0.063-0.685-0.368-0.944
							c0.293-0.086,0.341-0.198,0.229-0.491c0.154,0.008,0.347-0.026,0.214,0.24c0.111-0.124,0.742-0.713,0.491-0.912
							c0.097,0.005,0.153-0.175,0.148-0.231c0.231-0.292,0.273-0.302,0.46-0.616l-0.101,0.052c-0.231-0.34,0.105-0.297,0.238-0.563
							l0.027,0.029c0.617-0.388,0.06-0.314,0.704-0.672l-0.217-0.109c-0.385-0.35,0.59-0.304,0.652-0.732l-0.192,0.034
							c-0.021-0.274,0.913-0.073,1.089-0.208c0.063-0.012,0.016,0.101,0.006,0.172c0.569-0.274-0.215-0.24-0.034-0.619
							c0.182,0.036,0.294,0.33,0.48,0.122c0.192-0.033,0.02-0.976,0.504-1.097c-0.155-0.008-0.31-0.016-0.278-0.229
							c0.133-0.267,0.863-0.361,0.682-0.816c0.051-0.01,0.087-0.002,0.114,0.016c0.044-0.244,0.279-0.697,0.176-0.937
							c0.796,0.312,0.481-1.372,1.102-0.925l0.367-0.587l0.053,0.06c0.298-0.33,0.239-0.563,0.18-0.797
							c0.102-0.053,0.116,0.05,0.145,0.079c0.499-0.437,0.51-0.508,0.514-1.169l0.234,0.098c-0.032-0.203,0.858-0.535,0.989-1.219
							c0.02,0.021,0.051,0.061,0.051,0.121c0.176-0.749,1.549-0.991,0.964-1.727l0.092-0.512c-0.41,0.454-0.267-0.301-0.534-0.185
							c0.096-0.226,0.581-0.346,0.448-0.079l-0.063,0.011c0.32,0.361,0.574-0.519,0.825-0.319c0.675-0.989,1.563-1.788,2.229-2.69
							l-0.373-0.106l0.244-0.307c0.129-0.034,0.313,0.054,0.139,0.272c0.254,0,0.13-0.482,0.069-0.534
							c0.438-0.359,0.225,0.421,0.328,0.289l0.11-0.201l-0.064,0.018c-0.016-0.237-0.135-0.343,0.074-0.605
							c0.183-0.13,0.247,0.042,0.307-0.018c0.021,0.016,0.048,0,0.083-0.098l0.312-0.384l-0.35-0.007
							c0.011-0.261,0.28-0.369-0.118-0.373c0.604,0.021,1.213-1.393,1.46-1.469c0.006-0.371,0.184-0.615,0.421-0.904
							c-0.103,0.04-0.399-0.103-0.18-0.342c0.477,0.484,0.579-0.313,1.123-0.246c-0.396,0.005,0.467-0.793-0.115-0.758
							c0.2-0.188,0.214,0.132,0.461,0.057c0.16-0.672,0.956-1.053,1.344-1.748c-0.064-0.062-0.251-0.031-0.26-0.245l0.601-0.086
							c0.056-0.152-0.33-0.411,0.085-0.468c-0.084-0.01-0.21-0.025-0.172-0.127c1.248-1.016,1.552-2.786,3.12-3.603
							c-0.262,0.075-0.193-0.051-0.104-0.187c-0.094,0.063-0.175-0.128-0.284-0.18l0.651-0.346c-0.199-0.29,0.393-0.589,0.175-0.828
							l-0.075,0.203c-0.143-0.443-0.901-0.165-1.268-0.475c0.165,0.5-0.988,0.304-0.789,1.072c-0.145,0.035-0.069-0.168-0.195-0.184
							c0.093,0.225,0.037,0.377-0.206,0.559l-0.022-0.056c-0.431,0.692-0.797,0.858-1.437,1.524l0.231,0.082
							c-0.14,0.142-0.224,0.133-0.325,0.173c0.162,0.392,0.336-0.438,0.54-0.04c-0.544-0.067-0.809,1.123-1.357,0.949
							c-0.177,0.244,0.275,0.087,0.098,0.331l-0.167-0.021l0.111,0.172c-0.141,0.144-0.35,0.117-0.456,0.051
							c0.04-0.03,0.051-0.132,0.071-0.18c-0.291,0.107-0.371,0.624-0.469,0.663l0.243-0.184c-0.365,0.752-1.106,1.459-1.323,2.282
							l0.126,0.016c-0.184,0.615-0.382,0.326-0.691,0.926l-0.007-0.035c0.013,0.173-0.045,0.351-0.161,0.492
							c-0.009-0.213-0.391,0.111-0.381-0.153c-0.201,0.666-0.047,0.367,0.039,0.963l-0.209-0.026c0.05,0.219,0.115,0.28-0.039,0.579
							c0.029-0.314-0.354,0.01-0.348-0.361c-0.735,0.335-0.269,1.084-0.938,1.001c0.231,0.56,0.583-0.328,0.568-0.117
							c0.224-0.025,0.158,0.438-0.011,0.587c-0.139,0.176-0.755-0.07-1.073,0.394c0.035-0.045,0.006-0.07,0.039-0.114
							c-0.229,0.096-0.094,0.438-0.417,0.525c0.169,0.298-0.209,0.263,0.09,0.526l0.224-0.474c-0.085,0.298,0.134,0.79-0.328,1.053
							c-0.044-0.077-0.046-0.255-0.037-0.369c-0.177,0.047-0.094,0.267-0.276,0.315c-0.299-0.264,0.293-0.561,0.229-0.991
							c-0.224,0.026-0.109,0.649-0.368,0.272c0.313,0.501-0.377,0.411-0.258,0.963l-0.179-0.158
							c-0.005,0.071,0.014,0.238-0.056,0.324l-0.134-0.342c0.035,0.403-0.531,0.352-0.587,0.675c0.354-0.509,0.313,0.053,0.606-0.06
							c-0.184,0.806-0.76-0.002-1.163,0.76c0.04-0.113,0.368-0.271,0.353-0.061c-0.134,0.104-0.333,0.227-0.492,0.236
							c-0.288,0.49,0.249,0.07,0.229,0.352c-0.348-0.011-0.065,0.295-0.134,0.551l-0.197-0.139
							c-0.501,0.437,0.311,0.432-0.179,0.796l-0.131-0.394l-0.104,0.297l-0.188-0.21c-0.025,0.386-0.128,0.439-0.378,0.657
							c0.183,0.038,0.332,0.289,0.173,0.526c-0.229,0.075-0.123-0.223-0.33,0.128c-0.07-0.162-0.166-0.354,0.117-0.368
							c-0.054-0.061-0.071-0.161-0.124-0.222c-0.256,0.075-0.337,0.408-0.42,0.529c0.04-0.041,0.09-0.089,0.139-0.097l-0.068,0.672
							c-0.128,0.023-0.145-0.079-0.16-0.18c-0.048,0.112-0.005,0.243-0.09,0.398c-0.134-0.15-0.305-0.259-0.236-0.515l-0.147,0.582
							c-0.091-0.019-0.357,0.099-0.374-0.003c-0.273,0.187-0.131,0.841-0.493,1.088c0.019,0.04,0.023,0.096-0.005,0.183
							c-0.26,0.29-0.654,0.43-0.701,0.959l-0.438,0.008c-0.143,0.338,0.565-0.03,0.327,0.533c-0.154,0.41-0.336-0.045-0.502,0.02
							c0.022,0.273,0.104,0.781-0.354,0.932C191.91,160.062,192.012,160.009,192.06,159.896z M189.621,163.593
							c0.009-0.1-0.02-0.329,0.133-0.298C189.922,163.534,189.771,163.52,189.621,163.593z M186.194,169.411
							c-0.028-0.099,0.061-0.156,0.2-0.193C186.363,169.295,186.303,169.364,186.194,169.411z M176.697,185.655l-0.004-0.015
							C176.881,185.54,176.811,185.573,176.697,185.655z M176.382,185.918c0.004,0.053,0.033,0.069,0.07,0.075
							c-0.034-0.058,0.015-0.133,0.087-0.206C176.472,185.773,176.406,185.79,176.382,185.918z M201.034,151.104l-0.096,0.027
							C200.982,150.949,201.006,151.025,201.034,151.104z"/>
						<path fill="#FFFFFF" d="M186.367,168.598c0.047,0.004,0.088,0.024,0.128,0.046
							C186.481,168.593,186.444,168.565,186.367,168.598z"/>
						<path fill="#FFFFFF" d="M193.552,157.58l0.011-0.01c-0.008-0.015-0.018-0.026-0.028-0.036L193.552,157.58z"/>
						<path fill="#FFFFFF" d="M178.282,179.719c0.076-0.046,0.139-0.058,0.193-0.056
							C178.43,179.625,178.367,179.626,178.282,179.719z"/>
						<path fill="#FFFFFF" d="M175.495,187.871l0.097-0.244c-0.062,0.107-0.13,0.112-0.197,0.142
							C175.443,187.796,175.538,187.804,175.495,187.871z"/>
						<path fill="#FFFFFF" d="M172.999,188.805c0.002,0.048-0.044,0.066-0.04,0.114l0.097,0.057
							C173.142,188.842,173.133,188.699,172.999,188.805z"/>
						<path fill="#FFFFFF" d="M174.705,187.599c-0.177-0.102-0.213,0.068-0.285,0.235c0.005-0.009,0.01-0.019,0.018-0.025
							C174.639,188.016,174.672,187.807,174.705,187.599z"/>
						<path fill="#FFFFFF" d="M174.401,187.872c-0.024,0.05-0.053,0.099-0.092,0.137
							C174.391,188.092,174.368,187.968,174.401,187.872z"/>
						<path fill="#FFFFFF" d="M176.199,186.406c-0.092,0.039,0.181,0.194,0.086,0.186
							C176.44,186.818,176.356,185.951,176.199,186.406z"/>
						<polygon fill="#FFFFFF" points="174.077,187.328 174.318,187.421 174.212,187.223 						"/>
						<path fill="#FFFFFF" d="M175.043,186.288l-0.222,0.191c0.037,0.021,0.036,0.065,0.025,0.112
							C174.955,186.454,175.107,186.325,175.043,186.288z"/>
						<path fill="#FFFFFF" d="M174.847,186.592c-0.057,0.071-0.103,0.146-0.099,0.211
							C174.774,186.761,174.829,186.669,174.847,186.592z"/>
						<polygon fill="#FFFFFF" points="174.242,186.968 174.333,186.929 174.465,186.776 						"/>
						<path fill="#FFFFFF" d="M176.857,183.821l0.121-0.295c-0.052-0.075-0.144-0.037-0.183,0.077
							C176.802,183.699,176.762,183.813,176.857,183.821z"/>
						<path fill="#FFFFFF" d="M175.753,184.19c0.092-0.039,0.141-0.011,0.235-0.002l-0.248-0.188L175.753,184.19z"/>
						<path fill="#FFFFFF" d="M176.22,183.409c-0.053-0.075,0.06-0.511-0.152-0.179C176.118,183.306,175.996,183.601,176.22,183.409
							z"/>
						<polygon fill="#FFFFFF" points="179.255,179.821 179.212,179.888 179.634,180.174 						"/>
						<path fill="#FFFFFF" d="M180.655,175.751c-0.313,0.229,0.205,0.254-0.112,0.437c0.049,0.141,0.26-0.149,0.293-0.017
							C180.861,175.916,180.987,175.862,180.655,175.751z"/>
						<path fill="#FFFFFF" d="M180.836,176.171c-0.005,0.04-0.007,0.085-0.003,0.137
							C180.845,176.237,180.842,176.198,180.836,176.171z"/>
						<polygon fill="#FFFFFF" points="209.628,139.472 209.852,139.341 209.624,139.366 						"/>
						<path fill="#FFFFFF" d="M209.584,138.883l0.297,0.143l-0.157-0.286C209.705,138.791,209.667,138.892,209.584,138.883z"/>
						<path fill="#FFFFFF" d="M188.707,163.749l0.053,0.061c0.09,0.02,0.128-0.022,0.203-0.105L188.707,163.749z"/>
						<polygon fill="#FFFFFF" points="190.767,161.272 190.729,161.314 191.028,161.4 						"/>
						<path fill="#FFFFFF" d="M192.024,158.859c-0.073,0.083-0.095,0.226-0.169,0.309
							C191.951,158.942,192.341,159.047,192.024,158.859z"/>
					</g>
				</g>
			</g>
		</g>
	</g>
	<g>
		<g>
			<g>
				<g>
					<g>
						<path fill="#FFFFFF" d="M175.689,189.595c0.068,0.065,0.154-0.129,0.186-0.152
							C175.72,189.396,175.663,189.643,175.689,189.595z"/>
						<polygon fill="#FFFFFF" points="174.143,189.159 174.212,189.103 173.908,189.155 						"/>
						<path fill="#FFFFFF" d="M172.939,188.376c-0.08,0.374,0.468,0.234,0.613,0.48l-0.009,0.091l0.253-0.179
							C173.512,188.638,173.068,188.579,172.939,188.376z"/>
						<path fill="#FFFFFF" d="M172.716,187.313c-0.035,0.143-0.204,0.011,0.127,0.134c-0.007-0.022-0.006-0.032-0.009-0.048
							C172.807,187.384,172.771,187.36,172.716,187.313z"/>
						<path fill="#FFFFFF" d="M172.834,187.398C172.967,187.473,172.814,187.247,172.834,187.398L172.834,187.398z"/>
						<path fill="#FFFFFF" d="M172.205,187.086l0.234,0.005c0.01-0.092-0.129-0.204-0.041-0.218
							C172.189,186.818,172.181,186.91,172.205,187.086z"/>
						<path fill="#FFFFFF" d="M171.905,187.202l0.114,0.012C172.023,187.176,172.007,187.15,171.905,187.202z"/>
						<path fill="#FFFFFF" d="M172.264,187.24l-0.244-0.026c-0.007,0.064-0.066,0.163,0.106,0.021
							C172.054,187.314,172.146,187.253,172.264,187.24z"/>
						<path fill="#FFFFFF" d="M172.338,187.354c0.052,0.126,0.146,0.245-0.088,0.24
							C172.597,187.759,172.686,187.519,172.338,187.354z"/>
						<path fill="#FFFFFF" d="M172.677,188.646l0.069,0.169l0.173-0.03C172.833,188.8,172.73,188.548,172.677,188.646z"/>
						<path fill="#FFFFFF" d="M171.264,186.257c-0.052,0.058-0.054,0.207-0.094,0.296l0.171,0.007
							C171.306,186.476,171.211,186.356,171.264,186.257z"/>
						<path fill="#FFFFFF" d="M171.17,186.553l-0.256-0.01C171.071,186.663,171.135,186.63,171.17,186.553z"/>
						<polygon fill="#FFFFFF" points="171.66,187.516 172.112,187.482 171.6,187.481 						"/>
						<polygon fill="#FFFFFF" points="170.563,185.792 170.764,185.713 170.433,185.815 						"/>
						<path fill="#FFFFFF" d="M170.079,185.516c0.156-0.072,0.027-0.275,0.158-0.298c-0.142-0.061-0.318-0.025-0.477,0.005
							C169.898,185.237,170,185.323,170.079,185.516z"/>
						<path fill="#FFFFFF" d="M169.507,185.254c0.071,0.005,0.159-0.013,0.254-0.031
							C169.687,185.216,169.606,185.221,169.507,185.254z"/>
						<path fill="#FFFFFF" d="M170.62,186.308c0.011-0.048,0.048-0.166-0.027-0.276l-0.044,0.227
							C170.57,186.273,170.595,186.29,170.62,186.308z"/>
						<path fill="#FFFFFF" d="M170.548,186.266l0.001-0.008c-0.075-0.056-0.128-0.095-0.15-0.111
							C170.417,186.161,170.462,186.197,170.548,186.266z"/>
						<path fill="#FFFFFF" d="M170.638,186.32l-0.018-0.013C170.615,186.33,170.616,186.339,170.638,186.32z"/>
						<path fill="#FFFFFF" d="M171.28,187.04c-0.173,0.03-0.469-0.009-0.349,0.286C171.089,187.253,171.02,187.085,171.28,187.04z"
							/>
						<path fill="#FFFFFF" d="M170.583,186.603l0.17,0.168c0.026-0.049,0.036-0.142,0.122-0.156L170.583,186.603z"/>
						<polygon fill="#FFFFFF" points="170.45,186.598 170.583,186.603 170.52,186.541 						"/>
						<path fill="#FFFFFF" d="M169.734,185.64c-0.135,0.023-0.232-0.03-0.345-0.086c0.089,0.108,0.193,0.203,0.304,0.273
							C169.745,185.781,169.859,185.711,169.734,185.64z"/>
						<path fill="#FFFFFF" d="M170.119,185.96l-0.025-0.002C170.096,185.98,170.102,185.991,170.119,185.96z"/>
						<polygon fill="#FFFFFF" points="168.359,184.886 168.354,184.929 168.379,184.9 						"/>
						<path fill="#FFFFFF" d="M169.69,185.873c0.062,0.089,0.141,0.078,0.225,0.054c-0.075-0.023-0.149-0.055-0.222-0.1
							C169.67,185.849,169.657,185.864,169.69,185.873z"/>
						<path fill="#FFFFFF" d="M169.165,185.152c0.02,0.065,0.049,0.13,0.083,0.192C169.241,185.261,169.211,185.115,169.165,185.152
							z"/>
						<path fill="#FFFFFF" d="M170.098,185.89h0.018C170.113,185.833,170.104,185.854,170.098,185.89z"/>
						<path fill="#FFFFFF" d="M170.098,185.89c-0.061-0.002-0.123,0.02-0.183,0.037c0.061,0.019,0.121,0.03,0.179,0.031
							C170.092,185.938,170.094,185.912,170.098,185.89z"/>
						<path fill="#FFFFFF" d="M167.302,185.835c0.122-0.156,0.443-0.167,0.52,0.136c0.27-0.003,0.5-0.63,0.533-1.042
							c-0.053,0.069-0.096,0.136-0.354,0.108c0.009,0.135,0.293,0.491,0.032,0.536c-0.313-0.081-0.173-0.195-0.241-0.364
							c-0.027,0.275-0.521,0.09-0.663,0.431l0.295,0.039C167.397,185.729,167.267,185.751,167.302,185.835z"/>
						<path fill="#FFFFFF" d="M168.713,185.185l0.094,0.031c-0.072-0.088-0.095-0.196-0.131-0.404
							c-0.185-0.004-0.252,0.039-0.297,0.089l0.378,0.277L168.713,185.185z"/>
						<path fill="#FFFFFF" d="M169.165,185.447c-0.18,0.141-0.421,0.094-0.43,0.365c0.242,0.139,0.262-0.045,0.452-0.033
							c-0.407-0.199,0.174-0.03-0.033-0.31c0.095,0.018,0.167,0.051,0.235,0.084c-0.054-0.065-0.102-0.135-0.142-0.209l0.001,0.018
							h0.002l-0.002,0.003c0.002,0.033-0.002,0.05-0.012,0.025c-0.003,0.001-0.008-0.001-0.011-0.002
							C169.208,185.412,169.187,185.43,169.165,185.447c-0.085-0.109,0.014-0.06,0.062-0.059l0.022-0.023v-0.003l-0.442-0.146
							C168.87,185.293,168.974,185.353,169.165,185.447z"/>
						<path fill="#FFFFFF" d="M170.478,187.584c-0.001-0.023,0.008-0.036,0.015-0.05C170.454,187.54,170.435,187.55,170.478,187.584
							z"/>
						<path fill="#FFFFFF" d="M170.393,187.374c0.044-0.008,0.113-0.064,0.191,0.012c0.042,0.104-0.057,0.086-0.092,0.148
							c0.085-0.013,0.273-0.008,0.161-0.205l-0.043,0.008c-0.112-0.161-0.162-0.514-0.119-0.521
							C170.431,187.007,170.395,187.148,170.393,187.374z"/>
						<path fill="#FFFFFF" d="M169.738,186.45l-0.373-0.115l0.06,0.26l0.053-0.1C169.633,186.648,169.669,186.508,169.738,186.45z"
							/>
						<polygon fill="#FFFFFF" points="168.381,184.772 168.547,184.608 168.19,184.76 						"/>
						<polygon fill="#FFFFFF" points="167.957,184.53 168.079,184.374 167.906,184.404 						"/>
						<path fill="#FFFFFF" d="M143.506,171.631l-0.124-0.013C143.436,171.632,143.474,171.634,143.506,171.631z"/>
						<path fill="#FFFFFF" d="M144.169,172.076l0.069-0.071C144.178,172.029,144.144,172.055,144.169,172.076z"/>
						<path fill="#FFFFFF" d="M157.884,178.037c-0.035-0.242-0.03-0.58-0.135-0.383l-0.076,0.209
							C157.788,177.892,157.848,177.959,157.884,178.037z"/>
						<path fill="#FFFFFF" d="M150.289,174.666l0.004,0.081c0.073-0.042,0.141-0.08,0.204-0.115
							C150.433,174.642,150.362,174.653,150.289,174.666z"/>
						<path fill="#FFFFFF" d="M149.706,175.357l-0.102-0.232C149.618,175.192,149.649,175.269,149.706,175.357z"/>
						<path fill="#FFFFFF" d="M139.718,169.453l-0.228,0.116C139.659,169.677,139.646,169.536,139.718,169.453z"/>
						<path fill="#FFFFFF" d="M163.718,181.882c-0.07-0.146-0.144-0.236-0.22-0.298C163.571,181.779,163.582,182.01,163.718,181.882
							z"/>
						<path fill="#FFFFFF" d="M145.02,169.869c-0.078-0.004-0.126,0.018-0.15,0.059C144.947,169.935,145.003,169.921,145.02,169.869
							z"/>
						<path fill="#FFFFFF" d="M163.161,181.367c0.009,0.031,0.023,0.054,0.034,0.083c0.105,0.024,0.206,0.055,0.303,0.134
							C163.445,181.439,163.357,181.314,163.161,181.367z"/>
						<path fill="#FFFFFF" d="M126.532,160.706c-0.004-0.015-0.014-0.025-0.016-0.041
							C126.497,160.688,126.51,160.698,126.532,160.706z"/>
						<path fill="#FFFFFF" d="M123.852,156.364c0.046,0.014,0.108,0.054,0.168,0.089
							C123.999,156.422,123.95,156.393,123.852,156.364z"/>
						<path fill="#FFFFFF" d="M166.359,183.384C166.454,183.429,166.387,183.373,166.359,183.384L166.359,183.384z"/>
						<path fill="#FFFFFF" d="M166.316,184.378c-0.032,0.008-0.063,0.025-0.092,0.065
							C166.26,184.404,166.29,184.384,166.316,184.378z"/>
						<path fill="#FFFFFF" d="M161.563,181.94l-0.007-0.006C161.559,181.987,161.559,181.978,161.563,181.94z"/>
						<path fill="#FFFFFF" d="M166.438,183.552c-0.019-0.044-0.044-0.087-0.076-0.127
							C166.37,183.451,166.393,183.49,166.438,183.552z"/>
						<path fill="#FFFFFF" d="M166.476,183.454c0.026,0.027,0.045,0.047,0.064,0.066
							C166.57,183.497,166.573,183.472,166.476,183.454z"/>
						<path fill="#FFFFFF" d="M166.232,183.315c0.052,0.029,0.093,0.067,0.129,0.109c-0.01-0.023-0.01-0.038-0.002-0.041
							C166.333,183.369,166.295,183.349,166.232,183.315z"/>
						<path fill="#FFFFFF" d="M133.965,164.824c-0.002-0.009-0.004-0.017-0.008-0.028
							C133.821,164.814,133.867,164.827,133.965,164.824z"/>
						<polygon fill="#FFFFFF" points="154.398,178.466 154.414,178.463 154.405,178.448 						"/>
						<path fill="#FFFFFF" d="M153.998,178.399c0.28-0.141,0.338-0.064,0.407,0.049l0.236-0.592L153.998,178.399z"/>
						<path fill="#FFFFFF" d="M141.865,170.644l0.113,0.306c-0.438,0.098-0.569-0.118-0.513,0.245
							c0.399-0.551,0.89,0.492,1.288-0.058l0.067,0.214c-0.038-0.032-0.066-0.003-0.104-0.035c0.104,0.455,0.476-0.277,0.785,0.038
							c0.098,0.125,0.132,0.265,0.003,0.277l0.372,0.04c0.074,0.064-0.01,0.15-0.084,0.087l0.458,0.232l-0.014,0.015
							c0.119-0.051,0.347-0.099,0.453-0.113c0.056,0.152-0.094,0.024-0.112,0.114l0.327,0.015c0.001,0.211-0.289,0.227-0.439,0.1
							c-0.146,0.713,0.29-0.016,0.554,0.626l-0.271-0.072c-0.064,0.417,0.187,0.413,0.31,0.778c0.008-0.145-0.179-0.837,0.171-0.812
							c0.045,0.09,0.127,0.172,0.34,0.147c-0.13,0.203,0.038,0.241,0.216,0.34l-0.186,0.261c0.233,0.042,0.308-0.104,0.494-0.155
							c0.188,0.159,0.096,0.395,0.03,0.601c0.3,0.255-0.011-0.479,0.41-0.279c0.206,0.278,0.468,0.293,0.898,0.344
							c0.131,0.216-0.14,0.143-0.121,0.263l0.308-0.104c0.038,0.032-0.018,0.09-0.046,0.118c0.196,0.009,0.186-0.261,0.456-0.188
							c0.252-0.257,0.181,0.729,0.675,0.573c0.02,0.12-0.14,0.144-0.186,0.261c0.522,0.025,0.43,0.051,0.934-0.044l0.152,0.349
							c-0.065-0.328,0.339-0.405,0.685-0.459c-0.006-0.143-0.01-0.267-0.023-0.333l0.442,0.082c0.014,0.071-0.081,0.141-0.211,0.217
							c0.037-0.009,0.073-0.017,0.105-0.023c0.061,0.18-0.104,0.293-0.291,0.385c-0.006-0.079-0.013-0.163-0.019-0.246
							c-0.191,0.106-0.39,0.235-0.473,0.404c0.042-0.017,0.104-0.015,0.161,0.001c-0.052,0.03-0.092,0.06-0.099,0.094
							c-0.006,0.036,0.068,0,0.17-0.031l-0.114,0.351l0.097-0.106l0.335,0.483c0.522-0.091,1.094-0.35,1.692-0.138
							c-0.271,0.136-0.26,0.341-0.436,0.596c0.037-0.366-0.478-0.143-0.71-0.372c0.122,0.119,0.011,0.224-0.053,0.243l0.642,0.06
							c-0.148,0.206-0.002,0.226,0.066,0.395c0.178-0.481,0.539-0.049,0.817-0.051c-0.079,0.148-0.22,0.263-0.436,0.074
							c0.058,0.486,0.659-0.273,0.743,0.162c-0.061-0.034-0.078-0.076-0.147-0.02c0.217-0.037,0.484,0.276,0.327,0.35l-0.061-0.035
							c0.354,0.3,1.173,0.764,1.462,0.443c-0.026,0.049-0.329,0.397-0.399,0.455l1.466-0.756c-0.259,0.268-0.499,1.148-0.931,1.114
							c0.063,0.104,0.145,0.228,0.408,0.245c-0.035-0.084,0.131-0.545,0.234-0.518c0.014,0.494,0.045,0.289,0.146,0.768
							c-0.052-0.127,0.364-0.54,0.502-0.429c-0.069,0.057-0.295,0.482-0.381,0.497l0.675-0.232c-0.147,0.025-0.275,0.39-0.278,0.576
							c0.021-0.117,0.313,0.216,0.442,0.232l-0.086-0.211c0.371,0.342,0.842-0.396,1.239-0.104c-0.113,0.065-0.512,0.521-0.34,0.716
							c0.253-0.18,1.18-0.887,1.666-0.836l-0.019,0.184l0.383,0.024c-0.411,0.251-1.397,0.698-1.858,0.823
							c0.086,0.21-0.062,0.191,0.181,0.33c-0.002,0.183-0.255,0.113-0.329,0.077l0.49,0.436c0.159-0.298,0.6-0.014,0.731-0.263
							l-0.78-0.09c0.158-0.297,0.859-0.58,1.213-0.28c0.025,0.176-0.398,0.455-0.451,0.554c0.113-0.064,0.486,0.052,0.478,0.144
							l-0.262,0.045c0.146,0.245,0.593-0.147,0.677,0.289c0.077,0.076,0.03,0.536,0.154,0.379c0.063-0.416,0.679-1.431,0.933-1.61
							c0.017,0.042,0.269,0.611,0.267,0.836c-0.017,0.348-0.609,0.459-0.625,0.757c0.056-0.073,0.198-0.116,0.252-0.125
							c0.051,0.126-0.193,0.214,0.032,0.311c0.219-0.265,0.397,0.291,0.252-0.18c0.252,0.047,0.174,0.195,0.415,0.334
							c0.046-0.233,0.617-0.493,0.869-0.446c-0.059,0.065-0.075,0.188-0.082,0.246c0.391,0.289,0.525,0.561,0.904,0.81
							c-0.01,0.092,0.119,0.294-0.039,0.367c0.088-0.016,0.2-0.08,0.322-0.011c0.066,0.394-0.286-0.131-0.306,0.278
							c0.122-0.157,0.452-0.033,0.686-0.029c0.115-0.29-0.354-0.299-0.588-0.304c0.229-0.354,0.76-0.537,1.263-0.443
							c0.372,0.116-0.012,0.317,0.076,0.303c0.553,0.445,0.905-0.292,1.232,0.282c0.049,0.352-0.282,0.454-0.344,0.646
							c-0.313-0.081-0.303-0.398-0.482-0.503l0.146,0.246c-0.13,0.021-0.339-0.032-0.39-0.158c0.032,0.309,0.976,0.688,1.313,1.171
							c0.13-0.023,0.321-0.011,0.313-0.145l-0.165-0.063c-0.016-0.268,0.436-0.075,0.307-0.278c0.277-0.003,0.625-0.063,0.832,0.217
							l-0.115,0.291c0.043-0.079-0.08-0.27-0.207-0.24c0.188-0.041,0.193,0.619,0.536,0.363l-0.076-0.303
							c0.278-0.003,0.696-0.12,0.886,0.118c0.055-0.326-0.074-0.008-0.054-0.416c-0.09,0.466-0.609-0.417-0.622,0.127
							c0.047-0.459-0.211-0.344-0.251-0.788c-0.048,0.09-0.023,0.216-0.199,0.042c-0.025,0.019-0.067,0.036-0.094,0.046
							l-0.009-0.015l0.004,0.017c-0.017,0.007-0.02,0.01,0.002,0.007c0.024,0.068,0.035,0.138,0.021,0.195
							c-0.228,0.13-0.547-0.085-0.722-0.056c-0.094-0.118,0.114-0.064,0.106-0.197l-0.261,0.045
							c0.105-0.199-0.118-0.521,0.238-0.447l-0.251-0.174c-0.082-0.203-0.262-0.38-0.441-0.383
							c-0.094-0.119-0.439,0.012-0.239-0.068l-0.477-0.143l0.027-0.05c-0.381-0.279-1.018-0.215-1.25-0.848
							c-0.164-0.039-0.34-0.07-0.527-0.268l0.062-0.191c-0.208-0.054-0.408-0.496-0.592-0.374c0.1-0.558-0.769-0.633-1.019-0.905
							l-0.149,0.205c-0.199-0.146-0.438-0.214-0.75-0.295l-0.105,0.198c-0.322,0.011-0.483-0.503-0.847-0.71
							c0.07-0.057,0.147,0.02,0.182,0.104c-0.144-0.696-1.084-0.263-1.264-0.818c-0.139,0.008-0.192-0.061-0.228-0.15
							c0.009,0.005,0.019,0.007,0.029,0.005c-0.008-0.008-0.022-0.018-0.037-0.027c-0.021-0.06-0.04-0.125-0.066-0.186
							c0.01,0.072,0.023,0.134,0.045,0.173c-0.075-0.043-0.201-0.092-0.341-0.115l0.085-0.231c-0.011-0.004-0.017-0.006-0.028-0.011
							c-0.059-0.144-0.148,0.041-0.189,0.229c-0.076-0.002-0.152,0.005-0.223,0.029c0.125-0.383-0.355-0.075-0.249-0.499
							c-0.183,0.122-0.628-0.226-0.917,0.094c0.026-0.049,0.009-0.092,0.069-0.057c-0.095-0.119-0.189-0.238-0.363-0.207
							l0.115-0.291l-0.488,0.175c-0.059-0.261-0.066-0.395,0.221-0.489c-0.582,0.055-0.387-0.088-0.909,0.002l0.124-0.156
							c-0.121-0.068-0.452,0.032-0.434-0.15c-0.058-0.485-1.268-0.882-1.749-1.61c-0.187,0.574-0.171-0.421-0.442-0.06
							c0.035-0.141-0.016-0.267,0.158-0.297c-0.417-0.107-0.396-0.517-0.841-0.35c0.036-0.143,0.184-0.123,0.193-0.214
							c-0.044,0.007-0.174,0.03-0.165-0.063c0.01-0.091,0.113-0.064,0.2-0.08c-0.363-0.207-0.629,0.127-0.871,0.445
							c-0.075-0.273-0.179-0.309-0.448-0.172c0.009-0.149-0.021-0.331,0.223-0.229c-0.112-0.095-0.644-0.645-0.83-0.384
							c0.006-0.093-0.158-0.131-0.211-0.121c-0.264-0.193-0.272-0.233-0.559-0.383l0.046,0.093
							c-0.315,0.255-0.271-0.073-0.514-0.175l0.028-0.029c-0.348-0.557-0.288-0.027-0.607-0.612l-0.104,0.219
							c-0.326,0.403-0.271-0.538-0.663-0.557l0.028,0.182c-0.252,0.047-0.055-0.871-0.177-1.026c-0.01-0.06,0.094-0.026,0.159-0.022
							c-0.245-0.521-0.224,0.229-0.569,0.093c0.036-0.179,0.307-0.315,0.118-0.475c-0.027-0.182-0.896,0.076-0.999-0.379
							c-0.01,0.15-0.019,0.3-0.214,0.29c-0.243-0.102-0.32-0.795-0.74-0.577c-0.008-0.048,0-0.083,0.017-0.111
							c-0.224-0.019-0.637-0.201-0.857-0.079c0.296-0.795-1.253-0.33-0.834-0.97l-0.534-0.296l0.056-0.057
							c-0.299-0.255-0.515-0.176-0.729-0.096c-0.048-0.093,0.047-0.117,0.074-0.146c-0.394-0.438-0.459-0.442-1.066-0.382
							l0.093-0.235c-0.187,0.051-0.479-0.772-1.104-0.833c0.02-0.021,0.056-0.056,0.111-0.061c-0.685-0.097-0.889-1.394-1.572-0.761
							l-0.468-0.039c0.411,0.351-0.28,0.286-0.177,0.531c-0.205-0.07-0.31-0.524-0.066-0.423l0.009,0.061
							c0.336-0.344-0.469-0.502-0.282-0.764c-0.898-0.554-1.62-1.331-2.438-1.884l-0.103,0.368l-0.278-0.205
							c-0.029-0.12,0.054-0.306,0.252-0.159c0.004-0.244-0.44-0.078-0.49-0.016c-0.323-0.386,0.39-0.256,0.271-0.344l-0.183-0.086
							l0.015,0.061c-0.218,0.037-0.316,0.162-0.555-0.014c-0.117-0.162,0.042-0.241-0.012-0.293c0.015-0.021,0-0.045-0.089-0.07
							l-0.348-0.262l-0.012,0.337c-0.238,0.015-0.334-0.235-0.344,0.148c0.027-0.583-1.262-1.032-1.328-1.262
							c-0.341,0.03-0.562-0.117-0.825-0.317c0.036,0.095-0.099,0.395-0.315,0.206c0.451-0.506-0.279-0.527-0.211-1.057
							c-0.001,0.38-0.721-0.372-0.697,0.184c-0.169-0.175,0.124-0.219,0.059-0.448c-0.614-0.089-0.952-0.818-1.586-1.123
							c-0.057,0.067-0.032,0.244-0.229,0.272l-0.071-0.569c-0.139-0.039-0.382,0.357-0.428-0.036
							c-0.01,0.081-0.026,0.204-0.119,0.178c-0.915-1.103-2.536-1.224-3.264-2.653c0.064,0.244-0.05,0.19-0.174,0.118
							c0.057,0.085-0.119,0.181-0.169,0.291l-0.308-0.594c-0.27,0.221-0.536-0.319-0.759-0.087l0.186,0.052
							c-0.408,0.181-0.163,0.883-0.453,1.266c0.46-0.207,0.265,0.92,0.973,0.654c0.03,0.136-0.155,0.084-0.171,0.206
							c0.207-0.11,0.347-0.072,0.511,0.145l-0.052,0.026c0.629,0.348,0.776,0.685,1.379,1.235l0.079-0.231
							c0.128,0.121,0.118,0.203,0.154,0.297c0.361-0.194-0.397-0.281-0.03-0.516c-0.069,0.529,1.021,0.669,0.854,1.213
							c0.222,0.147,0.083-0.272,0.305-0.125l-0.021,0.163l0.16-0.124c0.13,0.121,0.103,0.324,0.04,0.434
							c-0.027-0.035-0.12-0.036-0.164-0.052c0.096,0.27,0.568,0.297,0.603,0.387l-0.165-0.216c0.686,0.278,1.324,0.924,2.077,1.052
							l0.016-0.122c0.563,0.117,0.294,0.336,0.84,0.575l-0.032,0.011c0.159-0.029,0.321,0.009,0.45,0.107
							c-0.196,0.028,0.097,0.365-0.146,0.381c0.609,0.13,0.337,0.01,0.885-0.13l-0.026,0.203c0.2-0.069,0.258-0.138,0.53-0.019
							c-0.288,0.003,0.004,0.339-0.337,0.369c0.298,0.675,0.991,0.153,0.907,0.806c0.516-0.277-0.294-0.529-0.101-0.535
							c-0.021-0.214,0.404-0.195,0.539-0.047c0.159,0.116-0.076,0.732,0.346,0.994c-0.04-0.029-0.064,0.002-0.104-0.027
							c0.085,0.211,0.401,0.049,0.478,0.352c0.275-0.191,0.238,0.175,0.483-0.137l-0.431-0.171c0.272,0.054,0.727-0.204,0.961,0.215
							c-0.071,0.049-0.234,0.068-0.339,0.07c0.041,0.166,0.243,0.065,0.286,0.236c-0.246,0.313-0.511-0.229-0.907-0.125
							c0.021,0.213,0.595,0.043,0.245,0.328c0.464-0.35,0.373,0.323,0.881,0.155l-0.147,0.188c0.064-0.002,0.218-0.037,0.297,0.021
							l-0.316,0.162c0.371-0.072,0.315,0.478,0.611,0.499c-0.462-0.29,0.053-0.307-0.047-0.577c0.737,0.099-0.012,0.731,0.683,1.045
							c-0.104-0.027-0.244-0.328-0.051-0.333c0.094,0.118,0.203,0.298,0.21,0.45c0.445,0.23,0.068-0.246,0.325-0.253
							c-0.014,0.335,0.271,0.034,0.504,0.075l-0.13,0.203c0.394,0.439,0.4-0.34,0.729,0.096l-0.363,0.163l0.271,0.072l-0.195,0.2
							c0.354-0.013,0.402,0.08,0.6,0.3c0.036-0.179,0.269-0.348,0.484-0.217c0.066,0.214-0.205,0.141,0.113,0.306
							c-0.149,0.082-0.327,0.193-0.337-0.077c-0.056,0.057-0.148,0.084-0.205,0.14c0.066,0.239,0.37,0.284,0.48,0.353
							c-0.037-0.034-0.08-0.077-0.087-0.123l0.616,0.001c0.02,0.12-0.074,0.146-0.167,0.171c0.102,0.035,0.224-0.019,0.364,0.048
							c-0.141,0.143-0.242,0.318-0.476,0.277l0.532,0.085c-0.019,0.09,0.085,0.334-0.008,0.36c0.167,0.245,0.77,0.045,0.992,0.369
							c0.036-0.021,0.088-0.031,0.168-0.013c0.262,0.222,0.384,0.588,0.869,0.582l0.002,0.42c0.309,0.104-0.021-0.541,0.494-0.366
							c0.374,0.108-0.046,0.328,0.011,0.48c0.252-0.048,0.718-0.175,0.851,0.251C142.016,170.771,141.969,170.68,141.865,170.644z
							 M145.226,172.633c-0.091,0.001-0.303,0.05-0.271-0.099C145.177,172.349,145.16,172.495,145.226,172.633z M150.52,175.367
							c-0.091,0.036-0.142-0.044-0.175-0.174C150.415,175.215,150.479,175.267,150.52,175.367z M165.301,182.933l-0.013,0.005
							C165.197,182.768,165.228,182.831,165.301,182.933z M165.538,183.211c0.048-0.01,0.063-0.039,0.069-0.075
							c-0.054,0.038-0.121-0.001-0.188-0.064C165.406,183.138,165.421,183.199,165.538,183.211z M133.919,162.861l0.022,0.09
							C133.775,162.926,133.846,162.896,133.919,162.861z"/>
						<path fill="#FFFFFF" d="M149.775,175.278c0.005-0.045,0.023-0.086,0.045-0.127
							C149.772,175.169,149.747,175.208,149.775,175.278z"/>
						<path fill="#FFFFFF" d="M139.76,169.432l-0.008-0.009c-0.014,0.009-0.024,0.02-0.034,0.03L139.76,169.432z"/>
						<path fill="#FFFFFF" d="M159.873,181.98c-0.041-0.068-0.051-0.127-0.049-0.18C159.789,181.848,159.789,181.907,159.873,181.98
							z"/>
						<path fill="#FFFFFF" d="M167.318,183.874l-0.223-0.068c0.098,0.049,0.102,0.114,0.127,0.176
							C167.249,183.932,167.258,183.84,167.318,183.874z"/>
						<path fill="#FFFFFF" d="M168.142,186.186c0.044-0.007,0.061,0.035,0.104,0.027l0.054-0.099
							C168.178,186.044,168.047,186.067,168.142,186.186z"/>
						<path fill="#FFFFFF" d="M167.058,184.66c-0.096,0.181,0.06,0.198,0.212,0.253c-0.008-0.005-0.017-0.009-0.023-0.016
							C167.439,184.685,167.248,184.672,167.058,184.66z"/>
						<path fill="#FFFFFF" d="M167.304,184.927c0.046,0.019,0.091,0.041,0.125,0.074
							C167.506,184.916,167.393,184.949,167.304,184.927z"/>
						<path fill="#FFFFFF" d="M165.984,183.339c0.034,0.084,0.18-0.192,0.17-0.1C166.365,183.067,165.567,183.231,165.984,183.339z"
							/>
						<polygon fill="#FFFFFF" points="166.801,185.29 166.89,185.05 166.706,185.171 						"/>
						<path fill="#FFFFFF" d="M165.859,184.462l0.173,0.195c0.02-0.038,0.06-0.041,0.104-0.036
							C166.01,184.53,165.895,184.396,165.859,184.462z"/>
						<path fill="#FFFFFF" d="M166.136,184.621c0.064,0.048,0.132,0.086,0.191,0.075
							C166.289,184.675,166.206,184.631,166.136,184.621z"/>
						<polygon fill="#FFFFFF" points="166.472,185.167 166.438,185.083 166.299,184.972 						"/>
						<path fill="#FFFFFF" d="M163.62,182.955l-0.27-0.088c-0.069,0.057-0.035,0.142,0.068,0.168
							C163.507,183.021,163.61,183.048,163.62,182.955z"/>
						<path fill="#FFFFFF" d="M163.943,183.981c-0.034-0.084-0.008-0.134,0.002-0.226l-0.176,0.257L163.943,183.981z"/>
						<path fill="#FFFFFF" d="M163.232,183.608c-0.069,0.058-0.468-0.009-0.166,0.164
							C163.137,183.716,163.405,183.805,163.232,183.608z"/>
						<polygon fill="#FFFFFF" points="159.98,181.036 160.041,181.07 160.31,180.638 						"/>
						<path fill="#FFFFFF" d="M156.264,180.081c0.206,0.279,0.235-0.222,0.399,0.066c0.129-0.061-0.134-0.235-0.012-0.28
							C156.418,179.868,156.37,179.751,156.264,180.081z"/>
						<path fill="#FFFFFF" d="M156.651,179.867c0.037,0.001,0.078-0.002,0.126-0.011
							C156.712,179.853,156.677,179.858,156.651,179.867z"/>
						<polygon fill="#FFFFFF" points="123.358,155.719 123.24,155.517 123.261,155.733 						"/>
						<path fill="#FFFFFF" d="M122.816,155.818l0.135-0.299l-0.265,0.179C122.734,155.711,122.826,155.737,122.816,155.818z"/>
						<path fill="#FFFFFF" d="M145.357,173.496l0.056-0.057c0.019-0.089-0.019-0.12-0.094-0.185L145.357,173.496z"/>
						<polygon fill="#FFFFFF" points="143.112,171.754 143.149,171.786 143.232,171.49 						"/>
						<path fill="#FFFFFF" d="M140.914,170.777c0.074,0.063,0.205,0.07,0.28,0.134C140.988,170.841,141.091,170.456,140.914,170.777
							z"/>
					</g>
				</g>
			</g>
		</g>
	</g>
</g>
</svg>
