<?xml version="1.0" encoding="utf-8"?>
<!-- Generator: Adobe Illustrator 16.0.0, SVG Export Plug-In . SVG Version: 6.00 Build 0)  -->
<!DOCTYPE svg PUBLIC "-//W3C//DTD SVG 1.0//EN" "http://www.w3.org/TR/2001/REC-SVG-20010904/DTD/svg10.dtd">
<svg version="1.0" id="Layer_1" xmlns="http://www.w3.org/2000/svg" xmlns:xlink="http://www.w3.org/1999/xlink" x="0px" y="0px"
	 width="227.586px" height="231.035px" viewBox="0 0 227.586 231.035" enable-background="new 0 0 227.586 231.035"
	 xml:space="preserve">
<g>
	<path fill="#101111" d="M217.579,116.153c0,55.481-44.985,100.474-100.467,100.474c-55.496,0-100.481-44.993-100.481-100.474
		c0-55.489,44.985-100.473,100.481-100.473C172.594,15.68,217.579,60.665,217.579,116.153z"/>
	<text transform="matrix(1 0 0 1 80.0703 112.3794)"><tspan x="0" y="0" fill="#FFFFFF" font-family="'GothicA1-Bold'" font-size="28.9126">BEST</tspan><tspan x="-12.91" y="26.021" fill="#FFFFFF" font-family="'GothicA1-Regular'" font-size="21.6844">PRODUCT</tspan></text>
	<path opacity="0.7" fill="none" stroke="#FFFFFF" stroke-width="0.5" stroke-miterlimit="10" d="M197.484,116.153
		c0,44.391-35.988,80.372-80.372,80.372c-44.395,0-80.382-35.981-80.382-80.372c0-44.392,35.988-80.381,80.382-80.381
		C161.496,35.772,197.484,71.761,197.484,116.153z"/>
</g>
</svg>
