<?xml version="1.0" encoding="utf-8"?>
<!-- Generator: Adobe Illustrator 16.0.0, SVG Export Plug-In . SVG Version: 6.00 Build 0)  -->
<!DOCTYPE svg PUBLIC "-//W3C//DTD SVG 1.0//EN" "http://www.w3.org/TR/2001/REC-SVG-20010904/DTD/svg10.dtd">
<svg version="1.0" id="Capa_1" xmlns="http://www.w3.org/2000/svg" xmlns:xlink="http://www.w3.org/1999/xlink" x="0px" y="0px"
	 width="213px" height="430.113px" viewBox="107.557 0 213 430.113" enable-background="new 107.557 0 213 430.113"
	 xml:space="preserve">
<g>
	<path id="Facebook" fill="#FFFFFF" d="M158.081,83.3c0,10.839,0,59.218,0,59.218h-43.385v72.412h43.385v215.183h89.122V214.936
		h59.805c0,0,5.602-34.721,8.316-72.685c-7.784,0-67.784,0-67.784,0s0-42.127,0-49.512c0-7.399,9.717-17.354,19.321-17.354
		c9.586,0,29.818,0,48.557,0c0-9.859,0-43.924,0-75.385c-25.016,0-53.477,0-66.021,0C155.878-0.004,158.081,72.48,158.081,83.3z"/>
</g>
</svg>
