<?xml version="1.0" encoding="utf-8"?>
<!-- Generator: Adobe Illustrator 16.0.0, SVG Export Plug-In . SVG Version: 6.00 Build 0)  -->
<!DOCTYPE svg PUBLIC "-//W3C//DTD SVG 1.0//EN" "http://www.w3.org/TR/2001/REC-SVG-20010904/DTD/svg10.dtd">
<svg version="1.0" id="Layer_1" xmlns="http://www.w3.org/2000/svg" xmlns:xlink="http://www.w3.org/1999/xlink" x="0px" y="0px"
	 width="169.063px" height="169.063px" viewBox="0 0 169.063 169.063" enable-background="new 0 0 169.063 169.063"
	 xml:space="preserve">
<g>
	<path fill="#B2B2B2" d="M122.406,0H46.654C20.929,0,0,20.93,0,46.655v75.752c0,25.727,20.929,46.655,46.653,46.655h75.753
		c25.727,0,46.655-20.93,46.655-46.655V46.655C169.063,20.93,148.133,0,122.406,0z M154.063,122.406
		c0,17.455-14.201,31.655-31.655,31.655H46.654C29.2,154.063,15,139.862,15,122.406V46.655C15,29.201,29.2,15,46.654,15h75.753
		c17.454,0,31.655,14.201,31.655,31.654L154.063,122.406L154.063,122.406z"/>
	<path fill="#B2B2B2" d="M84.531,40.97c-24.021,0-43.563,19.542-43.563,43.563c0,24.02,19.542,43.561,43.563,43.561
		c24.021,0,43.563-19.541,43.563-43.561C128.094,60.512,108.552,40.97,84.531,40.97z M84.531,113.093
		c-15.749,0-28.563-12.813-28.563-28.562c0-15.75,12.813-28.563,28.563-28.563c15.75,0,28.563,12.813,28.563,28.563
		C113.094,100.281,100.28,113.093,84.531,113.093z"/>
	<path fill="#B2B2B2" d="M129.921,28.251c-2.89,0-5.729,1.17-7.771,3.22c-2.051,2.04-3.229,4.88-3.229,7.78
		c0,2.891,1.18,5.729,3.229,7.779c2.04,2.04,4.881,3.221,7.771,3.221c2.899,0,5.729-1.181,7.78-3.221
		c2.05-2.05,3.22-4.89,3.22-7.779c0-2.9-1.17-5.74-3.22-7.78C135.661,29.421,132.821,28.251,129.921,28.251z"/>
</g>
</svg>
