<?xml version="1.0" encoding="utf-8"?>
<!-- Generator: Adobe Illustrator 16.0.0, SVG Export Plug-In . SVG Version: 6.00 Build 0)  -->
<!DOCTYPE svg PUBLIC "-//W3C//DTD SVG 1.0//EN" "http://www.w3.org/TR/2001/REC-SVG-20010904/DTD/svg10.dtd">
<svg version="1.0" id="Layer_1" xmlns="http://www.w3.org/2000/svg" xmlns:xlink="http://www.w3.org/1999/xlink" x="0px" y="0px"
	 width="372.414px" height="103.448px" viewBox="0 0 372.414 103.448" enable-background="new 0 0 372.414 103.448"
	 xml:space="preserve">
<g>
	<path fill="#FFFFFF" d="M70.836,78.804c-0.404,0-0.821-0.053-1.24-0.161c-0.994-0.26-1.822-0.854-2.457-1.77l-0.254-0.694
		c-0.431-4.272-0.664-8.68-0.688-13.112c-0.022-4.402-0.058-8.823-0.106-13.249c-0.047-4.376-0.239-8.827-0.57-13.235
		c-0.323-4.364-0.986-8.779-1.967-13.114l-0.032-0.243c-0.035-0.532-0.125-2.15,1.106-2.937c0.571-0.369,1.275-0.561,2.085-0.561
		c1.405,0,2.7,0.349,3.859,1.031c1.052,0.62,2.021,1.408,2.878,2.347c0.829,0.906,1.57,1.916,2.219,2.997
		c0.599,1.001,1.135,1.911,1.612,2.721c0.392,0.636,0.924,1.629,1.622,3.018l2.287,4.656c0.855,1.711,1.75,3.512,2.682,5.395
		c0.923,1.879,1.817,3.659,2.672,5.346c0.85,1.677,1.636,3.174,2.339,4.464c0.136,0.249,0.264,0.486,0.388,0.707
		c0.208-0.574,0.449-1.291,0.727-2.141c0.454-1.381,1.083-3.29,1.896-5.722c0.809-2.433,1.821-5.528,2.995-9.205
		c1.192-3.719,2.643-8.244,4.361-13.579l0.033-0.099c0.393-0.97,1.452-1.357,1.8-1.484c0.687-0.248,1.335-0.376,1.933-0.376
		c1.296,0,1.917,0.728,2.176,1.162c0.27,0.465,0.453,1.087,0.58,1.968c0.431,4.106,0.787,8.394,1.047,12.806
		c0.259,4.348,0.607,8.824,1.033,13.315c0.426,4.454,0.963,8.937,1.602,13.327c0.626,4.343,1.517,8.534,2.639,12.456l-0.887,1.784
		l-4.931,1.933l-2.017-1.253l-3.559-40.887c-0.539,1.736-1.117,3.714-1.718,5.886c-0.643,2.298-1.361,4.643-2.132,6.969
		c-0.768,2.294-1.542,4.468-2.311,6.46c-0.798,2.067-1.619,3.741-2.437,4.968c-1.003,1.512-2.027,2.34-3.118,2.533
		c-0.131,0.025-0.27,0.037-0.407,0.037c-1.857,0-2.686-2.062-2.988-2.914c-0.399-0.706-0.922-1.744-1.593-3.163
		c-0.673-1.41-1.474-3.048-2.388-4.868l-2.854-5.718c-1.002-2.005-1.943-3.9-2.831-5.687c-0.875-1.78-1.68-3.377-2.411-4.799
		c-0.75-1.438-1.288-2.497-1.621-3.166c-0.278-0.504-0.542-0.973-0.797-1.385c0.073,2.526,0.251,5.235,0.525,8.089
		c0.379,4.009,0.799,8.089,1.245,12.128c0.45,4.062,0.872,8.142,1.253,12.133c0.377,3.909,0.569,7.586,0.581,10.929
		c0.245,0.832,0.065,1.693-0.51,2.404c-0.485,0.595-1.143,1.042-1.954,1.321C71.789,78.726,71.32,78.804,70.836,78.804z"/>
	<path fill="#FFFFFF" d="M101.593,29.574c-0.192-0.097-0.465,0.442-0.823,1.607c-0.355,1.171-0.824,2.672-1.394,4.502
		c-0.576,1.835-1.182,3.907-1.824,6.22c-0.641,2.312-1.343,4.609-2.106,6.896c-0.762,2.289-1.527,4.42-2.286,6.395
		c-0.766,1.98-1.527,3.541-2.29,4.685s-1.48,1.772-2.145,1.89c-0.67,0.122-1.266-0.558-1.786-2.034
		c-0.382-0.667-0.917-1.727-1.609-3.182c-0.689-1.453-1.491-3.083-2.393-4.895c-0.909-1.812-1.859-3.716-2.863-5.717
		c-0.999-1.999-1.938-3.896-2.82-5.683c-0.878-1.787-1.69-3.393-2.428-4.825c-0.738-1.429-1.279-2.478-1.605-3.144
		c-0.578-1.049-1.087-1.893-1.542-2.539c-0.451-0.643-1.154-0.963-2.108-0.963c0,3.334,0.191,7.004,0.574,11.006
		c0.381,4.002,0.796,8.054,1.25,12.151c0.452,4.099,0.874,8.136,1.249,12.111c0.385,3.979,0.578,7.663,0.578,11.043
		c0.188,0.431,0.123,0.835-0.183,1.216c-0.31,0.381-0.737,0.668-1.287,0.859c-0.551,0.188-1.146,0.199-1.784,0.037
		c-0.645-0.172-1.182-0.561-1.614-1.184c-0.424-4.239-0.65-8.562-0.675-12.967c-0.024-4.408-0.058-8.832-0.109-13.263
		c-0.048-4.43-0.24-8.873-0.566-13.329c-0.34-4.454-1.007-8.896-2.004-13.327c-0.053-0.861,0.093-1.397,0.427-1.609
		c0.333-0.214,0.759-0.321,1.287-0.321c1.145,0,2.182,0.274,3.107,0.823c0.93,0.547,1.773,1.24,2.539,2.07
		c0.761,0.834,1.44,1.752,2.035,2.753c0.599,1,1.134,1.906,1.61,2.715c0.381,0.62,0.904,1.596,1.571,2.931l2.288,4.645
		c0.856,1.718,1.752,3.516,2.682,5.395c0.927,1.886,1.82,3.672,2.676,5.362c0.86,1.69,1.646,3.194,2.359,4.502
		c0.713,1.313,1.264,2.253,1.646,2.822c0.188,0,0.354-0.071,0.5-0.215c0.144-0.144,0.348-0.544,0.609-1.213
		c0.26-0.668,0.619-1.691,1.066-3.075c0.458-1.378,1.086-3.287,1.9-5.715c0.806-2.429,1.808-5.502,3.002-9.221
		c1.184-3.716,2.642-8.241,4.355-13.579c0.094-0.237,0.405-0.452,0.932-0.644c0.521-0.191,1.002-0.286,1.426-0.286
		c0.432,0,0.728,0.141,0.896,0.429c0.165,0.283,0.297,0.761,0.392,1.43c0.431,4.047,0.774,8.277,1.041,12.683
		c0.261,4.411,0.606,8.863,1.034,13.369c0.428,4.502,0.963,8.969,1.607,13.398c0.645,4.434,1.536,8.649,2.681,12.651l-4.928,1.931
		L101.593,29.574z"/>
	<path fill="#FFFFFF" d="M125.816,78.655c-0.816,0-1.552-0.301-2.114-0.863c-0.568-0.564-0.862-1.297-0.862-2.118
		c0-0.774,0.24-1.616,0.73-2.548c-0.381-0.049-0.759-0.161-1.128-0.348c-0.727-0.359-1.19-1.012-1.303-1.831l-0.013-0.099
		l-2.624-35.387c-0.307,0.157-0.604,0.321-0.888,0.496c-0.527,0.311-0.923,0.5-1.349,0.525l-0.056,0.011
		c-0.212,0.044-0.382,0.066-0.54,0.066c-0.427,0-0.872-0.09-1.354-0.279c-0.882-0.337-1.415-1.162-1.415-2.202
		c0-1.019,0.247-1.889,0.725-2.588c0.396-0.582,0.913-1.116,1.539-1.594c0.52-0.392,1.084-0.797,1.683-1.193
		c0.455-0.307,0.893-0.704,1.298-1.19c0.381-0.45,0.698-1.049,0.951-1.775c0.251-0.747,0.381-1.74,0.381-2.953l1.48-1.479
		c0.94,0,2.271,0.113,2.994,1.118c0.385,0.546,0.621,1.178,0.697,1.886c0.033,0.332,0.074,0.659,0.123,0.986
		c0.564-0.016,1.169-0.025,1.824-0.025c0.819,0,1.701,0.014,2.658,0.037c1.919,0.047,3.967,0.209,6.08,0.475
		c2.123,0.27,4.253,0.68,6.332,1.217c2.152,0.558,4.108,1.355,5.82,2.377c1.789,1.067,3.226,2.44,4.274,4.083
		c1.096,1.708,1.594,3.788,1.483,6.189l-0.018,0.18c-0.643,3.802-1.883,7.504-3.682,11.006c-1.773,3.449-3.887,6.803-6.284,9.973
		c-2.376,3.149-4.985,6.208-7.757,9.099c-2.76,2.882-5.526,5.662-8.225,8.263l-1.027,0.415c0.101,0,0.167-0.012,0.167-0.012
		C126.165,78.631,125.991,78.655,125.816,78.655z M125.833,32.625c-0.024,0.714-0.044,1.519-0.071,2.422
		c-0.023,0.89-0.036,1.808-0.036,2.746v2.216c0,4.755,0.18,9.539,0.533,14.221c0.36,4.758,0.539,9.618,0.539,14.438
		c0,0.055,0,0.11,0.003,0.166c0.8-0.93,1.682-1.916,2.65-2.958c1.761-1.908,3.695-3.981,5.793-6.225
		c2.044-2.183,3.955-4.48,5.677-6.83c1.698-2.324,3.138-4.717,4.286-7.123c1.092-2.289,1.646-4.565,1.646-6.76
		c0-0.961-0.251-1.751-0.77-2.422c-0.591-0.774-1.379-1.452-2.335-2.027c-0.993-0.589-2.145-1.065-3.414-1.413
		c-1.351-0.361-2.725-0.655-4.084-0.857c-1.379-0.205-2.705-0.348-3.937-0.416c-1.258-0.066-2.333-0.104-3.21-0.104
		c-0.214,0-0.49,0.009-0.834,0.031c-0.382,0.027-0.777,0.051-1.184,0.071c-0.36,0.023-0.691,0.055-0.986,0.097
		c-0.05,0.009-0.09,0.011-0.128,0.018l-0.116,0.111C125.849,32.195,125.844,32.394,125.833,32.625z"/>
	<path fill="#FFFFFF" d="M124.32,75.674c0-0.954,0.592-2.181,1.788-3.682c1.19-1.501,2.668-3.202,4.428-5.108
		c1.762-1.909,3.692-3.979,5.788-6.219c2.103-2.242,4.03-4.564,5.792-6.968c1.76-2.407,3.238-4.859,4.429-7.363
		c1.189-2.499,1.787-4.968,1.787-7.396c0-1.286-0.356-2.395-1.072-3.326c-0.715-0.927-1.633-1.724-2.748-2.393
		c-1.121-0.664-2.387-1.19-3.79-1.57c-1.406-0.383-2.825-0.683-4.252-0.896c-1.43-0.216-2.788-0.357-4.078-0.428
		c-1.284-0.072-2.382-0.108-3.288-0.108c-0.235,0-0.545,0.009-0.929,0.036c-0.378,0.024-0.772,0.049-1.176,0.072
		c-0.404,0.022-0.776,0.062-1.109,0.106c-0.334,0.047-0.522,0.071-0.572,0.071l-0.929,0.855c0,0.1-0.01,0.502-0.034,1.22
		c-0.024,0.712-0.047,1.524-0.074,2.43c-0.023,0.903-0.036,1.833-0.036,2.785v2.216c0,4.813,0.179,9.587,0.539,14.329
		c0.353,4.742,0.533,9.519,0.533,14.33c0,0.285,0.011,0.597,0.036,0.927c0.025,0.337,0.014,0.657-0.036,0.968
		c-0.047,0.312-0.18,0.571-0.392,0.784c-0.21,0.214-0.538,0.325-0.965,0.325c-0.287,0-0.57-0.074-0.859-0.218
		c-0.283-0.142-0.449-0.38-0.5-0.712l-2.789-37.595c-0.139,0.095-0.391,0.228-0.75,0.392c-0.354,0.168-0.727,0.349-1.107,0.54
		c-0.378,0.188-0.746,0.392-1.108,0.606c-0.357,0.214-0.58,0.323-0.676,0.323c-0.048,0-0.131,0.011-0.25,0.034
		c-0.122,0.026-0.203,0.035-0.251,0.035c-0.236,0-0.51-0.058-0.82-0.177c-0.311-0.118-0.464-0.392-0.464-0.821
		c0-0.717,0.153-1.3,0.464-1.752c0.31-0.452,0.716-0.869,1.214-1.252c0.5-0.383,1.037-0.76,1.607-1.141
		c0.574-0.383,1.108-0.872,1.609-1.469c0.498-0.594,0.905-1.344,1.213-2.252c0.309-0.901,0.464-2.047,0.464-3.428
		c0.957,0,1.551,0.166,1.79,0.5c0.234,0.334,0.376,0.726,0.425,1.178c0.049,0.455,0.11,0.905,0.182,1.361
		c0.071,0.452,0.416,0.772,1.034,0.963c1.333-0.049,2.943-0.049,4.822,0c1.886,0.049,3.865,0.206,5.937,0.469
		c2.074,0.255,4.118,0.651,6.144,1.175c2.026,0.523,3.836,1.263,5.433,2.216c1.595,0.954,2.86,2.155,3.786,3.609
		c0.931,1.455,1.349,3.228,1.254,5.324c-0.625,3.668-1.804,7.197-3.542,10.579c-1.737,3.384-3.784,6.634-6.143,9.751
		c-2.36,3.123-4.905,6.116-7.648,8.972c-2.738,2.86-5.465,5.597-8.183,8.222c-0.051,0-0.123,0.011-0.216,0.034
		c-0.098,0.023-0.167,0.037-0.216,0.037c-0.427,0-0.781-0.146-1.067-0.432C124.462,76.46,124.32,76.101,124.32,75.674z"/>
	<path fill="#FFFFFF" d="M160.242,53.852c-1.079-0.071-2.047-0.527-2.798-1.317c-0.718-0.747-1.152-1.654-1.289-2.681
		c-0.048-0.396-0.121-1.012-0.218-1.853c-0.094-0.825-0.201-1.745-0.323-2.741c-0.118-1-0.249-2.065-0.386-3.209
		c-0.145-1.147-0.275-2.236-0.398-3.266l-0.324-2.749c-0.096-0.804-0.165-1.397-0.208-1.78l-0.014-0.177v-0.5
		c0-0.87,0.194-1.667,0.579-2.36c0.302-0.551,1.058-1.48,2.687-1.48c1.26,0,2.296,0.54,3.006,1.565
		c0.533,0.768,0.933,1.706,1.189,2.789c0.233,0.989,0.379,2.091,0.434,3.281c0.044,1.129,0.054,2.22,0.035,3.243
		c-0.025,1.057-0.075,1.949-0.15,2.716c-0.092,0.937-0.098,1.239-0.098,1.321v1.572c0,0.73-0.015,1.519-0.036,2.366
		c-0.029,0.836-0.049,1.614-0.072,2.331c-0.026,0.693-0.036,1.176-0.036,1.45L160.242,53.852z"/>
	<path fill="#FFFFFF" d="M157.624,49.658c-0.049-0.383-0.121-0.991-0.214-1.824c-0.096-0.834-0.202-1.751-0.32-2.75
		c-0.121-1.001-0.25-2.075-0.396-3.216c-0.146-1.146-0.274-2.225-0.392-3.25c-0.117-1.027-0.227-1.944-0.321-2.753
		c-0.096-0.811-0.167-1.408-0.215-1.786v-0.5c0-0.623,0.132-1.171,0.393-1.646c0.26-0.474,0.724-0.714,1.39-0.714
		c0.766,0,1.361,0.311,1.788,0.931c0.429,0.619,0.754,1.381,0.969,2.282c0.208,0.909,0.339,1.91,0.392,3.004
		c0.044,1.098,0.058,2.145,0.034,3.147c-0.024,1.002-0.073,1.867-0.143,2.607c-0.075,0.74-0.102,1.226-0.102,1.463v1.572
		c0,0.717-0.015,1.492-0.042,2.326c-0.026,0.832-0.047,1.607-0.067,2.322c-0.027,0.715-0.041,1.211-0.041,1.499
		c-0.713-0.046-1.319-0.33-1.822-0.856C158.017,50.991,157.72,50.373,157.624,49.658z"/>
	<path fill="#FFFFFF" d="M174.706,77.153c-0.802,0-1.532-0.286-2.116-0.82c-0.506-0.469-1.021-1.36-0.609-2.935
		c0.292-1.315,1.67-1.997,2.685-2.394c1.127-0.44,2.536-0.912,4.194-1.398l5.364-1.572c1.898-0.558,3.756-1.192,5.516-1.886
		c1.73-0.683,3.322-1.464,4.751-2.322c1.008-0.606,1.812-1.288,2.391-2.023c-0.069-0.04-0.152-0.084-0.263-0.127
		c-0.819-0.334-1.969-0.632-3.398-0.874c-1.505-0.252-3.241-0.466-5.171-0.626c-1.998-0.171-4.076-0.414-6.165-0.729
		c-2.111-0.314-4.193-0.706-6.19-1.165c-2.094-0.478-3.998-1.175-5.658-2.064c-1.741-0.935-3.158-2.156-4.214-3.62
		c-1.116-1.538-1.677-3.417-1.677-5.586c0-2.056,0.454-4.12,1.341-6.134c0.861-1.943,2.019-3.838,3.447-5.645
		c1.414-1.784,3.042-3.465,4.851-5c1.797-1.526,3.715-2.877,5.687-4.014c1.986-1.144,3.992-2.047,5.956-2.694
		c2.024-0.666,3.948-1.005,5.715-1.005c0.406,0,0.831-0.008,1.285-0.033c0.148-0.004,0.284-0.011,0.421-0.011
		c0.434,0,0.835,0.038,1.195,0.11c0.681,0.133,1.286,0.494,1.737,1.035c0.471,0.56,0.705,1.314,0.705,2.239
		c0,2.372-1.103,3.596-2.026,4.202c-1.146,0.753-2.527,1.138-4.104,1.138l-0.861-0.277l-2.37-1.703
		c-0.759,0.071-1.611,0.332-2.533,0.766c-1.209,0.571-2.47,1.351-3.738,2.309c-1.293,0.97-2.569,2.11-3.792,3.382
		c-1.228,1.275-2.319,2.602-3.242,3.951c-0.915,1.342-1.661,2.695-2.212,4.025c-0.519,1.24-0.78,2.347-0.78,3.29
		c0,1.298,0.332,2.294,1.01,3.043c0.768,0.846,1.828,1.535,3.151,2.042c1.433,0.554,3.115,0.969,5.004,1.239
		c1.981,0.286,4,0.522,6,0.707c2.045,0.189,4.063,0.367,6.061,0.533c2.091,0.175,3.974,0.492,5.6,0.943
		c1.727,0.477,3.146,1.141,4.226,1.969c1.18,0.907,1.851,2.176,1.953,3.681c0.424,0.848,0.681,2.228-0.605,3.925
		c-0.854,1.132-2.107,2.205-3.821,3.29c-1.599,1.007-3.505,2.023-5.675,3.023c-2.148,0.987-4.389,1.896-6.67,2.692
		c-2.272,0.801-4.501,1.487-6.615,2.038c-2.162,0.567-4.049,0.93-5.591,1.079L174.706,77.153z"/>
	<path fill="#FFFFFF" d="M173.417,73.739c0.097-0.473,0.694-0.924,1.788-1.354c1.094-0.431,2.455-0.88,4.074-1.36
		c1.621-0.472,3.406-0.997,5.365-1.569c1.951-0.574,3.835-1.218,5.641-1.929c1.811-0.718,3.47-1.527,4.969-2.431
		c1.5-0.905,2.607-1.955,3.32-3.148c0-0.713-0.46-1.259-1.391-1.642c-0.932-0.381-2.169-0.698-3.716-0.966
		c-1.546-0.261-3.312-0.473-5.291-0.644c-1.975-0.166-4.002-0.403-6.072-0.713c-2.072-0.308-4.1-0.69-6.075-1.145
		c-1.978-0.452-3.744-1.096-5.287-1.93c-1.552-0.833-2.792-1.893-3.721-3.179c-0.929-1.286-1.394-2.86-1.394-4.719
		c0-1.855,0.405-3.702,1.215-5.535c0.814-1.833,1.896-3.612,3.254-5.328c1.357-1.718,2.906-3.31,4.645-4.791
		c1.737-1.473,3.56-2.759,5.469-3.856c1.904-1.096,3.798-1.955,5.678-2.57c1.885-0.622,3.637-0.932,5.254-0.932
		c0.432,0,0.884-0.011,1.36-0.036c0.471-0.021,0.892,0,1.252,0.071c0.356,0.071,0.652,0.25,0.891,0.536
		c0.24,0.287,0.356,0.715,0.356,1.288c0,1.382-0.451,2.372-1.355,2.964c-0.901,0.597-2.002,0.892-3.291,0.892l-2.781-1.999
		c-1.1,0-2.301,0.311-3.614,0.93c-1.312,0.62-2.642,1.44-3.999,2.466c-1.36,1.025-2.678,2.203-3.967,3.538
		c-1.286,1.335-2.418,2.716-3.395,4.146c-0.977,1.43-1.763,2.858-2.36,4.286c-0.595,1.428-0.893,2.718-0.893,3.861
		c0,1.667,0.467,3.013,1.396,4.04c0.927,1.023,2.167,1.833,3.714,2.429c1.548,0.595,3.323,1.035,5.324,1.321
		c2,0.283,4.024,0.524,6.075,0.715c2.045,0.19,4.076,0.37,6.076,0.534c1.999,0.174,3.774,0.466,5.323,0.895
		c1.548,0.427,2.785,1,3.719,1.715c0.929,0.713,1.396,1.693,1.396,2.931c0.52,0.764,0.41,1.634-0.325,2.607
		c-0.739,0.979-1.885,1.957-3.431,2.932c-1.55,0.976-3.386,1.955-5.504,2.929c-2.119,0.979-4.298,1.857-6.538,2.647
		c-2.241,0.785-4.409,1.451-6.505,1.997c-2.097,0.549-3.889,0.896-5.36,1.04c-0.428,0-0.796-0.144-1.111-0.43
		C173.285,74.956,173.225,74.456,173.417,73.739z"/>
	<path fill="#FFFFFF" d="M245.958,78.655c-0.634,0-1.818-0.241-2.61-1.824l-0.143-0.462c-1.002-7.549-1.63-15.449-1.869-23.485
		c-0.217-7.174-0.237-14.217-0.066-20.972c-0.259,0.046-0.529,0.072-0.813,0.072c-0.51,0-1.265-0.15-1.979-0.863
		c-0.564-0.564-0.862-1.295-0.862-2.118v-0.215c0-0.288,0.072-0.564,0.226-0.876l0.224-0.32c0.204-0.231,0.577-0.754,1.186-1.923
		c0.558-1.064,1.163-2.137,1.796-3.186c0.637-1.054,1.259-2.003,1.856-2.82c0.558-0.77,1.449-1.789,2.699-1.789
		c1.04,0,1.671,0.411,2.01,0.752c0.331,0.33,0.603,0.711,0.816,1.138c0.083,0.166,0.175,0.346,0.26,0.538
		c1.2-0.639,2.484-1.206,3.843-1.7c1.81-0.649,3.654-1.109,5.485-1.359c1.082-0.148,2.169-0.221,3.217-0.221
		c0.743,0,1.486,0.037,2.205,0.108c1.814,0.186,3.481,0.64,4.963,1.357c1.525,0.735,2.852,1.799,3.942,3.156
		c1.115,1.392,1.84,3.139,2.166,5.198l0.018,0.261c-0.054,2.595-0.816,5.076-2.267,7.372c-1.383,2.189-3.109,4.197-5.132,5.971
		c-1.993,1.741-4.177,3.311-6.487,4.666c-2.251,1.319-4.356,2.474-6.261,3.438c-1.87,0.945-3.444,1.722-4.684,2.307
		c-0.366,0.171-0.635,0.305-0.824,0.407v24.909c0,0.97-0.522,1.772-1.399,2.146C246.954,78.544,246.445,78.655,245.958,78.655z
		 M248.824,27.329c-0.138,1.277-0.306,2.683-0.502,4.187c-0.21,1.606-0.36,3.273-0.454,4.963c-0.092,1.669-0.082,3.327,0.034,4.927
		c0.065,0.91,0.196,1.776,0.393,2.575c1.567-0.713,3.195-1.496,4.865-2.331c2.164-1.078,4.262-2.329,6.247-3.714
		c1.96-1.364,3.747-2.898,5.308-4.556c1.434-1.509,2.527-3.21,3.27-5.055c-0.056-0.63-0.309-1.148-0.794-1.621
		c-0.7-0.681-1.579-1.254-2.602-1.707c-1.075-0.472-2.198-0.809-3.329-1.002c-1.177-0.204-2.139-0.302-2.866-0.302
		c-0.195,0-0.716,0.043-1.971,0.35c-1.018,0.251-2.107,0.574-3.222,0.963c-1.083,0.374-2.107,0.833-3.054,1.358
		C249.393,26.785,249.013,27.117,248.824,27.329z"/>
	<path fill="#FFFFFF" d="M244.674,76.172c-1.002-7.526-1.618-15.306-1.859-23.332c-0.238-8.029-0.238-15.785,0-23.266
		c-0.43,0.239-0.808,0.456-1.144,0.644c-0.328,0.191-0.74,0.286-1.214,0.286c-0.336,0-0.644-0.143-0.931-0.427
		c-0.286-0.288-0.429-0.643-0.429-1.074v-0.215c0-0.046,0.024-0.117,0.072-0.214c0.379-0.429,0.843-1.169,1.394-2.213
		c0.549-1.048,1.132-2.086,1.751-3.109c0.621-1.029,1.217-1.932,1.788-2.718c0.571-0.784,1.073-1.178,1.5-1.178
		c0.429,0,0.754,0.108,0.964,0.319c0.213,0.215,0.396,0.466,0.537,0.752c0.143,0.286,0.294,0.606,0.465,0.966
		c0.166,0.354,0.415,0.63,0.751,0.821c1.428-0.857,3.002-1.598,4.714-2.215c1.719-0.618,3.444-1.046,5.185-1.287
		c1.74-0.239,3.43-0.272,5.073-0.108c1.646,0.17,3.134,0.57,4.467,1.213c1.333,0.648,2.479,1.563,3.432,2.754
		c0.953,1.195,1.573,2.691,1.855,4.505c-0.048,2.333-0.725,4.535-2.036,6.609c-1.313,2.072-2.932,3.956-4.858,5.646
		c-1.931,1.693-4.018,3.193-6.252,4.505c-2.24,1.31-4.3,2.439-6.186,3.391c-1.883,0.954-3.43,1.715-4.644,2.287
		c-1.218,0.571-1.776,0.911-1.681,1.003v25.656c0,0.385-0.167,0.645-0.499,0.788c-0.334,0.144-0.642,0.215-0.932,0.215
		C245.437,77.175,245.006,76.84,244.674,76.172z M247.389,26.787c-0.143,1.381-0.323,2.896-0.536,4.54
		c-0.215,1.643-0.372,3.332-0.468,5.072c-0.094,1.74-0.078,3.444,0.041,5.11c0.116,1.669,0.436,3.17,0.963,4.502
		c2.053-0.903,4.194-1.915,6.436-3.038c2.237-1.116,4.379-2.391,6.427-3.823c2.051-1.427,3.898-3.013,5.54-4.751
		c1.645-1.738,2.87-3.681,3.685-5.826c0-1.143-0.421-2.121-1.251-2.929c-0.836-0.813-1.849-1.479-3.036-2.004
		c-1.194-0.523-2.423-0.89-3.687-1.104c-1.261-0.217-2.297-0.323-3.109-0.323c-0.474,0-1.25,0.133-2.324,0.392
		c-1.066,0.265-2.188,0.597-3.356,1c-1.165,0.405-2.261,0.894-3.285,1.468C248.401,25.645,247.72,26.213,247.389,26.787z"/>
	<path fill="#FFFFFF" d="M279.407,79.154c-0.874,0-1.636-0.22-2.268-0.651c-0.583-0.401-1.241-1.233-1.07-2.913
		c-0.003-3.018-0.062-6.265-0.177-9.658c-0.121-3.428-0.241-6.897-0.359-10.399c-0.119-3.511-0.157-7.011-0.104-10.401
		c0.045-3.421,0.266-6.674,0.656-9.673l0.809-1.134c0.291-0.146,0.64-0.219,1.236-0.258c0.403-0.026,0.688-0.04,0.851-0.04
		c0.919,0,1.673,0.162,2.301,0.494c0.521,0.276,1.394,0.994,1.394,2.702c0,2.816-0.011,5.88-0.031,9.193l-0.074,10.079
		c-0.022,3.402-0.035,6.772-0.035,10.099c0,3.327,0.044,6.36,0.137,9.025c0.08,1.309-0.28,2.28-1.063,2.858
		C280.989,78.926,280.251,79.154,279.407,79.154z M278.065,28.938c-0.287,0-0.576-0.037-0.858-0.111
		c-0.558-0.148-1.364-0.531-2.008-1.521c-0.472-0.723-0.702-1.642-0.702-2.807c0-1.542,0.869-2.205,1.387-2.468
		c0.59-0.292,1.249-0.443,1.952-0.443c2.124,0,2.896,1.176,3.168,1.879c0.303,0.788,0.458,1.689,0.458,2.676l-0.181,0.707
		c-0.429,0.794-1.007,1.372-1.713,1.727C279.09,28.818,278.58,28.938,278.065,28.938z"/>
	<path fill="#FFFFFF" d="M275.973,24.5c0-0.571,0.194-0.952,0.575-1.143c0.381-0.189,0.81-0.286,1.287-0.286
		c0.954,0,1.546,0.311,1.788,0.928c0.234,0.62,0.354,1.335,0.354,2.145c-0.282,0.523-0.644,0.895-1.068,1.111
		c-0.433,0.211-0.872,0.255-1.322,0.138c-0.455-0.115-0.832-0.417-1.143-0.892C276.13,26.026,275.973,25.355,275.973,24.5z
		 M277.55,75.674c0-3.099-0.062-6.362-0.179-9.793c-0.122-3.431-0.239-6.896-0.355-10.397c-0.123-3.502-0.158-6.943-0.109-10.327
		c0.043-3.385,0.26-6.55,0.644-9.508c0.097-0.046,0.32-0.082,0.676-0.108c0.36-0.022,0.613-0.034,0.754-0.034
		c0.666,0,1.201,0.106,1.605,0.319c0.406,0.217,0.61,0.683,0.61,1.396c0,2.814-0.017,5.873-0.038,9.186
		c-0.022,3.311-0.045,6.672-0.071,10.076c-0.022,3.408-0.031,6.776-0.031,10.109c0,3.339,0.043,6.362,0.141,9.081
		c0.045,0.809-0.109,1.344-0.464,1.609c-0.361,0.261-0.802,0.392-1.325,0.392c-0.567,0-1.049-0.131-1.428-0.392
		C277.6,77.018,277.453,76.482,277.55,75.674z"/>
	<path fill="#FFFFFF" d="M295.704,78.583c-2.292,0-4.238-0.751-5.781-2.238c-1.407-1.354-2.512-3.007-3.276-4.908
		c-0.731-1.813-1.254-3.736-1.557-5.727c-0.294-1.943-0.445-3.645-0.445-5.045l0.002-0.126c0.146-1.708,0.289-3.571,0.431-5.59
		c0.146-2.065,0.38-4.14,0.693-6.163c0.315-2.045,0.735-4.022,1.249-5.885c0.536-1.93,1.259-3.674,2.158-5.181
		c0.938-1.592,2.139-2.883,3.55-3.837c1.419-0.951,3.124-1.435,5.057-1.435c0.104,0,0.317,0.005,0.317,0.005
		c1.657,0,3.043,0.754,3.96,2.18c0.744,1.158,1.269,2.563,1.568,4.177c0.273,1.508,0.426,3.066,0.452,4.641
		c0.021,1.51,0.034,2.746,0.034,3.705l-1.479,1.479c-1.426,0-2.65-0.64-3.548-1.849c-0.718-0.965-1.276-2.092-1.658-3.345
		c-0.354-1.165-0.611-2.323-0.768-3.449l-0.042-0.415c-0.101,0.111-0.196,0.224-0.274,0.328c-0.616,0.802-1.204,1.86-1.746,3.146
		c-0.561,1.324-1.055,2.835-1.463,4.494c-0.416,1.696-0.768,3.38-1.048,5.005c-0.284,1.643-0.506,3.17-0.67,4.534
		c-0.157,1.335-0.241,2.368-0.241,3.078l-0.002,0.115c-0.089,1.163-0.089,2.462,0,3.861c0.086,1.327,0.346,2.579,0.768,3.728
		c0.407,1.098,0.979,2.052,1.701,2.836c0.627,0.675,1.454,1.141,2.515,1.414c1.474-0.016,2.657-0.212,3.524-0.592
		c0.885-0.38,1.605-0.899,2.146-1.531c0.578-0.677,1.032-1.445,1.351-2.281c0.373-0.983,0.741-2.011,1.091-3.053
		c0.356-1.083,0.731-2.152,1.12-3.219c0.434-1.187,1.06-2.312,1.868-3.34l0.806-0.519c0.382-0.098,0.729-0.143,1.05-0.143
		c0.516,0,0.971,0.124,1.352,0.363c0.551,0.354,0.946,0.857,1.148,1.459c0.146,0.44,0.223,0.935,0.223,1.472v0.786
		c0,2.163-0.367,4.278-1.091,6.291c-0.729,2.028-1.81,3.861-3.215,5.45c-1.412,1.586-3.111,2.881-5.063,3.845
		C300.485,78.087,298.211,78.583,295.704,78.583z"/>
	<path fill="#FFFFFF" d="M286.129,60.665c0.144-1.716,0.28-3.588,0.426-5.609c0.14-2.025,0.37-4.042,0.681-6.041
		c0.304-2.003,0.713-3.907,1.212-5.719c0.5-1.808,1.169-3.417,2.001-4.823c0.833-1.406,1.873-2.523,3.107-3.36
		c1.237-0.83,2.744-1.224,4.504-1.179c1.192,0,2.107,0.498,2.753,1.501c0.642,1,1.098,2.218,1.357,3.645
		c0.26,1.429,0.404,2.898,0.43,4.396c0.024,1.501,0.036,2.727,0.036,3.682c-0.951,0-1.738-0.42-2.363-1.251
		c-0.616-0.833-1.095-1.799-1.425-2.896c-0.334-1.095-0.572-2.168-0.718-3.216l-0.21-2.071c-0.053,0-0.135-0.014-0.251-0.039
		c-0.117-0.021-0.203-0.033-0.251-0.033c-0.81,0-1.561,0.452-2.249,1.356c-0.693,0.908-1.338,2.061-1.931,3.467
		c-0.597,1.406-1.109,2.978-1.538,4.716c-0.43,1.741-0.787,3.442-1.073,5.109c-0.282,1.669-0.512,3.209-0.678,4.611
		c-0.17,1.405-0.253,2.492-0.253,3.253c-0.097,1.24-0.097,2.595,0,4.073c0.097,1.475,0.384,2.858,0.861,4.146
		c0.475,1.287,1.143,2.394,1.998,3.32c0.861,0.933,2.005,1.563,3.429,1.895c1.766,0,3.193-0.235,4.288-0.712
		c1.1-0.478,1.991-1.12,2.685-1.93c0.691-0.812,1.225-1.716,1.607-2.719c0.379-1,0.751-2.037,1.107-3.106
		c0.355-1.075,0.724-2.133,1.108-3.184c0.379-1.045,0.927-2.022,1.644-2.928c0.571-0.144,0.989-0.129,1.249,0.035
		c0.264,0.168,0.445,0.392,0.538,0.68c0.095,0.285,0.142,0.619,0.142,1v0.786c0,2.001-0.332,3.933-0.998,5.789
		c-0.67,1.857-1.647,3.513-2.932,4.968c-1.285,1.452-2.823,2.621-4.606,3.499c-1.789,0.886-3.827,1.326-6.113,1.326
		c-1.908,0-3.493-0.608-4.754-1.824c-1.265-1.217-2.238-2.681-2.932-4.394c-0.688-1.718-1.179-3.514-1.463-5.397
		C286.273,63.607,286.129,62,286.129,60.665z"/>
	<path fill="#FFFFFF" d="M316.115,81.301c-0.069,0-0.145,0-0.218-0.009c-0.706-0.066-1.704-0.452-2.491-1.926l-0.173-0.746
		l2.071-56.462l0.462-1.019c1.146-1.091,2.133-1.598,3.101-1.598c0.265,0,0.517,0.04,0.762,0.12
		c1.115,0.358,1.888,1.353,2.305,2.966c0.32,1.214,0.497,2.726,0.552,4.619c0.048,1.799,0.033,3.834-0.039,6.056
		c-0.072,2.207-0.202,4.588-0.397,7.07c-0.188,2.409-0.354,4.833-0.497,7.195c-0.145,2.353-0.237,4.604-0.282,6.696
		c-0.021,0.863-0.021,1.683,0,2.452c1.671-1.826,3.212-3.733,4.601-5.699c1.928-2.729,3.697-5.344,5.251-7.768
		c1.564-2.444,2.98-4.606,4.196-6.421c1.344-2.001,2.596-3.354,3.831-4.14l0.797-0.232c0.931,0,1.755,0.168,2.458,0.5
		c0.596,0.286,1.592,1.051,1.592,2.98c0,0.134-0.014,0.339-0.043,0.628c-0.016,0.143-0.024,0.24-0.027,0.304l-0.148,0.648
		c-1.206,2.458-2.546,4.954-3.988,7.423c-1.441,2.478-3.029,4.917-4.724,7.234c-1.7,2.335-3.56,4.574-5.515,6.648
		c-1.757,1.867-3.667,3.605-5.688,5.168c0.085,0.08,0.192,0.166,0.334,0.269c0.694,0.505,1.61,1.003,2.717,1.482
		c1.175,0.503,2.51,1.019,3.978,1.532c1.455,0.51,2.905,0.957,4.318,1.323c1.403,0.372,2.74,0.676,3.972,0.906
		c1.165,0.222,2.068,0.332,2.691,0.332l1.481,1.48c0,0.177,0.012,0.514,0.034,1.003c0.028,0.629-0.015,1.286-0.124,1.957
		c-0.125,0.726-0.344,1.395-0.65,1.979c-0.495,0.937-1.392,1.472-2.458,1.472h-0.286c-0.331,0-0.64-0.082-0.908-0.234l-18.332-7.374
		c-0.096,1.941-0.271,3.597-0.529,4.942c-0.365,1.906-0.8,3.309-1.333,4.286C318.057,80.644,317.169,81.301,316.115,81.301z"/>
	<path fill="#FFFFFF" d="M316.786,22.213c1.003-0.952,1.798-1.333,2.392-1.145c0.597,0.193,1.037,0.836,1.325,1.931
		c0.283,1.095,0.449,2.527,0.499,4.288c0.051,1.764,0.037,3.75-0.032,5.969c-0.074,2.213-0.206,4.548-0.394,7.003
		c-0.192,2.453-0.361,4.859-0.504,7.218c-0.141,2.356-0.241,4.607-0.284,6.752c-0.05,2.146,0.023,4.007,0.217,5.576h0.21
		c0.1,0,0.169-0.022,0.217-0.07c2.476-2.479,4.69-5.098,6.645-7.861c1.957-2.762,3.72-5.372,5.292-7.825
		c1.569-2.458,2.968-4.585,4.18-6.397c1.216-1.811,2.345-3.048,3.397-3.719c0.714,0,1.319,0.121,1.82,0.358
		c0.499,0.239,0.751,0.786,0.751,1.643c0,0.097-0.014,0.25-0.037,0.464c-0.023,0.217-0.036,0.37-0.036,0.468
		c-1.192,2.43-2.498,4.868-3.928,7.324c-1.432,2.455-2.981,4.824-4.649,7.111c-1.663,2.287-3.464,4.456-5.396,6.503
		c-1.929,2.05-4.014,3.907-6.251,5.574c0,0.047-0.015,0.135-0.039,0.25c-0.022,0.122-0.031,0.204-0.031,0.251
		c0,0.478,0.391,1,1.177,1.574c0.787,0.572,1.786,1.117,3.001,1.642c1.216,0.525,2.576,1.049,4.076,1.572
		c1.5,0.526,2.978,0.978,4.428,1.36c1.456,0.38,2.816,0.688,4.075,0.929c1.265,0.238,2.252,0.355,2.967,0.355
		c0,0.193,0.013,0.551,0.036,1.073c0.024,0.523-0.014,1.072-0.106,1.644c-0.095,0.57-0.264,1.084-0.504,1.538
		c-0.236,0.452-0.615,0.676-1.143,0.676h-0.286c-0.093,0-0.166-0.023-0.211-0.071l-20.441-8.217
		c-0.05,2.813-0.242,5.084-0.573,6.824c-0.333,1.738-0.726,3.024-1.178,3.858c-0.456,0.835-0.931,1.227-1.429,1.181
		c-0.499-0.048-0.942-0.431-1.322-1.146L316.786,22.213z"/>
</g>
</svg>
