<?xml version="1.0" encoding="utf-8"?>
<!-- Generator: Adobe Illustrator 16.0.0, SVG Export Plug-In . SVG Version: 6.00 Build 0)  -->
<!DOCTYPE svg PUBLIC "-//W3C//DTD SVG 1.0//EN" "http://www.w3.org/TR/2001/REC-SVG-20010904/DTD/svg10.dtd">
<svg version="1.0" id="Layer_1" xmlns="http://www.w3.org/2000/svg" xmlns:xlink="http://www.w3.org/1999/xlink" x="0px" y="0px"
	 width="182.759px" height="227.586px" viewBox="0 0 182.759 227.586" enable-background="new 0 0 182.759 227.586"
	 xml:space="preserve">
<g>
	<g>
		<g>
			<g>
				<g>
					<g>
						<path fill="#FFFFFF" d="M127.345,189.972c0.317,0.136,0.273-0.104,0.334-0.121
							C127.122,189.696,127.34,190.028,127.345,189.972z"/>
						<polygon fill="#FFFFFF" points="121.843,188.439 121.967,188.396 121.107,188.294 						"/>
						<path fill="#FFFFFF" d="M116.873,186.525c0.339,0.518,1.819,0.647,2.659,1.104l0.117,0.133l0.502-0.115
							C119.06,187.276,117.592,186.917,116.873,186.525z"/>
						<path fill="#FFFFFF" d="M114.52,184.765c0.11,0.193-0.614-0.116,0.598,0.285c-0.05-0.04-0.067-0.054-0.098-0.077
							C114.912,184.932,114.766,184.873,114.52,184.765z"/>
						<path fill="#FFFFFF" d="M115.02,184.973C115.543,185.17,114.722,184.729,115.02,184.973L115.02,184.973z"/>
						<path fill="#FFFFFF" d="M112.591,184.083l0.729,0.162c-0.111-0.135-0.713-0.397-0.465-0.361
							C112.13,183.663,112.243,183.797,112.591,184.083z"/>
						<path fill="#FFFFFF" d="M111.845,184.062l0.374,0.095C112.17,184.1,112.081,184.051,111.845,184.062z"/>
						<path fill="#FFFFFF" d="M113.012,184.358l-0.793-0.202c0.077,0.094,0.044,0.205,0.36,0.103
							C112.478,184.332,112.664,184.298,113.012,184.358z"/>
						<path fill="#FFFFFF" d="M113.416,184.581c0.354,0.228,0.834,0.47,0.1,0.311C114.847,185.368,114.745,185.06,113.416,184.581z"
							/>
						<path fill="#FFFFFF" d="M116.485,186.77l0.479,0.3l0.49,0.063C117.209,187.101,116.494,186.653,116.485,186.77z"/>
						<path fill="#FFFFFF" d="M108.417,182.162c-0.072,0.052,0.15,0.282,0.163,0.394l0.536,0.131
							C108.878,182.529,108.407,182.28,108.417,182.162z"/>
						<path fill="#FFFFFF" d="M108.58,182.556l-0.802-0.195C108.443,182.656,108.591,182.65,108.58,182.556z"/>
						<polygon fill="#FFFFFF" points="111.573,184.379 112.918,184.629 111.332,184.285 						"/>
						<polygon fill="#FFFFFF" points="105.559,180.939 106.052,180.959 105.191,180.88 						"/>
						<path fill="#FFFFFF" d="M103.654,180.147c0.371,0.003-0.331-0.412,0.036-0.351c-0.524-0.198-1.011-0.279-1.449-0.351
							C102.685,179.574,103.122,179.788,103.654,180.147z"/>
						<path fill="#FFFFFF" d="M101.514,179.304c0.223,0.061,0.465,0.1,0.728,0.143C102.005,179.379,101.767,179.326,101.514,179.304
							z"/>
						<path fill="#FFFFFF" d="M106.515,181.784c-0.04-0.066-0.104-0.225-0.505-0.451l0.211,0.322
							C106.311,181.695,106.411,181.739,106.515,181.784z"/>
						<path fill="#FFFFFF" d="M106.229,181.666l-0.008-0.011c-0.317-0.142-0.538-0.24-0.632-0.282
							C105.669,181.41,105.862,181.498,106.229,181.666z"/>
						<path fill="#FFFFFF" d="M106.589,181.817c-0.027-0.012-0.048-0.021-0.074-0.033
							C106.535,181.816,106.549,181.83,106.589,181.817z"/>
						<path fill="#FFFFFF" d="M109.669,183.387c-0.489-0.07-1.461-0.341-0.638,0.202
							C109.405,183.585,108.933,183.277,109.669,183.387z"/>
						<path fill="#FFFFFF" d="M106.851,182.22l0.779,0.381c0.006-0.059-0.106-0.194,0.136-0.157L106.851,182.22z"/>
						<polygon fill="#FFFFFF" points="106.434,182.115 106.851,182.22 106.562,182.077 						"/>
						<path fill="#FFFFFF" d="M102.787,180.087c-0.379-0.066-0.757-0.226-1.185-0.398c0.436,0.238,0.895,0.467,1.339,0.663
							C103.032,180.317,103.275,180.294,102.787,180.087z"/>
						<path fill="#FFFFFF" d="M104.45,180.876c-0.026-0.007-0.057-0.016-0.082-0.022
							C104.408,180.891,104.443,180.912,104.45,180.876z"/>
						<polygon fill="#FFFFFF" points="97.46,177.813 97.51,177.878 97.541,177.852 						"/>
						<path fill="#FFFFFF" d="M103.002,180.421c0.325,0.187,0.55,0.228,0.771,0.252c-0.264-0.092-0.54-0.196-0.831-0.321
							C102.901,180.367,102.888,180.383,103.002,180.421z"/>
						<path fill="#FFFFFF" d="M100.315,178.877c0.158,0.12,0.343,0.245,0.539,0.372C100.71,179.109,100.4,178.854,100.315,178.877z"
							/>
						<path fill="#FFFFFF" d="M104.277,180.75l0.055,0.013C104.238,180.672,104.243,180.699,104.277,180.75z"/>
						<path fill="#FFFFFF" d="M104.277,180.75c-0.188-0.049-0.348-0.061-0.505-0.077c0.215,0.074,0.417,0.137,0.596,0.181
							C104.332,180.821,104.299,180.782,104.277,180.75z"/>
						<path fill="#FFFFFF" d="M95.631,178.475c0.144-0.15,1.108,0.1,1.791,0.644c0.82,0.214,0.595-0.606,0.088-1.24
							c-0.059,0.067-0.094,0.143-0.919-0.112c0.225,0.227,1.621,1.023,0.889,0.886c-1.075-0.381-0.816-0.453-1.271-0.781
							c0.321,0.423-1.461-0.286-1.392,0.146l0.958,0.307C95.768,178.383,95.401,178.312,95.631,178.475z"/>
						<path fill="#FFFFFF" d="M98.982,178.576l0.331,0.122c-0.352-0.195-0.579-0.388-0.995-0.749
							c-0.572-0.156-0.713-0.141-0.777-0.098l1.563,0.747L98.982,178.576z"/>
						<path fill="#FFFFFF" d="M100.755,179.347c-0.339,0.084-1.147-0.18-0.771,0.245c0.948,0.412,0.733,0.135,1.337,0.299
							c-1.547-0.628,0.485,0.087-0.564-0.516c0.313,0.102,0.588,0.209,0.846,0.313c-0.264-0.146-0.516-0.291-0.748-0.439
							l0.029,0.027l0.008,0.003l-0.003,0.002c0.055,0.055,0.069,0.079,0.002,0.031c-0.006,0.001-0.025-0.007-0.033-0.01
							C100.835,179.325,100.796,179.337,100.755,179.347c-0.422-0.239-0.046-0.083,0.103-0.044c0.009-0.007,0.024-0.012,0.031-0.021
							l-0.005-0.005l-1.57-0.578C99.624,178.871,100.029,179.047,100.755,179.347z"/>
						<path fill="#FFFFFF" d="M108.028,183.671c-0.04-0.038-0.032-0.051-0.029-0.067
							C107.889,183.586,107.844,183.587,108.028,183.671z"/>
						<path fill="#FFFFFF" d="M107.444,183.284c0.123,0.02,0.25-0.021,0.606,0.152c0.292,0.193-0.041,0.095-0.052,0.167
							c0.242,0.04,0.829,0.181,0.18-0.205l-0.12-0.019c-0.593-0.329-1.286-0.912-1.166-0.894
							C106.998,182.741,107.104,182.935,107.444,183.284z"/>
						<path fill="#FFFFFF" d="M104.02,181.364l-1.319-0.459l0.576,0.454l0.012-0.117
							C103.997,181.599,103.896,181.403,104.02,181.364z"/>
						<polygon fill="#FFFFFF" points="97.36,177.649 97.623,177.52 96.76,177.474 						"/>
						<polygon fill="#FFFFFF" points="95.713,176.911 95.857,176.76 95.375,176.666 						"/>
						<path fill="#FFFFFF" d="M32.38,105.547l0.033-0.424C32.389,105.322,32.38,105.452,32.38,105.547z"/>
						<path fill="#FFFFFF" d="M31.863,108.556l0.086,0.087C31.916,108.496,31.884,108.433,31.863,108.556z"/>
						<path fill="#FFFFFF" d="M57.854,154.243c-0.343-0.518-0.67-1.153-0.756-0.938l0.002,0.282
							C57.445,153.818,57.675,154.037,57.854,154.243z"/>
						<path fill="#FFFFFF" d="M37.265,132.3c0.006,0.061,0.013,0.124,0.02,0.187c0.133,0.094,0.258,0.182,0.371,0.262
							C37.537,132.612,37.404,132.46,37.265,132.3z"/>
						<path fill="#FFFFFF" d="M36.271,132.321l-0.225-0.782C36.08,131.723,36.147,131.977,36.271,132.321z"/>
						<path fill="#FFFFFF" d="M38.154,90.036l0.052-0.535C37.823,90.167,38.091,89.93,38.154,90.036z"/>
						<path fill="#FFFFFF" d="M79.234,168.555c-0.404-0.326-0.741-0.559-1.047-0.744C78.662,168.223,79.004,168.632,79.234,168.555z
							"/>
						<path fill="#FFFFFF" d="M34.425,107.126c0.003-0.247-0.022-0.358-0.07-0.36C34.347,107.021,34.363,107.168,34.425,107.126z"/>
						<path fill="#FFFFFF" d="M76.906,167.072c0.072,0.063,0.137,0.118,0.208,0.18c0.344,0.155,0.682,0.322,1.073,0.559
							C77.836,167.507,77.416,167.192,76.906,167.072z"/>
						<path fill="#FFFFFF" d="M80.521,49.095c0.041-0.018,0.086-0.036,0.125-0.053C80.64,49.01,80.59,49.042,80.521,49.095z"/>
						<path fill="#FFFFFF" d="M96.116,41.474c-0.139,0.125-0.374,0.299-0.592,0.457C95.64,41.865,95.817,41.742,96.116,41.474z"/>
						<path fill="#FFFFFF" d="M89.221,173.657C89.568,173.817,89.285,173.663,89.221,173.657L89.221,173.657z"/>
						<path fill="#FFFFFF" d="M90.508,175.255c-0.084-0.014-0.153-0.014-0.185,0.027C90.375,175.249,90.438,175.243,90.508,175.255z
							"/>
						<path fill="#FFFFFF" d="M72.935,166.283l-0.028-0.019C72.981,166.36,72.969,166.344,72.935,166.283z"/>
						<path fill="#FFFFFF" d="M89.69,174.004c-0.117-0.087-0.254-0.183-0.408-0.276C89.346,173.777,89.469,173.864,89.69,174.004z"
							/>
						<path fill="#FFFFFF" d="M89.667,173.878c0.115,0.066,0.205,0.118,0.291,0.167C90.017,174.034,89.989,173.995,89.667,173.878z"
							/>
						<path fill="#FFFFFF" d="M88.739,173.429c0.197,0.095,0.375,0.196,0.543,0.299c-0.061-0.048-0.083-0.072-0.062-0.07
							C89.119,173.609,88.977,173.541,88.739,173.429z"/>
						<path fill="#FFFFFF" d="M56.062,69.138c0.023-0.013,0.048-0.027,0.074-0.042C56.356,68.762,56.242,68.89,56.062,69.138z"/>
						<path fill="#FFFFFF" d="M48.89,149.278c0.015,0.009,0.025,0.015,0.039,0.023c-0.012-0.015-0.025-0.032-0.036-0.046
							L48.89,149.278z"/>
						<path fill="#FFFFFF" d="M47.788,148.401c0.61,0.235,0.822,0.499,1.104,0.854l0.113-0.767L47.788,148.401z"/>
						<path fill="#FFFFFF" d="M34.343,98.528l-0.521,0.871c0.098-1.245,0.532-2.026-0.066-1.241
							c0.552,0.351-1.207,3.722-0.553,4.061l-0.313,0.595c0.056-0.18,0.025-0.22,0.081-0.398c-0.646,1.156,0.217,1.041-0.243,2.61
							c-0.172,0.546-0.345,0.921-0.348,0.521l-0.071,1.286c-0.077,0.363-0.177,0.254-0.101-0.108c0,0-0.066,0.483-0.131,0.966
							c-0.055,0.484-0.109,0.968-0.109,0.968l-0.018-0.017c0.067,0.29,0.162,0.932,0.202,1.242c-0.143,0.48-0.049-0.253-0.145-0.136
							l0.07,1.083c-0.208,0.424-0.317-0.479-0.213-1.22c-0.76,0.946,0.051,0.901-0.43,3.058l-0.043-1.029
							c-0.424,0.644-0.312,1.457-0.542,2.63c0.104-0.29,0.634-2.328,0.776-1.146c-0.054,0.329-0.086,0.768,0.062,1.398
							c-0.242,0.01-0.174,0.629-0.118,1.402l-0.322-0.036c0.136,0.839,0.306,0.76,0.483,1.239c0.052,0.931-0.167,1.15-0.348,1.396
							c0.133,1.502,0.265-1.075,0.548,0.677c0.055,1.248,0.333,2.097,0.847,3.495c0.09,0.868-0.225-0.104-0.243,0.221l0.431,0.687
							c0.041,0.184-0.05,0.145-0.096,0.124c0.259,0.601,0.315-0.025,0.671,0.924c0.401,0.155,0.098,2.146,0.927,3.19
							c0.023,0.321-0.236-0.07-0.319,0.061c0.86,1.517,0.71,1.314,1.591,2.462c0,0,0.074,0.294,0.148,0.588
							c0.08,0.293,0.16,0.586,0.16,0.586c-0.154-0.898,0.569,0.006,1.218,0.761c-0.034-0.327-0.06-0.606-0.095-0.784
							c0,0,0.21,0.325,0.42,0.649c0.216,0.32,0.431,0.642,0.431,0.642c0.039,0.188-0.129,0.104-0.365-0.059
							c0.073,0.079,0.143,0.153,0.199,0.215c0.151,0.543-0.143,0.379-0.486,0.109l-0.084-0.586c-0.345-0.253-0.698-0.481-0.83-0.327
							c0.078,0.075,0.194,0.236,0.307,0.421c-0.093-0.066-0.163-0.104-0.171-0.047c-0.006,0.063,0.128,0.179,0.32,0.367l-0.15,0.481
							l0.166,0.011c0,0,0.196,0.479,0.392,0.958c0.206,0.477,0.412,0.952,0.412,0.952c1.06,1.094,2.161,1.896,3.602,3.688
							c-0.543-0.315-0.42,0.146-0.69,0.299c-0.099-0.702-1.14-1.402-1.729-2.466c0.307,0.553,0.108,0.516-0.021,0.406
							c0,0,0.356,0.412,0.714,0.825c0.363,0.403,0.728,0.808,0.728,0.808c-0.238,0.105,0.105,0.483,0.346,1.004
							c0.155-0.632,1.21,1.105,1.871,1.696c-0.1,0.146-0.364,0.086-0.978-0.79c0.414,1.171,1.385,0.852,1.855,1.943
							c-0.167-0.198-0.236-0.322-0.366-0.351c0.492,0.383,1.35,1.595,1.017,1.42l-0.17-0.196c1.043,1.384,3.494,3.933,3.989,3.805
							c-0.027,0.051-0.524,0.192-0.659,0.176c0,0,0.791,0.301,1.583,0.601c0.792,0.281,1.584,0.563,1.584,0.563
							c-0.447,0.071-0.312,1.426-1.476,0.569c0.255,0.327,0.577,0.728,1.294,1.231c-0.167-0.232-0.138-0.864,0.16-0.625
							c0.477,1.02,0.377,0.657,1.089,1.793c-0.258-0.34,0.476-0.448,0.951,0.007c-0.135-0.006-0.338,0.457-0.558,0.338l1.604,0.676
							c-0.375-0.195-0.37,0.31-0.196,0.675c-0.058-0.195,1.073,0.942,1.449,1.179l-0.449-0.551c1.37,1.266,1.909,0.576,3.318,1.746
							c-0.245-0.047-0.878,0.215-0.187,0.855c0.516,0.047,2.347,0.082,3.765,0.868l0.15,0.316l1.106,0.583
							c-0.873-0.101-3.168-0.666-4.327-1.133c0.472,0.529,0.033,0.274,0.87,0.898c0.2,0.347-0.595-0.159-0.843-0.343l1.88,1.554
							c0.114-0.333,1.697,0.833,1.789,0.547l-2.328-1.288c0.12-0.331,1.784,0.159,3.14,1.199c0.275,0.364-0.613,0.296-0.651,0.407
							c0.247,0.04,1.456,0.768,1.539,0.924l-0.7-0.273c0.71,0.658,1.532,0.533,2.297,1.447c0.315,0.24,0.741,1.021,0.909,0.895
							c-0.325-0.681,0.238-1.731,0.753-1.732c0.096,0.102,1.513,1.448,1.788,1.853c0.382,0.607-1.208,0.066-0.886,0.585
							c0.07-0.064,0.433,0.04,0.579,0.09c0.307,0.291-0.3,0.145,0.482,0.6c0.31-0.202,1.532,1.015,0.515-0.011
							c0.796,0.394,0.755,0.561,1.64,1.103c-0.163-0.359,1.188-0.147,1.986,0.229c-0.089,0.048,0.021,0.246,0.077,0.34
							c1.526,0.96,2.281,1.587,3.738,2.433c0.092,0.15,0.748,0.641,0.375,0.596c0.241,0.067,0.491,0.077,0.947,0.326
							c0.73,0.754-1.03-0.532-0.538,0.154c0.155-0.14,1.304,0.429,2.013,0.677c-0.052-0.375-1.463-0.885-2.168-1.146
							c0.208-0.369,1.542-0.109,3.17,0.566c1.271,0.58,0.398,0.529,0.64,0.594c2.268,1.316,2.308,0.415,4.086,1.695
							c0.639,0.639-0.213,0.492-0.134,0.753c-1.056-0.436-1.467-0.963-2.15-1.317l0.777,0.56c-0.36-0.092-1.063-0.39-1.391-0.653
							c0.521,0.562,3.892,2.12,5.604,3.224c0.362,0.081,0.959,0.277,0.744,0.049l-0.588-0.255c-0.428-0.458,1.21,0.274,0.532-0.181
							c0.834,0.252,1.802,0.46,2.83,1.104l0.069,0.374c0.016-0.091-0.629-0.509-0.974-0.577c0.508,0.104,1.482,1.186,2.153,1.065
							l-0.668-0.561c0.84,0.24,1.939,0.403,2.862,0.949c-0.309-0.482-0.237-0.075-0.77-0.721c0.401,0.685-2.453-1.199-1.702-0.325
							c-0.521-0.709-1.137-0.744-1.893-1.512c-0.017,0.105,0.237,0.334-0.543-0.108c-0.05,0.009-0.152,0-0.216-0.007
							c-0.023-0.016-0.031-0.021-0.052-0.034l0.039,0.033c-0.041-0.004-0.046-0.003,0.016,0.012c0.171,0.134,0.303,0.259,0.34,0.34
							c-0.503,0.015-1.772-0.638-2.258-0.747c-0.454-0.282,0.251-0.003,0.04-0.229l-0.723-0.168
							c0.038-0.233-1.087-0.978,0.087-0.522l-0.997-0.523c-0.53-0.418-1.313-0.886-1.855-1.064c-0.445-0.293-1.3-0.412-0.81-0.35
							l-1.62-0.716l0.013-0.057c-1.517-0.855-3.325-1.41-4.848-2.76c-0.536-0.243-1.095-0.489-1.905-1.045l-0.065-0.265
							c-0.682-0.326-1.833-1.329-2.211-1.329c-0.421-0.861-3.029-2.027-4.08-2.835l-0.182,0.186
							c-0.753-0.511-1.516-0.936-2.507-1.487l-0.069,0.225c-0.908-0.401-1.975-1.552-3.229-2.44
							c0.136-0.008,0.438,0.238,0.633,0.442c-1.195-1.477-3.35-2-4.438-3.325c-0.376-0.193-0.594-0.403-0.787-0.628
							c0.031,0.023,0.061,0.042,0.088,0.055c-0.033-0.027-0.081-0.067-0.132-0.108c-0.119-0.145-0.244-0.296-0.374-0.453
							c0.1,0.152,0.202,0.291,0.302,0.396c-0.255-0.193-0.646-0.481-1.051-0.737l-0.005-0.314c-0.031-0.022-0.056-0.04-0.089-0.064
							c-0.303-0.365-0.361-0.151-0.286,0.147c-0.209-0.123-0.408-0.228-0.576-0.292c-0.043-0.538-1.041-0.706-1.163-1.36
							c-0.38-0.05-1.893-1.466-2.364-1.327c0.024-0.052-0.062-0.166,0.132,0.005c-0.364-0.391-0.715-0.793-1.147-1.029l0.045-0.377
							l-1.123-0.505c-0.375-0.629-0.504-0.909,0.158-0.588c-1.456-0.927-1.067-0.863-2.326-1.645l0.191-0.086
							c-0.363-0.362-1.116-0.783-1.207-1.123c-0.521-1.071-3.737-4.292-5.113-6.919c-0.153,0.802-0.566-1.262-0.996-1.107
							c0.017-0.217-0.14-0.601,0.22-0.272c-0.938-1.168-1.017-1.991-1.867-2.679c0.035-0.217,0.333,0.173,0.328,0.001
							c-0.085-0.088-0.339-0.349-0.344-0.522c-0.004-0.172,0.208,0.13,0.377,0.303c-0.772-1.293-1.201-1.236-1.612-1.143
							c-0.196-0.775-0.393-1.103-0.876-1.49c-0.002-0.302-0.077-0.762,0.385,0.066c-0.248-0.478-1.188-3.025-1.485-2.963
							c0.014-0.187-0.256-0.7-0.34-0.819c-0.389-1.132-0.423-1.23-0.806-2.343l0.053,0.326c-0.512-0.324-0.388-0.907-0.685-1.809
							l0.046,0.016c-0.271-2.174-0.39-0.88-0.523-3.042l-0.214,0.16c-0.552-0.105-0.051-1.928-0.373-3.129l-0.082,0.463
							c-0.268-0.665,0.5-1.96,0.537-2.623c0.037-0.148,0.085,0.227,0.129,0.428c0.211-1.766-0.331-0.208-0.455-1.522
							c0.164-0.245,0.434,0.3,0.454-0.578c0.12-0.425-0.526-2.574-0.069-3.76c-0.154,0.252-0.309,0.508-0.35-0.114
							c0.034-0.955,0.787-2.456,0.542-3.357c0.055-0.112,0.096-0.15,0.13-0.149c0.017-0.727,0.304-2.326,0.207-2.804
							c0.478-0.225,0.67-1.326,0.879-2.352c0.207-1.023,0.423-1.967,0.78-1.829c0,0,0.185-0.524,0.369-1.047
							c0.196-0.521,0.392-1.041,0.392-1.041l0.051,0.083c0.588-1.292,0.643-1.817,0.683-2.353c0.186-0.278,0.149-0.029,0.174,0.013
							c1.037-1.815,1.106-1.999,1.604-3.726l0.305-0.04c0.101-0.495,1.822-2.423,2.712-4.278c0.013,0.032,0.029,0.093-0.03,0.249
							c1.011-2.112,3.716-4.1,3.523-5.306l0.771-1.338c-1.286,1.509-0.124-0.476-0.748,0.07c0.444-0.649,1.482-1.401,0.911-0.628
							l-0.129,0.088c0.137,0.563,1.692-1.797,1.912-1.542c2.504-2.98,5.322-5.539,7.956-8.049l-0.557,0.029l0.934-0.867
							c0.301-0.169,0.521-0.102-0.146,0.513c0.486-0.18,0.984-1.172,0.95-1.249c1.401-1.104-0.217,0.785,0.188,0.42l0.521-0.524
							l-0.15,0.082c0.337-0.517,0.268-0.671,1.087-1.394c0.562-0.41,0.414-0.071,0.625-0.242c0.017,0.02,0.093-0.032,0.317-0.271
							l1.22-1.039l-0.672,0.207c0.439-0.578,1.145-0.985,0.372-0.743c1.134-0.355,4.685-3.743,5.319-4.027
							c0.644-0.79,1.418-1.401,2.396-2.132c-0.275,0.14-0.62-0.005,0.237-0.621c0.104,0.764,1.705-0.949,2.677-1.072
							c-0.803,0.196,2.35-1.851,1.123-1.503c0.74-0.478,0.192,0.17,0.822-0.099c1.532-1.448,3.829-2.562,5.904-4.097
							c-0.017-0.095-0.449,0.04-0.067-0.383l1.375-0.408c0.397-0.322,0.104-0.685,1.048-0.953c-0.15,0.012-0.376,0.03-0.107-0.185
							c4.438-2.501,8.481-5.888,13.287-8.113c-0.689,0.264-0.304-0.015,0.145-0.337c-0.317,0.173-0.119-0.183-0.245-0.239
							c0,0,0.491-0.231,1.016-0.563c0.135-0.09,0.269-0.177,0.433-0.345c0.072-0.094,0.198-0.167,0.295-0.558
							c0.016-0.13,0.034-0.208-0.013-0.405c-0.045-0.179-0.133-0.327-0.227-0.423c-0.246-0.243-0.336-0.238-0.482-0.302
							c-0.367-0.095-0.438-0.065-0.553-0.079c-0.084-0.001-0.133-0.001-0.133-0.001c-0.507,0.359-2.394,0.611-2.535,0.989
							l0.647-0.254c-0.775,0.61,1.469,0.441,1.437,0.967c0.201-0.156,0.508-0.239,0.729-0.22c0.029-0.009,0.034,0.031,0.043-0.009
							c0.017-0.193,0.075-0.363,0.111-0.402c0.063-0.049,0.004,0.014-0.143-0.051c-0.064-0.025-0.13-0.07-0.239-0.13L95.6,39.862
							l-0.001-0.003c0.002-0.004-0.006,0.001-0.009,0.002c-0.117,0.065-0.24,0.133-0.365,0.203c-0.618,0.324-1.37,0.688-1.892,1.398
							c-0.358,0.12,0.176-0.301-0.049-0.286c-0.236,0.402-0.64,0.717-1.485,1.15l0.063-0.1c-2.21,1.478-3.289,1.913-5.88,3.429
							l0.314,0.078c-0.558,0.323-0.712,0.335-0.997,0.45c-0.425,0.703,1.529-0.968,1.18-0.269c-0.983,0.055-3.807,2.478-4.587,2.349
							c-0.827,0.55,0.394,0.065-0.433,0.615l-0.301,0.023l-0.102,0.299c-0.557,0.337-0.932,0.369-1.022,0.279
							c0.139-0.076,0.352-0.282,0.486-0.385c-0.799,0.328-1.935,1.391-2.205,1.51l0.839-0.466c-2.158,1.643-4.973,3.403-6.898,5.207
							l0.227-0.028c-1.48,1.357-1.361,0.853-3.05,2.26l0.047-0.069c-0.281,0.355-0.711,0.758-1.192,1.117
							c0.356-0.444-0.979,0.441-0.495-0.12c-1.568,1.517-0.737,0.8-1.597,2.018l-0.373,0.063c-0.274,0.438-0.252,0.53-1.067,1.261
							c0.594-0.693-0.721,0.226-0.075-0.576c-2.041,1.151-2.36,2.503-3.547,2.742c-0.467,1.077,1.697-1.082,1.321-0.611
							c0.485-0.192-0.416,0.854-0.993,1.289c-0.561,0.472-1.376,0.321-2.751,1.567c0.139-0.122,0.122-0.159,0.261-0.28
							c-0.605,0.366-0.889,1.042-1.659,1.462c-0.139,0.551-0.821,0.74-0.649,1.123l1.181-1.223
							c-0.639,0.729-0.981,1.677-2.275,2.612c0.033-0.143,0.3-0.546,0.494-0.811c-0.417,0.234-0.59,0.673-1.02,0.921
							c-0.179-0.382,1.426-1.496,1.979-2.415c-0.482,0.215-1.227,1.548-1.145,0.879c-0.166,0.908-1.372,1.215-1.973,2.398
							l-0.108-0.227c-0.116,0.166-0.328,0.537-0.59,0.792l0.25-0.688c-0.534,0.905-1.547,1.236-2.123,2.044
							c1.418-1.481,0.524-0.134,1.251-0.634c-1.517,2.035-1.466,0.603-3.306,2.767c0.232-0.309,1.08-0.964,0.754-0.449
							c-0.401,0.362-0.947,0.829-1.26,0.993c-1.212,1.438,0.372-0.054-0.05,0.641c-0.64,0.287-0.521,0.768-0.985,1.449l-0.187-0.153
							c-1.498,1.532,0.013,0.751-1.354,2.11l0.258-0.84l-0.569,0.831l-0.082-0.334c-0.529,0.979-0.783,1.209-1.499,2.01
							c0.287-0.093,0.258,0.376-0.305,1.134c-0.499,0.432,0.031-0.429-0.739,0.67c0.057-0.333,0.104-0.715,0.633-1.049
							c-0.026-0.095,0.061-0.33,0.037-0.426c-0.559,0.453-1.082,1.384-1.365,1.78c0.117-0.147,0.26-0.321,0.355-0.394l-0.859,1.782
							c-0.25,0.2-0.171-0.041-0.092-0.28c-0.205,0.339-0.269,0.627-0.577,1.119c-0.077-0.233-0.269-0.318,0.125-1.052l-0.864,1.668
							c-0.141,0.056-0.718,0.677-0.647,0.434c-0.663,0.814-1.032,2.354-1.837,3.474c-0.002,0.081-0.04,0.224-0.159,0.492
							c-0.665,1.104-1.414,2.018-1.835,3.521l-0.688,0.643c-0.426,1.13,0.888-0.89,0.188,0.987
							c-0.457,1.341-0.484,0.367-0.771,0.787c-0.11,0.726-0.227,1.984-0.92,3.119C34.062,99.216,34.228,98.916,34.343,98.528z
							 M31.629,113.098c-0.043-0.289-0.185-0.873-0.03-1.078C31.859,112.36,31.722,112.606,31.629,113.098z M37.866,134.411
							c-0.171-0.146-0.294-0.452-0.391-0.817C37.621,133.818,37.759,134.087,37.866,134.411z M85.398,171.921l-0.032-0.004
							C84.857,171.545,85.036,171.681,85.398,171.921z M86.499,172.61c0.132,0.03,0.139-0.004,0.105-0.059
							c-0.108,0.013-0.369-0.116-0.655-0.283C86.001,172.367,86.13,172.481,86.499,172.61z M60.177,67.544l-0.229,0.121
							C60.323,67.234,60.247,67.387,60.177,67.544z"/>
						<path fill="#FFFFFF" d="M36.391,132.327c0.001-0.091,0.031-0.131,0.063-0.168C36.367,132.077,36.324,132.096,36.391,132.327z"
							/>
						<path fill="#FFFFFF" d="M38.145,90.135l0.024-0.038c0-0.028-0.006-0.047-0.015-0.061L38.145,90.135z"/>
						<path fill="#FFFFFF" d="M68.021,164.321c-0.208-0.175-0.308-0.297-0.366-0.389C67.61,163.973,67.685,164.084,68.021,164.321z"
							/>
						<path fill="#FFFFFF" d="M92.821,175.309l-0.773-0.306c0.366,0.165,0.472,0.274,0.638,0.397
							C92.693,175.342,92.586,175.199,92.821,175.309z"/>
						<path fill="#FFFFFF" d="M98.723,179.721c0.123,0.022,0.237,0.104,0.358,0.125l0.017-0.115
							C98.621,179.523,98.254,179.457,98.723,179.721z"/>
						<path fill="#FFFFFF" d="M93.165,176.365c-0.028,0.211,0.473,0.374,1.016,0.59l-0.094-0.044
							C94.364,176.729,93.764,176.547,93.165,176.365z"/>
						<path fill="#FFFFFF" d="M94.305,177.007c0.167,0.069,0.335,0.143,0.489,0.228C94.903,177.16,94.606,177.119,94.305,177.007z"
							/>
						<path fill="#FFFFFF" d="M88.022,173.24c0.223,0.171,0.271-0.153,0.374-0.01C88.786,173.142,86.617,172.678,88.022,173.24z"/>
						<polygon fill="#FFFFFF" points="93.303,177.171 93.222,176.855 92.84,176.896 						"/>
						<path fill="#FFFFFF" d="M89.242,174.985l0.805,0.476c0.006-0.044,0.123-0.014,0.262,0.034
							C89.798,175.233,89.256,174.909,89.242,174.985z"/>
						<path fill="#FFFFFF" d="M90.309,175.495c0.267,0.137,0.523,0.259,0.69,0.295C90.854,175.722,90.537,175.574,90.309,175.495z"
							/>
						<polygon fill="#FFFFFF" points="92.121,176.687 91.896,176.519 91.311,176.215 						"/>
						<path fill="#FFFFFF" d="M80.392,170.293l-0.924-0.432c-0.133,0.024,0.084,0.205,0.433,0.359
							C80.142,170.286,80.487,170.441,80.392,170.293z"/>
						<path fill="#FFFFFF" d="M82.771,172.363c-0.218-0.176-0.208-0.233-0.307-0.379l-0.174,0.259L82.771,172.363z"/>
						<path fill="#FFFFFF" d="M80.121,171.011c-0.13,0.025-1.415-0.505-0.273,0.107C79.979,171.096,80.91,171.522,80.121,171.011z"
							/>
						<polygon fill="#FFFFFF" points="67.169,162.742 67.388,162.881 67.638,162.436 						"/>
						<path fill="#FFFFFF" d="M55.497,155.671c0.87,0.864,0.421-0.059,1.183,0.751c0.297,0.086-0.623-0.661-0.329-0.559
							C55.702,155.498,55.447,155.198,55.497,155.671z"/>
						<path fill="#FFFFFF" d="M56.351,155.863c0.104,0.059,0.216,0.119,0.34,0.177C56.505,155.931,56.412,155.886,56.351,155.863z"
							/>
						<polygon fill="#FFFFFF" points="93.985,39.112 93.187,39.233 93.729,39.252 						"/>
						<path fill="#FFFFFF" d="M92.634,39.909l-0.273-0.254l-0.359,0.422C92.165,40.01,92.483,39.879,92.634,39.909z"/>
						<path fill="#FFFFFF" d="M30.998,115.339l0.08,0.059c0.081-0.129,0.08-0.317,0.082-0.696L30.998,115.339z"/>
						<polygon fill="#FFFFFF" points="32.284,104.495 32.235,104.676 32.601,104.402 						"/>
						<path fill="#FFFFFF" d="M34.797,95.713c-0.156,0.339-0.271,0.766-0.421,1.11C34.636,96.049,35.173,95.766,34.797,95.713z"/>
					</g>
				</g>
			</g>
		</g>
	</g>
	<g>
		<g>
			<g>
				<g>
					<g>
						<path fill="#FFFFFF" d="M147.678,190.409c0.146,0.025,0.103-0.187,0.126-0.223
							C147.556,190.222,147.681,190.464,147.678,190.409z"/>
						<polygon fill="#FFFFFF" points="145.228,190.776 145.274,190.692 144.907,190.886 						"/>
						<path fill="#FFFFFF" d="M142.957,190.67c0.199,0.366,0.825-0.021,1.225,0.124l0.063,0.085l0.195-0.278
							C143.946,190.623,143.299,190.785,142.957,190.67z"/>
						<path fill="#FFFFFF" d="M141.781,189.845c0.068,0.143-0.268,0.107,0.28,0.057c-0.027-0.017-0.034-0.026-0.05-0.038
							C141.963,189.863,141.896,189.859,141.781,189.845z"/>
						<path fill="#FFFFFF" d="M142.012,189.863C142.251,189.864,141.86,189.74,142.012,189.863L142.012,189.863z"/>
						<path fill="#FFFFFF" d="M140.903,189.894l0.321-0.109c-0.063-0.086-0.342-0.116-0.235-0.172
							C140.663,189.666,140.727,189.751,140.903,189.894z"/>
						<path fill="#FFFFFF" d="M140.594,190.141l0.165-0.046C140.732,190.06,140.689,190.046,140.594,190.141z"/>
						<path fill="#FFFFFF" d="M141.11,190l-0.352,0.095c0.043,0.061,0.043,0.176,0.161-0.032
							C140.887,190.167,140.96,190.068,141.11,190z"/>
						<path fill="#FFFFFF" d="M141.304,190.063c0.173,0.085,0.399,0.145,0.078,0.254
							C141.986,190.295,141.908,190.04,141.304,190.063z"/>
						<path fill="#FFFFFF" d="M142.824,191.034l0.232,0.114l0.209-0.11C143.161,191.093,142.815,190.921,142.824,191.034z"/>
						<path fill="#FFFFFF" d="M138.95,189.621c-0.023,0.074,0.097,0.207,0.115,0.305l0.237-0.076
							C139.186,189.792,138.961,189.733,138.95,189.621z"/>
						<path fill="#FFFFFF" d="M139.065,189.926l-0.354,0.114C139.022,190.069,139.082,190.011,139.065,189.926z"/>
						<polygon fill="#FFFFFF" points="140.52,190.533 141.104,190.286 140.409,190.532 						"/>
						<polygon fill="#FFFFFF" points="137.62,189.552 137.826,189.385 137.462,189.635 						"/>
						<path fill="#FFFFFF" d="M136.737,189.543c0.152-0.139-0.189-0.255-0.031-0.338c-0.24,0.016-0.45,0.132-0.64,0.235
							C136.265,189.387,136.473,189.412,136.737,189.543z"/>
						<path fill="#FFFFFF" d="M135.75,189.59c0.099-0.03,0.203-0.088,0.316-0.149C135.961,189.47,135.856,189.513,135.75,189.59z"/>
						<path fill="#FFFFFF" d="M138.12,189.977c-0.024-0.047-0.071-0.17-0.264-0.229l0.127,0.22
							C138.025,189.97,138.072,189.973,138.12,189.977z"/>
						<path fill="#FFFFFF" d="M137.988,189.974l-0.005-0.007c-0.148-0.013-0.251-0.021-0.295-0.024
							C137.726,189.946,137.816,189.956,137.988,189.974z"/>
						<path fill="#FFFFFF" d="M138.155,189.979l-0.035-0.003C138.133,189.998,138.141,190.006,138.155,189.979z"/>
						<path fill="#FFFFFF" d="M139.615,190.3c-0.21,0.109-0.642,0.219-0.237,0.419C139.531,190.579,139.3,190.465,139.615,190.3z"/>
						<path fill="#FFFFFF" d="M138.313,190.253l0.367,0.065c-0.005-0.057-0.067-0.142,0.036-0.196L138.313,190.253z"/>
						<polygon fill="#FFFFFF" points="138.129,190.313 138.313,190.253 138.177,190.229 						"/>
						<path fill="#FFFFFF" d="M136.374,189.818c-0.164,0.086-0.339,0.086-0.537,0.092c0.21,0.052,0.428,0.084,0.636,0.093
							C136.505,189.937,136.602,189.821,136.374,189.818z"/>
						<path fill="#FFFFFF" d="M137.157,189.913l-0.035,0.01C137.143,189.942,137.16,189.949,137.157,189.913z"/>
						<polygon fill="#FFFFFF" points="133.895,189.821 133.924,189.861 133.933,189.825 						"/>
						<path fill="#FFFFFF" d="M136.506,190.044c0.157,0.049,0.255,0.001,0.349-0.062c-0.12,0.017-0.247,0.024-0.382,0.021
							C136.458,190.032,136.454,190.053,136.506,190.044z"/>
						<path fill="#FFFFFF" d="M135.203,189.666c0.081,0.048,0.173,0.09,0.271,0.129
							C135.396,189.724,135.235,189.611,135.203,189.666z"/>
						<path fill="#FFFFFF" d="M137.07,189.862l0.024-0.009C137.045,189.806,137.05,189.828,137.07,189.862z"/>
						<path fill="#FFFFFF" d="M137.07,189.862c-0.083,0.026-0.149,0.076-0.216,0.12c0.097-0.013,0.188-0.031,0.268-0.06
							C137.103,189.907,137.084,189.884,137.07,189.862z"/>
						<path fill="#FFFFFF" d="M133.244,191.165c0.037-0.196,0.463-0.36,0.814-0.132c0.362-0.133,0.159-0.794-0.135-1.172
							c-0.015,0.086-0.019,0.166-0.39,0.267c0.124,0.113,0.8,0.289,0.483,0.454c-0.488,0.08-0.394-0.088-0.624-0.203
							c0.189,0.256-0.632,0.331-0.543,0.698l0.431-0.108C133.286,191.025,133.129,191.108,133.244,191.165z"/>
						<path fill="#FFFFFF" d="M134.619,189.913l0.151-0.018c-0.17-0.043-0.289-0.127-0.508-0.292
							c-0.255,0.086-0.31,0.156-0.33,0.222l0.739,0.061L134.619,189.913z"/>
						<path fill="#FFFFFF" d="M135.445,189.925c-0.127,0.21-0.492,0.285-0.281,0.528c0.442,0.005,0.317-0.166,0.585-0.248
							c-0.714,0.021,0.21-0.11-0.299-0.256c0.142-0.03,0.268-0.035,0.387-0.039c-0.127-0.032-0.249-0.07-0.363-0.115l0.016,0.015
							l0.003-0.001l-0.001,0.004c0.03,0.028,0.039,0.045,0.006,0.027c-0.003,0.003-0.012,0.004-0.016,0.004
							C135.476,189.873,135.461,189.899,135.445,189.925c-0.204-0.055-0.029-0.059,0.036-0.081c0.003-0.011,0.009-0.021,0.01-0.031
							l-0.002-0.003l-0.719,0.086C134.92,189.932,135.109,189.935,135.445,189.925z"/>
						<path fill="#FFFFFF" d="M138.977,191.165c-0.021-0.021-0.02-0.035-0.021-0.051
							C138.909,191.138,138.891,191.155,138.977,191.165z"/>
						<path fill="#FFFFFF" d="M138.689,191.021c0.053-0.027,0.101-0.111,0.268-0.082c0.144,0.071-0.005,0.104-0.001,0.175
							c0.104-0.053,0.362-0.139,0.049-0.258l-0.052,0.027c-0.284-0.087-0.641-0.372-0.589-0.399
							C138.438,190.682,138.507,190.823,138.689,191.021z"/>
						<path fill="#FFFFFF" d="M137.045,190.527l-0.6,0.079l0.295,0.199l-0.011-0.112
							C137.065,190.753,136.999,190.611,137.045,190.527z"/>
						<polygon fill="#FFFFFF" points="133.831,189.712 133.92,189.487 133.563,189.793 						"/>
						<polygon fill="#FFFFFF" points="133.058,189.704 133.096,189.508 132.887,189.618 						"/>
						<path fill="#FFFFFF" d="M89.39,190.205l-0.178,0.048C89.296,190.239,89.35,190.224,89.39,190.205z"/>
						<path fill="#FFFFFF" d="M90.652,190.274l0.035-0.096C90.627,190.229,90.601,190.269,90.652,190.274z"/>
						<path fill="#FFFFFF" d="M114.1,188.877c-0.246-0.196-0.518-0.495-0.497-0.271l0.068,0.22
							C113.851,188.795,113.985,188.825,114.1,188.877z"/>
						<path fill="#FFFFFF" d="M101.058,189.589l0.072,0.069c0.064-0.071,0.125-0.138,0.181-0.199
							C101.233,189.499,101.147,189.543,101.058,189.589z"/>
						<path fill="#FFFFFF" d="M100.839,190.478l-0.329-0.154C100.583,190.375,100.688,190.427,100.839,190.478z"/>
						<path fill="#FFFFFF" d="M82.478,190.125l-0.213,0.212C82.583,190.35,82.448,190.232,82.478,190.125z"/>
						<path fill="#FFFFFF" d="M125.148,189.43c-0.216-0.095-0.389-0.138-0.541-0.155
							C124.866,189.411,125.071,189.606,125.148,189.43z"/>
						<path fill="#FFFFFF" d="M89.989,187.928c-0.108,0.034-0.156,0.076-0.154,0.125C89.946,188.021,90.01,187.981,89.989,187.928z"
							/>
						<path fill="#FFFFFF" d="M123.974,189.247c0.037,0.023,0.075,0.035,0.113,0.056c0.162-0.029,0.325-0.051,0.521-0.028
							C124.416,189.173,124.195,189.105,123.974,189.247z"/>
						<path fill="#FFFFFF" d="M57.458,188.824c-0.019-0.011-0.04-0.017-0.056-0.028C57.396,188.825,57.421,188.827,57.458,188.824z"
							/>
						<path fill="#FFFFFF" d="M50.265,186.311c0.072-0.01,0.189-0.005,0.3-0.003C50.511,186.29,50.421,186.288,50.265,186.311z"/>
						<path fill="#FFFFFF" d="M129.956,189.471C130.121,189.464,129.983,189.447,129.956,189.471L129.956,189.471z"/>
						<path fill="#FFFFFF" d="M130.714,190.363c-0.035,0.022-0.063,0.052-0.069,0.103
							C130.66,190.414,130.685,190.382,130.714,190.363z"/>
						<path fill="#FFFFFF" d="M122.282,190.522l-0.014-0.002C122.315,190.565,122.307,190.558,122.282,190.522z"/>
						<path fill="#FFFFFF" d="M130.198,189.58c-0.061-0.029-0.13-0.055-0.206-0.074C130.025,189.524,130.088,189.548,130.198,189.58
							z"/>
						<path fill="#FFFFFF" d="M130.17,189.476c0.057,0.012,0.101,0.02,0.142,0.027C130.334,189.468,130.317,189.444,130.17,189.476z
							"/>
						<path fill="#FFFFFF" d="M129.728,189.472c0.094,0.001,0.181,0.015,0.265,0.034c-0.032-0.016-0.045-0.028-0.036-0.035
							C129.908,189.471,129.84,189.472,129.728,189.472z"/>
						<path fill="#FFFFFF" d="M70.894,188.845c-0.011-0.007-0.02-0.013-0.033-0.021C70.69,188.905,70.764,188.895,70.894,188.845z"
							/>
						<polygon fill="#FFFFFF" points="109.737,190.937 109.757,190.927 109.733,190.918 						"/>
						<path fill="#FFFFFF" d="M109.143,191.071c0.263-0.259,0.403-0.219,0.591-0.153l-0.167-0.634L109.143,191.071z"/>
						<path fill="#FFFFFF" d="M86.361,190.132l0.404,0.213c-0.513,0.298-0.869,0.172-0.493,0.463
							c0.089-0.676,1.607,0.002,1.695-0.673l0.267,0.155c-0.078-0.011-0.093,0.029-0.169,0.019c0.515,0.349,0.415-0.473,1.093-0.346
							c0.235,0.063,0.396,0.169,0.231,0.242l0.537-0.145c0.153,0.021,0.11,0.137-0.043,0.116l0.811-0.018l-0.007,0.02
							c0.12-0.102,0.389-0.254,0.52-0.318c0.201,0.106-0.106,0.067-0.058,0.154l0.455-0.145c0.174,0.185-0.204,0.338-0.512,0.299
							c0.387,0.696,0.378-0.153,1.262,0.282l-0.426,0.067c0.255,0.396,0.591,0.272,1.058,0.533c-0.107-0.13-0.929-0.646-0.436-0.794
							c0.135,0.058,0.313,0.09,0.582-0.035c-0.009,0.241,0.249,0.193,0.57,0.194l-0.036,0.318c0.35-0.077,0.33-0.24,0.54-0.375
							c0.384,0.049,0.453,0.3,0.534,0.512c0.615,0.079-0.408-0.416,0.325-0.443c0.508,0.146,0.874,0.031,1.497-0.133
							c0.354,0.126-0.071,0.192,0.054,0.29l0.33-0.24c0.077,0.009,0.049,0.086,0.034,0.125c0.272-0.087,0.036-0.318,0.463-0.386
							c0.129-0.347,0.843,0.553,1.383,0.177c0.125,0.097-0.07,0.193-0.037,0.318c0.729-0.229,0.623-0.163,1.228-0.489l0.492,0.232
							c-0.357-0.257,0.126-0.52,0.548-0.734c-0.125-0.122-0.232-0.229-0.305-0.279l0.665-0.143c0.077,0.057,0.007,0.163-0.107,0.292
							c0.044-0.026,0.087-0.05,0.124-0.071c0.229,0.128,0.1,0.307-0.077,0.479c-0.073-0.068-0.151-0.139-0.228-0.208
							c-0.172,0.187-0.333,0.395-0.308,0.583c0.044-0.034,0.128-0.063,0.22-0.076c-0.045,0.051-0.074,0.097-0.057,0.129
							c0.021,0.035,0.093-0.032,0.204-0.109l0.134,0.363l0.043-0.141l0.851,0.262c0.632-0.331,1.191-0.834,2.175-0.938
							c-0.254,0.25-0.071,0.424-0.098,0.732c-0.252-0.339-0.764,0.105-1.268,0.017c0.263,0.046,0.198,0.191,0.129,0.239l0.917-0.257
							c-0.032,0.252,0.183,0.198,0.414,0.313c-0.155-0.509,0.688-0.304,1.063-0.44c0.015,0.169-0.081,0.337-0.527,0.276
							c0.478,0.398,0.666-0.559,1.137-0.217c-0.109-0.002-0.167-0.029-0.215,0.054c0.263-0.138,0.883,0.009,0.729,0.148
							l-0.109-0.002c0.724,0.092,2.213,0.103,2.34-0.317c0.005,0.056-0.118,0.508-0.166,0.592l1.361-1.371
							c-0.13,0.359,0.27,1.248-0.343,1.428c0.171,0.06,0.383,0.13,0.753,0.018c-0.116-0.058-0.271-0.541-0.107-0.567
							c0.425,0.427,0.298,0.231,0.828,0.603c-0.174-0.087,0.049-0.649,0.327-0.619c-0.047,0.084-0.002,0.566-0.106,0.621l0.722-0.53
							c-0.179,0.093-0.053,0.475,0.096,0.64c-0.066-0.113,0.602,0.038,0.79-0.01l-0.289-0.144c0.782,0.12,0.812-0.755,1.59-0.69
							c-0.1,0.111-0.265,0.703,0.129,0.792c0.194-0.279,0.866-1.348,1.566-1.538l0.125,0.17l0.538-0.163
							c-0.35,0.418-1.315,1.287-1.836,1.619c0.288,0.144,0.073,0.197,0.514,0.202c0.149,0.161-0.25,0.224-0.38,0.227l1.021,0.146
							c-0.03-0.338,0.8-0.302,0.773-0.583l-1.13,0.298c-0.03-0.337,0.687-0.924,1.411-0.832c0.179,0.142-0.165,0.591-0.155,0.704
							c0.1-0.111,0.7-0.19,0.763-0.105l-0.316,0.166c0.399,0.145,0.681-0.415,1.152-0.073c0.167,0.029,0.481,0.455,0.52,0.258
							c-0.256-0.396-0.257-1.583-0.062-1.863c0.058,0.028,0.865,0.406,1.048,0.604c0.263,0.313-0.447,0.698-0.223,0.967
							c0.014-0.092,0.172-0.198,0.236-0.231c0.173,0.086-0.085,0.281,0.3,0.257c0.079-0.338,0.777,0.063,0.193-0.28
							c0.379-0.08,0.396,0.088,0.836,0.093c-0.13-0.226,0.429-0.73,0.808-0.812c-0.025,0.086,0.054,0.202,0.092,0.256
							c0.767,0.065,1.172,0.238,1.888,0.273c0.063,0.085,0.403,0.2,0.25,0.34c0.105-0.055,0.205-0.166,0.427-0.165
							c0.414,0.313-0.495,0.024-0.185,0.393c0.036-0.196,0.583-0.247,0.903-0.357c-0.083-0.31-0.725-0.091-1.045,0.019
							c0.018-0.422,0.586-0.838,1.343-1c0.6-0.078,0.246,0.284,0.352,0.229c1.114,0.124,0.984-0.693,1.898-0.348
							c0.356,0.285-0.007,0.535,0.065,0.732c-0.488,0.08-0.735-0.203-1.064-0.207l0.398,0.145c-0.158,0.082-0.484,0.136-0.657,0.05
							c0.298,0.255,1.886,0.132,2.737,0.393c0.157-0.083,0.426-0.164,0.306-0.278l-0.274,0.025
							c-0.241-0.228,0.526-0.276,0.186-0.393c0.373-0.137,0.794-0.357,1.303-0.212l0.084,0.311c-0.008-0.09-0.329-0.197-0.478-0.11
							c0.221-0.126,0.771,0.45,1.024,0.06l-0.352-0.229c0.374-0.138,0.843-0.442,1.295-0.325c-0.194-0.312-0.107,0.03-0.416-0.338
							c0.262,0.452-1.166-0.071-0.735,0.412c-0.314-0.426-0.568-0.2-0.987-0.57c0.009,0.102,0.146,0.2-0.236,0.133
							c-0.019,0.029-0.061,0.064-0.088,0.086c-0.011-0.004-0.016-0.006-0.025-0.009l0.021,0.013
							c-0.017,0.015-0.019,0.018,0.008,0.004c0.09,0.049,0.161,0.105,0.188,0.163c-0.2,0.224-0.81,0.188-1.021,0.3
							c-0.225-0.059,0.101-0.112-0.019-0.226L129.06,190c-0.021-0.226-0.588-0.399-0.046-0.507l-0.482-0.032
							c-0.277-0.139-0.666-0.206-0.911-0.122c-0.225-0.059-0.585,0.223-0.379,0.056l-0.763,0.105l-0.004-0.057
							c-0.745-0.062-1.553,0.303-2.388-0.141c-0.253,0.046-0.516,0.104-0.934,0.021l-0.073-0.197
							c-0.325,0.053-0.959-0.238-1.106-0.042c-0.325-0.538-1.561-0.184-2.123-0.302l-0.033,0.252
							c-0.39-0.031-0.767,0.023-1.256,0.104l0.02,0.225c-0.426,0.166-1.066-0.207-1.729-0.214c0.049-0.083,0.216-0.054,0.332,0.004
							c-0.767-0.542-1.683,0.293-2.382-0.107c-0.182,0.073-0.31,0.04-0.433-0.022c0.017,0.001,0.032-0.003,0.045-0.01
							c-0.019-0.001-0.045-0.003-0.073-0.006c-0.077-0.042-0.156-0.09-0.242-0.13c0.072,0.058,0.142,0.105,0.203,0.129
							c-0.138-0.001-0.348,0.017-0.555,0.064l-0.077-0.245c-0.017,0.002-0.028,0.003-0.047,0.005
							c-0.197-0.098-0.167,0.106-0.067,0.293c-0.105,0.034-0.201,0.078-0.277,0.133c-0.146-0.396-0.543,0.106-0.747-0.317
							c-0.146,0.195-1.034,0.105-1.163,0.525c-0.004-0.055-0.063-0.084,0.048-0.083c-0.227-0.059-0.452-0.117-0.662-0.007
							l-0.083-0.31l-0.517,0.389c-0.294-0.2-0.414-0.313-0.104-0.536c-0.741,0.33-0.595,0.11-1.228,0.441l0.039-0.196
							c-0.221-0.003-0.585,0.247-0.711,0.077c-0.476-0.398-2.438-0.161-3.688-0.567c0.22,0.594-0.576-0.287-0.646,0.162
							c-0.067-0.142-0.241-0.227-0.03-0.338c-0.652,0.106-0.961-0.262-1.424,0.1c-0.068-0.142,0.147-0.196,0.085-0.281
							c-0.053,0.027-0.211,0.111-0.274,0.025c-0.062-0.085,0.1-0.111,0.205-0.167c-0.661-0.006-0.747,0.415-0.813,0.812
							c-0.326-0.203-0.494-0.185-0.748,0.066c-0.11-0.136-0.298-0.281,0.114-0.31c-0.23-0.029-1.401-0.254-1.439,0.064
							c-0.068-0.084-0.321-0.038-0.383-0.004c-0.518-0.042-0.562-0.073-1.071-0.065l0.139,0.058
							c-0.218,0.377-0.427,0.067-0.839,0.096l0.014-0.039c-0.927-0.32-0.411,0.115-1.324-0.244l0.04,0.242
							c-0.109,0.512-0.808-0.341-1.354-0.168l0.188,0.146c-0.302,0.163-0.79-0.737-1.082-0.815
							c-0.063-0.047,0.104-0.066,0.196-0.096c-0.759-0.339-0.114,0.309-0.693,0.356c-0.099-0.174,0.156-0.425-0.229-0.474
							c-0.188-0.146-1.148,0.499-1.663,0.151c0.11,0.136,0.221,0.271-0.052,0.356c-0.411,0.028-1.086-0.542-1.475-0.147
							c-0.05-0.038-0.068-0.073-0.068-0.105c-0.318,0.092-1.026,0.13-1.226,0.345c-0.252-0.84-1.966,0.315-1.925-0.447l-0.965-0.003
							l0.028-0.076c-0.614-0.078-0.84,0.095-1.064,0.269c-0.14-0.059-0.033-0.125-0.02-0.165c-0.894-0.194-0.984-0.165-1.756,0.181
							l-0.067-0.251c-0.211,0.135-1.284-0.446-2.18-0.197c0.01-0.027,0.03-0.075,0.102-0.106c-1.006,0.246-2.347-0.793-2.751,0.092
							l-0.665,0.193c0.845,0.107-0.145,0.385,0.198,0.551c-0.336,0.038-0.851-0.311-0.438-0.339l0.063,0.048
							c0.171-0.463-1.047-0.214-1.01-0.533c-1.669-0.051-3.284-0.384-4.846-0.475l0.163,0.374l-0.544-0.046
							c-0.14-0.092-0.18-0.294,0.209-0.262c-0.195-0.216-0.66,0.145-0.675,0.224c-0.755-0.183,0.316-0.413,0.083-0.433l-0.318,0.014
							l0.07,0.046c-0.265,0.138-0.294,0.295-0.761,0.256c-0.293-0.087-0.142-0.232-0.258-0.252c0.002-0.025-0.036-0.039-0.178-0.019
							l-0.686-0.062l0.262,0.301c-0.311,0.128-0.646-0.044-0.343,0.297c-0.443-0.524-2.555-0.296-2.833-0.465
							c-0.436,0.191-0.856,0.169-1.377,0.12c0.127,0.065,0.19,0.394-0.258,0.333c0.194-0.661-0.811-0.327-1.152-0.824
							c0.311,0.333-1.282,0.021-0.793,0.497c-0.373-0.07-0.012-0.251-0.289-0.422c-0.904,0.22-1.961-0.256-3.068-0.219
							c-0.021,0.088,0.157,0.23-0.085,0.351l-0.563-0.466c-0.22,0.033-0.224,0.498-0.608,0.176c0.053,0.076,0.132,0.191-0.016,0.213
							c-2.144-0.525-4.435,0.152-6.595-0.75c0.29,0.184,0.091,0.191-0.137,0.188c0.146,0.047-0.014,0.217,0.011,0.337l-0.905-0.372
							c-0.183,0.323-0.986-0.021-1.097,0.29l0.294-0.044c-0.404,0.355,0.505,0.854,0.427,1.329c0.452-0.404,1.115,0.68,1.854,0.104
							c0.152,0.104-0.141,0.148-0.062,0.263c0.189-0.197,0.409-0.229,0.809-0.12l-0.048,0.049c1.136,0.001,1.612,0.225,2.88,0.417
							l-0.083-0.241c0.271,0.044,0.326,0.121,0.452,0.186c0.33-0.345-0.769-0.055-0.464-0.438c0.341,0.498,1.93,0.094,2.15,0.652
							c0.421,0.021-0.111-0.279,0.31-0.258l0.104,0.153l0.115-0.187c0.274,0.044,0.405,0.235,0.41,0.361
							c-0.066-0.018-0.191,0.026-0.264,0.034c0.35,0.19,1.012-0.015,1.132,0.048l-0.4-0.109c1.155-0.087,2.55,0.171,3.674-0.081
							l-0.079-0.115c0.856-0.169,0.673,0.153,1.608,0.1l-0.035,0.024c0.191-0.103,0.442-0.147,0.696-0.123
							c-0.24,0.12,0.431,0.273,0.116,0.404c0.93-0.181,0.463-0.153,1.089-0.541l0.131,0.191c0.215-0.158,0.236-0.246,0.703-0.273
							c-0.389,0.143,0.284,0.296-0.152,0.486c0.957,0.449,1.467-0.344,1.888,0.269c0.471-0.492-0.831-0.322-0.575-0.421
							c-0.203-0.177,0.387-0.366,0.69-0.301c0.311,0.025,0.5,0.679,1.284,0.704c-0.077-0.006-0.084,0.033-0.162,0.027
							c0.287,0.144,0.583-0.151,0.933,0.077c0.216-0.301,0.467,0.039,0.543-0.354l-0.724,0.059c0.412-0.085,0.815-0.53,1.477-0.276
							c-0.056,0.077-0.26,0.174-0.4,0.226c0.191,0.126,0.382-0.06,0.58,0.069c-0.076,0.393-0.878,0.047-1.328,0.329
							c0.203,0.176,0.839-0.25,0.601,0.169c0.34-0.531,0.77,0.104,1.318-0.289l-0.045,0.235c0.085-0.033,0.265-0.138,0.419-0.125
							l-0.294,0.295c0.441-0.242,0.818,0.267,1.237,0.143c-0.863-0.031-0.182-0.294-0.538-0.483c1.078-0.27,0.584,0.647,1.781,0.587
							c-0.163,0.026-0.6-0.17-0.343-0.268c0.226,0.059,0.521,0.163,0.654,0.294c0.792-0.015-0.11-0.25,0.232-0.38
							c0.256,0.301,0.393-0.101,0.743-0.178l-0.008,0.241c0.893,0.195,0.261-0.491,1.063-0.269l-0.357,0.319l0.426-0.067
							l-0.099,0.27c0.469-0.183,0.609-0.123,1.056-0.026c-0.097-0.175,0.078-0.435,0.478-0.425c0.266,0.156-0.163,0.223,0.404,0.214
							c-0.135,0.145-0.283,0.328-0.519,0.095c-0.029,0.077-0.133,0.146-0.162,0.222c0.285,0.178,0.733,0.071,0.938,0.078
							c-0.078-0.013-0.172-0.03-0.219-0.066l0.834-0.297c0.125,0.096,0.02,0.164-0.085,0.23c0.167-0.019,0.287-0.124,0.531-0.134
							c-0.071,0.193-0.065,0.396-0.415,0.473l0.79-0.183c0.048,0.088,0.39,0.252,0.285,0.319c0.428,0.135,1.078-0.332,1.646-0.154
							c0.031-0.037,0.093-0.07,0.216-0.093c0.537,0.068,1.004,0.33,1.655,0.09l0.347,0.367c0.504-0.057-0.472-0.464,0.368-0.56
							c0.595-0.085,0.206,0.31,0.409,0.417c0.301-0.164,0.827-0.501,1.356-0.191C86.668,190.171,86.529,190.113,86.361,190.132z
							 M92.539,190.253c-0.122,0.045-0.367,0.19-0.448,0.044C92.239,190.027,92.339,190.164,92.539,190.253z M101.946,190.093
							c-0.093,0.076-0.229,0.03-0.38-0.068C101.68,190.01,101.808,190.024,101.946,190.093z M128.153,189.586l-0.014,0.011
							C127.878,189.491,127.971,189.532,128.153,189.586z M128.702,189.716c0.058-0.031,0.055-0.065,0.033-0.1
							c-0.041,0.059-0.166,0.058-0.307,0.034C128.465,189.716,128.534,189.762,128.702,189.716z M69.218,187.146l0.105,0.067
							C69.076,187.271,69.147,187.212,69.218,187.146z"/>
						<path fill="#FFFFFF" d="M100.867,190.375c-0.032-0.042-0.039-0.088-0.045-0.134
							C100.773,190.28,100.771,190.327,100.867,190.375z"/>
						<path fill="#FFFFFF" d="M82.518,190.086l-0.019-0.003c-0.011,0.014-0.018,0.028-0.021,0.042L82.518,190.086z"/>
						<path fill="#FFFFFF" d="M120.031,191.374c-0.112-0.04-0.174-0.087-0.214-0.134
							C119.808,191.299,119.857,191.351,120.031,191.374z"/>
						<path fill="#FFFFFF" d="M131.656,189.438l-0.358,0.047c0.173-0.005,0.231,0.051,0.316,0.093
							C131.608,189.521,131.545,189.437,131.656,189.438z"/>
						<path fill="#FFFFFF" d="M134.669,191.066c0.053-0.027,0.109,0.002,0.162-0.025l-0.009-0.113
							C134.601,190.926,134.442,191.009,134.669,191.066z"/>
						<path fill="#FFFFFF" d="M131.948,190.253c0.02,0.204,0.245,0.146,0.495,0.119c-0.015,0-0.029,0.001-0.044-0.002
							C132.485,190.089,132.216,190.171,131.948,190.253z"/>
						<path fill="#FFFFFF" d="M132.501,190.367c0.077-0.006,0.156-0.008,0.23,0.005C132.766,190.26,132.639,190.345,132.501,190.367
							z"/>
						<path fill="#FFFFFF" d="M129.411,189.612c0.115,0.058,0.085-0.256,0.148-0.17C129.703,189.19,128.76,189.72,129.411,189.612z"
							/>
						<polygon fill="#FFFFFF" points="132.12,190.93 132.042,190.676 131.894,190.871 						"/>
						<path fill="#FFFFFF" d="M130.166,190.658l0.394,0.087c-0.004-0.042,0.048-0.064,0.11-0.081
							C130.426,190.646,130.159,190.584,130.166,190.658z"/>
						<path fill="#FFFFFF" d="M130.67,190.664c0.127,0.011,0.249,0.011,0.321-0.026C130.922,190.637,130.773,190.639,130.67,190.664
							z"/>
						<polygon fill="#FFFFFF" points="131.573,190.98 131.458,190.923 131.179,190.893 						"/>
						<path fill="#FFFFFF" d="M125.899,190.419l-0.437,0.052c-0.049,0.084,0.067,0.142,0.23,0.114
							C125.8,190.53,125.962,190.505,125.899,190.419z"/>
						<path fill="#FFFFFF" d="M127.179,191.162c-0.114-0.057-0.12-0.113-0.183-0.198l-0.026,0.31L127.179,191.162z"/>
						<path fill="#FFFFFF" d="M125.912,191.179c-0.047,0.084-0.641,0.219-0.09,0.224
							C125.87,191.319,126.307,191.267,125.912,191.179z"/>
						<polygon fill="#FFFFFF" points="119.399,190.493 119.51,190.494 119.517,189.985 						"/>
						<path fill="#FFFFFF" d="M113.589,191.452c0.508,0.146,0.136-0.309,0.594-0.135c0.126-0.115-0.374-0.142-0.246-0.24
							C113.621,191.19,113.462,191.111,113.589,191.452z"/>
						<path fill="#FFFFFF" d="M113.937,191.077c0.051-0.018,0.104-0.039,0.162-0.07
							C114.007,191.035,113.964,191.058,113.937,191.077z"/>
						<polygon fill="#FFFFFF" points="49.066,185.983 48.741,185.862 48.946,186.043 						"/>
						<path fill="#FFFFFF" d="M48.416,186.332l-0.063-0.327l-0.212,0.284C48.216,186.278,48.362,186.257,48.416,186.332z"/>
						<path fill="#FFFFFF" d="M93.427,190.946l0.029-0.076c-0.048-0.087-0.125-0.097-0.279-0.117L93.427,190.946z"/>
						<polygon fill="#FFFFFF" points="88.959,190.504 89.036,190.514 88.905,190.214 						"/>
						<path fill="#FFFFFF" d="M85.184,190.709c0.152,0.019,0.336-0.038,0.489-0.019C85.336,190.728,85.158,190.342,85.184,190.709z"
							/>
					</g>
				</g>
			</g>
		</g>
	</g>
	<g>
		<g>
			<g>
				<g>
					<g>
						<path fill="#FFFFFF" d="M136.88,193.027c-0.003,0.079,0.197,0.012,0.236,0.016
							C137.045,192.925,136.827,193.041,136.88,193.027z"/>
						<polygon fill="#FFFFFF" points="136.165,191.865 136.254,191.871 136.012,191.727 						"/>
						<path fill="#FFFFFF" d="M135.938,190.692c-0.328,0.18,0.141,0.414,0.058,0.647l-0.073,0.05l0.3,0.039
							C136.127,191.184,135.875,190.891,135.938,190.692z"/>
						<path fill="#FFFFFF" d="M136.571,189.918c-0.129,0.065-0.145-0.112-0.014,0.153c0.013-0.015,0.02-0.022,0.029-0.033
							C136.579,190.014,136.573,189.979,136.571,189.918z"/>
						<path fill="#FFFFFF" d="M136.587,190.038C136.621,190.16,136.686,189.936,136.587,190.038L136.587,190.038z"/>
						<path fill="#FFFFFF" d="M136.396,189.483l0.154,0.139c0.074-0.05,0.063-0.198,0.133-0.156
							C136.583,189.313,136.51,189.362,136.396,189.483z"/>
						<path fill="#FFFFFF" d="M136.11,189.38l0.067,0.074C136.209,189.433,136.216,189.408,136.11,189.38z"/>
						<path fill="#FFFFFF" d="M136.322,189.611l-0.145-0.157c-0.052,0.035-0.165,0.06,0.056,0.074
							C136.127,189.534,136.233,189.55,136.322,189.611z"/>
						<path fill="#FFFFFF" d="M136.289,189.724c-0.059,0.105-0.083,0.233-0.236,0.094
							C136.162,190.119,136.399,190.024,136.289,189.724z"/>
						<path fill="#FFFFFF" d="M135.563,190.704l-0.078,0.143l0.138,0.082C135.555,190.888,135.672,190.675,135.563,190.704z"/>
						<path fill="#FFFFFF" d="M136.377,188.435c-0.076,0.005-0.188,0.094-0.28,0.125l0.109,0.104
							C136.244,188.591,136.269,188.465,136.377,188.435z"/>
						<path fill="#FFFFFF" d="M136.097,188.56l-0.164-0.154C135.949,188.568,136.017,188.586,136.097,188.56z"/>
						<polygon fill="#FFFFFF" points="135.716,189.428 136.042,189.67 135.7,189.372 						"/>
						<polygon fill="#FFFFFF" points="136.251,187.746 136.443,187.814 136.146,187.685 						"/>
						<path fill="#FFFFFF" d="M136.131,187.297c0.157,0.048,0.221-0.151,0.324-0.089c-0.05-0.118-0.193-0.199-0.322-0.273
							C136.214,187.023,136.22,187.135,136.131,187.297z"/>
						<path fill="#FFFFFF" d="M135.94,186.807c0.044,0.044,0.116,0.084,0.192,0.128C136.089,186.888,136.031,186.845,135.94,186.807
							z"/>
						<path fill="#FFFFFF" d="M135.909,188.092c0.042-0.022,0.155-0.073,0.185-0.184l-0.195,0.112
							C135.901,188.042,135.905,188.066,135.909,188.092z"/>
						<path fill="#FFFFFF" d="M135.893,188.024l0.006-0.004c-0.009-0.078-0.016-0.132-0.019-0.155
							C135.882,187.885,135.885,187.933,135.893,188.024z"/>
						<path fill="#FFFFFF" d="M135.912,188.109l-0.003-0.018C135.89,188.103,135.884,188.108,135.912,188.109z"/>
						<path fill="#FFFFFF" d="M135.812,188.919c-0.138-0.082-0.307-0.277-0.443-0.029
							C135.526,188.938,135.604,188.795,135.812,188.919z"/>
						<path fill="#FFFFFF" d="M135.667,188.249l-0.01,0.201c0.055-0.016,0.128-0.065,0.197-0.024L135.667,188.249z"/>
						<polygon fill="#FFFFFF" points="135.582,188.169 135.667,188.249 135.671,188.175 						"/>
						<path fill="#FFFFFF" d="M135.809,187.173c-0.107-0.064-0.133-0.153-0.167-0.252c-0.02,0.117-0.02,0.234,0.002,0.342
							C135.712,187.265,135.84,187.288,135.809,187.173z"/>
						<path fill="#FFFFFF" d="M135.831,187.59l-0.016-0.016C135.8,187.589,135.796,187.599,135.831,187.59z"/>
						<polygon fill="#FFFFFF" points="135.444,185.917 135.409,185.94 135.446,185.938 						"/>
						<path fill="#FFFFFF" d="M135.608,187.288c-0.024,0.091,0.036,0.13,0.11,0.163c-0.033-0.057-0.06-0.119-0.075-0.188
							C135.612,187.262,135.593,187.265,135.608,187.288z"/>
						<path fill="#FFFFFF" d="M135.787,186.547c-0.035,0.051-0.063,0.106-0.087,0.165
							C135.759,186.656,135.845,186.551,135.787,186.547z"/>
						<path fill="#FFFFFF" d="M135.868,187.535l0.012,0.011C135.92,187.51,135.898,187.518,135.868,187.535z"/>
						<path fill="#FFFFFF" d="M135.868,187.535c-0.039-0.036-0.097-0.06-0.149-0.084c0.026,0.047,0.058,0.089,0.097,0.123
							C135.828,187.562,135.849,187.547,135.868,187.535z"/>
						<path fill="#FFFFFF" d="M134.039,185.879c0.197-0.023,0.419,0.156,0.248,0.384c0.182,0.155,0.797-0.091,1.122-0.322
							c-0.086,0.012-0.164,0.027-0.315-0.139c-0.094,0.087-0.166,0.467-0.373,0.343c-0.149-0.23,0.028-0.219,0.107-0.36
							c-0.222,0.151-0.416-0.248-0.761-0.123l0.169,0.194C134.182,185.87,134.077,185.809,134.039,185.879z"/>
						<path fill="#FFFFFF" d="M135.461,186.304l0.039,0.073c0.017-0.095,0.082-0.174,0.211-0.32
							c-0.121-0.11-0.198-0.123-0.265-0.119l0.049,0.388L135.461,186.304z"/>
						<path fill="#FFFFFF" d="M135.569,186.726c-0.223-0.019-0.35-0.188-0.556-0.028c0.06,0.226,0.208,0.125,0.326,0.243
							c-0.125-0.357,0.139,0.082,0.206-0.207c0.051,0.064,0.074,0.128,0.096,0.188c0.012-0.071,0.031-0.142,0.059-0.209
							l-0.012,0.011l0.001,0.001l-0.003,0.001c-0.023,0.021-0.038,0.029-0.026,0.009l-0.006-0.008c-0.03,0.004-0.058,0.002-0.083,0
							c0.022-0.115,0.051-0.028,0.083,0l0.032-0.001l0.002-0.002l-0.188-0.346C135.486,186.461,135.512,186.558,135.569,186.726z"/>
						<path fill="#FFFFFF" d="M134.875,188.783c0.017-0.015,0.031-0.018,0.047-0.021
							C134.891,188.743,134.871,188.737,134.875,188.783z"/>
						<path fill="#FFFFFF" d="M134.973,188.606c0.034,0.021,0.124,0.026,0.119,0.118c-0.049,0.088-0.102,0.02-0.17,0.037
							c0.066,0.041,0.188,0.153,0.258-0.031l-0.034-0.021c0.044-0.162,0.27-0.405,0.304-0.385
							C135.268,188.406,135.14,188.471,134.973,188.606z"/>
						<path fill="#FFFFFF" d="M135.215,187.666l-0.164-0.286l-0.152,0.192l0.108-0.029
							C134.998,187.726,135.126,187.661,135.215,187.666z"/>
						<polygon fill="#FFFFFF" points="135.543,185.861 135.774,185.858 135.424,185.743 						"/>
						<polygon fill="#FFFFFF" points="135.438,185.468 135.634,185.444 135.496,185.362 						"/>
						<path fill="#FFFFFF" d="M128.584,163.454l-0.072-0.079C128.537,163.414,128.561,163.438,128.584,163.454z"/>
						<path fill="#FFFFFF" d="M128.7,164.109l0.099-0.003C128.74,164.086,128.699,164.082,128.7,164.109z"/>
						<path fill="#FFFFFF" d="M133.481,175.685c0.155-0.167,0.407-0.369,0.192-0.311l-0.205,0.082
							C133.524,175.54,133.515,175.615,133.481,175.685z"/>
						<path fill="#FFFFFF" d="M130.886,169.231l-0.057,0.052c0.079,0.018,0.152,0.033,0.221,0.048
							C130.999,169.301,130.943,169.267,130.886,169.231z"/>
						<path fill="#FFFFFF" d="M129.987,169.313l0.103-0.2C130.05,169.161,130.015,169.227,129.987,169.313z"/>
						<path fill="#FFFFFF" d="M127.654,159.936l-0.237-0.063C127.451,160.037,127.546,159.943,127.654,159.936z"/>
						<path fill="#FFFFFF" d="M134.552,181.401c0.062-0.129,0.078-0.227,0.073-0.308C134.529,181.255,134.368,181.4,134.552,181.401
							z"/>
						<path fill="#FFFFFF" d="M130.894,163.265c-0.05-0.048-0.098-0.063-0.145-0.052
							C130.796,163.263,130.844,163.286,130.894,163.265z"/>
						<path fill="#FFFFFF" d="M134.56,180.767c-0.018,0.024-0.024,0.046-0.038,0.07c0.052,0.075,0.097,0.153,0.104,0.257
							C134.695,180.975,134.729,180.849,134.56,180.767z"/>
						<path fill="#FFFFFF" d="M125.277,146.979c0.008-0.012,0.01-0.023,0.02-0.034C125.268,146.946,125.269,146.96,125.277,146.979z
							"/>
						<path fill="#FFFFFF" d="M126.681,142.789c0.021,0.034,0.033,0.095,0.047,0.151
							C126.736,142.91,126.726,142.863,126.681,142.789z"/>
						<path fill="#FFFFFF" d="M135.213,183.847C135.244,183.928,135.239,183.854,135.213,183.847L135.213,183.847z"/>
						<path fill="#FFFFFF" d="M134.453,184.424c-0.028-0.014-0.061-0.021-0.11-0.014
							C134.396,184.407,134.431,184.412,134.453,184.424z"/>
						<path fill="#FFFFFF" d="M133.068,180.187l-0.001-0.008C133.031,180.212,133.038,180.206,133.068,180.187z"/>
						<path fill="#FFFFFF" d="M135.142,183.992c0.02-0.036,0.034-0.077,0.042-0.12C135.17,183.893,135.156,183.93,135.142,183.992z"
							/>
						<path fill="#FFFFFF" d="M135.238,183.955c-0.002,0.032-0.004,0.056-0.006,0.078
							C135.271,184.037,135.291,184.023,135.238,183.955z"/>
						<path fill="#FFFFFF" d="M135.179,183.73c0.013,0.048,0.012,0.095,0.005,0.142c0.011-0.02,0.021-0.029,0.029-0.025
							C135.206,183.821,135.195,183.787,135.179,183.73z"/>
						<path fill="#FFFFFF" d="M127.215,153.79c0.006-0.008,0.01-0.013,0.017-0.022C127.126,153.7,127.147,153.734,127.215,153.79z"
							/>
						<polygon fill="#FFFFFF" points="130.836,173.921 130.849,173.929 130.854,173.915 						"/>
						<path fill="#FFFFFF" d="M130.618,173.648c0.29,0.077,0.272,0.157,0.235,0.267l0.594-0.222L130.618,173.648z"/>
						<path fill="#FFFFFF" d="M128.214,161.904l-0.148,0.251c-0.365-0.195-0.294-0.403-0.523-0.149
							c0.672-0.102,0.232,0.815,0.903,0.713l-0.112,0.168c-0.001-0.041-0.042-0.04-0.043-0.081
							c-0.266,0.336,0.521,0.107,0.496,0.479c-0.026,0.133-0.106,0.238-0.202,0.17l0.219,0.241c0.003,0.082-0.116,0.085-0.119,0.004
							l0.136,0.406l-0.021,0.001c0.116,0.039,0.305,0.142,0.386,0.193c-0.074,0.125-0.08-0.039-0.158,0.005l0.207,0.199
							c-0.154,0.128-0.359-0.03-0.366-0.194c-0.623,0.347,0.205,0.158-0.091,0.7l-0.128-0.201c-0.351,0.215-0.18,0.358-0.366,0.651
							c0.111-0.083,0.496-0.611,0.712-0.393c-0.037,0.08-0.042,0.178,0.118,0.287c-0.236,0.048-0.152,0.168-0.105,0.331
							l-0.316,0.051c0.126,0.16,0.282,0.114,0.444,0.192c0.009,0.205-0.226,0.294-0.422,0.381c0.014,0.329,0.347-0.297,0.48,0.069
							c-0.067,0.288,0.097,0.449,0.348,0.729c-0.071,0.207-0.198,0.006-0.275,0.09l0.283,0.115c0.002,0.041-0.077,0.043-0.118,0.045
							c0.125,0.119,0.316-0.051,0.444,0.15c0.357-0.01-0.416,0.547,0.029,0.739c-0.076,0.084-0.198,0.006-0.316,0.05
							c0.331,0.319,0.25,0.28,0.657,0.516l-0.155,0.3c0.198-0.237,0.524-0.049,0.796,0.118c0.101-0.09,0.188-0.167,0.229-0.215
							l0.235,0.307c-0.043,0.051-0.157,0.038-0.3,0.008c0.03,0.018,0.061,0.033,0.088,0.048c-0.093,0.145-0.286,0.117-0.479,0.064
							c0.055-0.052,0.112-0.106,0.17-0.16c-0.207-0.046-0.435-0.083-0.614-0.029c0.04,0.015,0.08,0.052,0.106,0.095
							c-0.056-0.012-0.104-0.017-0.134,0c-0.031,0.018,0.045,0.039,0.136,0.079l-0.334,0.146l0.143-0.009l-0.131,0.487
							c0.415,0.249,0.987,0.423,1.231,0.899c-0.281-0.075-0.424,0.056-0.729,0.108c0.295-0.201-0.214-0.363-0.2-0.638
							c-0.007,0.143-0.157,0.142-0.215,0.117l0.385,0.408c-0.251,0.038-0.167,0.136-0.245,0.278
							c0.473-0.189,0.396,0.282,0.584,0.442c-0.163,0.045-0.34,0.032-0.346-0.207c-0.319,0.328,0.642,0.216,0.377,0.529
							c-0.015-0.056,0.004-0.092-0.084-0.098c0.173,0.104,0.12,0.449-0.038,0.401l-0.015-0.056c0.016,0.387,0.222,1.144,0.65,1.117
							c-0.053,0.015-0.513,0.051-0.602,0.044l1.536,0.393c-0.37,0.012-1.179,0.407-1.442,0.136c-0.033,0.1-0.071,0.222,0.093,0.385
							c0.039-0.07,0.488-0.254,0.537-0.177c-0.354,0.308-0.183,0.2-0.467,0.55c0.06-0.106,0.641-0.116,0.651,0.032
							c-0.088-0.007-0.552,0.121-0.621,0.08l0.623,0.251c-0.117-0.07-0.471,0.076-0.611,0.188c0.101-0.059,0.052,0.313,0.125,0.397
							l0.099-0.178c-0.004,0.423,0.854,0.248,0.905,0.656c-0.124-0.026-0.726,0.019-0.754,0.236c0.301,0.038,1.44,0.147,1.729,0.461
							l-0.147,0.1l0.237,0.237c-0.459-0.086-1.447-0.387-1.847-0.579c-0.099,0.177-0.183,0.08-0.123,0.305
							c-0.135,0.11-0.254-0.079-0.276-0.144l0.007,0.549c0.326-0.089,0.411,0.339,0.682,0.265l-0.455-0.508
							c0.324-0.088,1.002,0.147,1.018,0.534c-0.112,0.122-0.602,0.045-0.71,0.074c0.124,0.026,0.288,0.313,0.214,0.364l-0.208-0.125
							c-0.082,0.233,0.505,0.255,0.239,0.568c-0.004,0.091-0.373,0.343-0.175,0.319c0.349-0.216,1.507-0.474,1.808-0.436
							c-0.019,0.035-0.27,0.526-0.436,0.662c-0.267,0.2-0.746-0.076-0.976,0.096c0.092-0.013,0.218,0.045,0.261,0.07
							c-0.06,0.106-0.287,0.018-0.207,0.207c0.341-0.033,0.052,0.408,0.301,0.038c0.134,0.174-0.028,0.219,0.031,0.443
							c0.202-0.115,0.776,0.059,0.91,0.233c-0.088,0.005-0.189,0.07-0.236,0.102c0.048,0.402-0.062,0.646,0.009,1.016
							c-0.074,0.05-0.137,0.248-0.296,0.2c0.069,0.041,0.192,0.067,0.224,0.181c-0.246,0.277-0.096-0.246-0.41-0.009
							c0.197-0.024,0.327,0.242,0.48,0.38c0.29-0.109-0.017-0.387-0.17-0.525c0.413-0.082,0.902,0.115,1.171,0.464
							c0.163,0.287-0.241,0.187-0.172,0.228c0.041,0.592,0.819,0.349,0.616,0.887c-0.227,0.242-0.523,0.112-0.705,0.192
							c-0.149-0.23,0.091-0.417,0.047-0.585l-0.083,0.233c-0.104-0.063-0.203-0.216-0.145-0.322
							c-0.206,0.206,0.146,0.983,0.016,1.472c0.104,0.062,0.223,0.18,0.316,0.095l-0.065-0.134c0.188-0.171,0.347,0.207,0.411,0.01
							c0.187,0.159,0.464,0.324,0.396,0.613l-0.29,0.109c0.086-0.022,0.145-0.209,0.038-0.266c0.155,0.085-0.326,0.488,0.091,0.532
							l0.172-0.228c0.188,0.159,0.555,0.331,0.506,0.585c0.275-0.165-0.045-0.047,0.27-0.283c-0.403,0.23-0.101-0.606-0.509-0.284
							c0.369-0.251,0.112-0.331,0.412-0.623c-0.099,0.026-0.175,0.117-0.165-0.091c-0.03-0.003-0.071-0.017-0.096-0.026l0.005-0.015
							l-0.01,0.014c-0.017-0.006-0.02-0.006-0.003,0.005c-0.034,0.056-0.079,0.104-0.131,0.131
							c-0.247-0.054-0.303-0.369-0.441-0.453c0.024-0.126,0.124,0.027,0.217-0.058l-0.208-0.124c0.218-0.06,0.305-0.385,0.488-0.134
							l-0.039-0.251c0.095-0.171,0.104-0.382-0.014-0.488c0.024-0.127-0.303-0.248-0.109-0.18l-0.214-0.363l0.054-0.015
							c-0.048-0.391-0.521-0.721-0.21-1.239c-0.082-0.119-0.176-0.239-0.156-0.469l0.182-0.08c-0.099-0.153,0.093-0.538-0.12-0.57
							c0.478-0.28-0.048-0.83-0.015-1.141l-0.251,0.038c-0.026-0.204-0.135-0.384-0.284-0.614l-0.217,0.06
							c-0.224-0.181,0.047-0.586-0.043-0.923c0.089,0.007,0.084,0.098,0.045,0.169c0.416-0.506-0.531-0.788-0.242-1.229
							c-0.099-0.076-0.084-0.148-0.042-0.224c0.002,0.008,0.008,0.015,0.016,0.021c0.001-0.01-0.001-0.024-0.004-0.039
							c0.029-0.048,0.065-0.099,0.092-0.15c-0.046,0.049-0.083,0.095-0.097,0.131c-0.019-0.07-0.067-0.173-0.144-0.268l0.228-0.092
							c-0.005-0.009-0.007-0.013-0.012-0.022c0.066-0.121-0.128-0.062-0.295,0.028c-0.05-0.045-0.105-0.084-0.17-0.111
							c0.364-0.159-0.184-0.251,0.2-0.446c-0.212-0.032-0.254-0.502-0.682-0.476c0.053-0.015,0.073-0.051,0.088,0.006
							c0.024-0.127,0.048-0.254-0.09-0.337l0.29-0.109l-0.454-0.177c0.151-0.192,0.245-0.278,0.507-0.169
							c-0.43-0.304-0.194-0.277-0.609-0.526l0.197-0.022c-0.029-0.112-0.325-0.243-0.179-0.344c0.318-0.327-0.198-1.27,0.016-1.991
							c-0.547,0.24,0.196-0.354-0.252-0.293c0.128-0.064,0.187-0.171,0.324-0.088c-0.198-0.308,0.115-0.544-0.304-0.7
							c0.129-0.065,0.213,0.032,0.286-0.018c-0.034-0.021-0.139-0.083-0.064-0.134c0.073-0.05,0.123,0.026,0.192,0.067
							c-0.09-0.336-0.514-0.288-0.909-0.235c0.15-0.209,0.107-0.29-0.174-0.364c0.116-0.086,0.23-0.212,0.318-0.01
							c-0.005-0.123,0.043-0.765-0.272-0.715c0.072-0.053-0.01-0.171-0.052-0.195c-0.034-0.271-0.011-0.3-0.093-0.557l-0.036,0.083
							c-0.399-0.029-0.128-0.201-0.215-0.404l0.04-0.002c0.177-0.539-0.173-0.184,0.044-0.724l-0.229,0.073
							c-0.515,0.055,0.214-0.483-0.034-0.723l-0.114,0.127c-0.203-0.118,0.604-0.561,0.638-0.726
							c0.037-0.042,0.081,0.039,0.122,0.079c0.22-0.458-0.318,0.009-0.448-0.274c0.155-0.088,0.437-0.013,0.428-0.219
							c0.115-0.127-0.654-0.474-0.39-0.81c-0.116,0.085-0.232,0.17-0.355,0.051c-0.088-0.202,0.371-0.668-0.07-0.779
							c0.029-0.033,0.061-0.05,0.093-0.058c-0.137-0.142-0.277-0.491-0.516-0.546c0.783-0.31-0.594-0.928,0.156-1.072l-0.139-0.489
							l0.079-0.002c-0.013-0.328-0.215-0.405-0.417-0.481c0.037-0.083,0.117-0.043,0.158-0.045c0.059-0.495,0.018-0.535-0.433-0.851
							l0.235-0.089c-0.162-0.077,0.248-0.747-0.125-1.146c0.028-0.001,0.077-0.001,0.118,0.028c-0.387-0.456,0.433-1.361-0.49-1.374
							l-0.285-0.295c0.018,0.451-0.397,0.011-0.509,0.22c-0.086-0.162,0.18-0.498,0.267-0.296l-0.038,0.042
							c0.478-0.013,0.057-0.576,0.373-0.626c-0.193-0.857-0.104-1.748-0.243-2.559l-0.341,0.164l-0.034-0.286
							c0.068-0.09,0.261-0.154,0.285,0.05c0.183-0.146-0.236-0.304-0.315-0.294c0.067-0.422,0.448,0.071,0.434-0.052l-0.06-0.158
							l-0.034,0.046c-0.173-0.104-0.331-0.085-0.361-0.33c0.042-0.167,0.206-0.122,0.208-0.185c0.025-0.005,0.033-0.027-0.008-0.095
							l-0.039-0.36l-0.256,0.197c-0.171-0.129-0.051-0.336-0.34-0.109c0.448-0.338-0.083-1.357,0.041-1.535
							c-0.25-0.18-0.289-0.397-0.317-0.672c-0.046,0.078-0.356,0.182-0.363-0.059c0.674-0.045,0.201-0.481,0.637-0.763
							c-0.28,0.229-0.208-0.645-0.601-0.294c0.015-0.204,0.243-0.06,0.369-0.237c-0.346-0.411-0.035-1.049-0.234-1.603
							c-0.088,0.009-0.201,0.13-0.354,0.033l0.372-0.387c-0.064-0.104-0.519-0.005-0.26-0.27c-0.066,0.043-0.168,0.108-0.21,0.038
							c0.199-1.199-0.796-2.214-0.229-3.504c-0.137,0.187-0.174,0.088-0.203-0.028c-0.025,0.084-0.214,0.04-0.327,0.078l0.23-0.539
							c-0.342-0.021-0.122-0.504-0.442-0.492l0.086,0.139c-0.406-0.127-0.759,0.441-1.234,0.505c0.46,0.142-0.5,0.712,0.168,0.962
							c-0.079,0.1-0.165-0.04-0.265,0.025c0.22,0.053,0.283,0.157,0.234,0.384l-0.055-0.014c0.165,0.575,0.017,0.865,0.014,1.55
							l0.223-0.095c-0.003,0.147-0.07,0.191-0.115,0.269c0.385,0.093-0.059-0.4,0.359-0.329c-0.436,0.28,0.189,0.997-0.322,1.23
							c0.04,0.218,0.256-0.117,0.296,0.101l-0.134,0.087l0.198,0.018c-0.003,0.148-0.171,0.257-0.293,0.286
							c0.008-0.037-0.054-0.092-0.071-0.126c-0.135,0.219,0.161,0.509,0.118,0.584l0.048-0.227c0.254,0.566,0.206,1.328,0.615,1.843
							l0.101-0.064c0.289,0.397-0.051,0.374,0.138,0.836l-0.029-0.012c0.128,0.074,0.208,0.191,0.222,0.326
							c-0.152-0.097-0.204,0.277-0.378,0.146c0.312,0.432,0.218,0.2,0.687,0.434l-0.167,0.108c0.186,0.074,0.274,0.065,0.368,0.297
							c-0.194-0.166-0.246,0.208-0.496,0.028c-0.299,0.582,0.549,0.668,0.013,1.014c0.55,0.132,0.193-0.49,0.327-0.383
							c0.144-0.141,0.414,0.117,0.395,0.285c0.021,0.163-0.59,0.4-0.5,0.804c-0.006-0.041-0.044-0.036-0.05-0.077
							c-0.099,0.178,0.232,0.263,0.061,0.49c0.324,0.044,0.03,0.244,0.424,0.197l-0.163-0.354c0.144,0.19,0.637,0.299,0.484,0.688
							c-0.083-0.012-0.207-0.095-0.278-0.153c-0.095,0.123,0.115,0.18,0.018,0.309c-0.395,0.047-0.174-0.436-0.515-0.602
							c-0.143,0.141,0.366,0.37-0.077,0.341c0.567,0.057,0.012,0.412,0.474,0.605l-0.236,0.027c0.046,0.036,0.173,0.104,0.183,0.186
							l-0.33-0.085c0.302,0.171-0.141,0.473,0.042,0.657c-0.096-0.444,0.261-0.155,0.393-0.377c0.421,0.487-0.546,0.437-0.313,1.029
							c-0.05-0.077,0.078-0.341,0.211-0.231c-0.024,0.127-0.083,0.299-0.191,0.396c0.129,0.397,0.228-0.11,0.405,0.035
							c-0.257,0.194,0.154,0.177,0.28,0.338l-0.236,0.048c-0.06,0.495,0.518,0.026,0.417,0.48l-0.363-0.111l0.128,0.201
							l-0.278,0.008c0.247,0.198,0.21,0.282,0.181,0.529c0.156-0.087,0.436-0.055,0.483,0.149c-0.113,0.169-0.24-0.034-0.149,0.251
							c-0.161-0.036-0.361-0.072-0.168-0.242c-0.08,0.003-0.161-0.035-0.24-0.033c-0.132,0.183,0.038,0.387,0.062,0.492
							c0.001-0.043,0.004-0.094,0.032-0.125l0.412,0.357c-0.076,0.084-0.158,0.046-0.238,0.007c0.043,0.081,0.163,0.119,0.208,0.241
							c-0.198,0.005-0.396,0.052-0.521-0.108l0.293,0.36c-0.078,0.044-0.188,0.252-0.27,0.214c-0.069,0.246,0.481,0.475,0.391,0.8
							c0.04,0.008,0.082,0.032,0.122,0.09c0.012,0.287-0.176,0.58,0.153,0.857l-0.308,0.256c0.129,0.242,0.384-0.34,0.599,0.064
							c0.171,0.283-0.271,0.172-0.346,0.298c0.203,0.117,0.609,0.311,0.384,0.646C128.221,162.068,128.257,161.985,128.214,161.904z
							 M128.997,165.06c-0.063-0.052-0.239-0.145-0.109-0.217C129.173,164.859,129.054,164.939,128.997,165.06z M130.523,169.791
							c-0.087-0.03-0.063-0.109,0.012-0.207C130.565,169.639,130.57,169.706,130.523,169.791z M134.838,182.958l-0.013-0.005
							C134.89,182.798,134.863,182.854,134.838,182.958z M134.791,183.264c0.039,0.022,0.071,0.014,0.103-0.005
							c-0.064-0.008-0.081-0.071-0.079-0.147C134.757,183.144,134.722,183.189,134.791,183.264z M128.629,152.572l-0.051,0.067
							C128.485,152.527,128.554,152.551,128.629,152.572z"/>
						<path fill="#FFFFFF" d="M130.091,169.306c0.037-0.025,0.08-0.039,0.124-0.052C130.17,169.237,130.124,169.246,130.091,169.306
							z"/>
						<path fill="#FFFFFF" d="M127.698,159.947l0.001-0.011c-0.015-0.002-0.03-0.002-0.045-0.001L127.698,159.947z"/>
						<path fill="#FFFFFF" d="M131.909,179.23c0.022-0.065,0.06-0.106,0.1-0.138C131.951,179.102,131.907,179.138,131.909,179.23z"
							/>
						<path fill="#FFFFFF" d="M135.493,184.7l-0.098-0.171c0.029,0.086-0.017,0.128-0.045,0.18
							C135.404,184.694,135.478,184.644,135.493,184.7z"/>
						<path fill="#FFFFFF" d="M134.343,186.579c0.034,0.021,0.015,0.057,0.049,0.077l0.108-0.029
							C134.471,186.515,134.366,186.452,134.343,186.579z"/>
						<path fill="#FFFFFF" d="M134.74,185.024c-0.196,0.055-0.106,0.156-0.044,0.277c-0.002-0.008-0.005-0.015-0.004-0.023
							C134.978,185.262,134.858,185.143,134.74,185.024z"/>
						<path fill="#FFFFFF" d="M134.709,185.33c0.018,0.037,0.03,0.077,0.028,0.117C134.853,185.44,134.751,185.395,134.709,185.33z"
							/>
						<path fill="#FFFFFF" d="M134.995,183.601c-0.039,0.071,0.262-0.012,0.188,0.038
							C135.449,183.657,134.796,183.294,134.995,183.601z"/>
						<polygon fill="#FFFFFF" points="134.104,185.259 134.342,185.164 134.129,185.131 						"/>
						<path fill="#FFFFFF" d="M134.085,184.21l-0.027,0.218c0.04-0.011,0.07,0.011,0.095,0.039
							C134.136,184.339,134.157,184.19,134.085,184.21z"/>
						<path fill="#FFFFFF" d="M134.152,184.467c0.008,0.066,0.025,0.128,0.073,0.156
							C134.216,184.589,134.192,184.514,134.152,184.467z"/>
						<polygon fill="#FFFFFF" points="133.976,184.993 134.015,184.922 134.004,184.773 						"/>
						<path fill="#FFFFFF" d="M133.697,181.996l-0.115-0.21c-0.089-0.006-0.128,0.065-0.078,0.142
							C133.573,181.97,133.622,182.047,133.697,181.996z"/>
						<path fill="#FFFFFF" d="M133.157,182.806c0.039-0.07,0.094-0.085,0.168-0.136l-0.307,0.054L133.157,182.806z"/>
						<path fill="#FFFFFF" d="M132.957,182.167c-0.089-0.005-0.307-0.276-0.231,0.004
							C132.814,182.177,132.929,182.387,132.957,182.167z"/>
						<polygon fill="#FFFFFF" points="132.677,178.72 132.691,178.775 133.189,178.669 						"/>
						<path fill="#FFFFFF" d="M130.895,175.984c-0.067,0.288,0.32,0.002,0.218,0.271c0.131,0.039,0.084-0.22,0.198-0.176
							C131.154,175.943,131.208,175.846,130.895,175.984z"/>
						<path fill="#FFFFFF" d="M131.311,176.079c0.024,0.021,0.054,0.044,0.092,0.066
							C131.362,176.105,131.334,176.089,131.311,176.079z"/>
						<polygon fill="#FFFFFF" points="126.825,142.111 126.896,141.92 126.75,142.063 						"/>
						<path fill="#FFFFFF" d="M126.391,141.857l0.31-0.104l-0.308-0.045C126.414,141.744,126.456,141.813,126.391,141.857z"/>
						<path fill="#FFFFFF" d="M128.449,165.66l0.079-0.002c0.077-0.043,0.076-0.084,0.073-0.166L128.449,165.66z"/>
						<polygon fill="#FFFFFF" points="128.23,163.301 128.231,163.342 128.505,163.211 						"/>
						<path fill="#FFFFFF" d="M127.479,161.433c0.004,0.081,0.086,0.162,0.09,0.244C127.483,161.514,127.834,161.34,127.479,161.433
							z"/>
					</g>
				</g>
			</g>
		</g>
	</g>
</g>
</svg>
