<?xml version="1.0" encoding="utf-8"?>
<!-- Generator: Adobe Illustrator 16.0.0, SVG Export Plug-In . SVG Version: 6.00 Build 0)  -->
<!DOCTYPE svg PUBLIC "-//W3C//DTD SVG 1.0//EN" "http://www.w3.org/TR/2001/REC-SVG-20010904/DTD/svg10.dtd">
<svg version="1.0" id="Layer_1" xmlns="http://www.w3.org/2000/svg" xmlns:xlink="http://www.w3.org/1999/xlink" x="0px" y="0px"
	 width="227.586px" height="231.035px" viewBox="0 0 227.586 231.035" enable-background="new 0 0 227.586 231.035"
	 xml:space="preserve">
<path fill="#101111" d="M207.617,115.301c0,52.603-42.649,95.249-95.248,95.249c-52.613,0-95.263-42.646-95.263-95.249
	c0-52.609,42.649-95.253,95.263-95.253C164.968,20.047,207.617,62.691,207.617,115.301z"/>
<text transform="matrix(1 0 0 1 80.8633 111.7251)"><tspan x="0" y="0" fill="#FFFFFF" font-family="'GothicA1-Bold'" font-size="27.4107">NEW</tspan><tspan x="-15.854" y="24.669" fill="#FFFFFF" font-family="'GothicA1-Regular'" font-size="20.558">PRODUCT</tspan></text>
<path opacity="0.7" fill="none" stroke="#FFFFFF" stroke-width="0.5" stroke-miterlimit="10" d="M188.565,115.301
	c0,42.082-34.118,76.2-76.196,76.2c-42.089,0-76.207-34.118-76.207-76.2c0-42.087,34.118-76.205,76.207-76.205
	C154.447,39.096,188.565,73.214,188.565,115.301z"/>
</svg>
