<?xml version="1.0" encoding="utf-8"?>
<!-- Generator: Adobe Illustrator 16.0.0, SVG Export Plug-In . SVG Version: 6.00 Build 0)  -->
<!DOCTYPE svg PUBLIC "-//W3C//DTD SVG 1.0//EN" "http://www.w3.org/TR/2001/REC-SVG-20010904/DTD/svg10.dtd">
<svg version="1.0" id="Layer_1" xmlns="http://www.w3.org/2000/svg" xmlns:xlink="http://www.w3.org/1999/xlink" x="0px" y="0px"
	 width="58.75px" height="59.375px" viewBox="0 0 58.75 59.375" enable-background="new 0 0 58.75 59.375" xml:space="preserve">
<g>
	<g id="play-circle-outline_5_">
		<path fill="#B2B2B2" d="M23.846,42.691L40.99,29.836L23.846,16.981V42.691z M29.558,1.264c-15.712,0-28.567,12.853-28.567,28.572
			c0,15.712,12.855,28.569,28.567,28.569c15.718,0,28.57-12.857,28.57-28.569C58.128,14.117,45.275,1.264,29.558,1.264z
			 M29.558,52.688C16.989,52.688,6.7,42.405,6.7,29.836c0-12.576,10.289-22.86,22.857-22.86c12.572,0,22.861,10.284,22.861,22.86
			C52.419,42.405,42.13,52.688,29.558,52.688z"/>
	</g>
</g>
</svg>
