<?xml version="1.0" encoding="utf-8"?>
<!-- Generator: Adobe Illustrator 16.0.0, SVG Export Plug-In . SVG Version: 6.00 Build 0)  -->
<!DOCTYPE svg PUBLIC "-//W3C//DTD SVG 1.0//EN" "http://www.w3.org/TR/2001/REC-SVG-20010904/DTD/svg10.dtd">
<svg version="1.0" id="Layer_1" xmlns="http://www.w3.org/2000/svg" xmlns:xlink="http://www.w3.org/1999/xlink" x="0px" y="0px"
	 width="111px" height="108px" viewBox="0 0 111 108" enable-background="new 0 0 111 108" xml:space="preserve">
<path fill="#FFFFFF" d="M106.396,99.618L81.406,74.633c6.198-7.548,9.929-17.222,9.929-27.762c0-24.184-19.62-43.798-43.798-43.798
	c-24.201,0-43.801,19.614-43.801,43.798c0,24.175,19.6,43.795,43.801,43.795c10.54,0,20.188-3.71,27.741-9.904l24.987,24.966
	c1.691,1.696,4.425,1.696,6.13,0C108.096,104.046,108.096,101.294,106.396,99.618z M47.537,81.949
	c-19.365,0-35.111-15.736-35.111-35.079c0-19.348,15.746-35.105,35.111-35.105c19.34,0,35.101,15.757,35.101,35.105
	C82.638,66.213,66.877,81.949,47.537,81.949z"/>
</svg>
