<?xml version="1.0" encoding="utf-8"?>
<!-- Generator: Adobe Illustrator 16.0.0, SVG Export Plug-In . SVG Version: 6.00 Build 0)  -->
<!DOCTYPE svg PUBLIC "-//W3C//DTD SVG 1.0//EN" "http://www.w3.org/TR/2001/REC-SVG-20010904/DTD/svg10.dtd">
<svg version="1.0" id="Capa_1" xmlns="http://www.w3.org/2000/svg" xmlns:xlink="http://www.w3.org/1999/xlink" x="0px" y="0px"
	 width="567px" height="465px" viewBox="0 0 567 465" enable-background="new 0 0 567 465" xml:space="preserve">
<g>
	<g>
		<path fill="#B2B2B2" d="M567,58.38c-20.611,9.133-42.727,15.326-65.963,18.092c23.726-14.208,41.888-36.743,50.495-63.514
			c-22.255,13.156-46.821,22.711-72.997,27.891c-20.96-22.36-50.774-36.288-83.844-36.288c-63.443,0-114.885,51.44-114.885,114.849
			c0,8.992,1.016,17.775,2.976,26.176C187.32,140.79,102.672,95.054,46.018,25.557C36.114,42.495,30.48,62.23,30.48,83.296
			c0,39.857,20.296,75.025,51.091,95.602c-18.827-0.629-36.533-5.809-52.035-14.417v1.436c0,55.64,39.613,102.074,92.138,112.645
			c-9.624,2.589-19.771,4.023-30.27,4.023c-7.418,0-14.592-0.734-21.626-2.136c14.627,45.667,57.041,78.875,107.291,79.786
			C137.771,391.029,88.22,409.33,34.401,409.33c-9.272,0-18.407-0.56-27.399-1.574c50.846,32.648,111.209,51.687,176.087,51.687
			c211.325,0,326.839-175.038,326.839-326.839l-0.386-14.872C532.111,101.632,551.638,81.406,567,58.38z"/>
	</g>
</g>
</svg>
