<?xml version="1.0" encoding="utf-8"?>
<!-- Generator: Adobe Illustrator 16.0.0, SVG Export Plug-In . SVG Version: 6.00 Build 0)  -->
<!DOCTYPE svg PUBLIC "-//W3C//DTD SVG 1.0//EN" "http://www.w3.org/TR/2001/REC-SVG-20010904/DTD/svg10.dtd">
<svg version="1.0" id="Layer_1" xmlns="http://www.w3.org/2000/svg" xmlns:xlink="http://www.w3.org/1999/xlink" x="0px" y="0px"
	 width="289.655px" height="189.655px" viewBox="0 0 289.655 189.655" enable-background="new 0 0 289.655 189.655"
	 xml:space="preserve">
<g>
	<path fill="#FFFFFF" d="M83.403,83.042c-0.228,0-0.447-0.014-0.655-0.043c-0.702-0.095-1.245-0.306-1.654-0.641
		c-0.145-0.116-0.541-0.439-0.655-0.948c-0.963-1.362-1.806-2.987-2.503-4.832c-0.736-1.934-1.408-4.063-2.003-6.328
		c-0.593-2.291-1.182-4.676-1.736-7.095c-0.57-2.463-1.174-4.916-1.793-7.29c-0.616-2.364-1.36-4.665-2.213-6.834
		c-0.838-2.14-1.838-4.118-2.969-5.877l-0.101-1.05c0.138-0.35,0.384-0.712,0.744-1.106c0.285-0.306,0.601-0.622,0.945-0.944
		c0.337-0.314,0.674-0.618,1.01-0.912c0.409-0.35,0.776-0.606,1.126-0.781l1.207,0.111c0.467,0.351,0.86,0.787,1.171,1.299
		c0.28,0.458,0.601,1.176,0.979,2.192c0.355,0.941,0.778,2.21,1.299,3.885c0.5,1.616,1.163,3.776,1.992,6.477
		c0.81,2.641,1.824,5.9,3.104,9.962c1.027,3.257,2.234,7.04,3.598,11.281c0.388-1.084,0.838-2.377,1.374-3.925
		c0.64-1.849,1.331-3.918,2.122-6.324c0.745-2.286,1.502-4.658,2.25-7.044c0.74-2.376,1.447-4.644,2.123-6.801
		c0.667-2.134,1.239-3.976,1.714-5.535c0.118-0.551,0.206-1.1,0.271-1.636c0.068-0.644,0.177-1.242,0.325-1.777
		c0.184-0.671,0.51-1.25,0.981-1.721c0.523-0.522,1.27-0.792,2.275-0.825c0.207-0.063,0.416-0.094,0.623-0.094
		c0.889,0,1.65,0.527,2.271,1.566c0.572,0.953,1.136,2.271,1.71,4.025c0.551,1.671,1.139,3.636,1.749,5.837
		c0.597,2.161,1.286,4.468,2.046,6.857c0.752,2.368,1.602,4.752,2.522,7.084c0.541,1.363,1.136,2.665,1.787,3.894l8.544-34.897
		c0.14-0.575,0.422-1.056,0.835-1.427c0.449-0.411,1.012-0.628,1.623-0.628s1.207,0.25,1.77,0.744c0.483,0.42,0.9,1.045,1.283,1.907
		l0.061,0.741l-9.119,36.742c-0.011,0.598-0.083,1.286-0.214,2.045c-0.135,0.797-0.322,1.589-0.553,2.358
		c-0.241,0.79-0.524,1.49-0.843,2.079c-0.434,0.804-0.997,1.31-1.671,1.506c-0.18,0.053-0.368,0.082-0.562,0.082
		c-0.607,0-1.2-0.274-1.767-0.81c-0.559-0.532-1.078-1.419-1.617-2.79c-2.437-4.313-4.645-8.874-6.564-13.563
		c-1.478-3.606-2.867-7.424-4.147-11.387l-7.255,23.915c-0.276,1.97-0.684,3.591-1.217,4.821c-0.568,1.31-1.189,2.278-1.893,2.955
		c-0.745,0.715-1.537,1.167-2.356,1.342C84.292,82.991,83.828,83.042,83.403,83.042z"/>
	<path fill="#FFFFFF" d="M68.19,42.532c0.085-0.217,0.261-0.468,0.522-0.752c0.261-0.283,0.557-0.578,0.884-0.882
		c0.328-0.305,0.655-0.6,0.98-0.884c0.328-0.283,0.622-0.491,0.882-0.622c0.351,0.261,0.644,0.589,0.883,0.981
		c0.241,0.392,0.532,1.058,0.881,1.993c0.351,0.939,0.775,2.215,1.277,3.825c0.5,1.615,1.164,3.771,1.992,6.473
		c0.828,2.703,1.866,6.026,3.106,9.971c1.244,3.945,2.759,8.685,4.541,14.221c0.174-0.131,0.494-0.829,0.951-2.094
		c0.458-1.262,1.013-2.842,1.669-4.738c0.654-1.896,1.362-4.011,2.125-6.341c0.761-2.334,1.513-4.685,2.254-7.061
		c0.741-2.377,1.448-4.644,2.127-6.801c0.671-2.158,1.248-4.021,1.731-5.59c0.13-0.61,0.226-1.208,0.297-1.796
		c0.061-0.59,0.161-1.123,0.291-1.603c0.129-0.479,0.356-0.881,0.684-1.209c0.326-0.329,0.888-0.492,1.67-0.492
		c0.608-0.26,1.176,0.044,1.703,0.918c0.518,0.871,1.052,2.135,1.599,3.79c0.543,1.657,1.122,3.587,1.731,5.787
		c0.61,2.201,1.293,4.5,2.061,6.896c0.76,2.398,1.611,4.784,2.547,7.161c0.941,2.374,2.038,4.544,3.305,6.503l9.215-37.657
		c0.089-0.35,0.251-0.633,0.492-0.851c0.24-0.217,0.524-0.327,0.85-0.327c0.328,0,0.667,0.153,1.014,0.459
		c0.351,0.304,0.676,0.805,0.984,1.501l-9.156,36.874c0,0.568-0.066,1.232-0.197,1.994c-0.131,0.764-0.304,1.504-0.521,2.224
		c-0.22,0.719-0.469,1.34-0.755,1.862c-0.282,0.522-0.609,0.84-0.982,0.948c-0.365,0.111-0.773-0.043-1.206-0.458
		c-0.438-0.413-0.893-1.231-1.371-2.452c-2.446-4.314-4.622-8.815-6.542-13.5c-1.917-4.686-3.661-9.644-5.229-14.875l-8.369,27.592
		c-0.262,1.919-0.644,3.454-1.144,4.608c-0.503,1.156-1.046,2.017-1.634,2.584c-0.59,0.565-1.188,0.914-1.799,1.045
		c-0.609,0.13-1.154,0.163-1.631,0.099c-0.482-0.067-0.841-0.197-1.08-0.393c-0.243-0.197-0.316-0.337-0.231-0.428
		c-1.004-1.347-1.863-2.972-2.583-4.87c-0.719-1.894-1.371-3.965-1.963-6.21c-0.585-2.243-1.163-4.598-1.729-7.06
		c-0.568-2.462-1.167-4.905-1.798-7.323c-0.634-2.418-1.384-4.739-2.254-6.962C70.391,46.39,69.369,44.362,68.19,42.532z"/>
	<path fill="#FFFFFF" d="M130.947,81.781c-0.539,0-0.977-0.044-1.338-0.136c-0.477-0.118-0.951-0.414-1.443-0.907l-0.339-0.816
		c0-2.73,0.02-5.43,0.052-8.032c0.034-2.613,0.019-5.228-0.052-7.771c-0.063-2.549-0.198-5.149-0.397-7.73
		c-0.199-2.563-0.502-5.206-0.896-7.861c0,0-0.033-0.082-0.054-0.135c-0.104-0.242-0.191-0.483-0.266-0.735
		c-0.057-0.179-0.111-0.344-0.168-0.489c-0.125-0.309-0.185-0.545-0.185-0.775c0-0.355,0.102-0.723,0.302-1.126
		c0.157-0.312,0.364-0.621,0.603-0.906c0.271-0.319,0.588-0.583,0.937-0.785c0.367-0.208,0.747-0.313,1.141-0.313
		c0.1,0,0.199,0.007,0.301,0.02l0.117,0.024c0.69,0.172,1.271,0.606,1.681,1.26c0.312,0.5,0.553,1.052,0.713,1.643
		c0.088,0.318,0.16,0.633,0.217,0.944c0.603-0.311,1.247-0.631,1.92-0.964c1.287-0.634,2.622-1.224,3.972-1.754
		c1.359-0.534,2.743-0.99,4.11-1.351c1.415-0.376,2.781-0.569,4.053-0.569l1.151,1.154c0,0.482-0.1,0.928-0.303,1.323
		c-0.229,0.463-0.632,0.838-1.194,1.119l-13.528,6.789v1.208c0.034,0.382,0.076,1.016,0.126,1.9c0.05,0.904,0.105,1.866,0.176,2.889
		c0.067,1.029,0.127,2.007,0.176,2.937c0,0.019,0,0.039,0,0.058l8.61-4.807l0.119-0.138c0.239-0.292,0.554-0.558,0.929-0.795
		c0.428-0.269,0.893-0.421,1.372-0.449l0.106-0.004c0.455,0,1.122,0.175,1.726,1.006l0.222,0.676c0,0.936-0.427,1.811-1.268,2.605
		c-0.656,0.617-1.479,1.241-2.444,1.849c-0.933,0.589-1.959,1.165-3.045,1.717c-1.038,0.529-2.021,1.047-2.91,1.542
		c-0.842,0.468-1.545,0.935-2.093,1.391c-0.44,0.367-0.494,0.557-0.494,0.56l0.003,8.498c0.076-0.025,0.161-0.058,0.255-0.094
		c0.739-0.299,1.577-0.723,2.496-1.262c0.94-0.551,1.922-1.2,2.933-1.932c1.042-0.756,2.076-1.484,3.079-2.163
		c0.988-0.67,1.934-1.29,2.808-1.838c0.998-0.624,1.83-0.988,2.555-1.117l0.2-0.017c0.513,0,0.991,0.106,1.418,0.32
		c0.667,0.333,1.045,1.004,1.045,1.839c0,0.487-0.168,1.383-1.297,1.967c-1.142,0.688-2.473,1.556-3.963,2.585
		c-1.522,1.057-3.1,2.129-4.679,3.188c-1.603,1.074-3.203,2.058-4.741,2.923c-1.635,0.917-3.027,1.507-4.25,1.803L130.947,81.781z"
		/>
	<path fill="#FFFFFF" d="M128.982,79.923c0-2.722,0.019-5.396,0.049-8.017c0.037-2.623,0.017-5.227-0.049-7.815
		c-0.067-2.589-0.203-5.185-0.399-7.791c-0.206-2.604-0.509-5.25-0.908-7.94c0-0.067-0.05-0.202-0.13-0.404
		c-0.085-0.201-0.158-0.412-0.229-0.629c-0.066-0.219-0.134-0.414-0.2-0.582c-0.069-0.168-0.101-0.285-0.101-0.352
		c0-0.169,0.056-0.37,0.177-0.606c0.121-0.234,0.268-0.461,0.452-0.68c0.183-0.218,0.397-0.395,0.629-0.529
		c0.238-0.134,0.474-0.183,0.708-0.151c0.404,0.101,0.73,0.353,0.983,0.755c0.253,0.402,0.445,0.85,0.579,1.337
		c0.135,0.487,0.227,0.965,0.276,1.437c0.05,0.47,0.077,0.807,0.077,1.007c1.008-0.537,2.14-1.115,3.401-1.74
		c1.262-0.62,2.556-1.191,3.885-1.714c1.327-0.52,2.654-0.957,3.984-1.311c1.325-0.353,2.578-0.528,3.756-0.528
		c0,0.303-0.061,0.57-0.179,0.806c-0.119,0.235-0.346,0.437-0.68,0.605l-14.168,7.109v1.966c0.034,0.37,0.076,1.01,0.125,1.916
		c0.047,0.906,0.109,1.874,0.179,2.9c0.066,1.025,0.124,2,0.175,2.923c0.05,0.926,0.092,1.555,0.126,1.892l10.386-5.802l0.25-0.3
		c0.168-0.2,0.39-0.386,0.657-0.555c0.271-0.167,0.546-0.259,0.831-0.277c0.287-0.017,0.564,0.161,0.833,0.528
		c0,0.604-0.302,1.194-0.91,1.766c-0.599,0.573-1.362,1.143-2.263,1.714c-0.912,0.572-1.895,1.126-2.954,1.664
		c-1.058,0.539-2.04,1.059-2.944,1.563c-0.909,0.503-1.666,1.007-2.272,1.513c-0.608,0.504-0.909,0.975-0.909,1.412v9.731
		c0.438,0.168,1.049,0.094,1.841-0.225c0.791-0.321,1.672-0.765,2.645-1.338c0.977-0.569,1.983-1.235,3.027-1.99
		c1.043-0.758,2.056-1.471,3.051-2.144c0.991-0.672,1.913-1.278,2.772-1.813c0.86-0.539,1.571-0.857,2.143-0.959
		c0.336,0,0.639,0.067,0.909,0.202c0.265,0.134,0.405,0.403,0.405,0.806c0,0.404-0.237,0.722-0.708,0.957
		c-1.178,0.708-2.531,1.589-4.06,2.647c-1.527,1.059-3.083,2.118-4.662,3.177c-1.581,1.06-3.134,2.018-4.666,2.873
		c-1.529,0.858-2.848,1.423-3.958,1.69c-0.436,0-0.791-0.033-1.059-0.102C129.617,80.459,129.318,80.26,128.982,79.923z"/>
	<path fill="#FFFFFF" d="M155.452,81.781c-0.538,0-0.977-0.044-1.339-0.136c-0.477-0.118-0.949-0.417-1.446-0.908l-0.335-0.814
		c0-2.687,0.017-5.389,0.053-8.032c0.032-2.627,0.013-5.241-0.048-7.771c-0.073-2.574-0.203-5.176-0.402-7.729
		c-0.197-2.569-0.503-5.212-0.9-7.862c0,0-0.028-0.077-0.044-0.125c-0.105-0.245-0.192-0.487-0.271-0.741
		c-0.059-0.181-0.112-0.347-0.171-0.49c-0.129-0.317-0.182-0.553-0.182-0.78c0-0.355,0.099-0.722,0.3-1.123
		c0.162-0.319,0.364-0.625,0.604-0.909c0.27-0.319,0.587-0.583,0.938-0.786c0.363-0.208,0.747-0.312,1.138-0.312
		c0.101,0,0.204,0.007,0.301,0.02l0.117,0.024c0.691,0.172,1.273,0.609,1.684,1.263c0.304,0.488,0.547,1.041,0.712,1.638
		c0.089,0.319,0.163,0.634,0.214,0.946c0.606-0.311,1.25-0.633,1.921-0.964c1.288-0.634,2.625-1.224,3.972-1.754
		c1.362-0.534,2.746-0.99,4.111-1.352c1.416-0.375,2.779-0.568,4.053-0.568l1.148,1.154c0,0.481-0.098,0.926-0.299,1.323
		c-0.229,0.463-0.632,0.837-1.193,1.118l-13.53,6.79v1.208c0.029,0.382,0.074,1.017,0.123,1.902c0.05,0.901,0.106,1.864,0.174,2.886
		c0.067,1.03,0.126,2.009,0.179,2.938c0,0.019,0,0.039,0,0.058l8.617-4.807l0.111-0.137c0.246-0.294,0.559-0.563,0.93-0.795
		c0.43-0.269,0.893-0.421,1.373-0.449l0.109-0.004c0.453,0,1.119,0.173,1.725,1.002l0.221,0.68c0,0.931-0.426,1.808-1.266,2.604
		c-0.658,0.62-1.48,1.244-2.447,1.851c-0.941,0.592-1.967,1.17-3.044,1.718c-1.03,0.521-2.009,1.041-2.914,1.542
		c-0.839,0.468-1.543,0.937-2.088,1.391c-0.438,0.367-0.497,0.557-0.498,0.56l0.001,8.498c0.079-0.025,0.166-0.058,0.259-0.094
		c0.735-0.298,1.576-0.722,2.499-1.262c0.933-0.549,1.922-1.198,2.929-1.932c1.03-0.746,2.062-1.473,3.079-2.163
		c0.982-0.666,1.927-1.282,2.812-1.838c0.991-0.624,1.826-0.988,2.553-1.117l0.2-0.017c0.512,0,0.991,0.106,1.42,0.32
		c0.662,0.333,1.045,1.001,1.045,1.839c0,0.485-0.172,1.383-1.301,1.965c-1.14,0.688-2.473,1.556-3.966,2.586
		c-1.527,1.059-3.097,2.132-4.674,3.188c-1.604,1.076-3.202,2.058-4.743,2.923c-1.638,0.917-3.028,1.507-4.251,1.803L155.452,81.781
		z"/>
	<path fill="#FFFFFF" d="M153.487,79.923c0-2.722,0.017-5.396,0.05-8.017c0.032-2.623,0.017-5.227-0.05-7.815
		c-0.067-2.589-0.2-5.185-0.403-7.791c-0.203-2.604-0.504-5.25-0.909-7.94c0-0.067-0.042-0.202-0.128-0.404
		c-0.083-0.201-0.159-0.412-0.224-0.629c-0.069-0.219-0.136-0.414-0.205-0.582c-0.067-0.168-0.101-0.285-0.101-0.352
		c0-0.169,0.06-0.37,0.179-0.606c0.117-0.234,0.267-0.461,0.453-0.68c0.186-0.218,0.395-0.395,0.631-0.529
		c0.234-0.134,0.469-0.183,0.706-0.151c0.402,0.101,0.731,0.353,0.985,0.755c0.249,0.402,0.442,0.85,0.579,1.337
		c0.132,0.487,0.227,0.965,0.275,1.437c0.051,0.47,0.077,0.807,0.077,1.007c1.007-0.537,2.144-1.115,3.403-1.74
		c1.259-0.62,2.551-1.191,3.882-1.714c1.326-0.52,2.654-0.957,3.984-1.311c1.326-0.353,2.578-0.528,3.758-0.528
		c0,0.303-0.063,0.57-0.181,0.806c-0.116,0.235-0.343,0.437-0.679,0.605l-14.168,7.109v1.966c0.033,0.37,0.075,1.01,0.124,1.916
		c0.05,0.906,0.109,1.874,0.177,2.9c0.069,1.025,0.129,2,0.179,2.923c0.051,0.926,0.09,1.555,0.125,1.892l10.385-5.802l0.253-0.3
		c0.167-0.2,0.384-0.386,0.657-0.555c0.264-0.167,0.545-0.259,0.829-0.277c0.288-0.017,0.563,0.161,0.833,0.528
		c0,0.604-0.307,1.194-0.905,1.766c-0.608,0.573-1.364,1.143-2.272,1.714c-0.906,0.572-1.893,1.126-2.947,1.664
		c-1.063,0.539-2.044,1.059-2.951,1.563c-0.909,0.503-1.665,1.007-2.27,1.513c-0.602,0.504-0.904,0.975-0.904,1.412v9.731
		c0.436,0.168,1.047,0.094,1.838-0.225c0.789-0.321,1.67-0.765,2.648-1.338c0.971-0.569,1.984-1.235,3.021-1.99
		c1.043-0.758,2.062-1.471,3.055-2.144c0.989-0.672,1.916-1.278,2.77-1.813c0.86-0.539,1.573-0.857,2.145-0.959
		c0.335,0,0.637,0.067,0.906,0.202c0.271,0.134,0.407,0.403,0.407,0.806c0,0.404-0.24,0.722-0.708,0.957
		c-1.177,0.708-2.528,1.589-4.059,2.647c-1.533,1.059-3.085,2.118-4.664,3.177c-1.582,1.06-3.135,2.018-4.664,2.873
		c-1.529,0.858-2.85,1.423-3.959,1.69c-0.436,0-0.792-0.033-1.057-0.102C154.122,80.459,153.822,80.26,153.487,79.923z"/>
	<path fill="#FFFFFF" d="M178.928,81.76c-0.096-0.018-0.163-0.033-0.206-0.038l0.01-0.066l-1.012-0.763
		c-0.078-0.265-0.185-0.714-0.334-1.409c-0.15-0.65-0.295-1.339-0.436-2.063c-0.146-0.715-0.28-1.407-0.406-2.074
		c-0.127-0.659-0.213-1.163-0.25-1.493c-0.041-0.38-0.112-1.155-0.221-2.34c-0.107-1.178-0.229-2.535-0.375-4.073
		c-0.146-1.539-0.289-3.187-0.432-4.944c-0.143-1.745-0.283-3.394-0.426-4.945l-0.589-6.349l-0.008-0.106
		c-0.005-0.073-0.026-0.216-0.063-0.417c-0.049-0.28-0.116-0.586-0.196-0.915c-0.1-0.388-0.176-0.785-0.237-1.179
		c-0.046-0.305-0.083-0.521-0.111-0.643v-0.014c-0.019-0.045-0.046-0.11-0.082-0.196c-0.099-0.24-0.188-0.482-0.269-0.723
		c-0.068-0.205-0.136-0.403-0.207-0.592c-0.12-0.325-0.174-0.564-0.174-0.79l0.021-0.205c0.117-0.663,0.459-1.234,1.008-1.696
		c0.547-0.463,1.17-0.698,1.839-0.698c0.479,0,0.943,0.173,1.345,0.499c0.295,0.245,0.555,0.539,0.764,0.88
		c0.174,0.287,0.316,0.553,0.439,0.819c0.164,0.358,0.252,0.695,0.266,1.021l1.721,15.238c0.609-1.004,1.293-2.14,2.064-3.406
		c0.93-1.531,1.965-3.17,3.076-4.878c1.112-1.716,2.213-3.225,3.27-4.484c1.123-1.335,2.124-2.271,3.057-2.857
		c0.531-0.335,1.053-0.504,1.554-0.504c0.454,0,1.307,0.148,1.956,1.144l0.013,1.24c-1.601,2.56-3.035,4.764-4.262,6.553
		c-1.251,1.821-2.3,3.316-3.203,4.578c-0.939,1.306-1.69,2.369-2.291,3.247c-0.608,0.881-1.132,1.732-1.577,2.532
		c-0.43,0.781-0.801,1.604-1.101,2.455c-0.245,0.7-0.487,1.519-0.717,2.442c0.25,0.068,0.717,0.159,1.602,0.232
		c0.839,0.07,1.981,0.141,3.496,0.213c1.485,0.068,3.388,0.123,5.646,0.157c2.245,0.035,5.068,0.052,8.396,0.052l1.149,1.155
		c0,0.722-0.176,1.434-0.527,2.112c-0.269,0.521-0.955,1.397-2.499,1.397h-17.712c0.117,0.561,0.213,1.123,0.285,1.675
		c0.131,1.033,0.198,2.066,0.198,3.068c0,1.769-0.887,2.1-1.416,2.141c-0.167,0.013-0.515,0.03-1.612,0.03L178.928,81.76z"/>
	<path fill="#FFFFFF" d="M174.06,45.63c0.068-0.393,0.273-0.731,0.613-1.019c0.342-0.285,0.706-0.429,1.101-0.429
		c0.214,0,0.419,0.083,0.616,0.241c0.195,0.161,0.367,0.357,0.506,0.59c0.146,0.233,0.271,0.464,0.377,0.696
		c0.113,0.234,0.163,0.439,0.163,0.617l2.088,18.491c0.214-0.213,0.672-0.9,1.367-2.063c0.696-1.162,1.519-2.521,2.464-4.073
		c0.951-1.555,1.967-3.171,3.061-4.852c1.087-1.679,2.149-3.135,3.188-4.369c1.033-1.232,1.963-2.107,2.785-2.625
		c0.824-0.519,1.463-0.42,1.93,0.295c-1.608,2.573-3.02,4.743-4.234,6.513c-1.216,1.767-2.275,3.285-3.19,4.554
		c-0.909,1.27-1.677,2.359-2.302,3.269c-0.627,0.912-1.172,1.789-1.636,2.627c-0.465,0.838-0.857,1.713-1.18,2.626
		c-0.321,0.911-0.624,1.993-0.911,3.243c0,0.143,0.044,0.26,0.137,0.349c0.086,0.088,0.336,0.196,0.748,0.322
		c0.409,0.124,1.044,0.222,1.902,0.294c0.857,0.072,2.037,0.144,3.539,0.214c1.5,0.073,3.392,0.125,5.68,0.161
		c2.284,0.035,5.092,0.054,8.415,0.054c0,0.535-0.132,1.063-0.401,1.582c-0.266,0.518-0.762,0.776-1.476,0.776h-19.187
		c0.287,1.002,0.492,1.992,0.617,2.974c0.127,0.984,0.188,1.957,0.188,2.922c0,0.645-0.119,0.976-0.35,0.992
		c-0.231,0.017-0.741,0.027-1.526,0.027c-0.179-0.036-0.288-0.052-0.322-0.052c-0.072-0.25-0.178-0.698-0.322-1.341
		c-0.144-0.643-0.286-1.321-0.432-2.037c-0.141-0.715-0.275-1.401-0.396-2.064c-0.129-0.663-0.211-1.134-0.243-1.42
		c-0.036-0.355-0.109-1.125-0.213-2.305c-0.106-1.178-0.231-2.536-0.379-4.074c-0.142-1.537-0.284-3.18-0.427-4.93
		c-0.145-1.75-0.287-3.404-0.43-4.958s-0.266-2.903-0.377-4.047l-0.21-2.303c0-0.109-0.027-0.316-0.083-0.617
		c-0.051-0.305-0.125-0.636-0.213-0.992c-0.09-0.356-0.163-0.715-0.215-1.074c-0.054-0.355-0.098-0.607-0.135-0.75
		c0-0.034-0.045-0.16-0.135-0.375c-0.088-0.212-0.17-0.428-0.24-0.642c-0.074-0.216-0.145-0.421-0.213-0.617
		C174.093,45.836,174.06,45.701,174.06,45.63z"/>
	<path fill="#FFFFFF" d="M202.086,82.386c-0.774,0-2.575-0.329-2.575-3.375c-0.08-4.947-0.166-8.999-0.26-12.368
		c-0.095-3.437-0.179-6.333-0.256-8.688c-0.074-2.282-0.158-4.158-0.254-5.576c-0.101-1.445-0.164-2.545-0.197-3.361
		c-0.04-0.812-0.076-1.391-0.111-1.727c-0.041-0.388-0.063-0.782-0.063-1.174c0-1.489,0.777-2.066,1.246-2.275
		c0.529-0.239,1.167-0.359,1.9-0.359c0.879,0,1.606,0.192,2.16,0.571c0.934,0.638,1.044,1.938,1.044,2.862l1.03,29.216
		c0.099-0.03,0.197-0.062,0.304-0.097c0.451-0.149,0.923-0.311,1.409-0.479c0.451-0.156,0.805-0.299,1.057-0.427l0.076-0.033
		c0.446-0.185,1.123-0.486,2.02-0.896c0.908-0.417,1.93-0.891,3.066-1.42c1.143-0.533,2.348-1.095,3.627-1.684
		c1.279-0.593,2.5-1.146,3.664-1.663c1.145-0.505,2.165-0.98,3.035-1.404c0.926-0.453,1.61-0.771,2.089-0.971l0.444-0.09h0.684
		c0.287,0,0.582,0.025,0.871,0.073c0.461,0.076,0.877,0.286,1.193,0.603c0.346,0.346,0.549,0.8,0.621,1.359l0.01,0.144
		c0,0.559-0.111,1.06-0.324,1.485c-0.156,0.312-0.356,0.649-0.609,1.034l-0.753,0.494c-2.122,0.396-4.229,1.128-6.269,2.174
		c-2.118,1.087-4.254,2.231-6.351,3.401c-2.13,1.19-4.314,2.264-6.492,3.189C206.841,81.894,204.472,82.386,202.086,82.386z"/>
	<path fill="#FFFFFF" d="M200.663,79.011c-0.079-4.828-0.161-8.958-0.26-12.398c-0.093-3.44-0.18-6.336-0.258-8.694
		c-0.074-2.356-0.159-4.227-0.253-5.616c-0.097-1.386-0.162-2.498-0.202-3.335c-0.037-0.836-0.074-1.435-0.113-1.794
		c-0.041-0.362-0.057-0.713-0.057-1.056c0-0.646,0.189-1.055,0.568-1.225c0.381-0.172,0.855-0.257,1.428-0.257
		c0.646,0,1.148,0.124,1.511,0.37c0.36,0.249,0.54,0.885,0.54,1.911l1.085,30.669c0.038,0,0.228-0.037,0.571-0.114
		c0.341-0.076,0.737-0.19,1.195-0.343c0.457-0.151,0.932-0.313,1.425-0.485c0.495-0.17,0.895-0.33,1.196-0.484
		c0.457-0.188,1.141-0.492,2.051-0.911c0.912-0.419,1.941-0.893,3.08-1.425c1.142-0.534,2.346-1.093,3.624-1.683
		c1.271-0.589,2.487-1.14,3.644-1.653c1.162-0.514,2.188-0.989,3.078-1.424c0.895-0.438,1.568-0.751,2.025-0.942h0.684
		c0.229,0,0.455,0.02,0.686,0.058c0.226,0.038,0.417,0.133,0.568,0.285c0.152,0.15,0.248,0.378,0.287,0.683
		c0,0.38-0.066,0.706-0.201,0.97c-0.133,0.266-0.312,0.568-0.542,0.912c-2.243,0.418-4.437,1.179-6.585,2.28
		c-2.146,1.102-4.274,2.243-6.383,3.421c-2.106,1.178-4.24,2.223-6.386,3.133c-2.146,0.916-4.341,1.371-6.584,1.371
		C201.138,81.234,200.663,80.493,200.663,79.011z"/>
	<path fill="#FFFFFF" d="M240.161,82.437c-1.52,0-2.465-0.944-2.465-2.464c0-1.324,0.204-2.639,0.609-3.905
		c0.37-1.164,0.783-2.361,1.23-3.555c0.42-1.142,0.794-2.29,1.104-3.409c0.25-0.911,0.354-1.877,0.313-2.874
		c-0.898-0.989-1.883-2.055-2.943-3.194c-1.198-1.28-2.383-2.62-3.521-3.978c-1.168-1.387-2.26-2.848-3.253-4.337
		c-0.99-1.486-1.811-3.021-2.439-4.565c-0.115-0.202-0.175-0.439-0.175-0.687v-0.2c0-0.86,0.415-1.538,1.136-1.861
		c0.455-0.202,0.936-0.301,1.429-0.301l0.884,0.413c0.893,1.064,1.848,2.277,2.838,3.604c0.967,1.297,1.986,2.621,3.027,3.932
		c1.02,1.281,2.075,2.526,3.133,3.7c0.789,0.877,1.575,1.638,2.344,2.274c0.067-0.187,0.152-0.414,0.254-0.685
		c0.339-0.93,0.756-2.037,1.245-3.322c0.477-1.255,0.989-2.669,1.522-4.202c0.547-1.566,1.059-3.094,1.528-4.542
		c0.48-1.469,0.902-2.864,1.246-4.152c0.346-1.288,0.604-2.348,0.763-3.155l0.104-0.293c0.136-0.275,0.494-0.733,1.33-0.733
		c0.889,0,1.641,0.405,2.178,1.168c0.489,0.689,0.688,1.455,0.576,2.214l-0.033,0.152c-0.903,3.195-1.654,5.819-2.24,7.868
		c-0.592,2.056-1.08,3.732-1.469,5.03c-0.381,1.281-0.715,2.348-0.996,3.167c-0.28,0.818-0.564,1.594-0.854,2.305
		c-0.283,0.696-0.571,1.466-0.865,2.296l-1.209,3.431c-0.507,1.439-1.132,3.279-1.857,5.474c-0.742,2.241-1.674,5.111-2.771,8.535
		l-1.099,0.8c0.003,0.003-0.058,0.008-0.145,0.017C240.403,82.427,240.253,82.437,240.161,82.437z"/>
	<path fill="#FFFFFF" d="M238.851,79.973c0-1.21,0.186-2.394,0.554-3.554c0.37-1.159,0.771-2.327,1.21-3.505
		c0.437-1.176,0.813-2.342,1.135-3.503c0.317-1.16,0.432-2.378,0.326-3.655c-0.973-1.075-2.047-2.244-3.225-3.505
		c-1.178-1.26-2.336-2.572-3.48-3.934c-1.141-1.361-2.202-2.771-3.174-4.234c-0.979-1.462-1.768-2.95-2.373-4.462
		c-0.036-0.033-0.051-0.083-0.051-0.152v-0.2c0-0.405,0.151-0.673,0.455-0.809c0.303-0.133,0.622-0.201,0.958-0.201
		c0.874,1.041,1.806,2.227,2.798,3.555c0.992,1.327,2.01,2.646,3.047,3.958c1.044,1.311,2.104,2.563,3.18,3.757
		c1.076,1.192,2.135,2.177,3.178,2.949h0.658c0.133-0.235,0.367-0.814,0.699-1.739c0.339-0.925,0.754-2.024,1.239-3.304
		c0.486-1.275,1-2.688,1.54-4.236c0.534-1.544,1.046-3.066,1.535-4.561c0.486-1.497,0.908-2.9,1.262-4.211
		c0.354-1.312,0.611-2.388,0.779-3.229c0.037-0.066,0.137-0.099,0.303-0.099c0.506,0,0.917,0.225,1.234,0.68
		c0.321,0.452,0.446,0.915,0.379,1.387c-0.907,3.193-1.655,5.815-2.242,7.864c-0.593,2.05-1.074,3.725-1.461,5.018
		c-0.389,1.295-0.717,2.337-0.984,3.125c-0.271,0.791-0.546,1.539-0.832,2.244c-0.287,0.707-0.581,1.488-0.883,2.345
		c-0.305,0.857-0.703,2-1.211,3.429c-0.503,1.428-1.123,3.261-1.865,5.497c-0.738,2.236-1.664,5.084-2.774,8.546
		c-0.033,0-0.124,0.008-0.273,0.024c-0.155,0.018-0.261,0.026-0.329,0.026C239.288,81.284,238.851,80.849,238.851,79.973z"/>
	<path fill="#FFFFFF" d="M110.78,141.647c-0.097,0-0.252-0.009-0.466-0.033c-0.952-0.107-1.176-0.739-1.229-1.053h-0.003
		l-4.454-30.16c-0.268-0.513-0.448-0.963-0.558-1.374c-0.128-0.464-0.193-0.992-0.193-1.609c0-0.205,0.01-0.411,0.033-0.619
		c0.032-0.342,0.14-0.663,0.321-0.95c0.22-0.353,0.562-0.616,0.982-0.772c0.201-0.075,0.421-0.111,0.648-0.111
		c0.267,0,0.542,0.05,0.845,0.148c0.359,0.121,0.699,0.33,1.018,0.621c0.273,0.25,0.526,0.561,0.767,0.928
		c0.071,0.112,0.142,0.228,0.206,0.339c0.462-0.339,0.941-0.677,1.43-1.011c0.954-0.652,1.981-1.242,3.055-1.754
		c1.08-0.514,2.192-0.936,3.305-1.253c1.156-0.333,2.291-0.501,3.365-0.501c0.396,0,0.842,0.039,1.376,0.112
		c0.558,0.081,1.097,0.224,1.601,0.426c0.564,0.226,1.053,0.54,1.445,0.935c0.485,0.487,0.748,1.117,0.767,1.824
		c0.108,0.956-0.008,1.931-0.34,2.898c-0.315,0.899-0.742,1.786-1.276,2.633c-0.51,0.812-1.104,1.618-1.756,2.396
		c-0.47,0.559-0.944,1.104-1.422,1.632c1.67-0.434,3.37-0.651,5.053-0.651c0.534,0,1.118,0.026,1.739,0.079
		c0.695,0.06,1.359,0.214,1.965,0.456c0.667,0.267,1.233,0.653,1.688,1.153c0.536,0.589,0.802,1.375,0.802,2.337
		c0,0.869-0.344,1.958-1.061,3.331c-0.645,1.232-1.481,2.598-2.499,4.058c-0.989,1.433-2.108,2.915-3.327,4.406
		c-1.217,1.489-2.396,2.851-3.502,4.04c-1.137,1.219-2.176,2.235-3.096,3.02c-1.184,1-1.949,1.408-2.641,1.408l-0.481-0.107
		l-1.312-0.604l-0.235-0.497c0.002,0.137,0.004,0.273,0.004,0.41c0,0.763-0.058,1.391-0.179,1.92
		C113.055,140.565,112.607,141.647,110.78,141.647z M111.936,127.468c0.008,0.813,0.077,1.62,0.205,2.399
		c0.155,0.898,0.311,1.791,0.478,2.672c0.168,0.9,0.33,1.807,0.485,2.723c0.048,0.291,0.086,0.583,0.123,0.877
		c0.262-0.584,0.653-1.21,1.18-1.895c0.697-0.908,1.534-1.859,2.485-2.826c0.926-0.946,1.925-1.943,2.988-2.988
		c1.043-1.029,2.046-2.04,2.978-3.006c0.91-0.942,1.712-1.865,2.386-2.746c0.617-0.808,1.017-1.527,1.195-2.145
		c0.145-0.501,0.042-0.732-0.082-0.891c-0.078-0.1-0.432-0.447-1.682-0.734c-1.152,0.014-2.384,0.225-3.667,0.626
		c-1.34,0.421-2.637,1.032-3.86,1.812c-1.214,0.782-2.313,1.721-3.26,2.793C113.017,125.127,112.357,126.247,111.936,127.468z
		 M119.955,107.36c-0.699,0-1.646,0.157-2.801,0.466c-1.175,0.313-2.318,0.758-3.398,1.319c-1.045,0.546-1.958,1.211-2.708,1.978
		c-0.625,0.641-0.929,1.324-0.929,2.092c0,1.193,0.08,2.479,0.241,3.819c0.085,0.686,0.211,1.343,0.381,1.974
		c0.182-0.174,0.375-0.356,0.577-0.55c0.735-0.701,1.526-1.483,2.346-2.316c0.797-0.815,1.589-1.692,2.359-2.607
		c0.775-0.928,1.495-1.826,2.127-2.673c0.614-0.818,1.105-1.584,1.461-2.279c0.305-0.607,0.411-0.994,0.442-1.219
		C120.022,107.361,119.99,107.36,119.955,107.36z"/>
	<path fill="#FFFFFF" d="M105.735,110.039c-0.269-0.504-0.453-0.94-0.551-1.311c-0.102-0.369-0.151-0.807-0.151-1.311
		c0-0.167,0.009-0.336,0.024-0.504c0.014-0.17,0.066-0.318,0.153-0.454c0.083-0.134,0.217-0.235,0.402-0.302
		c0.182-0.068,0.427-0.051,0.733,0.05c0.199,0.067,0.401,0.194,0.602,0.377c0.203,0.187,0.396,0.422,0.582,0.706
		c0.183,0.285,0.337,0.564,0.451,0.832c0.119,0.271,0.212,0.488,0.278,0.656c0.775-0.604,1.616-1.218,2.523-1.842
		c0.91-0.619,1.873-1.174,2.896-1.662c1.026-0.486,2.071-0.883,3.125-1.186c1.062-0.303,2.079-0.454,3.05-0.454
		c0.34,0,0.739,0.034,1.216,0.102c0.469,0.068,0.913,0.185,1.331,0.353c0.421,0.168,0.777,0.396,1.062,0.682
		c0.282,0.286,0.425,0.646,0.425,1.084c0.104,0.807,0.012,1.621-0.274,2.443c-0.285,0.824-0.671,1.624-1.164,2.398
		c-0.482,0.771-1.037,1.529-1.661,2.268c-0.623,0.74-1.244,1.445-1.864,2.117s-1.193,1.295-1.715,1.865
		c-0.522,0.57-0.914,1.076-1.184,1.514c1.378-0.909,2.866-1.572,4.46-1.992c1.6-0.421,3.203-0.63,4.816-0.63
		c0.507,0,1.048,0.024,1.64,0.075c0.589,0.051,1.133,0.176,1.642,0.378c0.5,0.202,0.918,0.488,1.257,0.857
		c0.335,0.368,0.504,0.891,0.504,1.563c0,0.674-0.311,1.606-0.932,2.798c-0.627,1.194-1.429,2.506-2.421,3.934
		c-0.994,1.43-2.087,2.874-3.279,4.337c-1.194,1.46-2.344,2.791-3.452,3.981c-1.112,1.193-2.112,2.168-3.004,2.925
		c-0.888,0.757-1.52,1.135-1.888,1.135l-1.308-0.604c0.165-0.639,0.585-1.395,1.257-2.27c0.674-0.872,1.473-1.781,2.396-2.723
		c0.925-0.94,1.917-1.932,2.975-2.974c1.059-1.043,2.058-2.05,2.999-3.026c0.944-0.974,1.765-1.924,2.47-2.849
		c0.708-0.924,1.171-1.766,1.388-2.521c0.219-0.754,0.13-1.394-0.279-1.916c-0.401-0.521-1.226-0.915-2.471-1.185
		c-1.307,0-2.687,0.229-4.133,0.68c-1.445,0.455-2.823,1.104-4.134,1.943c-1.31,0.84-2.477,1.841-3.504,2.999
		c-1.027,1.161-1.771,2.463-2.243,3.907c0,0.941,0.074,1.866,0.225,2.773c0.151,0.908,0.314,1.808,0.482,2.697
		c0.167,0.891,0.329,1.791,0.478,2.697c0.15,0.907,0.224,1.815,0.224,2.725c0,0.67-0.049,1.227-0.15,1.664
		c-0.098,0.436-0.519,0.654-1.258,0.654c-0.069,0-0.176-0.007-0.329-0.025c-0.149-0.018-0.226-0.043-0.226-0.074L105.735,110.039z
		 M108.963,113.215c0,1.246,0.086,2.564,0.256,3.959c0.164,1.395,0.499,2.682,1.006,3.857c0.5-0.438,1.132-1.017,1.89-1.738
		c0.756-0.725,1.545-1.506,2.371-2.346c0.822-0.839,1.629-1.73,2.42-2.673c0.787-0.941,1.512-1.848,2.166-2.723
		c0.653-0.872,1.179-1.688,1.563-2.443c0.387-0.757,0.581-1.388,0.581-1.893c0-0.403-0.124-0.672-0.379-0.806
		c-0.251-0.135-0.543-0.202-0.883-0.202c-0.806,0-1.84,0.168-3.1,0.504c-1.258,0.337-2.47,0.807-3.629,1.411
		c-1.162,0.605-2.16,1.336-3.001,2.195C109.383,111.174,108.963,112.142,108.963,113.215z"/>
	<path fill="#FFFFFF" d="M137.1,141.597c-0.541,0-0.977-0.047-1.345-0.135c-0.474-0.122-0.947-0.418-1.437-0.911l-0.334-0.813
		c0-2.759,0.015-5.462,0.046-8.03c0.034-2.58,0.017-5.195-0.046-7.772c-0.073-2.574-0.208-5.174-0.404-7.73
		c-0.2-2.578-0.501-5.222-0.897-7.858c0,0-0.033-0.084-0.051-0.136c-0.097-0.227-0.185-0.474-0.263-0.726
		c-0.06-0.189-0.113-0.352-0.17-0.492c-0.128-0.322-0.187-0.555-0.187-0.784c0-0.354,0.1-0.722,0.301-1.124
		c0.159-0.313,0.363-0.621,0.604-0.908c0.271-0.316,0.585-0.582,0.94-0.785c0.362-0.205,0.742-0.313,1.136-0.313
		c0.101,0,0.2,0.008,0.302,0.022l0.119,0.022c0.689,0.172,1.27,0.609,1.679,1.263c0.309,0.493,0.548,1.045,0.715,1.642
		c0.089,0.315,0.156,0.63,0.214,0.944c0.604-0.312,1.248-0.634,1.92-0.964c1.285-0.634,2.621-1.227,3.973-1.756
		c1.361-0.533,2.745-0.988,4.109-1.352c1.417-0.377,2.782-0.568,4.052-0.568l1.151,1.152c0,0.48-0.099,0.925-0.297,1.322
		c-0.235,0.466-0.637,0.842-1.197,1.121l-13.532,6.79v1.206c0.032,0.384,0.074,1.017,0.122,1.901
		c0.053,0.903,0.111,1.865,0.178,2.886c0.068,1.031,0.125,2.011,0.176,2.938c0.003,0.02,0.003,0.039,0.006,0.062l8.607-4.808
		l0.115-0.137c0.25-0.299,0.566-0.564,0.934-0.797c0.427-0.27,0.89-0.42,1.373-0.449l0.104-0.002c0.453,0,1.117,0.173,1.724,1.001
		l0.225,0.682c0,0.929-0.427,1.808-1.269,2.601c-0.657,0.621-1.479,1.245-2.448,1.855c-0.929,0.583-1.951,1.16-3.042,1.715
		c-1.043,0.527-2.018,1.049-2.909,1.541c-0.843,0.466-1.543,0.934-2.093,1.391c-0.438,0.367-0.493,0.559-0.498,0.561l0.005,8.498
		c0.079-0.025,0.165-0.058,0.256-0.094c0.737-0.297,1.573-0.723,2.5-1.264c0.939-0.551,1.924-1.201,2.929-1.932
		c1.037-0.75,2.071-1.48,3.079-2.162c1.001-0.677,1.943-1.294,2.807-1.837c1-0.623,1.832-0.99,2.558-1.117l0.201-0.019
		c0.51,0,0.989,0.109,1.42,0.322c0.662,0.334,1.04,1.003,1.04,1.84c0,0.485-0.168,1.381-1.296,1.965
		c-1.133,0.682-2.468,1.553-3.963,2.588c-1.575,1.089-3.146,2.16-4.68,3.188c-1.595,1.068-3.191,2.051-4.74,2.92
		c-1.638,0.92-3.031,1.509-4.254,1.803L137.1,141.597z"/>
	<path fill="#FFFFFF" d="M135.133,139.737c0-2.723,0.014-5.395,0.051-8.018c0.033-2.62,0.015-5.225-0.051-7.813
		s-0.202-5.187-0.402-7.791c-0.201-2.604-0.505-5.252-0.907-7.939c0-0.068-0.047-0.203-0.127-0.404
		c-0.085-0.203-0.161-0.412-0.229-0.63c-0.065-0.22-0.13-0.411-0.201-0.581c-0.066-0.166-0.1-0.285-0.1-0.353
		c0-0.167,0.06-0.37,0.176-0.605c0.117-0.234,0.269-0.461,0.454-0.681c0.187-0.218,0.394-0.396,0.629-0.529
		c0.238-0.135,0.471-0.184,0.707-0.152c0.404,0.102,0.731,0.354,0.987,0.757c0.25,0.404,0.441,0.851,0.574,1.336
		c0.137,0.489,0.229,0.968,0.278,1.438c0.05,0.471,0.075,0.807,0.075,1.008c1.011-0.537,2.146-1.117,3.407-1.739
		c1.259-0.622,2.553-1.192,3.881-1.716c1.328-0.521,2.654-0.956,3.984-1.31c1.326-0.353,2.574-0.53,3.756-0.53
		c0,0.303-0.063,0.572-0.177,0.807c-0.118,0.235-0.346,0.439-0.682,0.605l-14.169,7.111v1.964c0.035,0.37,0.08,1.009,0.13,1.916
		c0.048,0.909,0.104,1.875,0.174,2.899c0.064,1.027,0.124,2,0.177,2.925c0.05,0.925,0.091,1.556,0.125,1.892l10.386-5.799
		l0.253-0.304c0.167-0.2,0.384-0.386,0.658-0.554c0.264-0.167,0.541-0.26,0.827-0.275c0.288-0.018,0.564,0.158,0.833,0.528
		c0,0.604-0.304,1.194-0.908,1.765c-0.604,0.573-1.359,1.143-2.272,1.715c-0.902,0.57-1.888,1.126-2.947,1.662
		c-1.056,0.537-2.04,1.06-2.948,1.564c-0.909,0.503-1.665,1.008-2.27,1.512c-0.602,0.504-0.906,0.975-0.906,1.412v9.731
		c0.433,0.167,1.05,0.093,1.839-0.228c0.791-0.32,1.672-0.764,2.647-1.336c0.977-0.57,1.984-1.236,3.024-1.993
		c1.043-0.755,2.061-1.469,3.051-2.142c0.992-0.672,1.918-1.275,2.775-1.814c0.857-0.537,1.569-0.855,2.144-0.957
		c0.335,0,0.635,0.066,0.904,0.2c0.271,0.135,0.405,0.404,0.405,0.808c0,0.402-0.236,0.723-0.705,0.957
		c-1.179,0.705-2.531,1.588-4.059,2.646c-1.532,1.059-3.085,2.119-4.664,3.177c-1.579,1.06-3.134,2.019-4.666,2.874
		c-1.529,0.857-2.847,1.42-3.958,1.69c-0.44,0-0.788-0.033-1.06-0.102C135.77,140.275,135.47,140.072,135.133,139.737z"/>
	<path fill="#FFFFFF" d="M163.015,141.193c-0.592,0-1.131-0.211-1.561-0.607c-0.377-0.35-0.768-1.008-0.467-2.174
		c0.219-0.979,1.222-1.475,1.959-1.764c0.801-0.313,1.8-0.646,2.971-0.991l3.783-1.11c1.342-0.391,2.65-0.838,3.883-1.328
		c1.212-0.477,2.338-1.024,3.336-1.627c0.654-0.395,1.178-0.832,1.572-1.303c-0.017-0.006-0.033-0.015-0.055-0.022
		c-0.576-0.235-1.371-0.438-2.378-0.611c-1.054-0.178-2.275-0.325-3.634-0.442c-1.418-0.117-2.886-0.29-4.361-0.513
		c-1.482-0.222-2.953-0.498-4.373-0.822c-1.491-0.342-2.843-0.834-4.019-1.47c-1.243-0.67-2.257-1.539-3.012-2.584
		c-0.797-1.104-1.2-2.451-1.2-4.003c0-1.466,0.323-2.938,0.956-4.373c0.604-1.375,1.429-2.724,2.443-4.008
		c1.002-1.263,2.156-2.453,3.436-3.541c1.279-1.083,2.633-2.04,4.03-2.842c1.409-0.81,2.829-1.453,4.221-1.911
		c1.438-0.473,2.808-0.713,4.069-0.713c0.284,0,0.578-0.008,0.898-0.024c0.107-0.005,0.205-0.007,0.299-0.007
		c0.313,0,0.605,0.027,0.868,0.078c0.509,0.102,0.948,0.367,1.284,0.766c0.352,0.422,0.521,0.974,0.521,1.65
		c0,1.723-0.801,2.611-1.474,3.055c-0.829,0.545-1.819,0.82-2.952,0.82l-0.674-0.217l-1.639-1.174
		c-0.511,0.055-1.087,0.231-1.71,0.524c-0.847,0.401-1.729,0.944-2.623,1.618c-0.906,0.686-1.804,1.486-2.661,2.376
		c-0.862,0.892-1.626,1.825-2.271,2.774c-0.645,0.938-1.166,1.889-1.552,2.816c-0.359,0.86-0.544,1.628-0.544,2.28
		c0,0.886,0.224,1.567,0.686,2.075c0.531,0.585,1.266,1.059,2.181,1.413c1.005,0.388,2.183,0.678,3.506,0.868
		c1.399,0.197,2.819,0.366,4.231,0.496c1.438,0.135,2.865,0.261,4.277,0.377c1.478,0.123,2.809,0.351,3.966,0.668
		c1.232,0.341,2.245,0.816,3.016,1.408c0.853,0.655,1.339,1.568,1.421,2.654c0.31,0.623,0.485,1.632-0.446,2.861
		c-0.616,0.811-1.507,1.578-2.726,2.348c-1.135,0.717-2.486,1.436-4.016,2.139c-1.523,0.702-3.109,1.343-4.713,1.906
		c-1.611,0.566-3.186,1.052-4.678,1.439c-1.533,0.4-2.867,0.658-3.964,0.764L163.015,141.193z"/>
	<path fill="#FFFFFF" d="M162.106,138.68c0.066-0.337,0.49-0.658,1.262-0.958c0.775-0.304,1.734-0.624,2.875-0.96
		c1.144-0.335,2.4-0.705,3.781-1.107c1.377-0.404,2.707-0.857,3.984-1.362c1.274-0.503,2.443-1.075,3.504-1.714
		c1.06-0.638,1.84-1.378,2.346-2.219c0-0.504-0.33-0.891-0.983-1.159c-0.657-0.271-1.532-0.495-2.622-0.681
		c-1.096-0.183-2.338-0.336-3.732-0.455c-1.396-0.117-2.824-0.285-4.283-0.504c-1.465-0.218-2.895-0.486-4.291-0.807
		c-1.392-0.318-2.637-0.773-3.727-1.359c-1.095-0.59-1.97-1.338-2.627-2.245c-0.653-0.907-0.981-2.018-0.981-3.328
		c0-1.312,0.285-2.613,0.861-3.907c0.566-1.293,1.334-2.547,2.292-3.758c0.957-1.209,2.047-2.335,3.277-3.377
		c1.227-1.043,2.511-1.949,3.856-2.722c1.345-0.774,2.681-1.38,4.011-1.817c1.325-0.435,2.559-0.652,3.706-0.652
		c0.303,0,0.621-0.012,0.958-0.027c0.334-0.016,0.627,0,0.88,0.05c0.253,0.052,0.463,0.177,0.63,0.379
		c0.17,0.202,0.255,0.504,0.255,0.907c0,0.976-0.32,1.672-0.959,2.093s-1.412,0.63-2.318,0.63l-1.971-1.411
		c-0.77,0-1.619,0.22-2.543,0.656s-1.868,1.017-2.823,1.74c-0.959,0.723-1.892,1.554-2.799,2.493
		c-0.909,0.942-1.706,1.917-2.395,2.926c-0.69,1.01-1.246,2.016-1.663,3.025c-0.421,1.009-0.632,1.916-0.632,2.722
		c0,1.176,0.33,2.126,0.986,2.85c0.651,0.723,1.528,1.294,2.621,1.714c1.092,0.422,2.34,0.731,3.756,0.933
		c1.414,0.202,2.84,0.37,4.284,0.506c1.444,0.133,2.876,0.26,4.286,0.379c1.411,0.116,2.664,0.325,3.758,0.628
		c1.09,0.303,1.965,0.706,2.622,1.21c0.654,0.505,0.981,1.194,0.981,2.067c0.372,0.537,0.293,1.151-0.223,1.842
		c-0.528,0.688-1.33,1.377-2.424,2.066c-1.092,0.689-2.385,1.379-3.883,2.065c-1.495,0.689-3.034,1.313-4.611,1.868
		c-1.584,0.555-3.113,1.024-4.59,1.412c-1.48,0.386-2.738,0.63-3.783,0.73c-0.3,0-0.56-0.101-0.781-0.304
		C162.015,139.537,161.977,139.183,162.106,138.68z"/>
	<path fill="#FFFFFF" d="M203.714,142.252c-0.385,0-0.846-0.02-1.407-0.059l-1.029-0.842c-0.376-1.357-0.714-2.975-0.997-4.809
		c-0.281-1.802-0.532-3.757-0.756-5.811c-0.22-2.051-0.436-4.189-0.637-6.355c-0.207-2.18-0.398-4.342-0.584-6.485
		c-0.182-2.104-0.385-4.162-0.606-6.114c-0.169-1.538-0.372-2.978-0.596-4.291h-0.026c-1.109,0-2.238,0.105-3.366,0.312
		c-1.177,0.219-2.359,0.468-3.515,0.737c-1.205,0.283-2.415,0.536-3.598,0.758c-1.244,0.233-2.525,0.352-3.805,0.352
		c-0.461,0-0.931-0.057-1.404-0.17c-0.342-0.082-1.466-0.473-1.466-2.089c0-0.642,0.245-1.265,0.728-1.86
		c0.637-0.789,1.332-1.011,1.803-1.059l14.015-2.04c0.085-0.347,0.2-0.698,0.344-1.044c0.183-0.443,0.435-0.838,0.743-1.174
		c0.442-0.479,1.004-0.73,1.625-0.73c0.723,0,1.331,0.207,1.801,0.611c0.332,0.285,0.621,0.614,0.868,0.977l0.382,0.572h0.1
		c0.367-0.038,0.933-0.1,1.701-0.188c0.813-0.093,1.749-0.194,2.808-0.305c1.046-0.112,2.161-0.23,3.341-0.36
		c1.188-0.131,2.326-0.241,3.405-0.333c1.037-0.09,1.979-0.184,2.788-0.275c0.966-0.109,1.449-0.188,1.676-0.233l0.229-0.022
		c0.104,0,0.354-0.01,0.75-0.026c0.45-0.02,0.771-0.03,0.965-0.03l1.152,1.153c0,0.774-0.293,1.878-1.688,2.729
		c-0.848,0.516-1.915,0.949-3.178,1.29c-1.211,0.327-2.568,0.579-4.044,0.752c-1.419,0.165-2.829,0.307-4.188,0.418
		c-1.356,0.112-2.599,0.206-3.727,0.278c-0.597,0.039-1.11,0.084-1.544,0.133c-0.084,2.265-0.005,4.641,0.23,7.076
		c0.273,2.799,0.627,5.665,1.048,8.523c0.423,2.885,0.825,5.777,1.193,8.602c0.366,2.82,0.552,5.555,0.563,8.13
		c0.151,0.577,0.215,1.054,0.188,1.45c-0.053,0.904-0.557,1.34-0.855,1.521C204.765,142.145,204.303,142.252,203.714,142.252z"/>
	<path fill="#FFFFFF" d="M197.075,106.333c-1.182,0-2.373,0.11-3.574,0.333c-1.199,0.221-2.389,0.471-3.568,0.746
		c-1.181,0.277-2.365,0.527-3.547,0.748c-1.18,0.222-2.379,0.334-3.594,0.334c-0.373,0-0.748-0.048-1.138-0.141
		c-0.388-0.092-0.579-0.414-0.579-0.968c0-0.37,0.154-0.748,0.472-1.138c0.312-0.387,0.652-0.598,1.022-0.635l14.836-2.158
		c0.033-0.147,0.091-0.378,0.167-0.692c0.073-0.313,0.175-0.627,0.303-0.94c0.13-0.313,0.306-0.592,0.525-0.83
		c0.226-0.241,0.479-0.361,0.778-0.361c0.44,0,0.793,0.109,1.051,0.334c0.256,0.22,0.478,0.469,0.663,0.746
		c0.185,0.276,0.351,0.525,0.499,0.747c0.147,0.223,0.332,0.333,0.555,0.333h0.439c0.371-0.037,0.961-0.103,1.772-0.193
		c0.812-0.093,1.745-0.195,2.794-0.305c1.056-0.111,2.171-0.231,3.353-0.359c1.18-0.13,2.31-0.24,3.378-0.333
		c1.069-0.092,2.01-0.185,2.823-0.276c0.81-0.094,1.401-0.176,1.771-0.251c0.113,0,0.378-0.009,0.801-0.026
		c0.424-0.018,0.73-0.028,0.914-0.028c0,0.702-0.379,1.283-1.135,1.744c-0.756,0.462-1.715,0.848-2.877,1.161
		c-1.164,0.316-2.456,0.555-3.878,0.721c-1.42,0.167-2.804,0.305-4.147,0.414c-1.352,0.113-2.588,0.205-3.711,0.279
		c-1.127,0.073-1.984,0.165-2.572,0.275c-0.154,2.621-0.086,5.353,0.19,8.193c0.278,2.843,0.628,5.701,1.054,8.581
		c0.422,2.879,0.818,5.739,1.191,8.579c0.365,2.844,0.551,5.557,0.551,8.14c0.148,0.518,0.213,0.922,0.191,1.217
		c-0.017,0.296-0.119,0.5-0.303,0.609c-0.184,0.111-0.463,0.168-0.832,0.168c-0.367,0-0.811-0.021-1.328-0.057
		c-0.367-1.329-0.689-2.888-0.969-4.679c-0.273-1.789-0.524-3.709-0.746-5.758c-0.219-2.047-0.434-4.159-0.637-6.338
		c-0.203-2.178-0.397-4.336-0.582-6.477c-0.184-2.141-0.387-4.188-0.605-6.146c-0.221-1.955-0.48-3.726-0.778-5.313H197.075z"/>
</g>
<path fill="none" stroke="#FFFFFF" stroke-width="3" stroke-miterlimit="10" d="M146.707,160.444"/>
</svg>
