<?xml version="1.0" encoding="utf-8"?>
<!-- Generator: Adobe Illustrator 16.0.0, SVG Export Plug-In . SVG Version: 6.00 Build 0)  -->
<!DOCTYPE svg PUBLIC "-//W3C//DTD SVG 1.0//EN" "http://www.w3.org/TR/2001/REC-SVG-20010904/DTD/svg10.dtd">
<svg version="1.0" id="Layer_1" xmlns="http://www.w3.org/2000/svg" xmlns:xlink="http://www.w3.org/1999/xlink" x="0px" y="0px"
	 width="99.646px" height="147.871px" viewBox="0 0 99.646 147.871" enable-background="new 0 0 99.646 147.871"
	 xml:space="preserve">
<g>
	<g>
		<g>
			<g>
				<g>
					<g>
						<path fill="#2C2C2C" d="M56.753,148.468c-0.113,0.231,0.312,0.28,0.371,0.341C57.167,148.371,56.646,148.443,56.753,148.468z"
							/>
						<polygon fill="#2C2C2C" points="57.138,144.17 57.278,144.292 57.067,143.579 						"/>
						<path fill="#2C2C2C" d="M58.281,140.421c-0.791,0.155-0.262,1.403-0.717,1.997l-0.19,0.063l0.452,0.467
							C58.017,142.116,57.919,140.938,58.281,140.421z"/>
						<path fill="#2C2C2C" d="M60.333,138.819c-0.303,0.052-0.107-0.502-0.216,0.451c0.042-0.038,0.063-0.046,0.092-0.067
							C60.228,139.12,60.26,139.007,60.333,138.819z"/>
						<path fill="#2C2C2C" d="M60.208,139.203C60.115,139.609,60.507,139.003,60.208,139.203L60.208,139.203z"/>
						<path fill="#2C2C2C" d="M60.574,137.309l0.092,0.593c0.189-0.067,0.357-0.529,0.423-0.324
							C61.11,137,60.92,137.071,60.574,137.309z"/>
						<path fill="#2C2C2C" d="M60.21,136.676l0.025,0.299C60.315,136.946,60.359,136.879,60.21,136.676z"/>
						<path fill="#2C2C2C" d="M60.287,137.612l-0.052-0.637c-0.133,0.047-0.358-0.004,0.003,0.287
							C60.047,137.16,60.212,137.327,60.287,137.612z"/>
						<path fill="#2C2C2C" d="M60.09,137.912c-0.233,0.255-0.434,0.61-0.524,0.018C59.379,138.96,59.904,138.947,60.09,137.912z"/>
						<path fill="#2C2C2C" d="M57.625,140.024l-0.31,0.333l0.135,0.405C57.383,140.56,57.847,140.063,57.625,140.024z"/>
						<path fill="#2C2C2C" d="M61.767,134.085c-0.139-0.069-0.436,0.083-0.634,0.077l0.075,0.435
							C61.357,134.419,61.542,134.059,61.767,134.085z"/>
						<path fill="#2C2C2C" d="M61.133,134.162l-0.112-0.65C60.865,134.029,60.962,134.155,61.133,134.162z"/>
						<polygon fill="#2C2C2C" points="59.47,136.381 59.732,137.474 59.514,136.196 						"/>
						<polygon fill="#2C2C2C" points="62.326,131.833 62.588,132.247 62.213,131.531 						"/>
						<path fill="#2C2C2C" d="M62.624,130.323c0.225,0.311,0.563-0.234,0.675,0.066c0.037-0.422-0.141-0.827-0.297-1.188
							C63.055,129.561,62.96,129.915,62.624,130.323z"/>
						<path fill="#2C2C2C" d="M62.787,128.604c0.035,0.182,0.123,0.38,0.215,0.597C62.972,129.008,62.912,128.813,62.787,128.604z"
							/>
						<path fill="#2C2C2C" d="M61.333,132.527c0.1-0.024,0.355-0.057,0.533-0.364l-0.472,0.134
							C61.376,132.368,61.355,132.447,61.333,132.527z"/>
						<path fill="#2C2C2C" d="M61.38,132.302l0.015-0.005c0.072-0.248,0.122-0.42,0.143-0.494
							C61.518,131.866,61.47,132.016,61.38,132.302z"/>
						<path fill="#2C2C2C" d="M61.317,132.585c0.006-0.021,0.01-0.037,0.016-0.058C61.288,132.54,61.27,132.55,61.317,132.585z"/>
						<path fill="#2C2C2C" d="M60.228,134.947c-0.149-0.403-0.226-1.18-0.746-0.576C59.707,134.688,60.003,134.341,60.228,134.947z"
							/>
						<path fill="#2C2C2C" d="M60.729,132.749l-0.244,0.599c0.113,0.015,0.3-0.059,0.374,0.14L60.729,132.749z"/>
						<polygon fill="#2C2C2C" points="60.67,132.413 60.729,132.749 60.82,132.526 						"/>
						<path fill="#2C2C2C" d="M62.18,129.602c-0.127-0.312-0.083-0.612-0.046-0.955c-0.154,0.343-0.272,0.705-0.342,1.059
							C61.914,129.785,62.118,129.992,62.18,129.602z"/>
						<path fill="#2C2C2C" d="M61.763,130.909l-0.01-0.065C61.709,130.872,61.691,130.899,61.763,130.909z"/>
						<polygon fill="#2C2C2C" points="62.797,125.339 62.709,125.377 62.78,125.403 						"/>
						<path fill="#2C2C2C" d="M61.703,129.75c-0.131,0.253-0.076,0.434,0.019,0.616c0.006-0.21,0.032-0.428,0.071-0.659
							C61.737,129.671,61.699,129.658,61.703,129.75z"/>
						<path fill="#2C2C2C" d="M62.776,127.637c-0.116,0.124-0.222,0.269-0.324,0.422C62.612,127.949,62.875,127.709,62.776,127.637z
							"/>
						<path fill="#2C2C2C" d="M61.891,130.779c0.003,0.015,0.008,0.029,0.009,0.044C62.01,130.755,61.964,130.756,61.891,130.779z"
							/>
						<path fill="#2C2C2C" d="M61.891,130.779c-0.027-0.152-0.104-0.284-0.169-0.413c-0.006,0.171,0.002,0.333,0.032,0.478
							C61.791,130.816,61.844,130.793,61.891,130.779z"/>
						<path fill="#2C2C2C" d="M60.297,123.844c0.38,0.117,0.6,0.888,0.062,1.415c0.173,0.651,1.529,0.513,2.35,0.119
							c-0.166-0.051-0.323-0.082-0.429-0.744c-0.256,0.179-0.771,1.279-1.019,0.691c-0.038-0.854,0.271-0.643,0.557-1.003
							c-0.552,0.248-0.499-1.167-1.256-1.117l0.116,0.758C60.564,123.955,60.438,123.665,60.297,123.844z"/>
						<path fill="#2C2C2C" d="M62.434,126.555l-0.003,0.266c0.126-0.279,0.323-0.457,0.704-0.784
							c-0.104-0.464-0.231-0.579-0.355-0.633l-0.306,1.25L62.434,126.555z"/>
						<path fill="#2C2C2C" d="M62.204,127.97c-0.382-0.287-0.44-0.935-0.971-0.653c-0.12,0.752,0.248,0.596,0.342,1.081
							c0.137-1.23,0.166,0.396,0.58-0.428c0.024,0.253,0.003,0.472-0.02,0.678c0.095-0.208,0.2-0.405,0.318-0.588l-0.032,0.022
							l0,0.006l-0.006-0.003c-0.063,0.042-0.099,0.052-0.056,0c-0.005-0.005-0.004-0.02-0.004-0.027
							c-0.057-0.021-0.104-0.054-0.148-0.088c0.157-0.333,0.121-0.033,0.148,0.088c0.02,0.008,0.038,0.021,0.06,0.027l0.006-0.003
							l0.011-1.262C62.321,127.065,62.269,127.389,62.204,127.97z"/>
						<path fill="#2C2C2C" d="M58.735,133.512c0.045-0.027,0.075-0.019,0.106-0.014C58.808,133.409,58.78,133.371,58.735,133.512z"
							/>
						<path fill="#2C2C2C" d="M59.105,133.085c0.037,0.101,0.188,0.214,0.077,0.485c-0.185,0.213-0.201-0.051-0.341-0.072
							c0.071,0.196,0.158,0.668,0.489,0.186l-0.037-0.098c0.258-0.444,0.93-0.938,0.967-0.84
							C59.85,132.796,59.551,132.856,59.105,133.085z"/>
						<path fill="#2C2C2C" d="M60.59,130.494c0,0,0.008-0.261,0.016-0.521c0.012-0.259,0.006-0.522,0.006-0.522
							s-0.117,0.108-0.233,0.216c-0.122,0.106-0.243,0.213-0.243,0.213l0.225,0.022C60.14,130.447,60.438,130.385,60.59,130.494z"/>
						<polygon fill="#2C2C2C" points="63.03,125.263 63.451,125.481 62.936,124.777 						"/>
						<polygon fill="#2C2C2C" points="63.238,123.937 63.618,124.055 63.444,123.664 						"/>
						<path fill="#2C2C2C" d="M52.116,51.148l-0.219-0.225C51.983,51.037,52.053,51.104,52.116,51.148z"/>
						<path fill="#2C2C2C" d="M52.893,53.111l0.2-0.022C52.958,53.036,52.871,53.027,52.893,53.111z"/>
						<path fill="#2C2C2C" d="M65.496,91.09c0.35-0.458,0.901-0.982,0.459-0.907l-0.427,0.157
							C65.618,90.645,65.58,90.885,65.496,91.09z"/>
						<path fill="#2C2C2C" d="M60.121,69.204c-0.033,0.049-0.067,0.101-0.102,0.152c0.168,0.071,0.325,0.138,0.468,0.199
							C60.376,69.449,60.251,69.33,60.121,69.204z"/>
						<path fill="#2C2C2C" d="M58.302,69.292l0.152-0.613C58.387,68.825,58.334,69.023,58.302,69.292z"/>
						<path fill="#2C2C2C" d="M46.652,41.039l-0.547-0.075C46.363,41.422,46.443,41.11,46.652,41.039z"/>
						<path fill="#2C2C2C" d="M64.901,110.297c0.199-0.365,0.293-0.662,0.335-0.927C64.953,109.809,64.551,110.144,64.901,110.297z"
							/>
						<path fill="#2C2C2C" d="M56.708,50.174c-0.146-0.142-0.26-0.182-0.347-0.14C56.505,50.182,56.625,50.25,56.708,50.174z"/>
						<path fill="#2C2C2C" d="M65.323,108.271c-0.048,0.064-0.076,0.128-0.118,0.193c0.05,0.284,0.086,0.569,0.032,0.907
							C65.449,109.047,65.594,108.667,65.323,108.271z"/>
						<path fill="#2C2C2C" d="M18.21,11.726c-0.017-0.032-0.044-0.058-0.057-0.091C18.117,11.681,18.152,11.705,18.21,11.726z"/>
						<path fill="#2C2C2C" d="M8.627,2.718c0.129,0.013,0.325,0.076,0.512,0.13C9.059,2.791,8.907,2.745,8.627,2.718z"/>
						<path fill="#2C2C2C" d="M64.277,118.63C64.261,118.916,64.318,118.682,64.277,118.63L64.277,118.63z"/>
						<path fill="#2C2C2C" d="M62.364,119.739c-0.039-0.066-0.093-0.121-0.19-0.143C62.273,119.635,62.333,119.684,62.364,119.739z"
							/>
						<path fill="#2C2C2C" d="M62.843,105.283l0.002-0.024C62.758,105.337,62.774,105.324,62.843,105.283z"/>
						<path fill="#2C2C2C" d="M64.015,119.025c0.069-0.098,0.133-0.213,0.185-0.341C64.157,118.738,64.098,118.841,64.015,119.025z"
							/>
						<path fill="#2C2C2C" d="M64.227,118.999c-0.032,0.095-0.057,0.169-0.081,0.24C64.212,119.284,64.262,119.26,64.227,118.999z"
							/>
						<path fill="#2C2C2C" d="M64.316,118.235c-0.019,0.162-0.063,0.309-0.117,0.449c0.038-0.051,0.065-0.071,0.078-0.054
							C64.286,118.547,64.297,118.43,64.316,118.235z"/>
						<path fill="#2C2C2C" d="M36.447,24.531c-0.002-0.022-0.01-0.044-0.01-0.072C36.119,24.377,36.222,24.447,36.447,24.531z"/>
						<path fill="#2C2C2C" d="M60.512,84.112c0.005,0.013,0.017,0.018,0.023,0.029l0.012-0.042L60.512,84.112z"/>
						<path fill="#2C2C2C" d="M60.106,83.158c0.573,0.364,0.527,0.612,0.44,0.941l1.217-0.449L60.106,83.158z"/>
						<path fill="#2C2C2C" d="M49.937,46.591l-0.048,0.783c-0.945-0.467-1.006-1.092-1.219-0.282
							c0.633-0.252,0.958,0.33,1.283,0.911c0.313,0.587,0.593,1.191,1.236,0.957l-0.082,0.533c-0.04-0.125-0.121-0.111-0.159-0.235
							c-0.248,1.07,1.158,0.208,1.434,1.338c0.062,0.407-0.011,0.737-0.267,0.551l0.661,0.686c0.078,0.248-0.166,0.277-0.244,0.032
							c0,0,0.157,0.301,0.313,0.603c0.143,0.307,0.286,0.614,0.286,0.614l-0.041,0.005c0.266,0.103,0.726,0.396,0.932,0.547
							c-0.061,0.394-0.195-0.111-0.322,0.032l0.57,0.589c-0.223,0.411-0.759-0.053-0.893-0.556
							c-1.024,1.136,0.537,0.464,0.321,2.152l-0.408-0.601c-0.565,0.69-0.112,1.106-0.289,2.005
							c0.173-0.253,0.585-1.893,1.187-1.249c-0.017,0.25,0.042,0.547,0.454,0.869c-0.449,0.16-0.202,0.526-0.017,1.029l-0.617,0.17
							c0.349,0.49,0.645,0.344,1.022,0.579c0.136,0.636-0.295,0.915-0.647,1.185c0.215,1.01,0.541-0.919,1.027,0.208
							c0.018,0.895,0.479,1.381,1.121,2.271c-0.056,0.645-0.403,0.006-0.523,0.266l0.628,0.377c0.022,0.13-0.14,0.131-0.222,0.132
							c0.307,0.382,0.625-0.137,0.977,0.505c0.73,0.006-0.618,1.677,0.383,2.324c-0.12,0.254-0.407-0.005-0.63,0.12
							c0.825,1.035,0.634,0.904,1.536,1.713l-0.228,0.922c0.335-0.715,1.059-0.065,1.666,0.525c0.179-0.268,0.336-0.499,0.403-0.646
							l0.577,1.032c-0.073,0.155-0.313,0.089-0.614-0.035c0.069,0.064,0.135,0.125,0.195,0.17c-0.145,0.443-0.551,0.314-0.962,0.108
							c0.098-0.157,0.2-0.319,0.299-0.478c-0.439-0.189-0.914-0.347-1.268-0.21c0.087,0.055,0.179,0.177,0.247,0.319
							c-0.119-0.048-0.22-0.072-0.276-0.026c-0.058,0.051,0.105,0.134,0.304,0.277l-0.643,0.396l0.29,0l-0.126,1.505
							c0.926,0.869,2.085,1.579,2.671,3.177c-0.586-0.32-0.857,0.057-1.472,0.138c0.57-0.557-0.492-1.213-0.506-2.077
							c0.008,0.452-0.299,0.409-0.419,0.317l0.846,1.395c-0.505,0.053-0.319,0.384-0.458,0.81c0.937-0.463,0.852,1.011,1.261,1.578
							c-0.326,0.088-0.69-0.006-0.739-0.764c-0.606,0.937,1.359,0.884,0.822,1.798c-0.031-0.183,0.007-0.29-0.171-0.337
							c0.351,0.387,0.251,1.472-0.071,1.264l-0.03-0.182c0.039,1.234,0.467,3.705,1.337,3.801c-0.107,0.023-1.04-0.051-1.22-0.105
							c0,0,0.78,0.464,1.531,0.945c0.759,0.485,1.518,0.97,1.518,0.97c-0.743-0.125-2.414,0.772-2.91-0.204
							c-0.079,0.301-0.169,0.67,0.139,1.261c0.087-0.207,1.01-0.589,1.1-0.322c-0.747,0.819-0.389,0.559-1.002,1.533
							c0.131-0.31,1.301-0.068,1.305,0.411c-0.177-0.062-1.125,0.121-1.258-0.042l1.222,1.097c-0.229-0.281-0.953,0.011-1.253,0.292
							c0.214-0.135,0.022,1.015,0.147,1.321l0.239-0.512c-0.114,1.333,1.635,1.233,1.633,2.57c-0.239-0.154-1.445-0.339-1.558,0.334
							c0.575,0.282,2.857,1.276,3.292,2.469l-0.329,0.234l0.376,0.909c-0.867-0.568-2.683-2.116-3.451-2.938
							c-0.239,0.503-0.382,0.149-0.32,0.889c-0.297,0.269-0.485-0.391-0.513-0.607c0,0-0.031,0.431-0.063,0.861
							c-0.049,0.431-0.098,0.861-0.098,0.861c0.672-0.088,0.676,1.309,1.236,1.24l-0.699-1.869c0.671-0.094,1.909,1.055,1.792,2.298
							c-0.267,0.315-1.197-0.23-1.421-0.202c0.232,0.157,0.444,1.164,0.28,1.277l-0.36-0.521c-0.252,0.679,0.893,1.12,0.252,1.935
							c-0.041,0.284-0.864,0.829-0.475,0.886c0.785-0.444,3.144-0.501,3.724-0.174c-0.054,0.103-0.792,1.502-1.183,1.816
							c-0.619,0.451-1.405-0.75-1.937-0.364c0.183,0.022,0.399,0.288,0.467,0.398c-0.168,0.293-0.563-0.142-0.506,0.508
							c0.677,0.133-0.109,1.316,0.564,0.328c0.169,0.644-0.167,0.67-0.166,1.417c0.449-0.219,1.471,0.744,1.64,1.401
							c-0.172-0.048-0.403,0.084-0.508,0.147c-0.15,1.307-0.525,1.987-0.625,3.204c-0.173,0.1-0.419,0.669-0.691,0.395
							c0.106,0.185,0.324,0.364,0.311,0.741c-0.645,0.673-0.025-0.842-0.774-0.351c0.391,0.081,0.468,1.014,0.672,1.571
							c0.622-0.106,0.214-1.226,0.01-1.779c0.841,0.066,1.647,1.078,1.934,2.405c0.091,1.041-0.594,0.386-0.495,0.575
							c-0.374,1.889,1.27,1.794,0.476,3.317c-0.609,0.564-1.065-0.104-1.467-0.013c-0.104-0.849,0.49-1.225,0.536-1.789l-0.335,0.66
							c-0.146-0.284-0.216-0.848-0.025-1.13c-0.549,0.468-0.46,3.201-1.105,4.598c0.137,0.283,0.25,0.757,0.498,0.577l0-0.472
							c0.497-0.365,0.455,0.955,0.748,0.398c0.204,0.664,0.566,1.437,0.184,2.278l-0.632,0.069c0.18,0.01,0.452-0.516,0.307-0.791
							c0.21,0.409-1.033,1.21-0.304,1.739l0.517-0.546c0.205,0.674,0.723,1.562,0.407,2.311c0.653-0.252-0.04-0.191,0.747-0.628
							c-0.945,0.335,0.356-1.999-0.681-1.374c0.902-0.439,0.501-0.931,1.313-1.573c-0.204-0.007-0.424,0.207-0.221-0.437
							c-0.054-0.039-0.117-0.12-0.153-0.17c0.01-0.019,0.013-0.026,0.022-0.042l-0.029,0.033c-0.025-0.033-0.032-0.036-0.01,0.012
							c-0.112,0.144-0.238,0.255-0.357,0.29c-0.408-0.395-0.226-1.433-0.412-1.818c0.142-0.377,0.21,0.195,0.449,0.011l-0.292-0.578
							c0.451,0.009,0.864-0.942,1.014,0.017l0.119-0.831c0.309-0.458,0.489-1.124,0.351-1.562c0.143-0.383-0.376-1.05-0.067-0.667
							l-0.121-1.336l0.113,0c0.234-1.284-0.508-2.723,0.433-4.132c-0.079-0.444-0.181-0.904,0.003-1.623l0.399-0.116
							c-0.079-0.567,0.509-1.662,0.103-1.927c1.068-0.554,0.335-2.723,0.559-3.704l-0.506-0.051
							c0.052-0.679-0.049-1.335-0.266-2.181l-0.449,0.046c-0.369-0.727,0.316-1.86,0.269-3.011c0.172,0.077,0.127,0.369,0.024,0.575
							c1.011-1.387-0.726-2.882-0.066-4.139c-0.176-0.304-0.13-0.53-0.026-0.751c0.002,0.029,0.011,0.054,0.026,0.076
							c0.004-0.032,0.003-0.079,0-0.127c0.071-0.14,0.155-0.285,0.221-0.44c-0.104,0.134-0.188,0.262-0.225,0.372
							c-0.02-0.239-0.09-0.599-0.218-0.949l0.475-0.174c-0.006-0.029-0.011-0.051-0.018-0.082c0.163-0.358-0.24-0.269-0.593-0.066
							c-0.087-0.175-0.189-0.333-0.311-0.454c0.764-0.325-0.301-0.914,0.51-1.349c-0.394-0.215-0.446-1.762-1.303-1.885
							c0.109-0.02,0.153-0.128,0.176,0.062c0.064-0.399,0.127-0.801-0.142-1.133l0.596-0.218l-0.893-0.786
							c0.327-0.554,0.524-0.793,1.038-0.317c-0.834-1.184-0.344-0.995-1.177-1.978l0.4,0.008c-0.063-0.377-0.667-0.92-0.371-1.186
							c0.624-0.938-0.382-4.202-0.122-6.471c-1.077,0.616,0.34-1.097-0.564-1.028c0.25-0.174,0.351-0.505,0.647-0.195
							c-0.467-1.057,0.16-1.755-0.759-2.367c0.244-0.181,0.448,0.156,0.584,0.013c-0.078-0.077-0.312-0.303-0.175-0.451
							c0.136-0.145,0.262,0.116,0.418,0.267c-0.292-1.122-1.149-1.06-1.947-0.976c0.246-0.643,0.131-0.917-0.469-1.211
							c0.211-0.252,0.406-0.642,0.649,0.032c-0.048-0.397-0.151-2.478-0.781-2.366c0.129-0.16-0.097-0.551-0.195-0.635
							c-0.194-0.875-0.159-0.966-0.445-1.8l-0.038,0.262c-0.835-0.138-0.355-0.66-0.627-1.32l0.082-0.001
							c0.103-1.718-0.41-0.608-0.269-2.321l-0.433,0.22c-1.033,0.156,0.153-1.527-0.508-2.301l-0.159,0.403
							c-0.488-0.371,0.904-1.786,0.868-2.324c0.051-0.136,0.19,0.123,0.301,0.252c0.165-1.484-0.648,0.033-1.093-0.875
							c0.255-0.285,0.898-0.056,0.721-0.714c0.138-0.415-1.721-1.471-1.433-2.56c-0.173,0.284-0.347,0.563-0.692,0.197
							c-0.339-0.626,0.261-2.178-0.778-2.456c0.03-0.11,0.08-0.167,0.138-0.196c-0.412-0.422-1.026-1.494-1.564-1.616
							c0.661-0.56,0.139-1.263-0.368-1.89c-0.513-0.625-1.061-1.156-0.362-1.482l-0.815-1.472l0.159-0.03
							c-0.385-1.011-0.879-1.187-1.371-1.354c-0.017-0.27,0.189-0.174,0.27-0.192c-0.453-1.53-0.621-1.633-1.915-2.409l0.365-0.362
							c-0.431-0.156-0.401-2.395-1.759-3.383c0.056-0.017,0.155-0.041,0.28,0.027c-1.41-1.144-1.076-4.298-2.976-3.776l-1.026-0.672
							c0.739,1.276-0.766,0.275-0.661,0.938c-0.417-0.401-0.419-1.522,0.067-1.002l-0.009,0.143c0.917-0.336-0.79-1.68-0.253-2.03
							c-1.811-2.27-3.189-4.824-5.055-6.854l-0.326,0.729l-0.608-0.731c-0.043-0.301,0.19-0.641,0.628-0.116
							c0.06-0.549-1.023-0.608-1.149-0.51c-0.697-1.178,0.975-0.213,0.705-0.519l-0.419-0.371l0.027,0.148
							c-0.537-0.11-0.792,0.085-1.352-0.51c-0.267-0.464,0.128-0.505,0.002-0.668c0.037-0.036,0.004-0.102-0.21-0.234l-0.823-0.888
							l-0.055,0.753c-0.578-0.166-0.786-0.807-0.841,0.052c0.162-1.353-3.086-3.24-3.253-3.803
							c-0.831-0.167-1.379-0.646-2.085-1.219c0.107,0.231-0.188,0.821-0.759,0.292c1.045-0.89-0.787-1.32-0.728-2.481
							c0.089,0.846-1.9-1.201-1.699,0.067c-0.484-0.447,0.254-0.432,0.016-0.965c-0.803-0.216-1.474-0.756-2.167-1.362
							c-0.687-0.615-1.407-1.28-2.311-1.663c-0.115,0.137,0.03,0.528-0.462,0.551l-0.454-1.266
							c-0.379-0.115-0.801,0.714-1.115-0.164c0.015,0.178,0.036,0.446-0.213,0.37c-0.361-0.324-0.74-0.625-1.142-0.888
							c-0.411-0.245-0.837-0.466-1.272-0.674c-0.87-0.416-1.772-0.776-2.664-1.157c-0.896-0.374-1.819-0.68-2.681-1.137
							c-0.872-0.432-1.683-1.025-2.473-1.701c0.386,0.482,0.041,0.407-0.342,0.296C9.359,3.004,8.99,3.256,8.96,3.497l-1.32-1.12
							C7.159,2.917,5.979,1.89,5.638,2.445l0.516,0.046C5.303,3.001,6.56,4.364,6.17,5.245c0.963-0.568,1.43,1.75,2.945,1.02
							C9.292,6.545,8.8,6.471,8.855,6.732c0.419-0.274,0.792-0.218,1.354,0.204l-0.107,0.066c1.792,0.626,2.431,1.226,4.204,2.417
							l0.059-0.497c0.385,0.255,0.408,0.43,0.549,0.629c0.783-0.421-1.138-0.589-0.372-1.101c0.126,1.148,2.937,1.377,2.762,2.592
							c0.605,0.348,0.079-0.584,0.687-0.234l0.021,0.352l0.337-0.248c0.372,0.282,0.393,0.719,0.285,0.946
							c-0.082-0.081-0.309-0.093-0.422-0.133c0.343,0.595,1.51,0.714,1.631,0.914l-0.491-0.486c0.449,0.173,0.901,0.396,1.356,0.639
							c0.449,0.252,0.879,0.559,1.324,0.837c0.886,0.565,1.786,1.09,2.733,1.35l0.01-0.26c1.396,0.486,0.771,0.875,2.131,1.649
							l-0.078,0.008c0.383,0.009,0.786,0.172,1.112,0.449c-0.474-0.029,0.277,0.844-0.313,0.763c1.5,0.571,0.811,0.188,2.123,0.196
							l-0.058,0.439c0.479-0.031,0.615-0.147,1.274,0.292c-0.695-0.177,0.01,0.754-0.807,0.606c0.688,1.675,2.408,0.947,2.126,2.363
							c1.246-0.235-0.636-1.396-0.191-1.258c-0.039-0.487,0.991-0.161,1.282,0.292c0.365,0.388-0.26,1.58,0.687,2.474
							c-0.09-0.094-0.151-0.045-0.241-0.139c0.165,0.526,0.938,0.418,1.065,1.135c0.695-0.206,0.509,0.59,1.15,0.113
							c0,0-0.237-0.191-0.475-0.382c-0.249-0.178-0.498-0.357-0.498-0.357c0.649,0.315,1.738,0.179,2.181,1.324
							c-0.177,0.042-0.558-0.064-0.798-0.155c0.051,0.403,0.542,0.366,0.595,0.782c-0.65,0.465-1.11-0.973-2.042-1.088
							c0,0.483,1.343,0.622,0.475,0.939c1.151-0.355,0.759,1.041,1.972,1.137l-0.394,0.272c0.149,0.054,0.512,0.12,0.677,0.319
							l-0.775,0.063c0.873,0.185,0.588,1.304,1.217,1.66c-0.912-1.099,0.241-0.625,0.107-1.31c1.624,0.963-0.302,1.592,1.11,2.974
							c-0.219-0.165-0.407-0.959,0.026-0.772c0.161,0.355,0.331,0.856,0.279,1.188c0.897,0.956,0.258-0.457,0.838-0.203
							c-0.181,0.707,0.602,0.35,1.094,0.708l-0.383,0.293c0.623,1.406,1.039-0.275,1.528,1.054l-0.874-0.073l0.549,0.472
							l-0.53,0.203c0.774,0.383,0.83,0.642,1.138,1.337c0.178-0.335,0.777-0.418,1.181,0.12c0.019,0.537-0.509,0.036,0.057,0.795
							c-0.367-0.014-0.797-0.002-0.673-0.581c-0.154,0.054-0.372,0-0.525,0.053c0.022,0.571,0.622,1.051,0.805,1.337
							c-0.055-0.12-0.116-0.267-0.102-0.373l1.29,0.79c-0.037,0.28-0.251,0.213-0.461,0.148c0.191,0.205,0.481,0.248,0.734,0.57
							c-0.388,0.12-0.718,0.356-1.178-0.027l1.06,0.861c-0.098,0.164-0.044,0.805-0.257,0.739c0.201,0.706,1.558,1.115,1.758,2.104
							c0.09,0.005,0.202,0.056,0.35,0.206c0.361,0.83,0.326,1.743,1.314,2.42l-0.358,0.864c0.509,0.673,0.426-1.141,1.275-0.013
							c0.636,0.785-0.373,0.6-0.396,0.996c0.53,0.276,1.558,0.731,1.441,1.789C50.117,47.074,50.107,46.819,49.937,46.591z
							 M54.192,55.988c-0.166-0.154-0.598-0.42-0.382-0.655C54.409,55.357,54.223,55.615,54.192,55.988z M59.545,70.907
							c-0.188-0.115-0.161-0.358-0.039-0.653C59.586,70.433,59.615,70.648,59.545,70.907z M64.292,115.484
							c-0.007-0.01-0.012-0.017-0.021-0.025C64.513,115.022,64.42,115.176,64.292,115.484z M63.971,116.412
							c0.056,0.105,0.123,0.107,0.194,0.075c-0.113-0.083-0.096-0.298-0.032-0.538C63.999,116.001,63.897,116.113,63.971,116.412z
							 M36.671,20.12l0.047,0.222C36.315,20.143,36.488,20.136,36.671,20.12z"/>
						<path fill="#2C2C2C" d="M58.514,69.287c0.067-0.073,0.151-0.108,0.237-0.141C58.655,69.086,58.563,69.105,58.514,69.287z"/>
						<path fill="#2C2C2C" d="M46.753,41.053l-0.01-0.03c-0.033-0.001-0.063,0.006-0.091,0.016L46.753,41.053z"/>
						<path fill="#2C2C2C" d="M61.088,101.448c0.077-0.19,0.169-0.295,0.264-0.363C61.234,101.07,61.131,101.155,61.088,101.448z"/>
						<path fill="#2C2C2C" d="M64.029,121.579l-0.026-0.63c-0.023,0.299-0.145,0.388-0.244,0.524
							C63.873,121.478,64.052,121.387,64.029,121.579z"/>
						<path fill="#2C2C2C" d="M60.143,126.28c0.041,0.098-0.03,0.186,0.011,0.283l0.225,0.02
							C60.438,126.208,60.313,125.915,60.143,126.28z"/>
						<path fill="#2C2C2C" d="M62.358,121.88c-0.408-0.019-0.332,0.382-0.325,0.818c0.002-0.025,0.003-0.05,0.012-0.075
							C62.584,122.845,62.471,122.36,62.358,121.88z"/>
						<path fill="#2C2C2C" d="M62.03,122.798c-0.002,0.134-0.012,0.269-0.052,0.393C62.195,123.28,62.05,123.041,62.03,122.798z"/>
						<path fill="#2C2C2C" d="M64.093,117.659c-0.132,0.188,0.494,0.199,0.314,0.291C64.898,118.249,63.958,116.508,64.093,117.659z
							"/>
						<polygon fill="#2C2C2C" points="60.985,122 61.503,121.932 61.142,121.629 						"/>
						<path fill="#2C2C2C" d="M61.876,118.737l-0.244,0.652c0.085,0.002,0.12,0.095,0.141,0.206
							C61.855,119.183,62.026,118.743,61.876,118.737z"/>
						<path fill="#2C2C2C" d="M61.773,119.595c-0.044,0.214-0.066,0.421-0.004,0.554C61.782,120.031,61.806,119.777,61.773,119.595z
							"/>
						<polygon fill="#2C2C2C" points="60.983,121.058 61.118,120.876 61.229,120.408 						"/>
						<path fill="#2C2C2C" d="M62.891,111.482l-0.083-0.755c-0.165-0.091-0.286,0.101-0.239,0.382
							C62.676,111.299,62.714,111.58,62.891,111.482z"/>
						<path fill="#2C2C2C" d="M61.262,113.561c0.127-0.186,0.239-0.187,0.417-0.28l-0.614-0.091L61.262,113.561z"/>
						<path fill="#2C2C2C" d="M61.372,111.412c-0.156-0.09-0.405-1.111-0.438-0.18C61.097,111.322,61.15,112.069,61.372,111.412z"/>
						<polygon fill="#2C2C2C" points="62.835,100.358 62.836,100.547 63.855,100.545 						"/>
						<path fill="#2C2C2C" d="M60.279,90.645c-0.207,0.871,0.637,0.177,0.366,0.969c0.249,0.194,0.221-0.648,0.438-0.449
							C60.807,90.653,60.938,90.374,60.279,90.645z"/>
						<path fill="#2C2C2C" d="M61.083,91.165c0.043,0.082,0.096,0.169,0.166,0.26C61.179,91.276,61.127,91.208,61.083,91.165z"/>
						<polygon fill="#2C2C2C" points="6.766,1.545 6.27,1.163 6.53,1.605 						"/>
						<path fill="#2C2C2C" d="M5.485,1.927l0.051-0.665L5.042,1.72C5.174,1.732,5.432,1.756,5.485,1.927z"/>
						<path fill="#2C2C2C" d="M53.475,57.856l0.16-0.01c0.133-0.135,0.111-0.264,0.051-0.515L53.475,57.856z"/>
						<polygon fill="#2C2C2C" points="51.256,50.758 51.295,50.881 51.74,50.43 						"/>
						<path fill="#2C2C2C" d="M47.967,45.439c0.09,0.237,0.337,0.445,0.427,0.684C48.057,45.678,48.591,45.048,47.967,45.439z"/>
					</g>
				</g>
			</g>
		</g>
	</g>
	<g>
		<g>
			<g>
				<g>
					<g>
						<path fill="#2C2C2C" d="M49.469,145.708c-0.087,0.004,0.133,0.362,0.157,0.434C49.7,145.999,49.416,145.613,49.469,145.708z"
							/>
						<polygon fill="#2C2C2C" points="50.181,144.26 50.24,144.422 50.215,143.961 						"/>
						<path fill="#2C2C2C" d="M51.263,143.7c-0.434-0.579-0.337,0.307-0.647,0.184l-0.107-0.127l0.18,0.554
							C50.88,144.107,51.006,143.61,51.263,143.7z"/>
						<path fill="#2C2C2C" d="M52.557,144.765c-0.165-0.227,0.013-0.277-0.175-0.006c0.025,0.022,0.039,0.034,0.057,0.05
							C52.46,144.792,52.493,144.776,52.557,144.765z"/>
						<path fill="#2C2C2C" d="M52.439,144.808C52.334,144.885,52.622,144.976,52.439,144.808L52.439,144.808z"/>
						<path fill="#2C2C2C" d="M52.89,144.391l-0.034,0.298c0.107,0.129,0.258,0.092,0.264,0.223
							C53.21,144.712,53.103,144.584,52.89,144.391z"/>
						<path fill="#2C2C2C" d="M52.79,143.855l-0.029,0.134C52.806,144.043,52.838,144.053,52.79,143.855z"/>
						<path fill="#2C2C2C" d="M52.699,144.272l0.062-0.283c-0.075-0.091-0.185-0.294-0.039,0.11
							C52.638,143.906,52.7,144.103,52.699,144.272z"/>
						<path fill="#2C2C2C" d="M52.556,144.225c-0.156-0.094-0.31-0.123-0.275-0.421C52.04,144.042,52.316,144.463,52.556,144.225z"
							/>
						<path fill="#2C2C2C" d="M50.975,143.018l-0.209-0.126l0.014,0.263C50.773,143.024,51.086,143.212,50.975,143.018z"/>
						<path fill="#2C2C2C" d="M53.994,144.229c-0.061-0.139-0.239-0.332-0.34-0.498l-0.03,0.212
							C53.729,144.005,53.882,144.034,53.994,144.229z"/>
						<path fill="#2C2C2C" d="M53.654,143.731l0.044-0.318C53.536,143.463,53.567,143.587,53.654,143.731z"/>
						<polygon fill="#2C2C2C" points="52.448,143.14 52.431,143.768 52.497,143.106 						"/>
						<polygon fill="#2C2C2C" points="54.635,143.914 54.705,144.274 54.625,143.716 						"/>
						<path fill="#2C2C2C" d="M55.025,143.64c0.066,0.294,0.324,0.386,0.334,0.583c0.09-0.105,0.071-0.378,0.054-0.623
							C55.378,143.759,55.264,143.783,55.025,143.64z"/>
						<path fill="#2C2C2C" d="M55.408,143.232c-0.014,0.086-0.004,0.222,0.005,0.367C55.431,143.514,55.435,143.403,55.408,143.232z
							"/>
						<path fill="#2C2C2C" d="M54.015,143.332c0.055,0.074,0.192,0.274,0.332,0.315l-0.264-0.344
							C54.063,143.312,54.039,143.322,54.015,143.332z"/>
						<path fill="#2C2C2C" d="M54.075,143.292l0.008,0.011c0.076-0.026,0.129-0.045,0.152-0.053
							C54.215,143.255,54.167,143.268,54.075,143.292z"/>
						<path fill="#2C2C2C" d="M53.998,143.338l0.018-0.006C53.989,143.298,53.979,143.287,53.998,143.338z"/>
						<path fill="#2C2C2C" d="M53.061,143.254c-0.014-0.262,0.07-0.595-0.296-0.815C52.832,142.735,53.041,142.859,53.061,143.254z"
							/>
						<path fill="#2C2C2C" d="M53.668,142.908l-0.221,0.006c0.056,0.098,0.165,0.227,0.171,0.357L53.668,142.908z"/>
						<polygon fill="#2C2C2C" points="53.691,142.743 53.668,142.908 53.75,142.906 						"/>
						<path fill="#2C2C2C" d="M54.921,143.036c-0.011-0.204,0.065-0.262,0.145-0.337c-0.14-0.021-0.265-0.007-0.363,0.045
							C54.751,142.871,54.82,143.106,54.921,143.036z"/>
						<path fill="#2C2C2C" d="M54.492,143.127l0.005-0.03C54.47,143.07,54.457,143.064,54.492,143.127z"/>
						<path fill="#2C2C2C" d="M55.991,142.217c-0.016-0.019-0.035-0.042-0.051-0.062l0.031,0.067L55.991,142.217z"/>
						<path fill="#2C2C2C" d="M54.649,142.683c-0.114-0.033-0.11,0.083-0.092,0.222c0.036-0.068,0.083-0.124,0.146-0.161
							C54.681,142.687,54.664,142.651,54.649,142.683z"/>
						<path fill="#2C2C2C" d="M55.572,142.92c-0.081-0.059-0.161-0.102-0.24-0.139C55.434,142.88,55.61,143.026,55.572,142.92z"/>
						<path fill="#2C2C2C" d="M54.578,143.188l-0.002,0.022C54.643,143.279,54.619,143.241,54.578,143.188z"/>
						<path fill="#2C2C2C" d="M54.578,143.188c0.01-0.075-0.008-0.185-0.021-0.284c-0.031,0.054-0.052,0.117-0.06,0.192
							C54.521,143.119,54.552,143.155,54.578,143.188z"/>
						<path fill="#2C2C2C" d="M54.995,139.641c0.171,0.357,0.142,0.786-0.227,0.5c-0.031,0.351,0.686,1.447,1.171,2.014
							c-0.075-0.156-0.149-0.297-0.084-0.595c-0.161-0.159-0.62-0.246-0.641-0.64c0.135-0.301,0.254,0.025,0.463,0.152
							c-0.324-0.387-0.041-0.79-0.429-1.406l-0.083,0.332C55.109,139.901,55.099,139.703,54.995,139.641z"/>
						<path fill="#2C2C2C" d="M55.59,142.293l-0.048,0.081c0.113,0.019,0.245,0.127,0.497,0.346
							c0.029-0.233-0.015-0.376-0.067-0.498l-0.378,0.136L55.59,142.293z"/>
						<path fill="#2C2C2C" d="M55.221,142.544c-0.145-0.411-0.058-0.664-0.38-1.021c-0.196,0.136,0.021,0.396-0.018,0.627
							c0.289-0.272,0.014,0.264,0.373,0.352c-0.033,0.1-0.082,0.151-0.13,0.197c0.085,0.014,0.174,0.041,0.267,0.083l-0.021-0.02
							l0,0.002l-0.003-0.006c-0.04-0.04-0.06-0.066-0.029-0.047c-0.001-0.005,0.001-0.009,0.003-0.011
							c-0.025-0.054-0.043-0.104-0.061-0.152c0.14,0.027,0.067,0.091,0.061,0.152l0.026,0.059l0.003,0.004l0.229-0.387
							C55.442,142.359,55.357,142.417,55.221,142.544z"/>
						<path fill="#2C2C2C" d="M52.515,141.524c0.028,0.028,0.042,0.056,0.058,0.083C52.57,141.548,52.562,141.512,52.515,141.524z"
							/>
						<path fill="#2C2C2C" d="M52.776,141.681c0.003,0.066,0.063,0.229-0.038,0.232c-0.129-0.079-0.096-0.184-0.165-0.307
							c0.005,0.126-0.025,0.362,0.224,0.468l-0.003-0.064c0.205,0.059,0.63,0.443,0.634,0.508
							C53.207,142.196,53.043,141.97,52.776,141.681z"/>
						<path fill="#2C2C2C" d="M53.957,142.01l0.184-0.335l-0.317-0.254l0.111,0.194C53.734,141.621,53.897,141.847,53.957,142.01z"
							/>
						<polygon fill="#2C2C2C" points="56.123,142.389 56.297,142.812 56.161,142.158 						"/>
						<polygon fill="#2C2C2C" points="56.464,142.148 56.634,142.506 56.62,142.244 						"/>
						<path fill="#2C2C2C" d="M74.88,126.931l0.031-0.143C74.888,126.839,74.88,126.886,74.88,126.931z"/>
						<path fill="#2C2C2C" d="M74.267,127.223l0.076,0.18C74.321,127.293,74.295,127.217,74.267,127.223z"/>
						<path fill="#2C2C2C" d="M65.452,137.378c0.292,0.264,0.694,0.7,0.472,0.314l-0.238-0.365
							C65.637,137.441,65.55,137.432,65.452,137.378z"/>
						<path fill="#2C2C2C" d="M70.417,131.845l-0.097-0.098c0.04,0.147,0.077,0.283,0.111,0.41
							C70.427,132.06,70.422,131.955,70.417,131.845z"/>
						<path fill="#2C2C2C" d="M69.667,130.21l0.29,0.164C69.876,130.307,69.781,130.251,69.667,130.21z"/>
						<path fill="#2C2C2C" d="M77.946,124.802l-0.109-0.442C77.687,124.441,77.857,124.604,77.946,124.802z"/>
						<path fill="#2C2C2C" d="M60.146,140.034c0.183,0.095,0.299,0.115,0.382,0.095C60.287,139.975,60.012,139.697,60.146,140.034z"
							/>
						<path fill="#2C2C2C" d="M76.784,131.131c0.014-0.096-0.005-0.186-0.051-0.271C76.715,130.954,76.724,131.043,76.784,131.131z"
							/>
						<path fill="#2C2C2C" d="M60.829,139.97c-0.039-0.029-0.067-0.039-0.103-0.062c-0.042,0.104-0.092,0.197-0.198,0.221
							C60.707,140.245,60.867,140.29,60.829,139.97z"/>
						<path fill="#2C2C2C" d="M90.006,118.874c0.018,0.013,0.033,0.016,0.051,0.032C90.032,118.853,90.019,118.856,90.006,118.874z"
							/>
						<path fill="#2C2C2C" d="M95.506,120.931c-0.021,0.042-0.077,0.071-0.126,0.104C95.419,121.048,95.46,121.022,95.506,120.931z"
							/>
						<path fill="#2C2C2C" d="M58.028,141.541C57.963,141.607,58.038,141.59,58.028,141.541L58.028,141.541z"/>
						<path fill="#2C2C2C" d="M56.852,140.221c-0.006-0.052-0.022-0.113-0.067-0.203C56.827,140.113,56.847,140.178,56.852,140.221z
							"/>
						<path fill="#2C2C2C" d="M60.348,137.172l0.007-0.002C60.293,137.107,60.304,137.119,60.348,137.172z"/>
						<path fill="#2C2C2C" d="M57.819,141.428c0.054,0.032,0.108,0.053,0.16,0.062C57.947,141.468,57.897,141.447,57.819,141.428z"
							/>
						<path fill="#2C2C2C" d="M57.93,141.601c-0.036,0-0.062-0.001-0.087-0.001C57.867,141.669,57.896,141.704,57.93,141.601z"/>
						<path fill="#2C2C2C" d="M58.125,141.463c-0.042,0.029-0.092,0.033-0.147,0.026c0.029,0.018,0.046,0.036,0.049,0.051
							C58.047,141.523,58.076,141.498,58.125,141.463z"/>
						<path fill="#2C2C2C" d="M84.173,123.249c0.012,0.009,0.02,0.015,0.036,0.027C84.204,123.076,84.183,123.119,84.173,123.249z"
							/>
						<path fill="#2C2C2C" d="M65.382,132.326c-0.001,0.005,0.002,0.017,0.001,0.023l0.019,0.007L65.382,132.326z"/>
						<path fill="#2C2C2C" d="M65.511,131.893c0.132,0.541,0.033,0.518-0.11,0.464l0.674,1.059L65.511,131.893z"/>
						<path fill="#2C2C2C" d="M76.26,126.065l-0.377-0.242c-0.062-0.692,0.213-0.586-0.227-0.975
							c0.604,1.217-0.698,0.524-0.094,1.739l-0.262-0.185c0.043-0.008,0.012-0.082,0.055-0.089c-0.554-0.443,0.27,0.968-0.144,0.967
							c-0.162-0.033-0.332-0.166-0.33-0.349l-0.095,0.43c-0.085,0.015-0.177-0.203-0.093-0.219l-0.333,0.298l-0.016-0.037
							c0.045,0.218,0.074,0.574,0.078,0.73c-0.188-0.121-0.018-0.153-0.122-0.29l-0.059,0.403c-0.25-0.266-0.233-0.661-0.063-0.693
							c-0.829-1.096-0.017,0.396-0.814-0.081l0.121-0.258c-0.488-0.614-0.515-0.285-0.965-0.591c0.17,0.194,1.017,0.833,0.944,1.254
							c-0.113-0.057-0.221-0.055-0.218,0.252c-0.226-0.427-0.292-0.258-0.432-0.154l-0.287-0.572
							c-0.079,0.25,0.086,0.531,0.123,0.837c-0.212,0.04-0.481-0.378-0.718-0.725c-0.34,0.064,0.572,0.597,0.281,0.886
							c-0.358-0.089-0.408,0.232-0.522,0.725c-0.273-0.105-0.152-0.362-0.298-0.492l0.086,0.531
							c-0.043,0.009-0.104-0.137-0.134-0.209c-0.036,0.242,0.287,0.571,0.167,0.831c0.273,0.652-0.891-0.696-0.767,0.143
							c-0.146-0.128-0.152-0.362-0.287-0.572c-0.096,0.644-0.114,0.491-0.065,1.264l-0.434-0.247c0.398,0.333,0.439,0.954,0.46,1.47
							c0.17,0.173,0.317,0.325,0.398,0.392l-0.153,0.468c-0.086-0.073-0.157-0.284-0.23-0.548c0.005,0.058,0.01,0.115,0.014,0.166
							c-0.222-0.15-0.335-0.508-0.421-0.866c0.095,0.093,0.196,0.192,0.296,0.29c-0.103-0.384-0.231-0.803-0.421-1.126
							c0.014,0.076,0.004,0.153-0.022,0.207c-0.029-0.104-0.06-0.194-0.099-0.246c-0.042-0.054-0.009,0.088,0.016,0.26l-0.402-0.594
							l0.114,0.26l-0.616-0.18c0.041,0.79,0.278,1.858-0.05,2.363c-0.128-0.523-0.373-0.769-0.654-1.321
							c0.432,0.514,0.23-0.436,0.533-0.444c-0.157,0.005-0.267-0.271-0.283-0.379l-0.152,0.754
							c-0.226-0.454-0.268-0.289-0.478-0.415c0.551,0.842-0.01,0.758-0.042,1.122c-0.167-0.292-0.285-0.618-0.034-0.658
							c-0.586-0.544,0.243,1.201-0.286,0.755c0.048-0.034,0.1-0.003,0.042-0.165c0.017,0.328-0.39,0.274-0.456-0.022l0.048-0.033
							c-0.4,0.077-1.055,0.546-0.711,1.326c-0.055-0.095-0.432-0.931-0.491-1.094l0.714,2.857c-0.285-0.675-1.303-2.106-1.208-2.622
							c-0.13-0.049-0.289-0.104-0.342,0.216c0.104,0.063,0.631,0.862,0.585,0.961c-0.588-0.609-0.348-0.308-0.93-0.786
							c0.157,0.095,0.596,1.158,0.446,1.195c-0.059-0.163-0.537-0.995-0.543-1.126l0.192,1.169c-0.012-0.222-0.429-0.852-0.65-1.094
							c0.137,0.177-0.296,0.132-0.332,0.277l0.261,0.157c-0.452,0.045,0.367,1.594-0.032,1.736c-0.063-0.229-0.554-1.324-0.808-1.35
							c0.182,0.555,0.906,2.653,0.784,3.218l-0.216-0.259l-0.077,0.464c-0.246-0.85-0.654-2.695-0.744-3.449
							c-0.261-0.158-0.22-0.323-0.415-0.187c-0.217-0.234-0.104-0.474-0.05-0.523l-0.58,0.08c0.334,0.584-0.059,0.793,0.22,1.279
							l0.206-0.895c0.333,0.583,0.581,1.85,0.18,1.926c-0.212-0.191-0.491-1.094-0.602-1.289c0.063,0.229-0.122,0.563-0.23,0.435
							l-0.021-0.395c-0.31-0.123,0.101,0.954-0.429,0.507c-0.1,0.004-0.64-0.641-0.469-0.282c0.487,0.611,1.615,2.698,1.797,3.254
							c-0.052-0.031-0.76-0.429-1.027-0.717c-0.411-0.463-0.469-1.373-0.821-1.771c0.081,0.165,0.113,0.404,0.117,0.484
							c-0.157-0.095-0.23-0.522-0.373-0.353c0.286,0.619-0.397,0.144,0.182,0.555c-0.087,0.266-0.254-0.025-0.45,0.111
							c0.271,0.355,0.509,1.426,0.421,1.692c-0.07-0.159-0.215-0.338-0.282-0.419c-0.394,0.137-0.733-0.034-1.076,0.139
							c-0.108-0.129-0.365-0.22-0.432-0.517c0.007,0.132,0.069,0.36-0.028,0.43c-0.477-0.415,0.191-0.204-0.292-0.75
							c0.171,0.358-0.018,0.626-0.052,0.924c0.33,0.517,0.4-0.078,0.435-0.375c0.393,0.747,0.543,1.666,0.369,2.198
							c-0.186,0.334-0.376-0.418-0.37-0.287c-0.599,0.148,0.233,1.542-0.491,1.235c-0.425-0.384-0.505-0.943-0.725-1.266
							c0.136-0.301,0.512,0.117,0.658,0.016l-0.31-0.125c-0.01-0.196,0.081-0.397,0.237-0.303c-0.371-0.351-0.94,0.389-1.557,0.209
							c0.011,0.198-0.028,0.429,0.132,0.589l0.095-0.134c0.321,0.321,0.035,0.659,0.293,0.752c-0.032,0.361-0.004,0.888-0.363,0.799
							l-0.331-0.519c0.088,0.156,0.33,0.239,0.312,0.038c0.024,0.294-0.761-0.538-0.5,0.232l0.369,0.286
							c-0.031,0.365,0.056,1.054-0.251,0.997c0.38,0.484,0.018-0.087,0.501,0.459c-0.543-0.71,0.572-0.259-0.073-0.966
							c0.54,0.645,0.436,0.165,0.968,0.677c-0.1-0.176-0.253-0.304-0.024-0.312c-0.02-0.057-0.035-0.133-0.043-0.179l0.019,0.007
							l-0.021-0.016c-0.006-0.031-0.008-0.037-0.007-0.005c-0.084-0.056-0.169-0.131-0.236-0.224
							c-0.125-0.458,0.17-0.598,0.157-0.862c0.153,0.028,0.063,0.229,0.222,0.389l-0.021-0.395c0.224,0.39,0.634,0.51,0.502,0.876
							l0.238-0.103c0.252,0.152,0.484,0.143,0.511-0.084c0.153,0.029,0.042-0.583,0.111-0.223l0.23-0.436l0.056,0.098
							c0.381-0.136,0.384-1.042,1.166-0.537c0.067-0.163,0.125-0.351,0.384-0.342l0.22,0.324c0.09-0.201,0.641,0.102,0.519-0.291
							c0.651,0.839,0.85-0.189,1.206-0.166l-0.226-0.455c0.199-0.072,0.31-0.293,0.446-0.594l-0.223-0.39
							c0.027-0.43,0.658,0.014,0.951-0.191c0.058,0.163-0.042,0.165-0.147,0.103c0.846,0.7,0.449-1.068,1.132-0.593
							c0.009-0.188,0.096-0.172,0.208-0.103c-0.007,0.005-0.011,0.016-0.01,0.032c0.011,0,0.025-0.006,0.038-0.014
							c0.073,0.049,0.153,0.108,0.229,0.15c-0.086-0.078-0.162-0.14-0.211-0.161c0.061-0.042,0.134-0.144,0.179-0.294l0.266,0.405
							c0.005-0.01,0.011-0.012,0.016-0.024c0.178,0.107-0.029-0.242-0.249-0.536c0.012-0.096,0.013-0.204-0.006-0.325
							c0.439,0.647,0.133-0.366,0.625,0.313c-0.123-0.393,0.347-0.526,0.003-1.307c0.055,0.096,0.108,0.128,0.059,0.162
							c0.154,0.029,0.307,0.058,0.292-0.205l0.331,0.518l-0.146-0.853c0.317,0.254,0.478,0.415,0.554,0.907
							c0.008-0.823,0.152-0.389,0.112-1.178l0.17,0.358c0.098-0.068,0.019-0.625,0.234-0.369c0.584,0.543,1.208-0.517,2.135-0.214
							c-0.659-0.971,0.522,0.315,0.126-0.497c0.163,0.225,0.319,0.319,0.333,0.583c0.181-0.401,0.665,0.144,0.522-0.642
							c0.164,0.227,0.122,0.393,0.229,0.521c-0.003-0.066-0.014-0.264,0.095-0.135c0.107,0.128,0.063,0.228,0.07,0.36
							c0.292-0.206-0.071-0.975-0.419-1.693c0.334,0.251,0.389,0.162,0.261-0.361c0.177,0.202,0.396,0.396,0.245,0.581
							c0.127-0.024,0.847-0.013,0.562-0.585c0.109,0.125,0.175-0.039,0.169-0.119c0.264-0.095,0.313-0.056,0.526-0.236l-0.116-0.057
							c-0.263-0.733,0.121-0.258,0.272-0.442l0.031,0.073c0.705,0.258,0.069-0.337,0.805-0.007l-0.247-0.412
							c-0.438-0.935,0.673,0.334,0.746-0.149l-0.22-0.194c-0.024-0.386,1.042,1.037,1.243,1.078
							c0.072,0.063,0.019,0.153,0.007,0.234c0.65,0.346-0.245-0.582-0.039-0.854c0.208,0.273,0.335,0.797,0.549,0.756
							c0.219,0.195,0.022-1.254,0.576-0.811c-0.177-0.202-0.353-0.404-0.317-0.645c0.151-0.185,0.985,0.597,0.779-0.224
							c0.058,0.05,0.099,0.105,0.13,0.163c0.05-0.267,0.319-0.567,0.202-1.009c0.908,1.395,0.551-1.199,1.258,0.155l0.42-0.313
							l0.061,0.145c0.34-0.064,0.273-0.443,0.205-0.822c0.116,0.057,0.133,0.209,0.165,0.283c0.571,0.048,0.583-0.032,0.588-0.894
							l0.268,0.419c-0.037-0.306,0.979,0.363,1.13-0.369c0.022,0.052,0.058,0.142,0.057,0.221c0.202-0.763,1.77,0.624,1.103-1.065
							l0.104-0.558c-0.468,0.088-0.304-0.725-0.609-0.903c0.109-0.177,0.663,0.267,0.511,0.452l-0.072-0.064
							c0.366,0.871,0.656,0.032,0.943,0.605c0.771-0.458,1.786-0.402,2.548-0.757l-0.426-0.602l0.279-0.099
							c0.147,0.115,0.357,0.458,0.158,0.529c0.29,0.316,0.148-0.47,0.08-0.614c0.5,0.072,0.255,0.829,0.374,0.787l0.125-0.127
							l-0.074-0.058c-0.017-0.329-0.153-0.615,0.085-0.7c0.209,0.056,0.282,0.362,0.351,0.358c0.024,0.046,0.054,0.058,0.095-0.026
							l0.355-0.116l-0.399-0.443c0.012-0.328,0.321-0.134-0.134-0.635c0.69,0.777,1.386-0.318,1.667-0.112
							c0.007-0.479,0.21-0.578,0.482-0.663c-0.118-0.074-0.457-0.63-0.206-0.671c0.545,1.227,0.662,0.31,1.282,1.072
							c-0.451-0.484,0.535-0.458-0.13-1.135c0.229,0.002,0.244,0.438,0.526,0.646c0.183-0.683,1.092-0.192,1.536-0.623
							c-0.074-0.16-0.287-0.352-0.296-0.643l0.686,0.633c0.063-0.131-0.376-0.949,0.096-0.508c-0.095-0.117-0.239-0.293-0.196-0.38
							c1.426,0.219,1.774-1.725,3.566-0.847c-0.3-0.227-0.221-0.307-0.119-0.375c-0.108-0.035-0.201-0.386-0.325-0.589l0.745,0.356
							c-0.228-0.628,0.448-0.286,0.199-0.87l-0.085,0.173c-0.163-0.757-1.029-1.334-1.447-2.196c0.188,0.86-1.128-0.827-0.901,0.426
							c-0.166-0.134-0.08-0.307-0.223-0.482c0.105,0.409,0.042,0.539-0.236,0.477l-0.025-0.102
							c-0.492,0.372-0.912,0.135-1.642,0.214l0.265,0.396c-0.16,0.012-0.256-0.105-0.372-0.178c0.185,0.714,0.384-0.156,0.616,0.617
							c-0.621-0.763-0.924,0.469-1.55-0.44c-0.203,0.1,0.313,0.455,0.111,0.554l-0.191-0.234l0.127,0.364
							c-0.161,0.013-0.399-0.28-0.521-0.5c0.045,0.009,0.058-0.11,0.082-0.147c-0.332-0.22-0.424,0.357-0.535,0.288l0.277,0.061
							c-0.417,0.532-1.265,0.538-1.512,1.349l0.144,0.177c-0.21,0.578-0.437-0.048-0.79,0.354l-0.009-0.055
							c0.015,0.244-0.051,0.405-0.184,0.446c-0.01-0.29-0.447-0.34-0.435-0.673c-0.23,0.623-0.054,0.422,0.043,1.309l-0.239-0.293
							c0.058,0.348,0.132,0.509-0.044,0.71c0.033-0.377-0.404-0.426-0.396-0.905c-0.84-0.475-0.308,1.086-1.072,0.148
							c0.265,1.021,0.667,0.294,0.649,0.551c0.256,0.245,0.181,0.771-0.013,0.756c-0.159,0.058-0.862-1.03-1.226-0.817
							c0.04-0.016,0.006-0.085,0.045-0.101c-0.261-0.159-0.108,0.457-0.477,0.171c0.192,0.6-0.239,0.085,0.102,0.8l0.257-0.341
							c-0.098,0.285,0.151,1.2-0.376,0.97c-0.049-0.154-0.052-0.39-0.042-0.528c-0.202-0.158-0.107,0.231-0.316,0.07
							c-0.341-0.716,0.335-0.371,0.262-1.015c-0.255-0.244-0.125,0.714-0.42-0.1c0.357,1.044-0.431,0.071-0.296,0.941l-0.204-0.429
							c-0.005,0.086,0.017,0.329-0.063,0.356l-0.153-0.615c0.04,0.572-0.607-0.199-0.67,0.156c0.403-0.229,0.357,0.458,0.692,0.673
							c-0.21,0.828-0.868-0.946-1.328-0.447c0.045-0.1,0.42,0.101,0.402,0.359c-0.153-0.03-0.38-0.117-0.562-0.302
							c-0.33,0.285,0.285,0.402,0.26,0.744c-0.396-0.445-0.075,0.305-0.153,0.555l-0.226-0.426c-0.571-0.05,0.354,0.95-0.205,0.821
							l-0.148-0.678l-0.12,0.258l-0.214-0.508c-0.029,0.475-0.146,0.418-0.432,0.394c0.208,0.275,0.379,0.79,0.197,0.903
							c-0.262-0.186-0.141-0.444-0.377-0.242c-0.08-0.299-0.19-0.669,0.134-0.337c-0.061-0.146-0.081-0.299-0.141-0.443
							c-0.292-0.219-0.385,0.117-0.48,0.172c0.046-0.004,0.103-0.004,0.158,0.045l-0.079,0.796
							c-0.146-0.128-0.165-0.283-0.183-0.434c-0.055,0.088-0.006,0.313-0.103,0.41c-0.152-0.363-0.348-0.717-0.27-0.967l-0.168,0.58
							c-0.104-0.138-0.408-0.314-0.427-0.468c-0.313-0.096-0.15,0.938-0.564,0.812c0.021,0.075,0.026,0.154-0.005,0.234
							c-0.297,0.056-0.748-0.251-0.801,0.385l-0.5-0.532c-0.164,0.266,0.645,0.662,0.373,1.104
							c-0.176,0.346-0.383-0.476-0.573-0.598c0.025,0.387,0.118,1.153-0.405,0.781C76.089,126.097,76.204,126.153,76.26,126.065z
							 M73.472,127.881c0.01-0.12-0.022-0.456,0.151-0.226C73.816,128.179,73.643,127.972,73.472,127.881z M69.555,131.251
							c-0.032-0.164,0.07-0.128,0.229-0.005C69.748,131.309,69.679,131.325,69.555,131.251z M58.698,140.746
							c-0.002-0.008-0.003-0.014-0.005-0.024C58.907,140.821,58.828,140.779,58.698,140.746z M58.337,140.698
							c0.005,0.074,0.038,0.132,0.08,0.186c-0.038-0.118,0.017-0.156,0.1-0.161C58.44,140.621,58.366,140.561,58.337,140.698z
							 M86.514,125.687l-0.11-0.085C86.455,125.419,86.481,125.546,86.514,125.687z"/>
						<path fill="#2C2C2C" d="M69.753,130.401c0.054,0.063,0.1,0.141,0.146,0.219C69.884,130.537,69.841,130.453,69.753,130.401z"/>
						<polygon fill="#2C2C2C" points="77.965,124.883 77.977,124.883 77.946,124.802 						"/>
						<path fill="#2C2C2C" d="M60.513,134.936c0.086,0.033,0.158,0.095,0.22,0.166C60.681,134.996,60.61,134.92,60.513,134.936z"/>
						<path fill="#2C2C2C" d="M57.324,142.157l0.11-0.2c-0.07,0.064-0.148-0.014-0.225-0.06
							C57.265,141.995,57.373,142.122,57.324,142.157z"/>
						<path fill="#2C2C2C" d="M54.473,140.282c0.002,0.065-0.049,0.033-0.046,0.099l0.111,0.195
							C54.636,140.508,54.625,140.309,54.473,140.282z"/>
						<path fill="#2C2C2C" d="M56.422,140.819c-0.202-0.353-0.244-0.175-0.327-0.046c0.006-0.005,0.011-0.011,0.021-0.011
							C56.346,141.283,56.384,141.051,56.422,140.819z"/>
						<path fill="#2C2C2C" d="M56.075,140.8c-0.028,0.036-0.06,0.065-0.104,0.066C56.062,141.075,56.037,140.885,56.075,140.8z"/>
						<path fill="#2C2C2C" d="M58.129,141.112c-0.104-0.063,0.206,0.478,0.097,0.348C58.404,141.95,58.309,140.71,58.129,141.112z"
							/>
						<polygon fill="#2C2C2C" points="55.705,139.686 55.98,140.107 55.859,139.715 						"/>
						<path fill="#2C2C2C" d="M56.809,139.522l-0.253-0.024c0.042,0.073,0.041,0.129,0.029,0.178
							C56.708,139.629,56.882,139.651,56.809,139.522z"/>
						<path fill="#2C2C2C" d="M56.584,139.676c-0.065,0.023-0.118,0.063-0.113,0.153C56.501,139.807,56.564,139.755,56.584,139.676z
							"/>
						<polygon fill="#2C2C2C" points="55.893,139.417 55.998,139.48 56.148,139.443 						"/>
						<path fill="#2C2C2C" d="M58.882,138.542l0.139-0.235c-0.059-0.163-0.164-0.227-0.209-0.125
							C58.819,138.313,58.773,138.412,58.882,138.542z"/>
						<path fill="#2C2C2C" d="M57.622,137.655c0.104,0.063,0.16,0.16,0.268,0.289l-0.282-0.553L57.622,137.655z"/>
						<path fill="#2C2C2C" d="M58.155,137.21c-0.06-0.163,0.069-0.595-0.174-0.423C58.039,136.95,57.899,137.185,58.155,137.21z"/>
						<polygon fill="#2C2C2C" points="61.623,136.276 61.574,136.311 62.055,137.209 						"/>
						<path fill="#2C2C2C" d="M63.225,132.683c-0.357-0.088,0.234,0.587-0.128,0.433c0.055,0.244,0.296,0.126,0.334,0.341
							C63.46,133.154,63.604,133.241,63.225,132.683z"/>
						<path fill="#2C2C2C" d="M63.431,133.457c-0.005,0.048-0.007,0.104-0.003,0.177C63.441,133.554,63.438,133.5,63.431,133.457z"
							/>
						<polygon fill="#2C2C2C" points="96.335,121.113 96.591,121.218 96.331,120.969 						"/>
						<path fill="#2C2C2C" d="M96.286,120.286l0.339,0.555l-0.179-0.569C96.423,120.315,96.381,120.401,96.286,120.286z"/>
						<path fill="#2C2C2C" d="M72.428,126.953l0.061,0.145c0.103,0.137,0.146,0.128,0.231,0.113L72.428,126.953z"/>
						<polygon fill="#2C2C2C" points="74.782,126.265 74.74,126.272 75.081,126.756 						"/>
						<path fill="#2C2C2C" d="M76.221,124.664c-0.084,0.017-0.109,0.178-0.194,0.194C76.136,124.681,76.581,125.302,76.221,124.664z
							"/>
					</g>
				</g>
			</g>
		</g>
	</g>
	<g>
		<g>
			<g>
				<g>
					<g>
						<path fill="#2C2C2C" d="M57.331,140.975c0.004,0.079,0.353-0.154,0.423-0.183C57.616,140.739,57.239,141.033,57.331,140.975z"
							/>
						<polygon fill="#2C2C2C" points="55.931,140.461 56.089,140.393 55.642,140.458 						"/>
						<path fill="#2C2C2C" d="M55.397,139.529c-0.566,0.447,0.295,0.278,0.172,0.572l-0.125,0.109l0.54-0.214
							C55.789,139.84,55.307,139.771,55.397,139.529z"/>
						<path fill="#2C2C2C" d="M56.442,138.257c-0.222,0.17-0.269,0.013-0.008,0.159c0.021-0.025,0.033-0.039,0.049-0.057
							C56.468,138.342,56.453,138.314,56.442,138.257z"/>
						<path fill="#2C2C2C" d="M56.483,138.36C56.558,138.448,56.647,138.179,56.483,138.36L56.483,138.36z"/>
						<path fill="#2C2C2C" d="M56.083,137.989l0.29,0.004c0.126-0.11,0.091-0.243,0.219-0.26
							C56.397,137.668,56.272,137.778,56.083,137.989z"/>
						<path fill="#2C2C2C" d="M55.562,138.129l0.129,0.014C55.744,138.096,55.754,138.067,55.562,138.129z"/>
						<path fill="#2C2C2C" d="M55.965,138.173l-0.274-0.03c-0.089,0.077-0.287,0.195,0.107,0.025
							C55.608,138.262,55.801,138.188,55.965,138.173z"/>
						<path fill="#2C2C2C" d="M55.917,138.308c-0.092,0.15-0.122,0.293-0.411,0.288C55.735,138.792,56.147,138.503,55.917,138.308z"
							/>
						<path fill="#2C2C2C" d="M54.731,139.854l-0.124,0.202l0.255-0.037C54.736,140.037,54.921,139.735,54.731,139.854z"/>
						<path fill="#2C2C2C" d="M55.935,137c-0.136,0.068-0.324,0.247-0.486,0.354l0.206,0.007
							C55.715,137.261,55.744,137.12,55.935,137z"/>
						<path fill="#2C2C2C" d="M55.448,137.355l-0.309-0.011C55.187,137.486,55.308,137.447,55.448,137.355z"/>
						<polygon fill="#2C2C2C" points="54.863,138.505 55.473,138.463 54.831,138.463 						"/>
						<polygon fill="#2C2C2C" points="55.634,136.447 55.985,136.351 55.442,136.475 						"/>
						<path fill="#2C2C2C" d="M55.371,136.118c0.287-0.087,0.378-0.33,0.57-0.357c-0.102-0.072-0.367-0.029-0.604,0.008
							C55.491,135.786,55.513,135.888,55.371,136.118z"/>
						<path fill="#2C2C2C" d="M54.979,135.808c0.083,0.005,0.216-0.017,0.357-0.039C55.253,135.761,55.146,135.767,54.979,135.808z"
							/>
						<path fill="#2C2C2C" d="M55.063,137.063c0.073-0.057,0.268-0.199,0.31-0.33l-0.336,0.271L55.063,137.063z"/>
						<path fill="#2C2C2C" d="M55.025,137.013l0.011-0.009c-0.025-0.066-0.043-0.113-0.05-0.133
							C54.991,136.889,55.003,136.932,55.025,137.013z"/>
						<path fill="#2C2C2C" d="M55.07,137.079l-0.006-0.015C55.03,137.09,55.02,137.101,55.07,137.079z"/>
						<path fill="#2C2C2C" d="M54.98,137.937c-0.255,0.037-0.578-0.009-0.794,0.343C54.473,138.193,54.596,137.992,54.98,137.937z"
							/>
						<path fill="#2C2C2C" d="M54.649,137.417l0.003,0.201c0.096-0.06,0.222-0.17,0.349-0.188L54.649,137.417z"/>
						<polygon fill="#2C2C2C" points="54.488,137.412 54.649,137.417 54.647,137.343 						"/>
						<path fill="#2C2C2C" d="M54.785,136.268c-0.199,0.028-0.254-0.036-0.327-0.101c-0.022,0.129-0.009,0.241,0.041,0.326
							C54.622,136.437,54.852,136.353,54.785,136.268z"/>
						<path fill="#2C2C2C" d="M54.869,136.649l-0.029-0.002C54.813,136.674,54.808,136.687,54.869,136.649z"/>
						<polygon fill="#2C2C2C" points="53.998,135.371 53.938,135.423 54.003,135.389 						"/>
						<path fill="#2C2C2C" d="M54.438,136.547c-0.033,0.107,0.08,0.093,0.215,0.063c-0.066-0.027-0.12-0.064-0.155-0.118
							C54.443,136.518,54.408,136.537,54.438,136.547z"/>
						<path fill="#2C2C2C" d="M54.678,135.687c-0.058,0.079-0.101,0.155-0.138,0.231C54.638,135.816,54.781,135.643,54.678,135.687z
							"/>
						<path fill="#2C2C2C" d="M54.929,136.565h0.022C55.018,136.498,54.981,136.523,54.929,136.565z"/>
						<path fill="#2C2C2C" d="M54.929,136.565c-0.073-0.002-0.179,0.024-0.275,0.045c0.052,0.023,0.113,0.036,0.186,0.037
							C54.861,136.624,54.896,136.592,54.929,136.565z"/>
						<path fill="#2C2C2C" d="M51.487,136.512c0.349-0.188,0.765-0.202,0.484,0.16c0.341-0.004,1.411-0.755,1.967-1.248
							c-0.152,0.083-0.29,0.163-0.579,0.131c-0.156,0.161-0.244,0.586-0.627,0.641c-0.292-0.095,0.026-0.232,0.151-0.434
							c-0.378,0.33-0.767,0.11-1.369,0.518l0.322,0.045C51.741,136.384,51.548,136.412,51.487,136.512z"/>
						<path fill="#2C2C2C" d="M54.069,135.728l0.078,0.037c0.019-0.105,0.126-0.235,0.34-0.483
							c-0.227-0.005-0.366,0.048-0.484,0.107l0.129,0.33L54.069,135.728z"/>
						<path fill="#2C2C2C" d="M54.309,136.04c-0.4,0.169-0.645,0.114-0.995,0.438c0.131,0.166,0.384-0.055,0.609-0.041
							c-0.262-0.237,0.256-0.037,0.345-0.371c0.097,0.021,0.146,0.061,0.19,0.1c0.015-0.079,0.041-0.162,0.082-0.25l-0.019,0.02
							l0.002,0l-0.006,0.003c-0.039,0.04-0.065,0.06-0.046,0.03c-0.005,0.002-0.009,0-0.011-0.002
							c-0.055,0.025-0.103,0.048-0.148,0.069c0.027-0.129,0.089-0.069,0.148-0.069l0.057-0.028l0.004-0.004l-0.374-0.172
							C54.131,135.857,54.187,135.928,54.309,136.04z"/>
						<path fill="#2C2C2C" d="M53.294,138.591c0.028-0.028,0.055-0.043,0.081-0.06C53.319,138.54,53.283,138.55,53.294,138.591z"/>
						<path fill="#2C2C2C" d="M53.449,138.34c0.064-0.009,0.223-0.078,0.225,0.013c-0.077,0.125-0.179,0.104-0.299,0.178
							c0.123-0.016,0.352-0.01,0.458-0.246l-0.063,0.009c0.059-0.192,0.436-0.614,0.499-0.623
							C53.954,137.901,53.732,138.071,53.449,138.34z"/>
						<path fill="#2C2C2C" d="M53.779,137.237l-0.324-0.137l-0.25,0.312l0.19-0.119C53.399,137.476,53.621,137.307,53.779,137.237z"
							/>
						<polygon fill="#2C2C2C" points="54.167,135.236 54.579,135.039 53.942,135.222 						"/>
						<polygon fill="#2C2C2C" points="53.936,134.948 54.285,134.76 54.03,134.797 						"/>
						<path fill="#2C2C2C" d="M39.318,119.613l-0.138-0.015C39.229,119.615,39.274,119.618,39.318,119.613z"/>
						<path fill="#2C2C2C" d="M39.596,120.144l0.176-0.085C39.665,120.088,39.591,120.118,39.596,120.144z"/>
						<path fill="#2C2C2C" d="M49.382,127.22c0.258-0.29,0.686-0.694,0.309-0.458l-0.356,0.25
							C49.444,127.046,49.435,127.126,49.382,127.22z"/>
						<path fill="#2C2C2C" d="M44.051,123.217l-0.096,0.097c0.143-0.05,0.276-0.096,0.399-0.139
							C44.26,123.188,44.158,123.202,44.051,123.217z"/>
						<path fill="#2C2C2C" d="M42.458,124.047l0.162-0.278C42.553,123.85,42.498,123.941,42.458,124.047z"/>
						<path fill="#2C2C2C" d="M37.277,117.024l-0.43,0.139C36.925,117.292,37.084,117.123,37.277,117.024z"/>
						<path fill="#2C2C2C" d="M51.915,131.796c0.094-0.175,0.114-0.282,0.095-0.355C51.858,131.674,51.586,131.949,51.915,131.796z"
							/>
						<path fill="#2C2C2C" d="M43.415,117.499c-0.093-0.004-0.18,0.021-0.263,0.071C43.242,117.578,43.328,117.562,43.415,117.499z"
							/>
						<path fill="#2C2C2C" d="M51.858,131.183c-0.028,0.038-0.038,0.064-0.061,0.099c0.101,0.029,0.19,0.065,0.212,0.16
							C52.124,131.268,52.17,131.119,51.858,131.183z"/>
						<path fill="#2C2C2C" d="M31.626,106.612c0.013-0.018,0.016-0.031,0.031-0.049C31.606,106.59,31.609,106.602,31.626,106.612z"
							/>
						<path fill="#2C2C2C" d="M33.673,101.427c0.04,0.016,0.068,0.063,0.1,0.106C33.786,101.496,33.761,101.46,33.673,101.427z"/>
						<path fill="#2C2C2C" d="M53.359,133.583C53.423,133.635,53.407,133.569,53.359,133.583L53.359,133.583z"/>
						<path fill="#2C2C2C" d="M52.067,134.772c-0.051,0.01-0.11,0.031-0.198,0.08C51.962,134.804,52.025,134.78,52.067,134.772z"/>
						<path fill="#2C2C2C" d="M49.137,131.875l-0.002-0.006C49.073,131.931,49.085,131.92,49.137,131.875z"/>
						<path fill="#2C2C2C" d="M53.248,133.783c0.032-0.052,0.053-0.104,0.062-0.15C53.288,133.663,53.267,133.71,53.248,133.783z"/>
						<path fill="#2C2C2C" d="M53.417,133.666c-0.001,0.033-0.001,0.056-0.002,0.08C53.482,133.717,53.517,133.687,53.417,133.666z"
							/>
						<path fill="#2C2C2C" d="M53.285,133.501c0.028,0.035,0.031,0.081,0.024,0.131c0.018-0.028,0.036-0.046,0.05-0.05
							C53.342,133.566,53.318,133.543,53.285,133.501z"/>
						<path fill="#2C2C2C" d="M35.824,111.509c0.009-0.011,0.015-0.02,0.027-0.035C35.656,111.497,35.698,111.512,35.824,111.509z"
							/>
						<path fill="#2C2C2C" d="M44.474,127.747c0.006,0,0.017-0.002,0.023-0.003l0.007-0.018L44.474,127.747z"/>
						<path fill="#2C2C2C" d="M44.055,127.669c0.526-0.169,0.502-0.078,0.449,0.057l1.034-0.709L44.055,127.669z"/>
						<path fill="#2C2C2C" d="M38.49,118.439l-0.238,0.365c-0.673,0.119-0.568-0.14-0.949,0.295c1.188-0.66,0.502,0.586,1.688-0.074
							l-0.182,0.255c-0.007-0.039-0.079-0.003-0.086-0.042c-0.436,0.544,0.942-0.333,0.938,0.042
							c-0.033,0.149-0.164,0.317-0.342,0.332l0.417,0.047c0.014,0.076-0.199,0.18-0.213,0.104l0.286,0.275l-0.036,0.018
							c0.212-0.061,0.558-0.119,0.709-0.138c-0.119,0.182-0.148,0.03-0.283,0.137l0.391,0.017c-0.261,0.251-0.644,0.272-0.674,0.12
							c-1.072,0.854,0.384-0.02-0.085,0.747l-0.25-0.086c-0.601,0.499-0.281,0.494-0.582,0.931c0.189-0.173,0.818-1,1.226-0.972
							c-0.056,0.107-0.056,0.206,0.243,0.175c-0.417,0.244-0.253,0.289-0.153,0.406l-0.558,0.313
							c0.242,0.048,0.517-0.127,0.814-0.188c0.037,0.189-0.372,0.471-0.711,0.719c0.059,0.303,0.585-0.574,0.863-0.336
							c-0.089,0.333,0.222,0.349,0.699,0.408c-0.104,0.257-0.353,0.171-0.48,0.316l0.517-0.126c0.008,0.038-0.133,0.106-0.205,0.141
							c0.235,0.01,0.558-0.313,0.809-0.228c0.636-0.308-0.684,0.873,0.132,0.684c-0.126,0.144-0.354,0.172-0.558,0.313
							c0.625,0.029,0.476,0.059,1.227-0.056l-0.244,0.417c0.328-0.392,0.931-0.486,1.432-0.553c0.17-0.17,0.318-0.318,0.384-0.397
							l0.453,0.096c-0.072,0.085-0.277,0.169-0.534,0.26c0.057-0.01,0.111-0.02,0.162-0.028c-0.148,0.215-0.496,0.351-0.845,0.462
							c0.091-0.095,0.188-0.196,0.284-0.295c-0.374,0.129-0.782,0.284-1.098,0.486c0.074-0.02,0.148-0.018,0.201,0.001
							c-0.102,0.036-0.189,0.072-0.24,0.112c-0.053,0.043,0.086,0,0.252-0.038l-0.581,0.42l0.253-0.127l-0.181,0.576
							c0.767-0.109,1.808-0.422,2.294-0.171c-0.509,0.164-0.75,0.408-1.289,0.715c0.503-0.439-0.421-0.169-0.427-0.443
							c0.003,0.143-0.266,0.268-0.371,0.292l0.731,0.069c-0.443,0.247-0.283,0.27-0.408,0.472c0.823-0.577,0.737-0.061,1.09-0.065
							c-0.285,0.178-0.603,0.315-0.64,0.091c-0.534,0.582,1.168-0.331,0.731,0.19c-0.033-0.041-0.003-0.09-0.161-0.022
							c0.319-0.046,0.263,0.329-0.025,0.417l-0.032-0.041c0.071,0.356,0.521,0.908,1.281,0.524
							c-0.093,0.058-0.909,0.477-1.067,0.546l2.782-0.911c-0.658,0.321-2.057,1.376-2.557,1.337
							c-0.049,0.123-0.103,0.272,0.207,0.292c0.062-0.101,0.842-0.652,0.938-0.62c-0.597,0.59-0.303,0.345-0.772,0.917
							c0.094-0.151,1.13-0.648,1.165-0.515c-0.158,0.068-0.972,0.579-1.099,0.597l1.137-0.282c-0.216,0.031-0.831,0.467-1.068,0.691
							c0.173-0.14,0.125,0.257,0.266,0.276l0.155-0.252c0.04,0.407,1.551-0.479,1.686-0.13c-0.223,0.078-1.291,0.624-1.319,0.857
							c0.541-0.215,2.585-1.065,3.133-1.007l-0.253,0.22l0.45,0.028c-0.827,0.302-2.624,0.842-3.357,0.992
							c-0.155,0.251-0.316,0.229-0.185,0.394c-0.229,0.219-0.461,0.138-0.508,0.094l0.072,0.52c0.57-0.357,0.77-0.019,1.244-0.317
							l-0.868-0.104c0.569-0.356,1.802-0.697,1.873-0.34c-0.188,0.21-1.067,0.546-1.257,0.665c0.223-0.078,0.546,0.06,0.42,0.169
							l-0.384,0.055c-0.123,0.292,0.927-0.179,0.488,0.343c0.003,0.09-0.628,0.641-0.278,0.452c0.598-0.498,2.635-1.714,3.177-1.93
							c-0.031,0.05-0.424,0.729-0.706,0.999c-0.454,0.416-1.337,0.552-1.728,0.908c0.161-0.088,0.393-0.14,0.471-0.15
							c-0.093,0.151-0.509,0.256-0.346,0.371c0.604-0.317,0.136,0.347,0.541-0.216c0.257,0.055-0.026,0.233,0.104,0.398
							c0.347-0.279,1.389-0.593,1.647-0.538c-0.155,0.079-0.33,0.227-0.409,0.295c0.129,0.345-0.04,0.669,0.125,0.965
							c-0.127,0.11-0.217,0.352-0.506,0.439c0.129-0.019,0.351-0.096,0.418-0.014c-0.408,0.471-0.197-0.155-0.73,0.334
							c0.349-0.188,0.608-0.042,0.897-0.038c0.505-0.348-0.072-0.356-0.361-0.36c0.729-0.425,1.623-0.646,2.138-0.537
							c0.323,0.138-0.41,0.38-0.281,0.362c0.139,0.531,1.5-0.353,1.195,0.333c-0.376,0.421-0.92,0.545-1.236,0.774
							c-0.292-0.095,0.118-0.476,0.021-0.599l-0.123,0.293c-0.191,0.027-0.386-0.037-0.293-0.188
							c-0.344,0.369,0.369,0.818,0.189,1.395c0.192-0.028,0.416-0.014,0.573-0.174l-0.13-0.074c0.315-0.321,0.641-0.092,0.733-0.335
							c0.351-0.004,0.862-0.078,0.773,0.256l-0.506,0.348c0.152-0.095,0.235-0.321,0.039-0.287c0.286-0.049-0.529,0.741,0.221,0.433
							l0.281-0.361c0.354-0.005,1.024-0.147,0.966,0.137c0.474-0.39-0.085-0.008,0.45-0.497c-0.694,0.559-0.246-0.496-0.939,0.155
							c0.631-0.55,0.164-0.411,0.667-0.942c-0.172,0.107-0.298,0.258-0.303,0.051c-0.055,0.022-0.13,0.044-0.174,0.055l0.007-0.018
							l-0.016,0.021c-0.03,0.008-0.036,0.011-0.005,0.007c-0.055,0.082-0.129,0.166-0.219,0.235
							c-0.447,0.156-0.579-0.101-0.836-0.064c0.029-0.141,0.223-0.078,0.38-0.237l-0.383,0.055c0.38-0.238,0.5-0.623,0.855-0.536
							l-0.098-0.207c0.15-0.243,0.144-0.453-0.077-0.456c0.03-0.142-0.566,0.016-0.216-0.081l-0.42-0.169l0.095-0.06
							c-0.128-0.333-1.008-0.253-0.511-1.01c-0.158-0.046-0.339-0.082-0.33-0.318l0.316-0.229c-0.194-0.063,0.105-0.592-0.277-0.444
							c0.82-0.669-0.176-0.754-0.15-1.08l-0.444,0.247c-0.068-0.174-0.282-0.255-0.573-0.351l-0.38,0.238
							c-0.417,0.014,0.02-0.6-0.177-0.847c0.159-0.068,0.16,0.023,0.099,0.124c0.688-0.833-1.033-0.31-0.566-0.974
							c-0.183,0.009-0.166-0.072-0.098-0.18c0.005,0.006,0.015,0.008,0.031,0.006c0-0.01-0.005-0.022-0.013-0.033
							c0.048-0.071,0.106-0.149,0.147-0.222c-0.077,0.085-0.137,0.16-0.158,0.206c-0.041-0.051-0.139-0.109-0.285-0.136l0.396-0.278
							c-0.009-0.004-0.012-0.01-0.023-0.013c0.106-0.171-0.236,0.049-0.523,0.275c-0.093-0.002-0.198,0.007-0.316,0.036
							c0.633-0.458-0.354-0.088,0.31-0.596c-0.382,0.147-0.508-0.267-1.269,0.116c0.094-0.058,0.125-0.11,0.158-0.068
							c0.03-0.142,0.059-0.284-0.197-0.247l0.506-0.348l-0.83,0.211c0.25-0.312,0.408-0.472,0.886-0.586
							c-0.799,0.068-0.376-0.103-1.144,0.006l0.35-0.187c-0.066-0.083-0.608,0.04-0.357-0.179c0.533-0.581-0.491-1.05-0.188-1.919
							c-0.949,0.687,0.311-0.503-0.481-0.069c0.22-0.169,0.313-0.319,0.569-0.356c-0.388-0.127,0.146-0.617-0.618-0.416
							c0.221-0.169,0.382-0.147,0.508-0.256c-0.063,0.009-0.256,0.037-0.13-0.073c0.126-0.109,0.223-0.078,0.351-0.097
							c-0.197-0.247-0.947,0.154-1.647,0.536c0.246-0.327,0.161-0.368-0.349-0.204c0.197-0.179,0.387-0.396,0.565-0.275
							c-0.022-0.114-0.005-0.769-0.563-0.457c0.123-0.111-0.036-0.156-0.114-0.144c-0.09-0.23-0.051-0.278-0.225-0.456l-0.057,0.11
							c-0.714,0.307-0.25-0.086-0.427-0.207l0.071-0.035c0.257-0.664-0.327-0.032,0.001-0.73l-0.403,0.262
							c-0.912,0.484,0.331-0.642-0.139-0.663l-0.19,0.217c-0.375,0.057,1.017-1.042,1.058-1.228
							c0.062-0.072,0.149-0.031,0.228-0.028c0.342-0.622-0.567,0.275-0.83,0.113c0.267-0.214,0.777-0.377,0.739-0.568
							c0.191-0.217-1.218,0.095-0.783-0.449c-0.198,0.179-0.396,0.357-0.629,0.347c-0.178-0.121,0.589-0.95-0.21-0.687
							c0.049-0.057,0.103-0.1,0.159-0.133c-0.258-0.021-0.547-0.238-0.978-0.091c1.362-0.953-1.16-0.391,0.162-1.157l-0.3-0.353
							l0.141-0.068c-0.06-0.303-0.428-0.207-0.796-0.111c0.056-0.11,0.204-0.14,0.276-0.175c0.052-0.523-0.025-0.527-0.863-0.452
							l0.409-0.282c-0.297,0.062,0.362-0.923-0.348-0.993c0.05-0.024,0.138-0.065,0.215-0.072c-0.739-0.113,0.622-1.665-1.025-0.904
							l-0.541-0.044c0.081,0.417-0.707,0.342-0.882,0.636c-0.171-0.083,0.265-0.627,0.443-0.506l-0.063,0.072
							c0.849-0.413,0.037-0.599,0.596-0.912c-0.438-0.659-0.375-1.586-0.712-2.245l-0.589,0.441l-0.094-0.244
							c0.113-0.144,0.448-0.366,0.515-0.192c0.31-0.292-0.456-0.092-0.596-0.016c0.075-0.46,0.808-0.308,0.768-0.412l-0.123-0.102
							l-0.057,0.072c-0.319,0.045-0.599,0.195-0.679-0.014c0.056-0.195,0.354-0.289,0.351-0.351
							c0.045-0.026,0.057-0.054-0.024-0.083l-0.11-0.313l-0.434,0.403c-0.318,0.019-0.127-0.279-0.618,0.18
							c0.761-0.698-0.297-1.23-0.095-1.504c-0.465,0.038-0.559-0.138-0.639-0.377c-0.073,0.114-0.616,0.472-0.654,0.249
							c1.196-0.607,0.306-0.63,1.052-1.263c-0.475,0.455-0.441-0.443-1.104,0.222c0.004-0.208,0.428-0.262,0.632-0.537
							c-0.661-0.104-0.177-0.975-0.592-1.337c-0.156,0.081-0.344,0.292-0.627,0.327l0.621-0.681
							c-0.126-0.046-0.925,0.429-0.492-0.042c-0.115,0.098-0.287,0.244-0.371,0.213c0.226-1.316-1.659-1.453-0.791-3.162
							c-0.224,0.293-0.3,0.229-0.365,0.143c-0.036,0.102-0.376,0.217-0.575,0.349l0.353-0.709c-0.611,0.264-0.273-0.381-0.843-0.102
							l0.167,0.062c-0.737,0.217-1.304,1.057-2.146,1.516c0.836-0.25-0.814,1.1,0.405,0.779c-0.131,0.163-0.298,0.101-0.47,0.247
							c0.397-0.133,0.523-0.087,0.46,0.17l-0.099,0.033c0.356,0.413,0.123,0.815,0.193,1.472l0.387-0.277
							c0.011,0.144-0.104,0.242-0.176,0.354c0.695-0.233-0.148-0.334,0.604-0.616c-0.746,0.634,0.447,0.796-0.441,1.448
							c0.096,0.175,0.445-0.327,0.54-0.151l-0.229,0.195l0.355-0.149c0.011,0.145-0.275,0.388-0.49,0.519
							c0.01-0.042-0.105-0.043-0.142-0.061c-0.216,0.322,0.343,0.353,0.274,0.46l0.062-0.257c0.513,0.33,0.511,1.1,1.296,1.25
							l0.173-0.147c0.56,0.138-0.05,0.401,0.337,0.686l-0.054,0.013c0.237-0.036,0.393,0.009,0.432,0.126
							c-0.282,0.036-0.334,0.437-0.658,0.457c0.603,0.152,0.41,0.01,1.271-0.16l-0.287,0.244c0.339-0.084,0.496-0.166,0.69-0.024
							c-0.366,0.004-0.418,0.406-0.883,0.443c-0.468,0.807,1.053,0.18,0.135,0.96c0.993-0.333,0.291-0.632,0.541-0.64
							c0.24-0.255,0.751-0.235,0.735-0.058c0.055,0.139-1.008,0.877-0.804,1.188c-0.015-0.034-0.083,0.002-0.098-0.032
							c-0.157,0.252,0.443,0.057,0.162,0.418c0.584-0.23,0.08,0.209,0.778-0.166l-0.329-0.202c0.275,0.063,1.167-0.248,0.939,0.253
							c-0.15,0.059-0.379,0.083-0.513,0.085c-0.155,0.198,0.224,0.077,0.065,0.281c-0.699,0.375-0.357-0.271-0.983-0.145
							c-0.239,0.255,0.693,0.049-0.101,0.391c1.018-0.42,0.065,0.385,0.911,0.183l-0.418,0.225c0.084-0.003,0.319-0.045,0.346,0.024
							l-0.598,0.195c0.556-0.088-0.199,0.57,0.146,0.595c-0.218-0.346,0.448-0.367,0.66-0.69c0.803,0.115-0.926,0.875-0.446,1.248
							c-0.096-0.032,0.102-0.391,0.352-0.398c-0.03,0.142-0.117,0.356-0.298,0.538c0.273,0.273,0.393-0.295,0.725-0.305
							c-0.436,0.401,0.296,0.04,0.538,0.088l-0.416,0.244c-0.053,0.523,0.926-0.409,0.795,0.11l-0.66,0.197l0.25,0.085l-0.495,0.241
							c0.461-0.017,0.404,0.094,0.378,0.356c0.269-0.214,0.771-0.417,0.879-0.262c-0.183,0.256-0.433,0.169-0.238,0.365
							c-0.292,0.1-0.652,0.234-0.327-0.09c-0.142,0.069-0.292,0.101-0.432,0.168c-0.215,0.286,0.11,0.338,0.163,0.42
							c-0.003-0.041-0.003-0.093,0.045-0.147l0.772-0.001c-0.126,0.144-0.276,0.175-0.423,0.206
							c0.084,0.042,0.304-0.023,0.397,0.056c-0.354,0.172-0.7,0.382-0.941,0.333l0.562,0.1c-0.135,0.107-0.309,0.399-0.458,0.431
							c-0.096,0.293,0.91,0.051,0.784,0.438c0.073-0.026,0.15-0.039,0.228-0.017c0.052,0.265-0.25,0.702,0.366,0.693l-0.521,0.502
							c0.257,0.124,0.648-0.646,1.076-0.439c0.334,0.128-0.465,0.392-0.585,0.575c0.376-0.059,1.121-0.213,0.755,0.296
							C38.519,118.591,38.575,118.481,38.49,118.439z M40.229,120.805c-0.116,0.002-0.443,0.062-0.218-0.117
							C40.521,120.465,40.318,120.642,40.229,120.805z M43.467,124.055c-0.159,0.044-0.124-0.052-0.003-0.208
							C43.525,123.874,43.54,123.935,43.467,124.055z M52.593,133.047c-0.008,0.002-0.014,0.004-0.023,0.006
							C52.668,132.85,52.627,132.926,52.593,133.047z M52.544,133.378c0.072-0.011,0.128-0.046,0.181-0.09
							c-0.115,0.046-0.152-0.001-0.156-0.076C52.469,133.292,52.411,133.365,52.544,133.378z M38.213,109.16l-0.083,0.107
							C37.952,109.237,38.076,109.202,38.213,109.16z"/>
						<path fill="#2C2C2C" d="M42.643,123.953c0.063-0.055,0.138-0.104,0.214-0.153C42.776,123.821,42.695,123.868,42.643,123.953z"
							/>
						<polygon fill="#2C2C2C" points="37.356,116.998 37.357,116.988 37.277,117.024 						"/>
						<path fill="#2C2C2C" d="M46.966,131.931c0.033-0.082,0.094-0.152,0.163-0.215C47.025,131.772,46.952,131.843,46.966,131.931z"
							/>
						<path fill="#2C2C2C" d="M53.951,134.166l-0.193-0.082c0.062,0.058-0.015,0.136-0.061,0.21
							C53.793,134.234,53.918,134.125,53.951,134.166z"/>
						<path fill="#2C2C2C" d="M52.105,136.927c0.063-0.008,0.032,0.042,0.096,0.033l0.19-0.119
							C52.326,136.758,52.133,136.786,52.105,136.927z"/>
						<path fill="#2C2C2C" d="M52.645,135.107c-0.344,0.216-0.172,0.237-0.048,0.301c-0.005-0.005-0.011-0.01-0.01-0.018
							C53.094,135.134,52.869,135.121,52.645,135.107z"/>
						<path fill="#2C2C2C" d="M52.622,135.425c0.035,0.021,0.063,0.048,0.064,0.089C52.89,135.411,52.705,135.452,52.622,135.425z"
							/>
						<path fill="#2C2C2C" d="M52.944,133.53c-0.062,0.101,0.465-0.231,0.339-0.121C53.76,133.204,52.556,133.403,52.944,133.53z"/>
						<polygon fill="#2C2C2C" points="51.537,135.862 51.949,135.574 51.566,135.72 						"/>
						<path fill="#2C2C2C" d="M51.388,134.875l-0.025,0.232c0.071-0.044,0.126-0.049,0.173-0.042
							C51.491,134.956,51.514,134.796,51.388,134.875z"/>
						<path fill="#2C2C2C" d="M51.536,135.064c0.021,0.057,0.06,0.101,0.147,0.089C51.662,135.128,51.612,135.076,51.536,135.064z"
							/>
						<polygon fill="#2C2C2C" points="51.278,135.716 51.34,135.615 51.305,135.482 						"/>
						<path fill="#2C2C2C" d="M50.455,133.081l-0.228-0.104c-0.159,0.068-0.222,0.169-0.124,0.201
							C50.231,133.16,50.327,133.192,50.455,133.081z"/>
						<path fill="#2C2C2C" d="M49.581,134.308c0.062-0.1,0.157-0.16,0.284-0.27l-0.54,0.307L49.581,134.308z"/>
						<path fill="#2C2C2C" d="M49.155,133.864c-0.159,0.069-0.577-0.008-0.413,0.197C48.9,133.993,49.127,134.098,49.155,133.864z"
							/>
						<polygon fill="#2C2C2C" points="48.278,130.799 48.311,130.84 49.188,130.321 						"/>
						<path fill="#2C2C2C" d="M44.802,129.673c-0.089,0.333,0.572-0.267,0.419,0.077c0.237-0.072,0.125-0.28,0.334-0.334
							C45.262,129.417,45.347,129.277,44.802,129.673z"/>
						<path fill="#2C2C2C" d="M45.555,129.415c0.046,0,0.101-0.003,0.171-0.013C45.65,129.397,45.598,129.404,45.555,129.415z"/>
						<polygon fill="#2C2C2C" points="33.857,100.657 33.962,100.415 33.717,100.675 						"/>
						<path fill="#2C2C2C" d="M33.053,100.778l0.542-0.358l-0.555,0.214C33.083,100.65,33.167,100.681,33.053,100.778z"/>
						<path fill="#2C2C2C" d="M39.317,121.838l0.141-0.068c0.134-0.106,0.126-0.144,0.112-0.22L39.317,121.838z"/>
						<polygon fill="#2C2C2C" points="38.67,119.763 38.677,119.801 39.15,119.447 						"/>
						<path fill="#2C2C2C" d="M37.128,118.603c0.015,0.075,0.171,0.083,0.187,0.159C37.144,118.678,37.751,118.218,37.128,118.603z"
							/>
					</g>
				</g>
			</g>
		</g>
	</g>
</g>
</svg>
