<?xml version="1.0" encoding="utf-8"?>
<!-- Generator: Adobe Illustrator 16.0.0, SVG Export Plug-In . SVG Version: 6.00 Build 0)  -->
<!DOCTYPE svg PUBLIC "-//W3C//DTD SVG 1.0//EN" "http://www.w3.org/TR/2001/REC-SVG-20010904/DTD/svg10.dtd">
<svg version="1.0" id="Layer_1" xmlns="http://www.w3.org/2000/svg" xmlns:xlink="http://www.w3.org/1999/xlink" x="0px" y="0px"
	 width="111.258px" height="110.453px" viewBox="0 0 111.258 110.453" enable-background="new 0 0 111.258 110.453"
	 xml:space="preserve">
<g>
	<path fill="#101111" d="M110.088,55.543c0,30.12-24.42,54.543-54.539,54.543C25.422,110.086,1,85.663,1,55.543
		C1,25.42,25.422,1,55.549,1C85.668,1,110.088,25.42,110.088,55.543z"/>
</g>
<g opacity="0.7">
	<path fill="#FFFFFF" d="M55.549,99.424c-24.199,0-43.887-19.685-43.887-43.881c0-24.199,19.688-43.886,43.887-43.886
		c24.196,0,43.881,19.687,43.881,43.886C99.43,79.739,79.745,99.424,55.549,99.424z M55.549,12.157
		c-23.923,0-43.387,19.463-43.387,43.386c0,23.92,19.463,43.381,43.387,43.381c23.92,0,43.381-19.461,43.381-43.381
		C98.93,31.62,79.469,12.157,55.549,12.157z"/>
</g>
<g>
	<path fill="#FFFFFF" d="M27.083,40.252v-1.521h0.548c1.652,0,2.479-0.608,2.479-1.825v-0.304h1.733v12.273h-2.053v-8.624H27.083z"
		/>
	<path fill="#FFFFFF" d="M35.51,46.504l1.658-0.594c0.182,0.426,0.45,0.775,0.806,1.05c0.354,0.273,0.745,0.41,1.171,0.41
		c0.639,0,1.144-0.215,1.514-0.646c0.37-0.431,0.555-1.006,0.555-1.726c0-0.7-0.197-1.272-0.593-1.719s-0.897-0.67-1.506-0.67
		c-0.75,0-1.404,0.365-1.962,1.096l-1.263-0.487l0.639-6.509h6.084v1.657H38.37l-0.365,3.148c0.497-0.354,1.101-0.532,1.811-0.532
		c1.023,0,1.855,0.357,2.494,1.072s0.958,1.681,0.958,2.897c0,0.517-0.079,1.009-0.235,1.476c-0.158,0.466-0.391,0.897-0.7,1.293
		c-0.31,0.395-0.732,0.709-1.27,0.942c-0.538,0.233-1.151,0.35-1.841,0.35c-0.923,0-1.693-0.23-2.312-0.691
		C36.291,47.86,35.825,47.254,35.51,46.504z"/>
	<path fill="#FFFFFF" d="M48.986,38.656v-2.114h2.068v2.114H48.986z M49.077,48.74v-8.775h1.901v8.775H49.077z"/>
	<path fill="#FFFFFF" d="M52.483,41.607v-1.643h1.354v-2.602h1.917v2.602h2.008v1.643h-2.008v4.319c0,0.416,0.084,0.715,0.251,0.897
		s0.423,0.273,0.768,0.273h1.004v1.643h-1.247c-1.795,0-2.692-0.893-2.692-2.677v-4.456H52.483z"/>
	<path fill="#FFFFFF" d="M58.781,44.314c0-1.409,0.388-2.532,1.163-3.369s1.752-1.255,2.928-1.255c1.156,0,2.109,0.421,2.859,1.263
		s1.126,1.937,1.126,3.285c0,0.264-0.016,0.522-0.046,0.775h-6.084c0,0.67,0.2,1.245,0.601,1.727s0.951,0.723,1.65,0.723
		c0.487,0,0.915-0.119,1.285-0.357s0.651-0.545,0.845-0.921l1.612,0.548c-0.284,0.649-0.746,1.191-1.385,1.628
		c-0.639,0.436-1.435,0.653-2.388,0.653c-1.227,0-2.229-0.426-3.004-1.277S58.781,45.744,58.781,44.314z M60.757,43.66h4.138
		c0-0.669-0.178-1.239-0.532-1.711c-0.355-0.472-0.853-0.707-1.491-0.707s-1.148,0.241-1.528,0.723S60.768,43.011,60.757,43.66z"/>
	<path fill="#FFFFFF" d="M68.423,48.74v-8.775h1.87v1.019c0.152-0.294,0.426-0.583,0.821-0.867c0.396-0.283,0.872-0.426,1.43-0.426
		c0.964,0,1.674,0.522,2.13,1.566c0.07-0.142,0.164-0.283,0.281-0.426c0.116-0.142,0.278-0.309,0.486-0.502
		c0.208-0.192,0.477-0.347,0.807-0.464c0.329-0.116,0.687-0.175,1.072-0.175c1.795,0,2.691,1.136,2.691,3.407v5.643h-1.946v-5.582
		c0-0.608-0.086-1.064-0.259-1.369c-0.173-0.304-0.477-0.456-0.912-0.456c-0.518,0-0.936,0.216-1.255,0.646
		c-0.319,0.432-0.479,0.961-0.479,1.59v5.171h-1.901v-5.628c0-1.186-0.396-1.779-1.186-1.779c-0.548,0-0.972,0.203-1.271,0.608
		c-0.299,0.406-0.448,0.938-0.448,1.598v5.201H68.423z"/>
	<path fill="#FFFFFF" d="M81.336,46.915l1.384-0.806c0.608,0.892,1.399,1.338,2.373,1.338c0.477,0,0.854-0.094,1.133-0.281
		s0.418-0.438,0.418-0.753c0-0.253-0.113-0.477-0.342-0.669s-0.469-0.337-0.723-0.434c-0.253-0.097-0.634-0.226-1.141-0.388
		c-0.091-0.03-0.157-0.051-0.197-0.061c-0.365-0.122-0.672-0.241-0.921-0.357c-0.248-0.117-0.509-0.274-0.783-0.472
		c-0.273-0.198-0.481-0.446-0.623-0.745c-0.143-0.3-0.213-0.646-0.213-1.042c0-0.771,0.324-1.39,0.973-1.855
		c0.649-0.467,1.455-0.7,2.419-0.7c0.72,0,1.399,0.19,2.038,0.57c0.639,0.381,1.115,0.865,1.43,1.453l-1.277,0.775
		c-0.599-0.821-1.323-1.232-2.176-1.232c-0.466,0-0.823,0.094-1.072,0.281c-0.248,0.188-0.372,0.434-0.372,0.738
		c0,0.253,0.108,0.479,0.327,0.677c0.218,0.197,0.443,0.342,0.677,0.434c0.232,0.091,0.563,0.208,0.988,0.35
		c0.111,0.03,0.192,0.056,0.243,0.076c1.805,0.578,2.708,1.45,2.708,2.616c0,0.72-0.303,1.33-0.905,1.832
		c-0.604,0.502-1.458,0.753-2.563,0.753c-0.853,0-1.61-0.188-2.274-0.563S81.691,47.564,81.336,46.915z"/>
	<path fill="#FFFFFF" d="M20.286,57.345v-2.114h2.068v2.114H20.286z M20.376,67.429v-8.775h1.901v8.775H20.376z"/>
	<path fill="#FFFFFF" d="M24.559,67.429v-8.775h1.87v1.109h0.016c0.152-0.324,0.434-0.636,0.844-0.935
		c0.411-0.3,0.94-0.449,1.59-0.449c0.872,0,1.566,0.269,2.084,0.807c0.517,0.537,0.775,1.404,0.775,2.601v5.643h-1.932v-5.384
		c0-1.349-0.456-2.023-1.369-2.023c-0.558,0-1.021,0.224-1.392,0.669c-0.37,0.447-0.555,0.999-0.555,1.658v5.08H24.559z"/>
	<path fill="#FFFFFF" d="M36.742,60.296v-1.643h1.354v-2.602h1.917v2.602h2.008v1.643h-2.008v4.319c0,0.416,0.084,0.715,0.251,0.897
		s0.423,0.273,0.768,0.273h1.004v1.643h-1.247c-1.795,0-2.692-0.893-2.692-2.677v-4.456H36.742z"/>
	<path fill="#FFFFFF" d="M43.631,67.429V55.003h1.901v4.547h0.046c0.232-0.334,0.555-0.613,0.966-0.836
		c0.41-0.223,0.844-0.335,1.3-0.335c0.842,0,1.541,0.271,2.1,0.813c0.557,0.543,0.836,1.407,0.836,2.594v5.643h-1.916V62.03
		c0-1.339-0.457-2.008-1.369-2.008c-0.558,0-1.024,0.238-1.399,0.715s-0.563,1.034-0.563,1.673v5.02H43.631z"/>
	<path fill="#FFFFFF" d="M52.271,63.003c0-1.409,0.388-2.532,1.163-3.369s1.752-1.255,2.928-1.255c1.156,0,2.109,0.421,2.859,1.263
		s1.126,1.937,1.126,3.285c0,0.264-0.016,0.522-0.046,0.775h-6.084c0,0.67,0.2,1.245,0.601,1.727s0.951,0.723,1.65,0.723
		c0.487,0,0.915-0.119,1.285-0.357s0.651-0.545,0.845-0.921l1.612,0.548c-0.284,0.649-0.746,1.191-1.385,1.628
		c-0.639,0.436-1.435,0.653-2.388,0.653c-1.227,0-2.229-0.426-3.004-1.277S52.271,64.433,52.271,63.003z M54.248,62.349h4.138
		c0-0.669-0.178-1.239-0.532-1.711c-0.355-0.472-0.853-0.707-1.491-0.707s-1.148,0.241-1.528,0.723S54.258,61.701,54.248,62.349z"/>
	<path fill="#FFFFFF" d="M65.807,67.429V55.003h1.901v4.639c0.233-0.345,0.545-0.642,0.936-0.89c0.39-0.249,0.834-0.373,1.331-0.373
		c1.074,0,1.962,0.413,2.661,1.239c0.699,0.827,1.05,1.965,1.05,3.415c0,0.659-0.076,1.258-0.229,1.795s-0.35,0.98-0.593,1.331
		c-0.244,0.35-0.53,0.644-0.859,0.882c-0.33,0.238-0.662,0.408-0.996,0.51c-0.335,0.101-0.675,0.151-1.02,0.151
		c-0.517,0-0.986-0.14-1.407-0.418s-0.722-0.605-0.904-0.981v1.126H65.807z M67.693,63.034c0,0.933,0.186,1.671,0.556,2.213
		c0.37,0.543,0.854,0.813,1.452,0.813c0.588,0,1.069-0.258,1.445-0.775c0.375-0.518,0.563-1.268,0.563-2.251
		c0-0.923-0.18-1.655-0.54-2.198c-0.36-0.542-0.85-0.813-1.468-0.813c-0.608,0-1.095,0.276-1.46,0.829S67.693,62.131,67.693,63.034z
		"/>
	<path fill="#FFFFFF" d="M74.781,63.049c0-1.309,0.345-2.413,1.034-3.316c0.689-0.902,1.698-1.354,3.026-1.354
		c1.318,0,2.322,0.451,3.012,1.354c0.689,0.903,1.034,2.008,1.034,3.316c0,0.405-0.038,0.811-0.114,1.217
		c-0.076,0.405-0.211,0.818-0.403,1.239s-0.436,0.791-0.729,1.11s-0.683,0.58-1.164,0.783c-0.481,0.202-1.026,0.304-1.635,0.304
		c-0.599,0-1.139-0.099-1.62-0.296c-0.481-0.198-0.872-0.451-1.171-0.761s-0.548-0.674-0.745-1.095s-0.335-0.837-0.411-1.248
		C74.819,63.893,74.781,63.475,74.781,63.049z M76.757,63.049c0,1.014,0.208,1.77,0.624,2.266c0.416,0.497,0.902,0.745,1.46,0.745
		c0.548,0,1.029-0.248,1.445-0.745c0.415-0.496,0.623-1.252,0.623-2.266c0-1.035-0.208-1.798-0.623-2.289
		c-0.416-0.492-0.897-0.738-1.445-0.738s-1.032,0.246-1.452,0.738C76.968,61.251,76.757,62.014,76.757,63.049z"/>
	<path fill="#FFFFFF" d="M83.297,67.429l3.118-4.502l-2.966-4.273h2.327l1.126,1.9c0.283,0.508,0.486,0.862,0.608,1.065h0.061
		c0.162-0.294,0.359-0.649,0.593-1.065l1.126-1.9h2.342l-2.966,4.273l3.134,4.502h-2.282l-1.292-2.114
		c-0.082-0.132-0.193-0.314-0.335-0.548c-0.143-0.232-0.249-0.415-0.319-0.547h-0.061c-0.041,0.071-0.259,0.436-0.654,1.095
		l-1.293,2.114H83.297z"/>
</g>
</svg>
