<?xml version="1.0" encoding="utf-8"?>
<!-- Generator: Adobe Illustrator 16.0.0, SVG Export Plug-In . SVG Version: 6.00 Build 0)  -->
<!DOCTYPE svg PUBLIC "-//W3C//DTD SVG 1.0//EN" "http://www.w3.org/TR/2001/REC-SVG-20010904/DTD/svg10.dtd">
<svg version="1.0" id="Layer_1" xmlns="http://www.w3.org/2000/svg" xmlns:xlink="http://www.w3.org/1999/xlink" x="0px" y="0px"
	 width="110.612px" height="110.453px" viewBox="0 0 110.612 110.453" enable-background="new 0 0 110.612 110.453"
	 xml:space="preserve">
<g>
	<g>
		<path fill="#101111" d="M110.088,55.543c0,30.12-24.42,54.543-54.539,54.543C25.422,110.086,1,85.663,1,55.543
			C1,25.42,25.422,1,55.549,1C85.668,1,110.088,25.42,110.088,55.543z"/>
	</g>
	<g>
		<path fill="#FFFFFF" d="M36.85,60.311V46.406h5.273c1.477,0,2.584,0.328,3.322,0.984s1.107,1.553,1.107,2.689
			c0,0.68-0.158,1.263-0.475,1.749s-0.732,0.864-1.248,1.134c0.586,0.211,1.102,0.606,1.547,1.187s0.668,1.286,0.668,2.118
			c0,1.16-0.372,2.124-1.116,2.892s-1.784,1.151-3.12,1.151H36.85z M39.17,52.189h2.725c0.668,0,1.213-0.161,1.635-0.483
			s0.633-0.806,0.633-1.45c0-0.574-0.179-1.028-0.536-1.362s-0.911-0.501-1.661-0.501H39.17V52.189z M39.17,58.342h3.234
			c0.621,0,1.151-0.182,1.591-0.545s0.659-0.873,0.659-1.529c0-0.621-0.202-1.131-0.606-1.529s-0.97-0.598-1.696-0.598H39.17V58.342
			z"/>
		<path fill="#FFFFFF" d="M48.434,57.656c0-1.91,1.418-3.076,4.254-3.498c1.031-0.152,1.758-0.293,2.18-0.422v-0.545
			c0-0.492-0.176-0.879-0.527-1.16s-0.82-0.422-1.406-0.422c-1.113,0-2.074,0.457-2.883,1.371l-1.354-1.16
			c0.527-0.621,1.157-1.104,1.89-1.45s1.503-0.519,2.312-0.519c1.512,0,2.59,0.366,3.234,1.099s0.967,1.755,0.967,3.067v6.293
			h-2.162v-1.266c-0.211,0.434-0.577,0.806-1.099,1.116s-1.134,0.466-1.837,0.466c-1.113,0-1.986-0.275-2.619-0.826
			S48.434,58.535,48.434,57.656z M50.684,57.463c0,0.375,0.149,0.688,0.448,0.94s0.694,0.378,1.187,0.378
			c0.703,0,1.304-0.234,1.802-0.703s0.747-1.084,0.747-1.846v-0.932c-0.539,0.129-1.189,0.252-1.951,0.369
			C51.428,55.904,50.684,56.502,50.684,57.463z"/>
		<path fill="#FFFFFF" d="M58.489,52.066v-1.898h1.564v-3.006h2.215v3.006h2.32v1.898h-2.32v4.992c0,0.48,0.097,0.826,0.29,1.037
			s0.489,0.316,0.888,0.316h1.16v1.898h-1.441c-2.074,0-3.111-1.031-3.111-3.094v-5.15H58.489z"/>
		<path fill="#FFFFFF" d="M66.452,60.311V45.949h2.197v5.256h0.053c0.27-0.387,0.642-0.709,1.116-0.967s0.976-0.387,1.503-0.387
			c0.973,0,1.781,0.313,2.426,0.94s0.967,1.626,0.967,2.997v6.521h-2.215v-6.24c0-1.547-0.527-2.32-1.582-2.32
			c-0.645,0-1.184,0.275-1.617,0.826s-0.65,1.195-0.65,1.934v5.801H66.452z"/>
	</g>
	<g opacity="0.7">
		<path fill="#FFFFFF" d="M55.549,99.424c-24.199,0-43.887-19.685-43.887-43.881c0-24.199,19.688-43.886,43.887-43.886
			c24.196,0,43.881,19.687,43.881,43.886C99.43,79.739,79.745,99.424,55.549,99.424z M55.549,12.157
			c-23.923,0-43.387,19.463-43.387,43.386c0,23.92,19.463,43.381,43.387,43.381c23.92,0,43.381-19.461,43.381-43.381
			C98.93,31.62,79.469,12.157,55.549,12.157z"/>
	</g>
</g>
</svg>
