<?xml version="1.0" encoding="utf-8"?>
<!-- Generator: Adobe Illustrator 16.0.0, SVG Export Plug-In . SVG Version: 6.00 Build 0)  -->
<!DOCTYPE svg PUBLIC "-//W3C//DTD SVG 1.0//EN" "http://www.w3.org/TR/2001/REC-SVG-20010904/DTD/svg10.dtd">
<svg version="1.0" id="Layer_1" xmlns="http://www.w3.org/2000/svg" xmlns:xlink="http://www.w3.org/1999/xlink" x="0px" y="0px"
	 width="6.667px" height="6.833px" viewBox="0 0 6.667 6.833" enable-background="new 0 0 6.667 6.833" xml:space="preserve">
<g>
	<polygon fill="#FFFFFF" points="5.121,6.184 4.932,6.104 3.304,4.12 1.569,6.109 1.383,6.184 0.756,6.184 0.572,5.929 2.736,3.499 
		0.745,1.194 0.931,0.941 1.998,0.941 2.187,1.021 3.518,2.663 4.955,1.016 5.14,0.941 5.767,0.941 5.951,1.196 4.084,3.286 
		6.373,5.931 6.187,6.184 	"/>
	<path fill="#FFFFFF" d="M3.821,3.284L6.187,6.02H5.121l-1.81-2.208L1.383,6.02H0.756L3,3.5L0.931,1.105h1.067l1.513,1.867
		L5.14,1.105h0.627L3.821,3.284z"/>
</g>
</svg>
