<?xml version="1.0" encoding="utf-8"?>
<!-- Generator: Adobe Illustrator 16.0.0, SVG Export Plug-In . SVG Version: 6.00 Build 0)  -->
<!DOCTYPE svg PUBLIC "-//W3C//DTD SVG 1.0//EN" "http://www.w3.org/TR/2001/REC-SVG-20010904/DTD/svg10.dtd">
<svg version="1.0" id="Layer_1" xmlns="http://www.w3.org/2000/svg" xmlns:xlink="http://www.w3.org/1999/xlink" x="0px" y="0px"
	 width="165.5px" height="33px" viewBox="0 0 165.5 33" enable-background="new 0 0 165.5 33" xml:space="preserve">
<g>
	<path d="M12.79,28.028c-0.248,0-0.558-0.029-0.923-0.087l-0.165-0.159c-0.17-0.87-0.3-1.943-0.385-3.188
		c-0.084-1.229-0.148-2.591-0.19-4.049c-0.042-1.438-0.064-2.959-0.064-4.523c0-1.558-0.011-3.089-0.032-4.594
		s-0.047-2.93-0.08-4.277c-0.027-1.253-0.09-2.397-0.188-3.405c-0.427-0.049-0.857-0.073-1.279-0.073c-0.333,0-0.667,0.015-1,0.045
		c-0.825,0.075-1.645,0.165-2.458,0.27c-0.817,0.106-1.64,0.208-2.468,0.302C3.051,4.349,2.54,4.378,2.038,4.378
		c-0.334,0-0.668-0.013-1.002-0.039C0.79,4.317,0.534,4.26,0.271,4.17C0.077,4.104-0.237,3.9-0.165,3.289
		c0.024-0.27,0.159-0.544,0.4-0.811c0.233-0.256,0.488-0.386,0.759-0.386l9.474-0.561c0.024-0.091,0.056-0.201,0.096-0.33
		c0.069-0.218,0.16-0.429,0.271-0.627c0.12-0.214,0.258-0.391,0.421-0.542C11.421-0.122,11.613-0.2,11.825-0.2
		c0.414,0.029,0.676,0.14,0.868,0.333c0.168,0.169,0.313,0.354,0.428,0.548l0.288,0.496c0.081,0.141,0.151,0.151,0.175,0.155
		C16.959,1.33,20.5,1.266,24.076,1.14c0,0,0.247,0.005,0.523,0.016c0.291,0.012,0.492,0.029,0.604,0.051l0.149,0.13
		c0.16,0.456-0.015,0.842-0.494,1.087c-0.416,0.214-0.988,0.371-1.749,0.481c-0.734,0.106-1.581,0.182-2.518,0.225
		c-0.936,0.042-1.864,0.074-2.789,0.095C16.882,3.247,16.015,3.28,15.2,3.322c-0.723,0.038-1.313,0.093-1.758,0.164
		c-0.155,1.053-0.244,2.194-0.263,3.394c-0.021,1.276-0.016,2.601,0.016,3.937c0.032,1.353,0.09,2.742,0.175,4.128
		c0.084,1.4,0.164,2.779,0.239,4.137c0.075,1.375,0.123,2.705,0.143,3.953c0.021,1.265-0.011,2.469-0.096,3.581
		c0.092,0.454,0.164,1.149-0.301,1.333C13.213,28.002,13.029,28.028,12.79,28.028z"/>
	<path d="M10.946,3.567c-0.828-0.106-1.654-0.123-2.481-0.048C7.637,3.594,6.815,3.684,5.999,3.79S4.361,3.997,3.534,4.092
		C2.706,4.187,1.879,4.204,1.052,4.14C0.819,4.119,0.58,4.065,0.336,3.981s-0.345-0.308-0.302-0.668
		c0.021-0.233,0.138-0.466,0.35-0.7C0.595,2.38,0.819,2.274,1.052,2.295l9.576-0.573c0.021-0.106,0.064-0.259,0.127-0.461
		c0.064-0.202,0.148-0.398,0.255-0.589c0.107-0.191,0.233-0.355,0.382-0.493C11.54,0.041,11.71-0.017,11.9,0.004
		c0.275,0.021,0.493,0.111,0.652,0.27c0.159,0.16,0.291,0.33,0.397,0.509c0.106,0.18,0.202,0.345,0.286,0.493
		c0.085,0.148,0.191,0.234,0.318,0.254c3.415,0,6.925-0.063,10.53-0.19c0.063,0,0.233,0.005,0.509,0.016
		c0.275,0.011,0.466,0.027,0.572,0.048c0.127,0.361-0.005,0.642-0.397,0.843c-0.393,0.202-0.954,0.355-1.686,0.461
		s-1.564,0.18-2.498,0.223c-0.934,0.042-1.861,0.074-2.784,0.095c-0.923,0.021-1.792,0.054-2.609,0.096
		c-0.816,0.043-1.458,0.107-1.924,0.191C13.096,4.416,13,5.604,12.979,6.876c-0.021,1.273-0.016,2.588,0.016,3.945
		c0.032,1.358,0.09,2.736,0.175,4.135c0.084,1.4,0.164,2.778,0.239,4.136c0.074,1.357,0.122,2.672,0.143,3.945
		c0.021,1.271-0.011,2.459-0.095,3.563c0.127,0.68,0.068,1.066-0.175,1.162c-0.244,0.094-0.705,0.09-1.384-0.018
		c-0.17-0.869-0.297-1.924-0.382-3.164s-0.148-2.588-0.19-4.041c-0.043-1.453-0.064-2.959-0.064-4.517
		c0-1.559-0.011-3.091-0.032-4.597c-0.021-1.506-0.047-2.932-0.08-4.279C11.121,5.799,11.052,4.606,10.946,3.567z"/>
	<path d="M32.917,28.633c-0.189,0-0.375-0.046-0.554-0.136c-0.262-0.133-0.456-0.397-0.578-0.787c0.054-0.778,0.105-1.67,0.15-2.804
		c0.042-1.095,0.058-2.28,0.048-3.521c-0.011-1.243-0.048-2.508-0.111-3.762c-0.062-1.234-0.163-2.379-0.3-3.404
		c-0.138-1.009-0.317-1.847-0.532-2.492c-0.247-0.738-0.496-0.932-0.662-0.965c-0.266-0.082-0.511-0.121-0.747-0.121
		c-0.365,0-0.728,0.093-1.078,0.277c-0.598,0.315-1.17,0.821-1.7,1.504c-0.542,0.698-1.048,1.542-1.504,2.507
		c-0.462,0.978-0.893,2.021-1.282,3.101c-0.391,1.087-0.742,2.185-1.045,3.263c-0.307,1.094-0.558,2.101-0.745,2.994
		c-0.19,0.912-0.334,1.694-0.427,2.326c-0.116,0.78-0.124,1.086-0.11,1.206l-0.199,0.223c-0.139,0-0.31,0.024-0.51,0.072
		c-0.229,0.056-0.454,0.1-0.67,0.131c-0.087,0.014-0.173,0.021-0.255,0.021c-0.138,0-0.27-0.02-0.391-0.059
		c-0.143-0.047-0.378-0.185-0.378-0.587L18.795,1.44c0-0.284,0.14-0.481,0.395-0.561c0.138-0.043,0.291-0.065,0.453-0.065
		c0.064,0,0.13,0.003,0.198,0.01c0.229,0.023,0.453,0.082,0.666,0.175c0.226,0.101,0.376,0.205,0.461,0.318l0.041,0.119
		l0.148,18.742c0.035-0.137,0.072-0.28,0.11-0.433c0.207-0.824,0.47-1.739,0.784-2.718c0.32-1.002,0.718-2.042,1.185-3.09
		c0.468-1.056,1.05-2.023,1.729-2.875c0.681-0.855,1.505-1.542,2.448-2.041c0.785-0.415,1.679-0.625,2.658-0.625
		c0.212,0,0.429,0.01,0.651,0.029c0.478,0.246,0.842,0.532,1.162,0.875c0.323,0.348,0.614,0.828,0.866,1.428
		c0.249,0.596,0.467,1.353,0.647,2.249c0.18,0.891,0.336,2.021,0.464,3.36c0.127,1.334,0.229,2.954,0.303,4.815
		c0.074,1.862,0.123,4.069,0.144,6.559c-0.096,0.265-0.247,0.438-0.465,0.595c-0.213,0.155-0.45,0.258-0.702,0.305
		C33.065,28.626,32.991,28.633,32.917,28.633z"/>
	<path d="M31.975,27.65c0.064-0.721,0.116-1.633,0.159-2.736c0.042-1.104,0.058-2.281,0.048-3.531
		c-0.011-1.252-0.048-2.508-0.111-3.77c-0.063-1.263-0.165-2.403-0.302-3.421c-0.139-1.018-0.318-1.861-0.541-2.529
		s-0.494-1.034-0.812-1.098c-0.679-0.212-1.331-0.154-1.957,0.175c-0.625,0.329-1.214,0.848-1.765,1.559
		c-0.552,0.711-1.061,1.559-1.527,2.544c-0.466,0.986-0.896,2.026-1.289,3.119s-0.743,2.185-1.05,3.276
		c-0.307,1.093-0.557,2.095-0.748,3.007c-0.19,0.909-0.334,1.69-0.429,2.338c-0.096,0.646-0.133,1.065-0.111,1.258
		c-0.149,0-0.334,0.024-0.557,0.078s-0.441,0.097-0.652,0.127c-0.212,0.033-0.397,0.021-0.557-0.03
		c-0.16-0.053-0.239-0.187-0.239-0.396l-0.54-26.183c0-0.191,0.084-0.313,0.254-0.366c0.169-0.053,0.36-0.068,0.572-0.047
		c0.212,0.021,0.414,0.075,0.605,0.159c0.19,0.085,0.318,0.17,0.382,0.255l0.159,20.105c0.127-0.358,0.292-0.942,0.493-1.748
		c0.202-0.808,0.461-1.709,0.78-2.705c0.318-0.997,0.71-2.021,1.177-3.07c0.466-1.05,1.034-1.993,1.702-2.832
		c0.668-0.838,1.463-1.5,2.386-1.988c0.923-0.488,1.988-0.679,3.198-0.573c0.381,0.212,0.726,0.483,1.034,0.812
		c0.307,0.33,0.583,0.785,0.827,1.368c0.243,0.583,0.456,1.32,0.636,2.211c0.18,0.891,0.333,2.004,0.461,3.34
		c0.127,1.334,0.228,2.937,0.303,4.804c0.074,1.864,0.122,4.051,0.143,6.553c-0.064,0.147-0.191,0.293-0.382,0.431
		c-0.191,0.139-0.397,0.229-0.621,0.271c-0.223,0.041-0.44,0.01-0.652-0.097C32.24,28.211,32.081,27.988,31.975,27.65z"/>
	<path d="M42.601,28.198c-0.252,0-0.507-0.021-0.766-0.063c-1.1-0.019-2.012-0.353-2.683-0.991c-0.655-0.622-1.179-1.382-1.557-2.26
		c-0.375-0.868-0.653-1.799-0.824-2.766c-0.149-0.843-0.282-1.604-0.398-2.281c-0.119,0.035-0.257,0.053-0.415,0.053
		c-0.072,0-0.148-0.004-0.23-0.011c-0.387-0.032-0.75-0.118-1.076-0.253c-0.353-0.146-0.597-0.354-0.726-0.623
		c-0.148-0.313-0.002-0.656,0.435-1.019c0.165-0.143,0.356-0.247,0.564-0.309l0.541-0.157c0.156-0.049,0.276-0.112,0.366-0.195
		c0.079-0.071,0.127-0.198,0.143-0.379c0.021-0.95,0.102-1.942,0.24-2.937c0.14-1.014,0.408-1.934,0.797-2.733
		c0.397-0.814,0.972-1.473,1.709-1.956c0.61-0.4,1.385-0.603,2.302-0.603c0.206,0,0.419,0.01,0.641,0.03c0.001,0,0.003,0,0.005,0
		c0.426,0,0.93,0.106,1.48,0.314c0.545,0.208,1.073,0.482,1.568,0.816c0.504,0.34,0.947,0.75,1.317,1.219
		c0.38,0.481,0.618,1.01,0.708,1.572c0.112,0.125,0.182,0.477-0.31,0.969c-0.325,0.325-0.784,0.691-1.364,1.089
		c-0.571,0.391-1.229,0.795-1.957,1.203c-0.722,0.403-1.417,0.785-2.085,1.147l-1.766,0.954c-0.469,0.254-0.724,0.404-0.864,0.492
		c0.121,0.79,0.252,1.614,0.394,2.479c0.146,0.896,0.357,1.73,0.627,2.478c0.266,0.738,0.602,1.355,1,1.835
		c0.375,0.454,0.839,0.674,1.421,0.674c0.157,0.011,0.298,0.016,0.435,0.016c0.712,0,1.344-0.137,1.876-0.406
		c0.642-0.326,1.182-0.758,1.605-1.284c0.43-0.532,0.779-1.125,1.036-1.763c0.258-0.638,0.458-1.26,0.595-1.847
		c0.135-0.583,0.23-1.085,0.283-1.492c0.081-0.637,0.137-0.735,0.2-0.8c0.197-0.117,0.361-0.159,0.534-0.159
		c0.152,0,0.312,0.033,0.477,0.098c0.372,0.146,0.585,0.52,0.634,1.108c0.022,0.859-0.164,1.837-0.552,2.916
		c-0.387,1.076-0.927,2.078-1.604,2.979c-0.678,0.906-1.5,1.646-2.444,2.2C44.18,27.981,43.403,28.198,42.601,28.198z
		 M41.277,10.846c-0.205,0-0.412,0.015-0.621,0.044c-0.404,0.058-0.751,0.242-1.062,0.563c-0.321,0.331-0.585,0.758-0.786,1.27
		c-0.206,0.527-0.351,1.121-0.433,1.765c-0.07,0.555-0.088,1.124-0.055,1.697l6.241-3.549c-0.608-0.793-1.227-1.308-1.84-1.532
		C42.252,10.933,41.766,10.846,41.277,10.846z"/>
	<path d="M36.524,19.537c-0.148,0.127-0.409,0.176-0.779,0.143c-0.371-0.031-0.711-0.111-1.018-0.238
		c-0.308-0.127-0.514-0.301-0.621-0.524c-0.106-0.224,0.021-0.479,0.382-0.778c0.147-0.127,0.313-0.218,0.493-0.271
		c0.179-0.054,0.36-0.104,0.541-0.158c0.18-0.056,0.329-0.133,0.445-0.239c0.117-0.105,0.186-0.275,0.207-0.509
		c0.021-0.954,0.1-1.93,0.239-2.927c0.138-0.997,0.397-1.888,0.779-2.673c0.382-0.784,0.928-1.41,1.639-1.876
		c0.71-0.466,1.649-0.647,2.815-0.541c0.424,0,0.901,0.101,1.432,0.302c0.53,0.202,1.039,0.466,1.527,0.795s0.912,0.721,1.272,1.177
		c0.361,0.457,0.583,0.95,0.668,1.479c0.148,0.212,0.064,0.478-0.254,0.795s-0.764,0.674-1.336,1.066
		c-0.573,0.393-1.22,0.79-1.941,1.193c-0.721,0.403-1.416,0.784-2.083,1.146c-0.668,0.361-1.256,0.679-1.766,0.955
		c-0.508,0.275-0.837,0.467-0.986,0.572c0.127,0.828,0.265,1.695,0.414,2.607c0.148,0.912,0.36,1.75,0.636,2.514
		c0.275,0.764,0.621,1.396,1.034,1.895c0.413,0.5,0.938,0.746,1.575,0.746c0.933,0.064,1.733-0.074,2.401-0.412
		c0.668-0.34,1.225-0.784,1.67-1.338c0.446-0.551,0.8-1.153,1.066-1.813c0.265-0.656,0.466-1.283,0.604-1.877
		c0.138-0.594,0.233-1.098,0.286-1.512c0.053-0.412,0.101-0.641,0.144-0.684c0.233-0.128,0.498-0.134,0.795-0.017
		c0.296,0.116,0.466,0.43,0.508,0.938c0.021,0.828-0.159,1.771-0.541,2.832c-0.382,1.061-0.907,2.037-1.575,2.926
		c-0.668,0.893-1.463,1.606-2.386,2.147s-1.904,0.728-2.943,0.558c-1.082-0.021-1.941-0.334-2.577-0.938
		c-0.636-0.604-1.141-1.336-1.511-2.194c-0.372-0.859-0.642-1.767-0.811-2.722C36.799,21.129,36.651,20.279,36.524,19.537z
		 M44.859,12.698c-0.679-0.934-1.368-1.527-2.068-1.782s-1.421-0.329-2.163-0.223c-0.446,0.064-0.838,0.271-1.177,0.621
		c-0.339,0.35-0.616,0.795-0.828,1.336c-0.212,0.542-0.361,1.146-0.445,1.813c-0.084,0.668-0.096,1.352-0.032,2.052L44.859,12.698z"
		/>
	<path d="M57.694,27.805c-0.1,0-0.211-0.01-0.332-0.03c-0.002,0-0.004,0-0.007,0c-0.027,0-0.105-0.011-0.214-0.032
		c-0.102-0.021-0.314-0.063-0.314-0.258l0.061-22.992c-0.207-0.125-1.069-0.295-1.596-0.399c-1.282-0.253-1.586-0.337-1.63-0.578
		c-0.055-0.298-0.061-0.624-0.018-0.968c0.022-0.119,0.05-0.235,0.082-0.361c0.048-0.188,0.054-0.213,2.077-0.337
		c0.493-0.031,1.107-0.068,1.201-0.093c0.027-0.054,0.157-0.124,0.315-0.162c0.047-0.012,0.1-0.019,0.156-0.019
		c0.131,0,0.28,0.034,0.455,0.104c0.166,0.083,0.313,0.21,0.452,0.384c0.131,0.163,0.249,0.359,0.348,0.582
		c0.095,0.211,0.174,0.413,0.237,0.604c0.025,0.076,0.048,0.147,0.066,0.213c0.493-0.284,1.036-0.576,1.619-0.869
		c0.676-0.339,1.393-0.633,2.131-0.873c0.739-0.239,1.488-0.417,2.227-0.529c0.434-0.066,0.865-0.101,1.281-0.101
		c0.303,0,0.6,0.018,0.891,0.052C67.413,1.165,67.689,1.224,68,1.32c0.306,0.095,0.6,0.225,0.873,0.388
		c0.279,0.168,0.513,0.371,0.699,0.601c0.21,0.261,0.292,0.566,0.242,0.907c0.002,0.545-0.122,1.149-0.366,1.768
		c-0.239,0.604-0.549,1.215-0.922,1.816c-0.369,0.597-0.792,1.193-1.257,1.772c-0.462,0.577-0.914,1.117-1.356,1.621
		c-0.442,0.505-0.858,0.963-1.249,1.375c-0.152,0.161-0.291,0.311-0.415,0.45c0.542-0.171,1.142-0.326,1.794-0.46
		c0.724-0.15,1.451-0.226,2.16-0.226c0.225,0,0.449,0.008,0.671,0.022c0.935,0.063,1.789,0.299,2.538,0.7
		c0.774,0.416,1.297,1.099,1.556,2.03c0.071,0.593-0.036,1.231-0.314,1.927c-0.269,0.674-0.658,1.386-1.157,2.115
		c-0.489,0.715-1.078,1.452-1.752,2.191c-0.662,0.723-1.368,1.435-2.1,2.116c-0.734,0.685-1.478,1.32-2.209,1.889
		c-0.742,0.577-1.433,1.082-2.053,1.499c-0.631,0.425-1.193,0.751-1.671,0.969c-0.427,0.195-0.75,0.29-0.987,0.29
		c-0.053,0-0.104-0.005-0.149-0.014l-0.131-0.094l-0.737-1.229l0.211-0.299c0-0.005,0.16-0.042,0.834-0.48
		c0.555-0.36,1.217-0.833,1.967-1.406c0.769-0.585,1.597-1.255,2.463-1.991c0.878-0.748,1.706-1.506,2.461-2.251
		c0.758-0.749,1.407-1.482,1.929-2.178c0.51-0.677,0.807-1.272,0.884-1.77c0.09-0.637-0.067-1.082-0.481-1.357
		c-0.445-0.294-1.063-0.443-1.838-0.443c-0.796,0-1.697,0.137-2.679,0.407c-0.987,0.273-1.937,0.631-2.82,1.064
		c-0.879,0.43-1.66,0.933-2.323,1.495c-0.642,0.546-1.044,1.111-1.195,1.683c-0.076,0.603-0.127,1.259-0.147,1.925
		c-0.021,0.677-0.035,1.355-0.045,2.042l-0.031,2.045c-0.012,0.684-0.059,1.343-0.14,1.962c-0.063,0.464-0.154,0.852-0.272,1.153
		C58.404,27.554,58.2,27.805,57.694,27.805z M66.269,3.228c-0.192,0-0.398,0.006-0.619,0.02c-0.511,0.031-1.055,0.102-1.616,0.212
		c-0.558,0.11-1.127,0.268-1.69,0.469c-0.555,0.199-1.068,0.446-1.525,0.735c-0.449,0.283-0.83,0.615-1.134,0.987
		c-0.292,0.358-0.468,0.759-0.524,1.191c-0.061,0.403-0.105,0.909-0.136,1.553c-0.031,0.632-0.046,1.286-0.046,1.958
		c0,0.678,0.025,1.335,0.076,1.951c0.038,0.475,0.091,0.893,0.157,1.249c0.336-0.283,0.757-0.641,1.263-1.076
		c0.635-0.543,1.324-1.167,2.05-1.854c0.724-0.684,1.438-1.41,2.123-2.158c0.685-0.747,1.261-1.478,1.714-2.173
		c0.445-0.685,0.73-1.314,0.847-1.87c0.103-0.489-0.001-0.872-0.319-1.167C66.702,3.237,66.495,3.228,66.269,3.228z"/>
	<path d="M57.088,4.417c-0.103-0.349-3.18-0.661-3.23-0.938c-0.051-0.277-0.057-0.579-0.016-0.907
		c0.02-0.103,0.046-0.215,0.077-0.338C53.95,2.111,57,2.013,57.073,1.941c0.072-0.072,0.169-0.123,0.292-0.153
		c0.123-0.031,0.286-0.005,0.491,0.077c0.123,0.063,0.246,0.169,0.369,0.323c0.123,0.153,0.23,0.333,0.322,0.538
		c0.092,0.205,0.169,0.4,0.23,0.585c0.062,0.184,0.103,0.338,0.123,0.461c0.553-0.328,1.167-0.661,1.842-1
		c0.675-0.339,1.376-0.625,2.103-0.861c0.726-0.235,1.458-0.41,2.195-0.522c0.737-0.113,1.443-0.128,2.119-0.047
		c0.225,0.021,0.486,0.078,0.783,0.169c0.296,0.092,0.572,0.216,0.829,0.369c0.255,0.154,0.471,0.338,0.645,0.554
		c0.173,0.215,0.241,0.467,0.2,0.753c0,0.554-0.119,1.128-0.354,1.723c-0.235,0.595-0.537,1.189-0.906,1.784
		c-0.368,0.595-0.783,1.179-1.243,1.753c-0.461,0.574-0.911,1.112-1.351,1.614c-0.44,0.503-0.855,0.959-1.243,1.369
		c-0.389,0.411-0.686,0.749-0.891,1.015c0.695-0.266,1.515-0.497,2.456-0.692s1.867-0.261,2.778-0.2
		c0.911,0.062,1.73,0.288,2.456,0.677c0.726,0.39,1.213,1.026,1.458,1.907c0.062,0.533-0.041,1.133-0.307,1.799
		c-0.266,0.667-0.645,1.358-1.136,2.076c-0.491,0.719-1.07,1.44-1.735,2.17c-0.665,0.727-1.361,1.428-2.088,2.104
		c-0.726,0.677-1.458,1.304-2.195,1.877c-0.736,0.573-1.417,1.071-2.042,1.491c-0.625,0.421-1.172,0.738-1.643,0.953
		c-0.471,0.215-0.809,0.304-1.013,0.262l-0.737-1.229c0.102,0.021,0.43-0.149,0.983-0.509c0.552-0.358,1.212-0.829,1.98-1.415
		c0.768-0.585,1.591-1.25,2.471-1.998c0.88-0.75,1.704-1.503,2.472-2.261c0.767-0.759,1.417-1.492,1.949-2.2
		c0.532-0.707,0.839-1.327,0.921-1.86c0.102-0.718-0.088-1.235-0.568-1.554c-0.48-0.317-1.131-0.477-1.949-0.477
		c-0.819,0-1.73,0.139-2.732,0.415c-1.003,0.277-1.955,0.636-2.855,1.077c-0.901,0.441-1.688,0.948-2.364,1.522
		c-0.676,0.574-1.096,1.169-1.259,1.784c-0.082,0.636-0.133,1.293-0.153,1.97c-0.021,0.678-0.036,1.357-0.046,2.045
		c-0.01,0.686-0.02,1.368-0.031,2.045c-0.011,0.678-0.057,1.323-0.138,1.938c-0.061,0.45-0.148,0.819-0.26,1.106
		c-0.113,0.287-0.415,0.39-0.906,0.308c-0.042,0-0.113-0.011-0.215-0.031c-0.103-0.021-0.153-0.041-0.153-0.062L57.088,4.417z
		 M58.961,6.816c-0.062,0.411-0.107,0.934-0.138,1.569c-0.031,0.635-0.046,1.292-0.046,1.968c0,0.677,0.025,1.333,0.077,1.968
		c0.051,0.636,0.127,1.169,0.23,1.6c0.368-0.308,0.875-0.738,1.52-1.292c0.645-0.553,1.33-1.173,2.057-1.861
		c0.726-0.687,1.438-1.41,2.133-2.168c0.696-0.759,1.274-1.492,1.734-2.199c0.461-0.708,0.753-1.354,0.875-1.938
		c0.123-0.584-0.02-1.051-0.43-1.4c-0.368-0.041-0.813-0.046-1.335-0.015c-0.522,0.031-1.07,0.103-1.643,0.215
		c-0.573,0.113-1.146,0.272-1.719,0.477c-0.573,0.205-1.095,0.457-1.565,0.754c-0.471,0.297-0.865,0.641-1.182,1.03
		C59.211,5.914,59.022,6.344,58.961,6.816z"/>
	<path d="M75.678,27.775c-0.26,0-0.504-0.093-0.726-0.275c-0.232-0.194-0.349-0.489-0.349-0.879l-0.4-18.201l0.11-0.183
		c0.131-0.066,0.285-0.122,0.47-0.169C74.965,8.023,75.142,8,75.309,8c0.18,0,0.355,0.037,0.523,0.108
		c0.187,0.08,0.334,0.226,0.438,0.433c0.021,1.421,0.038,2.86,0.068,4.407c0.029,1.547,0.07,3.115,0.121,4.702
		c0.051,1.591,0.098,3.155,0.139,4.691c0.041,1.538,0.081,2.964,0.123,4.273c0.024,0.363-0.081,0.656-0.311,0.863
		C76.188,27.676,75.941,27.775,75.678,27.775z M75.056,3.76c-0.097,0-0.196-0.015-0.294-0.042C74.5,3.642,74.277,3.47,74.099,3.207
		c-0.175-0.258-0.264-0.617-0.264-1.065c0-0.433,0.21-0.629,0.386-0.718c0.212-0.106,0.449-0.16,0.704-0.16
		c0.673,0,0.933,0.313,1.031,0.576c0.121,0.32,0.182,0.69,0.182,1.101c-0.164,0.374-0.359,0.58-0.604,0.701
		C75.38,3.72,75.219,3.76,75.056,3.76z"/>
	<path d="M74.035,2.141c0-0.266,0.092-0.446,0.276-0.539c0.184-0.092,0.388-0.138,0.614-0.138c0.45,0,0.732,0.149,0.844,0.446
		c0.112,0.297,0.169,0.642,0.169,1.031c-0.123,0.246-0.287,0.42-0.492,0.522c-0.205,0.103-0.414,0.124-0.629,0.062
		c-0.215-0.062-0.399-0.204-0.553-0.431C74.112,2.869,74.035,2.552,74.035,2.141z M74.403,8.416c0.123-0.062,0.266-0.112,0.43-0.154
		C74.997,8.221,75.156,8.2,75.309,8.2s0.302,0.031,0.445,0.092s0.256,0.174,0.338,0.338c0,1.333,0.016,2.773,0.046,4.321
		c0.03,1.548,0.071,3.117,0.122,4.705c0.051,1.59,0.098,3.154,0.139,4.689c0.041,1.539,0.081,2.965,0.123,4.275
		c0.02,0.309-0.062,0.543-0.245,0.708c-0.185,0.164-0.384,0.246-0.599,0.246c-0.215,0-0.414-0.077-0.599-0.229
		c-0.184-0.154-0.276-0.396-0.276-0.725L74.403,8.416z"/>
	<path d="M80.8,32.62c-0.408,0-0.824-0.041-1.238-0.123c-0.002,0-0.005,0-0.007,0c-0.06,0-0.168-0.043-0.314-0.134
		c-0.146-0.088-0.261-0.215-0.341-0.376c-0.083-0.164-0.102-0.357-0.057-0.572c0.052-0.22,0.206-0.435,0.472-0.661l0.119-0.048
		c1.288-0.068,2.396-0.344,3.295-0.82c0.9-0.477,1.654-1.111,2.24-1.888c0.589-0.779,1.038-1.704,1.334-2.748
		c0.298-1.053,0.494-2.212,0.583-3.446c0.054-0.8,0.085-1.505,0.094-2.119c0.009-0.612,0-1.171-0.027-1.675
		c-0.027-0.51-0.058-0.994-0.093-1.457c-0.036-0.465-0.073-0.948-0.107-1.45c-0.035-0.502-0.067-1.044-0.094-1.626
		c-0.013-0.268-0.022-0.554-0.029-0.857c-0.719,2.026-1.405,3.712-2.046,5.024c-0.754,1.543-1.471,2.729-2.131,3.524
		c-0.685,0.824-1.295,1.31-1.865,1.484c-0.239,0.073-0.469,0.109-0.686,0.109c-0.308,0-0.595-0.074-0.853-0.221
		c-0.427-0.243-0.778-0.642-1.045-1.187c-0.256-0.52-0.434-1.065-0.528-1.622c0.034-0.952,0.208-1.964,0.515-3.05
		c0.304-1.084,0.714-2.168,1.218-3.222c0.501-1.048,1.094-2.042,1.762-2.954c0.672-0.917,1.409-1.659,2.191-2.205
		c0.795-0.554,1.626-0.872,2.47-0.947c0.089-0.008,0.178-0.012,0.267-0.012c0.757,0,1.523,0.286,2.279,0.85
		c0.143,0.036,0.154,0.209,0.191,0.77l0.107,1.663c0.044,0.698,0.089,1.508,0.134,2.429c0.044,0.921,0.094,1.88,0.147,2.881
		c0.053,1.002,0.103,2.001,0.147,3.004c0.044,1,0.094,1.928,0.147,2.785c0.019,1.689-0.238,3.256-0.763,4.666
		c-0.526,1.414-1.238,2.626-2.117,3.604c-0.885,0.985-1.911,1.715-3.051,2.169C82.364,32.467,81.583,32.62,80.8,32.62z
		 M85.571,9.361c-0.062,0-0.133,0.008-0.213,0.025c-0.521,0.101-1.037,0.361-1.536,0.776c-0.513,0.426-1.003,0.947-1.456,1.549
		c-0.456,0.605-0.878,1.282-1.255,2.009c-0.375,0.722-0.701,1.462-0.969,2.203c-0.264,0.729-0.474,1.438-0.623,2.107
		c-0.149,0.657-0.224,1.229-0.224,1.698c0.104,0.311,0.295,0.751,0.566,0.751c0.265-0.008,0.591-0.226,0.948-0.63
		c0.394-0.445,0.813-1.061,1.249-1.829c0.446-0.786,0.9-1.653,1.348-2.576c0.455-0.936,0.896-1.89,1.324-2.862
		c0.429-0.975,0.832-1.875,1.208-2.697c-0.019-0.098-0.06-0.27-0.143-0.428C85.782,9.429,85.746,9.361,85.571,9.361z"/>
	<path d="M79.444,30.906c1.323-0.07,2.449-0.352,3.378-0.844c0.929-0.492,1.698-1.14,2.306-1.943
		c0.608-0.805,1.063-1.743,1.367-2.814c0.304-1.072,0.5-2.234,0.59-3.486c0.054-0.805,0.085-1.514,0.094-2.131
		c0.009-0.617,0-1.181-0.027-1.688c-0.027-0.511-0.058-0.997-0.094-1.461c-0.036-0.465-0.072-0.947-0.107-1.448
		c-0.035-0.501-0.067-1.041-0.094-1.622c-0.027-0.581-0.041-1.247-0.041-1.998c-0.858,2.521-1.662,4.549-2.413,6.086
		c-0.751,1.537-1.453,2.698-2.105,3.484c-0.653,0.786-1.243,1.26-1.77,1.421c-0.527,0.161-0.988,0.13-1.381-0.094
		s-0.715-0.591-0.965-1.101c-0.251-0.509-0.42-1.031-0.51-1.567c0.036-0.894,0.205-1.882,0.51-2.962
		c0.304-1.082,0.706-2.145,1.206-3.19c0.5-1.046,1.082-2.02,1.743-2.922c0.661-0.902,1.376-1.622,2.145-2.159
		c0.769-0.536,1.56-0.84,2.373-0.912c0.813-0.071,1.631,0.206,2.453,0.832c0.018-0.018,0.04,0.179,0.067,0.59
		s0.063,0.965,0.107,1.662c0.044,0.697,0.089,1.506,0.134,2.426c0.044,0.921,0.094,1.881,0.147,2.882
		c0.053,1.001,0.103,2,0.147,3.002c0.044,1.001,0.094,1.931,0.147,2.789c0.018,1.662-0.232,3.189-0.751,4.584
		s-1.211,2.574-2.078,3.539c-0.867,0.966-1.859,1.672-2.976,2.117c-1.117,0.447-2.266,0.556-3.445,0.322
		c-0.054,0-0.139-0.035-0.255-0.107c-0.117-0.07-0.206-0.17-0.268-0.295c-0.063-0.125-0.076-0.271-0.04-0.441
		C79.078,31.287,79.212,31.104,79.444,30.906z M79.096,19.729c0.197,0.644,0.456,0.959,0.778,0.951
		c0.322-0.01,0.684-0.242,1.086-0.697s0.827-1.076,1.273-1.863c0.446-0.786,0.898-1.648,1.354-2.587
		c0.456-0.938,0.898-1.895,1.327-2.869c0.429-0.974,0.831-1.873,1.207-2.695c0-0.214-0.049-0.416-0.147-0.604
		c-0.099-0.188-0.317-0.246-0.657-0.174c-0.554,0.107-1.095,0.38-1.622,0.818c-0.527,0.438-1.023,0.965-1.488,1.582
		c-0.465,0.617-0.889,1.296-1.273,2.038c-0.385,0.742-0.71,1.484-0.979,2.226s-0.479,1.454-0.63,2.131
		C79.172,18.664,79.096,19.244,79.096,19.729z"/>
	<path d="M101.916,29.441c-0.265,0-0.498-0.097-0.687-0.286c-0.203-0.204-0.253-0.519-0.151-0.934
		c0.03-0.179,0.219-0.354,1.056-0.629c0.596-0.193,1.336-0.426,2.225-0.696c0.883-0.269,1.865-0.583,2.943-0.939
		c1.062-0.349,2.107-0.755,3.108-1.206c0.98-0.442,1.88-0.943,2.673-1.49c0.77-0.53,1.338-1.123,1.688-1.761l0,0
		c-0.024,0-0.025-0.288-0.613-0.53c-0.459-0.187-1.076-0.346-1.836-0.474c-0.769-0.128-1.657-0.235-2.641-0.32
		c-0.988-0.087-2.022-0.208-3.074-0.357c-1.021-0.146-2.058-0.344-3.08-0.588c-1.005-0.239-1.916-0.577-2.706-1.006
		c-0.799-0.434-1.453-0.987-1.943-1.644c-0.5-0.668-0.753-1.51-0.753-2.5c0-0.954,0.218-1.934,0.648-2.914
		c0.425-0.97,0.995-1.927,1.693-2.844c0.694-0.911,1.504-1.781,2.407-2.588c0.9-0.801,1.852-1.517,2.83-2.127
		c0.983-0.611,1.967-1.096,2.922-1.443c0.969-0.353,1.886-0.531,2.725-0.531c0.214,0,0.437-0.004,0.672-0.016l0.15-0.003
		c0.195,0,0.376,0.019,0.536,0.056c0.227,0.053,0.415,0.168,0.561,0.342c0.149,0.176,0.226,0.432,0.226,0.76
		c0,0.758-0.259,1.316-0.77,1.657c-0.484,0.324-1.077,0.488-1.763,0.488l-1.455-0.464c-0.447,0.01-1.035,0.162-1.687,0.461
		c-0.665,0.306-1.344,0.724-2.019,1.241c-0.677,0.518-1.351,1.122-2.003,1.794c-0.651,0.674-1.233,1.374-1.73,2.082
		c-0.498,0.71-0.905,1.428-1.211,2.135c-0.301,0.697-0.453,1.33-0.453,1.88c0,0.685,0.213,1.226,0.652,1.655
		c0.453,0.442,1.061,0.803,1.808,1.073c0.76,0.275,1.646,0.485,2.632,0.623c1.002,0.141,2.021,0.264,3.056,0.369
		c1.039,0.109,2.061,0.23,3.067,0.357c1,0.129,1.91,0.312,2.704,0.541c0.798,0.233,1.454,0.562,1.951,0.978
		c0.521,0.438,0.785,1.028,0.785,1.758c0,0.691-0.276,1.388-0.822,2.07c-0.528,0.66-1.229,1.299-2.081,1.898
		c-0.843,0.597-1.829,1.158-2.932,1.67c-1.084,0.507-2.198,0.946-3.312,1.306c-1.109,0.36-2.203,0.641-3.249,0.832
		c-0.949,0.178-1.797,0.268-2.519,0.268L101.916,29.441z"/>
	<path d="M101.272,28.27c0.022-0.129,0.33-0.291,0.924-0.486c0.594-0.193,1.333-0.426,2.22-0.695
		c0.885-0.27,1.868-0.584,2.947-0.941c1.08-0.354,2.123-0.76,3.128-1.213s1.905-0.957,2.704-1.508c0.8-0.551,1.383-1.16,1.75-1.83
		c0-0.346-0.237-0.615-0.713-0.811c-0.476-0.193-1.103-0.355-1.879-0.486c-0.777-0.129-1.662-0.236-2.656-0.322
		c-0.994-0.088-2.016-0.207-3.063-0.356c-1.047-0.149-2.067-0.347-3.062-0.584c-0.994-0.236-1.879-0.565-2.657-0.987
		c-0.777-0.422-1.403-0.951-1.878-1.588c-0.476-0.637-0.713-1.43-0.713-2.381c0-0.928,0.21-1.874,0.631-2.834
		c0.421-0.961,0.978-1.896,1.669-2.803c0.691-0.907,1.485-1.76,2.381-2.56c0.896-0.798,1.832-1.501,2.802-2.106
		c0.973-0.604,1.935-1.08,2.885-1.425c0.949-0.345,1.836-0.519,2.656-0.519c0.217,0,0.442-0.005,0.682-0.016
		c0.236-0.011,0.447,0.005,0.631,0.048c0.186,0.043,0.336,0.135,0.453,0.275c0.119,0.141,0.179,0.352,0.179,0.632
		c0,0.692-0.228,1.188-0.681,1.491c-0.453,0.303-1.004,0.454-1.651,0.454l-1.394-0.454c-0.541,0-1.151,0.157-1.832,0.47
		c-0.68,0.313-1.365,0.734-2.057,1.264c-0.691,0.529-1.366,1.134-2.025,1.814c-0.659,0.681-1.243,1.383-1.75,2.106
		c-0.508,0.724-0.918,1.447-1.231,2.17c-0.313,0.725-0.47,1.377-0.47,1.96c0,0.734,0.238,1.334,0.712,1.798
		c0.476,0.465,1.102,0.837,1.88,1.118c0.777,0.281,1.668,0.492,2.673,0.633c1.004,0.141,2.025,0.264,3.063,0.37
		c1.037,0.109,2.058,0.229,3.063,0.356c1.004,0.13,1.895,0.31,2.674,0.535c0.776,0.227,1.403,0.541,1.879,0.938
		c0.476,0.399,0.713,0.937,0.713,1.604c0,0.647-0.26,1.297-0.778,1.945c-0.519,0.647-1.198,1.268-2.04,1.86
		c-0.844,0.597-1.811,1.146-2.9,1.651c-1.092,0.511-2.188,0.941-3.289,1.297c-1.101,0.357-2.176,0.634-3.224,0.826
		c-1.047,0.195-1.949,0.281-2.705,0.261c-0.216,0-0.4-0.076-0.551-0.228C101.219,28.861,101.187,28.613,101.272,28.27z"/>
	<path d="M119.7,29.666c-0.063,0-0.127-0.006-0.191-0.018c-0.202-0.039-0.389-0.122-0.554-0.248
		c-0.177-0.135-0.293-0.302-0.347-0.495L118.536,2.22l0.09-0.167c0.13-0.085,0.262-0.176,0.4-0.272
		c0.165-0.113,0.337-0.189,0.512-0.226c0.063-0.014,0.126-0.021,0.187-0.021c0.127,0,0.246,0.03,0.355,0.089
		c0.161,0.088,0.291,0.259,0.397,0.522l0.209,26.803c-0.149,0.349-0.324,0.528-0.542,0.624
		C119.997,29.635,119.848,29.666,119.7,29.666z"/>
	<path d="M118.736,2.219c0.131-0.086,0.265-0.178,0.404-0.275c0.141-0.097,0.286-0.162,0.438-0.194
		c0.151-0.033,0.286-0.016,0.405,0.049c0.117,0.064,0.221,0.206,0.308,0.421l0.194,26.729c-0.107,0.217-0.248,0.363-0.422,0.439
		c-0.172,0.073-0.346,0.096-0.519,0.063c-0.173-0.033-0.33-0.104-0.47-0.211c-0.141-0.107-0.233-0.238-0.275-0.39L118.736,2.219z"/>
	<path d="M129.821,29.408c-0.257,0-0.518-0.021-0.781-0.064c-1.119-0.019-2.047-0.358-2.729-1.008
		c-0.665-0.632-1.198-1.406-1.585-2.301c-0.384-0.888-0.666-1.835-0.84-2.814c-0.153-0.863-0.29-1.638-0.408-2.328
		c-0.12,0.036-0.262,0.054-0.426,0.054c-0.073,0-0.15-0.004-0.233-0.011c-0.393-0.032-0.762-0.118-1.097-0.257
		c-0.356-0.146-0.604-0.359-0.735-0.634c-0.152-0.318-0.004-0.666,0.441-1.033c0.169-0.146,0.364-0.253,0.576-0.313l0.551-0.162
		c0.15-0.044,0.277-0.111,0.374-0.198c0.079-0.071,0.128-0.203,0.146-0.391c0.021-0.957,0.103-1.967,0.243-2.988
		c0.144-1.036,0.417-1.972,0.813-2.782c0.401-0.827,0.986-1.497,1.738-1.99c0.62-0.407,1.407-0.614,2.34-0.614
		c0.21,0,0.429,0.01,0.655,0.031c0.001,0,0.003,0,0.005,0c0.435,0,0.947,0.108,1.507,0.32c0.558,0.213,1.094,0.493,1.596,0.832
		c0.514,0.347,0.965,0.765,1.34,1.241c0.387,0.489,0.63,1.027,0.723,1.598c0.112,0.128,0.182,0.484-0.315,0.983
		c-0.335,0.334-0.802,0.707-1.39,1.109c-0.585,0.401-1.255,0.813-1.993,1.225c-0.734,0.41-1.443,0.799-2.124,1.167
		s-1.279,0.691-1.798,0.975c-0.479,0.258-0.74,0.411-0.883,0.502c0.124,0.804,0.259,1.647,0.402,2.528
		c0.148,0.917,0.362,1.766,0.638,2.524c0.271,0.75,0.613,1.379,1.019,1.868c0.386,0.465,0.86,0.69,1.45,0.69
		c0.157,0.01,0.298,0.015,0.436,0.015c0.732,0,1.379-0.14,1.92-0.415c0.653-0.332,1.204-0.772,1.637-1.309
		c0.438-0.542,0.793-1.146,1.056-1.796c0.267-0.663,0.471-1.296,0.605-1.881c0.136-0.583,0.232-1.095,0.288-1.52
		c0.084-0.644,0.138-0.745,0.2-0.811c0.201-0.12,0.368-0.162,0.543-0.162c0.154,0,0.317,0.032,0.484,0.098
		c0.379,0.15,0.595,0.528,0.645,1.125c0.021,0.882-0.167,1.877-0.562,2.97c-0.396,1.096-0.945,2.116-1.633,3.032
		c-0.694,0.925-1.532,1.679-2.489,2.241C131.43,29.188,130.64,29.408,129.821,29.408z M128.472,11.736
		c-0.21,0-0.421,0.015-0.635,0.046c-0.407,0.058-0.772,0.251-1.084,0.573c-0.328,0.341-0.597,0.776-0.799,1.295
		c-0.209,0.53-0.357,1.136-0.441,1.799c-0.071,0.569-0.09,1.151-0.055,1.735l6.364-3.621c-0.621-0.812-1.253-1.337-1.879-1.564
		C129.465,11.825,128.97,11.736,128.472,11.736z"/>
	<path d="M123.629,20.591c-0.15,0.13-0.416,0.179-0.793,0.146c-0.379-0.031-0.725-0.113-1.038-0.242s-0.522-0.309-0.631-0.535
		s0.021-0.49,0.388-0.793c0.151-0.131,0.319-0.223,0.504-0.275c0.183-0.055,0.366-0.109,0.551-0.162
		c0.184-0.054,0.334-0.135,0.453-0.242s0.188-0.281,0.211-0.521c0.021-0.971,0.103-1.964,0.242-2.979
		c0.141-1.016,0.404-1.923,0.795-2.722c0.388-0.798,0.944-1.436,1.668-1.911s1.68-0.659,2.867-0.551
		c0.432,0,0.918,0.103,1.459,0.308c0.539,0.206,1.059,0.475,1.555,0.81s0.929,0.734,1.295,1.199
		c0.367,0.465,0.595,0.967,0.683,1.507c0.149,0.216,0.063,0.485-0.26,0.81c-0.325,0.324-0.778,0.686-1.361,1.085
		c-0.583,0.4-1.241,0.804-1.978,1.215c-0.733,0.41-1.441,0.798-2.121,1.166c-0.682,0.367-1.28,0.691-1.799,0.975
		c-0.519,0.279-0.854,0.475-1.004,0.582c0.129,0.842,0.271,1.729,0.422,2.656c0.15,0.93,0.365,1.783,0.646,2.561
		c0.281,0.778,0.633,1.42,1.053,1.928c0.422,0.508,0.957,0.763,1.604,0.763c0.951,0.063,1.767-0.076,2.446-0.423
		c0.681-0.346,1.248-0.799,1.701-1.36s0.814-1.177,1.086-1.847c0.27-0.67,0.476-1.307,0.615-1.911
		c0.141-0.604,0.236-1.117,0.291-1.539c0.055-0.421,0.104-0.652,0.146-0.697c0.236-0.129,0.507-0.135,0.811-0.017
		c0.301,0.119,0.475,0.439,0.518,0.955c0.021,0.845-0.161,1.806-0.551,2.886s-0.924,2.073-1.604,2.979s-1.491,1.637-2.431,2.188
		c-0.938,0.551-1.938,0.737-2.996,0.565c-1.102-0.021-1.977-0.34-2.624-0.955c-0.648-0.616-1.161-1.36-1.539-2.235
		s-0.654-1.8-0.826-2.771C123.909,22.21,123.758,21.348,123.629,20.591z M132.118,13.625c-0.691-0.951-1.394-1.556-2.106-1.814
		c-0.713-0.26-1.445-0.335-2.203-0.227c-0.453,0.065-0.854,0.275-1.199,0.632c-0.344,0.357-0.627,0.81-0.842,1.361
		c-0.217,0.551-0.367,1.167-0.453,1.847c-0.086,0.681-0.098,1.378-0.031,2.09L132.118,13.625z"/>
	<path d="M145.114,29.408c-0.257,0-0.518-0.021-0.782-0.064c-1.118-0.019-2.046-0.358-2.729-1.008
		c-0.664-0.63-1.197-1.403-1.586-2.301c-0.38-0.88-0.663-1.827-0.84-2.814c-0.151-0.863-0.288-1.638-0.407-2.329
		c-0.12,0.037-0.262,0.055-0.427,0.055c-0.072,0-0.15-0.004-0.233-0.011c-0.393-0.032-0.761-0.119-1.095-0.257
		c-0.356-0.146-0.604-0.358-0.736-0.633c-0.152-0.32-0.003-0.668,0.443-1.034c0.165-0.146,0.359-0.252,0.571-0.313l0.554-0.162
		c0.15-0.044,0.277-0.111,0.374-0.198c0.079-0.071,0.128-0.203,0.146-0.391c0.02-0.949,0.102-1.958,0.243-2.988
		c0.145-1.039,0.419-1.975,0.813-2.782c0.403-0.829,0.988-1.499,1.738-1.991c0.621-0.407,1.408-0.613,2.34-0.613
		c0.21,0,0.429,0.01,0.655,0.031c0.001,0,0.003,0,0.005,0c0.435,0,0.947,0.108,1.507,0.32c0.558,0.213,1.094,0.493,1.596,0.832
		c0.515,0.348,0.966,0.765,1.342,1.241c0.386,0.492,0.628,1.03,0.72,1.599c0.113,0.127,0.183,0.483-0.314,0.983
		c-0.334,0.333-0.801,0.707-1.39,1.109c-0.587,0.402-1.257,0.814-1.991,1.224c-0.736,0.41-1.444,0.8-2.127,1.167l-1.797,0.975
		c-0.488,0.263-0.747,0.415-0.883,0.502c0.124,0.804,0.258,1.647,0.402,2.528c0.146,0.907,0.361,1.757,0.638,2.525
		c0.271,0.75,0.614,1.379,1.019,1.867c0.386,0.465,0.86,0.69,1.45,0.69c0.157,0.01,0.298,0.015,0.435,0.015
		c0.733,0,1.38-0.14,1.921-0.415c0.651-0.332,1.201-0.771,1.635-1.309c0.439-0.544,0.795-1.148,1.056-1.796
		c0.263-0.648,0.468-1.281,0.608-1.882c0.14-0.609,0.233-1.106,0.287-1.519c0.086-0.689,0.15-0.758,0.197-0.809
		c0.204-0.122,0.37-0.164,0.546-0.164c0.154,0,0.316,0.033,0.483,0.098c0.378,0.148,0.596,0.526,0.646,1.125
		c0.021,0.877-0.168,1.873-0.563,2.97c-0.394,1.094-0.943,2.113-1.633,3.032c-0.695,0.926-1.533,1.68-2.489,2.241
		C146.722,29.188,145.932,29.408,145.114,29.408z M143.764,11.736c-0.21,0-0.421,0.015-0.634,0.045
		c-0.413,0.06-0.767,0.247-1.082,0.573c-0.324,0.332-0.594,0.768-0.801,1.295c-0.21,0.537-0.358,1.142-0.441,1.798
		c-0.072,0.565-0.091,1.147-0.056,1.735l6.364-3.621c-0.621-0.812-1.252-1.338-1.878-1.564
		C144.759,11.825,144.263,11.736,143.764,11.736z"/>
	<path d="M138.922,20.591c-0.15,0.13-0.415,0.179-0.794,0.146c-0.378-0.031-0.724-0.113-1.036-0.242
		c-0.314-0.129-0.523-0.309-0.633-0.535c-0.107-0.227,0.021-0.49,0.391-0.793c0.149-0.131,0.317-0.223,0.5-0.275
		c0.186-0.055,0.368-0.109,0.553-0.162c0.184-0.054,0.334-0.135,0.453-0.242s0.188-0.281,0.211-0.521
		c0.021-0.971,0.103-1.964,0.242-2.979c0.142-1.016,0.404-1.923,0.795-2.722c0.389-0.798,0.943-1.436,1.668-1.911
		s1.679-0.659,2.867-0.551c0.432,0,0.918,0.103,1.459,0.308c0.539,0.206,1.059,0.475,1.555,0.81s0.93,0.734,1.297,1.199
		c0.365,0.465,0.593,0.967,0.68,1.507c0.15,0.216,0.064,0.485-0.259,0.81c-0.324,0.324-0.777,0.686-1.361,1.085
		c-0.584,0.4-1.241,0.804-1.976,1.215c-0.735,0.41-1.442,0.798-2.124,1.166c-0.681,0.367-1.278,0.691-1.798,0.975
		c-0.52,0.279-0.854,0.475-1.004,0.582c0.129,0.842,0.27,1.729,0.422,2.656c0.15,0.93,0.367,1.783,0.646,2.561
		c0.281,0.777,0.633,1.42,1.053,1.928c0.422,0.508,0.957,0.763,1.604,0.763c0.95,0.063,1.767-0.076,2.446-0.423
		c0.68-0.346,1.246-0.799,1.699-1.36s0.815-1.177,1.086-1.847c0.271-0.67,0.476-1.307,0.617-1.911
		c0.139-0.604,0.236-1.117,0.291-1.539c0.053-0.421,0.104-0.652,0.146-0.697c0.237-0.129,0.508-0.135,0.81-0.017
		c0.305,0.119,0.477,0.439,0.521,0.955c0.021,0.845-0.163,1.806-0.552,2.886s-0.924,2.073-1.604,2.979s-1.49,1.637-2.431,2.188
		c-0.939,0.551-1.938,0.737-2.997,0.565c-1.101-0.021-1.976-0.34-2.623-0.955c-0.649-0.616-1.161-1.36-1.54-2.235
		c-0.378-0.875-0.652-1.8-0.826-2.771C139.203,22.21,139.052,21.348,138.922,20.591z M147.41,13.625
		c-0.691-0.951-1.393-1.556-2.105-1.814c-0.712-0.26-1.447-0.335-2.203-0.227c-0.453,0.065-0.853,0.275-1.197,0.632
		c-0.348,0.356-0.627,0.81-0.844,1.361c-0.215,0.551-0.367,1.167-0.453,1.847c-0.088,0.681-0.099,1.378-0.032,2.09L147.41,13.625z"
		/>
	<path d="M153.506,33.201c-0.15,0-0.302-0.042-0.449-0.124c-0.18-0.104-0.337-0.282-0.481-0.548l-0.023-0.11
		c0.161-2.216,0.276-4.056,0.348-5.519c0.072-1.465,0.121-2.718,0.147-3.763c0.026-1.042,0.03-1.966,0.015-2.767
		c-0.019-0.801-0.046-1.654-0.08-2.557l-0.121-3.11c-0.045-1.171-0.086-2.652-0.121-4.442c0.044-0.264,0.127-0.467,0.252-0.643
		c0.128-0.179,0.275-0.309,0.438-0.387c0.09-0.042,0.185-0.063,0.282-0.063c0.105,0,0.216,0.025,0.328,0.075
		c0.199,0.089,0.385,0.271,0.567,0.557l0.032,0.112l-0.066,2.897c0.52-0.618,1.092-1.193,1.709-1.715
		c0.763-0.647,1.551-1.191,2.34-1.618c0.79-0.427,1.569-0.731,2.315-0.904c0.412-0.096,0.802-0.144,1.158-0.144
		c0.304,0,0.592,0.035,0.855,0.104c0.596,0.157,1.061,0.508,1.381,1.042c0.316,0.528,0.43,1.269,0.336,2.201
		c-0.071,0.8-0.321,1.675-0.741,2.597c-0.413,0.909-0.929,1.821-1.53,2.711c-0.613,0.901-1.281,1.769-1.986,2.579
		c-0.724,0.832-1.433,1.568-2.107,2.188c-0.687,0.631-1.33,1.147-1.915,1.533c-0.524,0.347-0.954,0.544-1.305,0.597l-0.069,0.89
		c-0.034,0.452-0.07,0.972-0.105,1.551c-0.036,0.581-0.206,3.035-0.242,3.607c-0.035,0.572-0.07,1.094-0.105,1.558
		c-0.035,0.458-0.054,0.803-0.054,1.031l-0.059,0.142c-0.103,0.103-0.226,0.194-0.366,0.273c-0.146,0.084-0.307,0.138-0.475,0.158
		L153.506,33.201z M161.404,10.448c-0.151,0-0.311,0.017-0.478,0.048c-0.486,0.095-1.029,0.313-1.614,0.647
		c-0.593,0.339-1.173,0.747-1.727,1.212c-0.553,0.466-1.072,0.985-1.545,1.544c-0.468,0.556-0.838,1.11-1.1,1.647l0.02,6.417
		c0.514-0.252,1.113-0.672,1.788-1.253c0.813-0.697,1.63-1.545,2.431-2.522c0.799-0.976,1.536-2.062,2.19-3.228
		c0.65-1.159,1.112-2.323,1.374-3.459c-0.096-0.427-0.297-0.749-0.614-0.9C161.915,10.5,161.672,10.448,161.404,10.448z"/>
	<path d="M152.751,32.434c0.161-2.218,0.276-4.06,0.349-5.523c0.072-1.467,0.121-2.721,0.147-3.768
		c0.026-1.045,0.03-1.972,0.015-2.775c-0.019-0.803-0.046-1.657-0.08-2.561c-0.037-0.903-0.076-1.939-0.121-3.11
		c-0.045-1.17-0.086-2.65-0.121-4.438c0.035-0.197,0.106-0.371,0.215-0.523c0.107-0.151,0.229-0.259,0.361-0.322
		c0.135-0.063,0.281-0.058,0.442,0.014c0.161,0.072,0.321,0.232,0.481,0.482l-0.08,3.485c0.607-0.786,1.291-1.501,2.052-2.145
		c0.76-0.644,1.528-1.175,2.306-1.595c0.778-0.42,1.533-0.715,2.266-0.885c0.733-0.17,1.373-0.184,1.918-0.041
		c0.545,0.144,0.965,0.46,1.26,0.952c0.295,0.492,0.398,1.184,0.309,2.078c-0.07,0.787-0.313,1.631-0.724,2.534
		s-0.916,1.797-1.515,2.682c-0.601,0.882-1.256,1.737-1.972,2.56c-0.715,0.822-1.411,1.547-2.092,2.172
		c-0.679,0.625-1.31,1.131-1.89,1.514c-0.581,0.385-1.041,0.578-1.381,0.578c-0.02,0.25-0.045,0.602-0.082,1.059
		c-0.034,0.455-0.07,0.976-0.105,1.556c-0.036,0.58-0.076,1.185-0.121,1.812c-0.045,0.625-0.085,1.223-0.121,1.795
		c-0.035,0.571-0.07,1.092-0.105,1.555c-0.036,0.465-0.055,0.814-0.055,1.047c-0.09,0.09-0.197,0.17-0.322,0.24
		c-0.125,0.072-0.258,0.117-0.401,0.135s-0.285-0.014-0.429-0.094C153.012,32.82,152.877,32.665,152.751,32.434z M154.762,22.271
		c0.59-0.232,1.297-0.701,2.118-1.408c0.822-0.705,1.642-1.555,2.454-2.547c0.813-0.991,1.55-2.079,2.211-3.257
		c0.662-1.18,1.127-2.35,1.395-3.512c-0.106-0.572-0.349-0.947-0.724-1.126c-0.376-0.179-0.817-0.219-1.327-0.121
		c-0.51,0.099-1.068,0.322-1.676,0.67c-0.607,0.348-1.193,0.76-1.756,1.233c-0.563,0.474-1.086,0.997-1.568,1.568
		c-0.482,0.572-0.857,1.135-1.127,1.689V22.271L154.762,22.271z"/>
</g>
</svg>
