<?xml version="1.0" encoding="utf-8"?>
<!-- Generator: Adobe Illustrator 16.0.0, SVG Export Plug-In . SVG Version: 6.00 Build 0)  -->
<!DOCTYPE svg PUBLIC "-//W3C//DTD SVG 1.0//EN" "http://www.w3.org/TR/2001/REC-SVG-20010904/DTD/svg10.dtd">
<svg version="1.0" id="Layer_1" xmlns="http://www.w3.org/2000/svg" xmlns:xlink="http://www.w3.org/1999/xlink" x="0px" y="0px"
	 width="86.167px" height="33px" viewBox="0 0 86.167 33" enable-background="new 0 0 86.167 33" xml:space="preserve">
<g>
	<path d="M1.918,32.063c-0.304,0-0.603-0.127-0.889-0.377L0.96,31.54L0.468,3.132C0.494,2.807,0.571,2.522,0.7,2.266
		c0.131-0.262,0.299-0.469,0.499-0.617c0.196-0.144,0.403-0.217,0.617-0.217c0.279,0.017,0.502,0.134,0.71,0.351
		c0.111,0.034,0.234,0.135,0.318,0.385c0.065,0.2,0.109,0.527,0.133,1.002C3,3.631,3.018,4.26,3.03,5.06
		c0.012,0.798,0.018,1.818,0.018,3.062c0,1.242,0.005,2.735,0.018,4.48c0.01,1.568,0.025,3.376,0.045,5.426
		c0.109-0.179,0.24-0.393,0.393-0.642c0.411-0.67,0.934-1.491,1.566-2.466c0.634-0.974,1.344-2.03,2.131-3.168
		c0.774-1.121,1.591-2.265,2.43-3.398c0.833-1.127,1.676-2.195,2.504-3.174c0.834-0.987,1.616-1.804,2.323-2.429
		c0.722-0.638,1.379-1.054,1.953-1.235c0.164-0.053,0.32-0.079,0.465-0.079c0.294,0,0.704,0.113,0.986,0.652l-0.02,0.215
		C15.832,4.893,14.01,7.2,12.427,9.162c-1.564,1.938-2.928,3.703-4.055,5.248c-1.129,1.548-2.083,2.992-2.837,4.291
		c-0.72,1.239-1.305,2.518-1.739,3.802l14.572,7.025l0.112,0.203c-0.05,0.426-0.196,0.833-0.434,1.208
		c-0.235,0.371-0.605,0.559-1.1,0.559c-0.063,0-0.127-0.003-0.194-0.009L3.345,25.263c0.033,0.305,0.045,0.646,0.037,1.021
		c-0.012,0.529-0.035,1.077-0.07,1.644c-0.035,0.568-0.089,1.112-0.159,1.631c-0.07,0.51-0.117,0.93-0.14,1.253
		c0.069,0.699-0.305,1.017-0.632,1.154C2.228,32.03,2.072,32.063,1.918,32.063z"/>
	<path d="M0.668,3.129C0.691,2.848,0.761,2.59,0.879,2.355C0.996,2.121,1.143,1.939,1.318,1.81c0.175-0.129,0.357-0.188,0.545-0.176
		c0.188,0.012,0.375,0.123,0.563,0.334c0.093,0,0.17,0.088,0.229,0.264c0.058,0.176,0.1,0.492,0.123,0.949
		C2.8,3.639,2.818,4.266,2.83,5.063C2.842,5.86,2.848,6.879,2.848,8.122c0,1.243,0.005,2.736,0.018,4.482
		c0.012,1.746,0.029,3.791,0.053,6.134c0.093-0.163,0.346-0.579,0.756-1.247c0.41-0.668,0.932-1.488,1.564-2.461
		c0.632-0.973,1.341-2.027,2.127-3.164c0.785-1.137,1.594-2.268,2.426-3.393s1.664-2.18,2.496-3.164s1.6-1.787,2.303-2.408
		c0.703-0.621,1.33-1.02,1.881-1.195c0.55-0.176,0.955-0.018,1.213,0.475c-2.039,2.625-3.844,4.91-5.414,6.855
		c-1.57,1.945-2.924,3.697-4.061,5.256c-1.137,1.559-2.086,2.994-2.848,4.308C4.6,19.91,3.996,21.246,3.551,22.605l14.73,7.102
		c-0.047,0.398-0.182,0.773-0.404,1.125c-0.223,0.352-0.592,0.504-1.107,0.457L3.094,24.926c0.07,0.375,0.1,0.826,0.088,1.354
		c-0.012,0.527-0.035,1.072-0.07,1.636c-0.035,0.563-0.088,1.103-0.158,1.616c-0.07,0.516-0.118,0.939-0.141,1.267
		c0.047,0.492-0.123,0.82-0.51,0.983c-0.387,0.164-0.768,0.082-1.143-0.245L0.668,3.129z"/>
	<path d="M31.977,31.856c-0.166,0-0.325-0.036-0.475-0.107c-0.329-0.151-0.425-0.397-0.447-0.576
		c-0.312-0.429-0.53-1.109-0.615-1.938c-0.083-0.792-0.13-1.644-0.143-2.531c-0.012-0.882-0.012-1.75,0-2.608
		c0.008-0.563-0.019-1.076-0.079-1.533c-1.005,2.143-1.967,3.855-2.863,5.1c-0.981,1.36-1.896,2.346-2.718,2.93
		c-0.766,0.542-1.482,0.817-2.128,0.817c-0.068,0-0.135-0.003-0.202-0.009c-0.697-0.063-1.298-0.316-1.786-0.753
		c-0.477-0.429-0.854-0.961-1.122-1.583c-0.267-0.618-0.414-1.216-0.438-1.775c-0.164-0.878-0.17-1.98-0.017-3.25
		c0.152-1.257,0.427-2.574,0.816-3.916c0.388-1.341,0.889-2.669,1.488-3.949c0.603-1.288,1.297-2.419,2.064-3.363
		c0.774-0.954,1.617-1.674,2.505-2.143c0.547-0.289,1.117-0.435,1.693-0.435c0.383,0,0.776,0.064,1.168,0.191
		c0.095-0.026,0.262-0.035,0.417-0.035c0.279,0,0.531,0.029,0.749,0.085c0.357,0.093,0.658,0.287,0.896,0.578
		c0.231,0.282,0.398,0.671,0.498,1.158c0.096,0.467,0.167,1.062,0.215,1.767c-0.046,2.268,0.019,4.211,0.192,5.793
		c0.172,1.566,0.378,2.98,0.612,4.202c0.233,1.217,0.461,2.316,0.685,3.299c0.224,0.986,0.361,2.028,0.409,3.095
		c0,0.435-0.112,0.771-0.335,1.007c-0.213,0.226-0.458,0.375-0.729,0.443C32.183,31.843,32.079,31.856,31.977,31.856z M27.65,12.622
		c-0.075,0-0.151,0.007-0.228,0.021c-0.611,0.109-1.23,0.497-1.84,1.153c-0.629,0.674-1.24,1.57-1.816,2.664
		c-0.577,1.095-1.081,2.286-1.499,3.538c-0.417,1.251-0.728,2.512-0.924,3.747c-0.196,1.233-0.237,2.332-0.122,3.267
		c0.301,0.958,0.667,1.556,1.078,1.74c0.146,0.065,0.296,0.099,0.449,0.099l0,0c0.271,0,0.563-0.104,0.87-0.312
		c0.518-0.349,1.056-0.917,1.6-1.689c0.563-0.798,1.103-1.661,1.606-2.566c0.511-0.918,0.976-1.847,1.381-2.76
		c0.409-0.924,0.742-1.701,1-2.332l-0.188-5.725C28.583,12.906,28.124,12.622,27.65,12.622z"/>
	<path d="M31.254,31.148c-0.329-0.492-0.533-1.137-0.615-1.935c-0.083-0.797-0.129-1.635-0.141-2.514
		c-0.012-0.88-0.012-1.746,0-2.603c0.012-0.854-0.053-1.588-0.193-2.197c-1.102,2.414-2.139,4.295-3.111,5.644
		c-0.973,1.349-1.863,2.31-2.672,2.884c-0.809,0.573-1.542,0.831-2.197,0.772c-0.656-0.06-1.213-0.294-1.67-0.703
		c-0.457-0.41-0.814-0.914-1.072-1.513c-0.258-0.598-0.399-1.166-0.422-1.705c-0.164-0.891-0.17-1.963-0.018-3.217
		s0.422-2.549,0.809-3.885c0.387-1.336,0.879-2.643,1.477-3.92c0.598-1.277,1.277-2.385,2.039-3.322
		c0.761-0.938,1.576-1.635,2.443-2.092c0.867-0.457,1.77-0.533,2.707-0.229c0.469-0.047,0.861-0.029,1.178,0.053
		s0.58,0.252,0.791,0.51c0.211,0.258,0.363,0.615,0.457,1.072c0.093,0.457,0.164,1.037,0.211,1.74
		c-0.047,2.273,0.018,4.208,0.193,5.801c0.175,1.594,0.381,3,0.615,4.219s0.462,2.32,0.686,3.305
		c0.223,0.984,0.357,2.004,0.404,3.06c0,0.375-0.094,0.662-0.281,0.86c-0.188,0.199-0.399,0.328-0.633,0.388
		c-0.234,0.06-0.452,0.041-0.65-0.054C31.389,31.477,31.277,31.336,31.254,31.148z M29.215,13.395
		c-0.563-0.75-1.172-1.066-1.828-0.949c-0.656,0.117-1.307,0.521-1.951,1.213c-0.645,0.691-1.26,1.594-1.846,2.707
		c-0.586,1.112-1.09,2.303-1.512,3.567c-0.422,1.266-0.733,2.525-0.932,3.779s-0.241,2.361-0.123,3.322
		c0.328,1.055,0.726,1.688,1.195,1.898c0.469,0.211,0.972,0.135,1.512-0.229c0.539-0.363,1.09-0.942,1.652-1.74
		c0.562-0.797,1.102-1.657,1.617-2.584c0.515-0.926,0.979-1.853,1.389-2.776c0.41-0.926,0.744-1.705,1.002-2.338L29.215,13.395z"/>
	<path d="M36.126,31.789c-0.254,0-0.512-0.067-0.766-0.201c-0.29-0.152-0.492-0.384-0.604-0.688l-0.188-8.291
		c-0.047-2.25-0.083-4.114-0.105-5.591l-0.053-3.463c-0.012-0.831-0.022-1.445-0.034-1.843c-0.013-0.401-0.019-0.645-0.019-0.727
		v-0.158c0.031-0.29,0.164-0.514,0.396-0.688c0.214-0.161,0.451-0.262,0.704-0.301c0.071-0.011,0.142-0.017,0.213-0.017
		c0.187,0,0.372,0.04,0.55,0.12c0.256,0.114,0.444,0.302,0.558,0.558l0.101,6.744c0.346-1.049,0.802-1.966,1.365-2.737
		c0.796-1.094,1.708-1.969,2.708-2.6c1.001-0.632,2.061-1.05,3.148-1.241c0.575-0.102,1.138-0.153,1.672-0.153
		c0.47,0,0.931,0.04,1.368,0.119c0.357,0.082,0.625,0.235,0.806,0.458c0.178,0.221,0.276,0.466,0.291,0.73
		c0.014,0.266-0.056,0.519-0.208,0.752c-0.15,0.232-0.351,0.405-0.597,0.513c-0.026,0-0.567-0.006-0.771-0.006
		c-0.778,0-1.528,0.095-2.229,0.281c-0.904,0.24-1.737,0.599-2.475,1.065c-0.741,0.466-1.4,1.027-1.96,1.668
		c-0.556,0.635-1.001,1.316-1.322,2.024c-0.483,1.035-0.814,2.135-0.986,3.27c-0.174,1.143-0.279,2.3-0.314,3.438
		c-0.034,1.14-0.034,2.235,0,3.258c0.035,1.029,0.042,1.944,0.018,2.72c-0.029,0.333-0.172,0.578-0.425,0.742
		c-0.228,0.147-0.486,0.229-0.768,0.243L36.126,31.789z"/>
	<path d="M34.945,30.832c-0.07-3.234-0.129-5.977-0.176-8.227s-0.083-4.113-0.105-5.59c-0.023-1.478-0.041-2.632-0.053-3.463
		c-0.012-0.832-0.023-1.447-0.035-1.846c-0.012-0.398-0.018-0.639-0.018-0.721s0-0.135,0-0.158c0.023-0.211,0.128-0.387,0.316-0.527
		c0.188-0.141,0.392-0.229,0.615-0.264c0.223-0.035,0.439-0.006,0.65,0.088s0.363,0.246,0.457,0.457l0.105,8.086
		c0.352-1.617,0.919-2.965,1.705-4.043c0.785-1.078,1.67-1.928,2.654-2.549c0.984-0.621,2.009-1.025,3.076-1.213
		c1.066-0.188,2.057-0.199,2.971-0.035c0.304,0.07,0.533,0.199,0.686,0.387c0.152,0.188,0.234,0.393,0.246,0.615
		c0.012,0.223-0.047,0.434-0.176,0.633c-0.129,0.199-0.299,0.346-0.51,0.439c-1.055-0.07-2.045,0.018-2.971,0.264
		c-0.926,0.246-1.77,0.609-2.531,1.09c-0.762,0.48-1.43,1.049-2.004,1.705c-0.575,0.656-1.025,1.349-1.354,2.074
		c-0.492,1.055-0.826,2.161-1.002,3.321c-0.176,1.16-0.281,2.314-0.316,3.463c-0.035,1.15-0.035,2.238,0,3.271
		c0.035,1.032,0.041,1.935,0.018,2.707c-0.023,0.259-0.135,0.451-0.334,0.58c-0.199,0.129-0.422,0.199-0.668,0.211
		c-0.246,0.013-0.492-0.047-0.738-0.176C35.207,31.281,35.039,31.09,34.945,30.832z"/>
	<path d="M50.681,31.979c-0.23,0-0.456-0.055-0.67-0.162c-0.23-0.11-0.405-0.297-0.519-0.553c-0.063-0.534-0.105-1.302-0.139-2.342
		c-0.035-1.044-0.07-2.239-0.105-3.588c-0.035-1.348-0.066-2.784-0.089-4.309c-0.022-1.521-0.064-2.99-0.123-4.407
		c-0.058-1.404-0.141-2.731-0.245-3.946c-0.103-1.196-0.226-2.171-0.366-2.897c-0.004-0.897,0.377-1.163,0.697-1.235
		c0.182-0.041,0.379-0.062,0.585-0.062c0.232,0,0.483,0.027,0.746,0.079l0.16,0.172c0.209,1.749,0.358,3.362,0.44,4.794
		c0.082,1.432,0.141,2.704,0.176,3.82c0.035,1.111,0.07,2.071,0.105,2.88c0.007,0.167,0.017,0.327,0.027,0.48
		c0.221-1.564,0.451-2.944,0.685-4.115c0.303-1.519,0.631-2.787,0.974-3.771c0.346-0.993,0.731-1.736,1.145-2.21
		c0.428-0.492,0.907-0.78,1.422-0.857l0.107-0.006c0.478,0,0.901,0.364,1.294,1.114c0.381,0.726,0.735,1.655,1.052,2.762
		c0.318,1.109,0.603,2.315,0.848,3.585c0.183,0.948,0.338,1.854,0.465,2.706c0.669-1.97,1.246-3.592,1.718-4.832
		c0.529-1.387,1-2.454,1.401-3.172c0.42-0.753,0.807-1.222,1.185-1.431c0.33-0.183,0.7-0.275,1.099-0.275l0.153,0.004
		c0.62,0.026,1.127,0.295,1.503,0.802c0.354,0.478,0.631,1.117,0.825,1.899c0.189,0.766,0.327,1.664,0.409,2.668
		c0.083,0.998,0.153,2.049,0.212,3.151c0.056,1.066,0.138,2.193,0.245,3.35c0.103,1.117,0.262,2.204,0.472,3.23
		c0.208,1.014,0.499,1.964,0.867,2.827c0.361,0.847,0.853,1.55,1.461,2.091l0.046,0.239c-0.219,0.438-0.479,0.814-0.772,1.121
		c-0.21,0.219-0.437,0.329-0.673,0.329c-0.152,0-0.306-0.047-0.456-0.14c-0.717-0.47-1.293-1.265-1.716-2.367
		c-0.413-1.071-0.753-2.308-1.012-3.674c-0.257-1.353-0.448-2.785-0.566-4.257c-0.118-1.465-0.223-2.808-0.316-4.024
		c-0.096-1.239-0.193-2.225-0.298-3.013c-0.124-0.93-0.269-1.053-0.285-1.064c-0.351,0.002-1.001,0.4-1.857,3.067
		c-0.711,2.212-1.65,5.544-2.792,9.904c-0.14,0.364-0.298,0.604-0.492,0.757c-0.199,0.156-0.406,0.236-0.615,0.236
		c-0.202,0-0.403-0.064-0.6-0.19c-0.186-0.119-0.346-0.272-0.477-0.456c-0.36-1.846-0.638-3.576-0.861-5.223
		c-0.223-1.64-0.427-3.092-0.614-4.356c-0.186-1.252-0.38-2.274-0.576-3.039c-0.265-1.027-0.485-1.082-0.495-1.083
		c-0.001,0-0.002,0-0.004,0c-0.032,0-0.177,0.033-0.386,0.563c-0.196,0.497-0.388,1.184-0.57,2.042
		c-0.185,0.863-0.379,1.913-0.579,3.119c-0.199,1.207-0.403,2.501-0.614,3.883c-0.211,1.384-0.434,2.809-0.668,4.272
		c-0.23,1.443-0.491,2.906-0.774,4.349c-0.129,0.274-0.298,0.451-0.521,0.576C51.141,31.917,50.913,31.979,50.681,31.979z"/>
	<path d="M49.676,31.184c-0.047-0.469-0.088-1.225-0.123-2.268c-0.035-1.043-0.07-2.238-0.105-3.586
		c-0.035-1.348-0.065-2.783-0.088-4.307s-0.065-2.994-0.123-4.413c-0.059-1.418-0.141-2.736-0.246-3.955
		c-0.105-1.219-0.229-2.191-0.369-2.918c0-0.586,0.181-0.92,0.545-1.002c0.363-0.082,0.779-0.076,1.248,0.018
		c0.211,1.758,0.357,3.352,0.439,4.781c0.082,1.43,0.141,2.701,0.176,3.814c0.035,1.112,0.07,2.073,0.105,2.883
		c0.035,0.809,0.111,1.459,0.229,1.951c0.281-2.181,0.574-4.031,0.879-5.556c0.304-1.523,0.627-2.771,0.967-3.744
		c0.339-0.973,0.708-1.688,1.107-2.145c0.398-0.457,0.832-0.721,1.301-0.791c0.422-0.047,0.82,0.287,1.195,1.002
		c0.375,0.715,0.721,1.623,1.037,2.725s0.598,2.291,0.844,3.568c0.246,1.276,0.439,2.454,0.58,3.532
		c0.796-2.366,1.459-4.241,1.986-5.625c0.527-1.383,0.99-2.432,1.389-3.146c0.398-0.715,0.768-1.166,1.107-1.354
		c0.339-0.188,0.721-0.27,1.143-0.246c0.563,0.023,1.014,0.264,1.354,0.721c0.339,0.457,0.603,1.066,0.791,1.828
		c0.188,0.762,0.322,1.641,0.404,2.637c0.082,0.996,0.152,2.046,0.211,3.146c0.058,1.103,0.141,2.222,0.246,3.357
		c0.105,1.137,0.264,2.221,0.475,3.252s0.504,1.986,0.879,2.865s0.879,1.6,1.512,2.162c-0.211,0.422-0.457,0.779-0.738,1.072
		c-0.281,0.293-0.575,0.346-0.879,0.158c-0.68-0.445-1.225-1.201-1.635-2.269c-0.41-1.065-0.744-2.278-1.002-3.64
		c-0.258-1.358-0.445-2.771-0.563-4.235c-0.118-1.465-0.223-2.808-0.316-4.024c-0.094-1.22-0.193-2.228-0.299-3.023
		s-0.252-1.207-0.439-1.23c-0.68-0.094-1.377,0.973-2.092,3.199c-0.715,2.227-1.647,5.531-2.795,9.914
		c-0.118,0.305-0.258,0.521-0.422,0.65s-0.329,0.193-0.492,0.193c-0.164,0-0.329-0.054-0.492-0.158
		c-0.164-0.105-0.305-0.24-0.422-0.404c-0.329-1.781-0.604-3.492-0.826-5.133c-0.223-1.641-0.428-3.094-0.615-4.359
		c-0.188-1.266-0.381-2.285-0.58-3.059c-0.199-0.773-0.417-1.184-0.65-1.23c-0.211-0.047-0.417,0.182-0.615,0.686
		c-0.199,0.504-0.393,1.195-0.58,2.074c-0.188,0.879-0.381,1.921-0.58,3.128c-0.199,1.207-0.404,2.502-0.615,3.885
		c-0.211,1.384-0.434,2.808-0.668,4.271c-0.234,1.465-0.492,2.912-0.773,4.342c-0.094,0.188-0.234,0.334-0.422,0.439
		s-0.381,0.158-0.58,0.158c-0.199,0-0.393-0.047-0.58-0.141C49.91,31.547,49.769,31.395,49.676,31.184z"/>
	<path d="M84.43,31.856c-0.166,0-0.325-0.036-0.475-0.107c-0.329-0.151-0.425-0.396-0.447-0.576c-0.313-0.429-0.53-1.11-0.615-1.938
		c-0.083-0.788-0.13-1.64-0.142-2.531c-0.012-0.882-0.012-1.75,0-2.608c0.008-0.563-0.019-1.076-0.079-1.533
		c-1.004,2.142-1.966,3.855-2.863,5.1c-0.982,1.36-1.896,2.347-2.718,2.93c-0.766,0.542-1.482,0.817-2.129,0.817
		c-0.068,0-0.135-0.003-0.202-0.009c-0.698-0.063-1.298-0.316-1.786-0.753c-0.477-0.428-0.854-0.96-1.122-1.583
		c-0.267-0.617-0.414-1.215-0.438-1.775c-0.164-0.88-0.171-1.982-0.017-3.25c0.152-1.256,0.426-2.573,0.815-3.916
		c0.388-1.341,0.889-2.669,1.488-3.949c0.604-1.289,1.298-2.42,2.065-3.363c0.774-0.954,1.617-1.674,2.505-2.143
		c0.547-0.289,1.117-0.435,1.693-0.435c0.382,0,0.775,0.064,1.168,0.191c0.095-0.026,0.262-0.035,0.417-0.035
		c0.279,0,0.531,0.029,0.75,0.085c0.357,0.093,0.658,0.287,0.896,0.578c0.23,0.281,0.397,0.67,0.498,1.158
		c0.096,0.471,0.168,1.065,0.215,1.767c-0.046,2.267,0.019,4.21,0.192,5.793c0.173,1.568,0.379,2.982,0.613,4.202
		c0.233,1.217,0.461,2.316,0.685,3.299c0.224,0.989,0.361,2.03,0.409,3.095c0,0.435-0.112,0.771-0.335,1.007
		c-0.213,0.226-0.458,0.375-0.729,0.443C84.636,31.843,84.532,31.856,84.43,31.856z M80.103,12.622
		c-0.075,0-0.151,0.007-0.228,0.021c-0.61,0.109-1.229,0.497-1.839,1.153c-0.629,0.674-1.24,1.57-1.816,2.664
		c-0.577,1.095-1.081,2.286-1.499,3.538c-0.418,1.251-0.729,2.512-0.924,3.747c-0.196,1.233-0.237,2.332-0.122,3.267
		c0.301,0.958,0.667,1.556,1.078,1.74c0.146,0.065,0.296,0.099,0.449,0.099l0,0c0.271,0,0.563-0.104,0.87-0.312
		c0.518-0.349,1.056-0.917,1.6-1.689c0.563-0.798,1.103-1.661,1.606-2.566c0.514-0.924,0.978-1.853,1.381-2.76
		c0.409-0.924,0.742-1.701,1-2.332l-0.188-5.725C81.037,12.906,80.577,12.622,80.103,12.622z"/>
	<path d="M83.707,31.148c-0.329-0.492-0.533-1.137-0.615-1.935c-0.083-0.797-0.129-1.635-0.141-2.514
		c-0.012-0.88-0.012-1.746,0-2.603c0.012-0.854-0.053-1.588-0.193-2.197c-1.102,2.414-2.139,4.295-3.111,5.644
		c-0.973,1.349-1.863,2.31-2.672,2.884c-0.809,0.573-1.542,0.831-2.197,0.772c-0.656-0.06-1.213-0.294-1.67-0.703
		c-0.457-0.41-0.814-0.914-1.072-1.513c-0.258-0.598-0.399-1.166-0.422-1.705c-0.164-0.891-0.17-1.963-0.018-3.217
		c0.152-1.254,0.422-2.549,0.809-3.885c0.387-1.336,0.879-2.643,1.477-3.92c0.598-1.277,1.277-2.385,2.039-3.322
		c0.761-0.938,1.576-1.635,2.443-2.092c0.867-0.457,1.77-0.533,2.707-0.229c0.469-0.047,0.861-0.029,1.178,0.053
		s0.58,0.252,0.791,0.51c0.211,0.258,0.363,0.615,0.457,1.072c0.093,0.457,0.164,1.037,0.211,1.74
		c-0.047,2.273,0.018,4.208,0.193,5.801c0.175,1.594,0.381,3,0.615,4.219s0.462,2.32,0.686,3.305
		c0.223,0.984,0.357,2.004,0.404,3.06c0,0.375-0.094,0.662-0.281,0.86c-0.188,0.199-0.399,0.328-0.633,0.388
		s-0.452,0.041-0.65-0.054C83.842,31.477,83.73,31.336,83.707,31.148z M81.668,13.395c-0.563-0.75-1.172-1.066-1.828-0.949
		c-0.656,0.117-1.307,0.521-1.951,1.213c-0.645,0.691-1.26,1.594-1.846,2.707c-0.586,1.112-1.09,2.303-1.512,3.567
		c-0.422,1.266-0.733,2.525-0.932,3.779c-0.199,1.254-0.241,2.361-0.123,3.322c0.328,1.055,0.726,1.688,1.195,1.898
		c0.469,0.211,0.972,0.135,1.512-0.229c0.539-0.363,1.09-0.942,1.652-1.74c0.562-0.797,1.102-1.657,1.617-2.584
		c0.515-0.926,0.979-1.853,1.389-2.776c0.41-0.926,0.744-1.705,1.002-2.338L81.668,13.395z"/>
</g>
</svg>
