<?xml version="1.0" encoding="utf-8"?>
<!-- Generator: Adobe Illustrator 16.0.0, SVG Export Plug-In . SVG Version: 6.00 Build 0)  -->
<!DOCTYPE svg PUBLIC "-//W3C//DTD SVG 1.0//EN" "http://www.w3.org/TR/2001/REC-SVG-20010904/DTD/svg10.dtd">
<svg version="1.0" id="Layer_1" xmlns="http://www.w3.org/2000/svg" xmlns:xlink="http://www.w3.org/1999/xlink" x="0px" y="0px"
	 width="149px" height="33px" viewBox="0 0 149 33" enable-background="new 0 0 149 33" xml:space="preserve">
<g>
	<path d="M14.133,31.477c-0.271,0-0.612-0.032-1.015-0.096l-0.166-0.159c-0.188-0.964-0.332-2.149-0.425-3.522
		c-0.093-1.367-0.165-2.872-0.211-4.473c-0.047-1.583-0.071-3.265-0.071-4.998c0-1.722-0.012-3.414-0.035-5.077
		c-0.023-1.664-0.053-3.239-0.087-4.727c-0.034-1.408-0.104-2.679-0.212-3.781c-0.476-0.055-0.956-0.083-1.43-0.083
		c-0.371,0-0.741,0.017-1.111,0.05C8.458,4.693,7.552,4.792,6.653,4.909C5.75,5.027,4.84,5.138,3.925,5.244
		C3.372,5.308,2.811,5.34,2.257,5.34c-0.371,0-0.741-0.014-1.112-0.043C0.871,5.273,0.588,5.21,0.303,5.111
		C0.05,5.023-0.237,4.787-0.164,4.16c0.026-0.294,0.173-0.594,0.438-0.884c0.252-0.279,0.53-0.42,0.823-0.42l10.484-0.621
		c0.027-0.104,0.064-0.229,0.111-0.379c0.075-0.237,0.175-0.468,0.297-0.688c0.126-0.227,0.281-0.427,0.46-0.594
		s0.387-0.251,0.617-0.251l0.104,0.006c0.346,0.026,0.631,0.146,0.841,0.356c0.185,0.185,0.343,0.388,0.47,0.602l0.318,0.547
		c0.094,0.165,0.182,0.179,0.21,0.184c3.721-0.003,7.634-0.074,11.598-0.213c0,0,0.271,0.006,0.577,0.018
		c0.319,0.013,0.54,0.032,0.663,0.056l0.15,0.13C28.17,2.5,27.98,2.917,27.46,3.184c-0.457,0.235-1.087,0.408-1.926,0.53
		c-0.807,0.118-1.742,0.201-2.779,0.248c-1.033,0.047-2.06,0.083-3.081,0.105c-1.017,0.023-1.977,0.059-2.877,0.105
		c-0.811,0.042-1.469,0.104-1.961,0.184c-0.172,1.165-0.271,2.432-0.292,3.768c-0.023,1.397-0.018,2.861,0.018,4.351
		c0.035,1.491,0.1,3.026,0.193,4.563c0.093,1.547,0.181,3.07,0.264,4.571c0.082,1.495,0.135,2.965,0.159,4.367
		c0.023,1.405-0.013,2.736-0.106,3.956c0.057,0.266,0.239,1.235-0.32,1.454C14.598,31.447,14.396,31.477,14.133,31.477z"/>
	<path d="M12.094,4.465C11.18,4.348,10.266,4.33,9.352,4.412C8.438,4.495,7.529,4.594,6.627,4.711
		C5.725,4.829,4.816,4.939,3.902,5.045S2.074,5.168,1.16,5.098C0.902,5.075,0.638,5.016,0.369,4.922
		C0.1,4.829-0.012,4.583,0.035,4.184C0.058,3.926,0.188,3.668,0.422,3.41c0.234-0.258,0.48-0.375,0.738-0.352l10.582-0.633
		c0.023-0.117,0.07-0.287,0.141-0.51c0.07-0.223,0.164-0.439,0.281-0.65c0.117-0.211,0.258-0.392,0.422-0.545
		c0.164-0.152,0.352-0.216,0.563-0.193c0.304,0.023,0.545,0.123,0.721,0.299s0.322,0.364,0.439,0.563
		c0.117,0.199,0.223,0.381,0.316,0.545c0.093,0.164,0.211,0.258,0.352,0.281c3.773,0,7.652-0.07,11.637-0.211
		c0.07,0,0.258,0.006,0.563,0.018c0.304,0.012,0.515,0.03,0.633,0.053c0.141,0.399-0.006,0.709-0.439,0.932
		c-0.434,0.223-1.055,0.393-1.863,0.51c-0.809,0.118-1.729,0.199-2.76,0.246c-1.032,0.047-2.057,0.083-3.076,0.105
		c-1.02,0.023-1.981,0.059-2.883,0.105C15.885,4.02,15.175,4.09,14.66,4.184c-0.188,1.219-0.293,2.531-0.316,3.938
		c-0.023,1.406-0.018,2.86,0.018,4.359c0.035,1.5,0.1,3.023,0.193,4.57c0.093,1.547,0.181,3.07,0.264,4.57
		c0.082,1.5,0.135,2.953,0.158,4.359c0.023,1.406-0.012,2.719-0.105,3.938c0.141,0.75,0.076,1.178-0.193,1.283
		c-0.27,0.105-0.779,0.1-1.529-0.018c-0.188-0.961-0.329-2.127-0.422-3.498c-0.094-1.371-0.164-2.859-0.211-4.465
		c-0.047-1.605-0.07-3.27-0.07-4.992s-0.012-3.416-0.035-5.08c-0.023-1.664-0.053-3.24-0.088-4.729
		C12.287,6.932,12.211,5.613,12.094,4.465z"/>
	<path d="M36.371,32.142c-0.205,0-0.406-0.049-0.601-0.146c-0.284-0.142-0.496-0.431-0.629-0.857
		c0.061-0.857,0.12-1.871,0.167-3.091c0.046-1.21,0.064-2.52,0.052-3.893c-0.012-1.386-0.053-2.784-0.123-4.158
		c-0.07-1.382-0.182-2.648-0.333-3.762c-0.151-1.11-0.349-2.038-0.589-2.758c-0.217-0.653-0.475-1.026-0.746-1.08
		c-0.294-0.091-0.567-0.134-0.83-0.134c-0.408,0-0.811,0.104-1.2,0.308c-0.664,0.349-1.298,0.91-1.886,1.668
		c-0.599,0.771-1.159,1.705-1.665,2.776c-0.51,1.078-0.987,2.231-1.417,3.427c-0.43,1.197-0.819,2.411-1.156,3.607
		c-0.337,1.197-0.614,2.311-0.823,3.31s-0.368,1.864-0.473,2.572c-0.127,0.865-0.137,1.205-0.122,1.337l-0.199,0.223
		c-0.148,0-0.339,0.027-0.569,0.082c-0.252,0.061-0.498,0.108-0.737,0.145c-0.098,0.015-0.192,0.021-0.281,0.021
		c-0.153,0-0.297-0.021-0.427-0.065c-0.149-0.05-0.4-0.197-0.4-0.629l-0.598-28.93c0-0.303,0.15-0.514,0.422-0.599
		c0.153-0.047,0.321-0.072,0.499-0.072c0.069,0,0.14,0.004,0.213,0.011c0.253,0.025,0.499,0.09,0.729,0.192
		c0.244,0.109,0.408,0.221,0.5,0.344l0.041,0.119l0.165,20.868c0.051-0.194,0.105-0.404,0.162-0.63c0.223-0.891,0.514-1.899,0.865-3
		c0.352-1.104,0.792-2.252,1.309-3.413c0.519-1.168,1.16-2.235,1.907-3.172c0.751-0.942,1.66-1.699,2.699-2.25
		c0.863-0.456,1.848-0.688,2.926-0.688c0.234,0,0.474,0.011,0.718,0.032c0.518,0.268,0.918,0.582,1.271,0.959
		c0.355,0.381,0.676,0.91,0.953,1.571c0.274,0.657,0.514,1.492,0.714,2.481c0.2,0.991,0.373,2.24,0.513,3.712
		c0.139,1.464,0.252,3.254,0.334,5.319c0.082,2.055,0.135,4.493,0.159,7.248c-0.101,0.277-0.265,0.466-0.505,0.639
		c-0.234,0.169-0.491,0.281-0.765,0.333C36.535,32.134,36.452,32.142,36.371,32.142z"/>
	<path d="M35.332,31.078c0.07-0.797,0.128-1.805,0.176-3.023c0.047-1.219,0.064-2.52,0.053-3.902
		c-0.012-1.383-0.053-2.771-0.123-4.166s-0.182-2.654-0.334-3.779c-0.153-1.125-0.352-2.057-0.598-2.795s-0.545-1.143-0.896-1.213
		c-0.75-0.234-1.471-0.17-2.162,0.193c-0.691,0.364-1.342,0.938-1.951,1.723c-0.61,0.786-1.172,1.723-1.688,2.813
		c-0.516,1.09-0.99,2.238-1.424,3.445c-0.434,1.207-0.821,2.414-1.16,3.621c-0.34,1.207-0.615,2.314-0.826,3.322
		s-0.369,1.869-0.475,2.584s-0.146,1.178-0.123,1.389c-0.164,0-0.369,0.029-0.615,0.088s-0.487,0.105-0.721,0.141
		c-0.234,0.035-0.439,0.023-0.615-0.035s-0.264-0.205-0.264-0.439L20.988,2.109c0-0.211,0.093-0.346,0.281-0.404
		c0.188-0.058,0.398-0.076,0.633-0.053c0.234,0.023,0.457,0.083,0.668,0.176c0.211,0.094,0.352,0.188,0.422,0.281l0.176,22.219
		c0.141-0.398,0.322-1.043,0.545-1.934c0.223-0.891,0.51-1.887,0.861-2.988s0.785-2.232,1.301-3.393
		c0.515-1.16,1.143-2.203,1.881-3.129c0.738-0.926,1.617-1.658,2.637-2.197c1.02-0.539,2.197-0.75,3.533-0.633
		c0.422,0.234,0.803,0.533,1.143,0.896c0.339,0.364,0.645,0.867,0.914,1.512c0.269,0.645,0.504,1.459,0.703,2.443
		c0.199,0.984,0.369,2.215,0.51,3.691s0.251,3.246,0.334,5.309c0.082,2.063,0.135,4.477,0.158,7.242
		c-0.07,0.164-0.211,0.322-0.422,0.475s-0.439,0.252-0.686,0.299s-0.487,0.012-0.721-0.105
		C35.625,31.699,35.449,31.453,35.332,31.078z"/>
	<path d="M40.904,32.017c-0.293,0-0.567-0.104-0.813-0.311c-0.258-0.215-0.389-0.544-0.389-0.979L39.246,9.918l0.11-0.183
		c0.153-0.077,0.328-0.139,0.533-0.191c0.203-0.051,0.402-0.077,0.594-0.077c0.202,0,0.4,0.041,0.588,0.122
		c0.208,0.089,0.372,0.251,0.487,0.481c0.021,1.612,0.039,3.257,0.074,5.025c0.035,1.769,0.082,3.561,0.14,5.376
		c0.058,1.817,0.111,3.604,0.158,5.362c0.047,1.758,0.093,3.387,0.141,4.887c0.027,0.408-0.09,0.734-0.348,0.964
		C41.475,31.905,41.2,32.017,40.904,32.017z M40.195,4.564c-0.109,0-0.22-0.016-0.33-0.047c-0.292-0.083-0.542-0.276-0.743-0.572
		c-0.198-0.29-0.298-0.695-0.298-1.202c0-0.48,0.232-0.697,0.427-0.794c0.238-0.119,0.504-0.18,0.792-0.18
		c0.753,0,1.043,0.348,1.154,0.639c0.137,0.362,0.207,0.782,0.207,1.249c-0.181,0.409-0.4,0.64-0.673,0.776
		C40.557,4.52,40.377,4.564,40.195,4.564z"/>
	<path d="M39.023,2.742c0-0.304,0.105-0.51,0.316-0.615s0.445-0.158,0.703-0.158c0.515,0,0.838,0.17,0.967,0.51
		c0.128,0.34,0.193,0.733,0.193,1.178c-0.141,0.281-0.329,0.48-0.563,0.598c-0.234,0.118-0.475,0.141-0.721,0.07
		s-0.457-0.234-0.633-0.492C39.111,3.574,39.023,3.211,39.023,2.742z M39.445,9.914c0.141-0.07,0.304-0.128,0.492-0.176
		c0.188-0.047,0.369-0.07,0.545-0.07s0.346,0.035,0.51,0.105c0.164,0.07,0.293,0.199,0.387,0.387c0,1.524,0.018,3.17,0.053,4.939
		c0.035,1.77,0.082,3.563,0.141,5.379c0.058,1.816,0.111,3.604,0.158,5.361c0.047,1.758,0.093,3.387,0.141,4.887
		c0.023,0.352-0.07,0.621-0.281,0.809s-0.439,0.281-0.686,0.281s-0.475-0.088-0.686-0.264s-0.316-0.451-0.316-0.826L39.445,9.914z"
		/>
	<path d="M57.379,32.217c-0.375,0-0.716-0.215-1.012-0.638l-0.036-0.104c-0.023-0.447-0.036-1.219-0.036-2.313
		c0-1.089-0.018-2.335-0.052-3.739c-0.035-1.396-0.106-2.878-0.211-4.403c-0.104-1.521-0.281-2.943-0.524-4.23
		c-0.242-1.277-0.579-2.359-1.002-3.218c-0.408-0.825-0.906-1.278-1.525-1.385c-0.053-0.009-0.109-0.013-0.165-0.013
		c-0.448,0-0.901,0.298-1.347,0.886c-0.538,0.71-1.062,1.666-1.557,2.84c-0.497,1.179-0.968,2.532-1.398,4.021
		s-0.82,2.977-1.157,4.42c-0.34,1.455-0.629,2.801-0.86,4c-0.232,1.207-0.385,2.148-0.455,2.796c-0.099,0.281-0.271,0.47-0.523,0.61
		c-0.237,0.132-0.497,0.205-0.773,0.219c-0.007,0-0.015,0-0.022,0c-0.322,0-0.562-0.047-0.797-0.137
		c-0.296-0.112-0.517-0.325-0.656-0.631l-0.053-20.649c0.029-0.306,0.147-0.54,0.351-0.715c0.191-0.164,0.413-0.268,0.66-0.309
		c0.074-0.012,0.148-0.019,0.223-0.019c0.172,0,0.345,0.034,0.515,0.1c0.241,0.094,0.445,0.237,0.607,0.425l0.048,0.132
		l-0.093,12.431c0.288-1.15,0.557-2.296,0.805-3.423c0.364-1.657,0.823-3.182,1.363-4.531c0.546-1.365,1.245-2.51,2.079-3.402
		c0.851-0.911,1.994-1.435,3.398-1.557c0.093-0.009,0.187-0.014,0.28-0.014c0.667,0,1.263,0.241,1.772,0.717
		c0.556,0.521,1.039,1.234,1.435,2.121c0.39,0.873,0.719,1.909,0.979,3.079c0.257,1.156,0.465,2.381,0.619,3.64
		c0.152,1.253,0.265,2.528,0.335,3.793c0.07,1.268,0.117,2.441,0.141,3.522c0.023,1.08,0.029,2.032,0.018,2.854
		c-0.013,0.824-0.03,1.426-0.053,1.803c-0.202,0.518-0.533,0.822-1.001,0.969C57.591,32.199,57.483,32.216,57.379,32.217z"/>
	<path d="M43.418,10.547c0.023-0.234,0.117-0.422,0.281-0.563c0.164-0.141,0.352-0.229,0.563-0.264s0.422-0.012,0.633,0.07
		c0.211,0.083,0.387,0.206,0.527,0.369l-0.105,14.063c0.445-1.688,0.849-3.357,1.213-5.01c0.363-1.652,0.814-3.152,1.354-4.5
		c0.539-1.348,1.218-2.461,2.039-3.34c0.82-0.879,1.91-1.376,3.27-1.494c0.726-0.07,1.359,0.146,1.898,0.65
		c0.539,0.504,1.002,1.19,1.389,2.057c0.387,0.867,0.708,1.881,0.967,3.041c0.258,1.16,0.462,2.367,0.615,3.621
		c0.152,1.254,0.264,2.514,0.334,3.779s0.117,2.438,0.141,3.516c0.023,1.078,0.029,2.027,0.018,2.848
		c-0.012,0.82-0.03,1.418-0.053,1.793c-0.164,0.398-0.452,0.662-0.861,0.791c-0.41,0.129-0.779-0.041-1.107-0.51
		c-0.023-0.445-0.035-1.213-0.035-2.303s-0.018-2.338-0.053-3.744s-0.105-2.877-0.211-4.412s-0.281-2.953-0.527-4.254
		s-0.586-2.391-1.02-3.27c-0.434-0.879-0.99-1.376-1.67-1.494c-0.586-0.093-1.155,0.223-1.705,0.949
		c-0.551,0.727-1.078,1.688-1.582,2.883c-0.504,1.195-0.973,2.543-1.406,4.043c-0.434,1.5-0.821,2.977-1.16,4.43
		c-0.34,1.453-0.627,2.789-0.861,4.008c-0.234,1.219-0.387,2.156-0.457,2.813c-0.07,0.188-0.211,0.34-0.422,0.457
		s-0.439,0.182-0.686,0.193s-0.492-0.029-0.738-0.123s-0.428-0.27-0.545-0.527L43.418,10.547z"/>
	<path d="M61.267,32.187c-0.056,0-0.111-0.005-0.167-0.016c-0.219-0.041-0.432-0.143-0.633-0.304
		c-0.177-0.142-0.336-0.271-0.478-0.39l-0.072-0.152L59.741,2.216L59.8,2.073c0.503-0.502,0.921-0.747,1.277-0.747
		c0.07,0,0.139,0.01,0.204,0.029c0.384,0.114,0.671,0.478,0.855,1.083l0.077,19.037l8.747-11.82l0.161-0.081
		c0.426,0,0.792,0.072,1.088,0.213c0.344,0.165,0.519,0.527,0.519,1.077l-0.038,0.117l-9.143,12.605l10.124,5.028
		c0.146,0.159,0.242,0.328,0.355,0.567c0.118,0.249,0.178,0.503,0.178,0.754c0,0.269-0.098,0.524-0.292,0.76
		c-0.204,0.247-0.55,0.38-1.058,0.407l-0.104-0.023l-10.324-5.401v5.4c-0.197,0.519-0.396,0.802-0.622,0.943
		C61.629,32.131,61.448,32.187,61.267,32.187z"/>
	<path d="M59.941,2.215c0.539-0.539,0.967-0.761,1.283-0.668c0.316,0.094,0.557,0.41,0.721,0.949l0.07,19.582l9.105-12.305
		c0.398,0,0.732,0.065,1.002,0.193c0.269,0.129,0.404,0.428,0.404,0.896L63.246,23.66l10.336,5.133
		c0.07,0.094,0.158,0.252,0.264,0.475s0.158,0.445,0.158,0.668s-0.083,0.434-0.246,0.633c-0.164,0.199-0.469,0.311-0.914,0.334
		l-10.617-5.555v5.73c-0.164,0.398-0.34,0.656-0.527,0.773c-0.188,0.117-0.375,0.158-0.563,0.123
		c-0.188-0.035-0.369-0.123-0.545-0.264s-0.334-0.27-0.475-0.387L59.941,2.215z"/>
	<path d="M96.036,31.682c-0.231-0.013-0.464-0.064-0.694-0.153c-0.248-0.097-0.425-0.214-0.541-0.36l-0.044-0.125
		c0-2.418,0.042-4.739,0.124-6.898c0.082-2.18,0.158-4.265,0.229-6.257c0.07-1.99,0.117-3.905,0.14-5.744
		c0.021-1.695-0.028-3.362-0.146-4.962c-0.028,0.028-0.545,0.583-0.545,0.583c-0.16,0.172-0.326,0.326-0.498,0.46
		c-0.202,0.159-0.38,0.236-0.545,0.236c-0.242,0-0.461-0.097-0.651-0.288c-0.19-0.189-0.287-0.432-0.287-0.721V7.348
		c0-0.056,0.018-0.116,0.056-0.194c0.225-0.282,0.471-0.685,0.758-1.234c0.295-0.566,0.613-1.132,0.955-1.699
		c0.337-0.558,0.671-1.065,0.994-1.508c0.36-0.493,0.683-0.733,0.988-0.733c0.288,0,0.513,0.079,0.668,0.234
		c0.131,0.132,0.244,0.291,0.336,0.474c0.083,0.167,0.167,0.346,0.25,0.537c0.051,0.118,0.127,0.217,0.231,0.3
		c0.772-0.445,1.621-0.836,2.523-1.164c0.949-0.343,1.915-0.583,2.872-0.713c0.588-0.08,1.172-0.12,1.737-0.12
		c0.36,0,0.717,0.016,1.068,0.048c0.911,0.084,1.756,0.31,2.511,0.669c0.763,0.363,1.419,0.891,1.952,1.569
		c0.534,0.68,0.891,1.539,1.06,2.552c-0.021,1.357-0.41,2.611-1.154,3.762c-0.733,1.135-1.645,2.185-2.708,3.118
		c-1.058,0.929-2.215,1.764-3.441,2.483c-1.21,0.71-2.349,1.339-3.385,1.869c-1.034,0.529-1.88,0.946-2.538,1.252
		c-0.548,0.254-0.736,0.375-0.8,0.425L97.055,30.98c0,0.257-0.123,0.458-0.356,0.575c-0.171,0.086-0.364,0.129-0.574,0.129
		L96.036,31.682z M97.513,16.481c1.099-0.417,2.256-0.901,3.444-1.44c1.271-0.577,2.479-1.251,3.591-2.005
		c1.104-0.748,2.092-1.612,2.933-2.568c0.83-0.943,1.4-2.044,1.696-3.272c-0.183-1.198-0.681-2.128-1.484-2.689
		c-0.817-0.571-1.809-0.866-2.946-0.878l-0.079-0.201v0.2c-1.13,0-2.344,0.244-3.609,0.726c-1.271,0.484-2.463,1.157-3.545,2.002
		V16.481z"/>
	<path d="M94.957,31.043c0-2.414,0.041-4.711,0.123-6.891c0.082-2.18,0.158-4.266,0.229-6.258c0.07-1.992,0.117-3.908,0.141-5.748
		c0.023-1.84-0.035-3.626-0.176-5.361c-0.118,0.07-0.252,0.188-0.404,0.352c-0.153,0.164-0.305,0.329-0.457,0.492
		c-0.153,0.164-0.311,0.311-0.475,0.439c-0.164,0.129-0.305,0.193-0.422,0.193c-0.188,0-0.357-0.076-0.51-0.229
		c-0.153-0.152-0.229-0.346-0.229-0.58V7.348c0-0.023,0.012-0.058,0.035-0.105c0.211-0.258,0.462-0.668,0.756-1.23
		c0.293-0.563,0.609-1.125,0.949-1.688c0.339-0.563,0.668-1.06,0.984-1.494c0.316-0.434,0.592-0.65,0.826-0.65
		c0.234,0,0.41,0.059,0.527,0.176c0.117,0.118,0.216,0.258,0.299,0.422c0.082,0.164,0.164,0.34,0.246,0.527
		c0.082,0.188,0.216,0.34,0.404,0.457c0.796-0.469,1.664-0.873,2.602-1.213c0.938-0.339,1.881-0.574,2.83-0.703
		c0.949-0.128,1.869-0.152,2.76-0.07c0.891,0.083,1.705,0.299,2.443,0.65s1.365,0.856,1.881,1.512
		c0.516,0.656,0.855,1.477,1.02,2.461c-0.023,1.289-0.398,2.496-1.125,3.621s-1.617,2.15-2.672,3.076
		c-1.055,0.926-2.191,1.746-3.41,2.461c-1.219,0.715-2.344,1.336-3.375,1.863s-1.875,0.943-2.531,1.248s-0.961,0.492-0.914,0.563
		l-0.457,11.742c0,0.188-0.083,0.322-0.246,0.404c-0.164,0.082-0.352,0.117-0.563,0.105s-0.422-0.059-0.633-0.141
		S95.05,31.16,94.957,31.043z M97.313,16.77c1.195-0.445,2.438-0.961,3.727-1.547c1.289-0.585,2.496-1.26,3.621-2.021
		c1.125-0.761,2.115-1.629,2.971-2.602c0.855-0.972,1.436-2.092,1.74-3.357c-0.188-1.336-0.709-2.303-1.564-2.9
		s-1.875-0.902-3.059-0.914c-1.184-0.012-2.438,0.234-3.762,0.738c-1.324,0.504-2.549,1.201-3.674,2.092V16.77z"/>
	<path d="M114.451,32.017c-0.293,0-0.566-0.104-0.813-0.311c-0.258-0.215-0.389-0.544-0.389-0.979l-0.457-20.808l0.11-0.183
		c0.153-0.077,0.327-0.139,0.533-0.191c0.203-0.051,0.402-0.077,0.594-0.077c0.202,0,0.4,0.041,0.589,0.122
		c0.208,0.089,0.371,0.251,0.486,0.481c0.021,1.612,0.039,3.257,0.074,5.025c0.035,1.769,0.082,3.561,0.141,5.376
		c0.059,1.817,0.111,3.604,0.158,5.363c0.047,1.757,0.094,3.386,0.141,4.886c0.027,0.407-0.09,0.734-0.349,0.964
		C115.021,31.905,114.746,32.017,114.451,32.017z M113.742,4.564c-0.109,0-0.221-0.016-0.33-0.047
		c-0.292-0.083-0.542-0.276-0.743-0.572c-0.198-0.29-0.299-0.695-0.299-1.202c0-0.48,0.232-0.697,0.427-0.794
		c0.238-0.119,0.505-0.18,0.793-0.18c0.753,0,1.043,0.348,1.153,0.639c0.138,0.361,0.207,0.781,0.207,1.249
		c-0.181,0.409-0.4,0.64-0.673,0.776C114.104,4.52,113.924,4.564,113.742,4.564z"/>
	<path d="M112.57,2.742c0-0.304,0.105-0.51,0.316-0.615s0.445-0.158,0.703-0.158c0.516,0,0.838,0.17,0.967,0.51
		c0.129,0.34,0.193,0.733,0.193,1.178c-0.141,0.281-0.328,0.48-0.563,0.598c-0.234,0.118-0.475,0.141-0.721,0.07
		s-0.457-0.234-0.633-0.492C112.658,3.574,112.57,3.211,112.57,2.742z M112.992,9.914c0.141-0.07,0.305-0.128,0.492-0.176
		c0.188-0.047,0.369-0.07,0.545-0.07s0.346,0.035,0.51,0.105s0.293,0.199,0.387,0.387c0,1.524,0.018,3.17,0.053,4.939
		c0.035,1.77,0.082,3.563,0.141,5.379s0.111,3.604,0.158,5.361s0.094,3.387,0.141,4.887c0.023,0.352-0.07,0.621-0.281,0.809
		s-0.439,0.281-0.686,0.281s-0.475-0.088-0.686-0.264s-0.316-0.451-0.316-0.826L112.992,9.914z"/>
	<path d="M130.926,32.217c-0.375,0-0.716-0.215-1.012-0.638l-0.036-0.104c-0.023-0.447-0.035-1.219-0.035-2.313
		c0-1.089-0.018-2.335-0.053-3.739c-0.034-1.396-0.105-2.878-0.21-4.403c-0.104-1.521-0.281-2.943-0.524-4.23
		c-0.242-1.277-0.579-2.359-1.003-3.218c-0.401-0.813-0.914-1.28-1.524-1.385c-0.054-0.009-0.109-0.013-0.165-0.013
		c-0.447,0-0.9,0.298-1.347,0.886c-0.538,0.709-1.062,1.665-1.557,2.839c-0.499,1.182-0.97,2.536-1.398,4.021
		c-0.431,1.489-0.82,2.977-1.158,4.42c-0.337,1.443-0.626,2.789-0.859,4c-0.232,1.207-0.385,2.148-0.454,2.796
		c-0.099,0.281-0.271,0.47-0.524,0.61c-0.236,0.132-0.497,0.205-0.772,0.219c-0.008,0-0.016,0-0.022,0
		c-0.322,0-0.562-0.047-0.797-0.137c-0.296-0.112-0.517-0.325-0.655-0.631l-0.054-20.649c0.03-0.307,0.147-0.541,0.352-0.715
		c0.191-0.164,0.413-0.268,0.659-0.309c0.074-0.012,0.148-0.019,0.223-0.019c0.172,0,0.346,0.034,0.516,0.1
		c0.241,0.094,0.445,0.237,0.606,0.425l0.049,0.132l-0.094,12.432c0.288-1.15,0.558-2.297,0.806-3.424
		c0.363-1.654,0.822-3.179,1.363-4.531c0.546-1.364,1.245-2.509,2.078-3.402c0.851-0.912,1.994-1.436,3.398-1.557
		c0.094-0.009,0.188-0.014,0.28-0.014c0.667,0,1.264,0.241,1.772,0.717c0.556,0.521,1.039,1.234,1.435,2.121
		c0.391,0.875,0.72,1.912,0.979,3.079c0.258,1.161,0.466,2.386,0.618,3.64c0.152,1.253,0.266,2.528,0.335,3.793
		c0.071,1.268,0.118,2.441,0.142,3.522c0.023,1.08,0.029,2.032,0.018,2.854c-0.012,0.824-0.029,1.426-0.054,1.803
		c-0.201,0.518-0.533,0.822-1.001,0.969C131.138,32.199,131.03,32.216,130.926,32.217z"/>
	<path d="M116.965,10.547c0.023-0.234,0.117-0.422,0.281-0.563s0.352-0.229,0.563-0.264s0.422-0.012,0.633,0.07
		c0.211,0.083,0.387,0.206,0.527,0.369l-0.105,14.063c0.445-1.688,0.85-3.357,1.213-5.01s0.814-3.152,1.354-4.5
		c0.539-1.348,1.219-2.461,2.039-3.34s1.91-1.376,3.27-1.494c0.727-0.07,1.359,0.146,1.898,0.65c0.539,0.504,1.002,1.19,1.389,2.057
		c0.387,0.867,0.709,1.881,0.967,3.041s0.463,2.367,0.615,3.621s0.264,2.514,0.334,3.779s0.117,2.438,0.141,3.516
		s0.029,2.027,0.018,2.848s-0.029,1.418-0.053,1.793c-0.164,0.398-0.451,0.662-0.861,0.791s-0.779-0.041-1.107-0.51
		c-0.023-0.445-0.035-1.213-0.035-2.303s-0.018-2.338-0.053-3.744s-0.105-2.877-0.211-4.412s-0.281-2.953-0.527-4.254
		s-0.586-2.391-1.02-3.27s-0.99-1.376-1.67-1.494c-0.586-0.093-1.154,0.223-1.705,0.949c-0.551,0.727-1.078,1.688-1.582,2.883
		s-0.973,2.543-1.406,4.043s-0.82,2.977-1.16,4.43s-0.627,2.789-0.861,4.008s-0.387,2.156-0.457,2.813
		c-0.07,0.188-0.211,0.34-0.422,0.457s-0.439,0.182-0.686,0.193s-0.492-0.029-0.738-0.123s-0.428-0.27-0.545-0.527L116.965,10.547z"
		/>
	<path d="M134.813,32.187c-0.056,0-0.111-0.005-0.167-0.016c-0.219-0.041-0.432-0.144-0.633-0.304
		c-0.177-0.142-0.336-0.271-0.478-0.39l-0.072-0.152l-0.176-29.109l0.059-0.143c0.503-0.502,0.921-0.747,1.277-0.747
		c0.07,0,0.139,0.01,0.204,0.029c0.384,0.114,0.671,0.478,0.855,1.083l0.076,19.037l8.747-11.82l0.161-0.081
		c0.426,0,0.792,0.072,1.088,0.213c0.344,0.165,0.519,0.527,0.519,1.077l-0.038,0.117l-9.143,12.605l10.124,5.028
		c0.146,0.159,0.242,0.328,0.355,0.567c0.118,0.249,0.178,0.503,0.178,0.754c0,0.27-0.099,0.525-0.292,0.76
		c-0.203,0.247-0.549,0.38-1.058,0.407l-0.104-0.023l-10.324-5.401v5.4c-0.197,0.519-0.396,0.802-0.621,0.943
		C135.176,32.131,134.995,32.187,134.813,32.187z"/>
	<path d="M133.488,2.215c0.539-0.539,0.967-0.761,1.283-0.668c0.316,0.094,0.557,0.41,0.721,0.949l0.07,19.582l9.105-12.305
		c0.398,0,0.732,0.065,1.002,0.193c0.27,0.129,0.404,0.428,0.404,0.896l-9.281,12.797l10.336,5.133
		c0.07,0.094,0.158,0.252,0.264,0.475s0.158,0.445,0.158,0.668s-0.082,0.434-0.246,0.633s-0.469,0.311-0.914,0.334l-10.617-5.555
		v5.73c-0.164,0.398-0.34,0.656-0.527,0.773s-0.375,0.158-0.563,0.123s-0.369-0.123-0.545-0.264s-0.334-0.27-0.475-0.387
		L133.488,2.215z"/>
</g>
</svg>
