<?xml version="1.0" encoding="utf-8"?>
<!-- Generator: Adobe Illustrator 16.0.0, SVG Export Plug-In . SVG Version: 6.00 Build 0)  -->
<!DOCTYPE svg PUBLIC "-//W3C//DTD SVG 1.0//EN" "http://www.w3.org/TR/2001/REC-SVG-20010904/DTD/svg10.dtd">
<svg version="1.0" id="Layer_1" xmlns="http://www.w3.org/2000/svg" xmlns:xlink="http://www.w3.org/1999/xlink" x="0px" y="0px"
	 width="110.611px" height="110.453px" viewBox="0 0 110.611 110.453" enable-background="new 0 0 110.611 110.453"
	 xml:space="preserve">
<g>
	<g>
		<path fill="#101111" d="M110.088,55.543c0,30.12-24.42,54.543-54.539,54.543C25.422,110.086,1,85.663,1,55.543
			C1,25.42,25.422,1,55.549,1C85.668,1,110.088,25.42,110.088,55.543z"/>
	</g>
	<g opacity="0.7">
		<path fill="#FFFFFF" d="M55.549,99.424c-24.199,0-43.887-19.686-43.887-43.881c0-24.199,19.688-43.886,43.887-43.886
			c24.196,0,43.881,19.688,43.881,43.886C99.43,79.738,79.745,99.424,55.549,99.424z M55.549,12.157
			c-23.923,0-43.387,19.463-43.387,43.386c0,23.92,19.463,43.381,43.387,43.381c23.92,0,43.381-19.461,43.381-43.381
			C98.93,31.62,79.469,12.157,55.549,12.157z"/>
	</g>
	<g>
		<path fill="#FFFFFF" d="M36.92,60.273v-14.15h5.414c1.559,0,2.716,0.334,3.472,1.002s1.134,1.588,1.134,2.76
			c0,0.668-0.152,1.248-0.457,1.74s-0.703,0.873-1.195,1.143c0.563,0.223,1.061,0.621,1.494,1.195s0.65,1.289,0.65,2.145
			c0,1.207-0.387,2.203-1.16,2.988s-1.852,1.178-3.234,1.178H36.92z M39.539,51.889h2.584c0.633,0,1.143-0.146,1.529-0.439
			s0.58-0.744,0.58-1.354c0-1.148-0.686-1.723-2.057-1.723h-2.637V51.889z M39.539,58.041h3.076c0.574,0,1.069-0.167,1.485-0.501
			s0.624-0.812,0.624-1.433c0-0.586-0.188-1.066-0.563-1.441s-0.908-0.563-1.6-0.563h-3.023V58.041z"/>
		<path fill="#FFFFFF" d="M48.767,55.053c0-1.676,0.46-3.003,1.38-3.981s2.077-1.468,3.472-1.468c1.359,0,2.494,0.498,3.402,1.494
			s1.362,2.297,1.362,3.902c0,0.434-0.012,0.756-0.035,0.967h-7.032c0,0.715,0.22,1.33,0.659,1.846s1.04,0.773,1.802,0.773
			c0.539,0,1.017-0.138,1.433-0.413s0.729-0.624,0.94-1.046l2.093,0.738c-0.329,0.773-0.882,1.421-1.661,1.942
			c-0.78,0.521-1.738,0.782-2.875,0.782c-1.453,0-2.64-0.501-3.56-1.503S48.767,56.74,48.767,55.053z M51.334,54.227h4.5
			c0-0.727-0.196-1.348-0.588-1.863s-0.935-0.773-1.626-0.773c-0.703,0-1.257,0.261-1.661,0.782S51.345,53.512,51.334,54.227z"/>
		<path fill="#FFFFFF" d="M59.332,58.076l1.775-1.055c0.703,1.031,1.611,1.547,2.725,1.547c0.504,0,0.899-0.103,1.187-0.308
			s0.431-0.472,0.431-0.8c0-0.105-0.015-0.202-0.044-0.29s-0.079-0.173-0.149-0.255s-0.135-0.152-0.193-0.211
			s-0.155-0.123-0.29-0.193s-0.243-0.126-0.325-0.167s-0.211-0.094-0.387-0.158s-0.311-0.111-0.404-0.141s-0.246-0.076-0.457-0.141
			s-0.363-0.114-0.457-0.149c-0.891-0.293-1.605-0.668-2.145-1.125s-0.809-1.119-0.809-1.986c0-0.926,0.398-1.664,1.195-2.215
			s1.752-0.826,2.865-0.826c0.867,0,1.682,0.223,2.443,0.668s1.33,1.025,1.705,1.74l-1.652,1.002
			c-0.727-0.926-1.553-1.389-2.479-1.389c-0.48,0-0.853,0.097-1.116,0.29s-0.396,0.448-0.396,0.765c0,0.105,0.015,0.205,0.044,0.299
			s0.079,0.182,0.149,0.264s0.138,0.155,0.202,0.22s0.158,0.132,0.281,0.202s0.229,0.126,0.316,0.167s0.214,0.091,0.378,0.149
			s0.293,0.103,0.387,0.132s0.234,0.076,0.422,0.141s0.322,0.108,0.404,0.132c2.051,0.68,3.076,1.711,3.076,3.094
			c0,0.867-0.357,1.603-1.072,2.206s-1.729,0.905-3.041,0.905c-1.02,0-1.931-0.229-2.733-0.686S59.754,58.838,59.332,58.076z"/>
		<path fill="#FFFFFF" d="M68.807,52.047V49.92h1.547v-3.006h2.496v3.006h2.25v2.127h-2.25v4.816c0,0.844,0.369,1.266,1.107,1.266
			h1.16v2.145h-1.477c-1.008,0-1.808-0.258-2.399-0.773s-0.888-1.342-0.888-2.479v-4.975H68.807z"/>
	</g>
</g>
</svg>
