<?xml version="1.0" encoding="utf-8"?>
<!-- Generator: Adobe Illustrator 16.0.0, SVG Export Plug-In . SVG Version: 6.00 Build 0)  -->
<!DOCTYPE svg PUBLIC "-//W3C//DTD SVG 1.0//EN" "http://www.w3.org/TR/2001/REC-SVG-20010904/DTD/svg10.dtd">
<svg version="1.0" id="Layer_1" xmlns="http://www.w3.org/2000/svg" xmlns:xlink="http://www.w3.org/1999/xlink" x="0px" y="0px"
	 width="159.75px" height="33px" viewBox="0 0 159.75 33" enable-background="new 0 0 159.75 33" xml:space="preserve">
<g>
	<path d="M4.383,26.558c-0.241,0-0.453-0.088-0.625-0.261c-0.187-0.187-0.233-0.473-0.138-0.85c0.025-0.163,0.195-0.325,0.95-0.573
		c0.528-0.172,1.186-0.378,1.972-0.618c0.784-0.239,1.653-0.517,2.61-0.832c0.951-0.313,1.877-0.674,2.752-1.069
		c0.874-0.395,1.67-0.838,2.368-1.318c0.679-0.468,1.18-0.991,1.49-1.555c-0.001,0.001-0.001,0.001-0.002,0.001
		c-0.023,0-0.038-0.235-0.531-0.438c-0.404-0.165-0.951-0.306-1.623-0.418c-0.681-0.113-1.468-0.209-2.34-0.285
		c-0.881-0.076-1.798-0.183-2.726-0.317c-0.925-0.133-1.844-0.308-2.731-0.521c-0.894-0.214-1.704-0.515-2.405-0.895
		c-0.713-0.387-1.295-0.879-1.731-1.463C1.226,14.546,1,13.795,1,12.914c0-0.848,0.194-1.721,0.578-2.594
		c0.378-0.863,0.884-1.713,1.503-2.525c0.616-0.809,1.335-1.582,2.137-2.298C6.016,4.786,6.861,4.15,7.73,3.608
		c0.874-0.542,1.747-0.974,2.594-1.282c0.862-0.313,1.678-0.472,2.424-0.472c0.188,0,0.387-0.004,0.594-0.014l0.131-0.003
		c0.176,0,0.339,0.017,0.484,0.051c0.204,0.048,0.375,0.152,0.509,0.309c0.137,0.164,0.206,0.396,0.206,0.69
		c0,0.681-0.233,1.182-0.691,1.488c-0.434,0.289-0.964,0.436-1.577,0.436L11.106,4.4c-0.385,0.01-0.902,0.144-1.478,0.408
		C9.041,5.079,8.44,5.448,7.843,5.905C7.238,6.368,6.642,6.903,6.069,7.494c-0.576,0.595-1.091,1.214-1.53,1.843
		c-0.441,0.629-0.802,1.265-1.072,1.89c-0.266,0.613-0.4,1.17-0.4,1.658c0,0.601,0.187,1.075,0.571,1.451
		c0.4,0.391,0.937,0.708,1.595,0.946c0.677,0.244,1.46,0.43,2.329,0.55c0.889,0.125,1.792,0.234,2.708,0.33
		c0.921,0.097,1.828,0.201,2.72,0.317c0.9,0.116,1.708,0.278,2.4,0.48c0.71,0.208,1.295,0.5,1.738,0.872
		c0.467,0.394,0.704,0.923,0.704,1.575c0,0.619-0.247,1.241-0.733,1.849c-0.471,0.588-1.093,1.157-1.851,1.69
		c-0.753,0.53-1.628,1.029-2.602,1.483c-0.968,0.45-1.957,0.84-2.939,1.158c-0.98,0.316-1.95,0.565-2.882,0.738
		c-0.846,0.156-1.598,0.236-2.235,0.236L4.383,26.558z"/>
	<path d="M3.814,25.496c0.019-0.115,0.292-0.259,0.818-0.432c0.526-0.172,1.183-0.378,1.968-0.617s1.656-0.518,2.614-0.833
		c0.958-0.316,1.882-0.675,2.772-1.077s1.689-0.848,2.398-1.336c0.708-0.488,1.226-1.029,1.552-1.623
		c0-0.307-0.212-0.546-0.633-0.719c-0.421-0.172-0.977-0.315-1.666-0.431c-0.689-0.114-1.475-0.21-2.355-0.287
		c-0.881-0.076-1.786-0.182-2.715-0.316c-0.929-0.133-1.834-0.306-2.714-0.517c-0.882-0.211-1.667-0.503-2.356-0.876
		c-0.689-0.374-1.245-0.843-1.666-1.407C1.411,14.46,1.2,13.756,1.2,12.914c0-0.823,0.187-1.661,0.561-2.514
		C2.134,9.548,2.627,8.719,3.24,7.915c0.612-0.804,1.316-1.561,2.111-2.27c0.794-0.708,1.623-1.331,2.484-1.867
		c0.862-0.536,1.714-0.958,2.557-1.264s1.628-0.46,2.355-0.46c0.191,0,0.393-0.004,0.604-0.014c0.211-0.009,0.397,0.005,0.561,0.043
		c0.162,0.039,0.296,0.12,0.402,0.244c0.104,0.125,0.157,0.312,0.157,0.56c0,0.613-0.201,1.054-0.603,1.322
		c-0.402,0.268-0.891,0.402-1.466,0.402l-1.235-0.402c-0.479,0-1.02,0.139-1.623,0.417c-0.603,0.278-1.211,0.651-1.823,1.12
		C7.108,6.216,6.51,6.751,5.926,7.355C5.342,7.958,4.824,8.581,4.375,9.222c-0.45,0.642-0.814,1.283-1.092,1.925
		c-0.278,0.642-0.417,1.221-0.417,1.738c0,0.651,0.211,1.183,0.632,1.594c0.422,0.412,0.978,0.743,1.667,0.991
		c0.689,0.249,1.479,0.437,2.369,0.561c0.891,0.125,1.796,0.234,2.715,0.33c0.919,0.097,1.824,0.201,2.715,0.316
		s1.681,0.272,2.37,0.474S16.578,17.63,17,17.983c0.421,0.354,0.632,0.829,0.632,1.422c0,0.575-0.229,1.149-0.689,1.724
		c-0.46,0.575-1.063,1.126-1.81,1.652s-1.604,1.015-2.571,1.465s-1.938,0.833-2.916,1.149c-0.977,0.315-1.929,0.56-2.857,0.732
		c-0.93,0.172-1.729,0.248-2.399,0.229c-0.191,0-0.354-0.066-0.488-0.201C3.767,26.022,3.737,25.802,3.814,25.496z"/>
	<path d="M20.154,26.757c-0.059,0-0.117-0.005-0.175-0.017c-0.183-0.033-0.352-0.109-0.501-0.225
		c-0.158-0.121-0.264-0.272-0.314-0.448L19.098,2.4l0.09-0.167l0.356-0.242c0.145-0.101,0.3-0.169,0.459-0.203
		c0.058-0.013,0.115-0.019,0.171-0.019c0.117,0,0.227,0.028,0.326,0.083c0.149,0.081,0.268,0.236,0.362,0.474l0.188,23.772
		c-0.139,0.323-0.297,0.485-0.494,0.571C20.424,26.728,20.289,26.757,20.154,26.757z"/>
	<path d="M19.298,2.399c0.115-0.076,0.234-0.158,0.359-0.244c0.124-0.086,0.254-0.144,0.388-0.172s0.254-0.014,0.359,0.043
		c0.104,0.057,0.196,0.182,0.272,0.373l0.173,23.699c-0.097,0.192-0.221,0.32-0.374,0.388s-0.307,0.087-0.459,0.058
		c-0.154-0.028-0.293-0.091-0.417-0.187c-0.125-0.096-0.206-0.211-0.244-0.345L19.298,2.399z"/>
	<path d="M33.016,26.686c-0.14,0-0.275-0.03-0.402-0.09c-0.284-0.132-0.367-0.345-0.387-0.5c-0.253-0.344-0.434-0.905-0.502-1.585
		c-0.067-0.649-0.106-1.347-0.117-2.071c-0.01-0.721-0.01-1.431,0-2.132c0.006-0.408-0.01-0.783-0.048-1.123
		c-0.802,1.698-1.57,3.061-2.29,4.059c-0.804,1.114-1.555,1.923-2.23,2.401c-0.63,0.448-1.222,0.676-1.76,0.676
		c-0.057,0-0.113-0.003-0.168-0.008c-0.578-0.052-1.076-0.262-1.48-0.625c-0.393-0.352-0.705-0.791-0.927-1.305
		c-0.219-0.507-0.34-0.999-0.361-1.464c-0.134-0.718-0.139-1.622-0.013-2.661c0.125-1.026,0.349-2.105,0.667-3.206
		c0.317-1.095,0.727-2.182,1.218-3.232c0.494-1.056,1.063-1.983,1.692-2.756c0.637-0.784,1.329-1.375,2.058-1.76
		c0.453-0.238,0.923-0.359,1.4-0.359c0.317,0,0.642,0.053,0.967,0.159c0.065-0.023,0.203-0.03,0.332-0.03
		c0.231,0,0.439,0.023,0.62,0.07c0.299,0.079,0.552,0.241,0.751,0.483c0.191,0.235,0.331,0.559,0.414,0.963
		c0.078,0.383,0.137,0.87,0.176,1.449c-0.038,1.857,0.015,3.443,0.157,4.731c0.142,1.288,0.311,2.442,0.5,3.43
		c0.191,0.994,0.377,1.893,0.559,2.695c0.183,0.808,0.295,1.66,0.335,2.534c0,0.366-0.095,0.648-0.284,0.849
		c-0.181,0.191-0.387,0.317-0.615,0.374C33.19,26.674,33.102,26.686,33.016,26.686z M29.481,10.968c-0.059,0-0.119,0.005-0.18,0.016
		c-0.491,0.088-0.99,0.401-1.483,0.931c-0.512,0.55-1.009,1.279-1.478,2.169c-0.47,0.893-0.882,1.864-1.222,2.886
		c-0.339,1.018-0.593,2.046-0.754,3.056c-0.159,1.004-0.192,1.899-0.1,2.659c0.238,0.755,0.539,1.249,0.861,1.394
		c0.116,0.052,0.23,0.077,0.352,0.077c0.214,0,0.445-0.083,0.689-0.248c0.417-0.28,0.854-0.741,1.299-1.371
		c0.453-0.641,0.894-1.345,1.31-2.094c0.418-0.751,0.797-1.509,1.126-2.253c0.334-0.754,0.606-1.389,0.816-1.905l-0.156-4.65
		C30.218,11.192,29.854,10.968,29.481,10.968z"/>
	<path d="M32.426,26.07c-0.268-0.402-0.436-0.929-0.502-1.58c-0.067-0.65-0.105-1.336-0.115-2.054c-0.01-0.719-0.01-1.427,0-2.126
		s-0.043-1.297-0.158-1.796c-0.9,1.974-1.748,3.51-2.542,4.611c-0.795,1.102-1.522,1.887-2.184,2.355
		c-0.66,0.47-1.259,0.68-1.795,0.632s-0.991-0.239-1.364-0.574c-0.374-0.335-0.666-0.747-0.877-1.235s-0.325-0.953-0.345-1.394
		c-0.134-0.728-0.139-1.604-0.014-2.628c0.124-1.024,0.345-2.083,0.66-3.175c0.316-1.092,0.719-2.159,1.207-3.203
		c0.488-1.043,1.043-1.948,1.666-2.714c0.622-0.766,1.288-1.336,1.996-1.709c0.709-0.373,1.446-0.435,2.212-0.187
		c0.383-0.038,0.704-0.024,0.963,0.043c0.258,0.067,0.474,0.206,0.646,0.417c0.172,0.211,0.296,0.503,0.373,0.876
		c0.076,0.373,0.134,0.847,0.172,1.422c-0.038,1.858,0.015,3.438,0.158,4.74c0.144,1.302,0.312,2.451,0.503,3.446
		c0.191,0.996,0.378,1.896,0.561,2.701c0.182,0.804,0.291,1.637,0.33,2.499c0,0.307-0.077,0.541-0.229,0.703
		c-0.154,0.163-0.326,0.269-0.518,0.316s-0.369,0.033-0.531-0.043C32.536,26.339,32.445,26.224,32.426,26.07z M30.76,11.563
		c-0.459-0.613-0.957-0.872-1.493-0.776c-0.537,0.096-1.068,0.426-1.595,0.991s-1.029,1.303-1.508,2.212
		c-0.479,0.91-0.891,1.881-1.235,2.916s-0.599,2.064-0.762,3.088c-0.162,1.025-0.196,1.93-0.101,2.715
		c0.269,0.862,0.594,1.379,0.978,1.552c0.383,0.172,0.794,0.11,1.234-0.188c0.44-0.296,0.891-0.771,1.351-1.422
		c0.46-0.65,0.9-1.354,1.321-2.111c0.421-0.756,0.8-1.513,1.135-2.27c0.335-0.756,0.607-1.393,0.818-1.91L30.76,11.563z"/>
	<path d="M35.934,32.2c-0.16,0-0.32-0.044-0.475-0.131c-0.189-0.106-0.355-0.297-0.509-0.583l-0.023-0.109
		c0.171-2.349,0.296-4.339,0.373-5.913c0.077-1.568,0.13-2.912,0.158-4.031c0.028-1.092,0.033-2.089,0.014-2.964
		c-0.019-0.86-0.047-1.773-0.085-2.739l-0.13-3.333c-0.048-1.254-0.091-2.841-0.129-4.758c0.046-0.276,0.135-0.491,0.266-0.679
		c0.135-0.191,0.292-0.329,0.466-0.411c0.094-0.043,0.193-0.065,0.295-0.065c0.111,0,0.228,0.026,0.345,0.079
		c0.211,0.094,0.409,0.288,0.604,0.592l0.031,0.112l-0.072,3.145c0.562-0.671,1.184-1.297,1.854-1.866
		c0.821-0.695,1.664-1.278,2.505-1.732c0.847-0.457,1.68-0.783,2.478-0.967c0.439-0.102,0.854-0.153,1.235-0.153
		c0.325,0,0.632,0.038,0.915,0.112c0.633,0.166,1.128,0.54,1.471,1.11c0.337,0.563,0.457,1.354,0.358,2.35
		c-0.079,0.858-0.345,1.793-0.792,2.777c-0.443,0.972-0.995,1.948-1.64,2.902c-0.646,0.953-1.36,1.882-2.126,2.762
		c-0.771,0.886-1.53,1.674-2.257,2.344c-0.73,0.672-1.42,1.225-2.05,1.643c-0.563,0.373-1.025,0.583-1.403,0.637
		c-0.018,0.25-0.043,0.571-0.074,0.964c-0.038,0.487-0.077,1.042-0.115,1.663c-0.038,0.622-0.081,1.27-0.129,1.941
		c-0.048,0.669-0.091,1.31-0.129,1.923c-0.039,0.613-0.077,1.17-0.116,1.669c-0.039,0.491-0.057,0.859-0.057,1.104l-0.059,0.142
		c-0.106,0.106-0.236,0.204-0.386,0.29c-0.157,0.09-0.327,0.146-0.505,0.169L35.934,32.2z M44.398,7.822
		c-0.164,0-0.335,0.018-0.516,0.052c-0.522,0.101-1.105,0.334-1.734,0.695c-0.637,0.365-1.26,0.803-1.852,1.301
		c-0.592,0.498-1.149,1.055-1.657,1.656c-0.504,0.597-0.901,1.192-1.18,1.768l0.019,6.903c0.553-0.268,1.204-0.722,1.94-1.354
		c0.865-0.743,1.742-1.652,2.604-2.704c0.861-1.051,1.652-2.216,2.35-3.461c0.696-1.242,1.192-2.49,1.474-3.711
		c-0.105-0.469-0.323-0.817-0.667-0.981C44.949,7.878,44.686,7.822,44.398,7.822z"/>
	<path d="M35.126,31.392c0.173-2.375,0.297-4.348,0.373-5.918c0.077-1.57,0.13-2.915,0.158-4.036
		c0.029-1.12,0.033-2.111,0.015-2.973c-0.02-0.862-0.048-1.776-0.086-2.743c-0.039-0.967-0.082-2.078-0.13-3.333
		c-0.048-1.253-0.091-2.838-0.129-4.754c0.038-0.21,0.115-0.397,0.229-0.56c0.115-0.163,0.244-0.277,0.388-0.345
		c0.144-0.067,0.302-0.062,0.475,0.015c0.172,0.077,0.345,0.249,0.517,0.517l-0.086,3.734c0.65-0.843,1.384-1.609,2.197-2.298
		c0.814-0.689,1.638-1.259,2.471-1.709c0.833-0.45,1.642-0.766,2.428-0.948c0.785-0.182,1.47-0.196,2.054-0.043
		s1.034,0.493,1.351,1.02c0.315,0.527,0.426,1.269,0.33,2.227c-0.077,0.843-0.336,1.748-0.775,2.714
		c-0.441,0.968-0.982,1.925-1.623,2.873c-0.643,0.948-1.346,1.862-2.111,2.743c-0.767,0.881-1.514,1.657-2.241,2.327
		s-1.403,1.211-2.025,1.623s-1.115,0.617-1.479,0.617c-0.019,0.269-0.048,0.646-0.086,1.135s-0.077,1.044-0.115,1.666
		s-0.081,1.269-0.129,1.939c-0.048,0.67-0.091,1.312-0.129,1.925c-0.039,0.612-0.077,1.168-0.115,1.666
		c-0.039,0.498-0.058,0.871-0.058,1.12c-0.096,0.096-0.211,0.182-0.345,0.259c-0.134,0.076-0.277,0.124-0.431,0.144
		c-0.153,0.019-0.307-0.015-0.46-0.101S35.26,31.641,35.126,31.392z M37.28,20.504c0.632-0.248,1.389-0.751,2.27-1.508
		c0.881-0.756,1.757-1.666,2.629-2.729c0.871-1.063,1.661-2.227,2.369-3.49c0.709-1.264,1.207-2.519,1.494-3.764
		c-0.115-0.613-0.373-1.015-0.775-1.207c-0.402-0.191-0.876-0.234-1.422-0.129S42.7,8.023,42.049,8.396
		c-0.651,0.374-1.278,0.814-1.881,1.322c-0.604,0.507-1.164,1.068-1.681,1.68c-0.518,0.613-0.92,1.216-1.207,1.81V20.504z"/>
	<path d="M66.375,26.558c-0.241,0-0.453-0.088-0.625-0.261c-0.187-0.185-0.233-0.472-0.138-0.85c0.025-0.164,0.195-0.325,0.95-0.573
		c0.528-0.172,1.186-0.378,1.972-0.618c0.784-0.239,1.653-0.517,2.61-0.832c0.951-0.313,1.877-0.674,2.751-1.069
		c0.876-0.396,1.673-0.839,2.369-1.318c0.678-0.468,1.179-0.99,1.489-1.555c-0.001,0.001-0.001,0.001-0.002,0.001
		c-0.023,0-0.038-0.236-0.53-0.438c-0.406-0.165-0.952-0.306-1.623-0.418c-0.68-0.112-1.467-0.209-2.34-0.285
		c-0.879-0.076-1.797-0.183-2.726-0.317c-0.923-0.132-1.842-0.307-2.732-0.521c-0.894-0.214-1.703-0.515-2.404-0.895
		c-0.713-0.387-1.295-0.879-1.731-1.463c-0.446-0.597-0.672-1.348-0.672-2.231c0-0.847,0.194-1.72,0.577-2.594
		c0.38-0.867,0.886-1.716,1.503-2.526c0.619-0.812,1.338-1.585,2.137-2.298c0.801-0.713,1.647-1.349,2.513-1.888
		c0.871-0.542,1.744-0.973,2.594-1.282c0.861-0.313,1.677-0.472,2.424-0.472c0.188,0,0.387-0.004,0.594-0.014l0.131-0.003
		c0.176,0,0.339,0.017,0.483,0.051c0.205,0.048,0.376,0.152,0.509,0.31c0.137,0.162,0.206,0.394,0.206,0.689
		c0,0.681-0.233,1.182-0.693,1.488c-0.434,0.289-0.964,0.436-1.576,0.436L73.098,4.4c-0.385,0.01-0.902,0.144-1.478,0.408
		c-0.587,0.271-1.188,0.64-1.786,1.097c-0.603,0.461-1.199,0.996-1.773,1.589c-0.572,0.59-1.087,1.21-1.532,1.843
		c-0.441,0.629-0.802,1.265-1.072,1.89c-0.265,0.613-0.399,1.171-0.399,1.658c0,0.601,0.187,1.076,0.571,1.451
		c0.399,0.391,0.935,0.708,1.594,0.946c0.676,0.244,1.46,0.429,2.33,0.55c0.889,0.125,1.791,0.234,2.708,0.33
		c0.921,0.097,1.828,0.201,2.719,0.317c0.9,0.116,1.708,0.278,2.4,0.48c0.712,0.208,1.297,0.501,1.738,0.872
		c0.467,0.393,0.705,0.923,0.705,1.575c0,0.618-0.247,1.24-0.733,1.849c-0.47,0.587-1.093,1.156-1.852,1.69
		c-0.751,0.53-1.626,1.029-2.601,1.483c-0.969,0.45-1.958,0.84-2.939,1.158c-0.979,0.316-1.95,0.564-2.883,0.738
		c-0.845,0.156-1.597,0.236-2.235,0.236L66.375,26.558z"/>
	<path d="M65.807,25.496c0.019-0.115,0.291-0.259,0.818-0.432c0.526-0.172,1.183-0.378,1.968-0.617s1.656-0.518,2.614-0.833
		c0.957-0.316,1.881-0.675,2.771-1.077s1.69-0.848,2.399-1.336c0.708-0.488,1.225-1.029,1.551-1.623
		c0-0.307-0.211-0.546-0.632-0.719c-0.422-0.172-0.977-0.315-1.666-0.431c-0.689-0.114-1.476-0.21-2.355-0.287
		c-0.882-0.076-1.786-0.182-2.715-0.316c-0.93-0.133-1.834-0.306-2.715-0.517s-1.666-0.503-2.355-0.876
		c-0.689-0.374-1.245-0.843-1.666-1.407c-0.422-0.565-0.632-1.269-0.632-2.112c0-0.823,0.187-1.661,0.56-2.514
		c0.374-0.852,0.866-1.681,1.479-2.485s1.316-1.561,2.111-2.27c0.795-0.708,1.623-1.331,2.485-1.867
		c0.861-0.536,1.714-0.958,2.557-1.264c0.842-0.306,1.627-0.46,2.355-0.46c0.191,0,0.393-0.004,0.604-0.014
		c0.21-0.009,0.396,0.005,0.56,0.043c0.163,0.039,0.297,0.12,0.402,0.244c0.105,0.125,0.158,0.312,0.158,0.56
		c0,0.613-0.201,1.054-0.604,1.322s-0.891,0.402-1.465,0.402L73.16,4.209c-0.479,0-1.02,0.139-1.623,0.417
		c-0.604,0.278-1.212,0.651-1.824,1.12c-0.613,0.47-1.211,1.005-1.795,1.609c-0.585,0.603-1.102,1.226-1.552,1.867
		s-0.814,1.283-1.092,1.925s-0.416,1.221-0.416,1.738c0,0.651,0.21,1.183,0.632,1.594c0.421,0.412,0.977,0.743,1.666,0.991
		c0.689,0.249,1.479,0.437,2.37,0.561c0.891,0.125,1.795,0.234,2.715,0.33c0.919,0.097,1.824,0.201,2.714,0.316
		c0.891,0.115,1.681,0.272,2.37,0.474s1.245,0.479,1.666,0.833c0.422,0.354,0.633,0.829,0.633,1.422c0,0.575-0.23,1.149-0.689,1.724
		c-0.46,0.575-1.063,1.126-1.811,1.652c-0.746,0.526-1.604,1.015-2.57,1.465c-0.968,0.45-1.939,0.833-2.916,1.149
		c-0.977,0.315-1.93,0.56-2.858,0.732c-0.929,0.172-1.729,0.248-2.398,0.229c-0.191,0-0.354-0.066-0.488-0.201
		C65.758,26.022,65.729,25.802,65.807,25.496z"/>
	<path d="M83.817,27.275c-0.37,0-0.77-0.169-1.188-0.503l-0.075-0.15l-0.422-13.634l-2.388,0.805l-0.117,0.003
		c-0.247-0.067-0.457-0.193-0.625-0.372c-0.163-0.174-0.279-0.363-0.345-0.562c-0.068-0.205-0.084-0.403-0.05-0.588
		c0.041-0.211,0.159-0.377,0.341-0.482l3.174-1.199l-0.057-7.991c0.076-0.349,0.232-0.575,0.47-0.719
		c0.208-0.125,0.424-0.188,0.645-0.188c0.296,0.013,0.521,0.093,0.724,0.24c0.208,0.15,0.349,0.345,0.419,0.578
		c-0.031,0.662-0.059,1.287-0.078,1.945c-0.02,0.66-0.034,1.32-0.042,1.979c-0.011,0.658-0.006,1.297,0.013,1.916
		c0.016,0.513,0.045,0.992,0.087,1.43l4.206-1.709c0.141-0.042,0.253-0.059,0.357-0.059c0.185,0,0.345,0.054,0.477,0.16
		c0.188,0.154,0.312,0.355,0.37,0.598c0.058,0.241,0.04,0.479-0.052,0.709c-0.097,0.244-0.27,0.417-0.514,0.514l-4.813,2.183
		c0.002,0.234,0.065,2.797,0.085,3.774l0.058,3.132c0.019,1.111,0.033,2.156,0.043,3.133s0.043,3.718,0.043,3.909
		C84.518,26.894,84.267,27.275,83.817,27.275z"/>
	<path d="M82.324,12.712l-2.644,0.891c-0.21-0.058-0.388-0.163-0.531-0.316s-0.244-0.316-0.302-0.489
		c-0.057-0.172-0.071-0.334-0.043-0.488c0.029-0.153,0.11-0.268,0.244-0.345l3.275-1.235l-0.058-8.13
		c0.058-0.249,0.182-0.431,0.373-0.546c0.191-0.115,0.388-0.167,0.589-0.158s0.388,0.077,0.561,0.201
		c0.172,0.125,0.287,0.283,0.345,0.474c-0.039,0.594-0.067,1.221-0.086,1.882c-0.02,0.661-0.034,1.321-0.043,1.982
		c-0.011,0.661-0.006,1.303,0.014,1.925c0.02,0.623,0.058,1.192,0.115,1.709l4.452-1.81c0.269-0.076,0.479-0.053,0.633,0.072
		c0.152,0.125,0.253,0.287,0.301,0.488s0.033,0.398-0.043,0.589c-0.076,0.192-0.211,0.326-0.402,0.402l-4.94,2.241
		c0,0.191,0.01,0.646,0.028,1.364c0.02,0.718,0.038,1.566,0.058,2.542c0.019,0.978,0.038,2.021,0.058,3.132
		c0.019,1.11,0.033,2.154,0.043,3.131s0.019,1.824,0.029,2.542c0.009,0.719,0.014,1.174,0.014,1.365
		c-0.038,0.632-0.22,0.947-0.546,0.947c-0.325,0-0.68-0.153-1.063-0.459L82.324,12.712z"/>
	<path d="M90.583,26.816c-0.248,0-0.479-0.088-0.688-0.262c-0.22-0.184-0.331-0.463-0.331-0.829L89.191,8.724l0.111-0.184
		c0.128-0.063,0.277-0.117,0.442-0.158c0.169-0.042,0.335-0.064,0.494-0.064c0.17,0,0.337,0.035,0.495,0.103
		c0.177,0.076,0.317,0.214,0.416,0.409c0.021,1.334,0.035,2.678,0.064,4.123c0.028,1.445,0.066,2.91,0.115,4.392
		c0.047,1.485,0.09,2.945,0.129,4.382c0.038,1.437,0.076,2.768,0.115,3.992c0.022,0.346-0.078,0.623-0.298,0.817
		C91.066,26.722,90.833,26.816,90.583,26.816z M90.003,4.384c-0.093,0-0.187-0.014-0.28-0.04c-0.246-0.071-0.457-0.233-0.627-0.482
		c-0.168-0.245-0.25-0.573-0.25-1.002c0-0.411,0.201-0.598,0.37-0.682c0.2-0.1,0.423-0.151,0.664-0.151
		c0.636,0,0.882,0.297,0.977,0.545c0.114,0.303,0.171,0.65,0.171,1.034c-0.156,0.358-0.341,0.553-0.571,0.667
		C90.31,4.347,90.157,4.384,90.003,4.384z"/>
	<path d="M89.046,2.859c0-0.249,0.086-0.417,0.259-0.503c0.172-0.086,0.363-0.129,0.574-0.129c0.421,0,0.685,0.139,0.79,0.417
		c0.104,0.278,0.158,0.599,0.158,0.962c-0.115,0.23-0.269,0.393-0.46,0.488c-0.191,0.096-0.388,0.115-0.589,0.058
		S89.405,3.96,89.262,3.75C89.117,3.539,89.046,3.243,89.046,2.859z M89.391,8.719c0.115-0.057,0.249-0.105,0.402-0.144
		c0.152-0.038,0.302-0.058,0.445-0.058s0.282,0.029,0.416,0.086s0.239,0.163,0.316,0.316c0,1.245,0.014,2.59,0.043,4.036
		c0.028,1.446,0.066,2.912,0.115,4.395c0.047,1.484,0.09,2.944,0.129,4.381c0.038,1.437,0.076,2.768,0.115,3.993
		c0.019,0.287-0.058,0.508-0.23,0.66c-0.172,0.153-0.358,0.23-0.56,0.23s-0.388-0.072-0.561-0.216
		c-0.172-0.144-0.259-0.368-0.259-0.675L89.391,8.719z"/>
	<path d="M97.176,26.558c-0.912,0-1.675-0.295-2.266-0.876c-0.572-0.563-1.027-1.246-1.352-2.034
		c-0.321-0.778-0.548-1.605-0.674-2.46c-0.125-0.844-0.189-1.579-0.189-2.184c0.059-0.801,0.125-1.598,0.202-2.404
		c0.076-0.803,0.193-1.597,0.348-2.362c0.153-0.76,0.358-1.49,0.611-2.17c0.255-0.686,0.589-1.293,0.993-1.806
		c0.409-0.519,0.915-0.933,1.503-1.232c0.555-0.282,1.218-0.425,1.97-0.425l0.15,0.002c0.602,0,1.074,0.258,1.399,0.767
		c0.299,0.467,0.516,1.036,0.646,1.692c0.126,0.643,0.195,1.312,0.205,1.989c0.009,0.672,0.014,1.219,0.014,1.64l-0.125,0.186
		c-0.167,0.067-0.326,0.101-0.473,0.101c-0.157,0-0.303-0.038-0.434-0.113c-0.235-0.134-0.426-0.352-0.569-0.646
		c-0.128-0.264-0.243-0.58-0.343-0.938c-0.097-0.35-0.18-0.7-0.248-1.05c-0.066-0.338-0.141-0.658-0.226-0.96
		c-0.073-0.258-0.157-0.473-0.249-0.642c-0.085-0.031-0.169-0.046-0.25-0.046c-0.166,0-0.328,0.062-0.495,0.189
		c-0.302,0.231-0.584,0.574-0.839,1.018c-0.261,0.456-0.502,1.01-0.716,1.645c-0.22,0.651-0.406,1.307-0.554,1.949
		c-0.15,0.646-0.275,1.283-0.371,1.896c-0.094,0.6-0.141,1.111-0.141,1.521c0.018,0.558,0.075,1.173,0.17,1.823
		c0.092,0.644,0.243,1.253,0.449,1.813c0.203,0.552,0.471,1.029,0.799,1.42c0.318,0.38,0.713,0.616,1.21,0.724
		c0.654-0.005,1.249-0.119,1.726-0.345c0.482-0.228,0.886-0.521,1.2-0.872c0.318-0.354,0.572-0.756,0.754-1.192
		c0.187-0.449,0.338-0.908,0.45-1.364c0.113-0.463,0.203-0.898,0.27-1.306c0.069-0.422,0.142-0.769,0.221-1.044l0.141-0.138
		c0.247-0.066,0.475-0.101,0.676-0.101c0.245,0,0.458,0.05,0.636,0.148c0.345,0.19,0.521,0.434,0.521,0.721
		c0,0.896-0.159,1.803-0.471,2.694c-0.313,0.89-0.764,1.697-1.341,2.402c-0.581,0.708-1.293,1.285-2.117,1.716
		C99.167,26.337,98.218,26.558,97.176,26.558z"/>
	<path d="M92.896,19.004c0.058-0.785,0.124-1.58,0.201-2.385c0.076-0.805,0.191-1.584,0.345-2.341
		c0.152-0.756,0.354-1.469,0.603-2.14c0.249-0.67,0.57-1.254,0.963-1.752s0.871-0.891,1.437-1.178
		c0.564-0.287,1.239-0.421,2.024-0.402c0.536,0,0.948,0.225,1.235,0.675c0.288,0.45,0.493,0.991,0.618,1.623
		c0.124,0.632,0.191,1.283,0.201,1.954c0.009,0.67,0.014,1.216,0.014,1.637c-0.287,0.115-0.531,0.115-0.732,0
		c-0.201-0.115-0.363-0.301-0.488-0.56c-0.125-0.258-0.234-0.56-0.33-0.905s-0.178-0.689-0.244-1.034
		c-0.067-0.345-0.144-0.67-0.229-0.977c-0.087-0.306-0.188-0.555-0.302-0.747c-0.345-0.153-0.681-0.105-1.006,0.144
		c-0.325,0.249-0.622,0.608-0.891,1.077c-0.269,0.47-0.513,1.03-0.732,1.681c-0.22,0.651-0.407,1.307-0.56,1.968
		c-0.154,0.661-0.278,1.298-0.374,1.91c-0.096,0.613-0.144,1.13-0.144,1.552c0.019,0.574,0.076,1.191,0.173,1.853
		c0.095,0.661,0.248,1.278,0.459,1.853c0.211,0.575,0.488,1.068,0.833,1.479c0.345,0.412,0.785,0.675,1.321,0.79
		c0.728,0,1.346-0.119,1.854-0.359c0.507-0.239,0.929-0.545,1.264-0.919c0.335-0.373,0.599-0.79,0.79-1.249
		c0.191-0.46,0.345-0.924,0.46-1.394c0.114-0.469,0.205-0.909,0.272-1.321s0.139-0.752,0.216-1.021
		c0.497-0.134,0.886-0.124,1.163,0.029s0.417,0.335,0.417,0.546c0,0.881-0.154,1.757-0.46,2.628
		c-0.307,0.872-0.742,1.652-1.307,2.342c-0.565,0.689-1.25,1.245-2.055,1.666c-0.804,0.421-1.714,0.632-2.729,0.632
		c-0.862,0-1.57-0.272-2.126-0.818s-0.991-1.202-1.307-1.968c-0.316-0.766-0.537-1.57-0.661-2.413
		C92.957,20.315,92.896,19.598,92.896,19.004z"/>
	<path d="M105.899,26.955c-0.048,0-0.096-0.004-0.144-0.014c-0.185-0.034-0.364-0.12-0.533-0.256
		c-0.145-0.115-0.274-0.222-0.391-0.317l-0.072-0.153l-0.144-23.786l0.059-0.143c0.419-0.418,0.768-0.621,1.069-0.621
		c0.061,0,0.12,0.008,0.177,0.025c0.326,0.097,0.569,0.403,0.725,0.909l0.063,15.456l7.081-9.57l0.161-0.081
		c0.354,0,0.659,0.06,0.905,0.178c0.295,0.142,0.444,0.449,0.444,0.913l-0.038,0.118l-7.445,10.264l8.233,4.09
		c0.134,0.144,0.214,0.283,0.308,0.48c0.099,0.209,0.148,0.422,0.148,0.632c0,0.229-0.083,0.445-0.247,0.644
		c-0.171,0.208-0.47,0.325-0.891,0.347l-0.103-0.023l-8.383-4.386v4.353c-0.166,0.444-0.333,0.682-0.525,0.802
		C106.208,26.908,106.054,26.955,105.899,26.955z"/>
	<path d="M104.816,2.428c0.44-0.44,0.79-0.622,1.048-0.546c0.26,0.077,0.455,0.335,0.59,0.776l0.058,16.001l7.439-10.055
		c0.325,0,0.599,0.053,0.819,0.158c0.22,0.105,0.33,0.35,0.33,0.732l-7.584,10.456l8.445,4.194c0.058,0.077,0.13,0.206,0.216,0.388
		c0.086,0.183,0.129,0.364,0.129,0.546c0,0.183-0.067,0.354-0.201,0.517c-0.134,0.163-0.383,0.255-0.746,0.273l-8.676-4.539v4.683
		c-0.134,0.326-0.277,0.536-0.431,0.632c-0.154,0.096-0.307,0.13-0.46,0.101c-0.153-0.028-0.302-0.101-0.445-0.216
		c-0.144-0.114-0.272-0.22-0.388-0.315L104.816,2.428z"/>
	<path d="M136.281,26.585c-1.055-0.099-1.892-0.431-2.487-0.986c-0.589-0.549-1-1.228-1.22-2.017
		c-0.217-0.775-0.281-1.631-0.193-2.544c0.087-0.902,0.274-1.777,0.556-2.602c0.281-0.825,0.642-1.58,1.07-2.243
		c0.352-0.543,0.729-0.971,1.127-1.274c-0.809-0.44-1.48-1.032-1.999-1.762c-0.576-0.811-0.997-1.707-1.251-2.664
		c-0.254-0.956-0.343-1.94-0.264-2.926c0.078-0.987,0.316-1.905,0.708-2.727c0.394-0.828,0.943-1.528,1.635-2.082
		c0.7-0.559,1.559-0.883,2.552-0.962c0.172-0.014,0.338-0.021,0.499-0.021c0.775,0,1.443,0.161,1.987,0.478
		c0.653,0.382,1.157,0.917,1.5,1.59c0.336,0.664,0.526,1.45,0.567,2.336c0.038,0.873-0.045,1.803-0.249,2.766
		c-0.203,0.957-0.526,1.932-0.961,2.898c-0.409,0.911-0.909,1.783-1.486,2.596c0.484,0.488,0.959,1.097,1.415,1.811
		c0.494,0.777,0.907,1.616,1.226,2.495c0.32,0.884,0.527,1.785,0.614,2.678c0.089,0.91-0.027,1.754-0.345,2.51
		c-0.322,0.765-0.891,1.396-1.69,1.876c-0.793,0.475-1.899,0.735-3.286,0.774L136.281,26.585z M136.916,16.017
		c-0.354,0.188-0.705,0.516-1.044,0.979c-0.381,0.52-0.705,1.123-0.965,1.792c-0.261,0.67-0.44,1.384-0.534,2.122
		c-0.093,0.726-0.052,1.389,0.122,1.973c0.169,0.566,0.492,1.029,0.961,1.374c0.384,0.283,0.918,0.426,1.588,0.426
		c0.143,0,0.292-0.006,0.446-0.019c0.22-0.017,0.458-0.095,0.71-0.233c0.259-0.144,0.494-0.324,0.699-0.539
		c0.204-0.213,0.371-0.447,0.497-0.697c0.121-0.243,0.18-0.477,0.18-0.715c-0.038-0.765-0.143-1.511-0.311-2.208
		c-0.167-0.698-0.385-1.343-0.647-1.918c-0.261-0.566-0.553-1.065-0.869-1.485C137.471,16.5,137.19,16.214,136.916,16.017z
		 M136.752,3.435c-0.631,0.077-1.183,0.324-1.64,0.736c-0.473,0.428-0.842,0.964-1.097,1.593c-0.259,0.637-0.409,1.344-0.445,2.103
		c-0.038,0.757,0.051,1.502,0.264,2.217c0.212,0.708,0.558,1.362,1.027,1.942c0.441,0.544,1.018,0.959,1.717,1.233
		c0.463-0.394,0.888-0.889,1.264-1.474c0.399-0.624,0.726-1.295,0.971-1.998c0.241-0.7,0.393-1.413,0.448-2.119
		c0.056-0.702,0.004-1.361-0.152-1.958c-0.152-0.586-0.426-1.088-0.813-1.493C137.921,3.826,137.401,3.563,136.752,3.435z"/>
	<path d="M136.3,26.386c-1.015-0.095-1.805-0.406-2.369-0.934c-0.565-0.526-0.953-1.168-1.164-1.924
		c-0.211-0.757-0.272-1.58-0.187-2.471s0.268-1.742,0.546-2.557c0.277-0.814,0.627-1.547,1.049-2.198
		c0.421-0.65,0.871-1.12,1.35-1.407c-0.919-0.44-1.661-1.058-2.227-1.853c-0.564-0.794-0.972-1.661-1.221-2.6
		c-0.249-0.938-0.335-1.891-0.258-2.858c0.076-0.967,0.306-1.853,0.689-2.657c0.383-0.805,0.909-1.475,1.579-2.011
		c0.671-0.536,1.484-0.842,2.442-0.919c0.957-0.077,1.747,0.067,2.37,0.431c0.622,0.364,1.096,0.867,1.422,1.508
		c0.325,0.642,0.507,1.393,0.546,2.255c0.038,0.862-0.044,1.767-0.244,2.715c-0.201,0.948-0.518,1.901-0.948,2.858
		c-0.431,0.958-0.953,1.858-1.565,2.701c0.517,0.498,1.02,1.13,1.508,1.896c0.488,0.767,0.891,1.585,1.206,2.456
		c0.316,0.872,0.518,1.748,0.604,2.629s-0.024,1.686-0.33,2.413c-0.307,0.728-0.843,1.321-1.608,1.781
		C138.723,26.099,137.66,26.348,136.3,26.386z M136.76,3.232c-0.689,0.077-1.283,0.34-1.781,0.79
		c-0.498,0.45-0.881,1.005-1.148,1.667c-0.269,0.661-0.422,1.384-0.46,2.168c-0.039,0.786,0.053,1.547,0.272,2.284
		c0.221,0.738,0.575,1.408,1.063,2.011c0.488,0.603,1.125,1.048,1.91,1.335c0.518-0.421,0.981-0.952,1.394-1.594
		c0.411-0.641,0.741-1.321,0.991-2.04c0.248-0.718,0.401-1.441,0.459-2.169c0.058-0.728,0.005-1.402-0.158-2.025
		c-0.162-0.622-0.45-1.149-0.861-1.58C138.028,3.649,137.468,3.367,136.76,3.232z M136.933,15.786
		c-0.422,0.191-0.829,0.556-1.222,1.092s-0.723,1.148-0.99,1.838c-0.269,0.689-0.45,1.413-0.546,2.169
		c-0.097,0.757-0.054,1.441,0.129,2.055c0.182,0.612,0.526,1.105,1.034,1.479c0.507,0.374,1.23,0.522,2.169,0.445
		c0.249-0.019,0.512-0.104,0.79-0.258c0.277-0.153,0.526-0.345,0.747-0.575c0.22-0.229,0.396-0.479,0.531-0.746
		c0.134-0.269,0.201-0.536,0.201-0.805c-0.039-0.785-0.144-1.537-0.316-2.255c-0.172-0.719-0.393-1.369-0.66-1.954
		c-0.269-0.584-0.565-1.091-0.891-1.522C137.583,16.317,137.258,15.997,136.933,15.786z"/>
	<path d="M144.807,26.76c-0.101,0-0.203-0.012-0.306-0.036c-0.277-0.063-0.519-0.178-0.716-0.341
		c-0.059-0.05-0.237-0.198-0.227-0.394c0.002-0.04,0.015-0.106,0.064-0.172l-1.231-23.609l0.035-0.124
		c0.189-0.274,0.418-0.413,0.68-0.413c0.105,0,0.214,0.023,0.324,0.069c0.319,0.134,0.621,0.341,0.897,0.617
		c0.269,0.269,0.486,0.543,0.647,0.815c0.128,0.215,0.194,0.355,0.18,0.468l10.19,17.411c0.026-0.229,0.051-0.501,0.074-0.814
		c0.048-0.639,0.081-1.392,0.1-2.259c0.02-0.87,0.024-1.821,0.015-2.853c-0.01-1.033-0.028-2.065-0.058-3.098
		c-0.028-1.033-0.071-2.045-0.128-3.039c-0.058-0.993-0.125-1.886-0.201-2.679c-0.076-0.789-0.163-1.45-0.257-1.965
		c-0.121-0.668-0.243-0.816-0.277-0.846l-0.07-0.152c0-0.332,0.063-0.652,0.188-0.953c0.102-0.246,0.335-0.54,0.874-0.54
		c0.401,0,0.73,0.229,0.979,0.678c0.22,0.398,0.391,0.85,0.508,1.343c0.116,0.482,0.2,0.965,0.249,1.434
		c0.049,0.47,0.073,0.774,0.073,0.911c0.019,0.375,0.033,0.985,0.043,1.822l0.086,9.609c0.01,1.073,0.015,2.031,0.015,2.875
		c0,0.838,0.01,1.447,0.028,1.828c0.019,0.521,0.088,0.978,0.207,1.358c0.129,0.42,0.195,0.904,0.195,1.438
		c0,0.49-0.189,0.865-0.563,1.113c-0.348,0.232-0.738,0.351-1.159,0.351c-0.23,0-0.441-0.033-0.626-0.098
		c-0.203-0.071-0.366-0.193-0.485-0.36c-0.118-0.166-0.184-0.381-0.194-0.64c-0.01-0.219,0.026-0.475,0.108-0.779
		c-0.342-0.418-0.77-1.081-1.274-1.974c-0.537-0.949-1.127-2.023-1.77-3.222c-0.642-1.197-1.313-2.457-2.011-3.779
		c-0.699-1.32-1.369-2.569-2.01-3.746c-0.644-1.18-1.245-2.215-1.789-3.077c-0.392-0.621-0.73-1.104-1.014-1.441
		c-0.069,1.123-0.087,2.413-0.054,3.843c0.037,1.618,0.104,3.308,0.2,5.021s0.196,3.383,0.302,5.011
		c0.105,1.624,0.159,3.078,0.159,4.321c0,0.485-0.155,0.803-0.461,0.943C145.174,26.72,144.992,26.76,144.807,26.76z"/>
	<path d="M142.592,2.198c0.211-0.306,0.464-0.397,0.762-0.272c0.297,0.125,0.574,0.316,0.833,0.574
		c0.259,0.259,0.464,0.517,0.617,0.776c0.153,0.258,0.191,0.378,0.115,0.359l10.543,18.012c0.057-0.287,0.109-0.752,0.157-1.394
		s0.082-1.397,0.101-2.27c0.02-0.871,0.024-1.824,0.015-2.858c-0.01-1.034-0.028-2.068-0.058-3.102
		c-0.028-1.034-0.071-2.049-0.129-3.045c-0.058-0.996-0.125-1.891-0.201-2.686c-0.077-0.794-0.163-1.455-0.259-1.982
		s-0.211-0.848-0.345-0.962c0-0.306,0.058-0.599,0.173-0.876c0.114-0.277,0.345-0.417,0.689-0.417c0.325,0,0.593,0.192,0.804,0.575
		c0.211,0.383,0.374,0.814,0.488,1.292c0.115,0.479,0.196,0.948,0.244,1.408s0.072,0.757,0.072,0.891
		c0.019,0.383,0.033,0.991,0.043,1.824s0.019,1.786,0.028,2.858s0.02,2.197,0.029,3.375c0.01,1.178,0.019,2.303,0.028,3.375
		s0.015,2.03,0.015,2.873s0.01,1.455,0.028,1.838c0.02,0.536,0.091,1.006,0.216,1.408c0.124,0.401,0.187,0.861,0.187,1.379
		c0,0.421-0.158,0.737-0.474,0.947c-0.316,0.211-0.666,0.316-1.049,0.316c-0.211,0-0.397-0.029-0.56-0.086
		c-0.163-0.058-0.293-0.153-0.389-0.288c-0.096-0.134-0.148-0.311-0.157-0.531c-0.01-0.22,0.033-0.492,0.129-0.818
		c-0.345-0.402-0.785-1.077-1.321-2.025s-1.125-2.021-1.767-3.218c-0.642-1.196-1.313-2.456-2.011-3.777
		c-0.699-1.321-1.37-2.571-2.011-3.749c-0.643-1.178-1.24-2.207-1.796-3.088s-1.005-1.484-1.35-1.81
		c-0.097,1.245-0.125,2.686-0.087,4.323c0.038,1.638,0.105,3.313,0.201,5.027s0.196,3.385,0.302,5.013s0.158,3.064,0.158,4.309
		c0,0.402-0.115,0.656-0.345,0.762s-0.47,0.129-0.718,0.071c-0.25-0.057-0.46-0.157-0.633-0.301
		c-0.172-0.144-0.201-0.254-0.086-0.331L142.592,2.198z"/>
</g>
</svg>
