<?xml version="1.0" encoding="utf-8"?>
<!-- Generator: Adobe Illustrator 16.0.0, SVG Export Plug-In . SVG Version: 6.00 Build 0)  -->
<!DOCTYPE svg PUBLIC "-//W3C//DTD SVG 1.0//EN" "http://www.w3.org/TR/2001/REC-SVG-20010904/DTD/svg10.dtd">
<svg version="1.0" id="Layer_1" xmlns="http://www.w3.org/2000/svg" xmlns:xlink="http://www.w3.org/1999/xlink" x="0px" y="0px"
	 width="208px" height="33px" viewBox="0 0 208 33" enable-background="new 0 0 208 33" xml:space="preserve">
<g>
	<path d="M1.711,31.901c-0.16-0.033-0.298-0.117-0.416-0.25c-0.097-0.109-0.184-0.226-0.257-0.349l-0.028-0.101L0.742,3.051
		c0.104-0.286,0.281-0.446,0.543-0.556c0.238-0.1,0.49-0.15,0.75-0.15c0.275,0,0.522,0.074,0.735,0.22
		C2.995,2.72,3.137,2.962,3.19,3.285L3.37,4.92c0.363-0.098,0.783-0.262,1.252-0.488C5.212,4.149,5.904,3.869,6.678,3.6
		c0.778-0.271,1.665-0.5,2.635-0.681c0.561-0.104,1.166-0.157,1.8-0.157c0.473,0,0.974,0.029,1.488,0.087
		c1.869,0.365,3.237,0.803,4.082,1.305c0.884,0.526,1.363,1.126,1.426,1.784c0.061,0.646-0.203,1.339-0.783,2.062
		c-0.558,0.694-1.311,1.402-2.238,2.103c-0.918,0.694-1.964,1.41-3.108,2.129c-1.145,0.718-2.261,1.408-3.349,2.07
		c-1.086,0.661-2.094,1.288-3.023,1.881c-0.802,0.513-1.436,0.991-1.887,1.423l15.555,9.353l0.097,0.172
		c0,0.408-0.165,0.798-0.488,1.159c-0.294,0.328-0.637,0.494-1.02,0.494c-0.053,0-0.107-0.003-0.163-0.01L3.093,20.379V31.2
		l-0.072,0.153c-0.292,0.243-0.538,0.397-0.751,0.472c-0.164,0.059-0.305,0.088-0.43,0.088L1.711,31.901z M3.389,7.768
		C3.347,8.201,3.315,8.716,3.294,9.312c-0.022,0.626-0.033,1.291-0.033,1.995v3.535c0.165-0.099,0.407-0.233,0.769-0.417
		c0.593-0.302,1.315-0.677,2.167-1.125c0.85-0.448,1.763-0.946,2.736-1.495c0.968-0.544,1.897-1.113,2.762-1.69
		c0.862-0.575,1.63-1.152,2.284-1.717c0.633-0.547,1.044-1.058,1.222-1.519c0.163-0.421,0.081-0.776-0.258-1.115
		c-0.362-0.361-1.136-0.654-2.3-0.869c-0.197-0.012-0.43-0.019-0.676-0.019c-0.491,0-1.043,0.029-1.639,0.088
		c-0.893,0.088-1.799,0.25-2.693,0.482c-0.889,0.23-1.729,0.547-2.499,0.942C4.402,6.766,3.814,7.23,3.389,7.768z"/>
	<path d="M0.942,3.049c0.067-0.156,0.207-0.28,0.42-0.37C1.575,2.59,1.799,2.544,2.035,2.544s0.443,0.062,0.623,0.185
		c0.179,0.124,0.291,0.319,0.336,0.588l0.202,1.85c0.425-0.089,0.93-0.274,1.513-0.555c0.583-0.28,1.261-0.555,2.035-0.824
		C7.517,3.52,8.386,3.296,9.35,3.116c0.964-0.179,2.04-0.202,3.229-0.067c1.838,0.359,3.172,0.785,4.002,1.278
		c0.83,0.494,1.272,1.037,1.329,1.631c0.056,0.594-0.19,1.233-0.74,1.917c-0.55,0.684-1.284,1.374-2.203,2.068
		c-0.919,0.695-1.951,1.401-3.094,2.119s-2.259,1.407-3.347,2.068c-1.087,0.662-2.097,1.29-3.027,1.883
		c-0.931,0.594-1.631,1.138-2.102,1.632l15.774,9.484c0,0.358-0.146,0.701-0.437,1.025c-0.292,0.325-0.628,0.466-1.009,0.42
		L2.893,20.033V31.2c-0.269,0.224-0.5,0.37-0.689,0.437c-0.191,0.068-0.342,0.09-0.454,0.068c-0.112-0.023-0.213-0.084-0.303-0.186
		c-0.09-0.101-0.168-0.207-0.235-0.319L0.942,3.049z M3.195,7.69C3.15,8.139,3.116,8.677,3.094,9.305
		C3.072,9.933,3.061,10.6,3.061,11.306c0,0.706,0,1.401,0,2.085c0,0.685,0,1.295,0,1.833c0.112-0.112,0.465-0.319,1.06-0.622
		c0.594-0.303,1.317-0.678,2.169-1.126c0.852-0.448,1.766-0.947,2.741-1.497c0.975-0.549,1.9-1.115,2.774-1.698
		c0.875-0.583,1.643-1.161,2.304-1.732c0.661-0.572,1.087-1.104,1.278-1.598c0.19-0.493,0.089-0.936-0.303-1.329
		c-0.393-0.392-1.194-0.701-2.405-0.925c-0.672-0.045-1.463-0.022-2.371,0.067C9.4,4.854,8.493,5.017,7.584,5.252
		S5.83,5.807,5.045,6.21C4.26,6.614,3.644,7.107,3.195,7.69z"/>
	<path d="M36.818,31.753c-0.231-0.012-0.428-0.029-0.59-0.052l-0.171-0.179l-0.904-9.193c-0.185,0.644-0.394,1.336-0.623,2.069
		c-0.361,1.149-0.83,2.248-1.395,3.267c-0.572,1.027-1.271,1.905-2.079,2.609c-0.829,0.725-1.84,1.092-3.007,1.092
		c-1.246-0.305-2.29-0.9-3.153-1.774c-0.852-0.863-1.583-1.923-2.173-3.147c-0.587-1.22-1.067-2.585-1.427-4.059
		c-0.36-1.473-0.638-2.997-0.828-4.53c-0.191-1.536-0.316-3.069-0.371-4.558c-0.057-1.498-0.079-2.887-0.068-4.129
		c0.011-1.253,0.045-2.349,0.102-3.256c0.056-0.914,0.107-1.562,0.152-1.945c-0.1-0.482,0.113-0.783,0.309-0.94
		c0.255-0.204,0.552-0.32,0.883-0.346c0.053-0.004,0.106-0.006,0.158-0.006c0.266,0,0.521,0.053,0.761,0.157
		c0.326,0.142,0.507,0.342,0.539,0.595c-0.446,3.325-0.677,6.248-0.688,8.737c-0.012,2.487,0.118,4.689,0.384,6.546
		c0.266,1.848,0.652,3.423,1.148,4.681c0.497,1.257,1.032,2.301,1.593,3.104c0.556,0.796,1.133,1.401,1.714,1.799
		c0.584,0.4,1.108,0.669,1.557,0.797c0.631-0.069,1.269-0.446,1.824-1.128c0.578-0.707,1.093-1.64,1.533-2.771
		c0.443-1.141,0.831-2.449,1.152-3.89c0.323-1.448,0.599-2.959,0.821-4.492c0.223-1.542,0.404-3.083,0.537-4.58
		c0.134-1.508,0.236-2.892,0.302-4.113c0.067-1.229,0.106-2.275,0.117-3.136c0.011-0.849,0.006-1.402-0.016-1.645l0.026-0.118
		c0.178-0.306,0.397-0.515,0.65-0.622c0.194-0.081,0.385-0.123,0.568-0.123c0.046,0,0.092,0.002,0.138,0.008
		c0.226,0.027,0.435,0.114,0.622,0.259c0.183,0.145,0.316,0.312,0.397,0.499C37.354,3.9,37.302,5,37.179,6.58
		c-0.122,1.564-0.201,3.562-0.234,5.94c-0.034,2.382,0.04,5.149,0.218,8.226c0.178,3.084,0.596,6.454,1.241,10.016
		c0.003,0.325-0.097,0.549-0.294,0.699c-0.171,0.132-0.377,0.219-0.609,0.257c-0.162,0.026-0.33,0.04-0.504,0.04L36.818,31.753z"/>
	<path d="M34.34,24.339c-0.359,1.144-0.819,2.22-1.379,3.229c-0.561,1.008-1.239,1.861-2.035,2.556
		c-0.796,0.695-1.754,1.042-2.875,1.042c-1.166-0.291-2.169-0.862-3.01-1.715c-0.841-0.852-1.553-1.883-2.136-3.094
		s-1.054-2.551-1.413-4.02c-0.359-1.469-0.634-2.971-0.824-4.507c-0.191-1.536-0.314-3.049-0.37-4.541
		c-0.056-1.491-0.079-2.864-0.067-4.12c0.011-1.255,0.045-2.337,0.101-3.246c0.056-0.908,0.106-1.553,0.151-1.934
		c-0.067-0.358,0.011-0.627,0.235-0.807c0.224-0.179,0.482-0.28,0.773-0.303c0.291-0.022,0.566,0.022,0.824,0.135
		c0.257,0.112,0.397,0.258,0.42,0.437c-0.449,3.296-0.679,6.2-0.689,8.711c-0.012,2.512,0.118,4.704,0.387,6.576
		s0.656,3.447,1.16,4.726c0.504,1.277,1.043,2.326,1.615,3.145s1.16,1.436,1.766,1.85c0.605,0.415,1.144,0.689,1.614,0.824
		c0.762-0.067,1.44-0.465,2.035-1.194c0.594-0.728,1.115-1.67,1.564-2.825c0.448-1.154,0.835-2.461,1.161-3.918
		c0.325-1.457,0.6-2.96,0.824-4.507c0.224-1.547,0.404-3.078,0.538-4.591c0.135-1.513,0.236-2.887,0.303-4.12
		c0.067-1.232,0.106-2.281,0.118-3.145c0.011-0.863,0.005-1.418-0.017-1.665c0.157-0.269,0.342-0.448,0.555-0.538
		c0.212-0.089,0.415-0.123,0.605-0.101c0.19,0.022,0.364,0.096,0.521,0.218c0.157,0.124,0.269,0.264,0.336,0.42
		c0.022,0.583-0.028,1.665-0.151,3.246c-0.124,1.581-0.202,3.565-0.235,5.953c-0.034,2.388,0.039,5.136,0.219,8.24
		c0.179,3.106,0.594,6.452,1.244,10.04c0,0.225-0.073,0.393-0.219,0.504c-0.146,0.112-0.319,0.186-0.521,0.219
		c-0.202,0.033-0.416,0.045-0.639,0.033c-0.225-0.011-0.415-0.027-0.572-0.05l-1.009-10.259
		C35.001,22.164,34.698,23.195,34.34,24.339z"/>
	<path d="M40.721,31.732c-0.108,0-0.229-0.011-0.36-0.032c-0.001,0-0.004,0-0.007,0c-0.029,0-0.116-0.012-0.235-0.035
		c-0.105-0.021-0.329-0.063-0.329-0.263l0.067-25.226c-0.106-0.331-0.192-0.68-0.249-0.989c-0.06-0.322-0.066-0.677-0.018-1.053
		c0.024-0.129,0.054-0.256,0.088-0.394c0.042-0.169,0.116-0.308,0.22-0.412c0.105-0.104,0.244-0.179,0.414-0.221
		c0.052-0.013,0.108-0.02,0.168-0.02c0.142,0,0.303,0.037,0.492,0.112c0.176,0.088,0.334,0.225,0.486,0.414
		c0.145,0.181,0.272,0.394,0.379,0.632c0.104,0.23,0.19,0.45,0.26,0.658c0.031,0.093,0.057,0.179,0.079,0.258
		c0.547-0.316,1.149-0.639,1.794-0.962c0.748-0.374,1.532-0.694,2.332-0.953c0.8-0.259,1.62-0.454,2.436-0.579
		c0.476-0.073,0.947-0.109,1.4-0.109c0.331,0,0.656,0.02,0.975,0.058c0.257,0.024,0.559,0.089,0.893,0.193
		c0.339,0.105,0.66,0.248,0.952,0.423c0.299,0.179,0.555,0.398,0.759,0.651c0.226,0.279,0.314,0.608,0.261,0.978
		c0.002,0.599-0.133,1.257-0.398,1.929c-0.261,0.658-0.6,1.325-1.008,1.983s-0.872,1.309-1.376,1.937
		c-0.506,0.63-1.001,1.221-1.485,1.772c-0.484,0.552-0.94,1.053-1.368,1.502c-0.186,0.196-0.354,0.377-0.501,0.544
		c0.608-0.195,1.288-0.37,2.031-0.524c0.794-0.164,1.589-0.247,2.364-0.247c0.246,0,0.49,0.008,0.734,0.024
		c1.021,0.069,1.953,0.326,2.771,0.763c0.842,0.451,1.413,1.194,1.696,2.208c0.077,0.644-0.041,1.338-0.344,2.095
		c-0.295,0.738-0.721,1.516-1.265,2.31c-0.541,0.789-1.187,1.595-1.917,2.393c-0.725,0.793-1.499,1.572-2.298,2.315
		c-0.803,0.746-1.617,1.44-2.418,2.063c-0.807,0.627-1.563,1.179-2.248,1.639c-0.686,0.462-1.3,0.818-1.828,1.059
		c-0.465,0.212-0.816,0.315-1.074,0.315c-0.058,0-0.11-0.005-0.158-0.015l-0.132-0.094l-0.807-1.346l0.211-0.299
		c0.005-0.004,0.18-0.042,0.928-0.526c0.593-0.384,1.319-0.901,2.157-1.539c0.833-0.633,1.741-1.365,2.699-2.179
		c0.958-0.813,1.865-1.642,2.696-2.463c0.825-0.812,1.537-1.613,2.117-2.382c0.56-0.744,0.887-1.398,0.971-1.945
		c0.101-0.705-0.074-1.197-0.535-1.501c-0.492-0.324-1.173-0.488-2.025-0.488c-0.875,0-1.864,0.15-2.94,0.447
		c-1.083,0.298-2.124,0.69-3.093,1.164c-0.967,0.473-1.824,1.023-2.548,1.637c-0.705,0.6-1.148,1.222-1.315,1.851
		c-0.084,0.661-0.14,1.379-0.162,2.106c-0.022,0.739-0.039,1.484-0.05,2.233l-0.034,2.237c-0.012,0.746-0.063,1.467-0.153,2.142
		c-0.069,0.508-0.169,0.931-0.298,1.258C41.483,31.464,41.264,31.732,40.721,31.732z M50.111,4.858c-0.21,0-0.435,0.007-0.675,0.021
		c-0.56,0.033-1.156,0.111-1.772,0.232c-0.613,0.121-1.237,0.293-1.854,0.514c-0.613,0.219-1.177,0.49-1.676,0.805
		c-0.496,0.313-0.915,0.677-1.247,1.084c-0.322,0.395-0.517,0.836-0.579,1.312c-0.066,0.447-0.117,1.018-0.15,1.699
		c-0.033,0.692-0.05,1.406-0.05,2.143c0,0.733,0.028,1.453,0.083,2.137c0.042,0.53,0.103,0.999,0.179,1.398
		c0.372-0.312,0.841-0.711,1.409-1.198c0.701-0.601,1.457-1.283,2.247-2.029c0.792-0.748,1.575-1.542,2.327-2.361
		c0.75-0.817,1.383-1.617,1.88-2.379c0.488-0.749,0.801-1.438,0.93-2.051c0.114-0.544-0.003-0.969-0.36-1.296
		C50.594,4.869,50.364,4.858,50.111,4.858z"/>
	<path d="M40.058,6.177c-0.113-0.381-0.197-0.723-0.252-1.025c-0.056-0.303-0.062-0.633-0.017-0.992
		c0.022-0.112,0.05-0.236,0.084-0.37c0.034-0.135,0.089-0.241,0.168-0.32c0.079-0.078,0.185-0.134,0.32-0.168
		c0.134-0.034,0.313-0.005,0.538,0.084c0.134,0.067,0.269,0.185,0.403,0.353c0.135,0.168,0.252,0.365,0.353,0.589
		c0.101,0.224,0.185,0.437,0.252,0.639c0.067,0.202,0.112,0.37,0.135,0.504c0.605-0.358,1.278-0.723,2.018-1.093
		c0.74-0.37,1.508-0.684,2.304-0.941c0.795-0.258,1.598-0.448,2.405-0.572c0.807-0.123,1.581-0.14,2.321-0.051
		c0.246,0.023,0.532,0.084,0.857,0.185c0.325,0.101,0.627,0.235,0.908,0.404c0.28,0.168,0.516,0.37,0.706,0.605
		c0.19,0.235,0.264,0.51,0.219,0.824c0,0.605-0.129,1.233-0.387,1.883c-0.258,0.651-0.588,1.301-0.992,1.951
		s-0.857,1.29-1.362,1.917c-0.504,0.628-0.998,1.216-1.479,1.766c-0.482,0.55-0.937,1.048-1.362,1.497
		c-0.426,0.449-0.751,0.819-0.976,1.11c0.762-0.291,1.659-0.543,2.691-0.756c1.031-0.213,2.046-0.286,3.044-0.219
		c0.997,0.067,1.894,0.314,2.69,0.74c0.796,0.426,1.329,1.122,1.598,2.085c0.067,0.583-0.045,1.24-0.336,1.967
		c-0.292,0.729-0.706,1.485-1.245,2.271c-0.538,0.785-1.172,1.576-1.9,2.371c-0.729,0.797-1.492,1.564-2.287,2.304
		c-0.796,0.74-1.598,1.425-2.405,2.052c-0.807,0.628-1.553,1.172-2.237,1.631c-0.684,0.461-1.284,0.808-1.799,1.043
		c-0.516,0.235-0.886,0.331-1.11,0.286l-0.807-1.346c0.112,0.022,0.471-0.162,1.076-0.555c0.605-0.392,1.329-0.908,2.169-1.548
		c0.841-0.639,1.743-1.367,2.708-2.186c0.964-0.818,1.867-1.643,2.708-2.473c0.841-0.828,1.552-1.631,2.136-2.404
		c0.583-0.773,0.919-1.451,1.009-2.035c0.112-0.784-0.096-1.35-0.622-1.698c-0.527-0.347-1.239-0.521-2.136-0.521
		c-0.897,0-1.895,0.151-2.994,0.454s-2.141,0.695-3.128,1.177s-1.85,1.037-2.589,1.664c-0.74,0.629-1.2,1.279-1.379,1.951
		c-0.09,0.695-0.146,1.412-0.168,2.152c-0.022,0.74-0.04,1.486-0.05,2.236c-0.012,0.752-0.023,1.497-0.034,2.237
		c-0.012,0.739-0.062,1.446-0.151,2.118c-0.067,0.494-0.163,0.898-0.286,1.211c-0.124,0.314-0.454,0.426-0.992,0.337
		c-0.045,0-0.124-0.012-0.235-0.034c-0.112-0.021-0.168-0.045-0.168-0.066L40.058,6.177z M42.109,8.8
		c-0.067,0.449-0.118,1.021-0.151,1.715c-0.033,0.695-0.05,1.413-0.05,2.152c0,0.74,0.028,1.458,0.084,2.153
		c0.056,0.695,0.14,1.278,0.252,1.749c0.403-0.336,0.958-0.807,1.665-1.413c0.706-0.605,1.457-1.284,2.253-2.035
		c0.795-0.751,1.575-1.541,2.337-2.371c0.762-0.829,1.396-1.631,1.9-2.405c0.504-0.773,0.824-1.48,0.958-2.119
		c0.134-0.639-0.023-1.149-0.471-1.53c-0.403-0.045-0.891-0.051-1.463-0.017s-1.172,0.112-1.799,0.235
		c-0.628,0.124-1.256,0.298-1.883,0.521c-0.628,0.225-1.2,0.499-1.715,0.824c-0.516,0.325-0.948,0.701-1.295,1.126
		C42.383,7.814,42.176,8.285,42.109,8.8z"/>
	<path d="M76.815,31.901c-0.16-0.033-0.298-0.117-0.416-0.25c-0.097-0.109-0.184-0.226-0.257-0.349l-0.028-0.101L75.845,3.051
		c0.104-0.286,0.281-0.446,0.543-0.556c0.238-0.1,0.49-0.15,0.75-0.15c0.275,0,0.522,0.074,0.735,0.22
		c0.225,0.155,0.367,0.397,0.42,0.721l0.179,1.635c0.363-0.098,0.783-0.262,1.252-0.488c0.59-0.283,1.282-0.563,2.057-0.833
		c0.778-0.271,1.665-0.5,2.635-0.681c0.561-0.104,1.166-0.157,1.8-0.157c0.473,0,0.974,0.029,1.488,0.087
		c1.869,0.365,3.237,0.803,4.082,1.305c0.884,0.526,1.363,1.126,1.426,1.784c0.061,0.646-0.203,1.339-0.783,2.062
		c-0.558,0.694-1.311,1.402-2.238,2.103c-0.918,0.694-1.964,1.41-3.108,2.129c-1.145,0.718-2.261,1.408-3.349,2.07
		c-1.086,0.661-2.094,1.288-3.023,1.881c-0.802,0.513-1.436,0.991-1.887,1.423l15.555,9.353l0.097,0.172
		c0,0.408-0.165,0.798-0.488,1.159c-0.294,0.328-0.637,0.494-1.02,0.494c-0.053,0-0.107-0.003-0.163-0.01l-14.608-8.396V31.2
		l-0.072,0.153c-0.292,0.243-0.538,0.397-0.751,0.472c-0.164,0.059-0.305,0.088-0.43,0.088L76.815,31.901z M78.492,7.768
		c-0.042,0.434-0.074,0.948-0.095,1.544c-0.022,0.626-0.033,1.291-0.033,1.995v3.535c0.165-0.099,0.407-0.233,0.769-0.417
		c0.593-0.302,1.315-0.677,2.167-1.125c0.85-0.448,1.763-0.946,2.736-1.495c0.968-0.544,1.897-1.113,2.762-1.69
		c0.862-0.575,1.63-1.152,2.284-1.717c0.633-0.547,1.044-1.058,1.222-1.519c0.163-0.421,0.081-0.776-0.258-1.115
		c-0.362-0.361-1.136-0.654-2.3-0.869c-0.197-0.012-0.43-0.019-0.676-0.019c-0.491,0-1.043,0.029-1.639,0.088
		c-0.893,0.088-1.799,0.25-2.693,0.482c-0.889,0.23-1.729,0.547-2.499,0.942C79.505,6.766,78.917,7.23,78.492,7.768z"/>
	<path d="M76.045,3.049c0.067-0.156,0.207-0.28,0.42-0.37c0.213-0.089,0.437-0.135,0.672-0.135s0.443,0.062,0.623,0.185
		c0.179,0.124,0.291,0.319,0.336,0.588l0.202,1.85c0.425-0.089,0.93-0.274,1.513-0.555c0.583-0.28,1.261-0.555,2.035-0.824
		c0.773-0.269,1.642-0.493,2.606-0.673c0.964-0.179,2.04-0.202,3.229-0.067c1.838,0.359,3.172,0.785,4.002,1.278
		c0.83,0.494,1.272,1.037,1.329,1.631c0.056,0.594-0.19,1.233-0.74,1.917c-0.55,0.684-1.284,1.374-2.203,2.068
		c-0.919,0.695-1.951,1.401-3.094,2.119s-2.259,1.407-3.347,2.068c-1.087,0.662-2.097,1.29-3.027,1.883
		c-0.931,0.594-1.631,1.138-2.102,1.632l15.774,9.484c0,0.358-0.146,0.701-0.437,1.025c-0.292,0.325-0.628,0.466-1.009,0.42
		l-14.832-8.543V31.2c-0.269,0.224-0.5,0.37-0.689,0.437c-0.191,0.068-0.342,0.09-0.454,0.068c-0.112-0.023-0.213-0.084-0.303-0.186
		c-0.09-0.101-0.168-0.207-0.235-0.319L76.045,3.049z M78.299,7.69c-0.045,0.449-0.079,0.987-0.101,1.614
		c-0.022,0.628-0.034,1.295-0.034,2.001c0,0.706,0,1.401,0,2.085c0,0.685,0,1.295,0,1.833c0.112-0.112,0.465-0.319,1.06-0.622
		c0.594-0.303,1.317-0.678,2.169-1.126c0.852-0.448,1.766-0.947,2.741-1.497c0.975-0.549,1.9-1.115,2.774-1.698
		c0.875-0.583,1.643-1.161,2.304-1.732c0.661-0.572,1.087-1.104,1.278-1.598c0.19-0.493,0.089-0.936-0.303-1.329
		c-0.393-0.392-1.194-0.701-2.405-0.925c-0.672-0.045-1.463-0.022-2.371,0.067c-0.908,0.09-1.816,0.252-2.724,0.488
		s-1.755,0.555-2.54,0.958C79.363,6.614,78.747,7.107,78.299,7.69z"/>
	<path d="M111.921,31.753c-0.23-0.012-0.427-0.029-0.588-0.052l-0.171-0.179l-0.905-9.195c-0.185,0.645-0.393,1.335-0.623,2.071
		c-0.362,1.153-0.831,2.252-1.395,3.267c-0.569,1.024-1.269,1.902-2.078,2.609c-0.829,0.725-1.841,1.092-3.007,1.092
		c-1.246-0.305-2.29-0.9-3.153-1.774c-0.852-0.863-1.583-1.923-2.173-3.147c-0.587-1.22-1.067-2.585-1.427-4.059
		c-0.36-1.473-0.638-2.997-0.828-4.53c-0.191-1.536-0.316-3.069-0.371-4.558c-0.057-1.498-0.079-2.887-0.068-4.129
		c0.011-1.253,0.045-2.349,0.102-3.256c0.056-0.914,0.107-1.562,0.152-1.945c-0.1-0.482,0.113-0.783,0.309-0.94
		c0.255-0.204,0.552-0.32,0.883-0.346c0.053-0.004,0.106-0.006,0.158-0.006c0.266,0,0.521,0.053,0.761,0.157
		c0.326,0.142,0.507,0.342,0.539,0.595c-0.446,3.325-0.677,6.248-0.688,8.737c-0.012,2.487,0.118,4.689,0.384,6.546
		c0.266,1.848,0.652,3.423,1.148,4.681c0.497,1.257,1.032,2.301,1.593,3.104c0.556,0.796,1.133,1.401,1.714,1.799
		c0.584,0.4,1.108,0.669,1.557,0.797c0.631-0.069,1.27-0.446,1.824-1.128c0.577-0.708,1.094-1.641,1.533-2.771
		c0.441-1.139,0.829-2.447,1.151-3.89c0.323-1.452,0.6-2.964,0.821-4.492c0.223-1.548,0.403-3.089,0.536-4.58
		c0.136-1.522,0.237-2.906,0.302-4.113c0.068-1.229,0.107-2.275,0.119-3.137c0.01-0.852,0.004-1.405-0.017-1.645l0.026-0.118
		c0.178-0.306,0.396-0.515,0.649-0.622c0.194-0.082,0.386-0.123,0.568-0.123c0.047,0,0.093,0.002,0.138,0.008
		c0.228,0.027,0.437,0.114,0.622,0.26c0.185,0.146,0.318,0.313,0.396,0.5c0.04,0.661-0.01,1.73-0.135,3.34
		c-0.124,1.589-0.203,3.587-0.235,5.94c-0.033,2.382,0.04,5.149,0.218,8.226c0.179,3.088,0.597,6.458,1.242,10.016
		c0.003,0.326-0.098,0.549-0.295,0.699c-0.17,0.132-0.375,0.219-0.61,0.257c-0.16,0.026-0.328,0.04-0.503,0.04L111.921,31.753z"/>
	<path d="M109.443,24.339c-0.359,1.144-0.818,2.22-1.379,3.229c-0.561,1.008-1.24,1.861-2.035,2.556
		c-0.796,0.695-1.754,1.042-2.875,1.042c-1.166-0.291-2.169-0.862-3.01-1.715c-0.841-0.852-1.553-1.883-2.136-3.094
		s-1.054-2.551-1.413-4.02c-0.359-1.469-0.634-2.971-0.824-4.507c-0.191-1.536-0.314-3.049-0.37-4.541
		c-0.056-1.491-0.079-2.864-0.067-4.12c0.011-1.255,0.045-2.337,0.101-3.246c0.056-0.908,0.106-1.553,0.151-1.934
		c-0.067-0.358,0.011-0.627,0.235-0.807c0.224-0.179,0.482-0.28,0.773-0.303c0.291-0.022,0.566,0.022,0.824,0.135
		c0.257,0.112,0.397,0.258,0.42,0.437c-0.449,3.296-0.679,6.2-0.689,8.711c-0.012,2.512,0.118,4.704,0.387,6.576
		s0.656,3.447,1.16,4.726c0.504,1.277,1.043,2.326,1.615,3.145s1.16,1.436,1.766,1.85c0.605,0.415,1.144,0.689,1.614,0.824
		c0.762-0.067,1.441-0.465,2.035-1.194c0.594-0.728,1.115-1.67,1.564-2.825c0.447-1.154,0.834-2.461,1.16-3.918
		c0.324-1.457,0.6-2.96,0.824-4.507c0.223-1.547,0.402-3.078,0.537-4.591c0.135-1.513,0.236-2.887,0.303-4.12
		c0.068-1.232,0.107-2.281,0.119-3.145c0.01-0.863,0.004-1.418-0.018-1.665c0.156-0.269,0.342-0.448,0.555-0.538
		c0.213-0.089,0.414-0.123,0.605-0.101c0.191,0.022,0.365,0.096,0.521,0.218c0.156,0.124,0.27,0.264,0.336,0.42
		c0.023,0.583-0.027,1.665-0.15,3.246c-0.123,1.581-0.203,3.565-0.236,5.953c-0.033,2.388,0.039,5.136,0.219,8.24
		c0.18,3.106,0.594,6.452,1.244,10.04c0,0.225-0.072,0.393-0.219,0.504c-0.145,0.112-0.318,0.186-0.521,0.219
		c-0.201,0.033-0.414,0.045-0.639,0.033c-0.225-0.011-0.414-0.027-0.57-0.05l-1.01-10.259
		C110.104,22.164,109.801,23.195,109.443,24.339z"/>
	<path d="M115.824,31.732c-0.108,0-0.229-0.011-0.359-0.032c-0.002,0-0.005,0-0.008,0c-0.03,0-0.117-0.012-0.235-0.035
		c-0.104-0.021-0.329-0.063-0.329-0.263l0.067-25.226c-0.106-0.332-0.191-0.681-0.248-0.989c-0.061-0.322-0.066-0.677-0.019-1.054
		c0.024-0.128,0.053-0.255,0.089-0.394c0.041-0.168,0.115-0.307,0.22-0.412c0.104-0.104,0.242-0.178,0.412-0.22
		c0.053-0.013,0.109-0.02,0.169-0.02c0.143,0,0.304,0.037,0.492,0.112c0.176,0.087,0.334,0.224,0.486,0.414
		c0.146,0.183,0.272,0.396,0.379,0.632c0.104,0.23,0.19,0.45,0.26,0.658c0.03,0.093,0.057,0.179,0.078,0.258
		c0.549-0.317,1.151-0.64,1.795-0.962c0.745-0.373,1.529-0.693,2.332-0.953c0.801-0.259,1.62-0.454,2.436-0.579
		c0.477-0.073,0.947-0.109,1.401-0.109c0.33,0,0.655,0.02,0.975,0.058c0.256,0.024,0.559,0.089,0.893,0.193
		c0.34,0.105,0.66,0.248,0.952,0.423c0.299,0.179,0.554,0.398,0.758,0.651c0.227,0.279,0.314,0.608,0.262,0.978
		c0.002,0.6-0.133,1.258-0.399,1.929c-0.26,0.656-0.599,1.323-1.008,1.983c-0.406,0.655-0.869,1.307-1.376,1.937
		c-0.506,0.63-1.002,1.221-1.485,1.772c-0.484,0.552-0.94,1.053-1.368,1.502c-0.187,0.197-0.354,0.378-0.501,0.544
		c0.607-0.195,1.287-0.37,2.031-0.524c0.794-0.164,1.589-0.247,2.363-0.247c0.246,0,0.49,0.008,0.734,0.024
		c1.021,0.069,1.953,0.326,2.772,0.763c0.842,0.452,1.412,1.194,1.694,2.208c0.077,0.645-0.04,1.339-0.343,2.095
		c-0.296,0.739-0.722,1.517-1.265,2.31c-0.542,0.79-1.188,1.596-1.918,2.393c-0.731,0.799-1.505,1.578-2.299,2.315
		c-0.801,0.745-1.614,1.438-2.418,2.063c-0.806,0.627-1.562,1.178-2.248,1.639c-0.686,0.462-1.3,0.818-1.827,1.059
		c-0.465,0.212-0.816,0.315-1.075,0.315c-0.058,0-0.11-0.005-0.157-0.015l-0.133-0.094l-0.808-1.346l0.211-0.299
		c0.006-0.004,0.182-0.041,0.928-0.526c0.596-0.385,1.321-0.902,2.158-1.539c0.834-0.634,1.742-1.366,2.698-2.179
		c0.961-0.815,1.868-1.644,2.697-2.463c0.826-0.813,1.538-1.615,2.116-2.382c0.561-0.743,0.887-1.397,0.972-1.945
		c0.101-0.705-0.074-1.196-0.535-1.501c-0.491-0.324-1.173-0.488-2.025-0.488c-0.876,0-1.865,0.15-2.94,0.447
		c-1.082,0.298-2.123,0.689-3.093,1.164c-0.968,0.473-1.825,1.023-2.549,1.637c-0.705,0.6-1.147,1.222-1.314,1.851
		c-0.084,0.666-0.141,1.384-0.161,2.106c-0.023,0.739-0.04,1.484-0.051,2.233l-0.034,2.237c-0.011,0.742-0.063,1.463-0.153,2.142
		c-0.068,0.507-0.168,0.93-0.297,1.258C116.587,31.464,116.367,31.732,115.824,31.732z M125.214,4.858
		c-0.21,0-0.435,0.007-0.675,0.021c-0.56,0.033-1.156,0.111-1.773,0.232c-0.612,0.121-1.236,0.293-1.854,0.514
		c-0.613,0.219-1.178,0.49-1.677,0.805c-0.495,0.313-0.914,0.677-1.246,1.084c-0.322,0.395-0.517,0.836-0.579,1.312
		c-0.065,0.438-0.116,1.008-0.149,1.699c-0.033,0.692-0.05,1.406-0.05,2.143c0,0.74,0.028,1.458,0.083,2.137
		c0.043,0.531,0.103,1,0.179,1.398c0.372-0.313,0.841-0.711,1.409-1.198c0.702-0.602,1.458-1.285,2.245-2.029
		c0.791-0.746,1.574-1.541,2.328-2.361c0.751-0.817,1.383-1.617,1.881-2.379c0.488-0.751,0.802-1.441,0.93-2.05
		c0.114-0.544-0.003-0.969-0.36-1.297C125.697,4.869,125.467,4.858,125.214,4.858z"/>
	<path d="M115.16,6.177c-0.112-0.381-0.196-0.723-0.252-1.025c-0.057-0.303-0.063-0.633-0.017-0.992
		c0.021-0.112,0.05-0.236,0.084-0.37c0.033-0.135,0.089-0.241,0.168-0.32c0.078-0.078,0.186-0.134,0.319-0.168
		c0.135-0.034,0.314-0.005,0.538,0.084c0.135,0.067,0.27,0.185,0.404,0.353c0.134,0.168,0.252,0.365,0.353,0.589
		c0.102,0.224,0.186,0.437,0.253,0.639c0.066,0.202,0.111,0.37,0.134,0.504c0.605-0.358,1.278-0.723,2.019-1.093
		c0.739-0.37,1.508-0.684,2.304-0.941s1.598-0.448,2.404-0.572c0.808-0.123,1.581-0.14,2.321-0.051
		c0.246,0.023,0.532,0.084,0.857,0.185s0.628,0.235,0.908,0.404c0.28,0.168,0.516,0.37,0.706,0.605
		c0.19,0.235,0.264,0.51,0.219,0.824c0,0.605-0.129,1.233-0.387,1.883c-0.258,0.651-0.589,1.301-0.992,1.951
		s-0.857,1.29-1.362,1.917c-0.504,0.628-0.998,1.216-1.479,1.766c-0.482,0.55-0.937,1.048-1.362,1.497
		c-0.426,0.449-0.752,0.819-0.976,1.11c0.762-0.291,1.659-0.543,2.69-0.756c1.031-0.213,2.046-0.286,3.044-0.219
		s1.895,0.314,2.691,0.74c0.795,0.426,1.328,1.122,1.597,2.085c0.067,0.583-0.045,1.24-0.336,1.967
		c-0.292,0.729-0.706,1.485-1.244,2.271s-1.172,1.576-1.9,2.371c-0.729,0.797-1.491,1.564-2.287,2.304
		c-0.796,0.74-1.598,1.425-2.405,2.052c-0.807,0.628-1.553,1.172-2.236,1.631c-0.685,0.461-1.284,0.808-1.799,1.043
		c-0.517,0.235-0.887,0.331-1.11,0.286l-0.808-1.346c0.112,0.022,0.472-0.162,1.076-0.555c0.605-0.392,1.329-0.908,2.17-1.548
		c0.841-0.639,1.743-1.367,2.707-2.186s1.867-1.643,2.708-2.473c0.841-0.828,1.553-1.631,2.136-2.404s0.919-1.451,1.009-2.035
		c0.112-0.784-0.096-1.35-0.622-1.698c-0.527-0.347-1.239-0.521-2.136-0.521c-0.897,0-1.896,0.151-2.993,0.454
		c-1.1,0.303-2.142,0.695-3.128,1.177c-0.987,0.482-1.851,1.037-2.59,1.664c-0.74,0.629-1.2,1.279-1.379,1.951
		c-0.09,0.695-0.146,1.412-0.168,2.152c-0.023,0.74-0.04,1.486-0.051,2.236c-0.012,0.752-0.022,1.497-0.034,2.237
		c-0.011,0.739-0.062,1.446-0.151,2.118c-0.066,0.494-0.162,0.898-0.285,1.211c-0.124,0.314-0.454,0.426-0.992,0.337
		c-0.046,0-0.124-0.012-0.235-0.034c-0.113-0.021-0.169-0.045-0.169-0.066L115.16,6.177z M117.212,8.8
		c-0.067,0.449-0.117,1.021-0.151,1.715c-0.033,0.695-0.05,1.413-0.05,2.152c0,0.74,0.027,1.458,0.084,2.153
		c0.056,0.695,0.14,1.278,0.252,1.749c0.403-0.336,0.958-0.807,1.665-1.413c0.706-0.605,1.457-1.284,2.253-2.035
		c0.796-0.751,1.575-1.541,2.338-2.371c0.762-0.829,1.396-1.631,1.9-2.405c0.504-0.773,0.824-1.48,0.958-2.119
		c0.135-0.639-0.022-1.149-0.471-1.53c-0.403-0.045-0.891-0.051-1.463-0.017c-0.571,0.034-1.172,0.112-1.8,0.235
		c-0.628,0.124-1.256,0.298-1.883,0.521c-0.628,0.225-1.2,0.499-1.716,0.824s-0.947,0.701-1.295,1.126
		C117.486,7.814,117.279,8.285,117.212,8.8z"/>
	<path d="M151.919,31.901c-0.161-0.033-0.3-0.117-0.416-0.25c-0.097-0.108-0.183-0.226-0.257-0.349l-0.028-0.101l-0.27-28.151
		c0.105-0.287,0.282-0.446,0.544-0.556c0.237-0.1,0.49-0.15,0.75-0.15c0.274,0,0.521,0.074,0.735,0.22
		c0.225,0.156,0.366,0.398,0.42,0.721l0.179,1.635c0.362-0.098,0.782-0.262,1.253-0.488c0.587-0.282,1.278-0.562,2.056-0.833
		s1.664-0.5,2.635-0.681c0.561-0.104,1.167-0.157,1.801-0.157c0.474,0,0.975,0.029,1.488,0.087c1.87,0.365,3.238,0.803,4.082,1.305
		c0.883,0.526,1.363,1.126,1.426,1.784c0.061,0.645-0.203,1.338-0.783,2.061c-0.558,0.694-1.311,1.401-2.238,2.103
		c-0.923,0.697-1.969,1.414-3.108,2.129c-1.145,0.718-2.262,1.408-3.35,2.07c-1.086,0.661-2.094,1.288-3.023,1.881
		c-0.802,0.512-1.436,0.99-1.887,1.423l15.555,9.353l0.097,0.172c0,0.409-0.165,0.799-0.489,1.159
		c-0.293,0.328-0.636,0.494-1.019,0.494c-0.054,0-0.107-0.003-0.163-0.01L153.3,20.379V31.2l-0.072,0.154
		c-0.293,0.243-0.539,0.396-0.752,0.471c-0.163,0.059-0.304,0.088-0.429,0.088L151.919,31.901z M153.596,7.768
		c-0.042,0.434-0.073,0.948-0.094,1.544c-0.023,0.626-0.034,1.291-0.034,1.995v3.534c0.165-0.099,0.407-0.232,0.769-0.417
		c0.593-0.302,1.315-0.677,2.167-1.125c0.851-0.448,1.763-0.946,2.735-1.495c0.967-0.543,1.896-1.112,2.763-1.69
		c0.86-0.574,1.629-1.151,2.284-1.717c0.633-0.547,1.044-1.058,1.223-1.519c0.162-0.422,0.08-0.776-0.258-1.115
		c-0.361-0.361-1.136-0.654-2.3-0.869c-0.197-0.012-0.431-0.019-0.677-0.019c-0.491,0-1.042,0.029-1.639,0.088
		c-0.894,0.088-1.8,0.25-2.694,0.482c-0.887,0.229-1.728,0.547-2.497,0.942C154.609,6.766,154.021,7.23,153.596,7.768z"/>
	<path d="M151.148,3.049c0.067-0.156,0.207-0.28,0.421-0.37c0.213-0.089,0.438-0.135,0.673-0.135s0.442,0.062,0.622,0.185
		c0.179,0.124,0.291,0.319,0.336,0.588l0.202,1.85c0.426-0.089,0.93-0.274,1.514-0.555c0.582-0.28,1.261-0.555,2.034-0.824
		s1.643-0.493,2.606-0.673c0.964-0.179,2.041-0.202,3.229-0.067c1.838,0.359,3.173,0.785,4.002,1.278
		c0.829,0.494,1.272,1.037,1.329,1.631c0.056,0.594-0.191,1.233-0.74,1.917c-0.55,0.684-1.284,1.374-2.203,2.068
		c-0.92,0.695-1.95,1.401-3.094,2.119s-2.26,1.407-3.347,2.068c-1.088,0.662-2.097,1.29-3.027,1.883
		c-0.931,0.594-1.631,1.138-2.102,1.632l15.773,9.484c0,0.358-0.146,0.701-0.438,1.025c-0.291,0.325-0.628,0.466-1.009,0.42
		L153.1,20.033V31.2c-0.27,0.224-0.499,0.37-0.689,0.437c-0.19,0.068-0.342,0.09-0.454,0.068c-0.112-0.023-0.214-0.084-0.303-0.186
		c-0.09-0.101-0.168-0.207-0.235-0.319L151.148,3.049z M153.402,7.69c-0.045,0.449-0.079,0.987-0.101,1.614
		c-0.023,0.628-0.034,1.295-0.034,2.001c0,0.706,0,1.401,0,2.085c0,0.685,0,1.295,0,1.833c0.112-0.112,0.465-0.319,1.06-0.622
		c0.594-0.303,1.317-0.678,2.169-1.126c0.853-0.448,1.767-0.947,2.741-1.497c0.976-0.549,1.9-1.115,2.775-1.698
		c0.874-0.583,1.642-1.161,2.304-1.732c0.661-0.572,1.087-1.104,1.278-1.598c0.189-0.493,0.089-0.936-0.303-1.329
		c-0.393-0.392-1.194-0.701-2.405-0.925c-0.673-0.045-1.463-0.022-2.371,0.067c-0.908,0.09-1.816,0.252-2.725,0.488
		s-1.754,0.555-2.539,0.958C154.467,6.614,153.851,7.107,153.402,7.69z"/>
	<path d="M187.024,31.753c-0.23-0.012-0.428-0.029-0.589-0.052l-0.171-0.179l-0.904-9.193c-0.186,0.644-0.394,1.336-0.624,2.069
		c-0.359,1.149-0.829,2.248-1.395,3.267c-0.57,1.026-1.27,1.903-2.077,2.609c-0.83,0.725-1.842,1.092-3.008,1.092
		c-1.245-0.305-2.289-0.899-3.152-1.774c-0.854-0.865-1.585-1.925-2.174-3.147c-0.586-1.217-1.066-2.582-1.427-4.059
		c-0.36-1.476-0.639-3-0.828-4.53c-0.191-1.542-0.316-3.075-0.372-4.558c-0.056-1.494-0.078-2.883-0.066-4.129
		c0.011-1.259,0.045-2.354,0.102-3.256c0.056-0.914,0.106-1.562,0.152-1.945c-0.101-0.482,0.112-0.783,0.309-0.94
		c0.255-0.204,0.552-0.32,0.883-0.346c0.054-0.004,0.106-0.006,0.158-0.006c0.267,0,0.522,0.053,0.762,0.157
		c0.325,0.142,0.507,0.342,0.538,0.596c-0.444,3.321-0.676,6.243-0.688,8.737c-0.011,2.49,0.118,4.693,0.385,6.546
		c0.266,1.849,0.652,3.424,1.148,4.681c0.497,1.258,1.032,2.303,1.593,3.104c0.556,0.795,1.132,1.4,1.715,1.799
		c0.584,0.4,1.107,0.669,1.556,0.797c0.631-0.069,1.27-0.446,1.825-1.128c0.578-0.708,1.094-1.641,1.532-2.771
		c0.442-1.139,0.83-2.447,1.151-3.89c0.321-1.439,0.598-2.951,0.821-4.492c0.224-1.542,0.404-3.083,0.537-4.58
		c0.133-1.495,0.234-2.878,0.303-4.113c0.066-1.229,0.105-2.275,0.117-3.137c0.011-0.849,0.006-1.402-0.016-1.645l0.026-0.118
		c0.178-0.306,0.396-0.515,0.65-0.622c0.193-0.081,0.385-0.123,0.567-0.123c0.047,0,0.093,0.002,0.138,0.008
		c0.227,0.027,0.436,0.114,0.622,0.259c0.183,0.145,0.316,0.313,0.396,0.499c0.039,0.665-0.011,1.734-0.136,3.341
		c-0.123,1.579-0.202,3.578-0.234,5.94c-0.034,2.368,0.039,5.136,0.218,8.226c0.178,3.08,0.596,6.45,1.242,10.016
		c0.003,0.396-0.159,0.595-0.295,0.699c-0.171,0.132-0.376,0.219-0.61,0.257c-0.16,0.026-0.329,0.04-0.503,0.04L187.024,31.753z"/>
	<path d="M184.546,24.339c-0.358,1.144-0.818,2.22-1.379,3.229c-0.561,1.008-1.239,1.861-2.034,2.556
		c-0.797,0.695-1.755,1.042-2.876,1.042c-1.166-0.291-2.169-0.862-3.01-1.715c-0.841-0.852-1.554-1.883-2.136-3.094
		c-0.584-1.211-1.055-2.551-1.413-4.02s-0.634-2.971-0.824-4.507c-0.19-1.536-0.314-3.049-0.37-4.541s-0.078-2.864-0.066-4.12
		c0.011-1.255,0.044-2.337,0.101-3.246c0.056-0.908,0.106-1.553,0.151-1.934c-0.067-0.358,0.011-0.627,0.235-0.807
		c0.224-0.179,0.481-0.28,0.773-0.303c0.291-0.022,0.566,0.022,0.824,0.135s0.397,0.258,0.42,0.437
		c-0.448,3.296-0.678,6.2-0.689,8.711c-0.011,2.512,0.118,4.704,0.387,6.576c0.27,1.872,0.656,3.447,1.161,4.726
		c0.504,1.277,1.042,2.326,1.614,3.145c0.571,0.818,1.16,1.436,1.766,1.85c0.605,0.415,1.144,0.689,1.614,0.824
		c0.762-0.067,1.44-0.465,2.035-1.194c0.594-0.728,1.115-1.67,1.563-2.825c0.448-1.154,0.835-2.461,1.16-3.918s0.6-2.96,0.824-4.507
		c0.224-1.547,0.403-3.078,0.538-4.591c0.135-1.513,0.235-2.887,0.303-4.12c0.067-1.232,0.106-2.281,0.118-3.145
		c0.011-0.863,0.005-1.418-0.017-1.665c0.156-0.269,0.341-0.448,0.555-0.538c0.213-0.089,0.414-0.123,0.605-0.101
		c0.19,0.022,0.364,0.096,0.521,0.218c0.156,0.124,0.269,0.264,0.336,0.42c0.022,0.583-0.028,1.665-0.151,3.246
		c-0.123,1.581-0.202,3.565-0.235,5.953c-0.034,2.388,0.039,5.136,0.219,8.24c0.179,3.106,0.594,6.452,1.244,10.04
		c0,0.225-0.073,0.393-0.219,0.504c-0.146,0.112-0.319,0.186-0.521,0.219c-0.201,0.033-0.415,0.045-0.639,0.033
		c-0.225-0.011-0.415-0.027-0.571-0.05l-1.01-10.259C185.207,22.164,184.904,23.195,184.546,24.339z"/>
	<path d="M190.928,31.732c-0.108,0-0.229-0.011-0.359-0.032c-0.002,0-0.005,0-0.008,0c-0.03,0-0.117-0.012-0.235-0.035
		c-0.104-0.021-0.329-0.063-0.329-0.263l0.067-25.226c-0.106-0.332-0.191-0.681-0.248-0.989c-0.061-0.322-0.066-0.677-0.019-1.054
		c0.024-0.128,0.053-0.255,0.089-0.394c0.041-0.168,0.115-0.307,0.22-0.412c0.104-0.104,0.242-0.178,0.412-0.22
		c0.053-0.013,0.109-0.02,0.169-0.02c0.143,0,0.304,0.037,0.492,0.112c0.176,0.087,0.334,0.224,0.486,0.414
		c0.146,0.183,0.272,0.396,0.379,0.632c0.104,0.23,0.19,0.45,0.26,0.658c0.03,0.093,0.057,0.179,0.078,0.258
		c0.549-0.317,1.151-0.64,1.795-0.962c0.745-0.373,1.529-0.693,2.332-0.953c0.801-0.259,1.62-0.454,2.436-0.579
		c0.477-0.073,0.947-0.109,1.401-0.109c0.33,0,0.655,0.02,0.975,0.058c0.256,0.024,0.559,0.089,0.893,0.193
		c0.34,0.105,0.66,0.248,0.952,0.423c0.299,0.179,0.554,0.398,0.758,0.651c0.227,0.279,0.314,0.608,0.262,0.978
		c0.002,0.6-0.133,1.258-0.399,1.929c-0.26,0.656-0.599,1.323-1.008,1.983c-0.406,0.655-0.869,1.307-1.376,1.937
		c-0.506,0.63-1.002,1.221-1.485,1.772c-0.484,0.552-0.94,1.053-1.368,1.502c-0.187,0.197-0.354,0.378-0.501,0.544
		c0.607-0.195,1.287-0.37,2.031-0.524c0.794-0.164,1.589-0.247,2.363-0.247c0.246,0,0.49,0.008,0.734,0.024
		c1.021,0.069,1.953,0.326,2.772,0.763c0.842,0.452,1.412,1.194,1.694,2.208c0.077,0.645-0.04,1.339-0.343,2.095
		c-0.296,0.739-0.722,1.517-1.265,2.31c-0.542,0.79-1.188,1.596-1.918,2.393c-0.731,0.799-1.505,1.578-2.299,2.315
		c-0.801,0.745-1.614,1.438-2.418,2.063c-0.806,0.627-1.562,1.178-2.248,1.639c-0.686,0.462-1.3,0.818-1.827,1.059
		c-0.465,0.212-0.816,0.315-1.075,0.315c-0.058,0-0.11-0.005-0.157-0.015l-0.133-0.094l-0.808-1.346l0.211-0.299
		c0.006-0.004,0.182-0.041,0.928-0.526c0.596-0.385,1.321-0.902,2.158-1.539c0.834-0.634,1.742-1.366,2.698-2.179
		c0.961-0.815,1.868-1.644,2.697-2.463c0.826-0.813,1.538-1.615,2.116-2.382c0.561-0.743,0.887-1.397,0.972-1.945
		c0.101-0.705-0.074-1.196-0.535-1.501c-0.491-0.324-1.173-0.488-2.025-0.488c-0.876,0-1.865,0.15-2.94,0.447
		c-1.082,0.298-2.123,0.689-3.093,1.164c-0.968,0.473-1.825,1.023-2.549,1.637c-0.705,0.6-1.147,1.222-1.314,1.851
		c-0.084,0.666-0.141,1.384-0.161,2.106c-0.023,0.739-0.04,1.484-0.051,2.233l-0.034,2.237c-0.011,0.742-0.063,1.463-0.153,2.142
		c-0.068,0.507-0.168,0.93-0.297,1.258C191.69,31.464,191.471,31.732,190.928,31.732z M200.317,4.858
		c-0.21,0-0.435,0.007-0.675,0.021c-0.56,0.033-1.156,0.111-1.773,0.232c-0.612,0.121-1.236,0.293-1.854,0.514
		c-0.613,0.219-1.178,0.49-1.677,0.805c-0.495,0.313-0.914,0.677-1.246,1.084c-0.322,0.395-0.517,0.836-0.579,1.312
		c-0.065,0.438-0.116,1.008-0.149,1.699c-0.033,0.692-0.05,1.406-0.05,2.143c0,0.74,0.028,1.458,0.083,2.137
		c0.043,0.531,0.103,1,0.179,1.398c0.372-0.313,0.841-0.711,1.409-1.198c0.702-0.602,1.458-1.285,2.245-2.029
		c0.791-0.746,1.574-1.541,2.328-2.361c0.751-0.817,1.383-1.617,1.881-2.379c0.488-0.751,0.802-1.441,0.93-2.05
		c0.114-0.544-0.003-0.969-0.36-1.297C200.801,4.869,200.57,4.858,200.317,4.858z"/>
	<path d="M190.264,6.177c-0.112-0.381-0.196-0.723-0.252-1.025c-0.057-0.303-0.063-0.633-0.017-0.992
		c0.021-0.112,0.05-0.236,0.084-0.37c0.033-0.135,0.089-0.241,0.168-0.32c0.078-0.078,0.186-0.134,0.319-0.168
		c0.135-0.034,0.314-0.005,0.538,0.084c0.135,0.067,0.27,0.185,0.404,0.353c0.134,0.168,0.252,0.365,0.353,0.589
		c0.102,0.224,0.186,0.437,0.253,0.639c0.066,0.202,0.111,0.37,0.134,0.504c0.605-0.358,1.278-0.723,2.019-1.093
		c0.739-0.37,1.508-0.684,2.304-0.941s1.598-0.448,2.404-0.572c0.808-0.123,1.581-0.14,2.321-0.051
		c0.246,0.023,0.532,0.084,0.857,0.185s0.628,0.235,0.908,0.404c0.28,0.168,0.516,0.37,0.706,0.605
		c0.19,0.235,0.264,0.51,0.219,0.824c0,0.605-0.129,1.233-0.387,1.883c-0.258,0.651-0.589,1.301-0.992,1.951
		s-0.857,1.29-1.362,1.917c-0.504,0.628-0.998,1.216-1.479,1.766c-0.482,0.55-0.937,1.048-1.362,1.497
		c-0.426,0.449-0.752,0.819-0.976,1.11c0.762-0.291,1.659-0.543,2.69-0.756c1.031-0.213,2.046-0.286,3.044-0.219
		s1.895,0.314,2.691,0.74c0.795,0.426,1.328,1.122,1.597,2.085c0.067,0.583-0.045,1.24-0.336,1.967
		c-0.292,0.729-0.706,1.485-1.244,2.271s-1.172,1.576-1.9,2.371c-0.729,0.797-1.491,1.564-2.287,2.304
		c-0.796,0.74-1.598,1.425-2.405,2.052c-0.807,0.628-1.553,1.172-2.236,1.631c-0.685,0.461-1.284,0.808-1.799,1.043
		c-0.517,0.235-0.887,0.331-1.11,0.286l-0.808-1.346c0.112,0.022,0.472-0.162,1.076-0.555c0.605-0.392,1.329-0.908,2.17-1.548
		c0.841-0.639,1.743-1.367,2.707-2.186s1.867-1.643,2.708-2.473c0.841-0.828,1.553-1.631,2.136-2.404s0.919-1.451,1.009-2.035
		c0.112-0.784-0.096-1.35-0.622-1.698c-0.527-0.347-1.239-0.521-2.136-0.521c-0.897,0-1.896,0.151-2.993,0.454
		c-1.1,0.303-2.142,0.695-3.128,1.177c-0.987,0.482-1.851,1.037-2.59,1.664c-0.74,0.629-1.2,1.279-1.379,1.951
		c-0.09,0.695-0.146,1.412-0.168,2.152c-0.023,0.74-0.04,1.486-0.051,2.236c-0.012,0.752-0.022,1.497-0.034,2.237
		c-0.011,0.739-0.062,1.446-0.151,2.118c-0.066,0.494-0.162,0.898-0.285,1.211c-0.124,0.314-0.454,0.426-0.992,0.337
		c-0.046,0-0.124-0.012-0.235-0.034c-0.113-0.021-0.169-0.045-0.169-0.066L190.264,6.177z M192.315,8.8
		c-0.067,0.449-0.117,1.021-0.151,1.715c-0.033,0.695-0.05,1.413-0.05,2.152c0,0.74,0.027,1.458,0.084,2.153
		c0.056,0.695,0.14,1.278,0.252,1.749c0.403-0.336,0.958-0.807,1.665-1.413c0.706-0.605,1.457-1.284,2.253-2.035
		c0.796-0.751,1.575-1.541,2.338-2.371c0.762-0.829,1.396-1.631,1.9-2.405c0.504-0.773,0.824-1.48,0.958-2.119
		c0.135-0.639-0.022-1.149-0.471-1.53c-0.403-0.045-0.891-0.051-1.463-0.017c-0.571,0.034-1.172,0.112-1.8,0.235
		c-0.628,0.124-1.256,0.298-1.883,0.521c-0.628,0.225-1.2,0.499-1.716,0.824s-0.947,0.701-1.295,1.126
		C192.59,7.814,192.383,8.285,192.315,8.8z"/>
</g>
</svg>
