<?xml version="1.0" encoding="utf-8"?>
<!-- Generator: Adobe Illustrator 16.0.0, SVG Export Plug-In . SVG Version: 6.00 Build 0)  -->
<!DOCTYPE svg PUBLIC "-//W3C//DTD SVG 1.0//EN" "http://www.w3.org/TR/2001/REC-SVG-20010904/DTD/svg10.dtd">
<svg version="1.0" id="Layer_1" xmlns="http://www.w3.org/2000/svg" xmlns:xlink="http://www.w3.org/1999/xlink" x="0px" y="0px"
	 width="208px" height="33px" viewBox="0 0 208 33" enable-background="new 0 0 208 33" xml:space="preserve">
<g>
	<path d="M23.337,30.737c-0.245-0.024-0.509-0.104-0.788-0.236c-0.269-0.129-0.524-0.29-0.759-0.478l-0.074-0.139L19.593,5.713
		c-0.025,0.073-0.053,0.158-0.083,0.255c-0.19,0.603-0.43,1.384-0.72,2.343c-0.291,0.96-0.608,2.043-0.954,3.248
		c-0.346,1.203-0.719,2.412-1.108,3.593c-0.391,1.183-0.792,2.303-1.193,3.328c-0.405,1.033-0.811,1.868-1.208,2.481
		c-0.428,0.659-0.834,1.012-1.242,1.077l-0.103,0.009c-0.415,0-0.766-0.39-1.071-1.19c-0.34-0.5-0.75-1.253-1.2-2.197
		c-0.447-0.938-0.922-1.956-1.425-3.051c-0.502-1.094-1.028-2.228-1.574-3.4c-0.544-1.164-1.1-2.259-1.652-3.254
		c-0.551-0.992-1.1-1.871-1.63-2.612c-0.406-0.567-0.801-1-1.177-1.294c0.014,1.628,0.114,3.419,0.299,5.331
		c0.201,2.077,0.418,4.181,0.653,6.313c0.234,2.135,0.453,4.241,0.654,6.319c0.201,2.075,0.303,4.021,0.303,5.783
		c0.118,0.19,0.125,0.474-0.001,0.753c-0.119,0.263-0.3,0.463-0.538,0.595c-0.156,0.087-0.329,0.13-0.514,0.13
		c-0.107,0-0.22-0.015-0.335-0.043c-0.317-0.08-0.604-0.312-0.855-0.687c-0.343-2.309-0.569-4.613-0.704-6.936l-0.402-7.004
		c-0.133-2.325-0.296-4.68-0.485-6.999C1.136,6.297,0.85,3.992,0.473,1.752C0.443,1.2,0.551,0.867,0.799,0.712
		C1.01,0.581,1.271,0.514,1.575,0.514C2.662,0.82,3.603,1.372,4.427,2.161C5.24,2.939,5.989,3.865,6.653,4.913
		c0.66,1.041,1.273,2.194,1.823,3.427c0.547,1.229,1.09,2.452,1.626,3.67c0.529,1.203,1.07,2.374,1.605,3.479
		c0.505,1.042,1.067,1.958,1.67,2.725c0.011-0.008,0.022-0.018,0.035-0.03c0.021-0.021,0.103-0.124,0.274-0.568
		c0.134-0.345,0.322-0.873,0.567-1.584c0.245-0.714,0.574-1.707,0.987-2.979l3.837-11.862c0.061-0.184,0.205-0.34,0.428-0.464
		c0.208-0.117,0.438-0.177,0.684-0.177c0.258,0,0.498,0.088,0.712,0.263c0.216,0.176,0.364,0.469,0.439,0.873
		c0.226,2.076,0.435,4.271,0.623,6.538c0.189,2.29,0.396,4.629,0.62,7.019c0.219,2.354,0.478,4.792,0.77,7.25
		c0.289,2.434,0.648,4.859,1.07,7.21c-0.051,0.427-0.178,0.69-0.375,0.846c-0.167,0.132-0.368,0.199-0.594,0.199L23.337,30.737z"/>
	<path d="M19.737,5.07c-0.089-0.044-0.229,0.234-0.419,0.838c-0.19,0.603-0.43,1.385-0.72,2.345
		c-0.291,0.961-0.609,2.044-0.955,3.25c-0.347,1.207-0.715,2.402-1.106,3.586c-0.391,1.184-0.788,2.29-1.189,3.317
		c-0.402,1.027-0.799,1.843-1.19,2.446c-0.391,0.603-0.76,0.933-1.105,0.988c-0.347,0.056-0.665-0.296-0.955-1.056
		c-0.358-0.536-0.76-1.273-1.207-2.212c-0.447-0.938-0.921-1.954-1.424-3.049c-0.502-1.094-1.028-2.229-1.575-3.401
		c-0.548-1.173-1.101-2.262-1.659-3.267C5.674,7.852,5.127,6.975,4.591,6.226c-0.536-0.748-1.05-1.268-1.542-1.558
		c0,1.743,0.101,3.653,0.302,5.73s0.419,4.183,0.653,6.316c0.234,2.134,0.453,4.239,0.653,6.316
		c0.201,2.078,0.302,3.999,0.302,5.764c0.111,0.224,0.117,0.447,0.017,0.671c-0.101,0.223-0.251,0.391-0.452,0.502
		s-0.436,0.135-0.704,0.067s-0.514-0.269-0.737-0.604c-0.313-2.233-0.536-4.512-0.67-6.836c-0.134-2.323-0.268-4.657-0.402-7.003
		c-0.134-2.346-0.296-4.68-0.486-7.003C1.334,6.266,1.05,3.976,0.67,1.719C0.647,1.272,0.726,0.994,0.905,0.881
		c0.179-0.111,0.402-0.167,0.67-0.167c1.005,0.291,1.91,0.821,2.714,1.592S5.825,3.981,6.484,5.02
		c0.659,1.039,1.262,2.173,1.809,3.401s1.089,2.452,1.625,3.669c0.536,1.218,1.072,2.379,1.608,3.485
		c0.536,1.105,1.128,2.061,1.776,2.865c0.089,0,0.173-0.038,0.251-0.117c0.078-0.078,0.185-0.29,0.318-0.637
		c0.134-0.347,0.324-0.876,0.57-1.592c0.246-0.714,0.575-1.709,0.988-2.982c0.413-1.273,0.933-2.876,1.558-4.809
		c0.625-1.932,1.385-4.283,2.279-7.054c0.044-0.134,0.156-0.251,0.335-0.352c0.179-0.101,0.374-0.151,0.586-0.151
		s0.408,0.073,0.586,0.218c0.179,0.146,0.302,0.397,0.369,0.754c0.223,2.056,0.43,4.228,0.62,6.518
		c0.189,2.29,0.396,4.63,0.62,7.021c0.223,2.391,0.48,4.808,0.771,7.254c0.29,2.446,0.647,4.854,1.072,7.222
		c-0.045,0.313-0.146,0.53-0.302,0.653s-0.346,0.173-0.569,0.151c-0.224-0.022-0.464-0.096-0.721-0.218
		c-0.257-0.123-0.497-0.274-0.72-0.453L19.737,5.07z"/>
	<path d="M26.337,30.955c-0.112,0-0.222-0.021-0.326-0.065c-0.346-0.143-0.775-0.438-1.312-0.904l-0.06-0.21
		c0.156-0.513,0.407-1.36,0.754-2.545c0.345-1.182,0.801-2.887,1.355-5.068c0.558-2.2,1.245-4.997,2.061-8.393
		c0.812-3.384,1.776-7.6,2.864-12.529c0.184-0.325,0.413-0.507,0.704-0.6c0.192-0.061,0.387-0.091,0.578-0.091
		c0.083,0,0.165,0.005,0.248,0.017c0.276,0.038,0.516,0.129,0.71,0.271c0.255,0.187,0.31,0.393,0.304,0.549l6.514,15.838
		l3.244-0.986c0.017,0,0.033,0,0.049,0c0.367,0,0.642,0.093,0.869,0.268c0.245,0.191,0.383,0.429,0.412,0.708
		c0.026,0.272-0.064,0.561-0.27,0.855c-0.204,0.292-0.553,0.525-1.037,0.693c-0.178,0.067-0.419,0.144-0.717,0.224
		c-0.293,0.078-0.586,0.151-0.878,0.219c-0.284,0.065-0.524,0.131-0.72,0.195c-0.063,0.021-0.106,0.04-0.135,0.054l3.678,9.807
		l-0.002,0.145c-0.042,0.106-0.084,0.238-0.126,0.396c-0.058,0.212-0.172,0.383-0.341,0.511c-0.136,0.102-0.316,0.153-0.536,0.153
		c-0.066,0-0.137-0.005-0.212-0.015c-0.296-0.036-0.694-0.204-1.216-0.513l-0.084-0.099l-3.788-9.684
		c-0.444,0.118-0.977,0.233-1.587,0.342c-0.694,0.123-1.421,0.246-2.182,0.368c-0.756,0.123-1.517,0.268-2.285,0.434
		c-0.755,0.165-1.462,0.371-2.1,0.612c-0.626,0.237-1.162,0.526-1.59,0.858c-0.411,0.318-0.649,0.689-0.73,1.135
		c-0.044,0.307-0.127,0.822-0.25,1.54c-0.123,0.714-0.24,1.428-0.352,2.142c-0.134,0.85-0.291,1.768-0.47,2.752l-0.055,0.105
		C26.979,30.783,26.649,30.955,26.337,30.955z M29.967,19.58c0.337-0.104,0.75-0.212,1.252-0.328l2.179-0.504l2.363-0.536
		c0.696-0.156,1.349-0.326,1.945-0.504L33.283,5.661L29.967,19.58z"/>
	<path d="M24.831,29.834c0.156-0.514,0.408-1.362,0.754-2.547c0.346-1.184,0.798-2.876,1.357-5.076
		c0.558-2.2,1.245-4.998,2.061-8.395c0.815-3.396,1.77-7.573,2.865-12.533c0.134-0.223,0.324-0.374,0.57-0.453
		c0.246-0.078,0.491-0.101,0.737-0.067c0.246,0.034,0.452,0.112,0.62,0.234c0.168,0.123,0.24,0.263,0.218,0.419l6.602,16.051
		l3.418-1.039c0.29,0,0.536,0.079,0.737,0.234c0.201,0.157,0.313,0.347,0.335,0.57c0.022,0.224-0.056,0.464-0.234,0.721
		c-0.179,0.257-0.492,0.464-0.938,0.619c-0.179,0.067-0.414,0.141-0.704,0.219c-0.291,0.078-0.581,0.15-0.871,0.218
		c-0.291,0.066-0.536,0.134-0.737,0.2c-0.201,0.067-0.302,0.135-0.302,0.201l3.72,9.919c-0.045,0.112-0.089,0.252-0.134,0.419
		c-0.045,0.168-0.134,0.302-0.268,0.402c-0.134,0.101-0.335,0.134-0.604,0.101s-0.648-0.196-1.139-0.486l-3.854-9.852
		c-0.469,0.134-1.05,0.263-1.743,0.386c-0.693,0.123-1.419,0.246-2.178,0.368c-0.76,0.123-1.524,0.269-2.295,0.436
		c-0.771,0.168-1.48,0.375-2.128,0.62c-0.648,0.246-1.195,0.542-1.642,0.888c-0.447,0.347-0.715,0.766-0.805,1.257
		c-0.045,0.313-0.128,0.827-0.251,1.542c-0.123,0.715-0.24,1.43-0.352,2.145c-0.134,0.849-0.291,1.765-0.469,2.747
		c-0.402,0.402-0.765,0.536-1.089,0.402C25.763,30.571,25.344,30.28,24.831,29.834z M33.242,4.97l-3.552,14.912
		c0.38-0.135,0.905-0.279,1.575-0.436s1.396-0.324,2.178-0.503c0.782-0.179,1.569-0.357,2.362-0.536s1.513-0.369,2.162-0.569
		L33.242,4.97z"/>
	<path d="M62.966,33.698c-0.242-0.363-0.434-1.025-0.584-2.024c-0.146-0.962-0.265-2.038-0.353-3.198
		c-0.09-1.165-0.146-2.313-0.168-3.413c-0.016-0.812-0.021-1.507-0.013-2.076c-0.574,0.653-1.243,1.336-1.997,2.035
		c-0.921,0.853-1.922,1.637-2.976,2.332c-1.057,0.698-2.152,1.269-3.254,1.695c-1.031,0.4-2.03,0.604-2.968,0.604l-0.227-0.004
		c-1.019-0.035-1.964-0.363-2.809-0.976c-0.845-0.613-1.518-1.645-1.999-3.063c-0.298-1.01-0.408-2.194-0.329-3.528
		c0.079-1.323,0.306-2.739,0.676-4.209c0.37-1.468,0.881-2.978,1.518-4.485c0.638-1.512,1.398-2.97,2.26-4.335
		c0.862-1.366,1.839-2.644,2.904-3.798c1.069-1.159,2.222-2.118,3.427-2.85c1.213-0.736,2.504-1.229,3.839-1.467
		c0.449-0.08,0.908-0.121,1.364-0.121c0.912,0,1.851,0.162,2.79,0.48c0.006-0.002,0.02-0.003,0.04-0.003
		c0.09,0,0.302,0.032,0.405,0.21c0.069,0.12,0.087,0.268,0.058,0.45c-0.023,0.14-0.064,0.314-0.122,0.523
		c-0.051,0.183-0.077,0.401-0.077,0.65l-0.227,0.198c-0.476-0.065-0.95-0.098-1.412-0.098c-1.083,0-2.144,0.182-3.152,0.541
		c-1.445,0.515-2.806,1.298-4.044,2.328c-1.242,1.034-2.375,2.283-3.365,3.713c-0.993,1.435-1.837,2.978-2.51,4.588
		c-0.673,1.609-1.17,3.27-1.479,4.935c-0.309,1.663-0.409,3.264-0.299,4.758c0.085,1.227,0.439,2.061,1.053,2.48
		c0.472,0.322,1.035,0.486,1.673,0.486c0.208,0,0.423-0.017,0.647-0.051c0.942-0.14,1.984-0.526,3.099-1.149
		c1.124-0.628,2.223-1.409,3.267-2.321c1.047-0.915,1.997-1.925,2.821-3.003c0.75-0.98,1.31-1.953,1.667-2.896h-5.747l-0.163-0.084
		c-0.5-0.701-0.316-1.113-0.073-1.336c0.301-0.275,0.791-0.462,1.496-0.569c0.666-0.102,1.471-0.153,2.393-0.153
		c0.919,0,1.86,0.023,2.824,0.067c0.227-0.06,0.622-0.198,1.121-0.404c0.521-0.215,1.023-0.392,1.496-0.527
		c0.329-0.094,0.621-0.142,0.866-0.142c0.129,0,0.25,0.013,0.358,0.04c0.199,0.047,0.295,0.165,0.34,0.255
		c0.097,0.193,0.069,0.461-0.085,0.822c-0.044,0.088-0.129,0.172-0.299,0.299c-0.139,0.104-0.295,0.208-0.469,0.313
		c0,0-0.651,0.396-0.707,0.427c-0.51,1.016-0.878,2.217-1.092,3.572c-0.222,1.393-0.345,2.859-0.366,4.361
		c-0.022,1.506,0.028,3.021,0.15,4.504c0.122,1.487,0.274,2.847,0.451,4.042l-0.133,0.219l-1.273,0.436L62.966,33.698z"/>
	<path d="M62.061,22.429c-0.648,0.782-1.43,1.597-2.346,2.446c-0.917,0.849-1.899,1.619-2.949,2.312
		c-1.05,0.693-2.123,1.252-3.217,1.676c-1.095,0.425-2.134,0.62-3.116,0.586c-0.983-0.033-1.882-0.346-2.698-0.938
		s-1.458-1.581-1.927-2.966c-0.291-0.983-0.397-2.134-0.318-3.452c0.078-1.317,0.302-2.708,0.67-4.172
		c0.369-1.462,0.871-2.949,1.508-4.457s1.385-2.943,2.245-4.306c0.86-1.362,1.82-2.619,2.882-3.77
		c1.061-1.15,2.189-2.089,3.384-2.815c1.195-0.726,2.452-1.207,3.77-1.441c1.318-0.234,2.669-0.117,4.055,0.352
		c0.179,0,0.29,0.039,0.335,0.117c0.045,0.079,0.056,0.184,0.034,0.318c-0.022,0.134-0.062,0.301-0.117,0.502
		c-0.056,0.201-0.084,0.436-0.084,0.704c-1.631-0.223-3.183-0.072-4.658,0.453s-2.843,1.313-4.105,2.362
		c-1.262,1.05-2.396,2.301-3.401,3.753c-1.005,1.453-1.849,2.994-2.53,4.625c-0.682,1.631-1.179,3.291-1.491,4.976
		c-0.313,1.688-0.414,3.29-0.302,4.809c0.089,1.296,0.469,2.173,1.14,2.631c0.67,0.458,1.491,0.614,2.463,0.469
		c0.972-0.145,2.027-0.536,3.167-1.173s2.239-1.418,3.301-2.346c1.061-0.927,2.011-1.938,2.848-3.032
		c0.838-1.095,1.436-2.167,1.793-3.217h-6.032c-0.335-0.469-0.369-0.827-0.101-1.073c0.268-0.245,0.731-0.418,1.391-0.519
		c0.659-0.101,1.446-0.151,2.362-0.151s1.854,0.022,2.815,0.067c0.29-0.067,0.692-0.206,1.207-0.419
		c0.514-0.212,1.005-0.385,1.474-0.519c0.469-0.134,0.843-0.168,1.123-0.101c0.279,0.067,0.318,0.335,0.118,0.804
		c-0.022,0.045-0.101,0.117-0.235,0.218c-0.134,0.101-0.285,0.201-0.452,0.302c-0.167,0.1-0.324,0.196-0.469,0.285
		c-0.146,0.089-0.24,0.146-0.285,0.167c-0.536,1.05-0.917,2.278-1.14,3.687c-0.224,1.407-0.347,2.87-0.369,4.39
		c-0.022,1.52,0.028,3.027,0.151,4.523c0.123,1.496,0.273,2.849,0.453,4.055l-1.273,0.436c-0.224-0.335-0.408-0.983-0.553-1.943
		c-0.146-0.961-0.263-2.021-0.352-3.184c-0.089-1.161-0.146-2.295-0.167-3.401C62.038,23.953,62.038,23.076,62.061,22.429z"/>
	<path d="M70.841,30.271c-0.114,0-0.231-0.014-0.348-0.041c-0.319-0.073-0.595-0.206-0.82-0.392
		c-0.113-0.096-0.263-0.243-0.253-0.432c0.003-0.054,0.02-0.124,0.076-0.191L68.06,1.663l0.035-0.124
		c0.213-0.311,0.471-0.468,0.766-0.468c0.118,0,0.241,0.026,0.365,0.078c0.369,0.155,0.718,0.396,1.036,0.713
		c0.312,0.313,0.565,0.63,0.751,0.944c0.166,0.279,0.224,0.426,0.204,0.537l11.944,20.406c0.034-0.285,0.067-0.637,0.098-1.051
		c0.055-0.751,0.094-1.638,0.116-2.638c0.022-1.013,0.028-2.122,0.017-3.327s-0.033-2.41-0.066-3.615
		c-0.034-1.204-0.083-2.386-0.151-3.546c-0.067-1.159-0.145-2.201-0.234-3.126c-0.089-0.922-0.19-1.694-0.299-2.295
		c-0.14-0.769-0.281-0.96-0.335-1.006l-0.07-0.152c0-0.382,0.073-0.752,0.216-1.098c0.116-0.278,0.381-0.61,0.99-0.61
		c0.456,0,0.831,0.26,1.113,0.773c0.253,0.461,0.451,0.985,0.589,1.558c0.135,0.564,0.232,1.125,0.289,1.668
		c0.057,0.547,0.085,0.901,0.085,1.06c0.021,0.438,0.038,1.15,0.05,2.125l0.101,11.209c0.011,1.252,0.017,2.369,0.017,3.353
		c0,0.979,0.01,1.69,0.033,2.135c0.021,0.606,0.103,1.142,0.243,1.593c0.15,0.486,0.227,1.048,0.227,1.668
		c0,0.561-0.216,0.989-0.642,1.272c-0.4,0.267-0.849,0.402-1.334,0.402c-0.266,0-0.508-0.038-0.719-0.112
		c-0.229-0.081-0.414-0.218-0.549-0.407c-0.134-0.188-0.209-0.433-0.221-0.728c-0.012-0.257,0.03-0.558,0.129-0.917
		c-0.399-0.486-0.901-1.263-1.494-2.311c-0.626-1.107-1.314-2.36-2.063-3.758c-0.749-1.396-1.531-2.865-2.346-4.407
		c-0.815-1.541-1.597-2.998-2.345-4.371c-0.742-1.361-1.444-2.57-2.088-3.591c-0.482-0.764-0.897-1.35-1.238-1.748
		c-0.085,1.337-0.108,2.872-0.068,4.568c0.045,1.919,0.125,3.89,0.235,5.858c0.111,1.998,0.229,3.947,0.352,5.846
		c0.123,1.901,0.185,3.597,0.185,5.039c0,0.553-0.175,0.913-0.52,1.069C71.26,30.225,71.052,30.271,70.841,30.271z"/>
	<path d="M68.26,1.652c0.246-0.357,0.542-0.463,0.888-0.318c0.346,0.146,0.67,0.369,0.972,0.67c0.301,0.302,0.542,0.604,0.72,0.905
		c0.179,0.302,0.223,0.441,0.134,0.419l12.298,21.01c0.067-0.335,0.128-0.876,0.185-1.625c0.055-0.748,0.095-1.63,0.117-2.647
		c0.022-1.016,0.028-2.127,0.017-3.334c-0.011-1.206-0.033-2.413-0.067-3.619c-0.034-1.207-0.083-2.391-0.151-3.552
		c-0.067-1.161-0.146-2.206-0.234-3.133c-0.09-0.927-0.19-1.697-0.302-2.312c-0.112-0.614-0.246-0.989-0.402-1.123
		c0-0.357,0.067-0.698,0.201-1.022c0.134-0.324,0.402-0.486,0.805-0.486c0.379,0,0.692,0.223,0.938,0.67
		c0.246,0.447,0.436,0.95,0.57,1.508c0.134,0.559,0.229,1.106,0.285,1.642c0.056,0.536,0.084,0.883,0.084,1.039
		c0.022,0.447,0.039,1.156,0.05,2.128c0.011,0.972,0.022,2.083,0.033,3.334c0.011,1.251,0.022,2.563,0.034,3.938
		c0.011,1.374,0.022,2.687,0.034,3.938c0.011,1.251,0.017,2.368,0.017,3.351c0,0.983,0.011,1.698,0.033,2.145
		c0.022,0.626,0.106,1.173,0.251,1.643c0.145,0.469,0.218,1.005,0.218,1.608c0,0.491-0.184,0.86-0.553,1.105
		c-0.369,0.246-0.776,0.369-1.223,0.369c-0.246,0-0.464-0.034-0.653-0.101c-0.19-0.067-0.341-0.179-0.453-0.335
		s-0.173-0.363-0.184-0.62c-0.012-0.257,0.039-0.575,0.151-0.955c-0.402-0.47-0.917-1.257-1.542-2.362
		c-0.626-1.106-1.313-2.357-2.061-3.754c-0.749-1.396-1.53-2.864-2.346-4.406c-0.816-1.542-1.598-2.999-2.346-4.373
		c-0.749-1.374-1.447-2.574-2.094-3.602c-0.648-1.027-1.173-1.731-1.575-2.111c-0.112,1.453-0.146,3.133-0.101,5.043
		s0.123,3.865,0.235,5.864c0.111,1.999,0.229,3.949,0.352,5.848c0.123,1.898,0.185,3.574,0.185,5.026
		c0,0.469-0.134,0.766-0.402,0.888c-0.268,0.123-0.547,0.151-0.837,0.084c-0.291-0.067-0.536-0.185-0.737-0.352
		c-0.201-0.168-0.235-0.296-0.101-0.386L68.26,1.652z"/>
	<path d="M88.397,30.955c-0.112,0-0.222-0.021-0.326-0.065c-0.346-0.143-0.775-0.438-1.312-0.904l-0.06-0.21
		c0.156-0.513,0.407-1.36,0.754-2.545c0.345-1.182,0.801-2.887,1.355-5.068c0.558-2.2,1.245-4.997,2.061-8.393
		c0.813-3.385,1.776-7.6,2.864-12.529c0.184-0.325,0.413-0.507,0.704-0.6c0.192-0.061,0.387-0.091,0.578-0.091
		c0.083,0,0.165,0.005,0.248,0.017c0.276,0.038,0.516,0.129,0.71,0.271c0.255,0.187,0.31,0.393,0.304,0.549l6.514,15.838
		l3.244-0.986c0.018,0,0.034,0,0.05,0c0.368,0,0.643,0.093,0.869,0.268c0.246,0.194,0.384,0.432,0.411,0.708
		c0.026,0.271-0.064,0.559-0.27,0.854c-0.204,0.292-0.553,0.525-1.036,0.693c-0.18,0.068-0.42,0.144-0.719,0.224
		c-0.291,0.078-0.584,0.151-0.877,0.22c-0.284,0.064-0.524,0.13-0.72,0.194c-0.063,0.021-0.106,0.04-0.135,0.054l3.678,9.807
		l-0.002,0.145c-0.042,0.106-0.085,0.238-0.127,0.396c-0.057,0.212-0.172,0.385-0.341,0.511c-0.137,0.102-0.316,0.153-0.536,0.153
		c-0.065,0-0.137-0.005-0.212-0.015c-0.298-0.037-0.695-0.204-1.216-0.513l-0.085-0.099l-3.788-9.684
		c-0.444,0.118-0.977,0.233-1.587,0.342c-0.694,0.123-1.421,0.246-2.182,0.368c-0.756,0.123-1.517,0.268-2.285,0.434
		c-0.755,0.165-1.462,0.371-2.1,0.612c-0.626,0.237-1.162,0.526-1.59,0.858c-0.411,0.318-0.649,0.689-0.73,1.135
		c-0.044,0.307-0.127,0.822-0.25,1.54c-0.123,0.714-0.24,1.428-0.352,2.142c-0.134,0.85-0.291,1.768-0.47,2.752l-0.055,0.105
		C89.039,30.783,88.709,30.955,88.397,30.955z M92.027,19.58c0.337-0.104,0.75-0.212,1.252-0.328l2.179-0.504l2.363-0.536
		c0.696-0.156,1.349-0.326,1.945-0.504L95.343,5.661L92.027,19.58z"/>
	<path d="M86.891,29.834c0.156-0.514,0.408-1.362,0.754-2.547c0.346-1.184,0.798-2.876,1.357-5.076
		c0.558-2.2,1.245-4.998,2.061-8.395c0.815-3.396,1.77-7.573,2.865-12.533c0.134-0.223,0.324-0.374,0.57-0.453
		c0.246-0.078,0.491-0.101,0.737-0.067c0.246,0.034,0.452,0.112,0.62,0.234c0.168,0.123,0.24,0.263,0.218,0.419l6.602,16.051
		l3.418-1.039c0.291,0,0.537,0.079,0.738,0.234c0.199,0.157,0.313,0.347,0.334,0.57c0.021,0.224-0.057,0.464-0.234,0.721
		c-0.18,0.257-0.492,0.464-0.938,0.619c-0.18,0.067-0.414,0.141-0.705,0.219c-0.289,0.078-0.58,0.15-0.871,0.218
		c-0.291,0.066-0.536,0.134-0.737,0.2c-0.201,0.067-0.302,0.135-0.302,0.201l3.72,9.919c-0.045,0.112-0.09,0.252-0.135,0.419
		c-0.045,0.168-0.133,0.302-0.268,0.402s-0.336,0.134-0.604,0.101s-0.648-0.196-1.139-0.486l-3.854-9.852
		c-0.469,0.134-1.05,0.263-1.743,0.386c-0.693,0.123-1.419,0.246-2.178,0.368c-0.76,0.123-1.524,0.269-2.295,0.436
		c-0.771,0.168-1.48,0.375-2.128,0.62c-0.648,0.246-1.195,0.542-1.642,0.888c-0.447,0.347-0.715,0.766-0.805,1.257
		c-0.045,0.313-0.128,0.827-0.251,1.542c-0.123,0.715-0.24,1.43-0.352,2.145c-0.134,0.849-0.291,1.765-0.469,2.747
		c-0.402,0.402-0.765,0.536-1.089,0.402C87.823,30.571,87.404,30.28,86.891,29.834z M95.302,4.97L91.75,19.882
		c0.38-0.135,0.905-0.279,1.575-0.436s1.396-0.324,2.178-0.503c0.782-0.179,1.569-0.357,2.362-0.536s1.513-0.369,2.162-0.569
		L95.302,4.97z"/>
	<path d="M130.4,30.737c-0.244-0.024-0.509-0.104-0.787-0.236c-0.269-0.129-0.524-0.289-0.76-0.478l-0.074-0.139l-2.123-24.171
		c-0.025,0.073-0.053,0.158-0.084,0.255c-0.19,0.603-0.43,1.384-0.72,2.343c-0.29,0.96-0.607,2.043-0.954,3.248
		c-0.348,1.211-0.721,2.42-1.108,3.593c-0.396,1.199-0.798,2.318-1.192,3.328c-0.405,1.035-0.813,1.87-1.208,2.481
		c-0.429,0.66-0.835,1.012-1.243,1.077l-0.102,0.009c-0.415,0-0.766-0.39-1.071-1.19c-0.342-0.504-0.753-1.256-1.2-2.197
		c-0.447-0.938-0.923-1.956-1.425-3.051c-0.503-1.094-1.028-2.228-1.575-3.4c-0.544-1.166-1.101-2.261-1.652-3.254
		s-1.101-1.873-1.63-2.612c-0.405-0.566-0.8-1-1.177-1.293c0.014,1.625,0.114,3.416,0.299,5.331
		c0.201,2.077,0.419,4.181,0.654,6.313c0.234,2.135,0.452,4.241,0.653,6.319c0.2,2.068,0.302,4.014,0.302,5.783
		c0.118,0.189,0.126,0.473,0,0.753c-0.119,0.263-0.3,0.463-0.539,0.595c-0.155,0.086-0.328,0.13-0.514,0.13
		c-0.107,0-0.22-0.015-0.335-0.043c-0.317-0.08-0.605-0.312-0.855-0.688c-0.343-2.304-0.568-4.608-0.702-6.935l-0.402-7.004
		c-0.131-2.292-0.295-4.646-0.486-6.999c-0.188-2.302-0.475-4.608-0.853-6.853c-0.029-0.552,0.078-0.885,0.325-1.041
		c0.211-0.131,0.473-0.198,0.777-0.198c1.088,0.307,2.028,0.858,2.853,1.647c0.812,0.777,1.561,1.703,2.226,2.752
		c0.661,1.042,1.274,2.195,1.823,3.427c0.547,1.229,1.089,2.452,1.625,3.67c0.53,1.203,1.07,2.374,1.605,3.479
		c0.506,1.042,1.067,1.959,1.671,2.725c0.011-0.008,0.022-0.018,0.034-0.03c0.021-0.021,0.103-0.124,0.274-0.568
		c0.133-0.345,0.321-0.873,0.566-1.584c0.246-0.714,0.575-1.708,0.988-2.979l3.837-11.862c0.061-0.184,0.204-0.34,0.428-0.465
		c0.208-0.117,0.438-0.176,0.684-0.176c0.257,0,0.497,0.088,0.713,0.262c0.216,0.177,0.364,0.47,0.438,0.873
		c0.223,2.038,0.432,4.232,0.623,6.538c0.189,2.29,0.396,4.629,0.62,7.019c0.221,2.373,0.479,4.812,0.77,7.25
		c0.289,2.434,0.649,4.859,1.071,7.21c-0.052,0.427-0.178,0.69-0.375,0.846c-0.168,0.132-0.368,0.199-0.595,0.199L130.4,30.737z"/>
	<path d="M126.801,5.07c-0.09-0.044-0.229,0.234-0.419,0.838c-0.19,0.603-0.431,1.385-0.721,2.345
		c-0.29,0.961-0.608,2.044-0.955,3.25c-0.347,1.207-0.715,2.402-1.105,3.586c-0.392,1.184-0.787,2.29-1.189,3.317
		s-0.799,1.843-1.189,2.446c-0.392,0.603-0.76,0.933-1.106,0.988s-0.665-0.296-0.955-1.056c-0.357-0.536-0.76-1.273-1.206-2.212
		c-0.447-0.938-0.922-1.954-1.424-3.049c-0.503-1.094-1.028-2.229-1.575-3.401c-0.548-1.173-1.101-2.262-1.659-3.267
		s-1.105-1.882-1.642-2.631c-0.536-0.748-1.051-1.268-1.541-1.558c0,1.743,0.101,3.653,0.301,5.73
		c0.201,2.078,0.419,4.183,0.654,6.316c0.234,2.134,0.452,4.239,0.653,6.316c0.201,2.078,0.301,3.999,0.301,5.764
		c0.112,0.224,0.118,0.447,0.018,0.671c-0.101,0.223-0.252,0.391-0.453,0.502c-0.2,0.111-0.436,0.135-0.703,0.067
		c-0.269-0.067-0.515-0.269-0.737-0.604c-0.313-2.233-0.536-4.512-0.67-6.836c-0.135-2.323-0.269-4.657-0.402-7.003
		c-0.134-2.346-0.297-4.68-0.486-7.003c-0.189-2.323-0.475-4.613-0.854-6.87c-0.022-0.447,0.056-0.726,0.234-0.838
		c0.179-0.111,0.402-0.167,0.671-0.167c1.005,0.291,1.91,0.821,2.714,1.592c0.805,0.771,1.536,1.675,2.195,2.714
		c0.658,1.039,1.262,2.173,1.81,3.401c0.547,1.229,1.089,2.452,1.625,3.669c0.536,1.218,1.072,2.379,1.608,3.485
		c0.536,1.105,1.128,2.061,1.776,2.865c0.089,0,0.173-0.038,0.251-0.117c0.078-0.078,0.185-0.29,0.318-0.637
		s0.323-0.876,0.569-1.592c0.246-0.714,0.575-1.709,0.989-2.982c0.413-1.273,0.933-2.876,1.558-4.809
		c0.625-1.932,1.385-4.283,2.279-7.054c0.044-0.134,0.155-0.251,0.335-0.352c0.179-0.101,0.374-0.151,0.586-0.151
		s0.407,0.073,0.587,0.218c0.179,0.146,0.302,0.397,0.368,0.754c0.224,2.056,0.43,4.228,0.62,6.518
		c0.189,2.29,0.396,4.63,0.62,7.021c0.223,2.391,0.479,4.808,0.771,7.254c0.29,2.446,0.647,4.854,1.072,7.222
		c-0.045,0.313-0.146,0.53-0.302,0.653s-0.347,0.173-0.569,0.151c-0.224-0.022-0.464-0.096-0.721-0.218
		c-0.257-0.123-0.497-0.274-0.721-0.453L126.801,5.07z"/>
	<path d="M134.68,30.321c-0.188,0-0.379-0.032-0.57-0.097c-0.229-0.076-0.424-0.194-0.58-0.35l-0.06-0.137l-0.703-27.98l0.033-0.115
		c0.115-0.174,0.293-0.297,0.529-0.367c0.154-0.045,0.313-0.068,0.474-0.068c0.063,0,0.127,0.003,0.19,0.011
		c0.222,0.024,0.439,0.087,0.65,0.185c0.229,0.109,0.384,0.233,0.472,0.38l0.028,0.099l0.503,27.479
		c0,0.333-0.092,0.576-0.273,0.727c-0.167,0.139-0.369,0.217-0.601,0.23L134.68,30.321z"/>
	<path d="M132.967,1.753c0.089-0.134,0.229-0.229,0.419-0.285c0.189-0.055,0.385-0.072,0.586-0.05
		c0.201,0.022,0.396,0.079,0.587,0.167c0.189,0.09,0.318,0.19,0.385,0.302l0.503,27.479c0,0.268-0.067,0.458-0.201,0.569
		s-0.296,0.173-0.485,0.185c-0.19,0.011-0.386-0.017-0.587-0.084s-0.368-0.168-0.503-0.302L132.967,1.753z"/>
	<path d="M140.24,30.271c-0.114,0-0.231-0.014-0.348-0.041c-0.319-0.073-0.596-0.205-0.82-0.392
		c-0.113-0.095-0.263-0.242-0.253-0.431c0.003-0.054,0.021-0.124,0.076-0.192l-1.438-27.552l0.035-0.124
		c0.214-0.311,0.472-0.468,0.766-0.468c0.118,0,0.241,0.026,0.365,0.078c0.369,0.155,0.718,0.396,1.036,0.713
		c0.31,0.31,0.562,0.627,0.751,0.944c0.165,0.28,0.223,0.427,0.203,0.537l11.944,20.406c0.034-0.286,0.066-0.637,0.098-1.051
		c0.055-0.741,0.094-1.629,0.116-2.638c0.022-1.014,0.027-2.122,0.017-3.327c-0.012-1.205-0.033-2.41-0.066-3.615
		c-0.034-1.204-0.084-2.386-0.15-3.546c-0.067-1.159-0.146-2.201-0.234-3.126c-0.089-0.917-0.189-1.689-0.3-2.295
		c-0.141-0.769-0.281-0.96-0.335-1.006l-0.07-0.152c0-0.381,0.073-0.751,0.217-1.098c0.114-0.278,0.38-0.61,0.989-0.61
		c0.456,0,0.831,0.26,1.113,0.773c0.254,0.463,0.452,0.987,0.589,1.558c0.135,0.563,0.232,1.124,0.29,1.667
		c0.056,0.547,0.084,0.901,0.084,1.06c0.022,0.438,0.039,1.15,0.051,2.125l0.101,11.209c0.011,1.252,0.017,2.369,0.017,3.353
		c0,0.979,0.011,1.69,0.033,2.135c0.021,0.607,0.104,1.143,0.243,1.593c0.15,0.488,0.227,1.05,0.227,1.668
		c0,0.561-0.217,0.988-0.644,1.272c-0.399,0.267-0.848,0.402-1.333,0.402c-0.266,0-0.508-0.038-0.72-0.112
		c-0.229-0.081-0.414-0.218-0.549-0.407c-0.134-0.188-0.209-0.433-0.222-0.728c-0.012-0.256,0.031-0.556,0.129-0.917
		c-0.4-0.488-0.902-1.265-1.493-2.311c-0.627-1.107-1.314-2.36-2.063-3.758c-0.749-1.396-1.531-2.865-2.346-4.407
		c-0.816-1.541-1.597-2.998-2.345-4.371c-0.743-1.363-1.446-2.572-2.088-3.591c-0.482-0.764-0.897-1.35-1.239-1.748
		c-0.085,1.334-0.107,2.868-0.067,4.569c0.044,1.9,0.123,3.871,0.233,5.858c0.112,1.998,0.229,3.947,0.353,5.846
		c0.122,1.898,0.185,3.594,0.185,5.039c0,0.553-0.175,0.913-0.519,1.069C140.659,30.225,140.451,30.271,140.24,30.271z"/>
	<path d="M137.658,1.652c0.246-0.357,0.542-0.463,0.889-0.318c0.346,0.146,0.67,0.369,0.972,0.67
		c0.302,0.302,0.541,0.604,0.721,0.905c0.178,0.302,0.223,0.441,0.134,0.419l12.298,21.01c0.067-0.335,0.129-0.876,0.185-1.625
		c0.056-0.748,0.095-1.63,0.117-2.647c0.022-1.016,0.027-2.127,0.017-3.334c-0.012-1.206-0.033-2.413-0.066-3.619
		c-0.034-1.207-0.084-2.391-0.151-3.552c-0.067-1.161-0.146-2.206-0.234-3.133c-0.09-0.927-0.19-1.697-0.302-2.312
		c-0.112-0.614-0.246-0.989-0.402-1.123c0-0.357,0.067-0.698,0.201-1.022s0.402-0.486,0.805-0.486c0.379,0,0.692,0.223,0.938,0.67
		c0.245,0.447,0.436,0.95,0.569,1.508c0.134,0.559,0.229,1.106,0.285,1.642c0.055,0.536,0.083,0.883,0.083,1.039
		c0.022,0.447,0.039,1.156,0.051,2.128c0.011,0.972,0.021,2.083,0.033,3.334c0.011,1.251,0.022,2.563,0.033,3.938
		c0.012,1.374,0.022,2.687,0.034,3.938c0.011,1.251,0.017,2.368,0.017,3.351c0,0.983,0.011,1.698,0.033,2.145
		c0.022,0.626,0.106,1.173,0.252,1.643c0.145,0.469,0.218,1.005,0.218,1.608c0,0.491-0.185,0.86-0.554,1.105
		c-0.368,0.246-0.776,0.369-1.223,0.369c-0.246,0-0.464-0.034-0.653-0.101c-0.19-0.067-0.341-0.179-0.452-0.335
		c-0.112-0.156-0.174-0.363-0.185-0.62c-0.012-0.257,0.039-0.575,0.15-0.955c-0.401-0.47-0.916-1.257-1.541-2.362
		c-0.626-1.106-1.313-2.357-2.061-3.754c-0.749-1.396-1.531-2.864-2.346-4.406c-0.816-1.542-1.598-2.999-2.346-4.373
		c-0.749-1.374-1.447-2.574-2.095-3.602c-0.648-1.027-1.173-1.731-1.575-2.111c-0.112,1.453-0.146,3.133-0.101,5.043
		s0.123,3.865,0.234,5.864c0.112,1.999,0.229,3.949,0.353,5.848c0.122,1.898,0.184,3.574,0.184,5.026
		c0,0.469-0.134,0.766-0.401,0.888c-0.269,0.123-0.548,0.151-0.838,0.084c-0.291-0.067-0.536-0.185-0.737-0.352
		c-0.201-0.168-0.234-0.296-0.101-0.386L137.658,1.652z"/>
	<path d="M169.793,29.82c-0.26,0-0.585-0.03-0.969-0.091l-0.165-0.159c-0.18-0.92-0.315-2.05-0.404-3.358
		c-0.091-1.312-0.158-2.746-0.202-4.264c-0.045-1.525-0.067-3.128-0.067-4.765c0-1.641-0.012-3.253-0.033-4.839
		c-0.022-1.585-0.051-3.087-0.084-4.505c-0.031-1.332-0.099-2.54-0.201-3.596c-0.451-0.051-0.906-0.078-1.355-0.078
		c-0.352,0-0.704,0.016-1.057,0.047c-0.869,0.078-1.731,0.173-2.59,0.284c-0.86,0.112-1.727,0.218-2.6,0.319
		c-0.528,0.061-1.063,0.092-1.591,0.092c-0.354,0-0.708-0.014-1.062-0.041c-0.262-0.023-0.531-0.083-0.804-0.178
		c-0.244-0.084-0.521-0.312-0.451-0.916c0.025-0.284,0.167-0.571,0.419-0.849c0.243-0.268,0.509-0.403,0.791-0.403l9.986-0.591
		c0.025-0.098,0.061-0.216,0.104-0.355c0.073-0.228,0.169-0.448,0.285-0.658c0.12-0.217,0.269-0.409,0.439-0.568
		c0.174-0.161,0.373-0.242,0.595-0.242l0.1,0.006c0.332,0.025,0.605,0.141,0.808,0.342c0.178,0.178,0.328,0.372,0.449,0.576
		l0.304,0.522c0.087,0.153,0.167,0.166,0.193,0.17c3.549-0.003,7.278-0.07,11.053-0.204c0.001,0,0.258,0.006,0.551,0.017
		c0.305,0.012,0.517,0.031,0.634,0.054l0.149,0.129c0.168,0.474-0.015,0.876-0.516,1.133c-0.432,0.222-1.051,0.392-1.839,0.506
		c-0.773,0.112-1.665,0.192-2.65,0.236c-0.984,0.045-1.963,0.079-2.936,0.101c-0.97,0.022-1.885,0.056-2.742,0.101
		c-0.767,0.04-1.392,0.099-1.862,0.174c-0.163,1.108-0.256,2.313-0.277,3.583c-0.022,1.324-0.017,2.719,0.017,4.147
		c0.034,1.447,0.097,2.91,0.184,4.349c0.089,1.474,0.173,2.927,0.251,4.358c0.079,1.434,0.13,2.835,0.152,4.163
		c0.021,1.344-0.013,2.612-0.102,3.771c0.097,0.478,0.173,1.204-0.311,1.394C170.239,29.793,170.045,29.82,169.793,29.82z"/>
	<path d="M167.851,4.065c-0.871-0.111-1.742-0.128-2.613-0.05c-0.872,0.079-1.737,0.173-2.598,0.285
		c-0.86,0.112-1.726,0.218-2.597,0.318s-1.742,0.118-2.614,0.05c-0.246-0.022-0.497-0.078-0.754-0.167
		c-0.257-0.089-0.362-0.324-0.318-0.704c0.022-0.246,0.146-0.491,0.369-0.737c0.223-0.246,0.457-0.357,0.703-0.335l10.087-0.603
		c0.021-0.112,0.067-0.273,0.134-0.486c0.067-0.212,0.156-0.418,0.269-0.62c0.111-0.201,0.245-0.374,0.401-0.52
		c0.156-0.145,0.336-0.206,0.536-0.184c0.29,0.022,0.52,0.117,0.688,0.285c0.167,0.167,0.307,0.347,0.419,0.536
		c0.111,0.19,0.212,0.363,0.302,0.52c0.089,0.156,0.201,0.246,0.335,0.268c3.597,0,7.293-0.067,11.092-0.201
		c0.066,0,0.245,0.006,0.536,0.017c0.29,0.012,0.491,0.028,0.603,0.05c0.135,0.38-0.005,0.676-0.418,0.888
		c-0.414,0.212-1.006,0.375-1.776,0.486c-0.771,0.112-1.647,0.19-2.631,0.234c-0.983,0.045-1.96,0.079-2.932,0.101
		c-0.972,0.022-1.889,0.056-2.748,0.101c-0.86,0.045-1.536,0.112-2.027,0.201c-0.179,1.162-0.279,2.413-0.302,3.753
		s-0.017,2.726,0.017,4.155c0.034,1.43,0.095,2.882,0.185,4.356c0.089,1.474,0.173,2.927,0.251,4.356s0.129,2.814,0.151,4.155
		c0.021,1.34-0.012,2.592-0.101,3.753c0.134,0.715,0.072,1.122-0.185,1.223s-0.743,0.096-1.458-0.017
		c-0.179-0.916-0.313-2.027-0.401-3.334c-0.09-1.307-0.157-2.726-0.201-4.256c-0.045-1.53-0.067-3.116-0.067-4.759
		c0-1.642-0.012-3.255-0.033-4.842c-0.022-1.586-0.051-3.088-0.084-4.507C168.035,6.417,167.962,5.16,167.851,4.065z"/>
	<path d="M190.252,30.235c-0.457,0-0.72-0.257-0.72-0.703l3.264-10.951L182.503,5.057l-0.041-0.121c0-0.253,0.1-0.608,0.574-0.863
		c0.341-0.182,0.654-0.275,0.933-0.275l0.154,0.074l9.613,11.745c0.088-0.213,0.205-0.513,0.35-0.898
		c0.234-0.624,0.508-1.372,0.819-2.242c0.313-0.871,0.647-1.825,1.005-2.863c0.356-1.037,0.696-2.068,1.021-3.094
		c0.323-1.025,0.606-1.988,0.852-2.891c0.244-0.895,0.423-1.661,0.532-2.278l0.056-0.106c0.16-0.16,0.341-0.241,0.537-0.241
		c0.056,0,0.113,0.007,0.17,0.02c0.221,0.052,0.427,0.156,0.615,0.307c0.184,0.146,0.34,0.328,0.466,0.54
		c0.132,0.225,0.196,0.417,0.196,0.588c-0.793,2.409-1.452,4.396-1.987,6.027c-0.536,1.63-0.983,3.009-1.34,4.136
		c-0.358,1.128-0.642,2.038-0.854,2.729c-0.212,0.689-0.379,1.268-0.501,1.735c-0.123,0.47-0.229,0.868-0.319,1.191l-0.285,1.023
		c-0.101,0.358-0.224,0.784-0.369,1.276c-0.146,0.493-0.354,1.143-0.622,1.95c-0.269,0.805-0.614,1.816-1.04,3.035
		c-0.425,1.217-0.949,2.73-1.574,4.54l-0.189,0.135H190.252z"/>
	<path d="M193.017,18.541L182.662,4.936c0-0.29,0.156-0.519,0.469-0.687c0.313-0.167,0.592-0.251,0.838-0.251l9.818,11.997
		c0.089-0.179,0.251-0.581,0.486-1.207c0.234-0.625,0.508-1.374,0.82-2.245s0.647-1.826,1.006-2.865
		c0.356-1.039,0.697-2.072,1.021-3.1c0.324-1.027,0.608-1.994,0.854-2.898s0.425-1.67,0.536-2.295
		c0.156-0.156,0.33-0.212,0.52-0.167s0.369,0.134,0.536,0.268c0.168,0.134,0.307,0.296,0.419,0.486
		c0.111,0.19,0.168,0.352,0.168,0.486c-0.782,2.346-1.441,4.334-1.978,5.965s-0.983,3.01-1.34,4.138
		c-0.358,1.128-0.643,2.039-0.854,2.731c-0.213,0.693-0.381,1.273-0.503,1.743c-0.123,0.469-0.229,0.866-0.318,1.189
		c-0.09,0.324-0.185,0.665-0.285,1.022s-0.224,0.782-0.368,1.273c-0.146,0.491-0.353,1.139-0.62,1.943
		c-0.269,0.804-0.614,1.815-1.039,3.032c-0.425,1.218-0.949,2.731-1.575,4.541c-0.335,0-0.676,0-1.021,0
		c-0.347,0-0.52-0.168-0.52-0.503L193.017,18.541z"/>
</g>
</svg>
