<?xml version="1.0" encoding="utf-8"?>
<!-- Generator: Adobe Illustrator 16.0.0, SVG Export Plug-In . SVG Version: 6.00 Build 0)  -->
<!DOCTYPE svg PUBLIC "-//W3C//DTD SVG 1.0//EN" "http://www.w3.org/TR/2001/REC-SVG-20010904/DTD/svg10.dtd">
<svg version="1.0" id="Layer_1" xmlns="http://www.w3.org/2000/svg" xmlns:xlink="http://www.w3.org/1999/xlink" x="0px" y="0px"
	 width="157px" height="33px" viewBox="0 0 157 33" enable-background="new 0 0 157 33" xml:space="preserve">
<g>
	<path d="M2.755,31.369c-0.187,0-0.378-0.032-0.57-0.097c-0.23-0.077-0.425-0.194-0.581-0.35l-0.059-0.137L0.841,2.761l0.033-0.116
		c0.115-0.173,0.293-0.296,0.529-0.366c0.154-0.045,0.313-0.068,0.474-0.068c0.063,0,0.127,0.003,0.192,0.011
		C2.291,2.247,2.51,2.309,2.72,2.407c0.229,0.108,0.383,0.232,0.472,0.38l0.029,0.1l0.503,27.521c0,0.334-0.092,0.578-0.274,0.729
		c-0.167,0.138-0.369,0.216-0.602,0.229L2.755,31.369z"/>
	<path d="M1.041,2.756C1.129,2.622,1.27,2.527,1.46,2.471c0.19-0.056,0.386-0.072,0.587-0.05c0.201,0.022,0.397,0.079,0.587,0.168
		c0.19,0.089,0.319,0.19,0.386,0.302l0.503,27.522c0,0.269-0.067,0.459-0.201,0.57s-0.297,0.173-0.487,0.185
		c-0.19,0.011-0.386-0.017-0.587-0.084c-0.201-0.067-0.369-0.168-0.503-0.302L1.041,2.756z"/>
	<path d="M28.208,31.786c-0.247-0.024-0.512-0.104-0.789-0.237c-0.27-0.129-0.525-0.29-0.76-0.478l-0.074-0.139L24.458,6.722
		c-0.026,0.074-0.054,0.159-0.084,0.256c-0.19,0.604-0.431,1.386-0.721,2.347c-0.291,0.962-0.609,2.046-0.956,3.253
		c-0.347,1.206-0.72,2.417-1.11,3.599c-0.392,1.188-0.794,2.309-1.195,3.333c-0.406,1.038-0.813,1.874-1.21,2.485
		c-0.428,0.661-0.834,1.014-1.244,1.079l-0.104,0.009c-0.415,0-0.766-0.39-1.072-1.191c-0.341-0.502-0.752-1.256-1.202-2.201
		c-0.448-0.94-0.924-1.959-1.428-3.056c-0.503-1.096-1.029-2.232-1.577-3.406c-0.545-1.167-1.102-2.264-1.655-3.26
		c-0.554-0.996-1.103-1.876-1.632-2.616c-0.407-0.568-0.803-1.002-1.18-1.296c0.014,1.632,0.114,3.426,0.3,5.339
		c0.201,2.08,0.419,4.188,0.654,6.325c0.235,2.138,0.454,4.246,0.655,6.328C9.898,26.125,10,28.074,10,29.842
		c0.118,0.19,0.125,0.474-0.001,0.753C9.881,30.858,9.7,31.059,9.46,31.19c-0.154,0.087-0.328,0.131-0.513,0.131
		c-0.107,0-0.221-0.016-0.337-0.044c-0.317-0.08-0.605-0.312-0.856-0.687c-0.344-2.314-0.57-4.623-0.705-6.947l-0.403-7.015
		c-0.132-2.316-0.296-4.674-0.486-7.009C5.972,7.313,5.685,5.004,5.307,2.756C5.278,2.202,5.385,1.869,5.633,1.714
		c0.211-0.131,0.473-0.198,0.778-0.198C7.5,1.823,8.442,2.375,9.267,3.166c0.813,0.779,1.563,1.706,2.229,2.755
		c0.662,1.044,1.276,2.199,1.826,3.433c0.548,1.231,1.091,2.457,1.628,3.676c0.532,1.208,1.073,2.38,1.608,3.483
		c0.505,1.043,1.068,1.96,1.672,2.729c0.011-0.008,0.023-0.018,0.036-0.03c0.021-0.021,0.103-0.124,0.274-0.569
		c0.134-0.345,0.323-0.874,0.568-1.587c0.245-0.714,0.575-1.709,0.988-2.983l3.843-11.881c0.061-0.184,0.205-0.339,0.428-0.465
		c0.207-0.117,0.438-0.177,0.685-0.177c0.258,0,0.498,0.088,0.713,0.263c0.217,0.177,0.364,0.471,0.44,0.874
		c0.225,2.066,0.434,4.264,0.624,6.548c0.189,2.293,0.397,4.636,0.621,7.029c0.222,2.381,0.482,4.824,0.771,7.262
		c0.288,2.433,0.649,4.862,1.072,7.222c-0.052,0.429-0.178,0.691-0.375,0.847c-0.168,0.132-0.369,0.199-0.595,0.199L28.208,31.786z"
		/>
	<path d="M24.602,6.079c-0.09-0.044-0.229,0.235-0.419,0.839c-0.19,0.604-0.431,1.388-0.722,2.349
		c-0.291,0.962-0.61,2.047-0.957,3.256c-0.347,1.208-0.716,2.405-1.107,3.591c-0.392,1.187-0.789,2.294-1.191,3.322
		c-0.403,1.029-0.8,1.847-1.192,2.45c-0.392,0.604-0.761,0.935-1.107,0.99c-0.347,0.057-0.666-0.296-0.957-1.057
		c-0.358-0.537-0.761-1.275-1.208-2.216c-0.448-0.939-0.923-1.957-1.427-3.054c-0.503-1.096-1.029-2.232-1.577-3.407
		c-0.549-1.175-1.103-2.266-1.662-3.272c-0.56-1.007-1.107-1.885-1.645-2.635c-0.537-0.75-1.052-1.27-1.544-1.561
		c0,1.745,0.101,3.658,0.302,5.739c0.201,2.081,0.419,4.19,0.654,6.327s0.453,4.245,0.654,6.326C9.7,26.149,9.8,28.074,9.8,29.842
		c0.112,0.224,0.118,0.447,0.017,0.671c-0.101,0.224-0.251,0.392-0.453,0.503c-0.201,0.112-0.436,0.135-0.705,0.067
		s-0.515-0.269-0.738-0.604c-0.313-2.237-0.537-4.52-0.671-6.848c-0.134-2.326-0.269-4.665-0.403-7.015
		C6.712,14.268,6.55,11.93,6.36,9.603c-0.19-2.327-0.476-4.62-0.856-6.88C5.482,2.275,5.56,1.996,5.739,1.883
		c0.179-0.111,0.403-0.167,0.671-0.167C7.417,2.007,8.324,2.538,9.129,3.31c0.806,0.772,1.538,1.678,2.199,2.718
		c0.66,1.041,1.264,2.176,1.812,3.407c0.548,1.231,1.091,2.456,1.628,3.675c0.537,1.22,1.074,2.383,1.611,3.49
		c0.537,1.107,1.129,2.064,1.779,2.87c0.089,0,0.173-0.039,0.251-0.118c0.078-0.078,0.185-0.29,0.319-0.638
		c0.134-0.347,0.324-0.878,0.571-1.594c0.246-0.716,0.576-1.712,0.99-2.987s0.934-2.88,1.561-4.816
		c0.626-1.936,1.387-4.291,2.282-7.065c0.044-0.134,0.156-0.251,0.335-0.352c0.179-0.101,0.375-0.151,0.587-0.151
		c0.212,0,0.408,0.073,0.587,0.218c0.179,0.146,0.302,0.397,0.369,0.755c0.224,2.059,0.431,4.234,0.621,6.528
		c0.189,2.294,0.397,4.638,0.621,7.031c0.224,2.396,0.481,4.817,0.772,7.267c0.291,2.45,0.649,4.862,1.074,7.233
		c-0.045,0.313-0.146,0.531-0.302,0.654c-0.157,0.123-0.347,0.173-0.57,0.151c-0.224-0.022-0.465-0.096-0.722-0.219
		c-0.258-0.123-0.499-0.274-0.722-0.453L24.602,6.079z"/>
	<path d="M33.417,31.064c-0.221-0.012-0.445-0.062-0.666-0.147c-0.237-0.092-0.407-0.206-0.52-0.347l-0.043-0.125
		c0-2.3,0.04-4.516,0.118-6.586c0.078-2.081,0.151-4.071,0.218-5.974c0.067-1.9,0.111-3.728,0.134-5.483
		c0.021-1.61-0.026-3.194-0.138-4.717c-0.022,0.023-0.506,0.543-0.506,0.543c-0.153,0.165-0.312,0.312-0.476,0.44
		c-0.195,0.153-0.367,0.228-0.526,0.228c-0.234,0-0.445-0.093-0.628-0.277c-0.183-0.182-0.276-0.417-0.276-0.695V7.824
		c0-0.056,0.018-0.116,0.055-0.19c0.215-0.271,0.45-0.654,0.723-1.178c0.282-0.541,0.585-1.082,0.912-1.623
		c0.324-0.536,0.644-1.021,0.95-1.44c0.345-0.474,0.656-0.704,0.95-0.704c0.277,0,0.494,0.076,0.645,0.227
		c0.126,0.126,0.234,0.279,0.323,0.455c0.08,0.16,0.159,0.331,0.239,0.513c0.048,0.109,0.118,0.202,0.214,0.279
		c0.735-0.423,1.544-0.796,2.404-1.108c0.903-0.327,1.827-0.557,2.744-0.682c0.561-0.076,1.118-0.114,1.657-0.114
		c0.345,0,0.686,0.016,1.022,0.046c0.871,0.081,1.679,0.296,2.4,0.64c0.729,0.347,1.357,0.852,1.867,1.5
		c0.511,0.65,0.852,1.471,1.014,2.44c-0.021,1.3-0.393,2.498-1.104,3.599c-0.702,1.086-1.572,2.088-2.587,2.979
		c-1.011,0.888-2.117,1.686-3.286,2.372c-1.164,0.683-2.251,1.283-3.232,1.784c-0.987,0.506-1.795,0.904-2.423,1.196
		c-0.515,0.238-0.696,0.354-0.759,0.401L34.4,30.386c0,0.245-0.123,0.446-0.345,0.558c-0.165,0.082-0.35,0.124-0.55,0.124
		L33.417,31.064z M34.837,16.53c1.042-0.395,2.143-0.855,3.274-1.37c1.215-0.552,2.368-1.196,3.428-1.914
		c1.054-0.713,1.996-1.538,2.798-2.45c0.791-0.899,1.335-1.948,1.617-3.12c-0.174-1.138-0.648-2.024-1.414-2.558
		c-0.779-0.544-1.724-0.826-2.808-0.836l-0.076-0.201v0.2c-1.078,0-2.236,0.233-3.442,0.692c-1.21,0.46-2.346,1.102-3.378,1.907
		V16.53z"/>
	<path d="M32.388,30.445c0-2.304,0.039-4.497,0.118-6.578c0.078-2.081,0.151-4.072,0.218-5.975c0.067-1.901,0.111-3.73,0.134-5.487
		c0.022-1.756-0.034-3.462-0.168-5.118c-0.112,0.067-0.241,0.179-0.386,0.335c-0.146,0.157-0.291,0.314-0.436,0.47
		c-0.146,0.157-0.297,0.297-0.453,0.419c-0.157,0.123-0.291,0.185-0.403,0.185c-0.179,0-0.341-0.072-0.487-0.218
		c-0.146-0.145-0.218-0.33-0.218-0.554V7.824c0-0.022,0.011-0.056,0.033-0.101c0.202-0.246,0.442-0.638,0.722-1.175
		s0.582-1.074,0.906-1.611c0.324-0.537,0.638-1.012,0.94-1.426c0.302-0.414,0.564-0.621,0.789-0.621
		c0.223,0,0.391,0.056,0.503,0.168c0.112,0.112,0.207,0.247,0.285,0.403c0.078,0.157,0.156,0.325,0.235,0.503
		c0.078,0.179,0.207,0.325,0.386,0.437c0.76-0.448,1.588-0.833,2.483-1.158c0.895-0.324,1.796-0.548,2.702-0.671
		c0.906-0.123,1.784-0.145,2.635-0.067c0.85,0.079,1.627,0.285,2.333,0.621c0.705,0.335,1.303,0.817,1.795,1.443
		c0.492,0.627,0.816,1.41,0.974,2.35c-0.023,1.231-0.381,2.383-1.074,3.457c-0.694,1.074-1.544,2.053-2.551,2.937
		c-1.007,0.884-2.092,1.667-3.255,2.35c-1.164,0.683-2.238,1.275-3.222,1.778c-0.985,0.504-1.791,0.901-2.417,1.192
		c-0.627,0.291-0.918,0.47-0.873,0.536l-0.437,11.21c0,0.18-0.079,0.309-0.235,0.387c-0.157,0.078-0.336,0.112-0.537,0.101
		c-0.201-0.011-0.403-0.056-0.604-0.135C32.623,30.652,32.478,30.558,32.388,30.445z M34.637,16.818
		c1.141-0.424,2.327-0.917,3.558-1.476c1.23-0.559,2.383-1.203,3.457-1.93c1.074-0.727,2.019-1.555,2.836-2.483
		c0.816-0.928,1.37-1.997,1.661-3.205c-0.179-1.275-0.677-2.199-1.493-2.769c-0.817-0.571-1.791-0.861-2.92-0.873
		s-2.327,0.224-3.591,0.705c-1.265,0.481-2.434,1.147-3.507,1.997V16.818z"/>
	<path d="M51.458,31.113c-0.333-0.047-0.609-0.127-0.821-0.239c-0.212-0.112-0.444-0.307-0.708-0.596l-0.053-0.135
		c0-2.146,0.04-4.36,0.118-6.585c0.078-2.229,0.111-4.501,0.1-6.755c-0.011-2.253-0.106-4.524-0.284-6.749
		c-0.178-2.216-0.515-4.419-1.002-6.55c-0.005-0.192,0.046-0.36,0.153-0.559c0.097-0.182,0.221-0.351,0.37-0.5
		c0.15-0.149,0.321-0.27,0.51-0.358c0.118-0.055,0.239-0.082,0.361-0.082c0.104,0,0.209,0.02,0.313,0.059
		c0.335,0.129,0.611,0.378,0.824,0.741c0.2,0.341,0.354,0.713,0.458,1.107c0.104,0.392,0.173,0.77,0.207,1.123
		c0.02,0.207,0.034,0.38,0.042,0.521l12.683-3.162c0.345,0.055,0.55,0.203,0.703,0.438c0.146,0.226,0.213,0.479,0.2,0.756
		c-0.014,0.271-0.104,0.536-0.268,0.788c-0.171,0.263-0.428,0.449-0.763,0.552L52.021,8.346c0.002,1.402,0.042,2.803,0.117,4.166
		c0.073,1.347,0.162,2.713,0.266,4.099l9.084-3.17c0.211-0.239,0.455-0.428,0.669-0.529c0.179-0.084,0.369-0.126,0.564-0.126
		c0.048,0,0.097,0.002,0.146,0.008c0.279,0.029,0.53,0.224,0.769,0.594l0.032,0.108c0,0.516-0.3,0.983-0.892,1.39
		c-0.546,0.375-1.232,0.727-2.037,1.045c-0.798,0.315-1.673,0.616-2.6,0.895c-0.922,0.277-1.788,0.564-2.573,0.852
		c-0.784,0.287-1.446,0.582-1.967,0.876c-0.467,0.263-0.704,0.525-0.704,0.782l-0.232,8.708c0.198,0.091,0.452,0.137,0.756,0.137
		c0.147,0,0.306-0.011,0.476-0.031c0.627-0.077,1.334-0.228,2.101-0.447c0.783-0.224,1.614-0.499,2.469-0.817
		c0.874-0.324,1.713-0.632,2.519-0.924c0.808-0.29,1.553-0.549,2.237-0.773c0.696-0.228,1.273-0.355,1.713-0.379
		c0.271,0.028,0.485,0.115,0.671,0.261c0.184,0.145,0.317,0.313,0.396,0.499c0.086,0.201,0.094,0.412,0.022,0.627
		c-0.075,0.223-0.263,0.404-0.561,0.539c-0.867,0.378-1.931,0.809-3.166,1.279c-1.23,0.471-2.515,0.929-3.818,1.362
		c-1.308,0.437-2.594,0.822-3.821,1.146c-1.24,0.327-2.302,0.526-3.157,0.593L51.458,31.113z"/>
	<path d="M50.076,30.144c0-2.148,0.039-4.341,0.118-6.578c0.078-2.237,0.112-4.492,0.101-6.763
		c-0.011-2.271-0.106-4.526-0.285-6.764c-0.179-2.237-0.515-4.43-1.007-6.578c0-0.112,0.044-0.252,0.134-0.419
		c0.089-0.168,0.201-0.319,0.335-0.453s0.285-0.24,0.453-0.319c0.168-0.078,0.341-0.084,0.52-0.017
		c0.291,0.112,0.531,0.331,0.722,0.655c0.19,0.325,0.336,0.677,0.437,1.057c0.101,0.381,0.168,0.744,0.201,1.091
		c0.034,0.347,0.05,0.599,0.05,0.755l12.922-3.222c0.202,0.045,0.363,0.163,0.487,0.353c0.123,0.19,0.179,0.402,0.168,0.638
		c-0.012,0.235-0.09,0.464-0.235,0.688s-0.364,0.38-0.654,0.47l-12.72,3.457c0,1.455,0.039,2.898,0.117,4.33
		c0.078,1.432,0.173,2.886,0.286,4.363l9.33-3.255c0.269-0.269,0.498-0.447,0.688-0.537c0.189-0.089,0.391-0.123,0.604-0.101
		c0.212,0.022,0.419,0.19,0.621,0.503c0,0.448-0.268,0.856-0.805,1.225s-1.203,0.71-1.997,1.024c-0.794,0.313-1.656,0.61-2.584,0.89
		c-0.929,0.279-1.791,0.564-2.584,0.855c-0.794,0.291-1.46,0.587-1.997,0.89c-0.537,0.302-0.806,0.621-0.806,0.956l-0.235,8.827
		c0.335,0.201,0.822,0.264,1.46,0.185c0.638-0.078,1.348-0.229,2.131-0.453c0.783-0.224,1.611-0.497,2.483-0.822
		c0.873-0.324,1.712-0.632,2.517-0.923c0.806-0.29,1.549-0.548,2.232-0.771s1.236-0.347,1.662-0.369
		c0.201,0.022,0.38,0.095,0.537,0.218c0.156,0.123,0.269,0.263,0.335,0.42c0.067,0.156,0.072,0.318,0.017,0.486
		c-0.056,0.168-0.207,0.308-0.453,0.419c-0.873,0.381-1.924,0.806-3.155,1.275c-1.231,0.471-2.5,0.924-3.81,1.359
		c-1.309,0.437-2.579,0.817-3.809,1.142c-1.231,0.324-2.271,0.521-3.122,0.587c-0.313-0.044-0.565-0.117-0.755-0.218
		C50.54,30.597,50.322,30.412,50.076,30.144z"/>
	<path d="M68.431,31.582c-0.159-0.033-0.297-0.116-0.414-0.248c-0.098-0.111-0.183-0.228-0.256-0.35l-0.029-0.101L67.463,2.792
		c0.104-0.286,0.281-0.445,0.542-0.555c0.237-0.1,0.489-0.15,0.749-0.15c0.274,0,0.521,0.074,0.733,0.22
		c0.225,0.155,0.366,0.397,0.42,0.719l0.178,1.632c0.362-0.098,0.781-0.261,1.249-0.487c0.587-0.282,1.278-0.562,2.052-0.831
		c0.778-0.27,1.664-0.499,2.63-0.679c0.56-0.104,1.164-0.157,1.796-0.157c0.472,0,0.972,0.029,1.485,0.087
		c1.864,0.363,3.229,0.801,4.073,1.302c0.882,0.525,1.36,1.124,1.423,1.781c0.061,0.645-0.203,1.337-0.782,2.058
		c-0.556,0.692-1.307,1.397-2.233,2.098c-0.922,0.697-1.966,1.412-3.102,2.125c-1.142,0.717-2.256,1.405-3.342,2.065
		c-1.084,0.659-2.09,1.286-3.018,1.877c-0.798,0.51-1.43,0.987-1.883,1.421l15.522,9.331l0.097,0.172
		c0,0.407-0.164,0.797-0.488,1.158c-0.294,0.327-0.637,0.493-1.019,0.493c-0.053,0-0.106-0.003-0.16-0.01L69.81,20.085v10.797
		l-0.072,0.153c-0.29,0.241-0.534,0.396-0.749,0.472c-0.166,0.059-0.306,0.087-0.43,0.087L68.431,31.582z M70.105,7.499
		c-0.042,0.433-0.073,0.946-0.094,1.541c-0.022,0.625-0.033,1.288-0.033,1.99v3.526c0.165-0.099,0.406-0.232,0.766-0.416
		c0.592-0.301,1.313-0.675,2.163-1.123c0.849-0.447,1.759-0.944,2.73-1.491c0.971-0.547,1.898-1.115,2.756-1.687
		c0.858-0.572,1.625-1.148,2.279-1.713c0.632-0.547,1.042-1.057,1.22-1.515c0.163-0.42,0.081-0.774-0.257-1.112
		c-0.361-0.36-1.133-0.652-2.295-0.868c-0.195-0.012-0.427-0.019-0.671-0.019c-0.492,0-1.043,0.03-1.639,0.089
		c-0.892,0.088-1.796,0.25-2.688,0.48c-0.888,0.231-1.727,0.547-2.493,0.941C71.117,6.499,70.53,6.962,70.105,7.499z"/>
	<path d="M67.663,2.79C67.73,2.633,67.87,2.51,68.083,2.42c0.212-0.089,0.436-0.134,0.671-0.134c0.235,0,0.441,0.062,0.621,0.185
		c0.179,0.124,0.291,0.319,0.336,0.587l0.201,1.846c0.425-0.089,0.928-0.274,1.51-0.554c0.582-0.279,1.259-0.554,2.031-0.822
		c0.772-0.268,1.639-0.492,2.601-0.671c0.962-0.179,2.036-0.202,3.222-0.067c1.834,0.358,3.166,0.784,3.994,1.275
		c0.828,0.493,1.27,1.035,1.326,1.628c0.056,0.593-0.19,1.231-0.738,1.913c-0.548,0.683-1.281,1.371-2.198,2.064
		c-0.918,0.694-1.947,1.399-3.088,2.115c-1.141,0.716-2.254,1.404-3.339,2.064c-1.085,0.66-2.093,1.287-3.021,1.879
		c-0.929,0.593-1.627,1.136-2.098,1.628l15.741,9.464c0,0.358-0.146,0.7-0.437,1.024c-0.291,0.324-0.626,0.464-1.007,0.419
		l-14.801-8.524v11.143c-0.269,0.224-0.498,0.369-0.688,0.437c-0.19,0.067-0.341,0.089-0.453,0.067
		c-0.112-0.023-0.213-0.084-0.302-0.185c-0.09-0.102-0.168-0.208-0.235-0.319L67.663,2.79z M69.912,7.421
		c-0.045,0.448-0.079,0.985-0.101,1.611c-0.022,0.627-0.034,1.292-0.034,1.997c0,0.705,0,1.399,0,2.081c0,0.683,0,1.292,0,1.829
		c0.112-0.112,0.464-0.319,1.057-0.621c0.593-0.302,1.314-0.676,2.165-1.124c0.85-0.447,1.762-0.945,2.735-1.494
		c0.973-0.548,1.896-1.113,2.769-1.695c0.873-0.582,1.639-1.158,2.299-1.729c0.66-0.571,1.085-1.102,1.275-1.594
		c0.19-0.492,0.089-0.934-0.302-1.326c-0.392-0.392-1.192-0.699-2.4-0.923c-0.671-0.044-1.46-0.022-2.366,0.067
		s-1.813,0.251-2.719,0.486c-0.906,0.235-1.751,0.554-2.534,0.957C70.974,6.347,70.359,6.84,69.912,7.421z"/>
	<path d="M88.71,31.369c-0.187,0-0.378-0.032-0.57-0.097c-0.23-0.077-0.425-0.194-0.581-0.35L87.5,30.786L86.795,2.761l0.033-0.116
		c0.115-0.173,0.293-0.296,0.529-0.366c0.154-0.045,0.313-0.068,0.474-0.068c0.063,0,0.127,0.003,0.192,0.011
		c0.222,0.025,0.441,0.087,0.651,0.186c0.229,0.108,0.383,0.232,0.472,0.38l0.029,0.1l0.503,27.521c0,0.334-0.092,0.578-0.274,0.729
		c-0.167,0.138-0.369,0.216-0.602,0.229L88.71,31.369z"/>
	<path d="M86.995,2.756c0.089-0.134,0.229-0.229,0.419-0.285c0.19-0.056,0.386-0.072,0.587-0.05
		c0.201,0.022,0.397,0.079,0.587,0.168c0.19,0.089,0.319,0.19,0.386,0.302l0.503,27.522c0,0.269-0.067,0.459-0.201,0.57
		s-0.297,0.173-0.487,0.185c-0.19,0.011-0.386-0.017-0.587-0.084c-0.201-0.067-0.369-0.168-0.503-0.302L86.995,2.756z"/>
	<path d="M92.263,32.005c-0.112,0-0.222-0.021-0.327-0.065c-0.348-0.145-0.778-0.44-1.314-0.906l-0.06-0.209
		c0.156-0.515,0.408-1.363,0.755-2.55c0.344-1.175,0.8-2.884,1.357-5.077c0.559-2.203,1.247-5.005,2.063-8.405
		c0.812-3.38,1.776-7.603,2.869-12.549c0.184-0.326,0.413-0.507,0.706-0.601c0.191-0.061,0.385-0.092,0.577-0.092
		c0.083,0,0.166,0.006,0.249,0.017c0.277,0.038,0.517,0.129,0.712,0.271c0.254,0.187,0.31,0.393,0.304,0.55l6.525,15.864
		l3.249-0.987c0.018,0,0.034-0.001,0.05-0.001c0.368,0,0.644,0.093,0.87,0.269c0.244,0.191,0.383,0.429,0.412,0.708
		c0.026,0.274-0.065,0.563-0.271,0.856c-0.203,0.292-0.553,0.526-1.037,0.695c-0.181,0.068-0.421,0.144-0.72,0.224
		c-0.293,0.078-0.587,0.151-0.88,0.22c-0.283,0.065-0.523,0.13-0.72,0.195c-0.063,0.021-0.106,0.039-0.135,0.054l3.683,9.822
		l-0.002,0.145c-0.042,0.106-0.085,0.238-0.127,0.397c-0.057,0.212-0.171,0.384-0.341,0.512c-0.137,0.102-0.316,0.153-0.536,0.153
		c-0.065,0-0.137-0.005-0.212-0.015c-0.301-0.038-0.7-0.206-1.22-0.514l-0.085-0.099l-3.793-9.699
		c-0.45,0.12-0.983,0.234-1.589,0.342c-0.696,0.123-1.424,0.247-2.185,0.369c-0.757,0.123-1.52,0.268-2.289,0.435
		c-0.759,0.165-1.466,0.371-2.103,0.612c-0.626,0.238-1.163,0.527-1.593,0.861c-0.411,0.318-0.65,0.689-0.731,1.136
		c-0.044,0.308-0.128,0.823-0.251,1.542c-0.123,0.716-0.241,1.431-0.352,2.146c-0.135,0.852-0.292,1.771-0.471,2.757l-0.055,0.105
		C92.906,31.833,92.575,32.005,92.263,32.005z M95.898,20.612c0.341-0.104,0.761-0.215,1.255-0.329l2.182-0.505l2.367-0.537
		c0.702-0.158,1.356-0.327,1.947-0.505l-4.43-12.067L95.898,20.612z"/>
	<path d="M90.754,30.882c0.156-0.515,0.408-1.364,0.755-2.551c0.347-1.186,0.8-2.881,1.359-5.085
		c0.559-2.203,1.247-5.006,2.064-8.407c0.816-3.401,1.773-7.585,2.87-12.553c0.134-0.223,0.324-0.375,0.571-0.453
		c0.246-0.078,0.492-0.101,0.738-0.067c0.246,0.033,0.453,0.112,0.621,0.235c0.168,0.123,0.24,0.263,0.218,0.419l6.612,16.077
		l3.424-1.04c0.289,0,0.537,0.078,0.738,0.234c0.201,0.157,0.313,0.348,0.336,0.57c0.021,0.225-0.057,0.465-0.236,0.722
		c-0.18,0.258-0.492,0.465-0.939,0.621c-0.18,0.067-0.414,0.141-0.705,0.219s-0.582,0.15-0.873,0.218s-0.537,0.134-0.738,0.201
		s-0.301,0.135-0.301,0.201l3.725,9.935c-0.045,0.112-0.09,0.252-0.135,0.42s-0.133,0.302-0.268,0.403
		c-0.135,0.101-0.336,0.134-0.604,0.101c-0.27-0.034-0.65-0.196-1.143-0.487l-3.859-9.867c-0.469,0.134-1.051,0.264-1.744,0.386
		c-0.695,0.123-1.422,0.247-2.182,0.369c-0.761,0.123-1.527,0.269-2.299,0.437s-1.482,0.375-2.131,0.621s-1.197,0.543-1.645,0.89
		c-0.448,0.347-0.716,0.767-0.806,1.258c-0.045,0.314-0.129,0.828-0.251,1.544c-0.123,0.717-0.241,1.433-0.353,2.148
		c-0.134,0.851-0.291,1.768-0.47,2.752c-0.403,0.403-0.767,0.537-1.091,0.403C91.688,31.62,91.269,31.329,90.754,30.882z
		 M99.178,5.978l-3.558,14.936c0.38-0.135,0.906-0.28,1.578-0.437c0.671-0.156,1.398-0.324,2.182-0.504
		c0.783-0.179,1.571-0.357,2.366-0.537c0.794-0.179,1.516-0.369,2.164-0.57L99.178,5.978z"/>
	<path d="M113.711,31.082c-0.52,0-1.14-0.285-1.14-1.644c-0.067-4.785-0.146-8.81-0.235-11.959c-0.09-3.188-0.168-5.772-0.234-7.752
		c-0.067-1.979-0.123-3.443-0.168-4.394c-0.045-0.956-0.067-1.58-0.067-1.872c0-0.387,0.114-0.704,0.34-0.943
		c0.219-0.231,0.465-0.349,0.731-0.349c0.326,0.016,0.588,0.163,0.825,0.44c0.233,0.272,0.358,0.68,0.384,1.246l1.063,24.366
		l14.335-3.038c0.01,0,0.02,0,0.029,0c0.853,0,1.347,0.188,1.551,0.569c0.21,0.393,0.08,0.933-0.399,1.65l-0.124,0.084
		l-16.849,3.591L113.711,31.082z"/>
	<path d="M112.771,29.438c-0.067-4.788-0.146-8.776-0.235-11.965s-0.168-5.773-0.234-7.753c-0.067-1.98-0.123-3.445-0.168-4.396
		c-0.045-0.951-0.067-1.572-0.067-1.863c0-0.335,0.095-0.604,0.285-0.806c0.19-0.201,0.397-0.296,0.621-0.285
		c0.224,0.012,0.437,0.134,0.638,0.369s0.313,0.61,0.336,1.125l1.074,24.601l14.565-3.087c1.499,0,1.824,0.638,0.974,1.913
		l-16.849,3.591C113.084,30.882,112.771,30.401,112.771,29.438z"/>
	<path d="M134.222,31.369c-0.188,0-0.379-0.032-0.57-0.097c-0.229-0.076-0.425-0.193-0.581-0.35l-0.06-0.137l-0.705-28.025
		l0.034-0.116c0.116-0.173,0.295-0.296,0.529-0.366c0.153-0.045,0.313-0.068,0.474-0.068c0.063,0,0.127,0.003,0.191,0.011
		c0.223,0.024,0.441,0.087,0.651,0.186c0.229,0.108,0.383,0.232,0.472,0.379l0.029,0.1l0.504,27.521
		c0,0.334-0.093,0.578-0.275,0.729c-0.166,0.138-0.368,0.216-0.601,0.229L134.222,31.369z"/>
	<path d="M132.506,2.756c0.09-0.134,0.229-0.229,0.42-0.285c0.189-0.056,0.386-0.072,0.587-0.05
		c0.202,0.022,0.397,0.079,0.588,0.168c0.189,0.089,0.318,0.19,0.386,0.302l0.504,27.522c0,0.269-0.067,0.459-0.202,0.57
		c-0.134,0.111-0.296,0.173-0.486,0.185c-0.19,0.011-0.386-0.017-0.587-0.084c-0.202-0.067-0.369-0.168-0.504-0.302L132.506,2.756z"
		/>
	<path d="M140.455,31.082c-0.273,0-0.514-0.1-0.707-0.295c-0.209-0.208-0.261-0.532-0.153-0.961c0.03-0.182,0.225-0.361,1.089-0.646
		c0.616-0.201,1.384-0.441,2.303-0.723c0.916-0.279,1.933-0.603,3.051-0.971c1.105-0.365,2.188-0.786,3.219-1.252
		c1.021-0.461,1.954-0.98,2.771-1.543c0.798-0.55,1.387-1.165,1.75-1.827c-0.024-0.004-0.024-0.307-0.639-0.558
		c-0.477-0.195-1.118-0.36-1.904-0.492c-0.805-0.134-1.726-0.246-2.736-0.333c-1.028-0.09-2.1-0.215-3.183-0.37
		c-1.08-0.156-2.153-0.36-3.19-0.608c-1.038-0.248-1.98-0.599-2.8-1.042c-0.828-0.448-1.505-1.021-2.012-1.701
		c-0.517-0.692-0.778-1.563-0.778-2.586c0-0.986,0.226-2.001,0.671-3.017c0.442-1.009,1.032-2,1.753-2.944
		c0.719-0.944,1.558-1.846,2.493-2.68c0.934-0.833,1.92-1.573,2.931-2.202c1.014-0.631,2.031-1.134,3.024-1.495
		c1.003-0.364,1.951-0.549,2.82-0.549c0.221,0,0.452-0.005,0.695-0.017l0.151-0.003c0.203,0,0.392,0.02,0.559,0.059
		c0.233,0.056,0.427,0.174,0.576,0.352c0.154,0.182,0.232,0.445,0.232,0.783c0,0.784-0.268,1.359-0.794,1.71
		c-0.501,0.334-1.114,0.503-1.823,0.503l-1.504-0.48c-0.466,0.01-1.075,0.167-1.751,0.479c-0.688,0.316-1.393,0.749-2.095,1.286
		c-0.707,0.542-1.405,1.168-2.075,1.86c-0.67,0.691-1.272,1.417-1.791,2.157c-0.519,0.738-0.94,1.483-1.256,2.213
		c-0.313,0.721-0.471,1.377-0.471,1.951c0,0.711,0.222,1.274,0.678,1.72c0.47,0.458,1.101,0.833,1.875,1.112
		c0.789,0.285,1.707,0.503,2.729,0.646c1.038,0.146,2.094,0.273,3.165,0.385c1.076,0.112,2.135,0.235,3.177,0.37
		c1.046,0.135,1.987,0.323,2.799,0.56c0.827,0.241,1.507,0.582,2.02,1.013c0.538,0.453,0.811,1.063,0.811,1.814
		c0,0.715-0.286,1.435-0.85,2.139c-0.547,0.684-1.272,1.346-2.156,1.968c-0.874,0.618-1.896,1.2-3.034,1.73
		c-1.133,0.527-2.286,0.981-3.43,1.352s-2.275,0.66-3.365,0.861c-0.984,0.183-1.859,0.275-2.599,0.275L140.455,31.082z"/>
	<path d="M139.789,29.875c0.022-0.135,0.341-0.302,0.957-0.504c0.615-0.201,1.381-0.441,2.299-0.722
		c0.917-0.279,1.936-0.604,3.055-0.973c1.118-0.369,2.198-0.789,3.238-1.259c1.041-0.47,1.975-0.99,2.803-1.561
		c0.827-0.57,1.432-1.202,1.813-1.896c0-0.357-0.247-0.638-0.738-0.839c-0.493-0.201-1.142-0.369-1.947-0.504
		c-0.806-0.134-1.723-0.246-2.752-0.335c-1.029-0.09-2.087-0.213-3.172-0.369s-2.143-0.358-3.172-0.604s-1.946-0.588-2.752-1.023
		c-0.806-0.437-1.454-0.984-1.946-1.645s-0.738-1.482-0.738-2.467c0-0.962,0.218-1.941,0.654-2.937s1.012-1.963,1.729-2.903
		c0.716-0.94,1.538-1.823,2.467-2.651c0.929-0.828,1.896-1.555,2.903-2.182s2.002-1.119,2.987-1.477
		c0.984-0.357,1.901-0.537,2.752-0.537c0.224,0,0.458-0.005,0.705-0.017c0.246-0.011,0.464,0.006,0.654,0.05
		c0.189,0.045,0.347,0.14,0.47,0.286s0.185,0.364,0.185,0.654c0,0.716-0.235,1.231-0.705,1.544c-0.47,0.313-1.04,0.47-1.712,0.47
		l-1.442-0.47c-0.56,0-1.191,0.163-1.896,0.487s-1.416,0.761-2.132,1.309c-0.716,0.549-1.415,1.175-2.098,1.88
		c-0.683,0.705-1.286,1.432-1.812,2.181c-0.526,0.75-0.952,1.5-1.275,2.249c-0.325,0.75-0.487,1.426-0.487,2.03
		c0,0.761,0.246,1.382,0.738,1.863s1.142,0.867,1.947,1.157c0.805,0.291,1.729,0.51,2.769,0.655s2.098,0.273,3.172,0.386
		s2.131,0.234,3.172,0.369c1.04,0.134,1.963,0.318,2.769,0.554c0.806,0.234,1.454,0.56,1.946,0.974s0.739,0.968,0.739,1.661
		c0,0.671-0.269,1.343-0.806,2.014s-1.242,1.314-2.115,1.93c-0.872,0.616-1.874,1.187-3.003,1.712
		c-1.131,0.526-2.266,0.974-3.407,1.343c-1.141,0.369-2.254,0.654-3.34,0.855c-1.085,0.201-2.02,0.291-2.802,0.269
		c-0.225,0-0.415-0.078-0.571-0.235C139.733,30.49,139.699,30.233,139.789,29.875z"/>
</g>
</svg>
